<svg xmlns="http://www.w3.org/2000/svg" xmlns:xlink="http://www.w3.org/1999/xlink" width="1242" zoomAndPan="magnify" viewBox="0 0 931.5 593.249981" height="791" preserveAspectRatio="xMidYMid meet" version="1.0"><defs><clipPath id="397d3d517b"><path d="M 441.15625 10.589844 L 916.867188 10.589844 L 916.867188 486.304688 L 441.15625 486.304688 Z M 441.15625 10.589844 " clip-rule="nonzero"/></clipPath><clipPath id="20c17cf2b3"><path d="M 679.011719 10.589844 C 547.648438 10.589844 441.15625 117.082031 441.15625 248.445312 C 441.15625 379.8125 547.648438 486.304688 679.011719 486.304688 C 810.378906 486.304688 916.867188 379.8125 916.867188 248.445312 C 916.867188 117.082031 810.378906 10.589844 679.011719 10.589844 Z M 679.011719 10.589844 " clip-rule="nonzero"/></clipPath><linearGradient x1="-0.0000023598" gradientTransform="matrix(1.858252, 0, 0, 1.858252, 441.156582, 10.59092)" y1="128" x2="255.99999" gradientUnits="userSpaceOnUse" y2="128" id="3f70d905a7"><stop stop-opacity="1" stop-color="rgb(0%, 0%, 0%)" offset="0"/><stop stop-opacity="1" stop-color="rgb(0.175476%, 0.175476%, 0.175476%)" offset="0.0078125"/><stop stop-opacity="1" stop-color="rgb(0.526428%, 0.526428%, 0.526428%)" offset="0.015625"/><stop stop-opacity="1" stop-color="rgb(0.878906%, 0.878906%, 0.878906%)" offset="0.0234375"/><stop stop-opacity="1" stop-color="rgb(1.231384%, 1.231384%, 1.231384%)" offset="0.03125"/><stop stop-opacity="1" stop-color="rgb(1.583862%, 1.583862%, 1.583862%)" offset="0.0390625"/><stop stop-opacity="1" stop-color="rgb(1.93634%, 1.93634%, 1.93634%)" offset="0.046875"/><stop stop-opacity="1" stop-color="rgb(2.288818%, 2.288818%, 2.288818%)" offset="0.0546875"/><stop stop-opacity="1" stop-color="rgb(2.641296%, 2.641296%, 2.641296%)" offset="0.0625"/><stop stop-opacity="1" stop-color="rgb(2.993774%, 2.993774%, 2.993774%)" offset="0.0703125"/><stop stop-opacity="1" stop-color="rgb(3.346252%, 3.346252%, 3.346252%)" offset="0.078125"/><stop stop-opacity="1" stop-color="rgb(3.69873%, 3.69873%, 3.69873%)" offset="0.0859375"/><stop stop-opacity="1" stop-color="rgb(4.051208%, 4.051208%, 4.051208%)" offset="0.09375"/><stop stop-opacity="1" stop-color="rgb(4.402161%, 4.402161%, 4.402161%)" offset="0.101562"/><stop stop-opacity="1" stop-color="rgb(4.754639%, 4.754639%, 4.754639%)" offset="0.109375"/><stop stop-opacity="1" stop-color="rgb(5.107117%, 5.107117%, 5.107117%)" offset="0.117188"/><stop stop-opacity="1" stop-color="rgb(5.459595%, 5.459595%, 5.459595%)" offset="0.125"/><stop stop-opacity="1" stop-color="rgb(5.812073%, 5.812073%, 5.812073%)" offset="0.132812"/><stop stop-opacity="1" stop-color="rgb(6.164551%, 6.164551%, 6.164551%)" offset="0.140625"/><stop stop-opacity="1" stop-color="rgb(6.517029%, 6.517029%, 6.517029%)" offset="0.148437"/><stop stop-opacity="1" stop-color="rgb(6.869507%, 6.869507%, 6.869507%)" offset="0.15625"/><stop stop-opacity="1" stop-color="rgb(7.221985%, 7.221985%, 7.221985%)" offset="0.164062"/><stop stop-opacity="1" stop-color="rgb(7.574463%, 7.574463%, 7.574463%)" offset="0.171875"/><stop stop-opacity="1" stop-color="rgb(7.926941%, 7.926941%, 7.926941%)" offset="0.179688"/><stop stop-opacity="1" stop-color="rgb(8.277893%, 8.277893%, 8.277893%)" offset="0.1875"/><stop stop-opacity="1" stop-color="rgb(8.630371%, 8.630371%, 8.630371%)" offset="0.195313"/><stop stop-opacity="1" stop-color="rgb(8.982849%, 8.982849%, 8.982849%)" offset="0.203125"/><stop stop-opacity="1" stop-color="rgb(9.335327%, 9.335327%, 9.335327%)" offset="0.210938"/><stop stop-opacity="1" stop-color="rgb(9.687805%, 9.687805%, 9.687805%)" offset="0.21875"/><stop stop-opacity="1" stop-color="rgb(10.040283%, 10.040283%, 10.040283%)" offset="0.226562"/><stop stop-opacity="1" stop-color="rgb(10.392761%, 10.392761%, 10.392761%)" offset="0.234375"/><stop stop-opacity="1" stop-color="rgb(10.745239%, 10.745239%, 10.745239%)" offset="0.242188"/><stop stop-opacity="1" stop-color="rgb(11.097717%, 11.097717%, 11.097717%)" offset="0.25"/><stop stop-opacity="1" stop-color="rgb(11.450195%, 11.450195%, 11.450195%)" offset="0.257812"/><stop stop-opacity="1" stop-color="rgb(11.802673%, 11.802673%, 11.802673%)" offset="0.265625"/><stop stop-opacity="1" stop-color="rgb(12.155151%, 12.155151%, 12.155151%)" offset="0.273438"/><stop stop-opacity="1" stop-color="rgb(12.506104%, 12.506104%, 12.506104%)" offset="0.28125"/><stop stop-opacity="1" stop-color="rgb(12.858582%, 12.858582%, 12.858582%)" offset="0.289062"/><stop stop-opacity="1" stop-color="rgb(13.21106%, 13.21106%, 13.21106%)" offset="0.296875"/><stop stop-opacity="1" stop-color="rgb(13.563538%, 13.563538%, 13.563538%)" offset="0.304688"/><stop stop-opacity="1" stop-color="rgb(13.916016%, 13.916016%, 13.916016%)" offset="0.3125"/><stop stop-opacity="1" stop-color="rgb(14.268494%, 14.268494%, 14.268494%)" offset="0.320312"/><stop stop-opacity="1" stop-color="rgb(14.620972%, 14.620972%, 14.620972%)" offset="0.328125"/><stop stop-opacity="1" stop-color="rgb(14.97345%, 14.97345%, 14.97345%)" offset="0.335938"/><stop stop-opacity="1" stop-color="rgb(15.325928%, 15.325928%, 15.325928%)" offset="0.34375"/><stop stop-opacity="1" stop-color="rgb(15.678406%, 15.678406%, 15.678406%)" offset="0.351562"/><stop stop-opacity="1" stop-color="rgb(16.030884%, 16.030884%, 16.030884%)" offset="0.359375"/><stop stop-opacity="1" stop-color="rgb(16.381836%, 16.381836%, 16.381836%)" offset="0.367188"/><stop stop-opacity="1" stop-color="rgb(16.734314%, 16.734314%, 16.734314%)" offset="0.375"/><stop stop-opacity="1" stop-color="rgb(17.086792%, 17.086792%, 17.086792%)" offset="0.382813"/><stop stop-opacity="1" stop-color="rgb(17.43927%, 17.43927%, 17.43927%)" offset="0.390625"/><stop stop-opacity="1" stop-color="rgb(17.791748%, 17.791748%, 17.791748%)" offset="0.398438"/><stop stop-opacity="1" stop-color="rgb(18.144226%, 18.144226%, 18.144226%)" offset="0.40625"/><stop stop-opacity="1" stop-color="rgb(18.496704%, 18.496704%, 18.496704%)" offset="0.414062"/><stop stop-opacity="1" stop-color="rgb(18.849182%, 18.849182%, 18.849182%)" offset="0.421875"/><stop stop-opacity="1" stop-color="rgb(19.20166%, 19.20166%, 19.20166%)" offset="0.429688"/><stop stop-opacity="1" stop-color="rgb(19.554138%, 19.554138%, 19.554138%)" offset="0.4375"/><stop stop-opacity="1" stop-color="rgb(19.906616%, 19.906616%, 19.906616%)" offset="0.445313"/><stop stop-opacity="1" stop-color="rgb(20.257568%, 20.257568%, 20.257568%)" offset="0.453125"/><stop stop-opacity="1" stop-color="rgb(20.610046%, 20.610046%, 20.610046%)" offset="0.460938"/><stop stop-opacity="1" stop-color="rgb(20.962524%, 20.962524%, 20.962524%)" offset="0.46875"/><stop stop-opacity="1" stop-color="rgb(21.315002%, 21.315002%, 21.315002%)" offset="0.476562"/><stop stop-opacity="1" stop-color="rgb(21.66748%, 21.66748%, 21.66748%)" offset="0.484375"/><stop stop-opacity="1" stop-color="rgb(22.019958%, 22.019958%, 22.019958%)" offset="0.492188"/><stop stop-opacity="1" stop-color="rgb(22.372437%, 22.372437%, 22.372437%)" offset="0.5"/><stop stop-opacity="1" stop-color="rgb(22.724915%, 22.724915%, 22.724915%)" offset="0.507812"/><stop stop-opacity="1" stop-color="rgb(23.077393%, 23.077393%, 23.077393%)" offset="0.515625"/><stop stop-opacity="1" stop-color="rgb(23.429871%, 23.429871%, 23.429871%)" offset="0.523438"/><stop stop-opacity="1" stop-color="rgb(23.782349%, 23.782349%, 23.782349%)" offset="0.53125"/><stop stop-opacity="1" stop-color="rgb(24.134827%, 24.134827%, 24.134827%)" offset="0.539062"/><stop stop-opacity="1" stop-color="rgb(24.485779%, 24.485779%, 24.485779%)" offset="0.546875"/><stop stop-opacity="1" stop-color="rgb(24.838257%, 24.838257%, 24.838257%)" offset="0.554688"/><stop stop-opacity="1" stop-color="rgb(25.190735%, 25.190735%, 25.190735%)" offset="0.5625"/><stop stop-opacity="1" stop-color="rgb(25.543213%, 25.543213%, 25.543213%)" offset="0.570312"/><stop stop-opacity="1" stop-color="rgb(25.895691%, 25.895691%, 25.895691%)" offset="0.578125"/><stop stop-opacity="1" stop-color="rgb(26.248169%, 26.248169%, 26.248169%)" offset="0.585938"/><stop stop-opacity="1" stop-color="rgb(26.600647%, 26.600647%, 26.600647%)" offset="0.59375"/><stop stop-opacity="1" stop-color="rgb(26.953125%, 26.953125%, 26.953125%)" offset="0.601562"/><stop stop-opacity="1" stop-color="rgb(27.305603%, 27.305603%, 27.305603%)" offset="0.609375"/><stop stop-opacity="1" stop-color="rgb(27.658081%, 27.658081%, 27.658081%)" offset="0.617188"/><stop stop-opacity="1" stop-color="rgb(28.010559%, 28.010559%, 28.010559%)" offset="0.625"/><stop stop-opacity="1" stop-color="rgb(28.361511%, 28.361511%, 28.361511%)" offset="0.632812"/><stop stop-opacity="1" stop-color="rgb(28.713989%, 28.713989%, 28.713989%)" offset="0.640625"/><stop stop-opacity="1" stop-color="rgb(29.066467%, 29.066467%, 29.066467%)" offset="0.648437"/><stop stop-opacity="1" stop-color="rgb(29.418945%, 29.418945%, 29.418945%)" offset="0.65625"/><stop stop-opacity="1" stop-color="rgb(29.771423%, 29.771423%, 29.771423%)" offset="0.664062"/><stop stop-opacity="1" stop-color="rgb(30.123901%, 30.123901%, 30.123901%)" offset="0.671875"/><stop stop-opacity="1" stop-color="rgb(30.476379%, 30.476379%, 30.476379%)" offset="0.679688"/><stop stop-opacity="1" stop-color="rgb(30.828857%, 30.828857%, 30.828857%)" offset="0.6875"/><stop stop-opacity="1" stop-color="rgb(31.181335%, 31.181335%, 31.181335%)" offset="0.695312"/><stop stop-opacity="1" stop-color="rgb(31.533813%, 31.533813%, 31.533813%)" offset="0.703125"/><stop stop-opacity="1" stop-color="rgb(31.886292%, 31.886292%, 31.886292%)" offset="0.710938"/><stop stop-opacity="1" stop-color="rgb(32.237244%, 32.237244%, 32.237244%)" offset="0.71875"/><stop stop-opacity="1" stop-color="rgb(32.589722%, 32.589722%, 32.589722%)" offset="0.726563"/><stop stop-opacity="1" stop-color="rgb(32.9422%, 32.9422%, 32.9422%)" offset="0.734375"/><stop stop-opacity="1" stop-color="rgb(33.294678%, 33.294678%, 33.294678%)" offset="0.742188"/><stop stop-opacity="1" stop-color="rgb(33.647156%, 33.647156%, 33.647156%)" offset="0.75"/><stop stop-opacity="1" stop-color="rgb(33.999634%, 33.999634%, 33.999634%)" offset="0.757812"/><stop stop-opacity="1" stop-color="rgb(34.352112%, 34.352112%, 34.352112%)" offset="0.765625"/><stop stop-opacity="1" stop-color="rgb(34.70459%, 34.70459%, 34.70459%)" offset="0.773438"/><stop stop-opacity="1" stop-color="rgb(35.057068%, 35.057068%, 35.057068%)" offset="0.78125"/><stop stop-opacity="1" stop-color="rgb(35.409546%, 35.409546%, 35.409546%)" offset="0.789062"/><stop stop-opacity="1" stop-color="rgb(35.762024%, 35.762024%, 35.762024%)" offset="0.796875"/><stop stop-opacity="1" stop-color="rgb(36.114502%, 36.114502%, 36.114502%)" offset="0.804688"/><stop stop-opacity="1" stop-color="rgb(36.465454%, 36.465454%, 36.465454%)" offset="0.8125"/><stop stop-opacity="1" stop-color="rgb(36.817932%, 36.817932%, 36.817932%)" offset="0.820313"/><stop stop-opacity="1" stop-color="rgb(37.17041%, 37.17041%, 37.17041%)" offset="0.828125"/><stop stop-opacity="1" stop-color="rgb(37.522888%, 37.522888%, 37.522888%)" offset="0.835938"/><stop stop-opacity="1" stop-color="rgb(37.875366%, 37.875366%, 37.875366%)" offset="0.84375"/><stop stop-opacity="1" stop-color="rgb(38.227844%, 38.227844%, 38.227844%)" offset="0.851562"/><stop stop-opacity="1" stop-color="rgb(38.580322%, 38.580322%, 38.580322%)" offset="0.859375"/><stop stop-opacity="1" stop-color="rgb(38.9328%, 38.9328%, 38.9328%)" offset="0.867187"/><stop stop-opacity="1" stop-color="rgb(39.285278%, 39.285278%, 39.285278%)" offset="0.875"/><stop stop-opacity="1" stop-color="rgb(39.637756%, 39.637756%, 39.637756%)" offset="0.882812"/><stop stop-opacity="1" stop-color="rgb(39.990234%, 39.990234%, 39.990234%)" offset="0.890625"/><stop stop-opacity="1" stop-color="rgb(40.341187%, 40.341187%, 40.341187%)" offset="0.898438"/><stop stop-opacity="1" stop-color="rgb(40.693665%, 40.693665%, 40.693665%)" offset="0.90625"/><stop stop-opacity="1" stop-color="rgb(41.046143%, 41.046143%, 41.046143%)" offset="0.914062"/><stop stop-opacity="1" stop-color="rgb(41.398621%, 41.398621%, 41.398621%)" offset="0.921875"/><stop stop-opacity="1" stop-color="rgb(41.751099%, 41.751099%, 41.751099%)" offset="0.929688"/><stop stop-opacity="1" stop-color="rgb(42.103577%, 42.103577%, 42.103577%)" offset="0.9375"/><stop stop-opacity="1" stop-color="rgb(42.456055%, 42.456055%, 42.456055%)" offset="0.945312"/><stop stop-opacity="1" stop-color="rgb(42.808533%, 42.808533%, 42.808533%)" offset="0.953125"/><stop stop-opacity="1" stop-color="rgb(43.161011%, 43.161011%, 43.161011%)" offset="0.960937"/><stop stop-opacity="1" stop-color="rgb(43.513489%, 43.513489%, 43.513489%)" offset="0.96875"/><stop stop-opacity="1" stop-color="rgb(43.865967%, 43.865967%, 43.865967%)" offset="0.976562"/><stop stop-opacity="1" stop-color="rgb(44.216919%, 44.216919%, 44.216919%)" offset="0.984375"/><stop stop-opacity="1" stop-color="rgb(44.569397%, 44.569397%, 44.569397%)" offset="0.992188"/><stop stop-opacity="1" stop-color="rgb(44.921875%, 44.921875%, 44.921875%)" offset="1"/></linearGradient><clipPath id="81d8922363"><path d="M 607.457031 83.511719 L 689.421875 83.511719 L 689.421875 114 L 607.457031 114 Z M 607.457031 83.511719 " clip-rule="nonzero"/></clipPath><clipPath id="7c327fca3a"><path d="M 607.617188 97.515625 C 615.347656 86.316406 629.347656 81.121094 642.507812 84.574219 L 684.34375 95.53125 C 689.984375 97.007812 690.792969 104.683594 685.578125 107.308594 L 676.386719 111.933594 C 672.539062 113.867188 668.089844 114.304688 663.9375 113.152344 Z M 607.617188 97.515625 " clip-rule="nonzero"/></clipPath><clipPath id="4f3ee2061f"><path d="M 712.1875 205.15625 L 807.8125 205.15625 L 807.8125 339.8125 L 712.1875 339.8125 Z M 712.1875 205.15625 " clip-rule="nonzero"/></clipPath><clipPath id="bcd761dd2c"><path d="M 721.726562 209.316406 C 730.273438 205.191406 738.097656 204.175781 744.234375 207.78125 C 752.769531 212.789062 759.636719 220.382812 763.949219 229.445312 L 805.039062 315.925781 C 808.082031 322.328125 807.882812 329.851562 804.5 336.085938 C 802.214844 340.316406 796.128906 340.25 793.921875 335.976562 L 751.578125 253.847656 C 744.691406 240.496094 732.835938 230.265625 718.613281 225.421875 L 717.53125 225.050781 C 711.585938 223.023438 710.984375 214.847656 716.574219 211.96875 Z M 721.726562 209.316406 " clip-rule="nonzero"/></clipPath><clipPath id="31943f07e3"><path d="M 562 153.117188 L 844.890625 153.117188 L 844.890625 273.460938 L 562 273.460938 Z M 562 153.117188 " clip-rule="nonzero"/></clipPath><clipPath id="028cf7527b"><path d="M 564.183594 160.445312 C 568.261719 154.539062 575.773438 151.988281 582.605469 154.199219 L 665.269531 180.90625 C 669.351562 182.230469 673.820312 181.921875 677.691406 180.066406 L 726.359375 156.675781 C 730.242188 154.8125 734.703125 154.4375 738.839844 155.644531 L 750.050781 158.914062 C 768.714844 164.355469 783.972656 178.101562 791.328125 196.09375 L 798.695312 214.125 C 800.214844 217.835938 803.925781 220.203125 807.925781 220.007812 L 829.085938 218.992188 C 833.046875 218.800781 836.679688 221.257812 837.984375 225.003906 L 841.652344 235.539062 C 845.972656 247.945312 844.855469 261.6875 838.589844 273.242188 L 827.195312 243.335938 C 825.769531 239.59375 822.109375 237.160156 818.109375 237.296875 L 794.519531 238.085938 C 790.480469 238.222656 786.742188 235.875 785.105469 232.175781 L 775.890625 211.367188 C 769.871094 197.773438 758.175781 187.382812 743.960938 183.003906 L 732.769531 179.558594 L 676.054688 206.007812 C 672.167969 207.820312 667.699219 208.058594 663.632812 206.679688 L 568.769531 174.339844 C 563.011719 172.375 560.722656 165.460938 564.183594 160.453125 " clip-rule="nonzero"/></clipPath><clipPath id="317ce106d5"><path d="M 588 107.582031 L 826 107.582031 L 826 204.507812 L 588 204.507812 Z M 588 107.582031 " clip-rule="nonzero"/></clipPath><clipPath id="2333b3602a"><path d="M 825.171875 188.183594 C 828.128906 196.679688 822.285156 207.304688 814.332031 203.09375 C 812.375 202.058594 810.800781 200.339844 809.980469 198.183594 L 799.367188 170.328125 C 794.128906 156.574219 782.578125 146.0625 768.398438 142.128906 L 736.386719 133.242188 C 732.222656 132.089844 727.765625 132.464844 723.863281 134.308594 L 675.441406 157.164062 C 671.554688 159 667.085938 159.320312 662.976562 158.046875 L 594.078125 136.832031 C 588.523438 135.117188 586.226562 128.511719 589.53125 123.722656 C 593.5 117.972656 600.75 115.398438 607.453125 117.351562 L 661.867188 133.214844 C 666.003906 134.421875 670.460938 134.050781 674.34375 132.171875 L 720.980469 109.625 C 724.867188 107.746094 729.324219 107.3125 733.5 108.410156 L 773.980469 119.007812 C 792.578125 123.878906 807.628906 137.789062 813.945312 155.945312 Z M 825.171875 188.183594 " clip-rule="nonzero"/></clipPath><clipPath id="e0d11a56e6"><path d="M 794.152344 252.644531 L 827.328125 252.644531 L 827.328125 302.734375 L 794.152344 302.734375 Z M 794.152344 252.644531 " clip-rule="nonzero"/></clipPath><clipPath id="55e5b75afa"><path d="M 807.640625 252.734375 C 811.644531 252.546875 815.351562 254.917969 816.871094 258.628906 L 825.457031 279.640625 C 828.074219 286.050781 827.679688 293.351562 824.375 299.445312 C 822.238281 303.382812 816.519531 303.15625 814.703125 299.058594 L 794.460938 253.355469 Z M 807.640625 252.734375 " clip-rule="nonzero"/></clipPath><clipPath id="5ab9b81706"><path d="M 513.785156 226.625 L 563 226.625 L 563 268.90625 L 513.785156 268.90625 Z M 513.785156 226.625 " clip-rule="nonzero"/></clipPath><clipPath id="23c340861a"><path d="M 517.253906 228.457031 L 518.269531 226.984375 L 553.902344 241.007812 C 557.773438 242.535156 560.613281 245.960938 561.390625 250.050781 L 562.835938 257.691406 C 564.171875 264.773438 557.117188 270.507812 550.464844 267.75 L 525.839844 257.554688 C 514.355469 252.800781 510.191406 238.691406 517.253906 228.457031 " clip-rule="nonzero"/></clipPath><clipPath id="afaf055457"><path d="M 536 191 L 724.546875 191 L 724.546875 370 L 536 370 Z M 536 191 " clip-rule="nonzero"/></clipPath><clipPath id="d0d331a455"><path d="M 537.988281 198.40625 C 542.179688 192.339844 549.960938 189.824219 556.902344 192.308594 L 596.246094 206.351562 C 600.15625 207.746094 603.074219 211.109375 603.902344 215.171875 L 612.671875 258.089844 C 613.503906 262.175781 616.371094 265.589844 620.253906 267.113281 L 678.5 290.035156 C 693.488281 295.9375 706.320312 306.414062 715.101562 319.917969 L 721.84375 330.296875 C 724.183594 333.898438 725.050781 338.289062 724.25 342.503906 L 719.070312 369.765625 L 700.296875 343.316406 C 691.4375 330.828125 679.183594 321.066406 665.035156 315.207031 L 595.890625 286.566406 C 592.039062 284.96875 589.246094 281.503906 588.507812 277.398438 L 580.625 233.582031 C 579.890625 229.5 577.042969 226.085938 573.160156 224.625 L 542.601562 213.128906 C 536.640625 210.886719 534.375 203.648438 537.988281 198.40625 " clip-rule="nonzero"/></clipPath><clipPath id="ee9cabf2bc"><path d="M 771 350 L 786.996094 350 L 786.996094 377.542969 L 771 377.542969 Z M 771 350 " clip-rule="nonzero"/></clipPath><clipPath id="b2e1d3a54e"><path d="M 783.925781 353.414062 C 787.4375 359.753906 787.476562 367.492188 784.023438 373.863281 C 781.523438 378.476562 774.632812 378.867188 772.617188 374.019531 C 771.320312 370.898438 770.910156 367.453125 771.460938 364.085938 L 772.9375 354.972656 C 773.824219 349.53125 781.082031 348.269531 783.75 353.089844 Z M 783.925781 353.414062 " clip-rule="nonzero"/></clipPath><clipPath id="7070ac8c38"><path d="M 629.574219 222.070312 L 768.78125 222.070312 L 768.78125 410.71875 L 629.574219 410.71875 Z M 629.574219 222.070312 " clip-rule="nonzero"/></clipPath><clipPath id="d3c66ba90a"><path d="M 726.40625 297.808594 C 718.570312 284.820312 706.523438 274.792969 692.320312 269.453125 L 638.898438 249.355469 C 635.007812 247.886719 632.136719 244.496094 631.339844 240.417969 L 630.03125 233.71875 C 628.609375 226.460938 635.632812 220.417969 642.605469 222.90625 L 702.707031 244.359375 C 719.355469 250.304688 733.351562 262.175781 741.921875 277.640625 L 761.167969 312.347656 C 763.265625 316.132812 764.007812 320.550781 763.25 324.816406 L 754.816406 372.601562 C 754.066406 376.835938 754.957031 381.21875 757.304688 384.820312 L 768.632812 402.246094 C 763.347656 411.992188 749.675781 412.800781 743.285156 403.738281 L 735.003906 392.007812 C 732.535156 388.507812 731.566406 384.144531 732.320312 379.929688 L 741.132812 330.777344 C 741.898438 326.53125 741.082031 322.132812 738.855469 318.441406 Z M 726.40625 297.808594 " clip-rule="nonzero"/></clipPath><clipPath id="31014a7272"><path d="M 619.167969 336.558594 L 736.90625 336.558594 L 736.90625 413.972656 L 619.167969 413.972656 Z M 619.167969 336.558594 " clip-rule="nonzero"/></clipPath><clipPath id="7098abe753"><path d="M 655.710938 360.28125 C 652.566406 357.167969 648.871094 354.640625 644.820312 352.84375 L 619.5625 341.625 L 624.449219 338.554688 C 627.984375 336.335938 632.433594 336.015625 636.253906 337.710938 L 647.261719 342.59375 C 651.3125 344.394531 655.027344 346.894531 658.210938 349.96875 L 686.441406 377.210938 C 689.632812 380.292969 693.332031 382.800781 697.378906 384.625 L 724.078125 396.671875 L 736.839844 413.375 L 692.894531 393.570312 C 688.855469 391.746094 685.164062 389.226562 682.003906 386.117188 Z M 655.710938 360.28125 " clip-rule="nonzero"/></clipPath><clipPath id="99e063536e"><path d="M 675.109375 354.773438 L 714.789062 354.773438 L 714.789062 384 L 675.109375 384 Z M 675.109375 354.773438 " clip-rule="nonzero"/></clipPath><clipPath id="56a35f4c7e"><path d="M 675.128906 354.964844 L 700.992188 366.445312 L 714.269531 383.816406 L 700.496094 377.679688 C 696.453125 375.878906 692.792969 373.308594 689.722656 370.117188 Z M 675.128906 354.964844 " clip-rule="nonzero"/></clipPath><clipPath id="92219c8cce"><path d="M 566.476562 325.5 L 668.605469 325.5 L 668.605469 382.746094 L 566.476562 382.746094 Z M 566.476562 325.5 " clip-rule="nonzero"/></clipPath><clipPath id="ece8f89af7"><path d="M 668.226562 382.449219 L 606.324219 354.554688 C 591.8125 348.015625 578.722656 338.628906 567.871094 326.972656 L 566.625 325.636719 L 638.511719 358.074219 C 642.558594 359.898438 646.296875 362.359375 649.566406 365.363281 Z M 668.226562 382.449219 " clip-rule="nonzero"/></clipPath><clipPath id="8679130cdb"><path d="M 549 299 L 692.671875 299 L 692.671875 354 L 549 354 Z M 549 299 " clip-rule="nonzero"/></clipPath><clipPath id="266b1bd953"><path d="M 549.53125 299.195312 L 597.355469 320.425781 C 601.160156 322.121094 605.597656 321.742188 609.066406 319.441406 L 617.257812 314.007812 C 620.734375 311.703125 625.171875 311.292969 629.015625 312.921875 L 656.695312 324.648438 C 670.972656 330.699219 683.28125 340.738281 692.082031 353.507812 L 632.707031 327.539062 C 628.871094 325.867188 624.421875 326.179688 620.859375 328.375 L 613.5625 332.875 C 610 335.070312 605.558594 335.371094 601.734375 333.664062 L 565.84375 317.683594 C 561.851562 315.90625 558.449219 312.992188 556.078125 309.324219 Z M 549.53125 299.195312 " clip-rule="nonzero"/></clipPath><clipPath id="061cdeecf7"><path d="M 531.347656 271.507812 L 610.710938 271.507812 L 610.710938 311.839844 L 531.347656 311.839844 Z M 531.347656 271.507812 " clip-rule="nonzero"/></clipPath><clipPath id="715907c7bc"><path d="M 531.753906 271.710938 L 610.46875 305.066406 L 604.78125 309.078125 C 601.386719 311.46875 596.964844 311.925781 593.160156 310.257812 L 548.445312 290.707031 C 544.445312 288.960938 541.03125 286.054688 538.660156 282.394531 Z M 531.753906 271.710938 " clip-rule="nonzero"/></clipPath></defs><g clip-path="url(#397d3d517b)"><g clip-path="url(#20c17cf2b3)"><path fill="url(#3f70d905a7)" d="M 441.15625 10.589844 L 441.15625 486.304688 L 916.867188 486.304688 L 916.867188 10.589844 Z M 441.15625 10.589844 " fill-rule="nonzero"/></g></g><g clip-path="url(#81d8922363)"><g clip-path="url(#7c327fca3a)"><path fill="#f266ff" d="M 510.53125 80.261719 L 847.496094 80.261719 L 847.496094 416.574219 L 510.53125 416.574219 Z M 510.53125 80.261719 " fill-opacity="1" fill-rule="nonzero"/></g></g><g clip-path="url(#4f3ee2061f)"><g clip-path="url(#bcd761dd2c)"><path fill="#ff637e" d="M 510.53125 80.261719 L 847.496094 80.261719 L 847.496094 416.574219 L 510.53125 416.574219 Z M 510.53125 80.261719 " fill-opacity="1" fill-rule="nonzero"/></g></g><g clip-path="url(#31943f07e3)"><g clip-path="url(#028cf7527b)"><path fill="#00d7be" d="M 510.53125 80.261719 L 847.496094 80.261719 L 847.496094 416.574219 L 510.53125 416.574219 Z M 510.53125 80.261719 " fill-opacity="1" fill-rule="nonzero"/></g></g><g clip-path="url(#317ce106d5)"><g clip-path="url(#2333b3602a)"><path fill="#1f93ff" d="M 510.53125 80.261719 L 847.496094 80.261719 L 847.496094 416.574219 L 510.53125 416.574219 Z M 510.53125 80.261719 " fill-opacity="1" fill-rule="nonzero"/></g></g><g clip-path="url(#e0d11a56e6)"><g clip-path="url(#55e5b75afa)"><path fill="#ffd500" d="M 510.53125 80.261719 L 847.496094 80.261719 L 847.496094 416.574219 L 510.53125 416.574219 Z M 510.53125 80.261719 " fill-opacity="1" fill-rule="nonzero"/></g></g><g clip-path="url(#5ab9b81706)"><g clip-path="url(#23c340861a)"><path fill="#1f93ff" d="M 510.53125 80.261719 L 847.496094 80.261719 L 847.496094 416.574219 L 510.53125 416.574219 Z M 510.53125 80.261719 " fill-opacity="1" fill-rule="nonzero"/></g></g><g clip-path="url(#afaf055457)"><g clip-path="url(#d0d331a455)"><path fill="#f266ff" d="M 510.53125 80.261719 L 847.496094 80.261719 L 847.496094 416.574219 L 510.53125 416.574219 Z M 510.53125 80.261719 " fill-opacity="1" fill-rule="nonzero"/></g></g><g clip-path="url(#ee9cabf2bc)"><g clip-path="url(#b2e1d3a54e)"><path fill="#1f93ff" d="M 510.53125 80.261719 L 847.496094 80.261719 L 847.496094 416.574219 L 510.53125 416.574219 Z M 510.53125 80.261719 " fill-opacity="1" fill-rule="nonzero"/></g></g><g clip-path="url(#7070ac8c38)"><g clip-path="url(#d3c66ba90a)"><path fill="#ffcf00" d="M 510.53125 80.261719 L 847.496094 80.261719 L 847.496094 416.574219 L 510.53125 416.574219 Z M 510.53125 80.261719 " fill-opacity="1" fill-rule="nonzero"/></g></g><g clip-path="url(#31014a7272)"><g clip-path="url(#7098abe753)"><path fill="#61d742" d="M 510.53125 80.261719 L 847.496094 80.261719 L 847.496094 416.574219 L 510.53125 416.574219 Z M 510.53125 80.261719 " fill-opacity="1" fill-rule="nonzero"/></g></g><g clip-path="url(#99e063536e)"><g clip-path="url(#56a35f4c7e)"><path fill="#1f93ff" d="M 510.53125 80.261719 L 847.496094 80.261719 L 847.496094 416.574219 L 510.53125 416.574219 Z M 510.53125 80.261719 " fill-opacity="1" fill-rule="nonzero"/></g></g><g clip-path="url(#92219c8cce)"><g clip-path="url(#ece8f89af7)"><path fill="#1f93ff" d="M 510.53125 80.261719 L 847.496094 80.261719 L 847.496094 416.574219 L 510.53125 416.574219 Z M 510.53125 80.261719 " fill-opacity="1" fill-rule="nonzero"/></g></g><g clip-path="url(#8679130cdb)"><g clip-path="url(#266b1bd953)"><path fill="#ff7a78" d="M 510.53125 80.261719 L 847.496094 80.261719 L 847.496094 416.574219 L 510.53125 416.574219 Z M 510.53125 80.261719 " fill-opacity="1" fill-rule="nonzero"/></g></g><g clip-path="url(#061cdeecf7)"><g clip-path="url(#715907c7bc)"><path fill="#ffcf00" d="M 510.53125 80.261719 L 847.496094 80.261719 L 847.496094 416.574219 L 510.53125 416.574219 Z M 510.53125 80.261719 " fill-opacity="1" fill-rule="nonzero"/></g></g></svg>