<svg xmlns="http://www.w3.org/2000/svg" xmlns:xlink="http://www.w3.org/1999/xlink" width="40" zoomAndPan="magnify" viewBox="0 0 30 30.000001" height="40" preserveAspectRatio="xMidYMid meet" version="1.0"><defs><clipPath id="69a8120178"><path d="M 9.367188 1.53125 L 15.820312 1.53125 L 15.820312 3.9375 L 9.367188 3.9375 Z M 9.367188 1.53125 " clip-rule="nonzero"/></clipPath><clipPath id="986a5ce0b4"><path d="M 9.378906 2.632812 C 9.988281 1.753906 11.089844 1.34375 12.125 1.613281 L 15.417969 2.476562 C 15.863281 2.59375 15.925781 3.199219 15.515625 3.40625 L 14.792969 3.769531 C 14.492188 3.921875 14.140625 3.957031 13.8125 3.863281 Z M 9.378906 2.632812 " clip-rule="nonzero"/></clipPath><clipPath id="aac2a93b61"><path d="M 17.613281 11.109375 L 25.140625 11.109375 L 25.140625 21.710938 L 17.613281 21.710938 Z M 17.613281 11.109375 " clip-rule="nonzero"/></clipPath><clipPath id="98d689dbac"><path d="M 18.363281 11.433594 C 19.035156 11.109375 19.652344 11.03125 20.136719 11.3125 C 20.808594 11.707031 21.347656 12.308594 21.6875 13.019531 L 24.921875 19.828125 C 25.160156 20.332031 25.144531 20.925781 24.878906 21.414062 C 24.699219 21.75 24.21875 21.742188 24.046875 21.40625 L 20.710938 14.941406 C 20.171875 13.890625 19.238281 13.085938 18.117188 12.703125 L 18.03125 12.675781 C 17.5625 12.515625 17.515625 11.871094 17.957031 11.644531 Z M 18.363281 11.433594 " clip-rule="nonzero"/></clipPath><clipPath id="27929fbaae"><path d="M 5.78125 7.011719 L 28.058594 7.011719 L 28.058594 16.484375 L 5.78125 16.484375 Z M 5.78125 7.011719 " clip-rule="nonzero"/></clipPath><clipPath id="70c726b586"><path d="M 5.960938 7.589844 C 6.28125 7.121094 6.871094 6.921875 7.410156 7.097656 L 13.917969 9.199219 C 14.238281 9.304688 14.589844 9.277344 14.894531 9.132812 L 18.726562 7.289062 C 19.035156 7.144531 19.382812 7.113281 19.710938 7.210938 L 20.59375 7.46875 C 22.0625 7.894531 23.261719 8.976562 23.84375 10.394531 L 24.421875 11.8125 C 24.542969 12.105469 24.835938 12.292969 25.148438 12.277344 L 26.816406 12.195312 C 27.125 12.183594 27.414062 12.375 27.515625 12.671875 L 27.804688 13.5 C 28.144531 14.476562 28.054688 15.558594 27.5625 16.46875 L 26.667969 14.113281 C 26.554688 13.820312 26.265625 13.628906 25.949219 13.636719 L 24.09375 13.699219 C 23.777344 13.710938 23.480469 13.527344 23.351562 13.234375 L 22.625 11.597656 C 22.152344 10.527344 21.230469 9.707031 20.113281 9.363281 L 19.230469 9.09375 L 14.765625 11.175781 C 14.460938 11.316406 14.109375 11.335938 13.789062 11.226562 L 6.320312 8.683594 C 5.867188 8.527344 5.6875 7.984375 5.960938 7.589844 " clip-rule="nonzero"/></clipPath><clipPath id="6b563e73e7"><path d="M 7.832031 3.425781 L 26.574219 3.425781 L 26.574219 11.058594 L 7.832031 11.058594 Z M 7.832031 3.425781 " clip-rule="nonzero"/></clipPath><clipPath id="9b0f382a14"><path d="M 26.507812 9.773438 C 26.738281 10.441406 26.28125 11.277344 25.652344 10.945312 C 25.5 10.863281 25.375 10.730469 25.3125 10.558594 L 24.476562 8.367188 C 24.0625 7.285156 23.152344 6.457031 22.035156 6.144531 L 19.515625 5.445312 C 19.1875 5.355469 18.839844 5.386719 18.53125 5.53125 L 14.71875 7.328125 C 14.414062 7.472656 14.0625 7.5 13.738281 7.398438 L 8.3125 5.730469 C 7.875 5.59375 7.695312 5.074219 7.957031 4.695312 C 8.269531 4.242188 8.839844 4.042969 9.367188 4.195312 L 13.648438 5.445312 C 13.976562 5.539062 14.328125 5.511719 14.632812 5.363281 L 18.304688 3.585938 C 18.609375 3.4375 18.960938 3.40625 19.289062 3.492188 L 22.476562 4.324219 C 23.941406 4.710938 25.125 5.804688 25.625 7.234375 Z M 26.507812 9.773438 " clip-rule="nonzero"/></clipPath><clipPath id="1d530a29e2"><path d="M 24.066406 14.847656 L 26.675781 14.847656 L 26.675781 18.789062 L 24.066406 18.789062 Z M 24.066406 14.847656 " clip-rule="nonzero"/></clipPath><clipPath id="e480e66c26"><path d="M 25.125 14.855469 C 25.441406 14.839844 25.734375 15.027344 25.851562 15.316406 L 26.527344 16.972656 C 26.734375 17.476562 26.703125 18.050781 26.445312 18.53125 C 26.277344 18.839844 25.824219 18.824219 25.683594 18.5 L 24.089844 14.902344 Z M 25.125 14.855469 " clip-rule="nonzero"/></clipPath><clipPath id="786627a43e"><path d="M 1.992188 12.796875 L 5.882812 12.796875 L 5.882812 16.125 L 1.992188 16.125 Z M 1.992188 12.796875 " clip-rule="nonzero"/></clipPath><clipPath id="2c270642bc"><path d="M 2.265625 12.941406 L 2.34375 12.828125 L 5.152344 13.929688 C 5.453125 14.050781 5.679688 14.320312 5.738281 14.640625 L 5.855469 15.242188 C 5.957031 15.800781 5.402344 16.253906 4.878906 16.035156 L 2.941406 15.234375 C 2.035156 14.859375 1.710938 13.746094 2.265625 12.941406 " clip-rule="nonzero"/></clipPath><clipPath id="09f167aa54"><path d="M 3.734375 10 L 18.585938 10 L 18.585938 24.117188 L 3.734375 24.117188 Z M 3.734375 10 " clip-rule="nonzero"/></clipPath><clipPath id="27dca03dd3"><path d="M 3.898438 10.578125 C 4.226562 10.097656 4.839844 9.902344 5.386719 10.097656 L 8.484375 11.203125 C 8.792969 11.3125 9.023438 11.578125 9.085938 11.898438 L 9.777344 15.273438 C 9.84375 15.597656 10.066406 15.867188 10.375 15.984375 L 14.960938 17.789062 C 16.140625 18.253906 17.148438 19.078125 17.839844 20.144531 L 18.371094 20.960938 C 18.554688 21.242188 18.625 21.589844 18.5625 21.921875 L 18.152344 24.066406 L 16.675781 21.984375 C 15.976562 21.003906 15.011719 20.234375 13.898438 19.773438 L 8.457031 17.515625 C 8.152344 17.390625 7.933594 17.117188 7.875 16.796875 L 7.253906 13.347656 C 7.195312 13.023438 6.972656 12.753906 6.667969 12.640625 L 4.261719 11.734375 C 3.792969 11.558594 3.613281 10.988281 3.898438 10.578125 " clip-rule="nonzero"/></clipPath><clipPath id="395a995aca"><path d="M 22.222656 22.476562 L 23.5 22.476562 L 23.5 24.679688 L 22.222656 24.679688 Z M 22.222656 22.476562 " clip-rule="nonzero"/></clipPath><clipPath id="a18fdcda3d"><path d="M 23.257812 22.78125 C 23.535156 23.277344 23.539062 23.886719 23.265625 24.390625 C 23.070312 24.753906 22.527344 24.785156 22.371094 24.402344 C 22.265625 24.15625 22.234375 23.886719 22.277344 23.621094 L 22.394531 22.902344 C 22.464844 22.472656 23.035156 22.375 23.246094 22.753906 Z M 23.257812 22.78125 " clip-rule="nonzero"/></clipPath><clipPath id="37eac0e76c"><path d="M 11.109375 12.441406 L 22.066406 12.441406 L 22.066406 27.292969 L 11.109375 27.292969 Z M 11.109375 12.441406 " clip-rule="nonzero"/></clipPath><clipPath id="1a7be9469f"><path d="M 18.730469 18.402344 C 18.113281 17.378906 17.164062 16.589844 16.046875 16.167969 L 11.839844 14.585938 C 11.535156 14.472656 11.308594 14.203125 11.246094 13.882812 L 11.144531 13.355469 C 11.03125 12.785156 11.585938 12.308594 12.132812 12.503906 L 16.867188 14.195312 C 18.175781 14.664062 19.277344 15.597656 19.953125 16.8125 L 21.46875 19.546875 C 21.632812 19.84375 21.691406 20.191406 21.632812 20.527344 L 20.96875 24.289062 C 20.910156 24.625 20.980469 24.96875 21.164062 25.253906 L 22.054688 26.625 C 21.640625 27.390625 20.5625 27.457031 20.058594 26.742188 L 19.40625 25.816406 C 19.214844 25.542969 19.136719 25.199219 19.195312 24.867188 L 19.890625 20.996094 C 19.949219 20.664062 19.886719 20.316406 19.710938 20.027344 Z M 18.730469 18.402344 " clip-rule="nonzero"/></clipPath><clipPath id="b8574a5ffb"><path d="M 10.289062 21.453125 L 19.558594 21.453125 L 19.558594 27.546875 L 10.289062 27.546875 Z M 10.289062 21.453125 " clip-rule="nonzero"/></clipPath><clipPath id="4a19e35630"><path d="M 13.164062 23.320312 C 12.917969 23.074219 12.628906 22.875 12.308594 22.734375 L 10.320312 21.851562 L 10.703125 21.609375 C 10.984375 21.433594 11.332031 21.410156 11.632812 21.542969 L 12.5 21.929688 C 12.820312 22.070312 13.113281 22.265625 13.363281 22.507812 L 15.585938 24.652344 C 15.835938 24.894531 16.128906 25.09375 16.445312 25.238281 L 18.546875 26.183594 L 19.554688 27.5 L 16.09375 25.941406 C 15.773438 25.796875 15.484375 25.597656 15.234375 25.355469 Z M 13.164062 23.320312 " clip-rule="nonzero"/></clipPath><clipPath id="705b3748ab"><path d="M 14.691406 22.886719 L 17.816406 22.886719 L 17.816406 25.191406 L 14.691406 25.191406 Z M 14.691406 22.886719 " clip-rule="nonzero"/></clipPath><clipPath id="01e01d391a"><path d="M 14.695312 22.902344 L 16.730469 23.804688 L 17.777344 25.171875 L 16.691406 24.691406 C 16.371094 24.546875 16.085938 24.347656 15.84375 24.09375 Z M 14.695312 22.902344 " clip-rule="nonzero"/></clipPath><clipPath id="cbb2a220be"><path d="M 6.140625 20.582031 L 14.179688 20.582031 L 14.179688 25.089844 L 6.140625 25.089844 Z M 6.140625 20.582031 " clip-rule="nonzero"/></clipPath><clipPath id="977ec55b68"><path d="M 14.152344 25.066406 L 9.277344 22.871094 C 8.136719 22.355469 7.105469 21.617188 6.25 20.699219 L 6.152344 20.59375 L 11.8125 23.148438 C 12.128906 23.289062 12.425781 23.484375 12.683594 23.71875 Z M 14.152344 25.066406 " clip-rule="nonzero"/></clipPath><clipPath id="35e807c5d1"><path d="M 4.757812 18.484375 L 16.074219 18.484375 L 16.074219 22.835938 L 4.757812 22.835938 Z M 4.757812 18.484375 " clip-rule="nonzero"/></clipPath><clipPath id="fd80c6a889"><path d="M 4.804688 18.511719 L 8.570312 20.183594 C 8.871094 20.316406 9.21875 20.285156 9.492188 20.105469 L 10.136719 19.679688 C 10.410156 19.496094 10.761719 19.464844 11.0625 19.59375 L 13.242188 20.515625 C 14.367188 20.992188 15.335938 21.78125 16.027344 22.789062 L 11.355469 20.742188 C 11.050781 20.609375 10.703125 20.636719 10.421875 20.808594 L 9.847656 21.164062 C 9.566406 21.335938 9.21875 21.359375 8.914062 21.226562 L 6.089844 19.96875 C 5.777344 19.828125 5.507812 19.597656 5.320312 19.308594 Z M 4.804688 18.511719 " clip-rule="nonzero"/></clipPath><clipPath id="a50e399a99"><path d="M 3.375 16.332031 L 9.621094 16.332031 L 9.621094 19.507812 L 3.375 19.507812 Z M 3.375 16.332031 " clip-rule="nonzero"/></clipPath><clipPath id="7446b15558"><path d="M 3.40625 16.347656 L 9.605469 18.972656 L 9.15625 19.289062 C 8.890625 19.476562 8.539062 19.511719 8.242188 19.382812 L 4.71875 17.84375 C 4.40625 17.707031 4.136719 17.476562 3.949219 17.1875 Z M 3.40625 16.347656 " clip-rule="nonzero"/></clipPath></defs><g clip-path="url(#69a8120178)"><g clip-path="url(#986a5ce0b4)"><path fill="#f266ff" d="M 1.734375 1.273438 L 28.265625 1.273438 L 28.265625 27.753906 L 1.734375 27.753906 Z M 1.734375 1.273438 " fill-opacity="1" fill-rule="nonzero"/></g></g><g clip-path="url(#aac2a93b61)"><g clip-path="url(#98d689dbac)"><path fill="#ff637e" d="M 1.734375 1.273438 L 28.265625 1.273438 L 28.265625 27.753906 L 1.734375 27.753906 Z M 1.734375 1.273438 " fill-opacity="1" fill-rule="nonzero"/></g></g><g clip-path="url(#27929fbaae)"><g clip-path="url(#70c726b586)"><path fill="#00d7be" d="M 1.734375 1.273438 L 28.265625 1.273438 L 28.265625 27.753906 L 1.734375 27.753906 Z M 1.734375 1.273438 " fill-opacity="1" fill-rule="nonzero"/></g></g><g clip-path="url(#6b563e73e7)"><g clip-path="url(#9b0f382a14)"><path fill="#1f93ff" d="M 1.734375 1.273438 L 28.265625 1.273438 L 28.265625 27.753906 L 1.734375 27.753906 Z M 1.734375 1.273438 " fill-opacity="1" fill-rule="nonzero"/></g></g><g clip-path="url(#1d530a29e2)"><g clip-path="url(#e480e66c26)"><path fill="#ffd500" d="M 1.734375 1.273438 L 28.265625 1.273438 L 28.265625 27.753906 L 1.734375 27.753906 Z M 1.734375 1.273438 " fill-opacity="1" fill-rule="nonzero"/></g></g><g clip-path="url(#786627a43e)"><g clip-path="url(#2c270642bc)"><path fill="#1f93ff" d="M 1.734375 1.273438 L 28.265625 1.273438 L 28.265625 27.753906 L 1.734375 27.753906 Z M 1.734375 1.273438 " fill-opacity="1" fill-rule="nonzero"/></g></g><g clip-path="url(#09f167aa54)"><g clip-path="url(#27dca03dd3)"><path fill="#f266ff" d="M 1.734375 1.273438 L 28.265625 1.273438 L 28.265625 27.753906 L 1.734375 27.753906 Z M 1.734375 1.273438 " fill-opacity="1" fill-rule="nonzero"/></g></g><g clip-path="url(#395a995aca)"><g clip-path="url(#a18fdcda3d)"><path fill="#1f93ff" d="M 1.734375 1.273438 L 28.265625 1.273438 L 28.265625 27.753906 L 1.734375 27.753906 Z M 1.734375 1.273438 " fill-opacity="1" fill-rule="nonzero"/></g></g><g clip-path="url(#37eac0e76c)"><g clip-path="url(#1a7be9469f)"><path fill="#ffcf00" d="M 1.734375 1.273438 L 28.265625 1.273438 L 28.265625 27.753906 L 1.734375 27.753906 Z M 1.734375 1.273438 " fill-opacity="1" fill-rule="nonzero"/></g></g><g clip-path="url(#b8574a5ffb)"><g clip-path="url(#4a19e35630)"><path fill="#61d742" d="M 1.734375 1.273438 L 28.265625 1.273438 L 28.265625 27.753906 L 1.734375 27.753906 Z M 1.734375 1.273438 " fill-opacity="1" fill-rule="nonzero"/></g></g><g clip-path="url(#705b3748ab)"><g clip-path="url(#01e01d391a)"><path fill="#1f93ff" d="M 1.734375 1.273438 L 28.265625 1.273438 L 28.265625 27.753906 L 1.734375 27.753906 Z M 1.734375 1.273438 " fill-opacity="1" fill-rule="nonzero"/></g></g><g clip-path="url(#cbb2a220be)"><g clip-path="url(#977ec55b68)"><path fill="#1f93ff" d="M 1.734375 1.273438 L 28.265625 1.273438 L 28.265625 27.753906 L 1.734375 27.753906 Z M 1.734375 1.273438 " fill-opacity="1" fill-rule="nonzero"/></g></g><g clip-path="url(#35e807c5d1)"><g clip-path="url(#fd80c6a889)"><path fill="#ff7a78" d="M 1.734375 1.273438 L 28.265625 1.273438 L 28.265625 27.753906 L 1.734375 27.753906 Z M 1.734375 1.273438 " fill-opacity="1" fill-rule="nonzero"/></g></g><g clip-path="url(#a50e399a99)"><g clip-path="url(#7446b15558)"><path fill="#ffcf00" d="M 1.734375 1.273438 L 28.265625 1.273438 L 28.265625 27.753906 L 1.734375 27.753906 Z M 1.734375 1.273438 " fill-opacity="1" fill-rule="nonzero"/></g></g></svg>