<svg xmlns="http://www.w3.org/2000/svg" xmlns:xlink="http://www.w3.org/1999/xlink" width="95" zoomAndPan="magnify" viewBox="0 0 71.25 71.25" height="95" preserveAspectRatio="xMidYMid meet" version="1.0"><defs><clipPath id="5c7d3b988c"><path d="M 1.058594 1.144531 L 69.339844 1.144531 L 69.339844 69.425781 L 1.058594 69.425781 Z M 1.058594 1.144531 " clip-rule="nonzero"/></clipPath></defs><g clip-path="url(#5c7d3b988c)"><path fill="#5271ff" d="M 69.199219 2.066406 C 69.199219 2.050781 69.195312 2.039062 69.195312 2.03125 C 69.195312 2.019531 69.191406 2.007812 69.191406 1.996094 C 69.1875 1.972656 69.1875 1.953125 69.179688 1.929688 C 69.179688 1.914062 69.175781 1.898438 69.171875 1.882812 C 69.171875 1.871094 69.164062 1.863281 69.160156 1.851562 C 69.15625 1.832031 69.148438 1.8125 69.140625 1.792969 C 69.136719 1.777344 69.128906 1.761719 69.125 1.75 C 69.117188 1.738281 69.109375 1.726562 69.105469 1.714844 C 69.09375 1.699219 69.085938 1.683594 69.078125 1.667969 C 69.066406 1.652344 69.058594 1.640625 69.050781 1.628906 C 69.042969 1.617188 69.03125 1.605469 69.023438 1.59375 C 69.011719 1.582031 69.003906 1.570312 68.992188 1.554688 C 68.980469 1.542969 68.96875 1.53125 68.957031 1.523438 C 68.945312 1.511719 68.933594 1.5 68.917969 1.492188 C 68.910156 1.480469 68.898438 1.472656 68.886719 1.460938 C 68.871094 1.453125 68.859375 1.445312 68.84375 1.4375 C 68.828125 1.425781 68.8125 1.417969 68.796875 1.410156 C 68.785156 1.402344 68.777344 1.394531 68.765625 1.390625 C 68.75 1.382812 68.734375 1.378906 68.71875 1.371094 C 68.699219 1.363281 68.679688 1.355469 68.660156 1.351562 C 68.648438 1.347656 68.640625 1.34375 68.628906 1.339844 C 68.613281 1.335938 68.597656 1.335938 68.582031 1.332031 C 68.5625 1.328125 68.539062 1.324219 68.515625 1.320312 C 68.503906 1.320312 68.492188 1.316406 68.480469 1.316406 C 68.476562 1.316406 68.449219 1.3125 68.398438 1.3125 C 67.722656 1.28125 63.246094 1.152344 57.039062 2.710938 C 56.957031 2.730469 56.875 2.753906 56.789062 2.773438 C 56.695312 2.796875 56.597656 2.824219 56.5 2.847656 C 56.367188 2.882812 56.230469 2.921875 56.097656 2.957031 C 56.03125 2.976562 55.964844 2.992188 55.898438 3.011719 C 55.6875 3.070312 55.476562 3.128906 55.261719 3.191406 C 55.257812 3.191406 55.257812 3.191406 55.257812 3.191406 C 48.027344 5.292969 37.671875 10.136719 29.203125 21.285156 C 26.558594 20.925781 21.773438 20.8125 16.617188 23.273438 C 9.902344 26.472656 4.71875 32.9375 1.199219 42.480469 C 1.082031 42.800781 1.195312 43.164062 1.472656 43.363281 C 1.605469 43.457031 1.761719 43.503906 1.914062 43.503906 C 2.085938 43.503906 2.257812 43.445312 2.398438 43.332031 C 2.503906 43.246094 12.84375 34.890625 20.464844 37.195312 C 20.128906 38.0625 19.800781 38.949219 19.484375 39.855469 L 19.058594 39.429688 C 18.761719 39.132812 18.277344 39.132812 17.980469 39.429688 L 15.753906 41.65625 C 15.457031 41.953125 15.457031 42.4375 15.753906 42.734375 L 17.566406 44.546875 L 14.648438 47.464844 C 14.351562 47.761719 14.351562 48.242188 14.648438 48.539062 L 21.972656 55.863281 C 22.121094 56.011719 22.316406 56.085938 22.511719 56.085938 C 22.707031 56.085938 22.902344 56.011719 23.050781 55.863281 L 25.964844 52.945312 L 27.777344 54.757812 C 27.925781 54.90625 28.121094 54.980469 28.316406 54.980469 C 28.511719 54.980469 28.707031 54.90625 28.855469 54.757812 L 31.082031 52.527344 C 31.378906 52.230469 31.378906 51.75 31.082031 51.453125 L 30.65625 51.027344 C 31.5625 50.710938 32.453125 50.382812 33.320312 50.046875 C 35.621094 57.667969 27.269531 68.007812 27.179688 68.117188 C 26.964844 68.382812 26.949219 68.757812 27.148438 69.039062 C 27.296875 69.242188 27.527344 69.359375 27.769531 69.359375 C 27.859375 69.359375 27.945312 69.34375 28.03125 69.3125 C 37.578125 65.796875 44.039062 60.609375 47.242188 53.894531 C 49.699219 48.734375 49.585938 43.953125 49.226562 41.308594 C 60.375 32.835938 65.21875 22.484375 67.320312 15.25 C 69.4375 7.972656 69.226562 2.605469 69.199219 2.066406 Z M 3.597656 40.5625 C 6.917969 32.742188 11.511719 27.394531 17.273438 24.644531 C 21.578125 22.589844 25.605469 22.464844 28.164062 22.699219 C 25.402344 26.578125 23.007812 30.96875 21.03125 35.777344 C 14.773438 33.792969 7.238281 38.078125 3.597656 40.5625 Z M 22.511719 54.25 L 16.265625 48 L 18.640625 45.621094 L 24.890625 51.871094 Z M 28.316406 53.144531 L 17.367188 42.195312 L 18.519531 41.042969 L 29.46875 51.992188 Z M 45.867188 53.238281 C 43.121094 59 37.769531 63.59375 29.949219 66.914062 C 32.433594 63.277344 36.71875 55.738281 34.734375 49.480469 C 39.542969 47.503906 43.933594 45.109375 47.8125 42.347656 C 48.050781 44.910156 47.921875 48.933594 45.867188 53.238281 Z M 47.953125 40.363281 C 43.75 43.503906 38.886719 46.191406 33.492188 48.347656 C 32.199219 48.863281 30.84375 49.359375 29.457031 49.828125 L 20.683594 41.054688 C 21.152344 39.671875 21.648438 38.316406 22.167969 37.019531 C 24.324219 31.628906 27.007812 26.761719 30.148438 22.558594 C 38.105469 11.90625 47.835938 7.078125 54.871094 4.898438 C 55.417969 7.542969 56.710938 9.941406 58.640625 11.871094 C 60.570312 13.804688 62.96875 15.09375 65.617188 15.640625 C 63.433594 22.675781 58.605469 32.40625 47.953125 40.363281 Z M 67.691406 2.933594 C 67.691406 2.972656 67.691406 3.007812 67.691406 3.050781 C 67.691406 3.078125 67.691406 3.105469 67.691406 3.132812 C 67.691406 3.203125 67.6875 3.273438 67.6875 3.347656 C 67.6875 3.367188 67.6875 3.390625 67.6875 3.410156 C 67.683594 3.46875 67.683594 3.53125 67.683594 3.59375 C 67.679688 3.625 67.679688 3.65625 67.679688 3.6875 C 67.679688 3.746094 67.675781 3.804688 67.675781 3.867188 C 67.671875 3.898438 67.671875 3.929688 67.671875 3.964844 C 67.667969 4.050781 67.664062 4.144531 67.660156 4.238281 C 67.660156 4.25 67.660156 4.261719 67.65625 4.273438 C 67.652344 4.367188 67.648438 4.464844 67.644531 4.5625 C 67.640625 4.597656 67.640625 4.632812 67.636719 4.664062 C 67.632812 4.742188 67.628906 4.824219 67.625 4.90625 C 67.621094 4.941406 67.621094 4.976562 67.617188 5.011719 C 67.609375 5.113281 67.601562 5.214844 67.59375 5.320312 C 67.59375 5.335938 67.59375 5.355469 67.59375 5.371094 C 67.582031 5.492188 67.574219 5.617188 67.5625 5.742188 C 67.558594 5.777344 67.554688 5.8125 67.554688 5.851562 C 67.542969 5.945312 67.535156 6.042969 67.527344 6.140625 C 67.523438 6.183594 67.519531 6.226562 67.515625 6.265625 C 67.503906 6.378906 67.492188 6.492188 67.480469 6.605469 C 67.476562 6.632812 67.476562 6.65625 67.472656 6.683594 C 67.457031 6.824219 67.441406 6.964844 67.425781 7.113281 C 67.421875 7.148438 67.417969 7.183594 67.414062 7.21875 C 67.398438 7.332031 67.386719 7.449219 67.371094 7.5625 C 67.363281 7.609375 67.359375 7.65625 67.351562 7.707031 C 67.335938 7.824219 67.320312 7.945312 67.304688 8.066406 C 67.296875 8.105469 67.292969 8.140625 67.289062 8.175781 C 67.265625 8.335938 67.242188 8.496094 67.21875 8.660156 C 67.214844 8.691406 67.207031 8.722656 67.203125 8.753906 C 67.183594 8.886719 67.160156 9.019531 67.140625 9.15625 C 67.132812 9.207031 67.125 9.257812 67.113281 9.308594 C 67.09375 9.4375 67.070312 9.570312 67.046875 9.703125 C 67.039062 9.746094 67.035156 9.789062 67.027344 9.832031 C 66.996094 10.007812 66.960938 10.183594 66.929688 10.363281 C 66.925781 10.378906 66.921875 10.398438 66.917969 10.414062 C 66.886719 10.578125 66.855469 10.738281 66.824219 10.90625 C 66.8125 10.953125 66.800781 11.003906 66.792969 11.054688 C 66.761719 11.199219 66.734375 11.339844 66.703125 11.484375 C 66.691406 11.53125 66.683594 11.578125 66.671875 11.628906 C 66.589844 12.003906 66.5 12.390625 66.40625 12.785156 C 66.394531 12.832031 66.378906 12.882812 66.367188 12.933594 C 66.328125 13.085938 66.292969 13.242188 66.25 13.394531 C 66.238281 13.445312 66.226562 13.5 66.210938 13.550781 C 66.160156 13.75 66.105469 13.949219 66.050781 14.148438 C 66.050781 14.152344 66.050781 14.152344 66.050781 14.152344 C 66.046875 14.160156 66.046875 14.167969 66.042969 14.175781 C 63.640625 13.703125 61.464844 12.542969 59.714844 10.796875 C 57.96875 9.046875 56.808594 6.871094 56.335938 4.46875 C 56.550781 4.410156 56.765625 4.351562 56.980469 4.296875 C 57.011719 4.285156 57.046875 4.277344 57.082031 4.269531 C 57.269531 4.222656 57.453125 4.175781 57.636719 4.128906 C 57.65625 4.125 57.671875 4.121094 57.691406 4.117188 C 62.476562 2.945312 66.207031 2.816406 67.691406 2.820312 C 67.691406 2.828125 67.691406 2.835938 67.691406 2.847656 C 67.691406 2.875 67.691406 2.902344 67.691406 2.933594 Z M 67.691406 2.933594 " fill-opacity="1" fill-rule="nonzero"/></g><path fill="#5271ff" d="M 46.484375 17.207031 C 42.726562 17.207031 39.667969 20.265625 39.667969 24.027344 C 39.667969 27.789062 42.726562 30.847656 46.484375 30.847656 C 50.246094 30.847656 53.304688 27.789062 53.304688 24.027344 C 53.304688 20.265625 50.246094 17.207031 46.484375 17.207031 Z M 46.484375 29.324219 C 43.5625 29.324219 41.1875 26.949219 41.1875 24.027344 C 41.1875 21.105469 43.5625 18.730469 46.484375 18.730469 C 49.40625 18.730469 51.78125 21.105469 51.78125 24.027344 C 51.78125 26.949219 49.40625 29.324219 46.484375 29.324219 Z M 46.484375 29.324219 " fill-opacity="1" fill-rule="nonzero"/><path fill="#5271ff" d="M 16.484375 54.027344 C 16.1875 53.730469 15.707031 53.730469 15.410156 54.027344 L 5.859375 63.578125 C 5.558594 63.875 5.558594 64.355469 5.859375 64.652344 C 6.007812 64.804688 6.199219 64.878906 6.394531 64.878906 C 6.589844 64.878906 6.785156 64.804688 6.933594 64.652344 L 16.484375 55.101562 C 16.785156 54.804688 16.785156 54.324219 16.484375 54.027344 Z M 16.484375 54.027344 " fill-opacity="1" fill-rule="nonzero"/><path fill="#5271ff" d="M 20.152344 57.691406 C 19.855469 57.394531 19.371094 57.394531 19.074219 57.691406 L 12.835938 63.929688 C 12.539062 64.226562 12.539062 64.707031 12.835938 65.003906 C 12.988281 65.152344 13.179688 65.226562 13.375 65.226562 C 13.570312 65.226562 13.765625 65.152344 13.914062 65.003906 L 20.152344 58.765625 C 20.449219 58.46875 20.449219 57.988281 20.152344 57.691406 Z M 20.152344 57.691406 " fill-opacity="1" fill-rule="nonzero"/><path fill="#5271ff" d="M 26.878906 58.296875 C 26.582031 58 26.097656 58 25.800781 58.296875 L 19.265625 64.832031 C 18.96875 65.128906 18.96875 65.613281 19.265625 65.910156 C 19.414062 66.058594 19.609375 66.132812 19.804688 66.132812 C 19.996094 66.132812 20.191406 66.058594 20.339844 65.910156 L 26.878906 59.371094 C 27.175781 59.074219 27.175781 58.59375 26.878906 58.296875 Z M 26.878906 58.296875 " fill-opacity="1" fill-rule="nonzero"/><path fill="#5271ff" d="M 12.214844 44.710938 C 12.515625 44.414062 12.515625 43.929688 12.214844 43.632812 C 11.917969 43.335938 11.4375 43.335938 11.140625 43.632812 L 4.601562 50.171875 C 4.304688 50.46875 4.304688 50.949219 4.601562 51.246094 C 4.753906 51.394531 4.945312 51.46875 5.140625 51.46875 C 5.335938 51.46875 5.53125 51.394531 5.679688 51.246094 Z M 12.214844 44.710938 " fill-opacity="1" fill-rule="nonzero"/><path fill="#5271ff" d="M 6.582031 57.675781 L 12.820312 51.4375 C 13.117188 51.140625 13.117188 50.65625 12.820312 50.359375 C 12.523438 50.0625 12.042969 50.0625 11.746094 50.359375 L 5.507812 56.597656 C 5.210938 56.894531 5.210938 57.378906 5.507812 57.675781 C 5.65625 57.824219 5.851562 57.898438 6.046875 57.898438 C 6.238281 57.898438 6.433594 57.824219 6.582031 57.675781 Z M 6.582031 57.675781 " fill-opacity="1" fill-rule="nonzero"/></svg>