<svg xmlns="http://www.w3.org/2000/svg" xmlns:xlink="http://www.w3.org/1999/xlink" width="95" zoomAndPan="magnify" viewBox="0 0 71.25 71.25" height="95" preserveAspectRatio="xMidYMid meet" version="1.0"><defs><clipPath id="fc0e627b42"><path d="M 6 1.613281 L 9 1.613281 L 9 15 L 6 15 Z M 6 1.613281 " clip-rule="nonzero"/></clipPath><clipPath id="f8cee21075"><path d="M 12 1.613281 L 15 1.613281 L 15 8 L 12 8 Z M 12 1.613281 " clip-rule="nonzero"/></clipPath><clipPath id="7bee0de04f"><path d="M 1.613281 1.613281 L 4 1.613281 L 4 8 L 1.613281 8 Z M 1.613281 1.613281 " clip-rule="nonzero"/></clipPath><clipPath id="b9f8311432"><path d="M 1.613281 39 L 35 39 L 35 62 L 1.613281 62 Z M 1.613281 39 " clip-rule="nonzero"/></clipPath></defs><g clip-path="url(#fc0e627b42)"><path fill="#5271ff" d="M 7.921875 14.226562 C 8.5 14.226562 8.972656 13.753906 8.972656 13.175781 L 8.972656 2.664062 C 8.972656 2.085938 8.5 1.613281 7.921875 1.613281 C 7.34375 1.613281 6.867188 2.085938 6.867188 2.664062 L 6.867188 13.175781 C 6.867188 13.753906 7.34375 14.226562 7.921875 14.226562 Z M 7.921875 14.226562 " fill-opacity="1" fill-rule="nonzero"/></g><g clip-path="url(#f8cee21075)"><path fill="#5271ff" d="M 13.125 7.921875 C 13.703125 7.921875 14.175781 7.445312 14.175781 6.867188 L 14.175781 2.664062 C 14.175781 2.085938 13.703125 1.613281 13.125 1.613281 C 12.546875 1.613281 12.070312 2.085938 12.070312 2.664062 L 12.070312 6.867188 C 12.070312 7.445312 12.546875 7.921875 13.125 7.921875 Z M 13.125 7.921875 " fill-opacity="1" fill-rule="nonzero"/></g><g clip-path="url(#7bee0de04f)"><path fill="#5271ff" d="M 2.664062 7.921875 C 3.242188 7.921875 3.714844 7.445312 3.714844 6.867188 L 3.714844 2.664062 C 3.714844 2.085938 3.242188 1.613281 2.664062 1.613281 C 2.085938 1.613281 1.613281 2.085938 1.613281 2.664062 L 1.613281 6.867188 C 1.613281 7.445312 2.085938 7.921875 2.664062 7.921875 Z M 2.664062 7.921875 " fill-opacity="1" fill-rule="nonzero"/></g><path fill="#5271ff" d="M 62.578125 56.273438 C 62 56.273438 61.527344 56.746094 61.527344 57.324219 L 61.527344 67.835938 C 61.527344 68.414062 62 68.886719 62.578125 68.886719 C 63.15625 68.886719 63.628906 68.414062 63.628906 67.835938 L 63.628906 57.324219 C 63.628906 56.746094 63.15625 56.273438 62.578125 56.273438 Z M 62.578125 56.273438 " fill-opacity="1" fill-rule="nonzero"/><path fill="#5271ff" d="M 57.375 62.578125 C 56.796875 62.578125 56.324219 63.050781 56.324219 63.628906 L 56.324219 67.835938 C 56.324219 68.414062 56.796875 68.886719 57.375 68.886719 C 57.953125 68.886719 58.425781 68.414062 58.425781 67.835938 L 58.425781 63.628906 C 58.425781 63.050781 57.953125 62.578125 57.375 62.578125 Z M 57.375 62.578125 " fill-opacity="1" fill-rule="nonzero"/><path fill="#5271ff" d="M 67.835938 62.578125 C 67.257812 62.578125 66.785156 63.050781 66.785156 63.628906 L 66.785156 67.835938 C 66.785156 68.414062 67.257812 68.886719 67.835938 68.886719 C 68.414062 68.886719 68.886719 68.414062 68.886719 67.835938 L 68.886719 63.628906 C 68.886719 63.050781 68.414062 62.578125 67.835938 62.578125 Z M 67.835938 62.578125 " fill-opacity="1" fill-rule="nonzero"/><path fill="#5271ff" d="M 55.328125 46.8125 C 54.644531 45.234375 52.855469 44.394531 51.226562 44.816406 L 36.089844 49.230469 C 35.511719 49.386719 35.195312 49.964844 35.355469 50.542969 C 35.511719 51.121094 36.089844 51.4375 36.667969 51.28125 L 51.753906 46.863281 C 52.332031 46.707031 53.117188 47.074219 53.382812 47.652344 L 53.855469 48.757812 C 54.117188 49.335938 53.855469 50.125 53.328125 50.4375 L 32.253906 62.265625 C 31.570312 62.683594 30.257812 62.683594 29.574219 62.367188 L 20.21875 57.691406 C 19.691406 57.429688 19.0625 57.640625 18.800781 58.164062 C 18.535156 58.691406 18.746094 59.320312 19.273438 59.582031 L 28.628906 64.261719 C 29.257812 64.574219 30.046875 64.734375 30.835938 64.734375 C 31.726562 64.734375 32.621094 64.523438 33.304688 64.101562 L 54.378906 52.277344 C 55.851562 51.4375 56.484375 49.546875 55.800781 47.914062 Z M 55.328125 46.8125 " fill-opacity="1" fill-rule="nonzero"/><g clip-path="url(#b9f8311432)"><path fill="#5271ff" d="M 25.265625 45.8125 L 32.097656 53.539062 C 32.515625 54.011719 32.515625 54.75 32.097656 55.222656 L 31.675781 55.695312 C 31.464844 55.90625 31.253906 56.007812 30.992188 56.007812 C 30.730469 56.007812 30.46875 55.90625 30.257812 55.746094 L 26.210938 51.859375 C 25.789062 51.4375 25.105469 51.488281 24.738281 51.910156 C 24.316406 52.332031 24.371094 53.015625 24.789062 53.382812 L 28.835938 57.269531 C 29.414062 57.847656 30.203125 58.164062 30.992188 58.164062 C 31.046875 58.164062 31.046875 58.164062 31.097656 58.164062 C 31.9375 58.164062 32.726562 57.796875 33.304688 57.164062 L 33.726562 56.691406 C 34.882812 55.429688 34.933594 53.488281 33.777344 52.171875 L 26.839844 44.394531 C 26.472656 43.972656 25.789062 43.660156 25.210938 43.660156 L 13.125 43.660156 L 13.125 42.609375 C 13.125 40.875 11.652344 39.453125 9.863281 39.453125 L 4.871094 39.453125 C 3.085938 39.453125 1.613281 40.875 1.613281 42.609375 L 1.613281 58.375 C 1.613281 60.109375 3.085938 61.527344 4.871094 61.527344 L 9.863281 61.527344 C 11.652344 61.527344 13.125 60.109375 13.125 58.375 L 13.125 45.761719 L 25.160156 45.761719 C 25.210938 45.761719 25.265625 45.8125 25.265625 45.8125 Z M 25.265625 45.8125 " fill-opacity="1" fill-rule="nonzero"/></g><path fill="#5271ff" d="M 19.113281 33.410156 C 15.804688 34.304688 13.542969 34.617188 13.492188 34.617188 C 13.019531 34.671875 12.703125 35.039062 12.597656 35.460938 C 12.492188 35.933594 12.703125 36.351562 13.125 36.5625 L 21.953125 41.398438 C 22.109375 41.503906 22.269531 41.503906 22.476562 41.503906 C 22.53125 41.503906 22.53125 41.503906 22.582031 41.503906 C 30.097656 40.820312 39.140625 35.828125 44.972656 32.097656 C 44.394531 31.675781 43.816406 31.203125 43.289062 30.675781 C 37.667969 34.25 29.414062 38.71875 22.6875 39.453125 L 16.75 36.195312 C 17.90625 35.933594 19.324219 35.617188 20.953125 35.144531 C 20.324219 34.617188 19.691406 34.039062 19.113281 33.410156 Z M 19.113281 33.410156 " fill-opacity="1" fill-rule="nonzero"/><path fill="#5271ff" d="M 60.476562 36.300781 C 59.109375 35.984375 58.007812 35.511719 57.0625 35.039062 C 56.21875 35.195312 55.328125 35.25 54.433594 35.25 C 54.171875 35.25 53.90625 35.25 53.644531 35.25 C 54.484375 35.984375 55.535156 36.722656 56.902344 37.351562 C 52.382812 38.824219 42.976562 41.554688 35.039062 41.554688 C 33.671875 41.554688 32.410156 41.453125 31.253906 41.292969 C 30.257812 41.660156 29.3125 41.976562 28.3125 42.238281 L 28.835938 42.765625 C 28.996094 42.921875 29.152344 43.027344 29.363281 43.082031 C 31.046875 43.449219 32.9375 43.605469 35.039062 43.605469 C 46.390625 43.605469 60.054688 38.457031 60.632812 38.246094 C 61.054688 38.085938 61.316406 37.667969 61.316406 37.195312 C 61.265625 36.773438 60.949219 36.40625 60.476562 36.300781 Z M 60.476562 36.300781 " fill-opacity="1" fill-rule="nonzero"/><path fill="#5271ff" d="M 54.484375 4.765625 C 46.707031 4.765625 40.347656 11.125 40.347656 18.957031 C 40.347656 26.789062 46.65625 33.148438 54.484375 33.148438 C 62.316406 33.148438 68.621094 26.789062 68.621094 18.957031 C 68.621094 11.125 62.316406 4.765625 54.484375 4.765625 Z M 52.121094 16.960938 C 52.59375 17.695312 53.75 18.011719 54.90625 18.273438 C 56.484375 18.695312 58.480469 19.21875 59.164062 21.164062 C 59.792969 22.898438 58.796875 24.6875 56.796875 25.472656 C 56.378906 25.632812 55.957031 25.738281 55.484375 25.789062 L 55.484375 27.367188 C 55.484375 27.945312 55.011719 28.417969 54.433594 28.417969 C 53.855469 28.417969 53.382812 27.945312 53.382812 27.367188 L 53.382812 25.738281 C 52.910156 25.632812 52.488281 25.527344 52.015625 25.316406 C 50.703125 24.738281 49.703125 23.738281 49.230469 22.53125 C 49.019531 22.003906 49.28125 21.375 49.859375 21.164062 C 50.386719 20.953125 51.015625 21.21875 51.226562 21.796875 C 51.488281 22.476562 52.066406 23.054688 52.910156 23.425781 C 53.90625 23.898438 55.0625 23.949219 56.007812 23.582031 C 56.535156 23.371094 57.429688 22.792969 57.164062 21.953125 C 56.851562 21.113281 55.90625 20.796875 54.328125 20.375 C 52.855469 20.007812 51.226562 19.585938 50.28125 18.167969 C 49.441406 16.90625 49.441406 15.332031 50.28125 14.175781 C 51.015625 13.175781 52.171875 12.648438 53.382812 12.492188 L 53.382812 10.546875 C 53.382812 9.96875 53.855469 9.496094 54.433594 9.496094 C 55.011719 9.496094 55.484375 9.96875 55.484375 10.546875 L 55.484375 12.386719 C 55.535156 12.386719 55.640625 12.386719 55.695312 12.441406 C 57.535156 12.753906 59.109375 14.070312 59.636719 15.699219 C 59.792969 16.277344 59.476562 16.855469 58.953125 17.011719 C 58.425781 17.171875 57.796875 16.855469 57.640625 16.328125 C 57.375 15.488281 56.378906 14.699219 55.328125 14.542969 C 54.171875 14.332031 52.644531 14.542969 52.015625 15.382812 C 51.753906 15.804688 51.753906 16.433594 52.121094 16.960938 Z M 52.121094 16.960938 " fill-opacity="1" fill-rule="nonzero"/><path fill="#5271ff" d="M 27.785156 35.25 C 32.988281 35.25 37.195312 30.992188 37.195312 25.789062 C 37.195312 20.585938 32.988281 16.328125 27.785156 16.328125 C 22.582031 16.328125 18.378906 20.585938 18.378906 25.789062 C 18.378906 30.992188 22.582031 35.25 27.785156 35.25 Z M 28.628906 27.578125 C 28.574219 27.367188 28.3125 27.207031 27.578125 27 C 26.789062 26.789062 25.84375 26.472656 25.265625 25.527344 C 24.789062 24.6875 24.789062 23.632812 25.265625 22.847656 C 25.632812 22.269531 26.15625 21.953125 26.734375 21.742188 L 26.734375 21.058594 C 26.734375 20.480469 27.207031 20.007812 27.785156 20.007812 C 28.363281 20.007812 28.835938 20.480469 28.835938 21.058594 L 28.835938 21.742188 C 29.785156 22.058594 30.625 22.847656 30.886719 23.84375 C 31.046875 24.421875 30.730469 25 30.152344 25.160156 C 29.574219 25.316406 28.996094 25 28.835938 24.421875 C 28.734375 24.109375 28.417969 23.84375 28.101562 23.738281 C 27.679688 23.6875 27.15625 23.738281 27 24.003906 C 26.894531 24.109375 26.945312 24.316406 27 24.476562 C 27.15625 24.738281 27.628906 24.84375 28.101562 25 C 28.996094 25.265625 30.152344 25.578125 30.570312 26.945312 C 30.941406 28.101562 30.308594 29.363281 29.101562 29.890625 C 29.101562 29.941406 28.941406 29.992188 28.835938 29.992188 L 28.835938 30.519531 C 28.835938 31.097656 28.363281 31.570312 27.785156 31.570312 C 27.207031 31.570312 26.734375 31.097656 26.734375 30.519531 L 26.734375 29.941406 C 26.628906 29.890625 26.578125 29.890625 26.472656 29.835938 C 25.632812 29.46875 24.949219 28.734375 24.6875 27.890625 C 24.476562 27.367188 24.789062 26.734375 25.367188 26.578125 C 25.894531 26.367188 26.523438 26.683594 26.683594 27.261719 C 26.789062 27.523438 27 27.785156 27.3125 27.945312 C 27.628906 28.101562 28.050781 28.101562 28.3125 27.996094 C 28.363281 27.945312 28.734375 27.785156 28.628906 27.578125 Z M 28.628906 27.578125 " fill-opacity="1" fill-rule="nonzero"/></svg>