<svg xmlns="http://www.w3.org/2000/svg" xmlns:xlink="http://www.w3.org/1999/xlink" width="95" zoomAndPan="magnify" viewBox="0 0 71.25 71.25" height="95" preserveAspectRatio="xMidYMid meet" version="1.0"><defs><clipPath id="282850c683"><path d="M 1.332031 1.332031 L 68.871094 1.332031 L 68.871094 68.871094 L 1.332031 68.871094 Z M 1.332031 1.332031 " clip-rule="nonzero"/></clipPath><clipPath id="8f302c29ec"><path d="M 37.28125 57.980469 L 37.28125 60.15625 L 35.101562 60.15625 L 35.101562 57.980469 Z M 39.460938 60.15625 L 39.460938 57.980469 L 41.640625 57.980469 L 41.640625 60.15625 Z M 37.28125 60.15625 L 39.460938 60.15625 L 39.460938 62.335938 L 37.28125 62.335938 Z M 39.460938 55.800781 L 39.460938 57.980469 L 37.28125 57.980469 L 37.28125 55.800781 Z M 62.335938 34.015625 L 62.335938 36.191406 L 60.15625 36.191406 L 60.15625 34.015625 Z M 64.515625 36.191406 L 64.515625 34.015625 L 66.695312 34.015625 L 66.695312 36.191406 Z M 62.335938 36.191406 L 64.515625 36.191406 L 64.515625 38.371094 L 62.335938 38.371094 Z M 64.515625 31.835938 L 64.515625 34.015625 L 62.335938 34.015625 L 62.335938 31.835938 Z M 17.671875 13.316406 L 15.496094 13.316406 L 15.496094 11.136719 L 17.671875 11.136719 Z M 19.851562 13.316406 L 19.851562 11.136719 L 22.03125 11.136719 L 22.03125 13.316406 Z M 17.671875 13.316406 L 19.851562 13.316406 L 19.851562 15.496094 L 17.671875 15.496094 Z M 19.851562 11.136719 L 17.671875 11.136719 L 17.671875 8.960938 L 19.851562 8.960938 Z M 13.316406 26.386719 L 11.136719 26.386719 L 11.136719 24.210938 L 13.316406 24.210938 Z M 15.496094 26.386719 L 15.496094 24.210938 L 17.671875 24.210938 L 17.671875 26.386719 Z M 13.316406 26.386719 L 15.496094 26.386719 L 15.496094 28.566406 L 13.316406 28.566406 Z M 15.496094 24.210938 L 13.316406 24.210938 L 13.316406 22.03125 L 15.496094 22.03125 Z M 30.746094 15.496094 L 28.566406 15.496094 L 28.566406 13.316406 L 30.746094 13.316406 Z M 32.925781 15.496094 L 32.925781 13.316406 L 35.101562 13.316406 L 35.101562 15.496094 Z M 30.746094 15.496094 L 32.925781 15.496094 L 32.925781 17.671875 L 30.746094 17.671875 Z M 32.925781 13.316406 L 30.746094 13.316406 L 30.746094 11.136719 L 32.925781 11.136719 Z M 54.710938 54.710938 L 54.710938 56.890625 L 52.53125 56.890625 L 52.53125 54.710938 Z M 56.890625 56.890625 L 56.890625 54.710938 L 59.070312 54.710938 L 59.070312 56.890625 Z M 54.710938 56.890625 L 56.890625 56.890625 L 56.890625 59.070312 L 54.710938 59.070312 Z M 56.890625 52.53125 L 56.890625 54.710938 L 54.710938 54.710938 L 54.710938 52.53125 Z M 48.175781 44.90625 L 48.175781 47.085938 L 45.996094 47.085938 L 45.996094 44.90625 Z M 50.355469 47.085938 L 50.355469 44.90625 L 52.53125 44.90625 L 52.53125 47.085938 Z M 48.175781 47.085938 L 50.355469 47.085938 L 50.355469 49.265625 L 48.175781 49.265625 Z M 50.355469 42.730469 L 50.355469 44.90625 L 48.175781 44.90625 L 48.175781 42.730469 Z M 7.871094 53.621094 L 5.691406 53.621094 L 5.691406 51.441406 L 7.871094 51.441406 Z M 7.871094 62.335938 L 12.226562 62.335938 L 12.226562 64.515625 L 5.691406 64.515625 L 5.691406 55.800781 L 7.871094 55.800781 Z M 53.621094 7.871094 L 51.441406 7.871094 L 51.441406 5.691406 L 53.621094 5.691406 Z M 62.335938 7.871094 L 55.800781 7.871094 L 55.800781 5.691406 L 64.515625 5.691406 L 64.515625 12.226562 L 62.335938 12.226562 Z M 47.085938 3.511719 L 66.695312 3.511719 L 66.695312 20.941406 L 58.992188 20.941406 C 58.65625 18.058594 57.210938 15.421875 54.90625 13.574219 L 54.074219 12.90625 L 49.867188 17.9375 L 50.757812 18.632812 C 51.527344 19.226562 52.050781 20.039062 52.320312 20.941406 L 47.085938 20.941406 Z M 54.277344 28.550781 L 43.800781 39.027344 C 42.117188 40.710938 39.878906 41.640625 37.492188 41.640625 C 33.378906 41.640625 29.835938 38.835938 28.84375 34.902344 L 29.484375 34.261719 C 29.859375 33.890625 30.304688 33.597656 30.78125 33.375 C 31.113281 36.785156 33.992188 39.460938 37.492188 39.460938 C 39.265625 39.460938 41.003906 38.742188 42.261719 37.484375 L 52.738281 27.007812 C 53.992188 25.753906 54.710938 24.015625 54.710938 22.238281 C 54.710938 20.523438 54.074219 18.910156 52.929688 17.671875 L 54.335938 15.988281 C 55.972656 17.652344 56.890625 19.878906 56.890625 22.238281 C 56.890625 24.625 55.960938 26.863281 54.277344 28.550781 Z M 39.027344 43.800781 L 28.550781 54.277344 C 27.621094 55.203125 26.515625 55.902344 25.300781 56.347656 L 25.300781 53.972656 C 25.933594 53.652344 26.515625 53.230469 27.007812 52.738281 L 36.035156 43.710938 C 36.511719 43.773438 36.996094 43.816406 37.492188 43.816406 C 38.042969 43.816406 38.589844 43.765625 39.125 43.6875 C 39.085938 43.722656 39.0625 43.765625 39.027344 43.800781 Z M 23.121094 66.695312 L 3.511719 66.695312 L 3.511719 49.265625 L 11.21875 49.265625 C 11.589844 52.425781 13.304688 55.296875 15.96875 57.128906 L 16.898438 57.765625 L 20.375 52.257812 L 19.554688 51.65625 C 18.738281 51.058594 18.160156 50.210938 17.875 49.265625 L 23.121094 49.265625 Z M 27.101562 36.644531 C 28.234375 39.648438 30.617188 41.984375 33.566406 43.097656 L 25.46875 51.195312 C 25.417969 51.246094 25.355469 51.28125 25.300781 51.332031 L 25.300781 47.085938 L 17.761719 47.085938 C 17.9375 46.207031 18.371094 45.375 19.011719 44.738281 Z M 37.257812 37.257812 C 34.929688 37.136719 33.070312 35.277344 32.949219 32.949219 C 35.277344 33.070312 37.136719 34.929688 37.257812 37.257812 Z M 15.929688 41.65625 L 26.40625 31.179688 C 28.089844 29.496094 30.328125 28.566406 32.714844 28.566406 C 36.828125 28.566406 40.371094 31.371094 41.363281 35.304688 L 40.71875 35.945312 C 40.34375 36.316406 39.902344 36.609375 39.425781 36.832031 C 39.09375 33.421875 36.214844 30.746094 32.714844 30.746094 C 30.941406 30.746094 29.203125 31.464844 27.945312 32.71875 L 17.46875 43.195312 C 16.214844 44.453125 15.496094 46.191406 15.496094 47.964844 C 15.496094 49.765625 16.226562 51.488281 17.492188 52.75 L 16.304688 54.628906 C 14.414062 52.945312 13.316406 50.527344 13.316406 47.964844 C 13.316406 45.578125 14.242188 43.339844 15.929688 41.65625 Z M 43.101562 33.5625 C 41.972656 30.558594 39.589844 28.222656 36.640625 27.109375 L 44.738281 19.011719 C 44.789062 18.957031 44.851562 18.925781 44.90625 18.875 L 44.90625 23.121094 L 52.441406 23.121094 C 52.269531 24 51.835938 24.832031 51.195312 25.46875 Z M 31.179688 26.40625 L 41.65625 15.929688 C 42.582031 15 43.691406 14.304688 44.90625 13.855469 L 44.90625 16.234375 C 44.273438 16.554688 43.691406 16.976562 43.195312 17.46875 L 34.171875 26.496094 C 33.695312 26.429688 33.210938 26.386719 32.714844 26.386719 C 32.164062 26.386719 31.617188 26.441406 31.082031 26.519531 C 31.121094 26.480469 31.144531 26.441406 31.179688 26.40625 Z M 44.90625 11.597656 C 43.101562 12.117188 41.453125 13.050781 40.117188 14.390625 L 29.640625 24.863281 C 28.832031 25.671875 28.164062 26.605469 27.640625 27.617188 C 26.625 28.136719 25.691406 28.8125 24.863281 29.640625 L 14.390625 40.117188 C 12.503906 42 11.382812 44.453125 11.179688 47.085938 L 1.332031 47.085938 L 1.332031 68.871094 L 25.300781 68.871094 L 25.300781 58.609375 C 27.101562 58.089844 28.753906 57.152344 30.089844 55.816406 L 40.566406 45.339844 C 41.375 44.53125 42.042969 43.601562 42.566406 42.589844 C 43.578125 42.070312 44.515625 41.390625 45.339844 40.566406 L 55.816406 30.089844 C 57.703125 28.207031 58.820312 25.753906 59.027344 23.121094 L 68.871094 23.121094 L 68.871094 1.332031 L 44.90625 1.332031 Z M 44.90625 11.597656 " clip-rule="nonzero"/></clipPath><clipPath id="28ae19dc5c"><path d="M 37.28125 57.980469 L 37.28125 60.15625 L 35.101562 60.15625 L 35.101562 57.980469 Z M 39.460938 60.15625 L 39.460938 57.980469 L 41.640625 57.980469 L 41.640625 60.15625 Z M 37.28125 60.15625 L 39.460938 60.15625 L 39.460938 62.335938 L 37.28125 62.335938 Z M 39.460938 55.800781 L 39.460938 57.980469 L 37.28125 57.980469 L 37.28125 55.800781 Z M 62.335938 34.015625 L 62.335938 36.191406 L 60.15625 36.191406 L 60.15625 34.015625 Z M 64.515625 36.191406 L 64.515625 34.015625 L 66.695312 34.015625 L 66.695312 36.191406 Z M 62.335938 36.191406 L 64.515625 36.191406 L 64.515625 38.371094 L 62.335938 38.371094 Z M 64.515625 31.835938 L 64.515625 34.015625 L 62.335938 34.015625 L 62.335938 31.835938 Z M 17.671875 13.316406 L 15.496094 13.316406 L 15.496094 11.136719 L 17.671875 11.136719 Z M 19.851562 13.316406 L 19.851562 11.136719 L 22.03125 11.136719 L 22.03125 13.316406 Z M 17.671875 13.316406 L 19.851562 13.316406 L 19.851562 15.496094 L 17.671875 15.496094 Z M 19.851562 11.136719 L 17.671875 11.136719 L 17.671875 8.960938 L 19.851562 8.960938 Z M 13.316406 26.386719 L 11.136719 26.386719 L 11.136719 24.210938 L 13.316406 24.210938 Z M 15.496094 26.386719 L 15.496094 24.210938 L 17.671875 24.210938 L 17.671875 26.386719 Z M 13.316406 26.386719 L 15.496094 26.386719 L 15.496094 28.566406 L 13.316406 28.566406 Z M 15.496094 24.210938 L 13.316406 24.210938 L 13.316406 22.03125 L 15.496094 22.03125 Z M 30.746094 15.496094 L 28.566406 15.496094 L 28.566406 13.316406 L 30.746094 13.316406 Z M 32.925781 15.496094 L 32.925781 13.316406 L 35.101562 13.316406 L 35.101562 15.496094 Z M 30.746094 15.496094 L 32.925781 15.496094 L 32.925781 17.671875 L 30.746094 17.671875 Z M 32.925781 13.316406 L 30.746094 13.316406 L 30.746094 11.136719 L 32.925781 11.136719 Z M 54.710938 54.710938 L 54.710938 56.890625 L 52.53125 56.890625 L 52.53125 54.710938 Z M 56.890625 56.890625 L 56.890625 54.710938 L 59.070312 54.710938 L 59.070312 56.890625 Z M 54.710938 56.890625 L 56.890625 56.890625 L 56.890625 59.070312 L 54.710938 59.070312 Z M 56.890625 52.53125 L 56.890625 54.710938 L 54.710938 54.710938 L 54.710938 52.53125 Z M 48.175781 44.90625 L 48.175781 47.085938 L 45.996094 47.085938 L 45.996094 44.90625 Z M 50.355469 47.085938 L 50.355469 44.90625 L 52.53125 44.90625 L 52.53125 47.085938 Z M 48.175781 47.085938 L 50.355469 47.085938 L 50.355469 49.265625 L 48.175781 49.265625 Z M 50.355469 42.730469 L 50.355469 44.90625 L 48.175781 44.90625 L 48.175781 42.730469 Z M 7.871094 53.621094 L 5.691406 53.621094 L 5.691406 51.441406 L 7.871094 51.441406 Z M 7.871094 62.335938 L 12.226562 62.335938 L 12.226562 64.515625 L 5.691406 64.515625 L 5.691406 55.800781 L 7.871094 55.800781 Z M 53.621094 7.871094 L 51.441406 7.871094 L 51.441406 5.691406 L 53.621094 5.691406 Z M 62.335938 7.871094 L 55.800781 7.871094 L 55.800781 5.691406 L 64.515625 5.691406 L 64.515625 12.226562 L 62.335938 12.226562 Z M 47.085938 3.511719 L 66.695312 3.511719 L 66.695312 20.941406 L 58.992188 20.941406 C 58.65625 18.058594 57.210938 15.421875 54.90625 13.574219 L 54.074219 12.90625 L 49.867188 17.9375 L 50.757812 18.632812 C 51.527344 19.226562 52.050781 20.039062 52.320312 20.941406 L 47.085938 20.941406 Z M 54.277344 28.550781 L 43.800781 39.027344 C 42.117188 40.710938 39.878906 41.640625 37.492188 41.640625 C 33.378906 41.640625 29.835938 38.835938 28.84375 34.902344 L 29.484375 34.261719 C 29.859375 33.890625 30.304688 33.597656 30.78125 33.375 C 31.113281 36.785156 33.992188 39.460938 37.492188 39.460938 C 39.265625 39.460938 41.003906 38.742188 42.261719 37.484375 L 52.738281 27.007812 C 53.992188 25.753906 54.710938 24.015625 54.710938 22.238281 C 54.710938 20.523438 54.074219 18.910156 52.929688 17.671875 L 54.335938 15.988281 C 55.972656 17.652344 56.890625 19.878906 56.890625 22.238281 C 56.890625 24.625 55.960938 26.863281 54.277344 28.550781 Z M 39.027344 43.800781 L 28.550781 54.277344 C 27.621094 55.203125 26.515625 55.902344 25.300781 56.347656 L 25.300781 53.972656 C 25.933594 53.652344 26.515625 53.230469 27.007812 52.738281 L 36.035156 43.710938 C 36.511719 43.773438 36.996094 43.816406 37.492188 43.816406 C 38.042969 43.816406 38.589844 43.765625 39.125 43.6875 C 39.085938 43.722656 39.0625 43.765625 39.027344 43.800781 Z M 23.121094 66.695312 L 3.511719 66.695312 L 3.511719 49.265625 L 11.21875 49.265625 C 11.589844 52.425781 13.304688 55.296875 15.96875 57.128906 L 16.898438 57.765625 L 20.375 52.257812 L 19.554688 51.65625 C 18.738281 51.058594 18.160156 50.210938 17.875 49.265625 L 23.121094 49.265625 Z M 27.101562 36.644531 C 28.234375 39.648438 30.617188 41.984375 33.566406 43.097656 L 25.46875 51.195312 C 25.417969 51.246094 25.355469 51.28125 25.300781 51.332031 L 25.300781 47.085938 L 17.761719 47.085938 C 17.9375 46.207031 18.371094 45.375 19.011719 44.738281 Z M 37.257812 37.257812 C 34.929688 37.136719 33.070312 35.277344 32.949219 32.949219 C 35.277344 33.070312 37.136719 34.929688 37.257812 37.257812 Z M 15.929688 41.65625 L 26.40625 31.179688 C 28.089844 29.496094 30.328125 28.566406 32.714844 28.566406 C 36.828125 28.566406 40.371094 31.371094 41.363281 35.304688 L 40.71875 35.945312 C 40.34375 36.316406 39.902344 36.609375 39.425781 36.832031 C 39.09375 33.421875 36.214844 30.746094 32.714844 30.746094 C 30.941406 30.746094 29.203125 31.464844 27.945312 32.71875 L 17.46875 43.195312 C 16.214844 44.453125 15.496094 46.191406 15.496094 47.964844 C 15.496094 49.765625 16.226562 51.488281 17.492188 52.75 L 16.304688 54.628906 C 14.414062 52.945312 13.316406 50.527344 13.316406 47.964844 C 13.316406 45.578125 14.242188 43.339844 15.929688 41.65625 Z M 43.101562 33.5625 C 41.972656 30.558594 39.589844 28.222656 36.640625 27.109375 L 44.738281 19.011719 C 44.789062 18.957031 44.851562 18.925781 44.90625 18.875 L 44.90625 23.121094 L 52.441406 23.121094 C 52.269531 24 51.835938 24.832031 51.195312 25.46875 Z M 31.179688 26.40625 L 41.65625 15.929688 C 42.582031 15 43.691406 14.304688 44.90625 13.855469 L 44.90625 16.234375 C 44.273438 16.554688 43.691406 16.976562 43.195312 17.46875 L 34.171875 26.496094 C 33.695312 26.429688 33.210938 26.386719 32.714844 26.386719 C 32.164062 26.386719 31.617188 26.441406 31.082031 26.519531 C 31.121094 26.480469 31.144531 26.441406 31.179688 26.40625 Z M 44.90625 11.597656 C 43.101562 12.117188 41.453125 13.050781 40.117188 14.390625 L 29.640625 24.863281 C 28.832031 25.671875 28.164062 26.605469 27.640625 27.617188 C 26.625 28.136719 25.691406 28.8125 24.863281 29.640625 L 14.390625 40.117188 C 12.503906 42 11.382812 44.453125 11.179688 47.085938 L 1.332031 47.085938 L 1.332031 68.871094 L 25.300781 68.871094 L 25.300781 58.609375 C 27.101562 58.089844 28.753906 57.152344 30.089844 55.816406 L 40.566406 45.339844 C 41.375 44.53125 42.042969 43.601562 42.566406 42.589844 C 43.578125 42.070312 44.515625 41.390625 45.339844 40.566406 L 55.816406 30.089844 C 57.703125 28.207031 58.820312 25.753906 59.027344 23.121094 L 68.871094 23.121094 L 68.871094 1.332031 L 44.90625 1.332031 L 44.90625 11.597656 " clip-rule="nonzero"/></clipPath><linearGradient x1="0.0000000703283" gradientTransform="matrix(0, -67.539062, 67.539062, 0, 35.10321, 68.872743)" y1="0" x2="1" gradientUnits="userSpaceOnUse" y2="0" id="d777fc6b58"><stop stop-opacity="1" stop-color="rgb(62.399292%, 18.399048%, 100%)" offset="0"/><stop stop-opacity="1" stop-color="rgb(62.199402%, 18.598938%, 100%)" offset="0.00390625"/><stop stop-opacity="1" stop-color="rgb(61.999512%, 18.798828%, 100%)" offset="0.0078125"/><stop stop-opacity="1" stop-color="rgb(61.799622%, 18.998718%, 99.798584%)" offset="0.0117188"/><stop stop-opacity="1" stop-color="rgb(61.599731%, 19.198608%, 99.598694%)" offset="0.015625"/><stop stop-opacity="1" stop-color="rgb(61.376953%, 19.419861%, 99.598694%)" offset="0.0195312"/><stop stop-opacity="1" stop-color="rgb(61.155701%, 19.642639%, 99.598694%)" offset="0.0234375"/><stop stop-opacity="1" stop-color="rgb(60.777283%, 19.833374%, 99.586487%)" offset="0.0273438"/><stop stop-opacity="1" stop-color="rgb(60.398865%, 20.024109%, 99.57428%)" offset="0.03125"/><stop stop-opacity="1" stop-color="rgb(60.198975%, 20.214844%, 99.386597%)" offset="0.0351562"/><stop stop-opacity="1" stop-color="rgb(59.999084%, 20.405579%, 99.198914%)" offset="0.0390625"/><stop stop-opacity="1" stop-color="rgb(59.805298%, 20.602417%, 99.198914%)" offset="0.0429688"/><stop stop-opacity="1" stop-color="rgb(59.611511%, 20.799255%, 99.198914%)" offset="0.046875"/><stop stop-opacity="1" stop-color="rgb(59.405518%, 20.999146%, 99.198914%)" offset="0.0507812"/><stop stop-opacity="1" stop-color="rgb(59.199524%, 21.199036%, 99.198914%)" offset="0.0546875"/><stop stop-opacity="1" stop-color="rgb(58.999634%, 21.398926%, 98.999023%)" offset="0.0585938"/><stop stop-opacity="1" stop-color="rgb(58.799744%, 21.598816%, 98.799133%)" offset="0.0625"/><stop stop-opacity="1" stop-color="rgb(58.583069%, 21.813965%, 98.799133%)" offset="0.0664062"/><stop stop-opacity="1" stop-color="rgb(58.36792%, 22.03064%, 98.799133%)" offset="0.0703125"/><stop stop-opacity="1" stop-color="rgb(57.983398%, 22.219849%, 98.79303%)" offset="0.0742188"/><stop stop-opacity="1" stop-color="rgb(57.598877%, 22.409058%, 98.786926%)" offset="0.078125"/><stop stop-opacity="1" stop-color="rgb(57.450867%, 22.554016%, 98.59314%)" offset="0.0859375"/><stop stop-opacity="1" stop-color="rgb(57.113647%, 22.898865%, 98.399353%)" offset="0.0898438"/><stop stop-opacity="1" stop-color="rgb(56.924438%, 23.098755%, 98.399353%)" offset="0.09375"/><stop stop-opacity="1" stop-color="rgb(56.733704%, 23.298645%, 98.399353%)" offset="0.0976562"/><stop stop-opacity="1" stop-color="rgb(56.542969%, 23.498535%, 98.399353%)" offset="0.101562"/><stop stop-opacity="1" stop-color="rgb(56.30188%, 23.716736%, 98.199463%)" offset="0.105469"/><stop stop-opacity="1" stop-color="rgb(56.062317%, 23.936462%, 97.999573%)" offset="0.109375"/><stop stop-opacity="1" stop-color="rgb(55.871582%, 24.127197%, 97.999573%)" offset="0.117188"/><stop stop-opacity="1" stop-color="rgb(55.290222%, 24.508667%, 97.799683%)" offset="0.121094"/><stop stop-opacity="1" stop-color="rgb(54.899597%, 24.699402%, 97.599792%)" offset="0.125"/><stop stop-opacity="1" stop-color="rgb(54.708862%, 24.899292%, 97.599792%)" offset="0.128906"/><stop stop-opacity="1" stop-color="rgb(54.518127%, 25.099182%, 97.599792%)" offset="0.132812"/><stop stop-opacity="1" stop-color="rgb(54.327393%, 25.299072%, 97.599792%)" offset="0.136719"/><stop stop-opacity="1" stop-color="rgb(54.136658%, 25.498962%, 97.599792%)" offset="0.140625"/><stop stop-opacity="1" stop-color="rgb(53.895569%, 25.720215%, 97.44873%)" offset="0.144531"/><stop stop-opacity="1" stop-color="rgb(53.656006%, 25.942993%, 97.299194%)" offset="0.148438"/><stop stop-opacity="1" stop-color="rgb(53.465271%, 26.133728%, 97.299194%)" offset="0.15625"/><stop stop-opacity="1" stop-color="rgb(53.083801%, 26.515198%, 97.299194%)" offset="0.164062"/><stop stop-opacity="1" stop-color="rgb(52.696228%, 26.902771%, 97.105408%)" offset="0.167969"/><stop stop-opacity="1" stop-color="rgb(52.49939%, 27.099609%, 96.911621%)" offset="0.171875"/><stop stop-opacity="1" stop-color="rgb(52.165222%, 27.2995%, 96.905518%)" offset="0.175781"/><stop stop-opacity="1" stop-color="rgb(51.831055%, 27.49939%, 96.899414%)" offset="0.179688"/><stop stop-opacity="1" stop-color="rgb(51.64032%, 27.648926%, 96.899414%)" offset="0.1875"/><stop stop-opacity="1" stop-color="rgb(51.223755%, 28.015137%, 96.699524%)" offset="0.191406"/><stop stop-opacity="1" stop-color="rgb(50.999451%, 28.230286%, 96.499634%)" offset="0.195312"/><stop stop-opacity="1" stop-color="rgb(50.793457%, 28.421021%, 96.499634%)" offset="0.199219"/><stop stop-opacity="1" stop-color="rgb(50.587463%, 28.611755%, 96.499634%)" offset="0.203125"/><stop stop-opacity="1" stop-color="rgb(50.393677%, 28.805542%, 96.499634%)" offset="0.210938"/><stop stop-opacity="1" stop-color="rgb(49.998474%, 29.199219%, 96.311951%)" offset="0.214844"/><stop stop-opacity="1" stop-color="rgb(49.798584%, 29.399109%, 96.124268%)" offset="0.21875"/><stop stop-opacity="1" stop-color="rgb(49.420166%, 29.598999%, 96.112061%)" offset="0.222656"/><stop stop-opacity="1" stop-color="rgb(49.043274%, 29.798889%, 96.099854%)" offset="0.226562"/><stop stop-opacity="1" stop-color="rgb(48.820496%, 30.01709%, 96.099854%)" offset="0.230469"/><stop stop-opacity="1" stop-color="rgb(48.599243%, 30.236816%, 96.099854%)" offset="0.234375"/><stop stop-opacity="1" stop-color="rgb(48.399353%, 30.427551%, 95.898438%)" offset="0.238281"/><stop stop-opacity="1" stop-color="rgb(48.199463%, 30.618286%, 95.698547%)" offset="0.242188"/><stop stop-opacity="1" stop-color="rgb(47.999573%, 30.809021%, 95.698547%)" offset="0.246094"/><stop stop-opacity="1" stop-color="rgb(47.799683%, 30.999756%, 95.698547%)" offset="0.25"/><stop stop-opacity="1" stop-color="rgb(47.648621%, 31.390381%, 95.698547%)" offset="0.253906"/><stop stop-opacity="1" stop-color="rgb(47.499084%, 31.781006%, 95.698547%)" offset="0.257812"/><stop stop-opacity="1" stop-color="rgb(47.299194%, 31.971741%, 95.498657%)" offset="0.261719"/><stop stop-opacity="1" stop-color="rgb(47.099304%, 32.162476%, 95.298767%)" offset="0.265625"/><stop stop-opacity="1" stop-color="rgb(46.876526%, 32.330322%, 95.298767%)" offset="0.269531"/><stop stop-opacity="1" stop-color="rgb(46.655273%, 32.499695%, 95.298767%)" offset="0.273438"/><stop stop-opacity="1" stop-color="rgb(46.276855%, 32.699585%, 95.28656%)" offset="0.277344"/><stop stop-opacity="1" stop-color="rgb(45.899963%, 32.899475%, 95.274353%)" offset="0.28125"/><stop stop-opacity="1" stop-color="rgb(45.698547%, 33.099365%, 95.08667%)" offset="0.285156"/><stop stop-opacity="1" stop-color="rgb(45.498657%, 33.299255%, 94.898987%)" offset="0.289062"/><stop stop-opacity="1" stop-color="rgb(45.304871%, 33.493042%, 94.898987%)" offset="0.296875"/><stop stop-opacity="1" stop-color="rgb(44.90509%, 33.877563%, 94.898987%)" offset="0.300781"/><stop stop-opacity="1" stop-color="rgb(44.699097%, 34.068298%, 94.898987%)" offset="0.304688"/><stop stop-opacity="1" stop-color="rgb(44.499207%, 34.259033%, 94.699097%)" offset="0.308594"/><stop stop-opacity="1" stop-color="rgb(44.299316%, 34.449768%, 94.499207%)" offset="0.3125"/><stop stop-opacity="1" stop-color="rgb(44.082642%, 34.674072%, 94.499207%)" offset="0.316406"/><stop stop-opacity="1" stop-color="rgb(43.867493%, 34.899902%, 94.499207%)" offset="0.320312"/><stop stop-opacity="1" stop-color="rgb(43.482971%, 35.099792%, 94.493103%)" offset="0.324219"/><stop stop-opacity="1" stop-color="rgb(43.099976%, 35.299683%, 94.487%)" offset="0.328125"/><stop stop-opacity="1" stop-color="rgb(42.901611%, 35.496521%, 94.293213%)" offset="0.332031"/><stop stop-opacity="1" stop-color="rgb(42.704773%, 35.693359%, 94.099426%)" offset="0.335938"/><stop stop-opacity="1" stop-color="rgb(42.56134%, 35.884094%, 94.099426%)" offset="0.34375"/><stop stop-opacity="1" stop-color="rgb(42.230225%, 36.264038%, 94.099426%)" offset="0.351562"/><stop stop-opacity="1" stop-color="rgb(41.801453%, 36.676025%, 93.899536%)" offset="0.355469"/><stop stop-opacity="1" stop-color="rgb(41.56189%, 36.898804%, 93.699646%)" offset="0.359375"/><stop stop-opacity="1" stop-color="rgb(41.371155%, 37.098694%, 93.699646%)" offset="0.363281"/><stop stop-opacity="1" stop-color="rgb(41.18042%, 37.298584%, 93.699646%)" offset="0.367188"/><stop stop-opacity="1" stop-color="rgb(40.789795%, 37.44812%, 93.499756%)" offset="0.371094"/><stop stop-opacity="1" stop-color="rgb(40.39917%, 37.599182%, 93.299866%)" offset="0.375"/><stop stop-opacity="1" stop-color="rgb(40.208435%, 37.789917%, 93.299866%)" offset="0.382812"/><stop stop-opacity="1" stop-color="rgb(39.826965%, 38.171387%, 93.299866%)" offset="0.390625"/><stop stop-opacity="1" stop-color="rgb(39.395142%, 38.580322%, 93.09845%)" offset="0.394531"/><stop stop-opacity="1" stop-color="rgb(39.155579%, 38.798523%, 92.89856%)" offset="0.398438"/><stop stop-opacity="1" stop-color="rgb(38.964844%, 38.998413%, 92.89856%)" offset="0.402344"/><stop stop-opacity="1" stop-color="rgb(38.774109%, 39.199829%, 92.89856%)" offset="0.40625"/><stop stop-opacity="1" stop-color="rgb(38.583374%, 39.399719%, 92.89856%)" offset="0.410156"/><stop stop-opacity="1" stop-color="rgb(38.392639%, 39.599609%, 92.89856%)" offset="0.414062"/><stop stop-opacity="1" stop-color="rgb(38.195801%, 39.793396%, 92.704773%)" offset="0.417969"/><stop stop-opacity="1" stop-color="rgb(37.998962%, 39.987183%, 92.510986%)" offset="0.421875"/><stop stop-opacity="1" stop-color="rgb(37.660217%, 40.177917%, 92.504883%)" offset="0.425781"/><stop stop-opacity="1" stop-color="rgb(37.322998%, 40.368652%, 92.498779%)" offset="0.429688"/><stop stop-opacity="1" stop-color="rgb(37.135315%, 40.557861%, 92.498779%)" offset="0.4375"/><stop stop-opacity="1" stop-color="rgb(36.723328%, 40.9729%, 92.349243%)" offset="0.441406"/><stop stop-opacity="1" stop-color="rgb(36.499023%, 41.19873%, 92.199707%)" offset="0.445312"/><stop stop-opacity="1" stop-color="rgb(36.29303%, 41.398621%, 92.199707%)" offset="0.449219"/><stop stop-opacity="1" stop-color="rgb(36.087036%, 41.598511%, 92.199707%)" offset="0.453125"/><stop stop-opacity="1" stop-color="rgb(35.89325%, 41.795349%, 92.199707%)" offset="0.457031"/><stop stop-opacity="1" stop-color="rgb(35.699463%, 41.993713%, 92.199707%)" offset="0.460938"/><stop stop-opacity="1" stop-color="rgb(35.499573%, 42.182922%, 92.012024%)" offset="0.464844"/><stop stop-opacity="1" stop-color="rgb(35.299683%, 42.373657%, 91.824341%)" offset="0.46875"/><stop stop-opacity="1" stop-color="rgb(34.921265%, 42.520142%, 91.812134%)" offset="0.472656"/><stop stop-opacity="1" stop-color="rgb(34.542847%, 42.666626%, 91.799927%)" offset="0.476562"/><stop stop-opacity="1" stop-color="rgb(34.320068%, 42.883301%, 91.799927%)" offset="0.480469"/><stop stop-opacity="1" stop-color="rgb(34.098816%, 43.099976%, 91.799927%)" offset="0.484375"/><stop stop-opacity="1" stop-color="rgb(33.898926%, 43.299866%, 91.598511%)" offset="0.488281"/><stop stop-opacity="1" stop-color="rgb(33.699036%, 43.499756%, 91.398621%)" offset="0.492188"/><stop stop-opacity="1" stop-color="rgb(33.499146%, 43.699646%, 91.398621%)" offset="0.496094"/><stop stop-opacity="1" stop-color="rgb(33.299255%, 43.899536%, 91.398621%)" offset="0.5"/><stop stop-opacity="1" stop-color="rgb(33.099365%, 44.099426%, 91.398621%)" offset="0.503906"/><stop stop-opacity="1" stop-color="rgb(32.899475%, 44.299316%, 91.398621%)" offset="0.507812"/><stop stop-opacity="1" stop-color="rgb(32.699585%, 44.499207%, 91.19873%)" offset="0.511719"/><stop stop-opacity="1" stop-color="rgb(32.499695%, 44.699097%, 90.99884%)" offset="0.515625"/><stop stop-opacity="1" stop-color="rgb(32.327271%, 44.920349%, 90.99884%)" offset="0.519531"/><stop stop-opacity="1" stop-color="rgb(32.154846%, 45.143127%, 90.99884%)" offset="0.523437"/><stop stop-opacity="1" stop-color="rgb(31.776428%, 45.333862%, 90.986633%)" offset="0.527344"/><stop stop-opacity="1" stop-color="rgb(31.399536%, 45.524597%, 90.974426%)" offset="0.53125"/><stop stop-opacity="1" stop-color="rgb(31.199646%, 45.715332%, 90.786743%)" offset="0.535156"/><stop stop-opacity="1" stop-color="rgb(30.999756%, 45.906067%, 90.59906%)" offset="0.539062"/><stop stop-opacity="1" stop-color="rgb(30.805969%, 46.102905%, 90.59906%)" offset="0.542969"/><stop stop-opacity="1" stop-color="rgb(30.612183%, 46.299744%, 90.59906%)" offset="0.546875"/><stop stop-opacity="1" stop-color="rgb(30.404663%, 46.499634%, 90.59906%)" offset="0.550781"/><stop stop-opacity="1" stop-color="rgb(30.198669%, 46.699524%, 90.59906%)" offset="0.554688"/><stop stop-opacity="1" stop-color="rgb(29.998779%, 46.899414%, 90.39917%)" offset="0.558594"/><stop stop-opacity="1" stop-color="rgb(29.798889%, 47.099304%, 90.19928%)" offset="0.5625"/><stop stop-opacity="1" stop-color="rgb(29.58374%, 47.309875%, 90.19928%)" offset="0.566406"/><stop stop-opacity="1" stop-color="rgb(29.368591%, 47.521973%, 90.19928%)" offset="0.570312"/><stop stop-opacity="1" stop-color="rgb(28.98407%, 47.666931%, 90.193176%)" offset="0.574219"/><stop stop-opacity="1" stop-color="rgb(28.599548%, 47.81189%, 90.187073%)" offset="0.578125"/><stop stop-opacity="1" stop-color="rgb(28.40271%, 48.005676%, 89.993286%)" offset="0.582031"/><stop stop-opacity="1" stop-color="rgb(28.205872%, 48.199463%, 89.7995%)" offset="0.585938"/><stop stop-opacity="1" stop-color="rgb(28.015137%, 48.399353%, 89.7995%)" offset="0.589844"/><stop stop-opacity="1" stop-color="rgb(27.824402%, 48.599243%, 89.7995%)" offset="0.59375"/><stop stop-opacity="1" stop-color="rgb(27.677917%, 48.799133%, 89.7995%)" offset="0.597656"/><stop stop-opacity="1" stop-color="rgb(27.531433%, 48.999023%, 89.7995%)" offset="0.601563"/><stop stop-opacity="1" stop-color="rgb(27.296448%, 49.217224%, 89.599609%)" offset="0.605469"/><stop stop-opacity="1" stop-color="rgb(27.061462%, 49.436951%, 89.399719%)" offset="0.609375"/><stop stop-opacity="1" stop-color="rgb(26.870728%, 49.627686%, 89.399719%)" offset="0.617188"/><stop stop-opacity="1" stop-color="rgb(26.289368%, 50.009155%, 89.199829%)" offset="0.621094"/><stop stop-opacity="1" stop-color="rgb(25.898743%, 50.19989%, 88.999939%)" offset="0.625"/><stop stop-opacity="1" stop-color="rgb(25.708008%, 50.39978%, 88.999939%)" offset="0.628906"/><stop stop-opacity="1" stop-color="rgb(25.517273%, 50.59967%, 88.999939%)" offset="0.632812"/><stop stop-opacity="1" stop-color="rgb(25.326538%, 50.799561%, 88.999939%)" offset="0.636719"/><stop stop-opacity="1" stop-color="rgb(25.137329%, 50.999451%, 88.999939%)" offset="0.640625"/><stop stop-opacity="1" stop-color="rgb(24.89624%, 51.220703%, 88.798523%)" offset="0.644531"/><stop stop-opacity="1" stop-color="rgb(24.655151%, 51.443481%, 88.598633%)" offset="0.648437"/><stop stop-opacity="1" stop-color="rgb(24.464417%, 51.634216%, 88.598633%)" offset="0.65625"/><stop stop-opacity="1" stop-color="rgb(24.082947%, 52.01416%, 88.598633%)" offset="0.664062"/><stop stop-opacity="1" stop-color="rgb(23.695374%, 52.351379%, 88.404846%)" offset="0.667969"/><stop stop-opacity="1" stop-color="rgb(23.498535%, 52.49939%, 88.21106%)" offset="0.671875"/><stop stop-opacity="1" stop-color="rgb(23.114014%, 52.69928%, 88.204956%)" offset="0.675781"/><stop stop-opacity="1" stop-color="rgb(22.731018%, 52.89917%, 88.198853%)" offset="0.679688"/><stop stop-opacity="1" stop-color="rgb(22.583008%, 53.09906%, 88.198853%)" offset="0.683594"/><stop stop-opacity="1" stop-color="rgb(22.436523%, 53.29895%, 88.198853%)" offset="0.6875"/><stop stop-opacity="1" stop-color="rgb(22.216797%, 53.514099%, 87.998962%)" offset="0.691406"/><stop stop-opacity="1" stop-color="rgb(21.998596%, 53.730774%, 87.799072%)" offset="0.695312"/><stop stop-opacity="1" stop-color="rgb(21.792603%, 53.921509%, 87.799072%)" offset="0.699219"/><stop stop-opacity="1" stop-color="rgb(21.586609%, 54.112244%, 87.799072%)" offset="0.703125"/><stop stop-opacity="1" stop-color="rgb(21.392822%, 54.30603%, 87.799072%)" offset="0.710938"/><stop stop-opacity="1" stop-color="rgb(20.999146%, 54.699707%, 87.658691%)" offset="0.714844"/><stop stop-opacity="1" stop-color="rgb(20.799255%, 54.899597%, 87.518311%)" offset="0.71875"/><stop stop-opacity="1" stop-color="rgb(20.420837%, 55.099487%, 87.509155%)" offset="0.722656"/><stop stop-opacity="1" stop-color="rgb(20.042419%, 55.299377%, 87.5%)" offset="0.726563"/><stop stop-opacity="1" stop-color="rgb(19.821167%, 55.517578%, 87.5%)" offset="0.730469"/><stop stop-opacity="1" stop-color="rgb(19.599915%, 55.737305%, 87.5%)" offset="0.734375"/><stop stop-opacity="1" stop-color="rgb(19.398499%, 55.926514%, 87.298584%)" offset="0.738281"/><stop stop-opacity="1" stop-color="rgb(19.198608%, 56.117249%, 87.098694%)" offset="0.742188"/><stop stop-opacity="1" stop-color="rgb(18.998718%, 56.307983%, 87.098694%)" offset="0.746094"/><stop stop-opacity="1" stop-color="rgb(18.798828%, 56.498718%, 87.098694%)" offset="0.75"/><stop stop-opacity="1" stop-color="rgb(18.598938%, 56.889343%, 87.098694%)" offset="0.753906"/><stop stop-opacity="1" stop-color="rgb(18.399048%, 57.279968%, 87.098694%)" offset="0.757812"/><stop stop-opacity="1" stop-color="rgb(18.199158%, 57.424927%, 86.898804%)" offset="0.761719"/><stop stop-opacity="1" stop-color="rgb(17.999268%, 57.571411%, 86.698914%)" offset="0.765625"/><stop stop-opacity="1" stop-color="rgb(17.782593%, 57.785034%, 86.698914%)" offset="0.769531"/><stop stop-opacity="1" stop-color="rgb(17.565918%, 57.998657%, 86.698914%)" offset="0.773437"/><stop stop-opacity="1" stop-color="rgb(17.23175%, 58.198547%, 86.686707%)" offset="0.777344"/><stop stop-opacity="1" stop-color="rgb(16.899109%, 58.399963%, 86.6745%)" offset="0.78125"/><stop stop-opacity="1" stop-color="rgb(16.699219%, 58.599854%, 86.486816%)" offset="0.785156"/><stop stop-opacity="1" stop-color="rgb(16.499329%, 58.799744%, 86.299133%)" offset="0.789062"/><stop stop-opacity="1" stop-color="rgb(16.305542%, 58.99353%, 86.299133%)" offset="0.796875"/><stop stop-opacity="1" stop-color="rgb(15.905762%, 59.376526%, 86.299133%)" offset="0.800781"/><stop stop-opacity="1" stop-color="rgb(15.699768%, 59.567261%, 86.299133%)" offset="0.804688"/><stop stop-opacity="1" stop-color="rgb(15.499878%, 59.757996%, 86.099243%)" offset="0.808594"/><stop stop-opacity="1" stop-color="rgb(15.299988%, 59.94873%, 85.899353%)" offset="0.8125"/><stop stop-opacity="1" stop-color="rgb(15.083313%, 60.173035%, 85.899353%)" offset="0.816406"/><stop stop-opacity="1" stop-color="rgb(14.868164%, 60.398865%, 85.899353%)" offset="0.820312"/><stop stop-opacity="1" stop-color="rgb(14.483643%, 60.598755%, 85.89325%)" offset="0.824219"/><stop stop-opacity="1" stop-color="rgb(14.099121%, 60.798645%, 85.887146%)" offset="0.828125"/><stop stop-opacity="1" stop-color="rgb(13.902283%, 60.995483%, 85.693359%)" offset="0.832031"/><stop stop-opacity="1" stop-color="rgb(13.705444%, 61.192322%, 85.499573%)" offset="0.835938"/><stop stop-opacity="1" stop-color="rgb(13.514709%, 61.383057%, 85.499573%)" offset="0.84375"/><stop stop-opacity="1" stop-color="rgb(13.13324%, 61.764526%, 85.499573%)" offset="0.851563"/><stop stop-opacity="1" stop-color="rgb(12.705994%, 62.176514%, 85.299683%)" offset="0.855469"/><stop stop-opacity="1" stop-color="rgb(12.471008%, 62.399292%, 85.099792%)" offset="0.859375"/><stop stop-opacity="1" stop-color="rgb(12.32605%, 62.548828%, 85.099792%)" offset="0.867188"/><stop stop-opacity="1" stop-color="rgb(11.790466%, 62.89978%, 84.898376%)" offset="0.871094"/><stop stop-opacity="1" stop-color="rgb(11.399841%, 63.09967%, 84.698486%)" offset="0.875"/><stop stop-opacity="1" stop-color="rgb(11.209106%, 63.290405%, 84.698486%)" offset="0.882812"/><stop stop-opacity="1" stop-color="rgb(10.827637%, 63.670349%, 84.698486%)" offset="0.890625"/><stop stop-opacity="1" stop-color="rgb(10.395813%, 64.079285%, 84.498596%)" offset="0.894531"/><stop stop-opacity="1" stop-color="rgb(10.15625%, 64.299011%, 84.298706%)" offset="0.898437"/><stop stop-opacity="1" stop-color="rgb(9.965515%, 64.498901%, 84.298706%)" offset="0.902344"/><stop stop-opacity="1" stop-color="rgb(9.77478%, 64.698792%, 84.298706%)" offset="0.90625"/><stop stop-opacity="1" stop-color="rgb(9.584045%, 64.898682%, 84.298706%)" offset="0.910156"/><stop stop-opacity="1" stop-color="rgb(9.393311%, 65.098572%, 84.298706%)" offset="0.914062"/><stop stop-opacity="1" stop-color="rgb(9.196472%, 65.292358%, 84.104919%)" offset="0.917969"/><stop stop-opacity="1" stop-color="rgb(8.999634%, 65.486145%, 83.911133%)" offset="0.921875"/><stop stop-opacity="1" stop-color="rgb(8.615112%, 65.67688%, 83.905029%)" offset="0.925781"/><stop stop-opacity="1" stop-color="rgb(8.230591%, 65.867615%, 83.898926%)" offset="0.929688"/><stop stop-opacity="1" stop-color="rgb(8.039856%, 66.05835%, 83.898926%)" offset="0.9375"/><stop stop-opacity="1" stop-color="rgb(7.673645%, 66.473389%, 83.699036%)" offset="0.941406"/><stop stop-opacity="1" stop-color="rgb(7.499695%, 66.699219%, 83.499146%)" offset="0.945312"/><stop stop-opacity="1" stop-color="rgb(7.292175%, 66.899109%, 83.499146%)" offset="0.949219"/><stop stop-opacity="1" stop-color="rgb(7.086182%, 67.098999%, 83.499146%)" offset="0.953125"/><stop stop-opacity="1" stop-color="rgb(6.892395%, 67.295837%, 83.499146%)" offset="0.957031"/><stop stop-opacity="1" stop-color="rgb(6.698608%, 67.492676%, 83.499146%)" offset="0.960938"/><stop stop-opacity="1" stop-color="rgb(6.498718%, 67.636108%, 83.311462%)" offset="0.964844"/><stop stop-opacity="1" stop-color="rgb(6.298828%, 67.781067%, 83.123779%)" offset="0.96875"/><stop stop-opacity="1" stop-color="rgb(5.92041%, 67.967224%, 83.111572%)" offset="0.972656"/><stop stop-opacity="1" stop-color="rgb(5.543518%, 68.154907%, 83.099365%)" offset="0.976563"/><stop stop-opacity="1" stop-color="rgb(5.32074%, 68.37616%, 83.099365%)" offset="0.980469"/><stop stop-opacity="1" stop-color="rgb(5.099487%, 68.598938%, 83.099365%)" offset="0.984375"/><stop stop-opacity="1" stop-color="rgb(4.899597%, 68.798828%, 82.899475%)" offset="0.988281"/><stop stop-opacity="1" stop-color="rgb(4.699707%, 68.998718%, 82.699585%)" offset="0.992188"/><stop stop-opacity="1" stop-color="rgb(4.499817%, 69.198608%, 82.699585%)" offset="0.996094"/><stop stop-opacity="1" stop-color="rgb(4.299927%, 69.398499%, 82.699585%)" offset="1"/></linearGradient></defs><g clip-path="url(#282850c683)"><g clip-path="url(#8f302c29ec)"><g clip-path="url(#28ae19dc5c)"><path fill="url(#d777fc6b58)" d="M 1.332031 68.871094 L 68.871094 68.871094 L 68.871094 1.332031 L 1.332031 1.332031 Z M 1.332031 68.871094 " fill-rule="nonzero"/></g></g></g></svg>