<svg xmlns="http://www.w3.org/2000/svg" xmlns:xlink="http://www.w3.org/1999/xlink" width="98" zoomAndPan="magnify" viewBox="0 0 73.5 77.249999" height="103" preserveAspectRatio="xMidYMid meet" version="1.0"><defs><clipPath id="d686771872"><path d="M 1.628906 42 L 65 42 L 65 73.679688 L 1.628906 73.679688 Z M 1.628906 42 " clip-rule="nonzero"/></clipPath><clipPath id="ef04f2cebe"><path d="M 50 3.117188 L 71 3.117188 L 71 37 L 50 37 Z M 50 3.117188 " clip-rule="nonzero"/></clipPath><clipPath id="61ee74dd9f"><path d="M 14 3.117188 L 36 3.117188 L 36 37 L 14 37 Z M 14 3.117188 " clip-rule="nonzero"/></clipPath></defs><g clip-path="url(#d686771872)"><path fill="#5271ff" d="M 3.9375 49.984375 L 2.238281 51.410156 C 1.800781 51.792969 1.691406 52.503906 2.128906 52.945312 C 2.511719 53.382812 3.226562 53.492188 3.664062 53.054688 L 5.363281 51.628906 C 5.800781 51.300781 6.734375 51.410156 7.445312 52.121094 L 21.09375 66.539062 C 21.753906 67.25 21.753906 68.347656 21.09375 69.058594 L 18.738281 71.527344 C 18.300781 71.964844 18.355469 72.675781 18.738281 73.0625 C 18.957031 73.28125 19.230469 73.390625 19.503906 73.390625 C 19.777344 73.390625 20.054688 73.28125 20.273438 73.0625 L 22.628906 70.59375 C 24.109375 69.058594 24.109375 66.59375 22.683594 65.058594 L 24.4375 63.46875 L 44.996094 63.46875 C 45.871094 63.46875 47.078125 63.085938 47.789062 62.644531 L 58.699219 55.355469 C 59.410156 54.863281 60.234375 53.929688 60.5625 53.164062 L 64.125 45.269531 C 64.398438 44.667969 64.34375 44.007812 64.015625 43.460938 C 63.6875 42.914062 63.085938 42.636719 62.371094 42.636719 L 56.835938 42.636719 C 56.34375 42.636719 55.847656 42.746094 55.300781 42.96875 C 54.808594 43.1875 54.09375 43.679688 52.449219 46.035156 L 51.242188 47.679688 L 49.542969 47.679688 C 49.542969 47.734375 49.542969 47.847656 49.542969 47.902344 L 49.542969 49.875 L 51.902344 49.875 C 52.230469 49.875 52.558594 49.710938 52.777344 49.433594 L 54.3125 47.351562 C 55.792969 45.324219 56.230469 45.050781 56.285156 44.996094 C 56.5625 44.886719 56.78125 44.832031 56.945312 44.832031 L 61.988281 44.832031 L 58.644531 52.285156 C 58.480469 52.667969 57.929688 53.273438 57.546875 53.546875 L 46.640625 60.835938 C 46.253906 61.054688 45.488281 61.332031 45.050781 61.332031 L 24.054688 61.332031 C 23.78125 61.332031 23.507812 61.441406 23.34375 61.605469 L 21.203125 63.46875 L 10.1875 51.902344 L 17.367188 45.433594 C 17.640625 45.160156 18.300781 44.941406 18.683594 44.941406 L 29.753906 44.941406 C 30.304688 44.941406 31.179688 45.105469 31.675781 45.324219 L 34.25 46.3125 C 35.019531 46.585938 36.167969 46.804688 36.9375 46.804688 L 43.84375 46.804688 C 44.554688 46.804688 45.160156 47.351562 45.160156 48.011719 L 45.160156 51.464844 C 45.160156 52.121094 44.554688 52.667969 43.84375 52.667969 L 30.085938 52.667969 C 29.480469 52.667969 28.988281 53.164062 28.988281 53.765625 C 28.988281 54.367188 29.480469 54.863281 30.085938 54.863281 L 43.84375 54.863281 C 45.761719 54.863281 47.351562 53.328125 47.351562 51.464844 L 47.351562 48.011719 C 47.351562 46.144531 45.761719 44.613281 43.84375 44.613281 L 36.992188 44.613281 C 36.445312 44.613281 35.566406 44.445312 35.074219 44.226562 L 32.496094 43.242188 C 31.730469 42.96875 30.578125 42.746094 29.8125 42.746094 L 18.683594 42.746094 C 17.75 42.746094 16.546875 43.1875 15.886719 43.84375 L 8.652344 50.3125 C 7.171875 49.050781 5.199219 48.886719 3.9375 49.984375 Z M 3.9375 49.984375 " fill-opacity="1" fill-rule="nonzero"/></g><g clip-path="url(#ef04f2cebe)"><path fill="#5271ff" d="M 65.058594 3.5 C 64.730469 3.226562 64.234375 3.171875 63.796875 3.390625 C 63.796875 3.390625 61.441406 4.707031 60.289062 3.554688 C 60.070312 3.335938 59.796875 3.226562 59.519531 3.226562 L 59.300781 3.226562 C 59.027344 3.226562 58.753906 3.335938 58.535156 3.554688 C 57.382812 4.648438 55.027344 3.390625 55.027344 3.390625 C 54.640625 3.171875 54.148438 3.226562 53.765625 3.5 C 53.4375 3.773438 53.273438 4.265625 53.4375 4.707031 L 55.410156 10.515625 C 53.820312 11.996094 51.792969 14.132812 50.257812 16.765625 C 50.75 17.3125 51.296875 17.914062 51.792969 18.574219 C 53.328125 15.667969 55.574219 13.367188 56.945312 12.050781 L 61.769531 12.050781 C 64.179688 14.296875 69.003906 19.503906 68.675781 25.371094 C 68.402344 29.867188 64.675781 33.648438 60.179688 33.976562 C 59.960938 33.976562 59.742188 33.976562 59.519531 33.976562 L 59.191406 33.976562 C 58.972656 33.976562 58.753906 33.976562 58.535156 33.976562 C 57.765625 33.921875 57.054688 33.757812 56.34375 33.539062 C 56.175781 34.25 56.011719 34.964844 55.738281 35.621094 C 56.617188 35.894531 57.492188 36.113281 58.425781 36.167969 C 58.699219 36.167969 58.972656 36.167969 59.246094 36.167969 L 59.574219 36.167969 C 59.851562 36.167969 60.125 36.167969 60.398438 36.167969 C 65.988281 35.785156 70.59375 31.125 70.921875 25.535156 C 71.308594 19.011719 66.59375 13.476562 63.414062 10.570312 L 65.386719 4.761719 C 65.550781 4.265625 65.386719 3.773438 65.058594 3.5 Z M 61.332031 9.804688 L 57.546875 9.804688 L 56.285156 6.074219 C 57.273438 6.238281 58.425781 6.238281 59.464844 5.582031 C 60.507812 6.238281 61.660156 6.238281 62.644531 6.074219 Z M 61.332031 9.804688 " fill-opacity="1" fill-rule="nonzero"/></g><g clip-path="url(#61ee74dd9f)"><path fill="#5271ff" d="M 15.011719 25.425781 C 15.339844 31.015625 19.945312 35.730469 25.535156 36.058594 C 25.808594 36.058594 26.082031 36.058594 26.355469 36.058594 L 26.6875 36.058594 C 26.960938 36.058594 27.234375 36.058594 27.507812 36.058594 C 28.441406 36.003906 29.316406 35.785156 30.195312 35.511719 C 29.921875 34.855469 29.699219 34.140625 29.589844 33.429688 C 28.878906 33.648438 28.167969 33.8125 27.398438 33.867188 C 27.179688 33.867188 26.960938 33.867188 26.742188 33.867188 L 26.410156 33.867188 C 26.191406 33.867188 25.972656 33.867188 25.753906 33.867188 C 21.257812 33.59375 17.53125 29.8125 17.257812 25.261719 C 16.875 19.449219 21.699219 14.242188 24.109375 11.996094 L 28.933594 11.996094 C 30.359375 13.3125 32.550781 15.613281 34.085938 18.519531 C 34.578125 17.859375 35.128906 17.257812 35.621094 16.710938 C 34.085938 14.078125 32.058594 11.941406 30.46875 10.460938 L 32.441406 4.648438 C 32.605469 4.210938 32.441406 3.71875 32.113281 3.445312 C 31.785156 3.171875 31.289062 3.117188 30.851562 3.335938 C 30.851562 3.335938 28.496094 4.648438 27.34375 3.5 C 27.179688 3.335938 26.90625 3.226562 26.632812 3.226562 L 26.410156 3.226562 C 26.136719 3.226562 25.863281 3.335938 25.644531 3.554688 C 24.492188 4.648438 22.136719 3.390625 22.136719 3.390625 C 21.753906 3.171875 21.257812 3.226562 20.875 3.5 C 20.546875 3.773438 20.382812 4.265625 20.546875 4.707031 L 22.519531 10.515625 C 19.394531 13.367188 14.625 18.902344 15.011719 25.425781 Z M 26.523438 5.636719 C 27.5625 6.292969 28.714844 6.292969 29.699219 6.128906 L 28.441406 9.804688 L 24.65625 9.804688 L 23.398438 6.074219 C 24.328125 6.292969 25.480469 6.238281 26.523438 5.636719 Z M 26.523438 5.636719 " fill-opacity="1" fill-rule="nonzero"/></g><path fill="#5271ff" d="M 31.457031 31.457031 C 31.785156 37.046875 36.386719 41.761719 41.980469 42.089844 C 42.253906 42.089844 42.527344 42.089844 42.800781 42.089844 L 43.132812 42.089844 C 43.40625 42.089844 43.679688 42.089844 43.953125 42.089844 C 49.542969 41.707031 54.148438 37.046875 54.476562 31.457031 C 54.863281 24.933594 50.148438 19.394531 46.96875 16.492188 L 48.941406 10.679688 C 49.105469 10.242188 48.941406 9.75 48.613281 9.472656 C 48.285156 9.199219 47.789062 9.144531 47.351562 9.363281 C 47.351562 9.363281 44.996094 10.679688 43.84375 9.527344 C 43.625 9.308594 43.351562 9.199219 43.078125 9.199219 L 42.855469 9.199219 C 42.582031 9.199219 42.308594 9.308594 42.089844 9.527344 C 40.9375 10.679688 38.582031 9.363281 38.582031 9.363281 C 38.199219 9.144531 37.703125 9.199219 37.320312 9.472656 C 36.992188 9.75 36.828125 10.242188 36.992188 10.679688 L 38.964844 16.492188 C 35.839844 19.394531 31.070312 24.933594 31.457031 31.457031 Z M 42.964844 11.667969 C 44.007812 12.324219 45.160156 12.324219 46.144531 12.160156 L 44.886719 15.832031 L 41.101562 15.832031 L 39.84375 12.105469 C 40.773438 12.324219 41.925781 12.269531 42.964844 11.667969 Z M 40.554688 18.027344 L 45.378906 18.027344 C 47.789062 20.273438 52.613281 25.480469 52.285156 31.347656 C 52.011719 35.839844 48.285156 39.625 43.789062 39.953125 C 43.570312 39.953125 43.351562 39.953125 43.132812 39.953125 L 42.800781 39.953125 C 42.582031 39.953125 42.363281 39.953125 42.144531 39.953125 C 37.648438 39.679688 33.921875 35.894531 33.648438 31.347656 C 33.320312 25.480469 38.144531 20.273438 40.554688 18.027344 Z M 40.554688 18.027344 " fill-opacity="1" fill-rule="nonzero"/><path fill="#5271ff" d="M 40.5 31.730469 C 39.898438 31.730469 39.402344 32.222656 39.402344 32.824219 C 39.402344 33.429688 39.898438 33.921875 40.5 33.921875 L 41.597656 33.921875 L 41.597656 35.019531 C 41.597656 35.621094 42.089844 36.113281 42.691406 36.113281 C 43.296875 36.113281 43.789062 35.621094 43.789062 35.019531 L 43.789062 33.921875 L 44.335938 33.921875 C 45.542969 33.921875 46.53125 32.9375 46.53125 31.730469 L 46.53125 30.085938 C 46.53125 28.878906 45.542969 27.890625 44.335938 27.890625 L 41.597656 27.890625 L 41.597656 26.246094 L 45.433594 26.246094 C 46.035156 26.246094 46.53125 25.753906 46.53125 25.152344 C 46.53125 24.546875 46.035156 24.054688 45.433594 24.054688 L 44.335938 24.054688 L 44.335938 22.960938 C 44.335938 22.355469 43.84375 21.863281 43.242188 21.863281 C 42.636719 21.863281 42.144531 22.355469 42.144531 22.960938 L 42.144531 24.054688 L 41.597656 24.054688 C 40.390625 24.054688 39.402344 25.042969 39.402344 26.246094 L 39.402344 27.890625 C 39.402344 29.097656 40.390625 30.085938 41.597656 30.085938 L 44.335938 30.085938 L 44.335938 31.730469 Z M 40.5 31.730469 " fill-opacity="1" fill-rule="nonzero"/><path fill="#5271ff" d="M 28.988281 20.21875 C 29.589844 20.21875 30.085938 19.726562 30.085938 19.121094 C 30.085938 18.519531 29.589844 18.027344 28.988281 18.027344 L 27.890625 18.027344 L 27.890625 16.929688 C 27.890625 16.328125 27.398438 15.832031 26.796875 15.832031 C 26.191406 15.832031 25.699219 16.328125 25.699219 16.929688 L 25.699219 18.027344 L 25.152344 18.027344 C 23.945312 18.027344 22.957031 19.011719 22.957031 20.21875 L 22.957031 21.863281 C 22.957031 23.070312 23.945312 24.054688 25.152344 24.054688 L 27.890625 24.054688 L 27.890625 25.699219 L 24.054688 25.699219 C 23.453125 25.699219 22.957031 26.191406 22.957031 26.796875 C 22.957031 27.398438 23.453125 27.890625 24.054688 27.890625 L 25.152344 27.890625 L 25.152344 28.988281 C 25.152344 29.59375 25.644531 30.085938 26.246094 30.085938 C 26.851562 30.085938 27.34375 29.59375 27.34375 28.988281 L 27.34375 27.890625 L 27.890625 27.890625 C 28.660156 27.890625 29.371094 27.453125 29.753906 26.851562 C 29.867188 26.46875 29.976562 26.082031 30.085938 25.699219 L 30.085938 24.054688 C 30.085938 22.847656 29.097656 21.863281 27.890625 21.863281 L 25.152344 21.863281 L 25.152344 20.21875 Z M 28.988281 20.21875 " fill-opacity="1" fill-rule="nonzero"/><path fill="#5271ff" d="M 59.6875 15.832031 C 59.082031 15.832031 58.589844 16.328125 58.589844 16.929688 L 58.589844 18.027344 L 58.042969 18.027344 C 56.835938 18.027344 55.847656 19.011719 55.847656 20.21875 L 55.847656 21.863281 C 55.847656 23.070312 56.835938 24.054688 58.042969 24.054688 L 60.78125 24.054688 L 60.78125 25.699219 L 56.945312 25.699219 C 56.5625 25.699219 56.175781 25.917969 56.011719 26.246094 C 56.175781 26.742188 56.285156 27.234375 56.398438 27.726562 C 56.5625 27.835938 56.78125 27.890625 56.945312 27.890625 L 58.042969 27.890625 L 58.042969 28.988281 C 58.042969 29.59375 58.535156 30.085938 59.136719 30.085938 C 59.742188 30.085938 60.234375 29.59375 60.234375 28.988281 L 60.234375 27.890625 L 60.78125 27.890625 C 61.988281 27.890625 62.976562 26.90625 62.976562 25.699219 L 62.976562 24.054688 C 62.976562 22.847656 61.988281 21.863281 60.78125 21.863281 L 58.042969 21.863281 L 58.042969 20.21875 L 61.878906 20.21875 C 62.480469 20.21875 62.976562 19.726562 62.976562 19.121094 C 62.976562 18.519531 62.480469 18.027344 61.878906 18.027344 L 60.78125 18.027344 L 60.78125 16.929688 C 60.78125 16.328125 60.289062 15.832031 59.6875 15.832031 Z M 59.6875 15.832031 " fill-opacity="1" fill-rule="nonzero"/></svg>