<svg xmlns="http://www.w3.org/2000/svg" xmlns:xlink="http://www.w3.org/1999/xlink" width="98" zoomAndPan="magnify" viewBox="0 0 73.5 77.249999" height="103" preserveAspectRatio="xMidYMid meet" version="1.0"><defs><clipPath id="bb3f78462e"><path d="M 41.632812 73.507812 L 46.871094 73.507812 L 46.871094 75.035156 L 41.632812 75.035156 Z M 41.632812 73.507812 " clip-rule="nonzero"/></clipPath><clipPath id="6dc20143b3"><path d="M 52 72.460938 L 57.769531 72.460938 L 57.769531 75.035156 L 52 75.035156 Z M 52 72.460938 " clip-rule="nonzero"/></clipPath><clipPath id="4964c7ddd6"><path d="M 32.625 73.507812 L 38.492188 73.507812 L 38.492188 75.035156 L 32.625 75.035156 Z M 32.625 73.507812 " clip-rule="nonzero"/></clipPath><clipPath id="c85654ed9c"><path d="M 29.480469 73.507812 L 34.929688 73.507812 L 34.929688 75.035156 L 29.480469 75.035156 Z M 29.480469 73.507812 " clip-rule="nonzero"/></clipPath><clipPath id="968e035b64"><path d="M 60.074219 30.542969 L 72.238281 30.542969 L 72.238281 47.308594 L 60.074219 47.308594 Z M 60.074219 30.542969 " clip-rule="nonzero"/></clipPath><clipPath id="839d8d36e9"><path d="M 0.980469 9 L 16 9 L 16 22 L 0.980469 22 Z M 0.980469 9 " clip-rule="nonzero"/></clipPath></defs><path fill="#ccefe8" d="M 9.859375 8.226562 C 10.507812 2.550781 16.160156 2.285156 16.160156 2.285156 C 28.8125 1.640625 28.027344 9.898438 24.359375 14.839844 L 24.472656 19.007812 L 22.695312 16.671875 C 21.714844 17.542969 20.664062 18.148438 19.660156 18.339844 C 13.699219 19.484375 9.210938 13.902344 9.859375 8.226562 " fill-opacity="1" fill-rule="nonzero"/><path fill="#f29579" d="M 26.660156 11.644531 C 27.75 9.308594 43.828125 10.476562 44.085938 10.867188 C 45.019531 12.265625 44.707031 18.871094 43.621094 19.804688 C 43.054688 20.289062 38.765625 20.464844 34.613281 20.351562 L 33.195312 23.074219 L 32.6875 20.28125 C 29.601562 20.128906 26.957031 19.808594 26.503906 19.339844 C 25.371094 18.160156 25.570312 13.980469 26.660156 11.644531 " fill-opacity="1" fill-rule="nonzero"/><path fill="#f7bcaa" d="M 28.242188 59.304688 L 25.363281 74.507812 L 24.351562 74.589844 C 24.351562 74.589844 23.03125 63.453125 23.808594 59.0625 C 25.285156 58.410156 28.242188 59.304688 28.242188 59.304688 " fill-opacity="1" fill-rule="nonzero"/><path fill="#f7bcaa" d="M 25.054688 56.296875 C 25.054688 56.296875 25.054688 60.28125 25.128906 61.339844 C 24.742188 63.207031 20.347656 74.144531 20.347656 74.144531 L 19.53125 74.507812 C 19.53125 74.507812 19.0625 64.457031 20.695312 60.335938 C 22.5625 58.003906 25.054688 56.296875 25.054688 56.296875 " fill-opacity="1" fill-rule="nonzero"/><path fill="#3d3542" d="M 25.675781 72.84375 C 26.167969 73.898438 28.257812 74.042969 28.203125 74.714844 C 28.113281 74.964844 24.539062 74.8125 24.386719 74.730469 C 24.089844 74.5625 24.195312 73.046875 24.195312 73.046875 C 24.195312 73.046875 25.167969 73.371094 25.675781 72.84375 " fill-opacity="1" fill-rule="nonzero"/><path fill="#3d3542" d="M 20.8125 73.046875 C 20.8125 73.046875 22.304688 73.941406 23.339844 74.0625 C 24.378906 74.183594 23.761719 74.632812 23.304688 74.753906 C 22.84375 74.875 18.859375 74.816406 18.75 74.589844 C 18.546875 74.15625 19.546875 72.886719 19.546875 72.886719 L 20.8125 73.046875 " fill-opacity="1" fill-rule="nonzero"/><path fill="#42756d" d="M 20.695312 60.335938 C 19.296875 54.050781 19.417969 49.980469 20.289062 46.695312 C 21.066406 46.785156 21.789062 46.992188 22.449219 47.253906 C 22.402344 46.835938 22.378906 46.59375 22.378906 46.59375 L 28.5 45.882812 C 28.5 45.882812 30.757812 51.089844 28.214844 59.871094 C 26.136719 60.464844 23.609375 60.601562 20.695312 60.335938 " fill-opacity="1" fill-rule="nonzero"/><path fill="#943e38" d="M 45.652344 47.792969 C 49.34375 48.429688 51.320312 48.535156 55.132812 48.488281 C 54.957031 52.105469 55.0625 56.609375 54.054688 59.617188 C 54.648438 61.542969 55.089844 69.550781 53.761719 73.816406 C 53.613281 73.957031 52.878906 73.75 52.878906 73.75 C 52.878906 73.75 51.695312 62.921875 50.738281 60.789062 C 49.777344 58.652344 49.585938 52.773438 49.585938 52.773438 C 49.585938 52.773438 49.527344 55.078125 46.496094 60.917969 C 47.550781 63.226562 48.039062 66.296875 46.238281 74.09375 C 46.019531 74.164062 45.183594 74.070312 45.183594 74.070312 C 45.183594 74.070312 44.386719 64.394531 43.65625 60.789062 C 43.910156 58.085938 44.78125 51.902344 45.652344 47.792969 " fill-opacity="1" fill-rule="nonzero"/><path fill="#3d3542" d="M 53.902344 73.25 C 54.335938 74.140625 55.53125 74.269531 55.484375 74.828125 C 55.40625 75.042969 52.878906 74.96875 52.746094 74.898438 C 52.480469 74.757812 52.832031 73.429688 52.832031 73.429688 C 52.832031 73.429688 53.621094 73.847656 53.902344 73.25 " fill-opacity="1" fill-rule="nonzero"/><g clip-path="url(#bb3f78462e)"><path fill="#3d3542" d="M 46.347656 73.511719 C 46.347656 73.511719 46.925781 74.882812 46.695312 74.96875 C 46.46875 75.058594 42.066406 75.089844 41.753906 74.863281 C 41.21875 74.480469 43.445312 74.234375 43.773438 74.164062 C 44.101562 74.09375 45.125 73.582031 45.125 73.582031 C 45.125 73.582031 46.078125 73.8125 46.347656 73.511719 " fill-opacity="1" fill-rule="nonzero"/></g><path fill="#943e38" d="M 51.164062 52.851562 C 51.164062 52.851562 47.894531 59.914062 45.859375 61.019531 C 47.957031 53.621094 49.070312 50.058594 51.164062 52.851562 " fill-opacity="1" fill-rule="nonzero"/><path fill="#ffffff" d="M 20.613281 47.757812 C 20.613281 47.757812 21.546875 47.851562 22.890625 47.84375 C 23.574219 47.839844 24.367188 47.808594 25.199219 47.722656 C 25.863281 47.664062 26.550781 47.5625 27.226562 47.417969 C 27.296875 44.539062 27.222656 41.933594 27.089844 39.695312 C 26.996094 38.085938 26.871094 36.664062 26.738281 35.46875 L 26.738281 35.457031 C 26.527344 33.542969 26.308594 32.214844 26.207031 31.617188 C 26.140625 31.589844 26.078125 31.558594 26.003906 31.527344 C 25.511719 31.316406 24.921875 31.125 24.300781 31.046875 C 23.855469 30.984375 23.398438 30.980469 22.9375 31.0625 C 22.867188 31.074219 22.800781 31.089844 22.730469 31.101562 C 22.671875 31.121094 22.613281 31.136719 22.550781 31.152344 L 22.050781 35.441406 L 21.738281 38.117188 L 20.613281 47.757812 " fill-opacity="1" fill-rule="nonzero"/><path fill="#f29579" d="M 19.023438 49.957031 C 19.917969 50.921875 21.730469 50.890625 22.417969 49.632812 C 22.648438 49.207031 22.800781 48.601562 22.890625 47.84375 C 23.265625 44.695312 22.605469 39.058594 22.660156 34.351562 C 22.671875 33.410156 22.710938 32.5 22.792969 31.65625 C 22.796875 31.589844 22.804688 31.527344 22.8125 31.46875 C 22.800781 31.3125 22.773438 31.191406 22.730469 31.101562 C 22.671875 31.121094 22.613281 31.136719 22.550781 31.152344 C 21.941406 31.332031 21.351562 31.679688 20.8125 32.269531 C 20.808594 32.269531 20.808594 32.269531 20.808594 32.265625 C 20.796875 32.28125 20.789062 32.296875 20.777344 32.316406 C 20.210938 33.246094 19.601562 34.804688 19.371094 37.324219 C 19.273438 38.433594 19.25 39.726562 19.335938 41.234375 C 19.347656 41.398438 19.359375 41.570312 19.371094 41.738281 C 19.660156 45.738281 17.875 48.714844 19.023438 49.957031 " fill-opacity="1" fill-rule="nonzero"/><path fill="#f29579" d="M 25.199219 47.722656 C 25.265625 48.59375 25.386719 49.257812 25.570312 49.632812 C 26.300781 51.121094 29.332031 50.875 30.054688 49.746094 C 30.777344 48.617188 30.960938 47.007812 30.8125 45.199219 C 30.4375 40.460938 27.808594 34.34375 26.644531 31.832031 C 26.558594 31.789062 26.464844 31.738281 26.367188 31.691406 C 26.316406 31.667969 26.261719 31.644531 26.207031 31.617188 C 26.140625 31.589844 26.078125 31.558594 26.003906 31.527344 C 25.71875 34.34375 24.855469 43.460938 25.199219 47.722656 " fill-opacity="1" fill-rule="nonzero"/><path fill="#f29579" d="M 26.53125 38.972656 C 26.71875 39.207031 26.902344 39.449219 27.089844 39.695312 C 28.394531 41.414062 29.707031 43.414062 30.8125 45.199219 C 32.515625 47.941406 33.742188 50.195312 33.742188 50.195312 C 33.742188 50.195312 33.742188 50.195312 34.320312 49.808594 C 32.957031 38.851562 29.320312 34.078125 27.457031 32.308594 C 27.457031 32.3125 27.457031 32.316406 27.453125 32.320312 C 27.453125 32.320312 27.144531 32.09375 26.644531 31.832031 C 26.558594 31.789062 26.464844 31.738281 26.367188 31.691406 C 26.457031 32.3125 26.660156 33.863281 26.738281 35.457031 L 26.738281 35.46875 C 26.796875 36.777344 26.773438 38.109375 26.53125 38.972656 " fill-opacity="1" fill-rule="nonzero"/><path fill="#f29579" d="M 17.941406 38.359375 C 17.941406 38.359375 18.570312 42.089844 19.371094 41.738281 C 19.886719 41.511719 20.46875 37.003906 20.996094 37.316406 C 21.261719 37.472656 21.511719 37.726562 21.738281 38.117188 C 21.886719 38.367188 22.019531 38.671875 22.132812 39.039062 C 22.085938 37.558594 22.144531 36.230469 22.253906 35.082031 C 22.386719 33.628906 22.605469 32.464844 22.792969 31.65625 C 22.84375 31.429688 22.894531 31.230469 22.9375 31.0625 C 22.867188 31.074219 22.800781 31.089844 22.730469 31.101562 C 22.671875 31.121094 22.613281 31.136719 22.550781 31.152344 C 21.941406 31.332031 21.351562 31.679688 20.8125 32.273438 C 20.808594 32.269531 20.808594 32.269531 20.808594 32.265625 C 20.792969 32.242188 20.820312 32.296875 20.8125 32.273438 C 18.929688 34.652344 18 38.125 17.945312 38.347656 C 17.941406 38.355469 17.941406 38.359375 17.941406 38.359375 " fill-opacity="1" fill-rule="nonzero"/><path fill="#f7bcaa" d="M 25.816406 27.828125 C 26.820312 28.207031 27.285156 31.964844 26.039062 32.40625 C 23.789062 33.195312 22.421875 30.160156 22.421875 30.160156 C 22.421875 30.160156 21.578125 26.238281 25.816406 27.828125 " fill-opacity="1" fill-rule="nonzero"/><path fill="#ed6a66" d="M 22.953125 26.3125 C 22.953125 25.972656 23.34375 25.535156 24.238281 25.484375 C 25.125 25.4375 25.375 26.160156 25.390625 26.460938 C 26.40625 26.402344 26.761719 26.894531 27.023438 27.230469 C 27.289062 27.570312 27.605469 28.714844 26.707031 29.128906 C 26.707031 29.128906 26.6875 29.132812 26.65625 29.144531 C 26.554688 29.179688 26.453125 29.203125 26.355469 29.210938 C 26.335938 29.210938 26.316406 29.214844 26.292969 29.21875 C 25.75 29.28125 24.757812 29.207031 23.871094 28.136719 C 24.414062 30.171875 23.78125 34.070312 23.167969 33.929688 C 21.835938 33.625 20.789062 32.539062 20.566406 31.777344 C 19.933594 29.625 20.980469 25.691406 22.953125 26.3125 " fill-opacity="1" fill-rule="nonzero"/><path fill="#f7bcaa" d="M 55.566406 72.757812 L 55.117188 70.875 L 56.800781 70.5625 L 57.019531 72.558594 L 55.566406 72.757812 " fill-opacity="1" fill-rule="nonzero"/><path fill="#f7bcaa" d="M 63.851562 72.714844 L 63.542969 70.109375 L 65.457031 69.867188 L 65.316406 72.628906 L 63.851562 72.714844 " fill-opacity="1" fill-rule="nonzero"/><g clip-path="url(#6dc20143b3)"><path fill="#3d3542" d="M 57.53125 74.96875 C 57.53125 74.96875 52.023438 75.1875 52.023438 74.628906 C 52.023438 74.203125 54.910156 73.46875 55.101562 73.28125 C 55.765625 72.640625 55.566406 72.757812 55.566406 72.757812 L 57.019531 72.558594 C 57.019531 72.558594 57.957031 74.320312 57.53125 74.96875 " fill-opacity="1" fill-rule="nonzero"/></g><path fill="#3d3542" d="M 65.664062 74.808594 C 65.664062 74.808594 60.269531 75.164062 60.175781 74.660156 C 60.097656 74.238281 63.148438 73.375 63.355469 73.199219 C 64.054688 72.613281 63.851562 72.714844 63.851562 72.714844 L 65.316406 72.628906 C 65.316406 72.628906 66.136719 74.195312 65.664062 74.808594 " fill-opacity="1" fill-rule="nonzero"/><path fill="#f29579" d="M 55.199219 52.667969 C 55.199219 52.667969 53.496094 57.460938 53.433594 60.984375 C 53.332031 66.515625 54.390625 70.574219 54.597656 71.425781 C 55.152344 71.769531 57.578125 71.289062 57.578125 71.289062 C 57.578125 71.289062 57.203125 66.480469 57.90625 62.089844 C 58.484375 58.449219 60.128906 55.992188 60.457031 56.058594 C 61.382812 56.238281 61.601562 65.25 62.238281 70.914062 C 62.585938 71.183594 65.433594 70.953125 65.433594 70.953125 C 65.433594 70.953125 66.167969 55.546875 65.410156 50.089844 C 64.441406 47.730469 62.4375 47.589844 62.4375 47.589844 L 56.585938 48.28125 L 55.199219 52.667969 " fill-opacity="1" fill-rule="nonzero"/><path fill="#8eaca6" d="M 44.460938 51.753906 C 41.476562 42.242188 44.277344 36.472656 44.921875 35.085938 L 44.921875 35.082031 L 44.925781 35.078125 C 45.605469 33.625 46.230469 33.320312 46.230469 33.320312 L 46.230469 33.328125 C 46.230469 33.328125 46.230469 33.324219 46.230469 33.324219 C 46.289062 33.28125 46.347656 33.246094 46.40625 33.210938 C 46.859375 32.917969 47.347656 32.675781 47.863281 32.472656 C 48.238281 32.324219 48.640625 32.195312 49.046875 32.105469 C 49.953125 31.894531 50.25 31.855469 50.25 31.855469 C 50.25 31.855469 50.453125 31.855469 50.800781 31.882812 C 50.859375 31.886719 50.921875 31.894531 50.988281 31.902344 C 50.992188 31.898438 51 31.902344 51.007812 31.898438 C 51.53125 31.976562 52.210938 32.183594 52.585938 32.347656 C 53.066406 32.558594 53.617188 32.851562 54.183594 33.261719 C 54.359375 33.382812 54.53125 33.519531 54.707031 33.664062 C 54.710938 33.667969 54.71875 33.671875 54.722656 33.675781 C 56.703125 35.34375 59.273438 38.84375 59.53125 44.75 C 59.574219 45.730469 55.976562 49.796875 55.679688 51.308594 C 51.511719 52.402344 48.773438 51.246094 47.183594 50.179688 C 47.121094 51.09375 44.878906 53.089844 44.460938 51.753906 " fill-opacity="1" fill-rule="nonzero"/><path fill="#f7bcaa" d="M 50.378906 32.613281 C 50.378906 32.613281 51.804688 32.492188 51.726562 33.390625 C 51.644531 34.289062 50.769531 35.316406 49.820312 35.417969 C 48.867188 35.519531 48.011719 33.804688 48.167969 33.261719 C 48.324219 32.714844 50.378906 32.613281 50.378906 32.613281 " fill-opacity="1" fill-rule="nonzero"/><path fill="#f7bcaa" d="M 50.367188 30.703125 C 50.367188 30.703125 50.964844 25.421875 48.441406 26.132812 C 45.921875 26.84375 45.332031 28.820312 46.078125 30.363281 C 46.820312 31.90625 48.96875 31.289062 48.96875 31.289062 L 50.367188 30.703125 " fill-opacity="1" fill-rule="nonzero"/><path fill="#42756d" d="M 50.367188 30.703125 C 50.367188 30.703125 52.921875 30.003906 51.347656 28.5625 C 51.773438 27.347656 52.503906 25.882812 50.90625 25.714844 C 50.308594 24.785156 48.472656 22.875 47.824219 24.414062 C 46.863281 24.296875 45.023438 22.707031 45.105469 24.617188 C 45.1875 26.523438 44.792969 27.96875 45.917969 28.160156 C 47.269531 28.101562 49.929688 28.835938 50.367188 30.703125 " fill-opacity="1" fill-rule="nonzero"/><path fill="#f3bbaa" d="M 48.09375 28.78125 C 48.09375 28.78125 49.84375 26.914062 49.1875 29.210938 C 48.640625 29.476562 48.09375 28.78125 48.09375 28.78125 " fill-opacity="1" fill-rule="nonzero"/><path fill="#f3bbaa" d="M 50.367188 30.703125 C 50.367188 30.703125 50.789062 33.011719 50.765625 33.492188 C 50.773438 33.707031 48.304688 34.296875 48 31.359375 C 48.457031 30.816406 50.367188 30.703125 50.367188 30.703125 " fill-opacity="1" fill-rule="nonzero"/><path fill="#f3bbaa" d="M 39.992188 39.789062 C 39.992188 39.789062 41.089844 42.136719 41.265625 43.289062 C 42.109375 41.292969 43.761719 40.46875 44.757812 39.027344 C 44.878906 38.851562 45.613281 38.214844 45.941406 38.179688 C 46.289062 38.144531 46.234375 38.714844 46.589844 38.675781 C 47.371094 38.59375 49.089844 37.710938 49.019531 38.109375 C 48.636719 40.285156 45.523438 39.742188 45.523438 39.742188 C 45.523438 39.742188 43.023438 47.535156 40.824219 47.460938 C 38.625 47.378906 36.921875 43.644531 36.921875 43.644531 L 39.992188 39.789062 " fill-opacity="1" fill-rule="nonzero"/><path fill="#3d3542" d="M 34.253906 73.65625 L 33.351562 73.65625 C 32.648438 71.929688 30.511719 65.734375 33.140625 62.726562 C 32.988281 62.027344 28.722656 51.609375 30.160156 48.691406 C 31.59375 45.773438 35.261719 42.652344 37.746094 47.792969 C 37.746094 47.792969 38.832031 53.636719 35.480469 63.804688 C 34.910156 64.804688 33.964844 73.101562 34.253906 73.65625 " fill-opacity="1" fill-rule="nonzero"/><path fill="#3d3542" d="M 31.195312 73.746094 C 31.195312 73.746094 31.191406 73.742188 31.195312 73.746094 L 30.125 73.722656 C 29.730469 72.105469 28.074219 65.320312 31.199219 62.625 C 31.148438 61.914062 28.390625 50.996094 30.222656 48.3125 C 32.054688 45.625 36.125 43.050781 37.859375 48.488281 C 37.859375 48.488281 38.113281 54.429688 33.363281 64.023438 C 32.648438 64.949219 30.757812 72.628906 31.195312 73.746094 " fill-opacity="1" fill-rule="nonzero"/><path fill="#ccefe8" d="M 39.007812 51.390625 C 38.949219 51.585938 38.726562 51.851562 38.378906 52.128906 C 38.046875 52.390625 37.605469 52.660156 37.074219 52.890625 C 36.511719 53.136719 35.851562 53.335938 35.125 53.421875 C 33.449219 53.636719 31.429688 53.277344 29.457031 51.609375 C 29.421875 51.488281 29.386719 51.363281 29.351562 51.230469 C 29.273438 50.898438 29.203125 50.539062 29.136719 50.152344 C 28.925781 48.855469 28.828125 47.273438 28.859375 45.597656 C 28.914062 42.574219 29.351562 39.242188 30.417969 36.824219 C 33.125 34.269531 35.574219 33.027344 36.246094 33.089844 C 37.667969 33.222656 39.019531 34.976562 39.550781 37.035156 C 39.554688 37.035156 39.554688 37.035156 39.550781 37.039062 C 39.773438 37.882812 39.914062 38.816406 39.992188 39.789062 C 40.003906 39.957031 40.019531 40.128906 40.023438 40.300781 C 40.3125 45.199219 39.175781 50.867188 39.007812 51.390625 " fill-opacity="1" fill-rule="nonzero"/><path fill="#f3bbaa" d="M 36.058594 40.390625 C 36.058594 40.390625 39.375 37.941406 38.875 39.496094 C 38.378906 41.058594 38.121094 41.601562 36.597656 41.289062 C 35.652344 41.09375 36.058594 40.390625 36.058594 40.390625 " fill-opacity="1" fill-rule="nonzero"/><path fill="#f3bbaa" d="M 36.597656 41.257812 C 34.042969 46.242188 27.484375 46.476562 26.375 44.371094 C 25.160156 42.070312 27.988281 38.898438 30.617188 36.648438 C 30.894531 37.484375 31.632812 39.429688 33.628906 40.34375 C 32.777344 41.0625 31.765625 41.769531 30.578125 42.421875 C 32.589844 42.753906 36.160156 40.320312 36.160156 40.320312 C 36.160156 40.320312 36.644531 41.207031 36.597656 41.257812 " fill-opacity="1" fill-rule="nonzero"/><g clip-path="url(#4964c7ddd6)"><path fill="#e95955" d="M 33.316406 73.554688 C 33.316406 73.554688 32.523438 74.753906 32.707031 74.835938 C 32.890625 74.917969 38.097656 75.140625 38.347656 74.929688 C 38.78125 74.566406 35.578125 74.007812 35.3125 73.941406 C 35.046875 73.875 34.253906 73.65625 34.253906 73.65625 C 34.253906 73.65625 33.867188 73.621094 33.316406 73.554688 " fill-opacity="1" fill-rule="nonzero"/></g><g clip-path="url(#c85654ed9c)"><path fill="#e95955" d="M 30.125 73.722656 C 30.125 73.722656 29.464844 74.84375 29.648438 74.925781 C 29.832031 75.007812 34.613281 75.078125 34.863281 74.867188 C 35.296875 74.5 32.699219 74.230469 32.4375 74.164062 C 32.167969 74.097656 31.195312 73.746094 31.195312 73.746094 C 31.195312 73.746094 30.800781 73.695312 30.125 73.722656 " fill-opacity="1" fill-rule="nonzero"/></g><path fill="#f3bbaa" d="M 34.988281 29.90625 C 34.988281 29.90625 35.183594 31.335938 36.035156 31.859375 C 36.886719 32.382812 36.160156 32.980469 36.199219 33.425781 C 36.234375 33.8125 36.507812 35.105469 37.386719 34.582031 C 38.269531 34.0625 38.050781 32.386719 38.382812 32.75 C 38.480469 32.855469 39.171875 33.226562 39.480469 33.207031 C 39.875 33.183594 40.929688 31.960938 40.984375 31.664062 C 41.054688 31.285156 40.683594 30.410156 40.269531 29.980469 C 39.855469 29.546875 34.988281 29.683594 34.988281 29.90625 " fill-opacity="1" fill-rule="nonzero"/><path fill="#f3bbaa" d="M 40.269531 29.980469 C 40.269531 29.980469 40.765625 29.167969 40.746094 28.953125 C 40.746094 28.953125 34.367188 24.660156 34.988281 29.90625 C 36.347656 30.527344 40.269531 29.980469 40.269531 29.980469 " fill-opacity="1" fill-rule="nonzero"/><path fill="#3d3542" d="M 35.722656 31.554688 C 35.722656 31.554688 33.433594 30.492188 34.386719 28 C 34.59375 27.453125 36.402344 26.714844 37.910156 26.355469 C 38.8125 26.136719 38.804688 25.136719 39.886719 26.238281 C 41.15625 27.53125 40.746094 28.953125 40.746094 28.953125 L 38.875 28.621094 C 38.875 28.621094 37.554688 30.160156 35.722656 31.554688 " fill-opacity="1" fill-rule="nonzero"/><path fill="#f3bbaa" d="M 38.03125 29.648438 C 38.03125 29.648438 36.53125 28.660156 37.1875 30.457031 C 37.886719 30.457031 38.03125 29.648438 38.03125 29.648438 " fill-opacity="1" fill-rule="nonzero"/><g clip-path="url(#968e035b64)"><path fill="#ed6a66" d="M 61.785156 31.207031 C 61.785156 31.207031 63.023438 31.398438 63.78125 32.152344 C 64.546875 32.902344 64.15625 33.378906 64.417969 33.828125 C 64.679688 34.277344 66.089844 33.683594 66.964844 34.484375 C 67.835938 35.28125 67.148438 36.359375 67.789062 37.132812 C 68.429688 37.90625 69.945312 37.238281 70.949219 38.625 C 75.363281 44.722656 67.261719 48.890625 64.417969 46.691406 C 62.332031 45.082031 59.558594 33.625 60.332031 31.574219 C 61.105469 29.523438 61.785156 31.207031 61.785156 31.207031 " fill-opacity="1" fill-rule="nonzero"/></g><path fill="#4a7eff" d="M 63.171875 54.890625 C 61.878906 51.589844 61.710938 49.15625 61.710938 49.15625 L 64.695312 49.15625 C 64.695312 49.15625 64.859375 52.199219 64.898438 54.890625 L 63.171875 54.890625 " fill-opacity="1" fill-rule="nonzero"/><path fill="#f37d59" d="M 54.265625 54.890625 C 54.191406 52.660156 54.214844 50.800781 54.210938 49.488281 L 55.109375 49.394531 L 62.128906 48.617188 C 62.128906 48.617188 63.328125 51.519531 64.488281 54.171875 C 64.546875 54.402344 64.601562 54.640625 64.652344 54.890625 L 54.265625 54.890625 " fill-opacity="1" fill-rule="nonzero"/><path fill="#42756d" d="M 65.871094 57.300781 C 65.046875 58.667969 54.519531 57.621094 54.152344 56.414062 C 53.886719 54.371094 53.339844 48.054688 53.535156 46.089844 C 54.503906 36.261719 57.027344 35.917969 57.027344 35.917969 C 57.027344 35.917969 57.957031 35.984375 58.035156 35.710938 C 68.46875 35.125 66.664062 49.742188 66.664062 49.742188 C 66.664062 49.742188 66.527344 55.234375 65.871094 57.300781 " fill-opacity="1" fill-rule="nonzero"/><path fill="#f7bcaa" d="M 58.511719 44.199219 C 60.03125 43.753906 62.273438 47.105469 65.449219 45.515625 C 65.078125 45.109375 64.664062 44.574219 64.25 43.976562 C 64.457031 43.90625 64.664062 43.832031 64.878906 43.765625 C 65.941406 43.429688 66.941406 43.5 67.992188 43.5625 C 68.023438 43.707031 68.058594 43.847656 68.085938 43.996094 C 69.300781 49.742188 66.015625 51.667969 59.960938 46.375 C 59.960938 46.375 59.386719 46.121094 58.039062 46.238281 C 55.933594 46.691406 55.035156 45.210938 58.511719 44.199219 " fill-opacity="1" fill-rule="nonzero"/><path fill="#42756d" d="M 62.550781 35.851562 C 62.550781 35.851562 66.777344 37.25 68.085938 43.996094 C 67.59375 43.945312 65.921875 44.476562 65.09375 45.085938 C 62.882812 43.925781 58.726562 39.179688 59.527344 37.796875 C 60.332031 36.414062 60.390625 34.308594 62.550781 35.851562 " fill-opacity="1" fill-rule="nonzero"/><path fill="#ffffff" d="M 60.867188 34.140625 C 60.867188 34.140625 63.230469 34.433594 62.964844 36.007812 C 62.699219 37.578125 59.75 37.777344 59.003906 37.691406 C 58.257812 37.605469 57.101562 37.289062 56.734375 36.503906 C 56.296875 35.558594 57.371094 33.578125 60.867188 34.140625 " fill-opacity="1" fill-rule="nonzero"/><path fill="#f3bbaa" d="M 58.507812 32.304688 C 58.507812 32.304688 57.699219 35.414062 59.621094 35.734375 C 60.390625 35.863281 60.71875 35.3125 60.789062 35.019531 C 60.984375 34.1875 60.285156 33.277344 60.582031 31.980469 C 59.566406 32.0625 58.507812 32.304688 58.507812 32.304688 " fill-opacity="1" fill-rule="nonzero"/><path fill="#f7bcaa" d="M 60.703125 31.621094 C 60.640625 31.882812 60.558594 32.390625 60.511719 32.640625 C 60.285156 33.816406 59.230469 33.828125 57.921875 33.765625 C 55.25 33.636719 55.710938 28.625 59.039062 28.71875 C 60.171875 28.75 61.03125 30.175781 60.703125 31.621094 " fill-opacity="1" fill-rule="nonzero"/><path fill="#ed6a66" d="M 56.253906 31.101562 C 54.234375 28.15625 58.757812 26.453125 59.597656 28.136719 C 63.121094 28.175781 63.511719 31.945312 60.511719 32.640625 C 60.941406 30.140625 59.488281 30.363281 59.453125 29.339844 C 58.734375 31.039062 56.398438 31.316406 56.253906 31.101562 " fill-opacity="1" fill-rule="nonzero"/><path fill="#f7bcaa" d="M 60.246094 31.609375 C 60.480469 31.746094 60.8125 31.609375 60.992188 31.300781 C 61.171875 30.996094 61.128906 30.636719 60.894531 30.503906 C 60.660156 30.367188 60.328125 30.503906 60.148438 30.808594 C 59.96875 31.113281 60.015625 31.472656 60.246094 31.609375 " fill-opacity="1" fill-rule="nonzero"/><path fill="#ffffff" d="M 17.703125 36.945312 C 17.703125 36.945312 19.132812 39.796875 19.246094 40.683594 C 19.371094 41.703125 21.539062 47.410156 20.085938 50.945312 L 19.246094 50.890625 C 19.246094 50.890625 18.292969 48.1875 17.902344 45.613281 C 17.351562 42.003906 17.441406 37.734375 17.703125 36.945312 " fill-opacity="1" fill-rule="nonzero"/><path fill="#87806e" d="M 14.515625 73.183594 L 13.460938 73.183594 C 12.640625 71.097656 10.144531 64.222656 13.210938 60.589844 C 13.035156 59.746094 8.058594 47.144531 9.734375 43.617188 C 11.410156 40.089844 16.398438 43.570312 19.300781 49.789062 C 19.300781 49.789062 19.859375 49.597656 15.945312 61.894531 C 15.28125 63.101562 14.179688 72.515625 14.515625 73.183594 " fill-opacity="1" fill-rule="nonzero"/><path fill="#87806e" d="M 18.585938 49.25 L 11.023438 49.25 C 11.019531 49.253906 11.015625 49.257812 11.011719 49.265625 C 9.207031 51.59375 10.265625 59.582031 10.242188 60.445312 C 6.292969 63.332031 7.480469 71.066406 7.75 73.058594 L 8.988281 73.207031 C 8.609375 71.816406 11.652344 63.40625 12.59375 62.375 C 15.886719 56.921875 17.644531 52.414062 18.585938 49.25 " fill-opacity="1" fill-rule="nonzero"/><path fill="#39655e" d="M 13.421875 73.0625 C 13.421875 73.0625 12.496094 74.511719 12.707031 74.613281 C 12.921875 74.710938 17.832031 74.816406 18.125 74.558594 C 18.628906 74.117188 15.777344 73.765625 15.464844 73.6875 C 15.15625 73.605469 14.515625 73.183594 14.515625 73.183594 C 14.515625 73.183594 14.0625 73.144531 13.421875 73.0625 " fill-opacity="1" fill-rule="nonzero"/><path fill="#39655e" d="M 7.75 73.058594 C 7.75 73.058594 6.847656 74.332031 7.050781 74.453125 C 7.253906 74.574219 11.386719 75.011719 11.699219 74.785156 C 12.246094 74.394531 10.1875 73.910156 9.882812 73.800781 C 9.582031 73.6875 8.988281 73.207031 8.988281 73.207031 C 8.988281 73.207031 8.539062 73.101562 7.75 73.058594 " fill-opacity="1" fill-rule="nonzero"/><path fill="#8eaca6" d="M 9.410156 50.25 C 11.285156 52.855469 19.261719 51.804688 19.261719 51.652344 C 19.347656 50.890625 19.417969 50.148438 19.464844 49.417969 C 19.746094 45.382812 19.453125 41.910156 18.976562 39.144531 C 18.886719 38.605469 18.789062 38.097656 18.683594 37.609375 C 16.613281 35.003906 15.03125 32.652344 14.78125 31.480469 C 14.707031 31.503906 14.636719 31.539062 14.5625 31.574219 C 14.285156 31.707031 13.992188 31.917969 13.644531 32.164062 C 8.664062 35.699219 7.992188 48.28125 9.410156 50.25 " fill-opacity="1" fill-rule="nonzero"/><path fill="#ffffff" d="M 12.824219 33.722656 C 13.773438 32.976562 15.589844 33.941406 16.015625 36.589844 C 16.441406 39.234375 16.558594 43.929688 16.558594 43.929688 C 17.828125 45.53125 18.773438 47.65625 19.582031 50.019531 L 18.992188 50.648438 C 18.992188 50.648438 13.90625 46.121094 13.25 44.636719 C 12.171875 42.210938 9.628906 36.21875 12.824219 33.722656 " fill-opacity="1" fill-rule="nonzero"/><path fill="#ffffff" d="M 16.414062 40.433594 C 16.25 39.511719 16.132812 37.3125 16.015625 36.589844 C 15.589844 33.941406 13.773438 32.976562 12.824219 33.722656 C 10.691406 35.390625 11.21875 38.894531 12.058594 41.574219 C 13.847656 41.402344 15.628906 40.957031 16.414062 40.433594 " fill-opacity="1" fill-rule="nonzero"/><path fill="#f7bcaa" d="M 19.402344 49.492188 C 19.402344 49.492188 20.960938 49.816406 20.304688 51.605469 C 19.304688 54.316406 18.660156 51.445312 18.769531 50.453125 C 19.390625 50.039062 19.402344 49.492188 19.402344 49.492188 " fill-opacity="1" fill-rule="nonzero"/><path fill="#ffffff" d="M 14.78125 31.480469 C 15.03125 32.652344 16.613281 35.003906 18.683594 37.609375 C 18.683594 37.609375 18.683594 37.609375 18.683594 37.605469 C 17.90625 33.953125 16.898438 31.890625 16.898438 31.890625 C 16.898438 31.890625 16.136719 30.976562 14.78125 31.480469 " fill-opacity="1" fill-rule="nonzero"/><path fill="#f7bcaa" d="M 13.496094 28.007812 C 13.496094 28.007812 13.898438 29.488281 14.839844 29.917969 C 15.78125 30.351562 15.128906 31.085938 15.234375 31.546875 C 15.328125 31.949219 16.679688 32.90625 16.980469 32.628906 C 17.765625 31.914062 16.964844 30.195312 17.355469 30.527344 C 17.472656 30.628906 18.226562 30.921875 18.539062 30.855469 C 18.9375 30.777344 19.554688 29.167969 19.570312 28.851562 C 19.585938 28.445312 19.359375 27.746094 18.875 27.347656 C 18.394531 26.953125 13.460938 27.777344 13.496094 28.007812 " fill-opacity="1" fill-rule="nonzero"/><path fill="#f3bbaa" d="M 18.875 27.347656 C 18.875 27.347656 19.402344 26.402344 19.210938 26.199219 C 18.757812 25.71875 12.101562 22.570312 13.496094 28.007812 C 14.964844 28.476562 18.875 27.347656 18.875 27.347656 " fill-opacity="1" fill-rule="nonzero"/><path fill="#3d3542" d="M 14.480469 29.644531 C 14.480469 29.644531 11.980469 27.785156 12.589844 25.023438 C 12.804688 24.058594 17.8125 24.183594 18.621094 24.621094 C 20.175781 25.460938 19.882812 25.941406 19.160156 26.351562 C 18.46875 26.746094 17.261719 26.113281 17.261719 26.113281 C 17.261719 26.113281 16.140625 27.921875 14.480469 29.644531 " fill-opacity="1" fill-rule="nonzero"/><path fill="#f3bbaa" d="M 16.550781 27.3125 C 16.550781 27.3125 14.878906 26.480469 15.8125 28.28125 C 16.519531 28.183594 16.550781 27.3125 16.550781 27.3125 " fill-opacity="1" fill-rule="nonzero"/><path fill="#8eaca6" d="M 14.78125 31.480469 C 15.03125 32.652344 16.613281 35.003906 18.683594 37.609375 C 18.789062 38.097656 18.886719 38.605469 18.976562 39.144531 C 16.378906 36.847656 14.769531 33.285156 14.253906 31.746094 L 14.78125 31.480469 " fill-opacity="1" fill-rule="nonzero"/><path fill="#bab098" d="M 49.648438 17.191406 C 49.191406 17.503906 49.648438 18.707031 50.5 18.328125 C 51.355469 17.949219 50.878906 16.335938 49.648438 17.191406 " fill-opacity="1" fill-rule="nonzero"/><path fill="#bab098" d="M 50.125 14.925781 C 49.617188 15.371094 49.492188 16.195312 50.65625 16.511719 C 51.820312 16.832031 52.242188 15.453125 51.925781 14.925781 C 51.609375 14.394531 50.972656 14.183594 50.125 14.925781 " fill-opacity="1" fill-rule="nonzero"/><path fill="#bab098" d="M 52.648438 2.394531 C 49.675781 2.472656 43.949219 5.210938 45.390625 9.320312 C 46.832031 13.429688 56.71875 16.320312 59.3125 13.882812 C 61.90625 11.441406 61.289062 2.160156 52.648438 2.394531 " fill-opacity="1" fill-rule="nonzero"/><g clip-path="url(#839d8d36e9)"><path fill="#f7bcaa" d="M 12.808594 12.464844 C 12.375 12.464844 11.96875 12.578125 11.613281 12.769531 C 11.714844 12.546875 11.769531 12.304688 11.769531 12.050781 C 11.769531 10.90625 10.65625 9.976562 9.28125 9.976562 C 8.207031 9.976562 7.296875 10.542969 6.945312 11.335938 C 6.527344 11.070312 6.007812 10.910156 5.441406 10.910156 C 4.066406 10.910156 2.953125 11.839844 2.953125 12.984375 C 2.953125 13.25 3.015625 13.5 3.121094 13.734375 C 1.914062 13.875 0.980469 14.738281 0.980469 15.785156 C 0.980469 16.933594 2.097656 17.859375 3.472656 17.859375 C 3.664062 17.859375 3.851562 17.839844 4.03125 17.804688 C 4.234375 18.78125 5.253906 19.519531 6.480469 19.519531 C 6.921875 19.519531 7.335938 19.421875 7.699219 19.253906 C 8.304688 20.136719 9.210938 21.3125 10.007812 21.804688 C 9.949219 21.507812 9.855469 20.234375 9.785156 19.195312 C 9.859375 19.199219 9.929688 19.210938 10.007812 19.210938 C 11.265625 19.210938 12.300781 18.429688 12.46875 17.421875 C 12.578125 17.4375 12.691406 17.445312 12.808594 17.445312 C 14.183594 17.445312 15.296875 16.332031 15.296875 14.957031 C 15.296875 13.582031 14.183594 12.464844 12.808594 12.464844 " fill-opacity="1" fill-rule="nonzero"/></g><path fill="#ccefe8" d="M 59.914062 8.339844 C 61.089844 7.445312 70.90625 8.984375 71.601562 10.234375 C 72.300781 11.496094 69.480469 21.332031 68.230469 22.027344 C 67.789062 22.269531 66.992188 22.277344 66.035156 22.140625 C 65.59375 22.984375 64.921875 24.167969 64.527344 24.386719 C 64.507812 23.867188 64.390625 22.707031 64.390625 21.800781 C 61.628906 21.101562 58.464844 19.726562 58.140625 19.140625 C 57.265625 17.570312 58.90625 9.101562 59.914062 8.339844 " fill-opacity="1" fill-rule="nonzero"/></svg>