<svg xmlns="http://www.w3.org/2000/svg" xmlns:xlink="http://www.w3.org/1999/xlink" width="218" zoomAndPan="magnify" viewBox="0 0 163.5 30.000001" height="40" preserveAspectRatio="xMidYMid meet" version="1.0"><defs><g/><clipPath id="278e8ba07d"><path d="M 26.765625 0.636719 L 33.660156 0.636719 L 33.660156 3.210938 L 26.765625 3.210938 Z M 26.765625 0.636719 " clip-rule="nonzero"/></clipPath><clipPath id="ab7013b9cc"><path d="M 26.777344 1.816406 C 27.429688 0.875 28.605469 0.4375 29.714844 0.726562 L 33.234375 1.648438 C 33.707031 1.773438 33.777344 2.417969 33.335938 2.640625 L 32.5625 3.027344 C 32.242188 3.191406 31.867188 3.226562 31.515625 3.132812 Z M 26.777344 1.816406 " clip-rule="nonzero"/></clipPath><clipPath id="75ae469e35"><path d="M 35.578125 10.875 L 43.625 10.875 L 43.625 22.203125 L 35.578125 22.203125 Z M 35.578125 10.875 " clip-rule="nonzero"/></clipPath><clipPath id="3508f06c0c"><path d="M 36.378906 11.222656 C 37.097656 10.875 37.757812 10.789062 38.273438 11.09375 C 38.992188 11.515625 39.570312 12.15625 39.933594 12.917969 L 43.390625 20.195312 C 43.644531 20.734375 43.628906 21.367188 43.34375 21.890625 C 43.152344 22.246094 42.640625 22.242188 42.453125 21.882812 L 38.890625 14.96875 C 38.3125 13.847656 37.3125 12.988281 36.117188 12.578125 L 36.027344 12.546875 C 35.527344 12.375 35.476562 11.6875 35.945312 11.445312 Z M 36.378906 11.222656 " clip-rule="nonzero"/></clipPath><clipPath id="5d239a60db"><path d="M 22.933594 6.496094 L 46.742188 6.496094 L 46.742188 16.621094 L 22.933594 16.621094 Z M 22.933594 6.496094 " clip-rule="nonzero"/></clipPath><clipPath id="c289c6ae52"><path d="M 23.121094 7.109375 C 23.464844 6.613281 24.097656 6.398438 24.671875 6.585938 L 31.628906 8.832031 C 31.972656 8.945312 32.347656 8.917969 32.675781 8.761719 L 36.769531 6.792969 C 37.097656 6.636719 37.472656 6.605469 37.820312 6.707031 L 38.761719 6.980469 C 40.332031 7.441406 41.617188 8.597656 42.234375 10.109375 L 42.855469 11.628906 C 42.984375 11.941406 43.296875 12.140625 43.632812 12.121094 L 45.414062 12.039062 C 45.746094 12.023438 46.050781 12.226562 46.160156 12.542969 L 46.46875 13.429688 C 46.835938 14.472656 46.742188 15.628906 46.214844 16.601562 L 45.253906 14.085938 C 45.132812 13.769531 44.824219 13.566406 44.488281 13.578125 L 42.503906 13.644531 C 42.164062 13.65625 41.851562 13.457031 41.710938 13.148438 L 40.9375 11.394531 C 40.429688 10.253906 39.445312 9.378906 38.25 9.007812 L 37.308594 8.71875 L 32.535156 10.945312 C 32.210938 11.097656 31.832031 11.117188 31.492188 11 L 23.507812 8.28125 C 23.023438 8.113281 22.832031 7.53125 23.121094 7.113281 " clip-rule="nonzero"/></clipPath><clipPath id="53bbc6ce89"><path d="M 25.121094 2.664062 L 45.15625 2.664062 L 45.15625 10.820312 L 25.121094 10.820312 Z M 25.121094 2.664062 " clip-rule="nonzero"/></clipPath><clipPath id="a5b28c4cf7"><path d="M 45.082031 9.445312 C 45.332031 10.160156 44.839844 11.054688 44.171875 10.699219 C 44.007812 10.613281 43.875 10.46875 43.804688 10.285156 L 42.914062 7.941406 C 42.472656 6.785156 41.5 5.902344 40.304688 5.570312 L 37.613281 4.820312 C 37.261719 4.726562 36.886719 4.757812 36.558594 4.910156 L 32.484375 6.835938 C 32.15625 6.988281 31.78125 7.015625 31.433594 6.910156 L 25.636719 5.125 C 25.171875 4.980469 24.976562 4.425781 25.253906 4.019531 C 25.589844 3.535156 26.199219 3.320312 26.761719 3.484375 L 31.34375 4.820312 C 31.691406 4.921875 32.066406 4.890625 32.390625 4.730469 L 36.316406 2.835938 C 36.644531 2.675781 37.019531 2.640625 37.371094 2.730469 L 40.777344 3.625 C 42.339844 4.035156 43.609375 5.203125 44.140625 6.730469 Z M 45.082031 9.445312 " clip-rule="nonzero"/></clipPath><clipPath id="d26d47e574"><path d="M 42.472656 14.871094 L 45.265625 14.871094 L 45.265625 19.085938 L 42.472656 19.085938 Z M 42.472656 14.871094 " clip-rule="nonzero"/></clipPath><clipPath id="62daa41643"><path d="M 43.609375 14.878906 C 43.945312 14.859375 44.257812 15.0625 44.386719 15.375 L 45.109375 17.140625 C 45.328125 17.679688 45.292969 18.292969 45.015625 18.808594 C 44.835938 19.140625 44.355469 19.121094 44.203125 18.773438 L 42.5 14.929688 Z M 43.609375 14.878906 " clip-rule="nonzero"/></clipPath><clipPath id="d839ed6bb7"><path d="M 18.882812 12.679688 L 23.042969 12.679688 L 23.042969 16.238281 L 18.882812 16.238281 Z M 18.882812 12.679688 " clip-rule="nonzero"/></clipPath><clipPath id="68cbe41700"><path d="M 19.171875 12.832031 L 19.257812 12.710938 L 22.257812 13.890625 C 22.582031 14.019531 22.820312 14.308594 22.886719 14.652344 L 23.007812 15.292969 C 23.121094 15.890625 22.527344 16.371094 21.96875 16.140625 L 19.894531 15.28125 C 18.929688 14.882812 18.578125 13.695312 19.171875 12.832031 " clip-rule="nonzero"/></clipPath><clipPath id="0838eaa968"><path d="M 20.742188 9.667969 L 36.617188 9.667969 L 36.617188 24.777344 L 20.742188 24.777344 Z M 20.742188 9.667969 " clip-rule="nonzero"/></clipPath><clipPath id="571dd4e27e"><path d="M 20.917969 10.304688 C 21.269531 9.792969 21.925781 9.582031 22.511719 9.792969 L 25.820312 10.972656 C 26.148438 11.089844 26.394531 11.375 26.464844 11.714844 L 27.203125 15.328125 C 27.273438 15.671875 27.515625 15.957031 27.839844 16.085938 L 32.742188 18.015625 C 34.003906 18.511719 35.082031 19.394531 35.820312 20.53125 L 36.390625 21.402344 C 36.585938 21.707031 36.660156 22.074219 36.589844 22.429688 L 36.15625 24.726562 L 34.574219 22.5 C 33.832031 21.449219 32.800781 20.625 31.609375 20.132812 L 25.789062 17.722656 C 25.464844 17.589844 25.230469 17.296875 25.167969 16.953125 L 24.507812 13.265625 C 24.445312 12.921875 24.203125 12.632812 23.878906 12.511719 L 21.304688 11.542969 C 20.804688 11.355469 20.613281 10.746094 20.917969 10.304688 " clip-rule="nonzero"/></clipPath><clipPath id="d8f01c17af"><path d="M 40.503906 23.023438 L 41.871094 23.023438 L 41.871094 25.378906 L 40.503906 25.378906 Z M 40.503906 23.023438 " clip-rule="nonzero"/></clipPath><clipPath id="00a1f01895"><path d="M 41.613281 23.347656 C 41.910156 23.882812 41.910156 24.535156 41.621094 25.070312 C 41.410156 25.457031 40.832031 25.492188 40.660156 25.082031 C 40.550781 24.820312 40.519531 24.53125 40.5625 24.246094 L 40.6875 23.480469 C 40.761719 23.023438 41.375 22.914062 41.597656 23.320312 Z M 41.613281 23.347656 " clip-rule="nonzero"/></clipPath><clipPath id="54852525ef"><path d="M 28.625 12.296875 L 40.339844 12.296875 L 40.339844 28.171875 L 28.625 28.171875 Z M 28.625 12.296875 " clip-rule="nonzero"/></clipPath><clipPath id="b8c995429e"><path d="M 36.773438 18.667969 C 36.113281 17.578125 35.101562 16.734375 33.90625 16.285156 L 29.410156 14.59375 C 29.082031 14.46875 28.839844 14.183594 28.773438 13.839844 L 28.664062 13.277344 C 28.542969 12.667969 29.136719 12.15625 29.722656 12.367188 L 34.777344 14.171875 C 36.179688 14.671875 37.355469 15.671875 38.078125 16.972656 L 39.699219 19.894531 C 39.875 20.210938 39.9375 20.582031 39.875 20.941406 L 39.164062 24.964844 C 39.101562 25.320312 39.175781 25.6875 39.371094 25.992188 L 40.328125 27.457031 C 39.882812 28.277344 38.730469 28.347656 38.191406 27.582031 L 37.496094 26.597656 C 37.289062 26.300781 37.207031 25.933594 37.269531 25.578125 L 38.011719 21.445312 C 38.078125 21.085938 38.007812 20.714844 37.820312 20.40625 Z M 36.773438 18.667969 " clip-rule="nonzero"/></clipPath><clipPath id="993eb524b1"><path d="M 27.75 21.929688 L 37.65625 21.929688 L 37.65625 28.445312 L 27.75 28.445312 Z M 27.75 21.929688 " clip-rule="nonzero"/></clipPath><clipPath id="f52bf3847e"><path d="M 30.824219 23.925781 C 30.558594 23.664062 30.25 23.453125 29.90625 23.300781 L 27.78125 22.355469 L 28.195312 22.097656 C 28.492188 21.910156 28.867188 21.882812 29.1875 22.027344 L 30.113281 22.4375 C 30.453125 22.589844 30.765625 22.800781 31.035156 23.058594 L 33.410156 25.351562 C 33.679688 25.609375 33.988281 25.820312 34.332031 25.976562 L 36.578125 26.988281 L 37.652344 28.394531 L 33.953125 26.726562 C 33.613281 26.574219 33.300781 26.363281 33.035156 26.101562 Z M 30.824219 23.925781 " clip-rule="nonzero"/></clipPath><clipPath id="b70b33d01a"><path d="M 32.457031 23.464844 L 35.796875 23.464844 L 35.796875 25.925781 L 32.457031 25.925781 Z M 32.457031 23.464844 " clip-rule="nonzero"/></clipPath><clipPath id="cce67c6422"><path d="M 32.457031 23.480469 L 34.632812 24.445312 L 35.75 25.90625 L 34.59375 25.390625 C 34.253906 25.238281 33.945312 25.023438 33.6875 24.753906 Z M 32.457031 23.480469 " clip-rule="nonzero"/></clipPath><clipPath id="9bd1671550"><path d="M 23.316406 21 L 31.910156 21 L 31.910156 25.816406 L 23.316406 25.816406 Z M 23.316406 21 " clip-rule="nonzero"/></clipPath><clipPath id="f4004fda20"><path d="M 31.878906 25.792969 L 26.667969 23.445312 C 25.449219 22.894531 24.347656 22.105469 23.433594 21.125 L 23.328125 21.011719 L 29.378906 23.742188 C 29.71875 23.894531 30.03125 24.101562 30.308594 24.355469 Z M 31.878906 25.792969 " clip-rule="nonzero"/></clipPath><clipPath id="d3c27bcf66"><path d="M 21.835938 18.753906 L 33.933594 18.753906 L 33.933594 23.410156 L 21.835938 23.410156 Z M 21.835938 18.753906 " clip-rule="nonzero"/></clipPath><clipPath id="83a52ea6ea"><path d="M 21.890625 18.785156 L 25.914062 20.574219 C 26.234375 20.714844 26.605469 20.683594 26.898438 20.488281 L 27.589844 20.03125 C 27.882812 19.839844 28.253906 19.804688 28.578125 19.941406 L 30.90625 20.929688 C 32.109375 21.4375 33.144531 22.28125 33.882812 23.355469 L 28.890625 21.171875 C 28.566406 21.03125 28.191406 21.058594 27.890625 21.242188 L 27.277344 21.621094 C 26.976562 21.804688 26.605469 21.832031 26.28125 21.6875 L 23.261719 20.34375 C 22.925781 20.191406 22.640625 19.949219 22.441406 19.640625 Z M 21.890625 18.785156 " clip-rule="nonzero"/></clipPath><clipPath id="75366669fe"><path d="M 20.359375 16.457031 L 27.039062 16.457031 L 27.039062 19.851562 L 20.359375 19.851562 Z M 20.359375 16.457031 " clip-rule="nonzero"/></clipPath><clipPath id="6e97e73b4b"><path d="M 20.394531 16.472656 L 27.015625 19.28125 L 26.539062 19.617188 C 26.253906 19.820312 25.882812 19.859375 25.5625 19.71875 L 21.796875 18.070312 C 21.460938 17.925781 21.175781 17.679688 20.976562 17.371094 Z M 20.394531 16.472656 " clip-rule="nonzero"/></clipPath></defs><g fill="#ffffff" fill-opacity="1"><g transform="translate(50.171706, 20.685486)"><g><path d="M 11.082031 0 C 12.699219 0 14.226562 -0.648438 15.359375 -1.785156 C 16.464844 -2.886719 17.128906 -4.414062 17.128906 -6.0625 C 17.128906 -7.589844 16.554688 -8.996094 15.570312 -10.097656 C 16.480469 -11.203125 16.933594 -12.441406 16.933594 -13.832031 C 16.933594 -15.617188 16.359375 -17.097656 15.210938 -18.261719 C 14.105469 -19.367188 12.640625 -20.015625 11.050781 -20.015625 L 3.992188 -20.015625 C 3.417969 -19.972656 2.949219 -19.761719 2.585938 -19.398438 C 2.207031 -18.988281 2.011719 -18.503906 2.011719 -17.929688 L 2.011719 -2.101562 C 2.011719 -1.511719 2.238281 -0.984375 2.617188 -0.605469 C 2.976562 -0.226562 3.507812 0 4.050781 0 Z M 6.167969 -12.109375 L 6.167969 -15.859375 L 10.855469 -15.859375 C 11.414062 -15.84375 11.867188 -15.679688 12.246094 -15.390625 C 12.59375 -15.089844 12.820312 -14.4375 12.820312 -13.832031 C 12.820312 -13.363281 12.652344 -12.957031 12.320312 -12.625 C 11.972656 -12.277344 11.566406 -12.109375 11.082031 -12.109375 Z M 6.167969 -4.140625 L 6.167969 -7.96875 L 11.082031 -7.96875 C 11.566406 -7.96875 12.035156 -7.753906 12.351562 -7.394531 C 12.699219 -6.984375 12.882812 -6.546875 12.882812 -6.0625 C 12.882812 -5.578125 12.667969 -5.09375 12.351562 -4.730469 C 12.035156 -4.371094 11.566406 -4.140625 11.082031 -4.140625 Z M 6.167969 -4.140625 "/></g></g></g><g fill="#ffffff" fill-opacity="1"><g transform="translate(68.690369, 20.685486)"><g><path d="M 3.582031 -15.8125 C 4.171875 -15.8125 4.703125 -16.039062 5.109375 -16.449219 C 5.535156 -16.871094 5.746094 -17.371094 5.746094 -17.960938 C 5.746094 -18.550781 5.535156 -19.066406 5.109375 -19.488281 C 4.703125 -19.894531 4.171875 -20.109375 3.582031 -20.109375 C 2.992188 -20.109375 2.480469 -19.894531 2.070312 -19.488281 C 1.632812 -19.050781 1.421875 -18.550781 1.421875 -17.960938 C 1.421875 -17.402344 1.664062 -16.855469 2.070312 -16.449219 C 2.496094 -16.027344 2.992188 -15.8125 3.582031 -15.8125 Z M 3.582031 0.167969 C 4.128906 0.167969 4.625 -0.0585938 4.988281 -0.421875 C 5.351562 -0.785156 5.578125 -1.300781 5.578125 -1.828125 L 5.578125 -12.59375 C 5.578125 -13.136719 5.382812 -13.636719 5.019531 -14 C 4.65625 -14.363281 4.140625 -14.589844 3.613281 -14.589844 C 3.070312 -14.589844 2.523438 -14.363281 2.160156 -14 C 1.785156 -13.636719 1.542969 -13.121094 1.542969 -12.59375 L 1.542969 -1.828125 C 1.542969 -1.300781 1.785156 -0.785156 2.160156 -0.421875 C 2.523438 -0.0585938 3.039062 0.167969 3.582031 0.167969 Z M 3.582031 0.167969 "/></g></g></g><g fill="#ffffff" fill-opacity="1"><g transform="translate(75.855958, 20.685486)"><g><path d="M 5.457031 7.074219 C 5.882812 7.074219 6.273438 6.925781 6.652344 6.605469 C 7.332031 6.046875 7.863281 5.867188 8.585938 5.867188 C 8.8125 5.867188 8.996094 5.867188 9.101562 5.882812 C 9.207031 5.894531 9.386719 5.894531 9.617188 5.894531 C 11.1875 5.894531 12.640625 5.488281 13.683594 4.65625 C 14.816406 3.75 15.480469 2.34375 15.480469 0.40625 C 15.480469 -1.164062 15.074219 -2.375 14.257812 -3.234375 C 15.027344 -4.429688 15.421875 -5.761719 15.421875 -7.195312 C 15.421875 -9.191406 14.605469 -11.050781 13.257812 -12.425781 C 11.914062 -13.773438 10.039062 -14.589844 8.042969 -14.589844 C 6.046875 -14.589844 4.21875 -13.804688 2.84375 -12.425781 C 1.464844 -11.050781 0.664062 -9.191406 0.664062 -7.195312 C 0.664062 -5.199219 1.464844 -3.339844 2.84375 -1.996094 C 4.21875 -0.621094 6.046875 0.167969 8.042969 0.167969 C 9.175781 0.167969 10.234375 -0.0585938 11.1875 -0.527344 C 11.398438 -0.289062 11.503906 0.046875 11.503906 0.453125 C 11.503906 1.058594 11.355469 1.390625 10.914062 1.585938 C 10.476562 1.785156 9.75 1.875 8.496094 1.875 C 7.046875 1.875 5.730469 2.28125 4.761719 2.933594 C 3.855469 3.539062 3.3125 4.355469 3.3125 5.035156 C 3.3125 5.578125 3.554688 6.09375 3.976562 6.457031 C 4.398438 6.832031 4.929688 7.074219 5.457031 7.074219 Z M 8.042969 -3.871094 C 7.152344 -3.871094 6.304688 -4.234375 5.699219 -4.839844 C 5.078125 -5.457031 4.703125 -6.289062 4.703125 -7.195312 C 4.703125 -8.105469 5.078125 -8.933594 5.699219 -9.554688 C 6.304688 -10.160156 7.152344 -10.523438 8.042969 -10.523438 C 8.949219 -10.523438 9.8125 -10.160156 10.417969 -9.554688 C 11.035156 -8.933594 11.398438 -8.105469 11.398438 -7.195312 C 11.398438 -6.289062 11.035156 -5.457031 10.417969 -4.839844 C 9.8125 -4.234375 8.949219 -3.871094 8.042969 -3.871094 Z M 8.042969 -3.871094 "/></g></g></g><g fill="#ffffff" fill-opacity="1"><g transform="translate(92.001209, 20.685486)"><g><path d="M 4.023438 0.167969 C 4.582031 0.167969 5.066406 -0.03125 5.441406 -0.40625 C 5.804688 -0.769531 6.03125 -1.269531 6.03125 -1.8125 L 6.03125 -7.332031 L 10.839844 -7.332031 C 11.398438 -7.332031 11.882812 -7.515625 12.261719 -7.875 C 12.625 -8.238281 12.851562 -8.722656 12.851562 -9.253906 C 12.851562 -9.8125 12.652344 -10.28125 12.261719 -10.671875 C 11.882812 -11.050781 11.398438 -11.25 10.839844 -11.25 L 6.03125 -11.25 L 6.03125 -15.933594 L 12.851562 -15.933594 C 13.410156 -15.933594 13.878906 -16.132812 14.273438 -16.523438 C 14.621094 -16.886719 14.832031 -17.417969 14.832031 -17.960938 C 14.832031 -18.503906 14.621094 -19.019531 14.273438 -19.382812 C 13.878906 -19.773438 13.410156 -19.972656 12.851562 -19.972656 L 4.023438 -19.972656 C 3.339844 -19.972656 2.84375 -19.761719 2.496094 -19.320312 C 2.191406 -18.957031 2.027344 -18.476562 2.011719 -18.035156 L 2.011719 -1.8125 C 2.011719 -1.269531 2.222656 -0.769531 2.585938 -0.40625 C 2.964844 -0.03125 3.445312 0.167969 4.023438 0.167969 Z M 4.023438 0.167969 "/></g></g></g><g fill="#ffffff" fill-opacity="1"><g transform="translate(106.982429, 20.685486)"><g><path d="M 3.582031 -15.8125 C 4.171875 -15.8125 4.703125 -16.039062 5.109375 -16.449219 C 5.535156 -16.871094 5.746094 -17.371094 5.746094 -17.960938 C 5.746094 -18.550781 5.535156 -19.066406 5.109375 -19.488281 C 4.703125 -19.894531 4.171875 -20.109375 3.582031 -20.109375 C 2.992188 -20.109375 2.480469 -19.894531 2.070312 -19.488281 C 1.632812 -19.050781 1.421875 -18.550781 1.421875 -17.960938 C 1.421875 -17.402344 1.664062 -16.855469 2.070312 -16.449219 C 2.496094 -16.027344 2.992188 -15.8125 3.582031 -15.8125 Z M 3.582031 0.167969 C 4.128906 0.167969 4.625 -0.0585938 4.988281 -0.421875 C 5.351562 -0.785156 5.578125 -1.300781 5.578125 -1.828125 L 5.578125 -12.59375 C 5.578125 -13.136719 5.382812 -13.636719 5.019531 -14 C 4.65625 -14.363281 4.140625 -14.589844 3.613281 -14.589844 C 3.070312 -14.589844 2.523438 -14.363281 2.160156 -14 C 1.785156 -13.636719 1.542969 -13.121094 1.542969 -12.59375 L 1.542969 -1.828125 C 1.542969 -1.300781 1.785156 -0.785156 2.160156 -0.421875 C 2.523438 -0.0585938 3.039062 0.167969 3.582031 0.167969 Z M 3.582031 0.167969 "/></g></g></g><g fill="#ffffff" fill-opacity="1"><g transform="translate(114.148018, 20.685486)"><g><path d="M 7.210938 0 C 7.753906 0 8.285156 -0.210938 8.632812 -0.558594 C 8.996094 -0.921875 9.191406 -1.421875 9.191406 -1.964844 C 9.191406 -2.507812 8.996094 -3.007812 8.632812 -3.371094 C 8.285156 -3.734375 7.769531 -3.945312 7.210938 -3.945312 C 6.472656 -3.945312 6.078125 -4.234375 6.03125 -4.808594 L 6.03125 -17.808594 C 6.03125 -18.355469 5.789062 -18.851562 5.414062 -19.230469 C 5.035156 -19.59375 4.488281 -19.820312 3.945312 -19.820312 C 3.417969 -19.820312 2.964844 -19.625 2.585938 -19.230469 C 2.207031 -18.851562 2.011719 -18.367188 2.011719 -17.808594 L 2.011719 -4.898438 C 2.011719 -3.492188 2.585938 -2.253906 3.554688 -1.359375 C 4.519531 -0.5 5.820312 0 7.210938 0 Z M 7.210938 0 "/></g></g></g><g fill="#ffffff" fill-opacity="1"><g transform="translate(123.687019, 20.685486)"><g><path d="M 8.105469 0.167969 C 9.601562 0.167969 10.78125 -0.0898438 11.65625 -0.589844 C 12.425781 -1.027344 12.820312 -1.648438 12.820312 -2.359375 C 12.820312 -2.902344 12.609375 -3.433594 12.261719 -3.808594 C 11.867188 -4.21875 11.398438 -4.429688 10.855469 -4.429688 C 10.460938 -4.429688 10.070312 -4.308594 9.691406 -4.066406 C 9.28125 -3.824219 8.84375 -3.703125 8.105469 -3.703125 C 6.894531 -3.703125 5.820312 -4.355469 5.15625 -5.398438 L 13.546875 -5.398438 C 14.710938 -5.398438 15.527344 -6.152344 15.527344 -7.300781 C 15.480469 -9.28125 14.648438 -11.128906 13.304688 -12.472656 C 11.929688 -13.804688 10.085938 -14.589844 8.105469 -14.589844 C 6.09375 -14.589844 4.234375 -13.789062 2.855469 -12.441406 C 1.480469 -11.066406 0.664062 -9.207031 0.664062 -7.195312 C 0.664062 -5.199219 1.480469 -3.371094 2.855469 -1.996094 C 4.234375 -0.648438 6.109375 0.167969 8.105469 0.167969 Z M 5.035156 -8.753906 C 5.59375 -9.964844 6.726562 -10.75 8.179688 -10.75 C 9.628906 -10.75 10.839844 -9.976562 11.398438 -8.753906 Z M 5.035156 -8.753906 "/></g></g></g><g clip-path="url(#278e8ba07d)"><g clip-path="url(#ab7013b9cc)"><path fill="#f266ff" d="M 18.609375 0.363281 L 46.960938 0.363281 L 46.960938 28.664062 L 18.609375 28.664062 Z M 18.609375 0.363281 " fill-opacity="1" fill-rule="nonzero"/></g></g><g clip-path="url(#75ae469e35)"><g clip-path="url(#3508f06c0c)"><path fill="#ff637e" d="M 18.609375 0.363281 L 46.960938 0.363281 L 46.960938 28.664062 L 18.609375 28.664062 Z M 18.609375 0.363281 " fill-opacity="1" fill-rule="nonzero"/></g></g><g clip-path="url(#5d239a60db)"><g clip-path="url(#c289c6ae52)"><path fill="#00d7be" d="M 18.609375 0.363281 L 46.960938 0.363281 L 46.960938 28.664062 L 18.609375 28.664062 Z M 18.609375 0.363281 " fill-opacity="1" fill-rule="nonzero"/></g></g><g clip-path="url(#53bbc6ce89)"><g clip-path="url(#a5b28c4cf7)"><path fill="#1f93ff" d="M 18.609375 0.363281 L 46.960938 0.363281 L 46.960938 28.664062 L 18.609375 28.664062 Z M 18.609375 0.363281 " fill-opacity="1" fill-rule="nonzero"/></g></g><g clip-path="url(#d26d47e574)"><g clip-path="url(#62daa41643)"><path fill="#ffd500" d="M 18.609375 0.363281 L 46.960938 0.363281 L 46.960938 28.664062 L 18.609375 28.664062 Z M 18.609375 0.363281 " fill-opacity="1" fill-rule="nonzero"/></g></g><g clip-path="url(#d839ed6bb7)"><g clip-path="url(#68cbe41700)"><path fill="#1f93ff" d="M 18.609375 0.363281 L 46.960938 0.363281 L 46.960938 28.664062 L 18.609375 28.664062 Z M 18.609375 0.363281 " fill-opacity="1" fill-rule="nonzero"/></g></g><g clip-path="url(#0838eaa968)"><g clip-path="url(#571dd4e27e)"><path fill="#f266ff" d="M 18.609375 0.363281 L 46.960938 0.363281 L 46.960938 28.664062 L 18.609375 28.664062 Z M 18.609375 0.363281 " fill-opacity="1" fill-rule="nonzero"/></g></g><g clip-path="url(#d8f01c17af)"><g clip-path="url(#00a1f01895)"><path fill="#1f93ff" d="M 18.609375 0.363281 L 46.960938 0.363281 L 46.960938 28.664062 L 18.609375 28.664062 Z M 18.609375 0.363281 " fill-opacity="1" fill-rule="nonzero"/></g></g><g clip-path="url(#54852525ef)"><g clip-path="url(#b8c995429e)"><path fill="#ffcf00" d="M 18.609375 0.363281 L 46.960938 0.363281 L 46.960938 28.664062 L 18.609375 28.664062 Z M 18.609375 0.363281 " fill-opacity="1" fill-rule="nonzero"/></g></g><g clip-path="url(#993eb524b1)"><g clip-path="url(#f52bf3847e)"><path fill="#61d742" d="M 18.609375 0.363281 L 46.960938 0.363281 L 46.960938 28.664062 L 18.609375 28.664062 Z M 18.609375 0.363281 " fill-opacity="1" fill-rule="nonzero"/></g></g><g clip-path="url(#b70b33d01a)"><g clip-path="url(#cce67c6422)"><path fill="#1f93ff" d="M 18.609375 0.363281 L 46.960938 0.363281 L 46.960938 28.664062 L 18.609375 28.664062 Z M 18.609375 0.363281 " fill-opacity="1" fill-rule="nonzero"/></g></g><g clip-path="url(#9bd1671550)"><g clip-path="url(#f4004fda20)"><path fill="#1f93ff" d="M 18.609375 0.363281 L 46.960938 0.363281 L 46.960938 28.664062 L 18.609375 28.664062 Z M 18.609375 0.363281 " fill-opacity="1" fill-rule="nonzero"/></g></g><g clip-path="url(#d3c27bcf66)"><g clip-path="url(#83a52ea6ea)"><path fill="#ff7a78" d="M 18.609375 0.363281 L 46.960938 0.363281 L 46.960938 28.664062 L 18.609375 28.664062 Z M 18.609375 0.363281 " fill-opacity="1" fill-rule="nonzero"/></g></g><g clip-path="url(#75366669fe)"><g clip-path="url(#6e97e73b4b)"><path fill="#ffcf00" d="M 18.609375 0.363281 L 46.960938 0.363281 L 46.960938 28.664062 L 18.609375 28.664062 Z M 18.609375 0.363281 " fill-opacity="1" fill-rule="nonzero"/></g></g></svg>