<svg xmlns="http://www.w3.org/2000/svg" xmlns:xlink="http://www.w3.org/1999/xlink" width="218" zoomAndPan="magnify" viewBox="0 0 163.5 30.000001" height="40" preserveAspectRatio="xMidYMid meet" version="1.0"><defs><g/></defs><g fill="#000000" fill-opacity="0.4"><g transform="translate(28.926806, 21.232924)"><g><path d="M 11.078125 0 L 4.046875 0 C 3.472656 0 2.992188 -0.203125 2.609375 -0.609375 C 2.210938 -1.003906 2.015625 -1.503906 2.015625 -2.109375 L 2.015625 -17.9375 C 2.015625 -18.5 2.203125 -18.988281 2.578125 -19.40625 C 2.953125 -19.769531 3.421875 -19.972656 3.984375 -20.015625 L 11.046875 -20.015625 C 11.847656 -20.015625 12.601562 -19.859375 13.3125 -19.546875 C 14.019531 -19.242188 14.65625 -18.816406 15.21875 -18.265625 C 16.363281 -17.109375 16.9375 -15.632812 16.9375 -13.84375 C 16.9375 -12.457031 16.484375 -11.207031 15.578125 -10.09375 C 16.066406 -9.539062 16.445312 -8.921875 16.71875 -8.234375 C 16.988281 -7.554688 17.125 -6.832031 17.125 -6.0625 C 17.125 -5.238281 16.96875 -4.457031 16.65625 -3.71875 C 16.34375 -2.976562 15.910156 -2.332031 15.359375 -1.78125 C 14.796875 -1.21875 14.144531 -0.78125 13.40625 -0.46875 C 12.664062 -0.15625 11.890625 0 11.078125 0 Z M 6.171875 -12.109375 L 11.078125 -12.109375 C 11.566406 -12.109375 11.984375 -12.28125 12.328125 -12.625 C 12.660156 -12.957031 12.828125 -13.363281 12.828125 -13.84375 C 12.828125 -14.144531 12.769531 -14.441406 12.65625 -14.734375 C 12.550781 -15.023438 12.414062 -15.242188 12.25 -15.390625 C 11.851562 -15.691406 11.390625 -15.847656 10.859375 -15.859375 L 6.171875 -15.859375 Z M 6.171875 -4.140625 L 11.078125 -4.140625 C 11.328125 -4.140625 11.5625 -4.191406 11.78125 -4.296875 C 12 -4.398438 12.191406 -4.546875 12.359375 -4.734375 C 12.515625 -4.910156 12.640625 -5.113281 12.734375 -5.34375 C 12.835938 -5.582031 12.890625 -5.820312 12.890625 -6.0625 C 12.890625 -6.539062 12.710938 -6.984375 12.359375 -7.390625 C 12.023438 -7.773438 11.597656 -7.96875 11.078125 -7.96875 L 6.171875 -7.96875 Z M 6.171875 -4.140625 "/></g></g></g><g fill="#000000" fill-opacity="0.4"><g transform="translate(50.2016, 21.232924)"><g><path d="M 3.578125 -15.8125 C 2.992188 -15.8125 2.492188 -16.023438 2.078125 -16.453125 C 1.640625 -16.890625 1.421875 -17.394531 1.421875 -17.96875 C 1.421875 -18.550781 1.640625 -19.054688 2.078125 -19.484375 C 2.484375 -19.898438 2.984375 -20.109375 3.578125 -20.109375 C 4.179688 -20.109375 4.691406 -19.898438 5.109375 -19.484375 C 5.535156 -19.066406 5.75 -18.5625 5.75 -17.96875 C 5.75 -17.382812 5.535156 -16.878906 5.109375 -16.453125 C 4.679688 -16.023438 4.171875 -15.8125 3.578125 -15.8125 Z M 3.578125 0.171875 C 3.304688 0.171875 3.046875 0.113281 2.796875 0 C 2.554688 -0.101562 2.34375 -0.242188 2.15625 -0.421875 C 1.96875 -0.609375 1.816406 -0.820312 1.703125 -1.0625 C 1.597656 -1.3125 1.546875 -1.566406 1.546875 -1.828125 L 1.546875 -12.59375 C 1.546875 -12.851562 1.597656 -13.109375 1.703125 -13.359375 C 1.816406 -13.609375 1.96875 -13.820312 2.15625 -14 C 2.34375 -14.1875 2.5625 -14.332031 2.8125 -14.4375 C 3.070312 -14.539062 3.335938 -14.59375 3.609375 -14.59375 C 3.867188 -14.59375 4.125 -14.539062 4.375 -14.4375 C 4.625 -14.332031 4.835938 -14.1875 5.015625 -14 C 5.390625 -13.625 5.578125 -13.15625 5.578125 -12.59375 L 5.578125 -1.828125 C 5.578125 -1.566406 5.523438 -1.3125 5.421875 -1.0625 C 5.316406 -0.820312 5.171875 -0.609375 4.984375 -0.421875 C 4.804688 -0.242188 4.59375 -0.101562 4.34375 0 C 4.101562 0.113281 3.847656 0.171875 3.578125 0.171875 Z M 3.578125 0.171875 "/></g></g></g><g fill="#000000" fill-opacity="0.4"><g transform="translate(60.12332, 21.232924)"><g><path d="M 5.453125 7.078125 C 5.191406 7.078125 4.929688 7.019531 4.671875 6.90625 C 4.421875 6.800781 4.191406 6.648438 3.984375 6.453125 C 3.535156 6.066406 3.3125 5.59375 3.3125 5.03125 C 3.3125 4.6875 3.4375 4.328125 3.6875 3.953125 C 3.945312 3.578125 4.304688 3.238281 4.765625 2.9375 C 5.242188 2.613281 5.800781 2.351562 6.4375 2.15625 C 7.082031 1.96875 7.769531 1.875 8.5 1.875 C 9.125 1.875 9.625 1.847656 10 1.796875 C 10.382812 1.753906 10.691406 1.6875 10.921875 1.59375 C 11.140625 1.488281 11.289062 1.347656 11.375 1.171875 C 11.457031 0.992188 11.5 0.753906 11.5 0.453125 C 11.5 0.0351562 11.394531 -0.289062 11.1875 -0.53125 C 10.25 -0.0625 9.203125 0.171875 8.046875 0.171875 C 7.046875 0.171875 6.097656 -0.015625 5.203125 -0.390625 C 4.316406 -0.773438 3.53125 -1.3125 2.84375 -2 C 2.15625 -2.675781 1.617188 -3.460938 1.234375 -4.359375 C 0.859375 -5.253906 0.671875 -6.203125 0.671875 -7.203125 C 0.671875 -8.191406 0.859375 -9.140625 1.234375 -10.046875 C 1.617188 -10.953125 2.15625 -11.75 2.84375 -12.4375 C 3.53125 -13.113281 4.316406 -13.640625 5.203125 -14.015625 C 6.097656 -14.398438 7.046875 -14.59375 8.046875 -14.59375 C 9.046875 -14.59375 9.992188 -14.398438 10.890625 -14.015625 C 11.796875 -13.628906 12.585938 -13.101562 13.265625 -12.4375 C 13.941406 -11.75 14.46875 -10.953125 14.84375 -10.046875 C 15.226562 -9.140625 15.421875 -8.191406 15.421875 -7.203125 C 15.421875 -5.753906 15.035156 -4.429688 14.265625 -3.234375 C 15.078125 -2.378906 15.484375 -1.164062 15.484375 0.40625 C 15.484375 1.375 15.320312 2.210938 15 2.921875 C 14.6875 3.628906 14.25 4.207031 13.6875 4.65625 C 13.164062 5.070312 12.550781 5.378906 11.84375 5.578125 C 11.144531 5.785156 10.40625 5.890625 9.625 5.890625 C 9.507812 5.890625 9.40625 5.890625 9.3125 5.890625 C 9.21875 5.890625 9.148438 5.882812 9.109375 5.875 C 9.054688 5.863281 8.984375 5.859375 8.890625 5.859375 C 8.796875 5.859375 8.695312 5.859375 8.59375 5.859375 C 8.226562 5.859375 7.898438 5.910156 7.609375 6.015625 C 7.316406 6.128906 7 6.328125 6.65625 6.609375 C 6.28125 6.921875 5.878906 7.078125 5.453125 7.078125 Z M 8.046875 -3.875 C 8.492188 -3.875 8.925781 -3.957031 9.34375 -4.125 C 9.757812 -4.300781 10.117188 -4.539062 10.421875 -4.84375 C 10.734375 -5.15625 10.972656 -5.507812 11.140625 -5.90625 C 11.316406 -6.3125 11.40625 -6.742188 11.40625 -7.203125 C 11.40625 -7.648438 11.316406 -8.078125 11.140625 -8.484375 C 10.972656 -8.890625 10.734375 -9.25 10.421875 -9.5625 C 10.117188 -9.863281 9.757812 -10.097656 9.34375 -10.265625 C 8.925781 -10.441406 8.492188 -10.53125 8.046875 -10.53125 C 7.597656 -10.53125 7.171875 -10.441406 6.765625 -10.265625 C 6.359375 -10.097656 6.003906 -9.863281 5.703125 -9.5625 C 5.390625 -9.25 5.144531 -8.890625 4.96875 -8.484375 C 4.789062 -8.078125 4.703125 -7.648438 4.703125 -7.203125 C 4.703125 -6.742188 4.789062 -6.3125 4.96875 -5.90625 C 5.144531 -5.507812 5.390625 -5.15625 5.703125 -4.84375 C 6.003906 -4.539062 6.359375 -4.300781 6.765625 -4.125 C 7.171875 -3.957031 7.597656 -3.875 8.046875 -3.875 Z M 8.046875 -3.875 "/></g></g></g><g fill="#000000" fill-opacity="0.4"><g transform="translate(79.024705, 21.232924)"><g><path d="M 4.015625 0.171875 C 3.441406 0.171875 2.960938 -0.0195312 2.578125 -0.40625 C 2.203125 -0.789062 2.015625 -1.257812 2.015625 -1.8125 L 2.015625 -18.046875 C 2.023438 -18.265625 2.066406 -18.484375 2.140625 -18.703125 C 2.222656 -18.929688 2.34375 -19.140625 2.5 -19.328125 C 2.84375 -19.753906 3.347656 -19.96875 4.015625 -19.96875 L 12.859375 -19.96875 C 13.410156 -19.96875 13.882812 -19.773438 14.28125 -19.390625 C 14.644531 -18.992188 14.828125 -18.519531 14.828125 -17.96875 C 14.828125 -17.40625 14.644531 -16.925781 14.28125 -16.53125 C 13.882812 -16.132812 13.410156 -15.9375 12.859375 -15.9375 L 6.03125 -15.9375 L 6.03125 -11.25 L 10.84375 -11.25 C 11.40625 -11.25 11.878906 -11.054688 12.265625 -10.671875 C 12.660156 -10.285156 12.859375 -9.8125 12.859375 -9.25 C 12.859375 -8.988281 12.800781 -8.738281 12.6875 -8.5 C 12.582031 -8.269531 12.441406 -8.0625 12.265625 -7.875 C 11.890625 -7.507812 11.414062 -7.328125 10.84375 -7.328125 L 6.03125 -7.328125 L 6.03125 -1.8125 C 6.03125 -1.539062 5.976562 -1.285156 5.875 -1.046875 C 5.769531 -0.804688 5.625 -0.59375 5.4375 -0.40625 C 5.0625 -0.0195312 4.585938 0.171875 4.015625 0.171875 Z M 4.015625 0.171875 "/></g></g></g><g fill="#000000" fill-opacity="0.4"><g transform="translate(96.762054, 21.232924)"><g><path d="M 3.578125 -15.8125 C 2.992188 -15.8125 2.492188 -16.023438 2.078125 -16.453125 C 1.640625 -16.890625 1.421875 -17.394531 1.421875 -17.96875 C 1.421875 -18.550781 1.640625 -19.054688 2.078125 -19.484375 C 2.484375 -19.898438 2.984375 -20.109375 3.578125 -20.109375 C 4.179688 -20.109375 4.691406 -19.898438 5.109375 -19.484375 C 5.535156 -19.066406 5.75 -18.5625 5.75 -17.96875 C 5.75 -17.382812 5.535156 -16.878906 5.109375 -16.453125 C 4.679688 -16.023438 4.171875 -15.8125 3.578125 -15.8125 Z M 3.578125 0.171875 C 3.304688 0.171875 3.046875 0.113281 2.796875 0 C 2.554688 -0.101562 2.34375 -0.242188 2.15625 -0.421875 C 1.96875 -0.609375 1.816406 -0.820312 1.703125 -1.0625 C 1.597656 -1.3125 1.546875 -1.566406 1.546875 -1.828125 L 1.546875 -12.59375 C 1.546875 -12.851562 1.597656 -13.109375 1.703125 -13.359375 C 1.816406 -13.609375 1.96875 -13.820312 2.15625 -14 C 2.34375 -14.1875 2.5625 -14.332031 2.8125 -14.4375 C 3.070312 -14.539062 3.335938 -14.59375 3.609375 -14.59375 C 3.867188 -14.59375 4.125 -14.539062 4.375 -14.4375 C 4.625 -14.332031 4.835938 -14.1875 5.015625 -14 C 5.390625 -13.625 5.578125 -13.15625 5.578125 -12.59375 L 5.578125 -1.828125 C 5.578125 -1.566406 5.523438 -1.3125 5.421875 -1.0625 C 5.316406 -0.820312 5.171875 -0.609375 4.984375 -0.421875 C 4.804688 -0.242188 4.59375 -0.101562 4.34375 0 C 4.101562 0.113281 3.847656 0.171875 3.578125 0.171875 Z M 3.578125 0.171875 "/></g></g></g><g fill="#000000" fill-opacity="0.4"><g transform="translate(106.683772, 21.232924)"><g><path d="M 7.21875 0 C 6.519531 0 5.851562 -0.113281 5.21875 -0.34375 C 4.59375 -0.582031 4.035156 -0.921875 3.546875 -1.359375 C 3.066406 -1.804688 2.691406 -2.332031 2.421875 -2.9375 C 2.148438 -3.539062 2.015625 -4.195312 2.015625 -4.90625 L 2.015625 -17.8125 C 2.015625 -18.375 2.203125 -18.847656 2.578125 -19.234375 C 2.960938 -19.628906 3.421875 -19.828125 3.953125 -19.828125 C 4.222656 -19.828125 4.484375 -19.769531 4.734375 -19.65625 C 4.992188 -19.550781 5.21875 -19.410156 5.40625 -19.234375 C 5.601562 -19.046875 5.753906 -18.828125 5.859375 -18.578125 C 5.972656 -18.335938 6.03125 -18.082031 6.03125 -17.8125 L 6.03125 -4.8125 C 6.082031 -4.238281 6.476562 -3.953125 7.21875 -3.953125 C 7.800781 -3.953125 8.273438 -3.757812 8.640625 -3.375 C 9.003906 -3 9.1875 -2.53125 9.1875 -1.96875 C 9.1875 -1.40625 9.003906 -0.9375 8.640625 -0.5625 C 8.265625 -0.1875 7.789062 0 7.21875 0 Z M 7.21875 0 "/></g></g></g><g fill="#000000" fill-opacity="0.4"><g transform="translate(118.978902, 21.232924)"><g><path d="M 8.109375 0.171875 C 7.109375 0.171875 6.15625 -0.0195312 5.25 -0.40625 C 4.34375 -0.789062 3.546875 -1.320312 2.859375 -2 C 2.171875 -2.6875 1.632812 -3.472656 1.25 -4.359375 C 0.863281 -5.253906 0.671875 -6.203125 0.671875 -7.203125 C 0.671875 -8.203125 0.863281 -9.15625 1.25 -10.0625 C 1.632812 -10.96875 2.171875 -11.757812 2.859375 -12.4375 C 3.546875 -13.113281 4.335938 -13.640625 5.234375 -14.015625 C 6.140625 -14.398438 7.097656 -14.59375 8.109375 -14.59375 C 9.097656 -14.59375 10.039062 -14.40625 10.9375 -14.03125 C 11.832031 -13.65625 12.625 -13.132812 13.3125 -12.46875 C 13.976562 -11.800781 14.507812 -11.019531 14.90625 -10.125 C 15.300781 -9.226562 15.507812 -8.285156 15.53125 -7.296875 C 15.53125 -6.722656 15.34375 -6.257812 14.96875 -5.90625 C 14.601562 -5.5625 14.128906 -5.390625 13.546875 -5.390625 L 5.15625 -5.390625 C 5.488281 -4.867188 5.910156 -4.457031 6.421875 -4.15625 C 6.941406 -3.851562 7.503906 -3.703125 8.109375 -3.703125 C 8.484375 -3.703125 8.789062 -3.734375 9.03125 -3.796875 C 9.269531 -3.859375 9.488281 -3.945312 9.6875 -4.0625 C 10.070312 -4.3125 10.460938 -4.4375 10.859375 -4.4375 C 11.398438 -4.4375 11.867188 -4.226562 12.265625 -3.8125 C 12.640625 -3.40625 12.828125 -2.921875 12.828125 -2.359375 C 12.828125 -1.617188 12.4375 -1.03125 11.65625 -0.59375 C 10.769531 -0.0820312 9.585938 0.171875 8.109375 0.171875 Z M 5.03125 -8.75 L 11.40625 -8.75 C 11.125 -9.363281 10.695312 -9.847656 10.125 -10.203125 C 9.550781 -10.566406 8.90625 -10.75 8.1875 -10.75 C 7.457031 -10.75 6.816406 -10.566406 6.265625 -10.203125 C 5.722656 -9.835938 5.3125 -9.351562 5.03125 -8.75 Z M 5.03125 -8.75 "/></g></g></g><g fill="#ffffff" fill-opacity="1"><g transform="translate(28.379368, 20.685486)"><g><path d="M 11.078125 0 L 4.046875 0 C 3.472656 0 2.992188 -0.203125 2.609375 -0.609375 C 2.210938 -1.003906 2.015625 -1.503906 2.015625 -2.109375 L 2.015625 -17.9375 C 2.015625 -18.5 2.203125 -18.988281 2.578125 -19.40625 C 2.953125 -19.769531 3.421875 -19.972656 3.984375 -20.015625 L 11.046875 -20.015625 C 11.847656 -20.015625 12.601562 -19.859375 13.3125 -19.546875 C 14.019531 -19.242188 14.65625 -18.816406 15.21875 -18.265625 C 16.363281 -17.109375 16.9375 -15.632812 16.9375 -13.84375 C 16.9375 -12.457031 16.484375 -11.207031 15.578125 -10.09375 C 16.066406 -9.539062 16.445312 -8.921875 16.71875 -8.234375 C 16.988281 -7.554688 17.125 -6.832031 17.125 -6.0625 C 17.125 -5.238281 16.96875 -4.457031 16.65625 -3.71875 C 16.34375 -2.976562 15.910156 -2.332031 15.359375 -1.78125 C 14.796875 -1.21875 14.144531 -0.78125 13.40625 -0.46875 C 12.664062 -0.15625 11.890625 0 11.078125 0 Z M 6.171875 -12.109375 L 11.078125 -12.109375 C 11.566406 -12.109375 11.984375 -12.28125 12.328125 -12.625 C 12.660156 -12.957031 12.828125 -13.363281 12.828125 -13.84375 C 12.828125 -14.144531 12.769531 -14.441406 12.65625 -14.734375 C 12.550781 -15.023438 12.414062 -15.242188 12.25 -15.390625 C 11.851562 -15.691406 11.390625 -15.847656 10.859375 -15.859375 L 6.171875 -15.859375 Z M 6.171875 -4.140625 L 11.078125 -4.140625 C 11.328125 -4.140625 11.5625 -4.191406 11.78125 -4.296875 C 12 -4.398438 12.191406 -4.546875 12.359375 -4.734375 C 12.515625 -4.910156 12.640625 -5.113281 12.734375 -5.34375 C 12.835938 -5.582031 12.890625 -5.820312 12.890625 -6.0625 C 12.890625 -6.539062 12.710938 -6.984375 12.359375 -7.390625 C 12.023438 -7.773438 11.597656 -7.96875 11.078125 -7.96875 L 6.171875 -7.96875 Z M 6.171875 -4.140625 "/></g></g></g><g fill="#ffffff" fill-opacity="1"><g transform="translate(49.654162, 20.685486)"><g><path d="M 3.578125 -15.8125 C 2.992188 -15.8125 2.492188 -16.023438 2.078125 -16.453125 C 1.640625 -16.890625 1.421875 -17.394531 1.421875 -17.96875 C 1.421875 -18.550781 1.640625 -19.054688 2.078125 -19.484375 C 2.484375 -19.898438 2.984375 -20.109375 3.578125 -20.109375 C 4.179688 -20.109375 4.691406 -19.898438 5.109375 -19.484375 C 5.535156 -19.066406 5.75 -18.5625 5.75 -17.96875 C 5.75 -17.382812 5.535156 -16.878906 5.109375 -16.453125 C 4.679688 -16.023438 4.171875 -15.8125 3.578125 -15.8125 Z M 3.578125 0.171875 C 3.304688 0.171875 3.046875 0.113281 2.796875 0 C 2.554688 -0.101562 2.34375 -0.242188 2.15625 -0.421875 C 1.96875 -0.609375 1.816406 -0.820312 1.703125 -1.0625 C 1.597656 -1.3125 1.546875 -1.566406 1.546875 -1.828125 L 1.546875 -12.59375 C 1.546875 -12.851562 1.597656 -13.109375 1.703125 -13.359375 C 1.816406 -13.609375 1.96875 -13.820312 2.15625 -14 C 2.34375 -14.1875 2.5625 -14.332031 2.8125 -14.4375 C 3.070312 -14.539062 3.335938 -14.59375 3.609375 -14.59375 C 3.867188 -14.59375 4.125 -14.539062 4.375 -14.4375 C 4.625 -14.332031 4.835938 -14.1875 5.015625 -14 C 5.390625 -13.625 5.578125 -13.15625 5.578125 -12.59375 L 5.578125 -1.828125 C 5.578125 -1.566406 5.523438 -1.3125 5.421875 -1.0625 C 5.316406 -0.820312 5.171875 -0.609375 4.984375 -0.421875 C 4.804688 -0.242188 4.59375 -0.101562 4.34375 0 C 4.101562 0.113281 3.847656 0.171875 3.578125 0.171875 Z M 3.578125 0.171875 "/></g></g></g><g fill="#ffffff" fill-opacity="1"><g transform="translate(59.575882, 20.685486)"><g><path d="M 5.453125 7.078125 C 5.191406 7.078125 4.929688 7.019531 4.671875 6.90625 C 4.421875 6.800781 4.191406 6.648438 3.984375 6.453125 C 3.535156 6.066406 3.3125 5.59375 3.3125 5.03125 C 3.3125 4.6875 3.4375 4.328125 3.6875 3.953125 C 3.945312 3.578125 4.304688 3.238281 4.765625 2.9375 C 5.242188 2.613281 5.800781 2.351562 6.4375 2.15625 C 7.082031 1.96875 7.769531 1.875 8.5 1.875 C 9.125 1.875 9.625 1.847656 10 1.796875 C 10.382812 1.753906 10.691406 1.6875 10.921875 1.59375 C 11.140625 1.488281 11.289062 1.347656 11.375 1.171875 C 11.457031 0.992188 11.5 0.753906 11.5 0.453125 C 11.5 0.0351562 11.394531 -0.289062 11.1875 -0.53125 C 10.25 -0.0625 9.203125 0.171875 8.046875 0.171875 C 7.046875 0.171875 6.097656 -0.015625 5.203125 -0.390625 C 4.316406 -0.773438 3.53125 -1.3125 2.84375 -2 C 2.15625 -2.675781 1.617188 -3.460938 1.234375 -4.359375 C 0.859375 -5.253906 0.671875 -6.203125 0.671875 -7.203125 C 0.671875 -8.191406 0.859375 -9.140625 1.234375 -10.046875 C 1.617188 -10.953125 2.15625 -11.75 2.84375 -12.4375 C 3.53125 -13.113281 4.316406 -13.640625 5.203125 -14.015625 C 6.097656 -14.398438 7.046875 -14.59375 8.046875 -14.59375 C 9.046875 -14.59375 9.992188 -14.398438 10.890625 -14.015625 C 11.796875 -13.628906 12.585938 -13.101562 13.265625 -12.4375 C 13.941406 -11.75 14.46875 -10.953125 14.84375 -10.046875 C 15.226562 -9.140625 15.421875 -8.191406 15.421875 -7.203125 C 15.421875 -5.753906 15.035156 -4.429688 14.265625 -3.234375 C 15.078125 -2.378906 15.484375 -1.164062 15.484375 0.40625 C 15.484375 1.375 15.320312 2.210938 15 2.921875 C 14.6875 3.628906 14.25 4.207031 13.6875 4.65625 C 13.164062 5.070312 12.550781 5.378906 11.84375 5.578125 C 11.144531 5.785156 10.40625 5.890625 9.625 5.890625 C 9.507812 5.890625 9.40625 5.890625 9.3125 5.890625 C 9.21875 5.890625 9.148438 5.882812 9.109375 5.875 C 9.054688 5.863281 8.984375 5.859375 8.890625 5.859375 C 8.796875 5.859375 8.695312 5.859375 8.59375 5.859375 C 8.226562 5.859375 7.898438 5.910156 7.609375 6.015625 C 7.316406 6.128906 7 6.328125 6.65625 6.609375 C 6.28125 6.921875 5.878906 7.078125 5.453125 7.078125 Z M 8.046875 -3.875 C 8.492188 -3.875 8.925781 -3.957031 9.34375 -4.125 C 9.757812 -4.300781 10.117188 -4.539062 10.421875 -4.84375 C 10.734375 -5.15625 10.972656 -5.507812 11.140625 -5.90625 C 11.316406 -6.3125 11.40625 -6.742188 11.40625 -7.203125 C 11.40625 -7.648438 11.316406 -8.078125 11.140625 -8.484375 C 10.972656 -8.890625 10.734375 -9.25 10.421875 -9.5625 C 10.117188 -9.863281 9.757812 -10.097656 9.34375 -10.265625 C 8.925781 -10.441406 8.492188 -10.53125 8.046875 -10.53125 C 7.597656 -10.53125 7.171875 -10.441406 6.765625 -10.265625 C 6.359375 -10.097656 6.003906 -9.863281 5.703125 -9.5625 C 5.390625 -9.25 5.144531 -8.890625 4.96875 -8.484375 C 4.789062 -8.078125 4.703125 -7.648438 4.703125 -7.203125 C 4.703125 -6.742188 4.789062 -6.3125 4.96875 -5.90625 C 5.144531 -5.507812 5.390625 -5.15625 5.703125 -4.84375 C 6.003906 -4.539062 6.359375 -4.300781 6.765625 -4.125 C 7.171875 -3.957031 7.597656 -3.875 8.046875 -3.875 Z M 8.046875 -3.875 "/></g></g></g><g fill="#ffffff" fill-opacity="1"><g transform="translate(78.477267, 20.685486)"><g><path d="M 4.015625 0.171875 C 3.441406 0.171875 2.960938 -0.0195312 2.578125 -0.40625 C 2.203125 -0.789062 2.015625 -1.257812 2.015625 -1.8125 L 2.015625 -18.046875 C 2.023438 -18.265625 2.066406 -18.484375 2.140625 -18.703125 C 2.222656 -18.929688 2.34375 -19.140625 2.5 -19.328125 C 2.84375 -19.753906 3.347656 -19.96875 4.015625 -19.96875 L 12.859375 -19.96875 C 13.410156 -19.96875 13.882812 -19.773438 14.28125 -19.390625 C 14.644531 -18.992188 14.828125 -18.519531 14.828125 -17.96875 C 14.828125 -17.40625 14.644531 -16.925781 14.28125 -16.53125 C 13.882812 -16.132812 13.410156 -15.9375 12.859375 -15.9375 L 6.03125 -15.9375 L 6.03125 -11.25 L 10.84375 -11.25 C 11.40625 -11.25 11.878906 -11.054688 12.265625 -10.671875 C 12.660156 -10.285156 12.859375 -9.8125 12.859375 -9.25 C 12.859375 -8.988281 12.800781 -8.738281 12.6875 -8.5 C 12.582031 -8.269531 12.441406 -8.0625 12.265625 -7.875 C 11.890625 -7.507812 11.414062 -7.328125 10.84375 -7.328125 L 6.03125 -7.328125 L 6.03125 -1.8125 C 6.03125 -1.539062 5.976562 -1.285156 5.875 -1.046875 C 5.769531 -0.804688 5.625 -0.59375 5.4375 -0.40625 C 5.0625 -0.0195312 4.585938 0.171875 4.015625 0.171875 Z M 4.015625 0.171875 "/></g></g></g><g fill="#ffffff" fill-opacity="1"><g transform="translate(96.214616, 20.685486)"><g><path d="M 3.578125 -15.8125 C 2.992188 -15.8125 2.492188 -16.023438 2.078125 -16.453125 C 1.640625 -16.890625 1.421875 -17.394531 1.421875 -17.96875 C 1.421875 -18.550781 1.640625 -19.054688 2.078125 -19.484375 C 2.484375 -19.898438 2.984375 -20.109375 3.578125 -20.109375 C 4.179688 -20.109375 4.691406 -19.898438 5.109375 -19.484375 C 5.535156 -19.066406 5.75 -18.5625 5.75 -17.96875 C 5.75 -17.382812 5.535156 -16.878906 5.109375 -16.453125 C 4.679688 -16.023438 4.171875 -15.8125 3.578125 -15.8125 Z M 3.578125 0.171875 C 3.304688 0.171875 3.046875 0.113281 2.796875 0 C 2.554688 -0.101562 2.34375 -0.242188 2.15625 -0.421875 C 1.96875 -0.609375 1.816406 -0.820312 1.703125 -1.0625 C 1.597656 -1.3125 1.546875 -1.566406 1.546875 -1.828125 L 1.546875 -12.59375 C 1.546875 -12.851562 1.597656 -13.109375 1.703125 -13.359375 C 1.816406 -13.609375 1.96875 -13.820312 2.15625 -14 C 2.34375 -14.1875 2.5625 -14.332031 2.8125 -14.4375 C 3.070312 -14.539062 3.335938 -14.59375 3.609375 -14.59375 C 3.867188 -14.59375 4.125 -14.539062 4.375 -14.4375 C 4.625 -14.332031 4.835938 -14.1875 5.015625 -14 C 5.390625 -13.625 5.578125 -13.15625 5.578125 -12.59375 L 5.578125 -1.828125 C 5.578125 -1.566406 5.523438 -1.3125 5.421875 -1.0625 C 5.316406 -0.820312 5.171875 -0.609375 4.984375 -0.421875 C 4.804688 -0.242188 4.59375 -0.101562 4.34375 0 C 4.101562 0.113281 3.847656 0.171875 3.578125 0.171875 Z M 3.578125 0.171875 "/></g></g></g><g fill="#ffffff" fill-opacity="1"><g transform="translate(106.136334, 20.685486)"><g><path d="M 7.21875 0 C 6.519531 0 5.851562 -0.113281 5.21875 -0.34375 C 4.59375 -0.582031 4.035156 -0.921875 3.546875 -1.359375 C 3.066406 -1.804688 2.691406 -2.332031 2.421875 -2.9375 C 2.148438 -3.539062 2.015625 -4.195312 2.015625 -4.90625 L 2.015625 -17.8125 C 2.015625 -18.375 2.203125 -18.847656 2.578125 -19.234375 C 2.960938 -19.628906 3.421875 -19.828125 3.953125 -19.828125 C 4.222656 -19.828125 4.484375 -19.769531 4.734375 -19.65625 C 4.992188 -19.550781 5.21875 -19.410156 5.40625 -19.234375 C 5.601562 -19.046875 5.753906 -18.828125 5.859375 -18.578125 C 5.972656 -18.335938 6.03125 -18.082031 6.03125 -17.8125 L 6.03125 -4.8125 C 6.082031 -4.238281 6.476562 -3.953125 7.21875 -3.953125 C 7.800781 -3.953125 8.273438 -3.757812 8.640625 -3.375 C 9.003906 -3 9.1875 -2.53125 9.1875 -1.96875 C 9.1875 -1.40625 9.003906 -0.9375 8.640625 -0.5625 C 8.265625 -0.1875 7.789062 0 7.21875 0 Z M 7.21875 0 "/></g></g></g><g fill="#ffffff" fill-opacity="1"><g transform="translate(118.431464, 20.685486)"><g><path d="M 8.109375 0.171875 C 7.109375 0.171875 6.15625 -0.0195312 5.25 -0.40625 C 4.34375 -0.789062 3.546875 -1.320312 2.859375 -2 C 2.171875 -2.6875 1.632812 -3.472656 1.25 -4.359375 C 0.863281 -5.253906 0.671875 -6.203125 0.671875 -7.203125 C 0.671875 -8.203125 0.863281 -9.15625 1.25 -10.0625 C 1.632812 -10.96875 2.171875 -11.757812 2.859375 -12.4375 C 3.546875 -13.113281 4.335938 -13.640625 5.234375 -14.015625 C 6.140625 -14.398438 7.097656 -14.59375 8.109375 -14.59375 C 9.097656 -14.59375 10.039062 -14.40625 10.9375 -14.03125 C 11.832031 -13.65625 12.625 -13.132812 13.3125 -12.46875 C 13.976562 -11.800781 14.507812 -11.019531 14.90625 -10.125 C 15.300781 -9.226562 15.507812 -8.285156 15.53125 -7.296875 C 15.53125 -6.722656 15.34375 -6.257812 14.96875 -5.90625 C 14.601562 -5.5625 14.128906 -5.390625 13.546875 -5.390625 L 5.15625 -5.390625 C 5.488281 -4.867188 5.910156 -4.457031 6.421875 -4.15625 C 6.941406 -3.851562 7.503906 -3.703125 8.109375 -3.703125 C 8.484375 -3.703125 8.789062 -3.734375 9.03125 -3.796875 C 9.269531 -3.859375 9.488281 -3.945312 9.6875 -4.0625 C 10.070312 -4.3125 10.460938 -4.4375 10.859375 -4.4375 C 11.398438 -4.4375 11.867188 -4.226562 12.265625 -3.8125 C 12.640625 -3.40625 12.828125 -2.921875 12.828125 -2.359375 C 12.828125 -1.617188 12.4375 -1.03125 11.65625 -0.59375 C 10.769531 -0.0820312 9.585938 0.171875 8.109375 0.171875 Z M 5.03125 -8.75 L 11.40625 -8.75 C 11.125 -9.363281 10.695312 -9.847656 10.125 -10.203125 C 9.550781 -10.566406 8.90625 -10.75 8.1875 -10.75 C 7.457031 -10.75 6.816406 -10.566406 6.265625 -10.203125 C 5.722656 -9.835938 5.3125 -9.351562 5.03125 -8.75 Z M 5.03125 -8.75 "/></g></g></g></svg>