<svg xmlns="http://www.w3.org/2000/svg" xmlns:xlink="http://www.w3.org/1999/xlink" width="58" zoomAndPan="magnify" viewBox="0 0 43.5 30.000001" height="40" preserveAspectRatio="xMidYMid meet" version="1.0"><defs><clipPath id="e3c9f7af1d"><path d="M 7.6875 0.695312 L 35.332031 0.695312 L 35.332031 28.339844 L 7.6875 28.339844 Z M 7.6875 0.695312 " clip-rule="nonzero"/></clipPath><clipPath id="ba34a19c5b"><path d="M 21.507812 0.695312 C 13.875 0.695312 7.6875 6.882812 7.6875 14.515625 C 7.6875 22.148438 13.875 28.339844 21.507812 28.339844 C 29.140625 28.339844 35.332031 22.148438 35.332031 14.515625 C 35.332031 6.882812 29.140625 0.695312 21.507812 0.695312 Z M 21.507812 0.695312 " clip-rule="nonzero"/></clipPath><linearGradient x1="-0.00000153348" gradientTransform="matrix(0.107988, 0, 0, 0.107988, 7.685612, 0.69368)" y1="128" x2="255.999993" gradientUnits="userSpaceOnUse" y2="128" id="ced0d009ba"><stop stop-opacity="1" stop-color="rgb(0%, 0%, 0%)" offset="0"/><stop stop-opacity="1" stop-color="rgb(0.175476%, 0.175476%, 0.175476%)" offset="0.0078125"/><stop stop-opacity="1" stop-color="rgb(0.526428%, 0.526428%, 0.526428%)" offset="0.015625"/><stop stop-opacity="1" stop-color="rgb(0.878906%, 0.878906%, 0.878906%)" offset="0.0234375"/><stop stop-opacity="1" stop-color="rgb(1.231384%, 1.231384%, 1.231384%)" offset="0.03125"/><stop stop-opacity="1" stop-color="rgb(1.583862%, 1.583862%, 1.583862%)" offset="0.0390625"/><stop stop-opacity="1" stop-color="rgb(1.93634%, 1.93634%, 1.93634%)" offset="0.046875"/><stop stop-opacity="1" stop-color="rgb(2.288818%, 2.288818%, 2.288818%)" offset="0.0546875"/><stop stop-opacity="1" stop-color="rgb(2.641296%, 2.641296%, 2.641296%)" offset="0.0625"/><stop stop-opacity="1" stop-color="rgb(2.993774%, 2.993774%, 2.993774%)" offset="0.0703125"/><stop stop-opacity="1" stop-color="rgb(3.346252%, 3.346252%, 3.346252%)" offset="0.078125"/><stop stop-opacity="1" stop-color="rgb(3.69873%, 3.69873%, 3.69873%)" offset="0.0859375"/><stop stop-opacity="1" stop-color="rgb(4.051208%, 4.051208%, 4.051208%)" offset="0.09375"/><stop stop-opacity="1" stop-color="rgb(4.402161%, 4.402161%, 4.402161%)" offset="0.101563"/><stop stop-opacity="1" stop-color="rgb(4.754639%, 4.754639%, 4.754639%)" offset="0.109375"/><stop stop-opacity="1" stop-color="rgb(5.107117%, 5.107117%, 5.107117%)" offset="0.117188"/><stop stop-opacity="1" stop-color="rgb(5.459595%, 5.459595%, 5.459595%)" offset="0.125"/><stop stop-opacity="1" stop-color="rgb(5.812073%, 5.812073%, 5.812073%)" offset="0.132812"/><stop stop-opacity="1" stop-color="rgb(6.164551%, 6.164551%, 6.164551%)" offset="0.140625"/><stop stop-opacity="1" stop-color="rgb(6.517029%, 6.517029%, 6.517029%)" offset="0.148438"/><stop stop-opacity="1" stop-color="rgb(6.869507%, 6.869507%, 6.869507%)" offset="0.15625"/><stop stop-opacity="1" stop-color="rgb(7.221985%, 7.221985%, 7.221985%)" offset="0.164063"/><stop stop-opacity="1" stop-color="rgb(7.574463%, 7.574463%, 7.574463%)" offset="0.171875"/><stop stop-opacity="1" stop-color="rgb(7.926941%, 7.926941%, 7.926941%)" offset="0.179688"/><stop stop-opacity="1" stop-color="rgb(8.277893%, 8.277893%, 8.277893%)" offset="0.1875"/><stop stop-opacity="1" stop-color="rgb(8.630371%, 8.630371%, 8.630371%)" offset="0.195312"/><stop stop-opacity="1" stop-color="rgb(8.982849%, 8.982849%, 8.982849%)" offset="0.203125"/><stop stop-opacity="1" stop-color="rgb(9.335327%, 9.335327%, 9.335327%)" offset="0.210938"/><stop stop-opacity="1" stop-color="rgb(9.687805%, 9.687805%, 9.687805%)" offset="0.21875"/><stop stop-opacity="1" stop-color="rgb(10.040283%, 10.040283%, 10.040283%)" offset="0.226563"/><stop stop-opacity="1" stop-color="rgb(10.392761%, 10.392761%, 10.392761%)" offset="0.234375"/><stop stop-opacity="1" stop-color="rgb(10.745239%, 10.745239%, 10.745239%)" offset="0.242188"/><stop stop-opacity="1" stop-color="rgb(11.097717%, 11.097717%, 11.097717%)" offset="0.25"/><stop stop-opacity="1" stop-color="rgb(11.450195%, 11.450195%, 11.450195%)" offset="0.257812"/><stop stop-opacity="1" stop-color="rgb(11.802673%, 11.802673%, 11.802673%)" offset="0.265625"/><stop stop-opacity="1" stop-color="rgb(12.155151%, 12.155151%, 12.155151%)" offset="0.273438"/><stop stop-opacity="1" stop-color="rgb(12.506104%, 12.506104%, 12.506104%)" offset="0.28125"/><stop stop-opacity="1" stop-color="rgb(12.858582%, 12.858582%, 12.858582%)" offset="0.289063"/><stop stop-opacity="1" stop-color="rgb(13.21106%, 13.21106%, 13.21106%)" offset="0.296875"/><stop stop-opacity="1" stop-color="rgb(13.563538%, 13.563538%, 13.563538%)" offset="0.304688"/><stop stop-opacity="1" stop-color="rgb(13.916016%, 13.916016%, 13.916016%)" offset="0.3125"/><stop stop-opacity="1" stop-color="rgb(14.268494%, 14.268494%, 14.268494%)" offset="0.320313"/><stop stop-opacity="1" stop-color="rgb(14.620972%, 14.620972%, 14.620972%)" offset="0.328125"/><stop stop-opacity="1" stop-color="rgb(14.97345%, 14.97345%, 14.97345%)" offset="0.335938"/><stop stop-opacity="1" stop-color="rgb(15.325928%, 15.325928%, 15.325928%)" offset="0.34375"/><stop stop-opacity="1" stop-color="rgb(15.678406%, 15.678406%, 15.678406%)" offset="0.351563"/><stop stop-opacity="1" stop-color="rgb(16.030884%, 16.030884%, 16.030884%)" offset="0.359375"/><stop stop-opacity="1" stop-color="rgb(16.381836%, 16.381836%, 16.381836%)" offset="0.367188"/><stop stop-opacity="1" stop-color="rgb(16.734314%, 16.734314%, 16.734314%)" offset="0.375"/><stop stop-opacity="1" stop-color="rgb(17.086792%, 17.086792%, 17.086792%)" offset="0.382813"/><stop stop-opacity="1" stop-color="rgb(17.43927%, 17.43927%, 17.43927%)" offset="0.390625"/><stop stop-opacity="1" stop-color="rgb(17.791748%, 17.791748%, 17.791748%)" offset="0.398438"/><stop stop-opacity="1" stop-color="rgb(18.144226%, 18.144226%, 18.144226%)" offset="0.40625"/><stop stop-opacity="1" stop-color="rgb(18.496704%, 18.496704%, 18.496704%)" offset="0.414063"/><stop stop-opacity="1" stop-color="rgb(18.849182%, 18.849182%, 18.849182%)" offset="0.421875"/><stop stop-opacity="1" stop-color="rgb(19.20166%, 19.20166%, 19.20166%)" offset="0.429688"/><stop stop-opacity="1" stop-color="rgb(19.554138%, 19.554138%, 19.554138%)" offset="0.4375"/><stop stop-opacity="1" stop-color="rgb(19.906616%, 19.906616%, 19.906616%)" offset="0.445313"/><stop stop-opacity="1" stop-color="rgb(20.257568%, 20.257568%, 20.257568%)" offset="0.453125"/><stop stop-opacity="1" stop-color="rgb(20.610046%, 20.610046%, 20.610046%)" offset="0.460938"/><stop stop-opacity="1" stop-color="rgb(20.962524%, 20.962524%, 20.962524%)" offset="0.46875"/><stop stop-opacity="1" stop-color="rgb(21.315002%, 21.315002%, 21.315002%)" offset="0.476563"/><stop stop-opacity="1" stop-color="rgb(21.66748%, 21.66748%, 21.66748%)" offset="0.484375"/><stop stop-opacity="1" stop-color="rgb(22.019958%, 22.019958%, 22.019958%)" offset="0.492188"/><stop stop-opacity="1" stop-color="rgb(22.372437%, 22.372437%, 22.372437%)" offset="0.5"/><stop stop-opacity="1" stop-color="rgb(22.724915%, 22.724915%, 22.724915%)" offset="0.507812"/><stop stop-opacity="1" stop-color="rgb(23.077393%, 23.077393%, 23.077393%)" offset="0.515625"/><stop stop-opacity="1" stop-color="rgb(23.429871%, 23.429871%, 23.429871%)" offset="0.523438"/><stop stop-opacity="1" stop-color="rgb(23.782349%, 23.782349%, 23.782349%)" offset="0.53125"/><stop stop-opacity="1" stop-color="rgb(24.134827%, 24.134827%, 24.134827%)" offset="0.539062"/><stop stop-opacity="1" stop-color="rgb(24.485779%, 24.485779%, 24.485779%)" offset="0.546875"/><stop stop-opacity="1" stop-color="rgb(24.838257%, 24.838257%, 24.838257%)" offset="0.554688"/><stop stop-opacity="1" stop-color="rgb(25.190735%, 25.190735%, 25.190735%)" offset="0.5625"/><stop stop-opacity="1" stop-color="rgb(25.543213%, 25.543213%, 25.543213%)" offset="0.570312"/><stop stop-opacity="1" stop-color="rgb(25.895691%, 25.895691%, 25.895691%)" offset="0.578125"/><stop stop-opacity="1" stop-color="rgb(26.248169%, 26.248169%, 26.248169%)" offset="0.585938"/><stop stop-opacity="1" stop-color="rgb(26.600647%, 26.600647%, 26.600647%)" offset="0.59375"/><stop stop-opacity="1" stop-color="rgb(26.953125%, 26.953125%, 26.953125%)" offset="0.601562"/><stop stop-opacity="1" stop-color="rgb(27.305603%, 27.305603%, 27.305603%)" offset="0.609375"/><stop stop-opacity="1" stop-color="rgb(27.658081%, 27.658081%, 27.658081%)" offset="0.617187"/><stop stop-opacity="1" stop-color="rgb(28.010559%, 28.010559%, 28.010559%)" offset="0.625"/><stop stop-opacity="1" stop-color="rgb(28.361511%, 28.361511%, 28.361511%)" offset="0.632813"/><stop stop-opacity="1" stop-color="rgb(28.713989%, 28.713989%, 28.713989%)" offset="0.640625"/><stop stop-opacity="1" stop-color="rgb(29.066467%, 29.066467%, 29.066467%)" offset="0.648438"/><stop stop-opacity="1" stop-color="rgb(29.418945%, 29.418945%, 29.418945%)" offset="0.65625"/><stop stop-opacity="1" stop-color="rgb(29.771423%, 29.771423%, 29.771423%)" offset="0.664062"/><stop stop-opacity="1" stop-color="rgb(30.123901%, 30.123901%, 30.123901%)" offset="0.671875"/><stop stop-opacity="1" stop-color="rgb(30.476379%, 30.476379%, 30.476379%)" offset="0.679688"/><stop stop-opacity="1" stop-color="rgb(30.828857%, 30.828857%, 30.828857%)" offset="0.6875"/><stop stop-opacity="1" stop-color="rgb(31.181335%, 31.181335%, 31.181335%)" offset="0.695312"/><stop stop-opacity="1" stop-color="rgb(31.533813%, 31.533813%, 31.533813%)" offset="0.703125"/><stop stop-opacity="1" stop-color="rgb(31.886292%, 31.886292%, 31.886292%)" offset="0.710938"/><stop stop-opacity="1" stop-color="rgb(32.237244%, 32.237244%, 32.237244%)" offset="0.71875"/><stop stop-opacity="1" stop-color="rgb(32.589722%, 32.589722%, 32.589722%)" offset="0.726562"/><stop stop-opacity="1" stop-color="rgb(32.9422%, 32.9422%, 32.9422%)" offset="0.734375"/><stop stop-opacity="1" stop-color="rgb(33.294678%, 33.294678%, 33.294678%)" offset="0.742188"/><stop stop-opacity="1" stop-color="rgb(33.647156%, 33.647156%, 33.647156%)" offset="0.75"/><stop stop-opacity="1" stop-color="rgb(33.999634%, 33.999634%, 33.999634%)" offset="0.757812"/><stop stop-opacity="1" stop-color="rgb(34.352112%, 34.352112%, 34.352112%)" offset="0.765625"/><stop stop-opacity="1" stop-color="rgb(34.70459%, 34.70459%, 34.70459%)" offset="0.773438"/><stop stop-opacity="1" stop-color="rgb(35.057068%, 35.057068%, 35.057068%)" offset="0.78125"/><stop stop-opacity="1" stop-color="rgb(35.409546%, 35.409546%, 35.409546%)" offset="0.789062"/><stop stop-opacity="1" stop-color="rgb(35.762024%, 35.762024%, 35.762024%)" offset="0.796875"/><stop stop-opacity="1" stop-color="rgb(36.114502%, 36.114502%, 36.114502%)" offset="0.804688"/><stop stop-opacity="1" stop-color="rgb(36.465454%, 36.465454%, 36.465454%)" offset="0.8125"/><stop stop-opacity="1" stop-color="rgb(36.817932%, 36.817932%, 36.817932%)" offset="0.820312"/><stop stop-opacity="1" stop-color="rgb(37.17041%, 37.17041%, 37.17041%)" offset="0.828125"/><stop stop-opacity="1" stop-color="rgb(37.522888%, 37.522888%, 37.522888%)" offset="0.835938"/><stop stop-opacity="1" stop-color="rgb(37.875366%, 37.875366%, 37.875366%)" offset="0.84375"/><stop stop-opacity="1" stop-color="rgb(38.227844%, 38.227844%, 38.227844%)" offset="0.851562"/><stop stop-opacity="1" stop-color="rgb(38.580322%, 38.580322%, 38.580322%)" offset="0.859375"/><stop stop-opacity="1" stop-color="rgb(38.9328%, 38.9328%, 38.9328%)" offset="0.867187"/><stop stop-opacity="1" stop-color="rgb(39.285278%, 39.285278%, 39.285278%)" offset="0.875"/><stop stop-opacity="1" stop-color="rgb(39.637756%, 39.637756%, 39.637756%)" offset="0.882813"/><stop stop-opacity="1" stop-color="rgb(39.990234%, 39.990234%, 39.990234%)" offset="0.890625"/><stop stop-opacity="1" stop-color="rgb(40.341187%, 40.341187%, 40.341187%)" offset="0.898438"/><stop stop-opacity="1" stop-color="rgb(40.693665%, 40.693665%, 40.693665%)" offset="0.90625"/><stop stop-opacity="1" stop-color="rgb(41.046143%, 41.046143%, 41.046143%)" offset="0.914062"/><stop stop-opacity="1" stop-color="rgb(41.398621%, 41.398621%, 41.398621%)" offset="0.921875"/><stop stop-opacity="1" stop-color="rgb(41.751099%, 41.751099%, 41.751099%)" offset="0.929688"/><stop stop-opacity="1" stop-color="rgb(42.103577%, 42.103577%, 42.103577%)" offset="0.9375"/><stop stop-opacity="1" stop-color="rgb(42.456055%, 42.456055%, 42.456055%)" offset="0.945312"/><stop stop-opacity="1" stop-color="rgb(42.808533%, 42.808533%, 42.808533%)" offset="0.953125"/><stop stop-opacity="1" stop-color="rgb(43.161011%, 43.161011%, 43.161011%)" offset="0.960938"/><stop stop-opacity="1" stop-color="rgb(43.513489%, 43.513489%, 43.513489%)" offset="0.96875"/><stop stop-opacity="1" stop-color="rgb(43.865967%, 43.865967%, 43.865967%)" offset="0.976562"/><stop stop-opacity="1" stop-color="rgb(44.216919%, 44.216919%, 44.216919%)" offset="0.984375"/><stop stop-opacity="1" stop-color="rgb(44.569397%, 44.569397%, 44.569397%)" offset="0.992188"/><stop stop-opacity="1" stop-color="rgb(44.921875%, 44.921875%, 44.921875%)" offset="1"/></linearGradient><clipPath id="bac5b366de"><path d="M 17.351562 4.929688 L 22.113281 4.929688 L 22.113281 6.707031 L 17.351562 6.707031 Z M 17.351562 4.929688 " clip-rule="nonzero"/></clipPath><clipPath id="5279dc92df"><path d="M 17.359375 5.746094 C 17.808594 5.09375 18.621094 4.792969 19.386719 4.992188 L 21.816406 5.628906 C 22.144531 5.714844 22.191406 6.160156 21.890625 6.3125 L 21.355469 6.582031 C 21.132812 6.695312 20.875 6.722656 20.632812 6.652344 Z M 17.359375 5.746094 " clip-rule="nonzero"/></clipPath><clipPath id="9ac208ea4c"><path d="M 23.4375 12 L 28.992188 12 L 28.992188 19.824219 L 23.4375 19.824219 Z M 23.4375 12 " clip-rule="nonzero"/></clipPath><clipPath id="2edf6fa636"><path d="M 23.992188 12.242188 C 24.488281 12.003906 24.941406 11.945312 25.296875 12.152344 C 25.792969 12.445312 26.191406 12.886719 26.445312 13.410156 L 28.832031 18.4375 C 29.007812 18.808594 28.996094 19.246094 28.800781 19.609375 C 28.667969 19.855469 28.3125 19.851562 28.1875 19.601562 L 25.726562 14.828125 C 25.324219 14.054688 24.636719 13.460938 23.808594 13.179688 L 23.746094 13.15625 C 23.402344 13.039062 23.367188 12.5625 23.691406 12.394531 Z M 23.992188 12.242188 " clip-rule="nonzero"/></clipPath><clipPath id="aac81d6fc1"><path d="M 14.703125 8.976562 L 31.148438 8.976562 L 31.148438 15.96875 L 14.703125 15.96875 Z M 14.703125 8.976562 " clip-rule="nonzero"/></clipPath><clipPath id="83f20b1146"><path d="M 14.835938 9.402344 C 15.070312 9.058594 15.507812 8.910156 15.90625 9.039062 L 20.710938 10.589844 C 20.945312 10.667969 21.207031 10.648438 21.429688 10.542969 L 24.257812 9.183594 C 24.484375 9.074219 24.746094 9.054688 24.984375 9.125 L 25.636719 9.3125 C 26.722656 9.628906 27.609375 10.429688 28.035156 11.472656 L 28.464844 12.523438 C 28.550781 12.738281 28.765625 12.875 29 12.863281 L 30.230469 12.804688 C 30.460938 12.792969 30.671875 12.9375 30.746094 13.152344 L 30.960938 13.765625 C 31.210938 14.488281 31.144531 15.285156 30.78125 15.957031 L 30.121094 14.21875 C 30.035156 14 29.824219 13.859375 29.589844 13.867188 L 28.21875 13.914062 C 27.984375 13.921875 27.769531 13.785156 27.671875 13.570312 L 27.136719 12.363281 C 26.789062 11.570312 26.109375 10.96875 25.28125 10.714844 L 24.632812 10.511719 L 21.335938 12.050781 C 21.109375 12.15625 20.851562 12.167969 20.613281 12.089844 L 15.101562 10.210938 C 14.765625 10.09375 14.632812 9.695312 14.835938 9.402344 " clip-rule="nonzero"/></clipPath><clipPath id="bf59e2495a"><path d="M 16.214844 6.328125 L 30.050781 6.328125 L 30.050781 11.960938 L 16.214844 11.960938 Z M 16.214844 6.328125 " clip-rule="nonzero"/></clipPath><clipPath id="b3669b4511"><path d="M 30 11.015625 C 30.171875 11.507812 29.832031 12.125 29.371094 11.878906 C 29.257812 11.820312 29.167969 11.71875 29.117188 11.59375 L 28.503906 9.976562 C 28.199219 9.175781 27.527344 8.566406 26.703125 8.335938 L 24.84375 7.820312 C 24.601562 7.753906 24.339844 7.777344 24.113281 7.882812 L 21.300781 9.210938 C 21.074219 9.316406 20.816406 9.335938 20.574219 9.261719 L 16.574219 8.03125 C 16.25 7.929688 16.117188 7.546875 16.308594 7.269531 C 16.539062 6.933594 16.960938 6.785156 17.347656 6.898438 L 20.511719 7.820312 C 20.753906 7.890625 21.011719 7.867188 21.238281 7.757812 L 23.945312 6.449219 C 24.171875 6.339844 24.433594 6.316406 24.675781 6.378906 L 27.027344 6.992188 C 28.109375 7.277344 28.980469 8.085938 29.347656 9.140625 Z M 30 11.015625 " clip-rule="nonzero"/></clipPath><clipPath id="555daa973b"><path d="M 28.199219 14.761719 L 30.128906 14.761719 L 30.128906 17.671875 L 28.199219 17.671875 Z M 28.199219 14.761719 " clip-rule="nonzero"/></clipPath><clipPath id="4796c15af5"><path d="M 28.984375 14.765625 C 29.214844 14.753906 29.429688 14.890625 29.519531 15.109375 L 30.019531 16.328125 C 30.171875 16.703125 30.148438 17.125 29.957031 17.480469 C 29.832031 17.707031 29.5 17.695312 29.394531 17.457031 L 28.21875 14.800781 Z M 28.984375 14.765625 " clip-rule="nonzero"/></clipPath><clipPath id="694586022a"><path d="M 11.90625 13.246094 L 14.777344 13.246094 L 14.777344 15.707031 L 11.90625 15.707031 Z M 11.90625 13.246094 " clip-rule="nonzero"/></clipPath><clipPath id="2ed722fa6b"><path d="M 12.109375 13.355469 L 12.167969 13.269531 L 14.238281 14.082031 C 14.460938 14.171875 14.628906 14.371094 14.671875 14.609375 L 14.757812 15.054688 C 14.835938 15.464844 14.425781 15.796875 14.039062 15.636719 L 12.605469 15.046875 C 11.9375 14.769531 11.699219 13.949219 12.109375 13.355469 " clip-rule="nonzero"/></clipPath><clipPath id="a36808be20"><path d="M 13.191406 11.167969 L 24.152344 11.167969 L 24.152344 21.601562 L 13.191406 21.601562 Z M 13.191406 11.167969 " clip-rule="nonzero"/></clipPath><clipPath id="df42432e40"><path d="M 13.3125 11.609375 C 13.554688 11.253906 14.007812 11.109375 14.410156 11.253906 L 16.699219 12.070312 C 16.925781 12.152344 17.09375 12.347656 17.144531 12.582031 L 17.652344 15.078125 C 17.703125 15.3125 17.867188 15.511719 18.09375 15.601562 L 21.476562 16.933594 C 22.347656 17.277344 23.09375 17.882812 23.605469 18.667969 L 23.996094 19.273438 C 24.132812 19.480469 24.183594 19.738281 24.136719 19.980469 L 23.835938 21.566406 L 22.746094 20.03125 C 22.230469 19.304688 21.519531 18.734375 20.695312 18.394531 L 16.675781 16.730469 C 16.453125 16.636719 16.292969 16.4375 16.25 16.199219 L 15.789062 13.652344 C 15.746094 13.414062 15.582031 13.214844 15.355469 13.132812 L 13.582031 12.464844 C 13.234375 12.332031 13.101562 11.914062 13.3125 11.609375 " clip-rule="nonzero"/></clipPath><clipPath id="b5e3afca1a"><path d="M 26.839844 20.394531 L 27.785156 20.394531 L 27.785156 22.019531 L 26.839844 22.019531 Z M 26.839844 20.394531 " clip-rule="nonzero"/></clipPath><clipPath id="d4ccb59212"><path d="M 27.605469 20.617188 C 27.808594 20.984375 27.8125 21.433594 27.609375 21.804688 C 27.464844 22.074219 27.066406 22.09375 26.949219 21.8125 C 26.871094 21.632812 26.847656 21.433594 26.878906 21.234375 L 26.964844 20.707031 C 27.019531 20.390625 27.441406 20.316406 27.59375 20.597656 Z M 27.605469 20.617188 " clip-rule="nonzero"/></clipPath><clipPath id="2656fa8d10"><path d="M 18.636719 13 L 26.726562 13 L 26.726562 23.945312 L 18.636719 23.945312 Z M 18.636719 13 " clip-rule="nonzero"/></clipPath><clipPath id="ec3f3bc87e"><path d="M 24.261719 17.382812 C 23.808594 16.628906 23.105469 16.046875 22.28125 15.738281 L 19.175781 14.570312 C 18.949219 14.484375 18.785156 14.285156 18.738281 14.050781 L 18.660156 13.660156 C 18.578125 13.238281 18.988281 12.886719 19.390625 13.03125 L 22.886719 14.277344 C 23.851562 14.625 24.664062 15.3125 25.164062 16.210938 L 26.28125 18.230469 C 26.402344 18.449219 26.449219 18.707031 26.402344 18.953125 L 25.914062 21.730469 C 25.871094 21.976562 25.921875 22.230469 26.058594 22.441406 L 26.714844 23.453125 C 26.410156 24.019531 25.613281 24.066406 25.242188 23.539062 L 24.761719 22.859375 C 24.617188 22.65625 24.5625 22.402344 24.605469 22.15625 L 25.117188 19.300781 C 25.164062 19.054688 25.113281 18.796875 24.984375 18.582031 Z M 24.261719 17.382812 " clip-rule="nonzero"/></clipPath><clipPath id="b875927723"><path d="M 18.03125 19.636719 L 24.871094 19.636719 L 24.871094 24.136719 L 18.03125 24.136719 Z M 18.03125 19.636719 " clip-rule="nonzero"/></clipPath><clipPath id="6703f86045"><path d="M 20.152344 21.015625 C 19.972656 20.835938 19.757812 20.6875 19.519531 20.582031 L 18.054688 19.929688 L 18.335938 19.753906 C 18.542969 19.625 18.800781 19.605469 19.023438 19.703125 L 19.664062 19.988281 C 19.898438 20.089844 20.113281 20.238281 20.300781 20.414062 L 21.941406 22 C 22.125 22.179688 22.339844 22.324219 22.574219 22.429688 L 24.128906 23.128906 L 24.867188 24.101562 L 22.316406 22.949219 C 22.082031 22.84375 21.867188 22.695312 21.683594 22.515625 Z M 20.152344 21.015625 " clip-rule="nonzero"/></clipPath><clipPath id="25f2ee8846"><path d="M 21.28125 20.695312 L 23.585938 20.695312 L 23.585938 22.394531 L 21.28125 22.394531 Z M 21.28125 20.695312 " clip-rule="nonzero"/></clipPath><clipPath id="be1f921ad5"><path d="M 21.28125 20.707031 L 22.785156 21.375 L 23.558594 22.382812 L 22.757812 22.027344 C 22.523438 21.921875 22.308594 21.773438 22.128906 21.585938 Z M 21.28125 20.707031 " clip-rule="nonzero"/></clipPath><clipPath id="d8190e0fbe"><path d="M 14.96875 19 L 20.902344 19 L 20.902344 22.320312 L 14.96875 22.320312 Z M 14.96875 19 " clip-rule="nonzero"/></clipPath><clipPath id="d6d4828c16"><path d="M 20.882812 22.304688 L 17.285156 20.683594 C 16.441406 20.300781 15.679688 19.757812 15.050781 19.078125 L 14.976562 19 L 19.15625 20.886719 C 19.390625 20.992188 19.605469 21.136719 19.796875 21.308594 Z M 20.882812 22.304688 " clip-rule="nonzero"/></clipPath><clipPath id="41cd62fd5e"><path d="M 13.949219 17.445312 L 22.300781 17.445312 L 22.300781 20.65625 L 13.949219 20.65625 Z M 13.949219 17.445312 " clip-rule="nonzero"/></clipPath><clipPath id="1380b128de"><path d="M 13.984375 17.464844 L 16.761719 18.699219 C 16.984375 18.796875 17.242188 18.777344 17.445312 18.640625 L 17.917969 18.324219 C 18.121094 18.191406 18.378906 18.167969 18.601562 18.261719 L 20.210938 18.945312 C 21.039062 19.296875 21.757812 19.878906 22.265625 20.621094 L 18.816406 19.113281 C 18.59375 19.015625 18.335938 19.035156 18.128906 19.160156 L 17.703125 19.421875 C 17.496094 19.550781 17.238281 19.566406 17.015625 19.46875 L 14.929688 18.539062 C 14.699219 18.4375 14.5 18.265625 14.363281 18.054688 Z M 13.984375 17.464844 " clip-rule="nonzero"/></clipPath><clipPath id="9ec29c62bb"><path d="M 12.925781 15.855469 L 17.539062 15.855469 L 17.539062 18.199219 L 12.925781 18.199219 Z M 12.925781 15.855469 " clip-rule="nonzero"/></clipPath><clipPath id="edf584a00b"><path d="M 12.949219 15.867188 L 17.523438 17.804688 L 17.195312 18.039062 C 16.996094 18.179688 16.738281 18.203125 16.519531 18.109375 L 13.921875 16.972656 C 13.6875 16.871094 13.488281 16.703125 13.351562 16.488281 Z M 12.949219 15.867188 " clip-rule="nonzero"/></clipPath></defs><g clip-path="url(#e3c9f7af1d)"><g clip-path="url(#ba34a19c5b)"><path fill="url(#ced0d009ba)" d="M 7.6875 0.695312 L 7.6875 28.339844 L 35.332031 28.339844 L 35.332031 0.695312 Z M 7.6875 0.695312 " fill-rule="nonzero"/></g></g><g clip-path="url(#bac5b366de)"><g clip-path="url(#5279dc92df)"><path fill="#f266ff" d="M 11.71875 4.742188 L 31.300781 4.742188 L 31.300781 24.285156 L 11.71875 24.285156 Z M 11.71875 4.742188 " fill-opacity="1" fill-rule="nonzero"/></g></g><g clip-path="url(#9ac208ea4c)"><g clip-path="url(#2edf6fa636)"><path fill="#ff637e" d="M 11.71875 4.742188 L 31.300781 4.742188 L 31.300781 24.285156 L 11.71875 24.285156 Z M 11.71875 4.742188 " fill-opacity="1" fill-rule="nonzero"/></g></g><g clip-path="url(#aac81d6fc1)"><g clip-path="url(#83f20b1146)"><path fill="#00d7be" d="M 11.71875 4.742188 L 31.300781 4.742188 L 31.300781 24.285156 L 11.71875 24.285156 Z M 11.71875 4.742188 " fill-opacity="1" fill-rule="nonzero"/></g></g><g clip-path="url(#bf59e2495a)"><g clip-path="url(#b3669b4511)"><path fill="#1f93ff" d="M 11.71875 4.742188 L 31.300781 4.742188 L 31.300781 24.285156 L 11.71875 24.285156 Z M 11.71875 4.742188 " fill-opacity="1" fill-rule="nonzero"/></g></g><g clip-path="url(#555daa973b)"><g clip-path="url(#4796c15af5)"><path fill="#ffd500" d="M 11.71875 4.742188 L 31.300781 4.742188 L 31.300781 24.285156 L 11.71875 24.285156 Z M 11.71875 4.742188 " fill-opacity="1" fill-rule="nonzero"/></g></g><g clip-path="url(#694586022a)"><g clip-path="url(#2ed722fa6b)"><path fill="#1f93ff" d="M 11.71875 4.742188 L 31.300781 4.742188 L 31.300781 24.285156 L 11.71875 24.285156 Z M 11.71875 4.742188 " fill-opacity="1" fill-rule="nonzero"/></g></g><g clip-path="url(#a36808be20)"><g clip-path="url(#df42432e40)"><path fill="#f266ff" d="M 11.71875 4.742188 L 31.300781 4.742188 L 31.300781 24.285156 L 11.71875 24.285156 Z M 11.71875 4.742188 " fill-opacity="1" fill-rule="nonzero"/></g></g><g clip-path="url(#b5e3afca1a)"><g clip-path="url(#d4ccb59212)"><path fill="#1f93ff" d="M 11.71875 4.742188 L 31.300781 4.742188 L 31.300781 24.285156 L 11.71875 24.285156 Z M 11.71875 4.742188 " fill-opacity="1" fill-rule="nonzero"/></g></g><g clip-path="url(#2656fa8d10)"><g clip-path="url(#ec3f3bc87e)"><path fill="#ffcf00" d="M 11.71875 4.742188 L 31.300781 4.742188 L 31.300781 24.285156 L 11.71875 24.285156 Z M 11.71875 4.742188 " fill-opacity="1" fill-rule="nonzero"/></g></g><g clip-path="url(#b875927723)"><g clip-path="url(#6703f86045)"><path fill="#61d742" d="M 11.71875 4.742188 L 31.300781 4.742188 L 31.300781 24.285156 L 11.71875 24.285156 Z M 11.71875 4.742188 " fill-opacity="1" fill-rule="nonzero"/></g></g><g clip-path="url(#25f2ee8846)"><g clip-path="url(#be1f921ad5)"><path fill="#1f93ff" d="M 11.71875 4.742188 L 31.300781 4.742188 L 31.300781 24.285156 L 11.71875 24.285156 Z M 11.71875 4.742188 " fill-opacity="1" fill-rule="nonzero"/></g></g><g clip-path="url(#d8190e0fbe)"><g clip-path="url(#d6d4828c16)"><path fill="#1f93ff" d="M 11.71875 4.742188 L 31.300781 4.742188 L 31.300781 24.285156 L 11.71875 24.285156 Z M 11.71875 4.742188 " fill-opacity="1" fill-rule="nonzero"/></g></g><g clip-path="url(#41cd62fd5e)"><g clip-path="url(#1380b128de)"><path fill="#ff7a78" d="M 11.71875 4.742188 L 31.300781 4.742188 L 31.300781 24.285156 L 11.71875 24.285156 Z M 11.71875 4.742188 " fill-opacity="1" fill-rule="nonzero"/></g></g><g clip-path="url(#9ec29c62bb)"><g clip-path="url(#edf584a00b)"><path fill="#ffcf00" d="M 11.71875 4.742188 L 31.300781 4.742188 L 31.300781 24.285156 L 11.71875 24.285156 Z M 11.71875 4.742188 " fill-opacity="1" fill-rule="nonzero"/></g></g></svg>