<svg xmlns="http://www.w3.org/2000/svg" xmlns:xlink="http://www.w3.org/1999/xlink" width="82" zoomAndPan="magnify" viewBox="0 0 61.5 73.499996" height="98" preserveAspectRatio="xMidYMid meet" version="1.0"><defs><clipPath id="62d98ef0de"><path d="M 3.535156 9.535156 L 57.46875 9.535156 L 57.46875 63.46875 L 3.535156 63.46875 Z M 3.535156 9.535156 " clip-rule="nonzero"/></clipPath><clipPath id="91568ad5e2"><path d="M 30.503906 9.535156 C 15.609375 9.535156 3.535156 21.609375 3.535156 36.503906 C 3.535156 51.394531 15.609375 63.46875 30.503906 63.46875 C 45.394531 63.46875 57.46875 51.394531 57.46875 36.503906 C 57.46875 21.609375 45.394531 9.535156 30.503906 9.535156 Z M 30.503906 9.535156 " clip-rule="nonzero"/></clipPath><linearGradient x1="-0.000000115661" gradientTransform="matrix(0.210666, 0, 0, 0.210666, 3.536781, 9.536779)" y1="128" x2="255.999995" gradientUnits="userSpaceOnUse" y2="128" id="a092bcf543"><stop stop-opacity="1" stop-color="rgb(0%, 0%, 0%)" offset="0"/><stop stop-opacity="1" stop-color="rgb(0.175476%, 0.175476%, 0.175476%)" offset="0.0078125"/><stop stop-opacity="1" stop-color="rgb(0.526428%, 0.526428%, 0.526428%)" offset="0.015625"/><stop stop-opacity="1" stop-color="rgb(0.878906%, 0.878906%, 0.878906%)" offset="0.0234375"/><stop stop-opacity="1" stop-color="rgb(1.231384%, 1.231384%, 1.231384%)" offset="0.03125"/><stop stop-opacity="1" stop-color="rgb(1.583862%, 1.583862%, 1.583862%)" offset="0.0390625"/><stop stop-opacity="1" stop-color="rgb(1.93634%, 1.93634%, 1.93634%)" offset="0.046875"/><stop stop-opacity="1" stop-color="rgb(2.288818%, 2.288818%, 2.288818%)" offset="0.0546875"/><stop stop-opacity="1" stop-color="rgb(2.641296%, 2.641296%, 2.641296%)" offset="0.0625"/><stop stop-opacity="1" stop-color="rgb(2.993774%, 2.993774%, 2.993774%)" offset="0.0703125"/><stop stop-opacity="1" stop-color="rgb(3.346252%, 3.346252%, 3.346252%)" offset="0.078125"/><stop stop-opacity="1" stop-color="rgb(3.69873%, 3.69873%, 3.69873%)" offset="0.0859375"/><stop stop-opacity="1" stop-color="rgb(4.051208%, 4.051208%, 4.051208%)" offset="0.09375"/><stop stop-opacity="1" stop-color="rgb(4.402161%, 4.402161%, 4.402161%)" offset="0.101562"/><stop stop-opacity="1" stop-color="rgb(4.754639%, 4.754639%, 4.754639%)" offset="0.109375"/><stop stop-opacity="1" stop-color="rgb(5.107117%, 5.107117%, 5.107117%)" offset="0.117188"/><stop stop-opacity="1" stop-color="rgb(5.459595%, 5.459595%, 5.459595%)" offset="0.125"/><stop stop-opacity="1" stop-color="rgb(5.812073%, 5.812073%, 5.812073%)" offset="0.132812"/><stop stop-opacity="1" stop-color="rgb(6.164551%, 6.164551%, 6.164551%)" offset="0.140625"/><stop stop-opacity="1" stop-color="rgb(6.517029%, 6.517029%, 6.517029%)" offset="0.148438"/><stop stop-opacity="1" stop-color="rgb(6.869507%, 6.869507%, 6.869507%)" offset="0.15625"/><stop stop-opacity="1" stop-color="rgb(7.221985%, 7.221985%, 7.221985%)" offset="0.164063"/><stop stop-opacity="1" stop-color="rgb(7.574463%, 7.574463%, 7.574463%)" offset="0.171875"/><stop stop-opacity="1" stop-color="rgb(7.926941%, 7.926941%, 7.926941%)" offset="0.179688"/><stop stop-opacity="1" stop-color="rgb(8.277893%, 8.277893%, 8.277893%)" offset="0.1875"/><stop stop-opacity="1" stop-color="rgb(8.630371%, 8.630371%, 8.630371%)" offset="0.195313"/><stop stop-opacity="1" stop-color="rgb(8.982849%, 8.982849%, 8.982849%)" offset="0.203125"/><stop stop-opacity="1" stop-color="rgb(9.335327%, 9.335327%, 9.335327%)" offset="0.210938"/><stop stop-opacity="1" stop-color="rgb(9.687805%, 9.687805%, 9.687805%)" offset="0.21875"/><stop stop-opacity="1" stop-color="rgb(10.040283%, 10.040283%, 10.040283%)" offset="0.226563"/><stop stop-opacity="1" stop-color="rgb(10.392761%, 10.392761%, 10.392761%)" offset="0.234375"/><stop stop-opacity="1" stop-color="rgb(10.745239%, 10.745239%, 10.745239%)" offset="0.242188"/><stop stop-opacity="1" stop-color="rgb(11.097717%, 11.097717%, 11.097717%)" offset="0.25"/><stop stop-opacity="1" stop-color="rgb(11.450195%, 11.450195%, 11.450195%)" offset="0.257812"/><stop stop-opacity="1" stop-color="rgb(11.802673%, 11.802673%, 11.802673%)" offset="0.265625"/><stop stop-opacity="1" stop-color="rgb(12.155151%, 12.155151%, 12.155151%)" offset="0.273438"/><stop stop-opacity="1" stop-color="rgb(12.506104%, 12.506104%, 12.506104%)" offset="0.28125"/><stop stop-opacity="1" stop-color="rgb(12.858582%, 12.858582%, 12.858582%)" offset="0.289062"/><stop stop-opacity="1" stop-color="rgb(13.21106%, 13.21106%, 13.21106%)" offset="0.296875"/><stop stop-opacity="1" stop-color="rgb(13.563538%, 13.563538%, 13.563538%)" offset="0.304688"/><stop stop-opacity="1" stop-color="rgb(13.916016%, 13.916016%, 13.916016%)" offset="0.3125"/><stop stop-opacity="1" stop-color="rgb(14.268494%, 14.268494%, 14.268494%)" offset="0.320313"/><stop stop-opacity="1" stop-color="rgb(14.620972%, 14.620972%, 14.620972%)" offset="0.328125"/><stop stop-opacity="1" stop-color="rgb(14.97345%, 14.97345%, 14.97345%)" offset="0.335938"/><stop stop-opacity="1" stop-color="rgb(15.325928%, 15.325928%, 15.325928%)" offset="0.34375"/><stop stop-opacity="1" stop-color="rgb(15.678406%, 15.678406%, 15.678406%)" offset="0.351563"/><stop stop-opacity="1" stop-color="rgb(16.030884%, 16.030884%, 16.030884%)" offset="0.359375"/><stop stop-opacity="1" stop-color="rgb(16.381836%, 16.381836%, 16.381836%)" offset="0.367188"/><stop stop-opacity="1" stop-color="rgb(16.734314%, 16.734314%, 16.734314%)" offset="0.375"/><stop stop-opacity="1" stop-color="rgb(17.086792%, 17.086792%, 17.086792%)" offset="0.382813"/><stop stop-opacity="1" stop-color="rgb(17.43927%, 17.43927%, 17.43927%)" offset="0.390625"/><stop stop-opacity="1" stop-color="rgb(17.791748%, 17.791748%, 17.791748%)" offset="0.398438"/><stop stop-opacity="1" stop-color="rgb(18.144226%, 18.144226%, 18.144226%)" offset="0.40625"/><stop stop-opacity="1" stop-color="rgb(18.496704%, 18.496704%, 18.496704%)" offset="0.414063"/><stop stop-opacity="1" stop-color="rgb(18.849182%, 18.849182%, 18.849182%)" offset="0.421875"/><stop stop-opacity="1" stop-color="rgb(19.20166%, 19.20166%, 19.20166%)" offset="0.429688"/><stop stop-opacity="1" stop-color="rgb(19.554138%, 19.554138%, 19.554138%)" offset="0.4375"/><stop stop-opacity="1" stop-color="rgb(19.906616%, 19.906616%, 19.906616%)" offset="0.445312"/><stop stop-opacity="1" stop-color="rgb(20.257568%, 20.257568%, 20.257568%)" offset="0.453125"/><stop stop-opacity="1" stop-color="rgb(20.610046%, 20.610046%, 20.610046%)" offset="0.460938"/><stop stop-opacity="1" stop-color="rgb(20.962524%, 20.962524%, 20.962524%)" offset="0.46875"/><stop stop-opacity="1" stop-color="rgb(21.315002%, 21.315002%, 21.315002%)" offset="0.476562"/><stop stop-opacity="1" stop-color="rgb(21.66748%, 21.66748%, 21.66748%)" offset="0.484375"/><stop stop-opacity="1" stop-color="rgb(22.019958%, 22.019958%, 22.019958%)" offset="0.492188"/><stop stop-opacity="1" stop-color="rgb(22.372437%, 22.372437%, 22.372437%)" offset="0.5"/><stop stop-opacity="1" stop-color="rgb(22.724915%, 22.724915%, 22.724915%)" offset="0.507813"/><stop stop-opacity="1" stop-color="rgb(23.077393%, 23.077393%, 23.077393%)" offset="0.515625"/><stop stop-opacity="1" stop-color="rgb(23.429871%, 23.429871%, 23.429871%)" offset="0.523438"/><stop stop-opacity="1" stop-color="rgb(23.782349%, 23.782349%, 23.782349%)" offset="0.53125"/><stop stop-opacity="1" stop-color="rgb(24.134827%, 24.134827%, 24.134827%)" offset="0.539062"/><stop stop-opacity="1" stop-color="rgb(24.485779%, 24.485779%, 24.485779%)" offset="0.546875"/><stop stop-opacity="1" stop-color="rgb(24.838257%, 24.838257%, 24.838257%)" offset="0.554688"/><stop stop-opacity="1" stop-color="rgb(25.190735%, 25.190735%, 25.190735%)" offset="0.5625"/><stop stop-opacity="1" stop-color="rgb(25.543213%, 25.543213%, 25.543213%)" offset="0.570312"/><stop stop-opacity="1" stop-color="rgb(25.895691%, 25.895691%, 25.895691%)" offset="0.578125"/><stop stop-opacity="1" stop-color="rgb(26.248169%, 26.248169%, 26.248169%)" offset="0.585938"/><stop stop-opacity="1" stop-color="rgb(26.600647%, 26.600647%, 26.600647%)" offset="0.59375"/><stop stop-opacity="1" stop-color="rgb(26.953125%, 26.953125%, 26.953125%)" offset="0.601562"/><stop stop-opacity="1" stop-color="rgb(27.305603%, 27.305603%, 27.305603%)" offset="0.609375"/><stop stop-opacity="1" stop-color="rgb(27.658081%, 27.658081%, 27.658081%)" offset="0.617188"/><stop stop-opacity="1" stop-color="rgb(28.010559%, 28.010559%, 28.010559%)" offset="0.625"/><stop stop-opacity="1" stop-color="rgb(28.361511%, 28.361511%, 28.361511%)" offset="0.632812"/><stop stop-opacity="1" stop-color="rgb(28.713989%, 28.713989%, 28.713989%)" offset="0.640625"/><stop stop-opacity="1" stop-color="rgb(29.066467%, 29.066467%, 29.066467%)" offset="0.648438"/><stop stop-opacity="1" stop-color="rgb(29.418945%, 29.418945%, 29.418945%)" offset="0.65625"/><stop stop-opacity="1" stop-color="rgb(29.771423%, 29.771423%, 29.771423%)" offset="0.664063"/><stop stop-opacity="1" stop-color="rgb(30.123901%, 30.123901%, 30.123901%)" offset="0.671875"/><stop stop-opacity="1" stop-color="rgb(30.476379%, 30.476379%, 30.476379%)" offset="0.679688"/><stop stop-opacity="1" stop-color="rgb(30.828857%, 30.828857%, 30.828857%)" offset="0.6875"/><stop stop-opacity="1" stop-color="rgb(31.181335%, 31.181335%, 31.181335%)" offset="0.695313"/><stop stop-opacity="1" stop-color="rgb(31.533813%, 31.533813%, 31.533813%)" offset="0.703125"/><stop stop-opacity="1" stop-color="rgb(31.886292%, 31.886292%, 31.886292%)" offset="0.710938"/><stop stop-opacity="1" stop-color="rgb(32.237244%, 32.237244%, 32.237244%)" offset="0.71875"/><stop stop-opacity="1" stop-color="rgb(32.589722%, 32.589722%, 32.589722%)" offset="0.726562"/><stop stop-opacity="1" stop-color="rgb(32.9422%, 32.9422%, 32.9422%)" offset="0.734375"/><stop stop-opacity="1" stop-color="rgb(33.294678%, 33.294678%, 33.294678%)" offset="0.742188"/><stop stop-opacity="1" stop-color="rgb(33.647156%, 33.647156%, 33.647156%)" offset="0.75"/><stop stop-opacity="1" stop-color="rgb(33.999634%, 33.999634%, 33.999634%)" offset="0.757812"/><stop stop-opacity="1" stop-color="rgb(34.352112%, 34.352112%, 34.352112%)" offset="0.765625"/><stop stop-opacity="1" stop-color="rgb(34.70459%, 34.70459%, 34.70459%)" offset="0.773438"/><stop stop-opacity="1" stop-color="rgb(35.057068%, 35.057068%, 35.057068%)" offset="0.78125"/><stop stop-opacity="1" stop-color="rgb(35.409546%, 35.409546%, 35.409546%)" offset="0.789063"/><stop stop-opacity="1" stop-color="rgb(35.762024%, 35.762024%, 35.762024%)" offset="0.796875"/><stop stop-opacity="1" stop-color="rgb(36.114502%, 36.114502%, 36.114502%)" offset="0.804688"/><stop stop-opacity="1" stop-color="rgb(36.465454%, 36.465454%, 36.465454%)" offset="0.8125"/><stop stop-opacity="1" stop-color="rgb(36.817932%, 36.817932%, 36.817932%)" offset="0.820313"/><stop stop-opacity="1" stop-color="rgb(37.17041%, 37.17041%, 37.17041%)" offset="0.828125"/><stop stop-opacity="1" stop-color="rgb(37.522888%, 37.522888%, 37.522888%)" offset="0.835938"/><stop stop-opacity="1" stop-color="rgb(37.875366%, 37.875366%, 37.875366%)" offset="0.84375"/><stop stop-opacity="1" stop-color="rgb(38.227844%, 38.227844%, 38.227844%)" offset="0.851562"/><stop stop-opacity="1" stop-color="rgb(38.580322%, 38.580322%, 38.580322%)" offset="0.859375"/><stop stop-opacity="1" stop-color="rgb(38.9328%, 38.9328%, 38.9328%)" offset="0.867188"/><stop stop-opacity="1" stop-color="rgb(39.285278%, 39.285278%, 39.285278%)" offset="0.875"/><stop stop-opacity="1" stop-color="rgb(39.637756%, 39.637756%, 39.637756%)" offset="0.882812"/><stop stop-opacity="1" stop-color="rgb(39.990234%, 39.990234%, 39.990234%)" offset="0.890625"/><stop stop-opacity="1" stop-color="rgb(40.341187%, 40.341187%, 40.341187%)" offset="0.898438"/><stop stop-opacity="1" stop-color="rgb(40.693665%, 40.693665%, 40.693665%)" offset="0.90625"/><stop stop-opacity="1" stop-color="rgb(41.046143%, 41.046143%, 41.046143%)" offset="0.914062"/><stop stop-opacity="1" stop-color="rgb(41.398621%, 41.398621%, 41.398621%)" offset="0.921875"/><stop stop-opacity="1" stop-color="rgb(41.751099%, 41.751099%, 41.751099%)" offset="0.929688"/><stop stop-opacity="1" stop-color="rgb(42.103577%, 42.103577%, 42.103577%)" offset="0.9375"/><stop stop-opacity="1" stop-color="rgb(42.456055%, 42.456055%, 42.456055%)" offset="0.945313"/><stop stop-opacity="1" stop-color="rgb(42.808533%, 42.808533%, 42.808533%)" offset="0.953125"/><stop stop-opacity="1" stop-color="rgb(43.161011%, 43.161011%, 43.161011%)" offset="0.960938"/><stop stop-opacity="1" stop-color="rgb(43.513489%, 43.513489%, 43.513489%)" offset="0.96875"/><stop stop-opacity="1" stop-color="rgb(43.865967%, 43.865967%, 43.865967%)" offset="0.976562"/><stop stop-opacity="1" stop-color="rgb(44.216919%, 44.216919%, 44.216919%)" offset="0.984375"/><stop stop-opacity="1" stop-color="rgb(44.569397%, 44.569397%, 44.569397%)" offset="0.992188"/><stop stop-opacity="1" stop-color="rgb(44.921875%, 44.921875%, 44.921875%)" offset="1"/></linearGradient><clipPath id="62da4b01f1"><path d="M 22.390625 17.804688 L 31.683594 17.804688 L 31.683594 21.269531 L 22.390625 21.269531 Z M 22.390625 17.804688 " clip-rule="nonzero"/></clipPath><clipPath id="7696dbec24"><path d="M 22.40625 19.390625 C 23.285156 18.121094 24.871094 17.53125 26.363281 17.925781 L 31.105469 19.167969 C 31.746094 19.332031 31.835938 20.203125 31.246094 20.5 L 30.203125 21.027344 C 29.769531 21.246094 29.261719 21.292969 28.792969 21.164062 Z M 22.40625 19.390625 " clip-rule="nonzero"/></clipPath><clipPath id="8fcb765ec6"><path d="M 34.261719 31.59375 L 45.105469 31.59375 L 45.105469 46.859375 L 34.261719 46.859375 Z M 34.261719 31.59375 " clip-rule="nonzero"/></clipPath><clipPath id="acd2486dad"><path d="M 35.34375 32.066406 C 36.3125 31.597656 37.199219 31.484375 37.894531 31.890625 C 38.863281 32.460938 39.640625 33.320312 40.132812 34.347656 L 44.789062 44.152344 C 45.132812 44.878906 45.113281 45.730469 44.726562 46.4375 C 44.46875 46.917969 43.777344 46.910156 43.527344 46.425781 L 38.726562 37.113281 C 37.949219 35.601562 36.605469 34.441406 34.992188 33.890625 L 34.867188 33.847656 C 34.195312 33.621094 34.125 32.691406 34.761719 32.367188 Z M 35.34375 32.066406 " clip-rule="nonzero"/></clipPath><clipPath id="2ab5e219a0"><path d="M 17.226562 25.695312 L 49.308594 25.695312 L 49.308594 39.335938 L 17.226562 39.335938 Z M 17.226562 25.695312 " clip-rule="nonzero"/></clipPath><clipPath id="49ced17b85"><path d="M 17.484375 26.527344 C 17.945312 25.855469 18.796875 25.566406 19.574219 25.816406 L 28.945312 28.84375 C 29.40625 28.996094 29.914062 28.960938 30.351562 28.75 L 35.871094 26.097656 C 36.308594 25.886719 36.816406 25.84375 37.285156 25.980469 L 38.554688 26.351562 C 40.671875 26.96875 42.402344 28.527344 43.234375 30.566406 L 44.070312 32.609375 C 44.242188 33.03125 44.664062 33.300781 45.117188 33.277344 L 47.515625 33.164062 C 47.964844 33.140625 48.375 33.417969 48.523438 33.84375 L 48.941406 35.039062 C 49.429688 36.445312 49.304688 38.003906 48.59375 39.3125 L 47.300781 35.921875 C 47.140625 35.5 46.722656 35.222656 46.269531 35.238281 L 43.597656 35.328125 C 43.140625 35.34375 42.714844 35.078125 42.53125 34.65625 L 41.484375 32.296875 C 40.800781 30.757812 39.476562 29.578125 37.863281 29.082031 L 36.597656 28.691406 L 30.167969 31.691406 C 29.726562 31.894531 29.21875 31.921875 28.757812 31.765625 L 18.003906 28.101562 C 17.351562 27.878906 17.09375 27.09375 17.484375 26.527344 " clip-rule="nonzero"/></clipPath><clipPath id="003563cc59"><path d="M 20.175781 20.53125 L 47.167969 20.53125 L 47.167969 31.519531 L 20.175781 31.519531 Z M 20.175781 20.53125 " clip-rule="nonzero"/></clipPath><clipPath id="de8eff9c6b"><path d="M 47.070312 29.671875 C 47.40625 30.632812 46.746094 31.835938 45.84375 31.359375 C 45.621094 31.242188 45.441406 31.046875 45.347656 30.804688 L 44.144531 27.644531 C 43.550781 26.085938 42.242188 24.894531 40.636719 24.449219 L 37.007812 23.441406 C 36.535156 23.3125 36.027344 23.355469 35.585938 23.5625 L 30.097656 26.152344 C 29.65625 26.363281 29.148438 26.398438 28.683594 26.253906 L 20.875 23.847656 C 20.242188 23.652344 19.984375 22.90625 20.359375 22.363281 C 20.808594 21.710938 21.628906 21.417969 22.390625 21.640625 L 28.558594 23.4375 C 29.027344 23.574219 29.53125 23.53125 29.972656 23.320312 L 35.257812 20.765625 C 35.699219 20.550781 36.207031 20.503906 36.679688 20.625 L 41.269531 21.828125 C 43.375 22.378906 45.082031 23.957031 45.800781 26.015625 Z M 47.070312 29.671875 " clip-rule="nonzero"/></clipPath><clipPath id="c1b295b8f9"><path d="M 43.554688 36.976562 L 47.316406 36.976562 L 47.316406 42.65625 L 43.554688 42.65625 Z M 43.554688 36.976562 " clip-rule="nonzero"/></clipPath><clipPath id="2a6c9ef94a"><path d="M 45.085938 36.988281 C 45.539062 36.964844 45.957031 37.234375 46.128906 37.65625 L 47.105469 40.039062 C 47.402344 40.765625 47.355469 41.59375 46.980469 42.285156 C 46.738281 42.730469 46.089844 42.703125 45.882812 42.238281 L 43.589844 37.058594 Z M 45.085938 36.988281 " clip-rule="nonzero"/></clipPath><clipPath id="bc70f7da54"><path d="M 11.769531 34.027344 L 17.375 34.027344 L 17.375 38.820312 L 11.769531 38.820312 Z M 11.769531 34.027344 " clip-rule="nonzero"/></clipPath><clipPath id="ebd9a509b4"><path d="M 12.164062 34.234375 L 12.277344 34.070312 L 16.320312 35.660156 C 16.757812 35.832031 17.078125 36.21875 17.167969 36.683594 L 17.332031 37.550781 C 17.484375 38.351562 16.683594 39.003906 15.929688 38.691406 L 13.136719 37.535156 C 11.835938 36.996094 11.363281 35.394531 12.164062 34.234375 " clip-rule="nonzero"/></clipPath><clipPath id="35177a8a7f"><path d="M 14.277344 30 L 35.664062 30 L 35.664062 50.324219 L 14.277344 50.324219 Z M 14.277344 30 " clip-rule="nonzero"/></clipPath><clipPath id="92c85355d5"><path d="M 14.515625 30.828125 C 14.988281 30.140625 15.871094 29.855469 16.660156 30.136719 L 21.117188 31.730469 C 21.5625 31.886719 21.894531 32.269531 21.988281 32.730469 L 22.980469 37.59375 C 23.074219 38.058594 23.402344 38.445312 23.839844 38.617188 L 30.445312 41.21875 C 32.144531 41.886719 33.597656 43.074219 34.59375 44.605469 L 35.359375 45.78125 C 35.621094 46.1875 35.722656 46.6875 35.628906 47.164062 L 35.042969 50.253906 L 32.914062 47.257812 C 31.910156 45.839844 30.519531 44.734375 28.917969 44.070312 L 21.078125 40.824219 C 20.640625 40.640625 20.324219 40.25 20.242188 39.785156 L 19.347656 34.816406 C 19.265625 34.355469 18.941406 33.96875 18.5 33.800781 L 15.039062 32.496094 C 14.363281 32.242188 14.105469 31.421875 14.515625 30.828125 " clip-rule="nonzero"/></clipPath><clipPath id="752e352844"><path d="M 40.898438 48 L 42.742188 48 L 42.742188 51.136719 L 40.898438 51.136719 Z M 40.898438 48 " clip-rule="nonzero"/></clipPath><clipPath id="ce2d2407cd"><path d="M 42.394531 48.402344 C 42.792969 49.121094 42.796875 49.996094 42.40625 50.71875 C 42.125 51.242188 41.34375 51.289062 41.113281 50.738281 C 40.96875 50.382812 40.921875 49.992188 40.984375 49.613281 L 41.148438 48.578125 C 41.25 47.960938 42.074219 47.820312 42.375 48.363281 Z M 42.394531 48.402344 " clip-rule="nonzero"/></clipPath><clipPath id="17a0e2e046"><path d="M 24.898438 33.511719 L 40.679688 33.511719 L 40.679688 54.898438 L 24.898438 54.898438 Z M 24.898438 33.511719 " clip-rule="nonzero"/></clipPath><clipPath id="cbf01e49e4"><path d="M 35.875 42.097656 C 34.988281 40.625 33.621094 39.488281 32.011719 38.882812 L 25.953125 36.605469 C 25.511719 36.4375 25.1875 36.054688 25.097656 35.589844 L 24.949219 34.832031 C 24.789062 34.007812 25.585938 33.324219 26.375 33.605469 L 33.1875 36.039062 C 35.074219 36.710938 36.660156 38.058594 37.632812 39.8125 L 39.816406 43.746094 C 40.054688 44.175781 40.136719 44.675781 40.050781 45.160156 L 39.09375 50.578125 C 39.011719 51.058594 39.113281 51.554688 39.378906 51.960938 L 40.660156 53.9375 C 40.0625 55.042969 38.511719 55.132812 37.789062 54.105469 L 36.851562 52.777344 C 36.570312 52.378906 36.460938 51.886719 36.546875 51.40625 L 37.542969 45.835938 C 37.632812 45.355469 37.539062 44.855469 37.285156 44.4375 Z M 35.875 42.097656 " clip-rule="nonzero"/></clipPath><clipPath id="888426060d"><path d="M 23.71875 46.492188 L 37.066406 46.492188 L 37.066406 55.265625 L 23.71875 55.265625 Z M 23.71875 46.492188 " clip-rule="nonzero"/></clipPath><clipPath id="6ec0ec5ebc"><path d="M 27.859375 49.179688 C 27.503906 48.828125 27.085938 48.539062 26.625 48.335938 L 23.761719 47.066406 L 24.316406 46.71875 C 24.71875 46.464844 25.222656 46.429688 25.65625 46.621094 L 26.902344 47.175781 C 27.363281 47.378906 27.78125 47.664062 28.144531 48.011719 L 31.34375 51.101562 C 31.707031 51.449219 32.125 51.734375 32.582031 51.941406 L 35.609375 53.304688 L 37.058594 55.199219 L 32.074219 52.953125 C 31.617188 52.746094 31.199219 52.460938 30.839844 52.109375 Z M 27.859375 49.179688 " clip-rule="nonzero"/></clipPath><clipPath id="f423c02888"><path d="M 30.058594 48.554688 L 34.558594 48.554688 L 34.558594 51.875 L 30.058594 51.875 Z M 30.058594 48.554688 " clip-rule="nonzero"/></clipPath><clipPath id="504ecc111e"><path d="M 30.0625 48.578125 L 32.992188 49.878906 L 34.5 51.847656 L 32.9375 51.152344 C 32.480469 50.949219 32.0625 50.65625 31.714844 50.296875 Z M 30.0625 48.578125 " clip-rule="nonzero"/></clipPath><clipPath id="226f09e2b5"><path d="M 17.742188 45.238281 L 29.320312 45.238281 L 29.320312 51.726562 L 17.742188 51.726562 Z M 17.742188 45.238281 " clip-rule="nonzero"/></clipPath><clipPath id="440e19b9b8"><path d="M 29.277344 51.695312 L 22.261719 48.53125 C 20.617188 47.789062 19.132812 46.726562 17.902344 45.40625 L 17.761719 45.253906 L 25.910156 48.929688 C 26.371094 49.136719 26.792969 49.414062 27.164062 49.757812 Z M 29.277344 51.695312 " clip-rule="nonzero"/></clipPath><clipPath id="04ef04d6d4"><path d="M 15.753906 42.214844 L 32 42.214844 L 32 48.480469 L 15.753906 48.480469 Z M 15.753906 42.214844 " clip-rule="nonzero"/></clipPath><clipPath id="69259852bf"><path d="M 15.824219 42.253906 L 21.246094 44.664062 C 21.675781 44.855469 22.179688 44.8125 22.574219 44.550781 L 23.5 43.933594 C 23.894531 43.671875 24.398438 43.625 24.832031 43.8125 L 27.972656 45.140625 C 29.589844 45.828125 30.984375 46.964844 31.984375 48.414062 L 25.253906 45.46875 C 24.816406 45.277344 24.3125 45.3125 23.910156 45.5625 L 23.082031 46.074219 C 22.679688 46.324219 22.175781 46.355469 21.742188 46.164062 L 17.671875 44.351562 C 17.21875 44.148438 16.835938 43.820312 16.566406 43.402344 Z M 15.824219 42.253906 " clip-rule="nonzero"/></clipPath><clipPath id="042b79d1ec"><path d="M 13.761719 39.117188 L 22.757812 39.117188 L 22.757812 43.6875 L 13.761719 43.6875 Z M 13.761719 39.117188 " clip-rule="nonzero"/></clipPath><clipPath id="4a8d8d53eb"><path d="M 13.808594 39.140625 L 22.730469 42.921875 L 22.085938 43.375 C 21.703125 43.648438 21.199219 43.699219 20.769531 43.507812 L 15.699219 41.292969 C 15.246094 41.09375 14.859375 40.765625 14.589844 40.351562 Z M 13.808594 39.140625 " clip-rule="nonzero"/></clipPath></defs><g clip-path="url(#62d98ef0de)"><g clip-path="url(#91568ad5e2)"><path fill="url(#a092bcf543)" d="M 3.535156 9.535156 L 3.535156 63.46875 L 57.46875 63.46875 L 57.46875 9.535156 Z M 3.535156 9.535156 " fill-rule="nonzero"/></g></g><g clip-path="url(#62da4b01f1)"><g clip-path="url(#7696dbec24)"><path fill="#f266ff" d="M 11.402344 17.433594 L 49.601562 17.433594 L 49.601562 55.5625 L 11.402344 55.5625 Z M 11.402344 17.433594 " fill-opacity="1" fill-rule="nonzero"/></g></g><g clip-path="url(#8fcb765ec6)"><g clip-path="url(#acd2486dad)"><path fill="#ff637e" d="M 11.402344 17.433594 L 49.601562 17.433594 L 49.601562 55.5625 L 11.402344 55.5625 Z M 11.402344 17.433594 " fill-opacity="1" fill-rule="nonzero"/></g></g><g clip-path="url(#2ab5e219a0)"><g clip-path="url(#49ced17b85)"><path fill="#00d7be" d="M 11.402344 17.433594 L 49.601562 17.433594 L 49.601562 55.5625 L 11.402344 55.5625 Z M 11.402344 17.433594 " fill-opacity="1" fill-rule="nonzero"/></g></g><g clip-path="url(#003563cc59)"><g clip-path="url(#de8eff9c6b)"><path fill="#1f93ff" d="M 11.402344 17.433594 L 49.601562 17.433594 L 49.601562 55.5625 L 11.402344 55.5625 Z M 11.402344 17.433594 " fill-opacity="1" fill-rule="nonzero"/></g></g><g clip-path="url(#c1b295b8f9)"><g clip-path="url(#2a6c9ef94a)"><path fill="#ffd500" d="M 11.402344 17.433594 L 49.601562 17.433594 L 49.601562 55.5625 L 11.402344 55.5625 Z M 11.402344 17.433594 " fill-opacity="1" fill-rule="nonzero"/></g></g><g clip-path="url(#bc70f7da54)"><g clip-path="url(#ebd9a509b4)"><path fill="#1f93ff" d="M 11.402344 17.433594 L 49.601562 17.433594 L 49.601562 55.5625 L 11.402344 55.5625 Z M 11.402344 17.433594 " fill-opacity="1" fill-rule="nonzero"/></g></g><g clip-path="url(#35177a8a7f)"><g clip-path="url(#92c85355d5)"><path fill="#f266ff" d="M 11.402344 17.433594 L 49.601562 17.433594 L 49.601562 55.5625 L 11.402344 55.5625 Z M 11.402344 17.433594 " fill-opacity="1" fill-rule="nonzero"/></g></g><g clip-path="url(#752e352844)"><g clip-path="url(#ce2d2407cd)"><path fill="#1f93ff" d="M 11.402344 17.433594 L 49.601562 17.433594 L 49.601562 55.5625 L 11.402344 55.5625 Z M 11.402344 17.433594 " fill-opacity="1" fill-rule="nonzero"/></g></g><g clip-path="url(#17a0e2e046)"><g clip-path="url(#cbf01e49e4)"><path fill="#ffcf00" d="M 11.402344 17.433594 L 49.601562 17.433594 L 49.601562 55.5625 L 11.402344 55.5625 Z M 11.402344 17.433594 " fill-opacity="1" fill-rule="nonzero"/></g></g><g clip-path="url(#888426060d)"><g clip-path="url(#6ec0ec5ebc)"><path fill="#61d742" d="M 11.402344 17.433594 L 49.601562 17.433594 L 49.601562 55.5625 L 11.402344 55.5625 Z M 11.402344 17.433594 " fill-opacity="1" fill-rule="nonzero"/></g></g><g clip-path="url(#f423c02888)"><g clip-path="url(#504ecc111e)"><path fill="#1f93ff" d="M 11.402344 17.433594 L 49.601562 17.433594 L 49.601562 55.5625 L 11.402344 55.5625 Z M 11.402344 17.433594 " fill-opacity="1" fill-rule="nonzero"/></g></g><g clip-path="url(#226f09e2b5)"><g clip-path="url(#440e19b9b8)"><path fill="#1f93ff" d="M 11.402344 17.433594 L 49.601562 17.433594 L 49.601562 55.5625 L 11.402344 55.5625 Z M 11.402344 17.433594 " fill-opacity="1" fill-rule="nonzero"/></g></g><g clip-path="url(#04ef04d6d4)"><g clip-path="url(#69259852bf)"><path fill="#ff7a78" d="M 11.402344 17.433594 L 49.601562 17.433594 L 49.601562 55.5625 L 11.402344 55.5625 Z M 11.402344 17.433594 " fill-opacity="1" fill-rule="nonzero"/></g></g><g clip-path="url(#042b79d1ec)"><g clip-path="url(#4a8d8d53eb)"><path fill="#ffcf00" d="M 11.402344 17.433594 L 49.601562 17.433594 L 49.601562 55.5625 L 11.402344 55.5625 Z M 11.402344 17.433594 " fill-opacity="1" fill-rule="nonzero"/></g></g></svg>