<?xml version="1.0" encoding="utf-8"?>
<!-- Generator: Adobe Illustrator 28.0.0, SVG Export Plug-In . SVG Version: 6.00 Build 0)  -->
<svg version="1.1" id="Logo_Library" xmlns="http://www.w3.org/2000/svg" xmlns:xlink="http://www.w3.org/1999/xlink" x="0px"
	 y="0px" viewBox="0 0 907.5 591.9" style="enable-background:new 0 0 907.5 591.9;" xml:space="preserve">
<style type="text/css">
	.st0{fill:#00ACE5;}
	.st1{fill:url(#SVGID_1_);}
	.st2{fill:url(#SVGID_00000053515575817780124020000001201307831262587012_);}
</style>
<g>
	<g>
		<path d="M58.7,445.9v-113h30.4v113H58.7z"/>
		<path d="M183,445.9l-39.2-67.1v67.1h-29.5v-113h34.4l35.2,61.4v-61.4h29.6v113H183z"/>
		<path d="M292,361.1v84.8h-30v-84.8h-32.5v-28.2h95.1v28.2H292z"/>
		<path d="M340.6,445.9v-113H413v25.8h-42.7v17.9h38.9v24.9h-38.9v18.2h43v26.3H340.6z"/>
		<path d="M434.5,445.9v-113h47.7c23,0,37.9,15.3,37.9,36.3c0,15.3-8.4,26.6-20.9,31.6l21.4,45.1h-32.4l-17.9-41h-6.2v41H434.5z
			 M476.6,382c8.9,0,13.5-5.1,13.5-12.3s-4.6-12.1-13.5-12.1h-12.4V382H476.6z"/>
		<path d="M608.2,445.9L569,378.8v67.1h-29.5v-113H574l35.2,61.4v-61.4h29.6v113H608.2z"/>
		<path d="M664,445.9v-113h72.4v25.8h-42.7v17.9h38.9v24.9h-38.9v18.2h43v26.3H664z"/>
		<path d="M816.1,361.1v84.8h-30v-84.8h-32.5v-28.2h95.1v28.2H816.1z"/>
	</g>
	<g>
		<path d="M30.9,532.9c0,18.8,13.4,29.6,27.1,29.6c15.6,0,22.3-9.7,24.7-17.7l28.1,8.1c-4.5,16.7-19.4,38.7-52.9,38.7
			C26.5,591.7,0,568.9,0,533.1c0-36,26.9-59.1,57.5-59.1c32.5,0,47.3,19.8,52,36.7L81.9,520c-2.1-7.5-8.1-17.4-24.1-17.4
			C45.1,502.6,30.9,512.3,30.9,532.9z"/>
		<path d="M178.3,473.9c31.1,0,58,22.3,58,59c0,36.7-26.9,59-58,59s-58-22.3-58-59C120.3,496.2,147.3,473.9,178.3,473.9z M178.3,563
			c13.2,0,27.3-9.4,27.3-30.3c0-20.6-14-30-27.3-30s-27.3,9.4-27.3,30C151.1,553.6,165.1,563,178.3,563z"/>
		<path d="M354.5,589.3v-70l-24.7,70h-23.6l-24.5-69.2v69.2h-28.4v-113H293l25.3,68.9l24.2-68.9h40.8v113H354.5z"/>
		<path d="M438.2,550.8v38.6h-29.6v-113h45.1c23.6,0,39.7,15.5,39.7,37.3c0,22.3-16.1,37.1-39.7,37.1H438.2z M449.8,526.1
			c7.8,0,13.5-4.6,13.5-12.3c0-8-5.7-12.4-13.5-12.4h-11.5v24.7H449.8z"/>
		<path d="M508.8,547.9v-71.6h29.8v70.6c0,11.2,5.7,17.1,15.6,17.1s15.5-5.9,15.5-17.1v-70.6h29.8v71.6c0,28.4-19,44-45.3,44
			S508.8,576.3,508.8,547.9z"/>
		<path d="M677.9,504.5v84.8h-30v-84.8h-32.5v-28.2h95.1v28.2H677.9z"/>
		<path d="M726.5,589.3v-113h72.4v25.8h-42.7V520H795v24.9h-38.9V563h43v26.3H726.5z"/>
		<path d="M821.4,589.3v-113H869c23,0,37.9,15.3,37.9,36.3c0,15.3-8.4,26.6-20.9,31.6l21.4,45.1h-32.4l-17.9-41H851v41H821.4z
			 M863.5,525.4c8.9,0,13.5-5.1,13.5-12.3c0-7.2-4.6-12.1-13.5-12.1H851v24.4H863.5z"/>
	</g>
	<g>
		<path class="st0" d="M638.7,226c-39.3,0-80.8-25.7-101.2-44.4c-22.3-20.4-83.5-86.8-83.8-87.1C413.6,49.7,359.6,0,305.7,0
			c-64.9,0-121.4,44.9-136.2,104.4c1.1-3.9,21.7-58.4,99.2-58.4c39.3,0,80.8,25.7,101.2,44.4c22.3,20.4,83.5,86.8,83.8,87.1
			c40.2,44.8,94.1,94.5,148,94.5c64.9,0,121.4-44.9,136.2-104.4C736.8,171.5,716.1,226,638.7,226z"/>
		<linearGradient id="SVGID_1_" gradientUnits="userSpaceOnUse" x1="378.3026" y1="254.2084" x2="188.8596" y2="58.0344">
			<stop  offset="0.2195" style="stop-color:#FF0079"/>
			<stop  offset="0.892" style="stop-color:#592489"/>
		</linearGradient>
		<path class="st1" d="M453.7,177.5c-0.1-0.2-17.8-19.3-37.5-40.1c-10.7,12.7-26.1,30-43.8,45.5c-33,28.9-54.4,35-66.7,35
			c-46.3,0-84-36.7-84-81.8c0-44.8,37.7-81.5,84-81.8c1.7,0,3.7,0.2,6.2,0.6C298,49.5,283.2,46,268.7,46c-77.4,0-98,54.5-99.2,58.4
			c0,0,0,0,0,0c-2.5,10.1-3.8,20.7-3.8,31.6c0,75,61.9,136,139,136c32.2,0,68.2-16.5,105.3-49c17.5-15.4,32.7-31.8,44.2-45
			C454,177.8,453.9,177.6,453.7,177.5z"/>
		
			<linearGradient id="SVGID_00000003079856868211145840000015302543874293283509_" gradientUnits="userSpaceOnUse" x1="401.1302" y1="14746.5801" x2="211.6871" y2="14550.4053" gradientTransform="matrix(-1 0 0 -1 930.1557 14764.4893)">
			<stop  offset="0.21" style="stop-color:#FF4B00"/>
			<stop  offset="0.6841" style="stop-color:#FFAB00"/>
		</linearGradient>
		<path style="fill:url(#SVGID_00000003079856868211145840000015302543874293283509_);" d="M453.7,94.5c0.1,0.2,17.8,19.3,37.5,40.1
			c10.7-12.7,26.1-30,43.8-45.5c33-28.9,54.4-35,66.7-35c46.3,0,84,36.7,84,81.8c0,44.8-37.7,81.5-84,81.8c-1.7,0-3.7-0.2-6.2-0.6
			c13.9,5.3,28.7,8.8,43.2,8.8c77.4,0,98-54.5,99.2-58.4c0,0,0,0,0,0c2.5-10.1,3.8-20.7,3.8-31.6c0-75-62.9-136-140-136
			c-32.2,0-67.2,16.5-104.3,49c-17.5,15.4-32.7,31.8-44.2,45C453.4,94.2,453.6,94.4,453.7,94.5z"/>
	</g>
</g>
</svg>
