<svg xmlns="http://www.w3.org/2000/svg" xmlns:xlink="http://www.w3.org/1999/xlink" width="162" zoomAndPan="magnify" viewBox="0 0 121.5 121.499994" height="162" preserveAspectRatio="xMidYMid meet" version="1.0"><defs><filter x="0%" y="0%" width="100%" height="100%" id="6981758704"><feColorMatrix values="0 0 0 0 1 0 0 0 0 1 0 0 0 0 1 0 0 0 1 0" color-interpolation-filters="sRGB"/></filter><mask id="0cdc2fb33a"><g filter="url(#6981758704)"><rect x="-12.15" width="145.8" fill="#000000" y="-12.149999" height="145.799993" fill-opacity="0.5"/></g></mask><clipPath id="9a1fadcc50"><path d="M 24.054688 1.285156 L 44 1.285156 L 44 8.738281 L 24.054688 8.738281 Z M 24.054688 1.285156 " clip-rule="nonzero"/></clipPath><clipPath id="bec1c6cd9d"><path d="M 24.09375 4.699219 C 25.976562 1.96875 29.390625 0.699219 32.597656 1.542969 L 42.800781 4.214844 C 44.175781 4.574219 44.371094 6.445312 43.101562 7.085938 L 40.859375 8.214844 C 39.921875 8.6875 38.835938 8.792969 37.824219 8.511719 Z M 24.09375 4.699219 " clip-rule="nonzero"/></clipPath><clipPath id="eb2f6d977e"><path d="M 49.589844 31 L 72.90625 31 L 72.90625 63.777344 L 49.589844 63.777344 Z M 49.589844 31 " clip-rule="nonzero"/></clipPath><clipPath id="acafb8e76f"><path d="M 51.917969 31.960938 C 54 30.953125 55.910156 30.707031 57.40625 31.585938 C 59.484375 32.804688 61.160156 34.660156 62.210938 36.867188 L 72.230469 57.953125 C 72.972656 59.515625 72.921875 61.351562 72.097656 62.871094 C 71.542969 63.902344 70.058594 63.886719 69.519531 62.84375 L 59.195312 42.816406 C 57.515625 39.5625 54.625 37.066406 51.15625 35.886719 L 50.894531 35.796875 C 49.441406 35.300781 49.296875 33.308594 50.660156 32.605469 Z M 51.917969 31.960938 " clip-rule="nonzero"/></clipPath><clipPath id="b2130aacec"><path d="M 13 18.257812 L 81.949219 18.257812 L 81.949219 47.601562 L 13 47.601562 Z M 13 18.257812 " clip-rule="nonzero"/></clipPath><clipPath id="96a1527e8b"><path d="M 13.5 20.042969 C 14.496094 18.601562 16.328125 17.980469 17.992188 18.519531 L 38.148438 25.03125 C 39.144531 25.355469 40.234375 25.28125 41.179688 24.828125 L 53.046875 19.125 C 53.992188 18.667969 55.082031 18.578125 56.089844 18.871094 L 58.824219 19.667969 C 63.375 20.996094 67.09375 24.347656 68.886719 28.734375 L 70.683594 33.132812 C 71.054688 34.039062 71.960938 34.613281 72.933594 34.566406 L 78.09375 34.320312 C 79.058594 34.273438 79.945312 34.871094 80.265625 35.785156 L 81.15625 38.351562 C 82.210938 41.378906 81.941406 44.730469 80.410156 47.546875 L 77.632812 40.253906 C 77.285156 39.34375 76.394531 38.75 75.417969 38.78125 L 69.664062 38.972656 C 68.679688 39.007812 67.769531 38.4375 67.371094 37.535156 L 65.121094 32.460938 C 63.65625 29.144531 60.804688 26.613281 57.335938 25.542969 L 54.609375 24.703125 L 40.78125 31.152344 C 39.832031 31.59375 38.742188 31.652344 37.75 31.316406 L 14.621094 23.429688 C 13.214844 22.953125 12.660156 21.265625 13.5 20.042969 " clip-rule="nonzero"/></clipPath><clipPath id="e1e24a1eb9"><path d="M 19.292969 7.152344 L 77.347656 7.152344 L 77.347656 30.785156 L 19.292969 30.785156 Z M 19.292969 7.152344 " clip-rule="nonzero"/></clipPath><clipPath id="686769d57d"><path d="M 77.140625 26.808594 C 77.859375 28.878906 76.4375 31.46875 74.496094 30.441406 C 74.019531 30.191406 73.636719 29.769531 73.433594 29.246094 L 70.847656 22.453125 C 69.570312 19.101562 66.753906 16.535156 63.296875 15.578125 L 55.492188 13.410156 C 54.476562 13.128906 53.390625 13.222656 52.4375 13.671875 L 40.628906 19.242188 C 39.683594 19.691406 38.59375 19.769531 37.589844 19.457031 L 20.792969 14.285156 C 19.4375 13.867188 18.878906 12.257812 19.683594 11.089844 C 20.648438 9.6875 22.417969 9.058594 24.050781 9.535156 L 37.320312 13.402344 C 38.328125 13.699219 39.414062 13.605469 40.363281 13.148438 L 51.734375 7.652344 C 52.683594 7.191406 53.769531 7.085938 54.785156 7.355469 L 64.65625 9.9375 C 69.191406 11.128906 72.863281 14.519531 74.402344 18.945312 Z M 77.140625 26.808594 " clip-rule="nonzero"/></clipPath><clipPath id="ac0f70ea6b"><path d="M 69.578125 42.523438 L 77.664062 42.523438 L 77.664062 54.738281 L 69.578125 54.738281 Z M 69.578125 42.523438 " clip-rule="nonzero"/></clipPath><clipPath id="545b6e5ac4"><path d="M 72.863281 42.546875 C 73.839844 42.5 74.746094 43.078125 75.117188 43.984375 L 77.210938 49.105469 C 77.847656 50.667969 77.75 52.449219 76.945312 53.9375 C 76.425781 54.898438 75.03125 54.839844 74.585938 53.84375 L 69.652344 42.699219 Z M 72.863281 42.546875 " clip-rule="nonzero"/></clipPath><clipPath id="89c16023a6"><path d="M 1.210938 36.179688 L 13.265625 36.179688 L 13.265625 46.488281 L 1.210938 46.488281 Z M 1.210938 36.179688 " clip-rule="nonzero"/></clipPath><clipPath id="b09745a367"><path d="M 2.058594 36.625 L 2.304688 36.265625 L 10.996094 39.6875 C 11.9375 40.058594 12.632812 40.894531 12.820312 41.890625 L 13.171875 43.753906 C 13.5 45.480469 11.777344 46.878906 10.15625 46.207031 L 4.152344 43.722656 C 1.351562 42.5625 0.335938 39.121094 2.058594 36.625 " clip-rule="nonzero"/></clipPath><clipPath id="f62b2a580e"><path d="M 6.605469 27.457031 L 52.605469 27.457031 L 52.605469 71.234375 L 6.605469 71.234375 Z M 6.605469 27.457031 " clip-rule="nonzero"/></clipPath><clipPath id="48b170d709"><path d="M 7.113281 29.300781 C 8.136719 27.820312 10.035156 27.207031 11.726562 27.8125 L 21.320312 31.238281 C 22.273438 31.578125 22.984375 32.394531 23.1875 33.386719 L 25.324219 43.851562 C 25.527344 44.847656 26.226562 45.679688 27.171875 46.050781 L 41.375 51.640625 C 45.03125 53.082031 48.160156 55.636719 50.300781 58.929688 L 51.945312 61.457031 C 52.515625 62.335938 52.726562 63.40625 52.53125 64.433594 L 51.269531 71.082031 L 46.691406 64.632812 C 44.53125 61.589844 41.542969 59.207031 38.09375 57.78125 L 21.234375 50.796875 C 20.292969 50.40625 19.613281 49.5625 19.433594 48.558594 L 17.511719 37.875 C 17.332031 36.878906 16.636719 36.046875 15.691406 35.691406 L 8.238281 32.890625 C 6.785156 32.34375 6.234375 30.578125 7.113281 29.300781 " clip-rule="nonzero"/></clipPath><clipPath id="6e754f29d5"><path d="M 63.867188 66.160156 L 67.832031 66.160156 L 67.832031 72.980469 L 63.867188 72.980469 Z M 63.867188 66.160156 " clip-rule="nonzero"/></clipPath><clipPath id="db24515c10"><path d="M 67.082031 67.097656 C 67.9375 68.640625 67.949219 70.527344 67.105469 72.082031 C 66.496094 73.207031 64.816406 73.300781 64.324219 72.121094 C 64.007812 71.359375 63.910156 70.519531 64.042969 69.699219 L 64.402344 67.476562 C 64.621094 66.148438 66.390625 65.839844 67.039062 67.015625 Z M 67.082031 67.097656 " clip-rule="nonzero"/></clipPath><clipPath id="ba44de6259"><path d="M 29.445312 35.070312 L 63.390625 35.070312 L 63.390625 81 L 29.445312 81 Z M 29.445312 35.070312 " clip-rule="nonzero"/></clipPath><clipPath id="821ea7ff08"><path d="M 53.058594 53.535156 C 51.144531 50.371094 48.210938 47.925781 44.746094 46.621094 L 31.71875 41.722656 C 30.769531 41.363281 30.070312 40.539062 29.875 39.542969 L 29.558594 37.910156 C 29.210938 36.140625 30.921875 34.667969 32.625 35.273438 L 47.277344 40.503906 C 51.339844 41.953125 54.75 44.847656 56.839844 48.621094 L 61.53125 57.082031 C 62.042969 58.003906 62.226562 59.082031 62.042969 60.121094 L 59.984375 71.773438 C 59.800781 72.804688 60.019531 73.875 60.589844 74.753906 L 63.351562 79.003906 C 62.066406 81.378906 58.730469 81.574219 57.171875 79.367188 L 55.152344 76.503906 C 54.550781 75.652344 54.316406 74.589844 54.5 73.5625 L 56.648438 61.574219 C 56.835938 60.539062 56.636719 59.46875 56.09375 58.566406 Z M 53.058594 53.535156 " clip-rule="nonzero"/></clipPath><clipPath id="fc2143921f"><path d="M 27 63 L 55.617188 63 L 55.617188 81.863281 L 27 81.863281 Z M 27 63 " clip-rule="nonzero"/></clipPath><clipPath id="c8a94c392d"><path d="M 35.820312 68.769531 C 35.050781 68.011719 34.152344 67.394531 33.164062 66.957031 L 27.003906 64.222656 L 28.195312 63.472656 C 29.058594 62.929688 30.144531 62.851562 31.074219 63.265625 L 33.757812 64.457031 C 34.746094 64.894531 35.652344 65.507812 36.429688 66.253906 L 43.3125 72.898438 C 44.089844 73.648438 44.992188 74.261719 45.980469 74.707031 L 52.488281 77.644531 L 55.601562 81.714844 L 44.886719 76.886719 C 43.902344 76.441406 43 75.828125 42.230469 75.070312 Z M 35.820312 68.769531 " clip-rule="nonzero"/></clipPath><clipPath id="29f7747d9c"><path d="M 40.550781 67.425781 L 50.226562 67.425781 L 50.226562 74.566406 L 40.550781 74.566406 Z M 40.550781 67.425781 " clip-rule="nonzero"/></clipPath><clipPath id="80fb37c7ff"><path d="M 40.554688 67.472656 L 46.859375 70.273438 L 50.097656 74.507812 L 46.738281 73.011719 C 45.753906 72.574219 44.859375 71.945312 44.113281 71.167969 Z M 40.554688 67.472656 " clip-rule="nonzero"/></clipPath><clipPath id="15176e1cea"><path d="M 14.058594 60.289062 L 38.964844 60.289062 L 38.964844 74.246094 L 14.058594 74.246094 Z M 14.058594 60.289062 " clip-rule="nonzero"/></clipPath><clipPath id="ea8429d21c"><path d="M 38.871094 74.175781 L 23.777344 67.375 C 20.238281 65.777344 17.046875 63.488281 14.402344 60.648438 L 14.097656 60.324219 L 31.625 68.230469 C 32.613281 68.675781 33.523438 69.277344 34.320312 70.007812 Z M 38.871094 74.175781 " clip-rule="nonzero"/></clipPath><clipPath id="a73ff6cf92"><path d="M 9.777344 53.785156 L 44.832031 53.785156 L 44.832031 67.269531 L 9.777344 67.269531 Z M 9.777344 53.785156 " clip-rule="nonzero"/></clipPath><clipPath id="2236a96ff9"><path d="M 9.929688 53.875 L 21.589844 59.050781 C 22.519531 59.464844 23.597656 59.371094 24.445312 58.8125 L 26.441406 57.488281 C 27.289062 56.925781 28.371094 56.824219 29.308594 57.222656 L 36.058594 60.082031 C 39.539062 61.558594 42.542969 64.003906 44.6875 67.117188 L 30.210938 60.785156 C 29.273438 60.378906 28.191406 60.453125 27.320312 60.988281 L 25.542969 62.085938 C 24.671875 62.621094 23.589844 62.695312 22.65625 62.28125 L 13.90625 58.382812 C 12.933594 57.949219 12.105469 57.238281 11.527344 56.34375 Z M 9.929688 53.875 " clip-rule="nonzero"/></clipPath><clipPath id="fdff22d499"><path d="M 5.496094 47.125 L 24.847656 47.125 L 24.847656 56.957031 L 5.496094 56.957031 Z M 5.496094 47.125 " clip-rule="nonzero"/></clipPath><clipPath id="cacfd61ec4"><path d="M 5.59375 47.171875 L 24.789062 55.304688 L 23.402344 56.285156 C 22.574219 56.867188 21.496094 56.980469 20.566406 56.574219 L 9.664062 51.804688 C 8.6875 51.378906 7.855469 50.671875 7.277344 49.777344 Z M 5.59375 47.171875 " clip-rule="nonzero"/></clipPath><clipPath id="7987c74a9c"><rect x="0" width="83" y="0" height="83"/></clipPath></defs><g mask="url(#0cdc2fb33a)"><g transform="matrix(1, 0, 0, 1, 19, 19)"><g clip-path="url(#7987c74a9c)"><g clip-path="url(#9a1fadcc50)"><g clip-path="url(#bec1c6cd9d)"><path fill="#f266ff" d="M 0.417969 0.492188 L 82.582031 0.492188 L 82.582031 82.496094 L 0.417969 82.496094 Z M 0.417969 0.492188 " fill-opacity="1" fill-rule="nonzero"/></g></g><g clip-path="url(#eb2f6d977e)"><g clip-path="url(#acafb8e76f)"><path fill="#ff637e" d="M 0.417969 0.492188 L 82.582031 0.492188 L 82.582031 82.496094 L 0.417969 82.496094 Z M 0.417969 0.492188 " fill-opacity="1" fill-rule="nonzero"/></g></g><g clip-path="url(#b2130aacec)"><g clip-path="url(#96a1527e8b)"><path fill="#00d7be" d="M 0.417969 0.492188 L 82.582031 0.492188 L 82.582031 82.496094 L 0.417969 82.496094 Z M 0.417969 0.492188 " fill-opacity="1" fill-rule="nonzero"/></g></g><g clip-path="url(#e1e24a1eb9)"><g clip-path="url(#686769d57d)"><path fill="#1f93ff" d="M 0.417969 0.492188 L 82.582031 0.492188 L 82.582031 82.496094 L 0.417969 82.496094 Z M 0.417969 0.492188 " fill-opacity="1" fill-rule="nonzero"/></g></g><g clip-path="url(#ac0f70ea6b)"><g clip-path="url(#545b6e5ac4)"><path fill="#ffd500" d="M 0.417969 0.492188 L 82.582031 0.492188 L 82.582031 82.496094 L 0.417969 82.496094 Z M 0.417969 0.492188 " fill-opacity="1" fill-rule="nonzero"/></g></g><g clip-path="url(#89c16023a6)"><g clip-path="url(#b09745a367)"><path fill="#1f93ff" d="M 0.417969 0.492188 L 82.582031 0.492188 L 82.582031 82.496094 L 0.417969 82.496094 Z M 0.417969 0.492188 " fill-opacity="1" fill-rule="nonzero"/></g></g><g clip-path="url(#f62b2a580e)"><g clip-path="url(#48b170d709)"><path fill="#f266ff" d="M 0.417969 0.492188 L 82.582031 0.492188 L 82.582031 82.496094 L 0.417969 82.496094 Z M 0.417969 0.492188 " fill-opacity="1" fill-rule="nonzero"/></g></g><g clip-path="url(#6e754f29d5)"><g clip-path="url(#db24515c10)"><path fill="#1f93ff" d="M 0.417969 0.492188 L 82.582031 0.492188 L 82.582031 82.496094 L 0.417969 82.496094 Z M 0.417969 0.492188 " fill-opacity="1" fill-rule="nonzero"/></g></g><g clip-path="url(#ba44de6259)"><g clip-path="url(#821ea7ff08)"><path fill="#ffcf00" d="M 0.417969 0.492188 L 82.582031 0.492188 L 82.582031 82.496094 L 0.417969 82.496094 Z M 0.417969 0.492188 " fill-opacity="1" fill-rule="nonzero"/></g></g><g clip-path="url(#fc2143921f)"><g clip-path="url(#c8a94c392d)"><path fill="#61d742" d="M 0.417969 0.492188 L 82.582031 0.492188 L 82.582031 82.496094 L 0.417969 82.496094 Z M 0.417969 0.492188 " fill-opacity="1" fill-rule="nonzero"/></g></g><g clip-path="url(#29f7747d9c)"><g clip-path="url(#80fb37c7ff)"><path fill="#1f93ff" d="M 0.417969 0.492188 L 82.582031 0.492188 L 82.582031 82.496094 L 0.417969 82.496094 Z M 0.417969 0.492188 " fill-opacity="1" fill-rule="nonzero"/></g></g><g clip-path="url(#15176e1cea)"><g clip-path="url(#ea8429d21c)"><path fill="#1f93ff" d="M 0.417969 0.492188 L 82.582031 0.492188 L 82.582031 82.496094 L 0.417969 82.496094 Z M 0.417969 0.492188 " fill-opacity="1" fill-rule="nonzero"/></g></g><g clip-path="url(#a73ff6cf92)"><g clip-path="url(#2236a96ff9)"><path fill="#ff7a78" d="M 0.417969 0.492188 L 82.582031 0.492188 L 82.582031 82.496094 L 0.417969 82.496094 Z M 0.417969 0.492188 " fill-opacity="1" fill-rule="nonzero"/></g></g><g clip-path="url(#fdff22d499)"><g clip-path="url(#cacfd61ec4)"><path fill="#ffcf00" d="M 0.417969 0.492188 L 82.582031 0.492188 L 82.582031 82.496094 L 0.417969 82.496094 Z M 0.417969 0.492188 " fill-opacity="1" fill-rule="nonzero"/></g></g></g></g></g></svg>