<svg xmlns="http://www.w3.org/2000/svg" xmlns:xlink="http://www.w3.org/1999/xlink" width="162" zoomAndPan="magnify" viewBox="0 0 121.5 121.499994" height="162" preserveAspectRatio="xMidYMid meet" version="1.0"><defs><filter x="0%" y="0%" width="100%" height="100%" id="751157c162"><feColorMatrix values="0 0 0 0 1 0 0 0 0 1 0 0 0 0 1 0 0 0 1 0" color-interpolation-filters="sRGB"/></filter><mask id="6b488567e3"><g filter="url(#751157c162)"><rect x="-12.15" width="145.8" fill="#000000" y="-12.149999" height="145.799993" fill-opacity="0.5"/></g></mask><clipPath id="6139083b51"><path d="M 1 1.195312 L 42 1.195312 L 42 43 L 1 43 Z M 1 1.195312 " clip-rule="nonzero"/></clipPath><clipPath id="04ca6ef5f3"><path d="M 1 47 L 53 47 L 53 87.835938 L 1 87.835938 Z M 1 47 " clip-rule="nonzero"/></clipPath><clipPath id="7772012a36"><path d="M 34 1.195312 L 85.972656 1.195312 L 85.972656 42 L 34 42 Z M 34 1.195312 " clip-rule="nonzero"/></clipPath><clipPath id="03a0cae0f2"><path d="M 45 46 L 85.972656 46 L 85.972656 87.835938 L 45 87.835938 Z M 45 46 " clip-rule="nonzero"/></clipPath><clipPath id="c21454d61d"><rect x="0" width="87" y="0" height="88"/></clipPath></defs><g mask="url(#6b488567e3)"><g transform="matrix(1, 0, 0, 1, 17, 16)"><g clip-path="url(#c21454d61d)"><g clip-path="url(#6139083b51)"><path fill="#9823c6" d="M 27.222656 27.988281 C 28.21875 26.972656 28.945312 26.015625 29.414062 25.117188 L 41.144531 3.269531 C 41.628906 2.371094 41.730469 1.785156 41.433594 1.503906 C 41.164062 1.207031 40.578125 1.304688 39.679688 1.800781 L 18.355469 13.820312 C 17.460938 14.339844 16.535156 15.085938 15.578125 16.0625 C 14.582031 17.078125 13.855469 18.035156 13.386719 18.929688 L 1.628906 40.722656 C 1.121094 41.617188 1.015625 42.214844 1.304688 42.515625 C 1.578125 42.796875 2.160156 42.683594 3.058594 42.1875 L 24.4375 30.230469 C 25.335938 29.710938 26.261719 28.964844 27.21875 27.988281 Z M 27.222656 27.988281 " fill-opacity="1" fill-rule="evenodd"/></g><path fill="#ffc34e" d="M 76.71875 36.171875 C 76.5625 35.019531 76.125 34.070312 75.402344 33.332031 L 54.375 11.855469 C 53.652344 11.121094 52.871094 10.808594 52.035156 10.929688 C 51.175781 11.050781 50.503906 11.566406 50.015625 12.484375 L 38.257812 34.289062 C 37.769531 35.183594 37.613281 36.222656 37.789062 37.398438 C 37.945312 38.550781 38.375 39.5 39.074219 40.238281 L 60.105469 61.695312 C 60.808594 62.433594 61.585938 62.730469 62.445312 62.589844 C 63.300781 62.46875 63.972656 61.964844 64.460938 61.066406 L 76.21875 39.277344 C 76.707031 38.359375 76.875 37.324219 76.71875 36.167969 Z M 76.71875 36.171875 " fill-opacity="1" fill-rule="evenodd"/><g clip-path="url(#04ca6ef5f3)"><path fill="#ff3e3c" d="M 52.082031 73.058594 C 52.214844 72.183594 51.925781 71.386719 51.203125 70.667969 L 30.1875 49.175781 C 29.46875 48.460938 28.542969 48.023438 27.410156 47.863281 C 26.261719 47.683594 25.246094 47.84375 24.371094 48.339844 L 3.019531 60.355469 C 2.140625 60.855469 1.644531 61.542969 1.527344 62.417969 C 1.394531 63.277344 1.683594 64.070312 2.40625 64.808594 L 23.433594 86.300781 C 24.15625 87.035156 25.082031 87.484375 26.210938 87.644531 C 27.34375 87.804688 28.355469 87.636719 29.253906 87.136719 L 50.574219 75.121094 C 51.453125 74.621094 51.949219 73.9375 52.066406 73.058594 Z M 52.082031 73.058594 " fill-opacity="1" fill-rule="evenodd"/></g><g clip-path="url(#7772012a36)"><path fill="#26c4ff" d="M 85.121094 26.613281 C 85.238281 25.738281 84.945312 24.929688 84.242188 24.191406 L 63.214844 2.734375 C 62.511719 1.996094 61.597656 1.546875 60.464844 1.386719 C 59.316406 1.226562 58.300781 1.398438 57.421875 1.894531 L 36.070312 13.878906 C 35.175781 14.378906 34.667969 15.066406 34.550781 15.941406 C 34.433594 16.820312 34.738281 17.628906 35.457031 18.363281 L 56.488281 39.851562 C 57.207031 40.589844 58.132812 41.039062 59.265625 41.199219 C 60.394531 41.359375 61.398438 41.1875 62.277344 40.691406 L 83.597656 28.675781 C 84.496094 28.175781 85.003906 27.492188 85.121094 26.613281 Z M 85.121094 26.613281 " fill-opacity="1" fill-rule="evenodd"/></g><g clip-path="url(#03a0cae0f2)"><path fill="#fe0fa6" d="M 85.355469 46.425781 C 85.082031 46.128906 84.496094 46.226562 83.597656 46.722656 L 62.25 58.679688 C 61.351562 59.199219 60.414062 59.949219 59.441406 60.921875 C 58.464844 61.9375 57.734375 62.894531 57.246094 63.789062 L 45.546875 85.640625 C 45.0625 86.535156 44.953125 87.132812 45.226562 87.4375 C 45.519531 87.734375 46.101562 87.625 46.980469 87.105469 L 68.300781 75.089844 C 69.179688 74.589844 70.117188 73.84375 71.109375 72.851562 C 72.050781 71.855469 72.796875 70.898438 73.304688 69.980469 L 85.0625 48.191406 C 85.546875 47.296875 85.648438 46.707031 85.355469 46.429688 Z M 85.355469 46.425781 " fill-opacity="1" fill-rule="evenodd"/></g><path fill="#98d843" d="M 48.519531 54.742188 C 49.003906 53.847656 49.171875 52.8125 49.015625 51.636719 C 48.859375 50.480469 48.421875 49.53125 47.699219 48.796875 L 26.667969 27.304688 C 25.949219 26.570312 25.167969 26.269531 24.332031 26.410156 C 23.472656 26.53125 22.800781 27.039062 22.3125 27.933594 L 10.554688 49.753906 C 10.066406 50.671875 9.910156 51.707031 10.085938 52.859375 C 10.242188 54.015625 10.671875 54.964844 11.375 55.699219 L 32.402344 77.160156 C 33.105469 77.894531 33.882812 78.203125 34.742188 78.085938 C 35.597656 77.96875 36.269531 77.449219 36.761719 76.53125 Z M 48.519531 54.742188 " fill-opacity="1" fill-rule="evenodd"/></g></g></g></svg>