<svg xmlns="http://www.w3.org/2000/svg" xmlns:xlink="http://www.w3.org/1999/xlink" width="120" zoomAndPan="magnify" viewBox="0 0 90 89.999999" height="120" preserveAspectRatio="xMidYMid meet" version="1.0"><defs><clipPath id="ac156ffa62"><path d="M 1.488281 2.464844 L 88.488281 2.464844 L 88.488281 89.464844 L 1.488281 89.464844 Z M 1.488281 2.464844 " clip-rule="nonzero"/></clipPath></defs><g clip-path="url(#ac156ffa62)"><path fill="#000000" d="M 81.96875 46.070312 C 82.652344 46.070312 83.203125 45.519531 83.203125 44.835938 L 83.203125 40.789062 L 85.019531 40.789062 C 86.933594 40.789062 88.488281 39.234375 88.488281 37.324219 L 88.488281 32.972656 C 88.488281 31.0625 86.933594 29.507812 85.019531 29.507812 L 79.085938 29.507812 L 46.21875 15.261719 L 46.21875 12.714844 L 57.3125 12.714844 C 57.992188 12.714844 58.546875 12.160156 58.546875 11.480469 L 58.546875 3.695312 C 58.546875 3.015625 57.992188 2.464844 57.3125 2.464844 L 44.988281 2.464844 C 44.660156 2.464844 44.347656 2.59375 44.113281 2.824219 C 43.882812 3.054688 43.753906 3.371094 43.753906 3.695312 L 43.753906 15.265625 L 10.886719 29.507812 L 4.953125 29.507812 C 3.042969 29.507812 1.488281 31.0625 1.488281 32.972656 L 1.488281 37.324219 C 1.488281 39.234375 3.042969 40.789062 4.953125 40.789062 L 6.769531 40.789062 L 6.769531 44.835938 C 6.769531 45.519531 7.320312 46.070312 8.003906 46.070312 L 9.652344 46.070312 L 9.652344 72.839844 L 8.003906 72.839844 C 7.320312 72.839844 6.769531 73.394531 6.769531 74.074219 L 6.769531 78.121094 L 5.296875 78.121094 C 3.195312 78.121094 1.488281 79.828125 1.488281 81.929688 L 1.488281 85.652344 C 1.488281 87.753906 3.195312 89.464844 5.296875 89.464844 L 84.675781 89.464844 C 86.777344 89.464844 88.488281 87.753906 88.488281 85.652344 L 88.488281 81.929688 C 88.488281 79.828125 86.777344 78.121094 84.675781 78.121094 L 83.203125 78.121094 L 83.203125 74.074219 C 83.203125 73.394531 82.652344 72.839844 81.96875 72.839844 L 80.324219 72.839844 L 80.324219 46.070312 Z M 80.738281 43.605469 L 70.78125 43.605469 L 70.78125 40.789062 L 80.738281 40.789062 Z M 69.546875 72.839844 C 68.867188 72.839844 68.316406 73.394531 68.316406 74.074219 L 68.316406 78.121094 L 62.6875 78.121094 L 62.6875 74.074219 C 62.6875 73.394531 62.136719 72.839844 61.457031 72.839844 L 59.808594 72.839844 L 59.808594 46.070312 L 61.457031 46.070312 C 62.136719 46.070312 62.6875 45.519531 62.6875 44.835938 L 62.6875 40.789062 L 68.316406 40.789062 L 68.316406 44.835938 C 68.316406 45.519531 68.867188 46.070312 69.546875 46.070312 L 71.195312 46.070312 L 71.195312 72.839844 Z M 20.425781 72.839844 L 18.777344 72.839844 L 18.777344 46.070312 L 20.425781 46.070312 C 21.105469 46.070312 21.65625 45.519531 21.65625 44.835938 L 21.65625 40.789062 L 27.285156 40.789062 L 27.285156 44.835938 C 27.285156 45.519531 27.835938 46.070312 28.519531 46.070312 L 30.164062 46.070312 L 30.164062 72.839844 L 28.519531 72.839844 C 27.835938 72.839844 27.285156 73.394531 27.285156 74.074219 L 27.285156 78.121094 L 21.65625 78.121094 L 21.65625 74.074219 C 21.65625 73.394531 21.105469 72.839844 20.425781 72.839844 Z M 32.632812 72.839844 L 32.632812 46.070312 L 36.828125 46.070312 L 36.828125 72.839844 Z M 29.75 43.605469 L 29.75 40.789062 L 39.707031 40.789062 L 39.707031 43.605469 Z M 29.75 75.304688 L 39.707031 75.304688 L 39.707031 78.121094 L 29.75 78.121094 Z M 40.941406 72.839844 L 39.292969 72.839844 L 39.292969 46.070312 L 40.941406 46.070312 C 41.621094 46.070312 42.171875 45.519531 42.171875 44.835938 L 42.171875 40.789062 L 47.800781 40.789062 L 47.800781 44.835938 C 47.800781 45.519531 48.351562 46.070312 49.03125 46.070312 L 50.679688 46.070312 L 50.679688 72.839844 L 49.03125 72.839844 C 48.351562 72.839844 47.800781 73.394531 47.800781 74.074219 L 47.800781 78.121094 L 42.171875 78.121094 L 42.171875 74.074219 C 42.171875 73.394531 41.621094 72.839844 40.941406 72.839844 Z M 53.148438 72.839844 L 53.148438 46.070312 L 57.339844 46.070312 L 57.339844 72.839844 Z M 50.265625 43.605469 L 50.265625 40.789062 L 60.222656 40.789062 L 60.222656 43.605469 Z M 50.265625 75.304688 L 60.222656 75.304688 L 60.222656 78.121094 L 50.265625 78.121094 Z M 46.21875 4.929688 L 56.078125 4.929688 L 56.078125 10.246094 L 46.21875 10.246094 Z M 44.988281 17.417969 L 72.886719 29.507812 L 17.085938 29.507812 Z M 3.953125 37.324219 L 3.953125 32.972656 C 3.953125 32.421875 4.402344 31.972656 4.953125 31.972656 L 85.019531 31.972656 C 85.574219 31.972656 86.019531 32.421875 86.019531 32.972656 L 86.019531 37.324219 C 86.019531 37.875 85.574219 38.324219 85.019531 38.324219 L 4.953125 38.324219 C 4.402344 38.324219 3.953125 37.875 3.953125 37.324219 Z M 9.234375 40.789062 L 19.191406 40.789062 L 19.191406 43.605469 L 9.234375 43.605469 Z M 12.117188 46.070312 L 16.3125 46.070312 L 16.3125 72.839844 L 12.117188 72.839844 Z M 9.234375 75.304688 L 19.191406 75.304688 L 19.191406 78.121094 L 9.234375 78.121094 Z M 86.019531 81.929688 L 86.019531 85.652344 C 86.019531 86.394531 85.417969 87 84.675781 87 L 5.296875 87 C 4.554688 87 3.953125 86.394531 3.953125 85.652344 L 3.953125 81.929688 C 3.953125 81.1875 4.554688 80.585938 5.296875 80.585938 L 84.675781 80.585938 C 85.417969 80.585938 86.019531 81.1875 86.019531 81.929688 Z M 80.738281 78.121094 L 70.78125 78.121094 L 70.78125 75.304688 L 80.738281 75.304688 Z M 77.855469 72.839844 L 73.660156 72.839844 L 73.660156 46.070312 L 77.855469 46.070312 Z M 77.855469 72.839844 " fill-opacity="1" fill-rule="nonzero"/></g></svg>