<svg xmlns="http://www.w3.org/2000/svg" xmlns:xlink="http://www.w3.org/1999/xlink" width="82" zoomAndPan="magnify" viewBox="0 0 61.5 52.499999" height="70" preserveAspectRatio="xMidYMid meet" version="1.0"><defs><clipPath id="425f5b60c5"><path d="M 1.015625 2 L 59.707031 2 L 59.707031 50 L 1.015625 50 Z M 1.015625 2 " clip-rule="nonzero"/></clipPath></defs><path fill="#5271ff" d="M 39.390625 27.457031 C 39.578125 27.644531 39.800781 27.738281 40.0625 27.738281 C 40.328125 27.738281 40.550781 27.644531 40.738281 27.457031 L 47.046875 21.148438 C 47.140625 21.058594 47.210938 20.957031 47.261719 20.839844 C 47.3125 20.722656 47.335938 20.597656 47.335938 20.472656 C 47.339844 20.34375 47.316406 20.222656 47.265625 20.101562 C 47.21875 19.984375 47.148438 19.882812 47.058594 19.792969 C 46.96875 19.699219 46.863281 19.632812 46.746094 19.582031 C 46.628906 19.535156 46.507812 19.511719 46.378906 19.511719 C 46.25 19.511719 46.128906 19.539062 46.011719 19.589844 C 45.894531 19.640625 45.792969 19.710938 45.703125 19.804688 L 40.0625 25.441406 L 37.925781 23.304688 C 37.835938 23.210938 37.734375 23.140625 37.617188 23.089844 C 37.5 23.039062 37.378906 23.015625 37.25 23.011719 C 37.121094 23.011719 37 23.035156 36.882812 23.085938 C 36.765625 23.132812 36.660156 23.203125 36.570312 23.292969 C 36.480469 23.382812 36.410156 23.484375 36.363281 23.605469 C 36.3125 23.722656 36.289062 23.84375 36.289062 23.972656 C 36.292969 24.101562 36.316406 24.222656 36.367188 24.339844 C 36.417969 24.457031 36.488281 24.558594 36.582031 24.648438 Z M 39.390625 27.457031 " fill-opacity="1" fill-rule="nonzero"/><path fill="#5271ff" d="M 30.679688 24.46875 C 30.75 25.597656 31 26.6875 31.421875 27.734375 C 31.550781 28.0625 31.691406 28.378906 31.839844 28.664062 C 32.210938 29.402344 32.660156 30.09375 33.183594 30.730469 C 33.457031 31.0625 33.75 31.378906 34.0625 31.675781 C 35.722656 33.289062 37.695312 34.28125 39.980469 34.65625 C 40.589844 34.757812 41.199219 34.808594 41.8125 34.808594 C 42.476562 34.808594 43.136719 34.746094 43.789062 34.628906 C 44.445312 34.511719 45.082031 34.335938 45.703125 34.105469 C 46.328125 33.871094 46.925781 33.585938 47.496094 33.25 C 48.066406 32.910156 48.605469 32.523438 49.105469 32.089844 C 49.609375 31.65625 50.070312 31.179688 50.488281 30.664062 C 50.90625 30.148438 51.277344 29.601562 51.597656 29.019531 C 51.917969 28.4375 52.183594 27.832031 52.394531 27.203125 C 52.609375 26.574219 52.761719 25.929688 52.859375 25.273438 C 52.957031 24.617188 52.996094 23.953125 52.976562 23.292969 C 52.957031 22.628906 52.878906 21.96875 52.742188 21.320312 C 52.605469 20.671875 52.414062 20.039062 52.164062 19.421875 C 51.914062 18.808594 51.609375 18.21875 51.257812 17.65625 C 50.902344 17.09375 50.5 16.570312 50.050781 16.078125 C 49.605469 15.589844 49.117188 15.140625 48.589844 14.738281 C 48.0625 14.335938 47.5 13.980469 46.910156 13.679688 C 46.320312 13.375 45.707031 13.125 45.070312 12.933594 C 45.050781 12.925781 45.03125 12.921875 45.011719 12.917969 C 43.949219 12.601562 42.863281 12.449219 41.753906 12.453125 C 41.160156 12.457031 40.574219 12.507812 39.992188 12.605469 C 38.183594 12.902344 36.546875 13.605469 35.085938 14.710938 C 35.058594 14.726562 35.03125 14.746094 35.003906 14.769531 C 34.804688 14.925781 34.613281 15.085938 34.433594 15.242188 C 33.339844 16.207031 32.464844 17.339844 31.808594 18.640625 L 31.773438 18.71875 C 31.726562 18.8125 31.679688 18.914062 31.636719 19.019531 L 31.585938 19.136719 C 30.949219 20.566406 30.632812 22.066406 30.636719 23.632812 C 30.636719 23.859375 30.640625 24.089844 30.660156 24.304688 C 30.664062 24.359375 30.667969 24.414062 30.679688 24.46875 Z M 33.335938 19.878906 L 33.386719 19.757812 C 33.421875 19.679688 33.457031 19.609375 33.488281 19.535156 L 33.515625 19.476562 C 34.0625 18.402344 34.789062 17.464844 35.691406 16.667969 C 35.832031 16.546875 35.972656 16.425781 36.121094 16.308594 C 36.140625 16.296875 36.164062 16.28125 36.183594 16.265625 C 37.410156 15.324219 38.78125 14.730469 40.304688 14.480469 C 40.804688 14.398438 41.308594 14.355469 41.816406 14.351562 C 42.734375 14.351562 43.632812 14.484375 44.515625 14.75 C 44.53125 14.753906 44.546875 14.757812 44.566406 14.761719 C 45.089844 14.925781 45.597656 15.132812 46.089844 15.386719 C 46.578125 15.640625 47.039062 15.933594 47.476562 16.269531 C 47.914062 16.605469 48.316406 16.976562 48.6875 17.386719 C 49.058594 17.792969 49.390625 18.230469 49.683594 18.699219 C 49.976562 19.164062 50.222656 19.652344 50.429688 20.164062 C 50.636719 20.675781 50.792969 21.199219 50.90625 21.742188 C 51.019531 22.28125 51.082031 22.824219 51.097656 23.375 C 51.113281 23.925781 51.078125 24.472656 50.996094 25.019531 C 50.914062 25.5625 50.78125 26.097656 50.605469 26.617188 C 50.429688 27.140625 50.207031 27.640625 49.9375 28.125 C 49.671875 28.605469 49.363281 29.058594 49.015625 29.488281 C 48.667969 29.914062 48.285156 30.308594 47.867188 30.667969 C 47.449219 31.023438 47.003906 31.34375 46.53125 31.625 C 46.054688 31.902344 45.558594 32.140625 45.042969 32.332031 C 44.527344 32.523438 43.996094 32.664062 43.453125 32.761719 C 42.910156 32.859375 42.363281 32.910156 41.8125 32.90625 C 41.304688 32.910156 40.800781 32.867188 40.300781 32.78125 C 38.398438 32.472656 36.753906 31.644531 35.375 30.296875 C 35.113281 30.050781 34.871094 29.792969 34.644531 29.515625 C 34.210938 28.988281 33.84375 28.417969 33.535156 27.808594 C 33.414062 27.570312 33.300781 27.3125 33.191406 27.03125 C 32.835938 26.15625 32.632812 25.25 32.574219 24.3125 C 32.574219 24.285156 32.566406 24.269531 32.5625 24.246094 C 32.5625 24.21875 32.5625 24.1875 32.558594 24.15625 C 32.542969 23.988281 32.539062 23.808594 32.539062 23.632812 C 32.535156 22.324219 32.800781 21.074219 33.335938 19.878906 Z M 33.335938 19.878906 " fill-opacity="1" fill-rule="nonzero"/><g clip-path="url(#425f5b60c5)"><path fill="#5271ff" d="M 59.273438 10.710938 C 53.109375 9.035156 47.496094 6.246094 42.433594 2.347656 C 42.257812 2.203125 42.054688 2.128906 41.824219 2.128906 C 41.597656 2.128906 41.394531 2.203125 41.21875 2.347656 C 36.160156 6.25 30.554688 9.035156 24.390625 10.710938 C 24.179688 10.765625 24.007812 10.878906 23.875 11.046875 C 23.746094 11.21875 23.675781 11.414062 23.675781 11.628906 L 23.675781 12.449219 L 5.507812 12.449219 C 5.214844 12.453125 4.921875 12.480469 4.632812 12.539062 C 4.34375 12.597656 4.0625 12.683594 3.789062 12.796875 C 3.515625 12.910156 3.257812 13.050781 3.011719 13.214844 C 2.765625 13.378906 2.539062 13.566406 2.332031 13.773438 C 2.121094 13.984375 1.9375 14.210938 1.773438 14.457031 C 1.609375 14.703125 1.46875 14.960938 1.355469 15.234375 C 1.246094 15.507812 1.160156 15.789062 1.101562 16.078125 C 1.046875 16.367188 1.015625 16.660156 1.015625 16.957031 L 1.015625 45.484375 C 1.015625 45.777344 1.046875 46.070312 1.101562 46.363281 C 1.160156 46.652344 1.246094 46.933594 1.355469 47.207031 C 1.46875 47.480469 1.609375 47.738281 1.773438 47.984375 C 1.9375 48.230469 2.121094 48.457031 2.332031 48.667969 C 2.539062 48.875 2.765625 49.0625 3.011719 49.226562 C 3.257812 49.390625 3.515625 49.53125 3.789062 49.644531 C 4.0625 49.757812 4.34375 49.84375 4.632812 49.902344 C 4.921875 49.960938 5.214844 49.988281 5.507812 49.988281 L 55.492188 49.988281 C 55.789062 49.988281 56.082031 49.960938 56.371094 49.902344 C 56.660156 49.84375 56.941406 49.757812 57.214844 49.644531 C 57.488281 49.53125 57.746094 49.390625 57.992188 49.226562 C 58.238281 49.0625 58.464844 48.875 58.671875 48.667969 C 58.882812 48.457031 59.066406 48.230469 59.230469 47.984375 C 59.394531 47.738281 59.535156 47.480469 59.644531 47.207031 C 59.757812 46.933594 59.84375 46.652344 59.902344 46.363281 C 59.957031 46.070312 59.988281 45.777344 59.988281 45.484375 L 59.988281 11.628906 C 59.988281 11.414062 59.921875 11.21875 59.789062 11.046875 C 59.65625 10.878906 59.484375 10.765625 59.273438 10.710938 Z M 41.824219 4.292969 C 46.75 7.980469 52.171875 10.671875 58.085938 12.363281 L 58.085938 27.390625 C 58.070312 27.492188 58.027344 27.742188 57.941406 28.113281 C 57.9375 28.132812 57.933594 28.148438 57.925781 28.171875 C 57.914062 28.234375 57.894531 28.3125 57.875 28.382812 C 57.867188 28.425781 57.855469 28.464844 57.84375 28.507812 C 57.828125 28.578125 57.804688 28.65625 57.785156 28.730469 C 57.769531 28.785156 57.757812 28.835938 57.742188 28.890625 C 57.722656 28.964844 57.695312 29.046875 57.671875 29.128906 C 57.652344 29.191406 57.636719 29.253906 57.613281 29.320312 C 57.589844 29.398438 57.5625 29.484375 57.535156 29.566406 C 57.507812 29.652344 57.488281 29.714844 57.460938 29.792969 C 57.4375 29.871094 57.402344 29.96875 57.371094 30.058594 C 57.339844 30.144531 57.316406 30.222656 57.285156 30.304688 C 57.253906 30.390625 57.214844 30.492188 57.179688 30.585938 C 57.144531 30.683594 57.113281 30.765625 57.074219 30.859375 C 57.039062 30.949219 56.996094 31.054688 56.957031 31.15625 C 56.914062 31.253906 56.878906 31.34375 56.835938 31.445312 C 56.796875 31.542969 56.75 31.648438 56.703125 31.753906 C 56.65625 31.859375 56.613281 31.960938 56.5625 32.066406 C 56.515625 32.171875 56.464844 32.277344 56.414062 32.386719 C 56.363281 32.492188 56.3125 32.601562 56.257812 32.710938 C 56.203125 32.824219 56.144531 32.933594 56.089844 33.042969 C 56.03125 33.15625 55.972656 33.269531 55.914062 33.386719 C 55.851562 33.5 55.789062 33.613281 55.726562 33.730469 C 55.664062 33.84375 55.597656 33.964844 55.527344 34.082031 C 55.460938 34.203125 55.394531 34.316406 55.324219 34.4375 C 55.253906 34.554688 55.179688 34.679688 55.105469 34.800781 C 55.027344 34.921875 54.957031 35.039062 54.878906 35.160156 C 54.800781 35.28125 54.71875 35.410156 54.636719 35.535156 C 54.550781 35.664062 54.472656 35.78125 54.390625 35.902344 C 54.308594 36.023438 54.214844 36.160156 54.121094 36.289062 C 54.03125 36.417969 53.945312 36.535156 53.855469 36.65625 C 53.765625 36.78125 53.664062 36.917969 53.5625 37.050781 C 53.460938 37.179688 53.371094 37.296875 53.273438 37.421875 C 53.175781 37.546875 53.0625 37.6875 52.953125 37.824219 C 52.851562 37.949219 52.746094 38.070312 52.640625 38.195312 C 52.527344 38.332031 52.410156 38.464844 52.289062 38.601562 C 52.179688 38.726562 52.070312 38.847656 51.957031 38.972656 C 51.832031 39.109375 51.703125 39.246094 51.574219 39.382812 C 51.457031 39.507812 51.339844 39.628906 51.21875 39.753906 C 51.085938 39.890625 50.945312 40.027344 50.804688 40.167969 C 50.675781 40.289062 50.554688 40.410156 50.425781 40.53125 C 50.28125 40.667969 50.128906 40.808594 49.976562 40.945312 C 49.84375 41.066406 49.710938 41.1875 49.574219 41.304688 C 49.417969 41.445312 49.25 41.582031 49.085938 41.722656 C 48.945312 41.839844 48.808594 41.957031 48.664062 42.074219 C 48.492188 42.214844 48.3125 42.351562 48.136719 42.488281 C 47.988281 42.605469 47.84375 42.71875 47.691406 42.832031 C 47.5 42.972656 47.308594 43.109375 47.113281 43.25 C 46.960938 43.359375 46.8125 43.46875 46.65625 43.578125 C 46.449219 43.71875 46.230469 43.859375 46.019531 44 C 45.867188 44.101562 45.714844 44.207031 45.554688 44.308594 C 45.324219 44.453125 45.082031 44.597656 44.84375 44.742188 C 44.6875 44.835938 44.539062 44.929688 44.382812 45.019531 C 44.113281 45.175781 43.832031 45.332031 43.550781 45.484375 C 43.414062 45.558594 43.28125 45.636719 43.140625 45.710938 C 42.714844 45.9375 42.277344 46.160156 41.828125 46.378906 C 27.691406 39.519531 25.695312 28.222656 25.566406 27.390625 L 25.578125 13.402344 L 25.578125 12.359375 C 31.492188 10.667969 36.90625 7.980469 41.824219 4.292969 Z M 5.507812 48.089844 C 5.164062 48.085938 4.835938 48.019531 4.515625 47.886719 C 4.199219 47.753906 3.917969 47.566406 3.675781 47.320312 C 3.433594 47.078125 3.246094 46.796875 3.113281 46.476562 C 2.984375 46.160156 2.917969 45.828125 2.917969 45.484375 L 2.917969 16.957031 C 2.917969 16.613281 2.984375 16.28125 3.113281 15.964844 C 3.246094 15.644531 3.433594 15.363281 3.675781 15.121094 C 3.917969 14.875 4.199219 14.6875 4.515625 14.554688 C 4.835938 14.421875 5.164062 14.355469 5.507812 14.351562 L 23.675781 14.351562 L 23.664062 27.453125 C 23.664062 27.492188 23.667969 27.53125 23.671875 27.570312 C 23.671875 27.585938 23.675781 27.617188 23.683594 27.65625 L 23.6875 27.6875 C 23.691406 27.722656 23.699219 27.757812 23.703125 27.804688 C 23.710938 27.835938 23.71875 27.878906 23.722656 27.914062 C 23.730469 27.949219 23.734375 27.980469 23.742188 28.019531 C 23.75 28.0625 23.761719 28.125 23.773438 28.175781 C 23.78125 28.214844 23.785156 28.253906 23.796875 28.296875 C 23.808594 28.359375 23.824219 28.433594 23.839844 28.5 C 23.847656 28.546875 23.855469 28.582031 23.867188 28.628906 C 23.882812 28.703125 23.90625 28.789062 23.925781 28.871094 C 23.9375 28.921875 23.945312 28.964844 23.960938 29.015625 C 23.980469 29.101562 24.007812 29.199219 24.03125 29.292969 C 24.046875 29.347656 24.058594 29.398438 24.074219 29.457031 C 24.101562 29.550781 24.132812 29.652344 24.160156 29.753906 C 24.179688 29.816406 24.195312 29.878906 24.21875 29.945312 C 24.25 30.046875 24.285156 30.15625 24.320312 30.265625 C 24.339844 30.335938 24.363281 30.40625 24.386719 30.476562 C 24.421875 30.589844 24.464844 30.707031 24.503906 30.824219 C 24.53125 30.902344 24.558594 30.976562 24.585938 31.054688 C 24.628906 31.175781 24.675781 31.304688 24.726562 31.429688 C 24.757812 31.507812 24.785156 31.585938 24.816406 31.667969 C 24.867188 31.796875 24.921875 31.929688 24.976562 32.0625 C 25.011719 32.148438 25.042969 32.234375 25.082031 32.320312 C 25.140625 32.457031 25.203125 32.59375 25.261719 32.734375 C 25.304688 32.824219 25.34375 32.914062 25.386719 33.007812 C 25.449219 33.144531 25.519531 33.292969 25.589844 33.433594 C 25.636719 33.53125 25.679688 33.625 25.726562 33.722656 C 25.796875 33.867188 25.875 34.011719 25.953125 34.160156 C 26.003906 34.261719 26.054688 34.363281 26.109375 34.464844 C 26.191406 34.609375 26.277344 34.761719 26.359375 34.910156 C 26.417969 35.019531 26.476562 35.121094 26.539062 35.230469 C 26.625 35.378906 26.71875 35.53125 26.808594 35.679688 C 26.875 35.792969 26.941406 35.902344 27.011719 36.015625 C 27.105469 36.167969 27.207031 36.320312 27.304688 36.472656 C 27.382812 36.589844 27.453125 36.703125 27.535156 36.820312 C 27.636719 36.972656 27.746094 37.128906 27.855469 37.28125 C 27.9375 37.402344 28.019531 37.519531 28.109375 37.640625 C 28.21875 37.792969 28.335938 37.945312 28.453125 38.101562 C 28.546875 38.222656 28.636719 38.347656 28.734375 38.46875 C 28.851562 38.621094 28.980469 38.777344 29.105469 38.929688 C 29.207031 39.058594 29.308594 39.183594 29.414062 39.308594 C 29.539062 39.460938 29.679688 39.613281 29.8125 39.765625 C 29.925781 39.890625 30.035156 40.023438 30.152344 40.152344 C 30.289062 40.304688 30.4375 40.453125 30.578125 40.605469 C 30.703125 40.738281 30.824219 40.867188 30.949219 40.996094 C 31.097656 41.148438 31.253906 41.296875 31.40625 41.449219 C 31.539062 41.578125 31.671875 41.710938 31.808594 41.839844 C 31.96875 41.988281 32.132812 42.136719 32.296875 42.285156 C 32.441406 42.417969 32.585938 42.546875 32.734375 42.679688 C 32.902344 42.824219 33.078125 42.96875 33.25 43.117188 C 33.40625 43.246094 33.566406 43.378906 33.726562 43.511719 C 33.902344 43.65625 34.085938 43.796875 34.269531 43.9375 C 34.441406 44.070312 34.609375 44.203125 34.789062 44.335938 C 34.96875 44.46875 35.167969 44.609375 35.359375 44.746094 C 35.550781 44.882812 35.730469 45.011719 35.921875 45.144531 C 36.113281 45.273438 36.320312 45.410156 36.523438 45.542969 C 36.726562 45.679688 36.921875 45.804688 37.125 45.933594 C 37.332031 46.0625 37.546875 46.195312 37.761719 46.320312 C 37.972656 46.449219 38.1875 46.582031 38.410156 46.707031 C 38.628906 46.835938 38.851562 46.957031 39.074219 47.078125 C 39.296875 47.203125 39.53125 47.332031 39.769531 47.457031 C 40.011719 47.578125 40.234375 47.695312 40.46875 47.8125 C 40.644531 47.902344 40.8125 47.992188 40.992188 48.078125 Z M 58.085938 45.484375 C 58.085938 45.828125 58.019531 46.160156 57.886719 46.476562 C 57.757812 46.796875 57.570312 47.078125 57.328125 47.320312 C 57.085938 47.566406 56.804688 47.753906 56.488281 47.886719 C 56.167969 48.019531 55.839844 48.085938 55.492188 48.089844 L 42.664062 48.089844 C 42.804688 48.019531 42.933594 47.945312 43.074219 47.878906 C 43.394531 47.71875 43.714844 47.558594 44.023438 47.394531 C 44.226562 47.285156 44.425781 47.175781 44.625 47.066406 C 44.917969 46.902344 45.207031 46.742188 45.488281 46.574219 C 45.679688 46.460938 45.875 46.351562 46.058594 46.234375 C 46.335938 46.066406 46.609375 45.894531 46.875 45.722656 C 47.050781 45.609375 47.226562 45.5 47.394531 45.386719 C 47.675781 45.199219 47.941406 45.011719 48.207031 44.824219 C 48.351562 44.722656 48.5 44.621094 48.640625 44.519531 C 48.988281 44.265625 49.324219 44.007812 49.648438 43.75 C 49.699219 43.710938 49.75 43.675781 49.796875 43.636719 C 50.167969 43.339844 50.519531 43.042969 50.863281 42.75 C 50.984375 42.640625 51.097656 42.535156 51.21875 42.429688 C 51.4375 42.234375 51.65625 42.039062 51.863281 41.84375 C 51.992188 41.714844 52.121094 41.59375 52.246094 41.46875 C 52.429688 41.289062 52.613281 41.109375 52.789062 40.929688 C 52.914062 40.800781 53.035156 40.667969 53.160156 40.539062 C 53.324219 40.363281 53.488281 40.1875 53.644531 40.007812 C 53.761719 39.878906 53.875 39.75 53.988281 39.621094 C 54.144531 39.441406 54.292969 39.261719 54.441406 39.085938 C 54.542969 38.957031 54.644531 38.835938 54.746094 38.710938 C 54.894531 38.523438 55.039062 38.335938 55.179688 38.148438 C 55.265625 38.035156 55.351562 37.925781 55.433594 37.8125 C 55.605469 37.582031 55.769531 37.351562 55.925781 37.121094 C 55.972656 37.058594 56.019531 36.992188 56.0625 36.929688 C 56.257812 36.640625 56.445312 36.351562 56.625 36.066406 C 56.679688 35.976562 56.730469 35.886719 56.785156 35.796875 C 56.90625 35.601562 57.023438 35.40625 57.136719 35.210938 C 57.199219 35.105469 57.253906 35 57.3125 34.894531 C 57.410156 34.722656 57.503906 34.550781 57.59375 34.382812 C 57.652344 34.273438 57.707031 34.167969 57.761719 34.058594 C 57.847656 33.898438 57.925781 33.734375 58.003906 33.578125 C 58.027344 33.527344 58.058594 33.472656 58.082031 33.417969 Z M 58.085938 45.484375 " fill-opacity="1" fill-rule="nonzero"/></g><path fill="#5271ff" d="M 22.398438 31.847656 C 20.835938 31.214844 19.222656 30.789062 17.550781 30.574219 L 17.550781 29.871094 C 18.441406 29.148438 19.042969 28.238281 19.351562 27.132812 C 19.734375 26.992188 20.039062 26.753906 20.273438 26.421875 C 20.503906 26.085938 20.621094 25.71875 20.621094 25.3125 L 20.621094 24.515625 C 20.621094 23.910156 20.390625 23.410156 19.921875 23.019531 C 19.929688 22.691406 19.929688 22.386719 19.929688 22.117188 L 19.929688 21.925781 C 19.929688 19.171875 18.152344 17.773438 14.660156 17.773438 C 11.164062 17.773438 9.382812 19.171875 9.382812 21.925781 L 9.382812 22.121094 C 9.382812 22.390625 9.382812 22.699219 9.390625 23.027344 C 8.925781 23.414062 8.691406 23.910156 8.691406 24.515625 L 8.691406 25.308594 C 8.691406 25.714844 8.808594 26.085938 9.039062 26.421875 C 9.273438 26.753906 9.578125 26.992188 9.960938 27.132812 C 10.269531 28.230469 10.867188 29.144531 11.753906 29.863281 L 11.753906 30.574219 C 10.082031 30.789062 8.46875 31.214844 6.90625 31.847656 C 6.496094 32.027344 6.117188 32.265625 5.773438 32.554688 C 5.429688 32.84375 5.136719 33.179688 4.890625 33.558594 C 4.648438 33.933594 4.460938 34.339844 4.335938 34.769531 C 4.210938 35.199219 4.148438 35.640625 4.152344 36.089844 L 4.152344 38.628906 C 4.152344 38.890625 4.242188 39.113281 4.429688 39.300781 C 4.613281 39.484375 4.839844 39.578125 5.101562 39.578125 L 24.203125 39.578125 C 24.464844 39.578125 24.691406 39.484375 24.875 39.300781 C 25.0625 39.113281 25.15625 38.890625 25.15625 38.628906 L 25.15625 36.089844 C 25.15625 35.640625 25.097656 35.199219 24.96875 34.769531 C 24.84375 34.335938 24.65625 33.933594 24.414062 33.554688 C 24.167969 33.179688 23.875 32.84375 23.53125 32.554688 C 23.1875 32.261719 22.808594 32.027344 22.398438 31.847656 Z M 10.703125 25.351562 L 10.585938 25.3125 L 10.605469 24.488281 C 10.820312 24.429688 10.996094 24.308594 11.125 24.128906 C 11.257812 23.949219 11.316406 23.746094 11.304688 23.523438 C 11.28125 23.007812 11.28125 22.527344 11.28125 22.128906 L 11.28125 21.929688 C 11.28125 20.792969 11.542969 19.679688 14.65625 19.679688 C 17.769531 19.679688 18.023438 20.792969 18.023438 21.929688 L 18.023438 22.121094 C 18.023438 22.519531 18.023438 22.996094 18 23.515625 C 17.988281 23.738281 18.046875 23.941406 18.175781 24.121094 C 18.308594 24.300781 18.480469 24.421875 18.695312 24.480469 C 18.710938 24.488281 18.71875 24.5 18.714844 24.515625 L 18.679688 25.351562 L 18.597656 25.351562 C 18.378906 25.351562 18.183594 25.417969 18.011719 25.554688 C 17.839844 25.6875 17.726562 25.863281 17.675781 26.074219 C 17.332031 27.457031 16.75 28.167969 16.132812 28.523438 C 16.109375 28.539062 16.082031 28.546875 16.058594 28.5625 C 15.617188 28.785156 15.148438 28.890625 14.652344 28.875 C 13.65625 28.875 12.257812 28.585938 11.621094 26.070312 C 11.570312 25.859375 11.457031 25.6875 11.285156 25.554688 C 11.113281 25.417969 10.921875 25.351562 10.703125 25.351562 Z M 23.253906 37.675781 L 6.050781 37.675781 L 6.050781 36.089844 C 6.046875 35.550781 6.1875 35.054688 6.480469 34.601562 C 6.773438 34.148438 7.164062 33.8125 7.65625 33.59375 C 9.207031 32.972656 10.8125 32.574219 12.472656 32.402344 C 12.808594 32.363281 13.089844 32.21875 13.316406 31.964844 C 13.542969 31.710938 13.65625 31.414062 13.65625 31.074219 L 13.65625 30.6875 C 14.320312 30.808594 14.984375 30.808594 15.648438 30.6875 L 15.648438 31.074219 C 15.648438 31.414062 15.761719 31.710938 15.988281 31.964844 C 16.214844 32.21875 16.496094 32.363281 16.835938 32.402344 C 18.492188 32.574219 20.097656 32.972656 21.648438 33.59375 C 22.140625 33.8125 22.53125 34.148438 22.824219 34.601562 C 23.117188 35.054688 23.257812 35.550781 23.253906 36.089844 Z M 23.253906 37.675781 " fill-opacity="1" fill-rule="nonzero"/><path fill="#5271ff" d="M 24.203125 41.910156 L 5.101562 41.910156 C 4.839844 41.910156 4.613281 42.003906 4.429688 42.191406 C 4.242188 42.375 4.152344 42.601562 4.152344 42.863281 C 4.152344 43.125 4.242188 43.351562 4.429688 43.535156 C 4.613281 43.722656 4.839844 43.8125 5.101562 43.8125 L 24.203125 43.8125 C 24.464844 43.8125 24.691406 43.722656 24.875 43.535156 C 25.0625 43.351562 25.15625 43.125 25.15625 42.863281 C 25.15625 42.601562 25.0625 42.375 24.875 42.191406 C 24.691406 42.003906 24.464844 41.910156 24.203125 41.910156 Z M 24.203125 41.910156 " fill-opacity="1" fill-rule="nonzero"/></svg>