<svg xmlns="http://www.w3.org/2000/svg" xmlns:xlink="http://www.w3.org/1999/xlink" width="82" zoomAndPan="magnify" viewBox="0 0 61.5 52.499999" height="70" preserveAspectRatio="xMidYMid meet" version="1.0"><defs><clipPath id="29521613d6"><path d="M 5.316406 0.816406 L 55.835938 0.816406 L 55.835938 51.335938 L 5.316406 51.335938 Z M 5.316406 0.816406 " clip-rule="nonzero"/></clipPath></defs><g clip-path="url(#29521613d6)"><path fill="#5271ff" d="M 6.996094 3.335938 C 6.996094 2.875 7.375 2.496094 7.835938 2.496094 L 31.339844 2.492188 L 31.339844 5.855469 C 31.339844 7.246094 32.46875 8.371094 33.859375 8.371094 L 37.21875 8.371094 L 37.21875 12.0625 C 36.128906 11.847656 35.007812 11.730469 33.859375 11.730469 C 24.140625 11.730469 16.230469 19.640625 16.230469 29.359375 C 16.230469 35.777344 19.6875 41.386719 24.824219 44.46875 L 7.835938 44.46875 C 7.375 44.46875 6.996094 44.09375 6.996094 43.628906 Z M 33.019531 3.683594 L 36.03125 6.695312 L 33.859375 6.695312 C 33.398438 6.695312 33.019531 6.316406 33.019531 5.855469 Z M 49.808594 29.359375 C 49.808594 38.152344 42.652344 45.308594 33.859375 45.308594 C 25.0625 45.308594 17.910156 38.152344 17.910156 29.359375 C 17.910156 20.5625 25.0625 13.410156 33.859375 13.410156 C 42.652344 13.410156 49.808594 20.5625 49.808594 29.359375 Z M 53.855469 47.707031 C 53.953125 47.804688 54.007812 47.933594 54.007812 48.066406 C 54.007812 48.195312 53.953125 48.320312 53.855469 48.414062 L 52.910156 49.359375 C 52.820312 49.453125 52.699219 49.507812 52.566406 49.507812 C 52.5625 49.507812 52.5625 49.507812 52.5625 49.507812 C 52.429688 49.507812 52.304688 49.453125 52.207031 49.355469 L 45.453125 42.605469 C 46.042969 42.089844 46.589844 41.542969 47.105469 40.953125 Z M 7.835938 46.148438 L 28.496094 46.148438 C 30.191406 46.6875 31.988281 46.988281 33.859375 46.988281 C 37.695312 46.988281 41.234375 45.746094 44.132812 43.65625 L 51.019531 50.542969 C 51.433594 50.957031 51.984375 51.183594 52.5625 51.183594 C 52.566406 51.183594 52.570312 51.183594 52.574219 51.183594 C 53.152344 51.183594 53.699219 50.953125 54.101562 50.542969 L 55.035156 49.609375 C 55.453125 49.199219 55.683594 48.652344 55.683594 48.074219 C 55.6875 47.484375 55.457031 46.933594 55.042969 46.519531 L 48.15625 39.632812 C 50.246094 36.734375 51.488281 33.195312 51.488281 29.359375 C 51.488281 21.390625 46.167969 14.644531 38.894531 12.476562 L 38.894531 7.878906 C 38.894531 7.429688 38.722656 7.011719 38.40625 6.695312 L 33.015625 1.304688 C 32.703125 0.992188 32.28125 0.816406 31.835938 0.816406 L 7.835938 0.816406 C 6.445312 0.816406 5.316406 1.945312 5.316406 3.335938 L 5.316406 43.628906 C 5.316406 45.019531 6.445312 46.148438 7.835938 46.148438 " fill-opacity="1" fill-rule="nonzero"/></g><path fill="#5271ff" d="M 19.589844 29.359375 C 19.589844 37.230469 25.988281 43.628906 33.859375 43.628906 C 41.730469 43.628906 48.128906 37.230469 48.128906 29.359375 C 48.128906 23.183594 44.1875 17.738281 38.320312 15.804688 C 37.875 15.652344 37.402344 15.894531 37.257812 16.335938 C 37.117188 16.777344 37.351562 17.253906 37.792969 17.398438 C 42.972656 19.105469 46.449219 23.914062 46.449219 29.359375 C 46.449219 36.304688 40.804688 41.949219 33.859375 41.949219 C 26.914062 41.949219 21.265625 36.304688 21.265625 29.359375 C 21.265625 22.414062 26.914062 16.765625 33.859375 16.765625 C 34.320312 16.765625 34.699219 16.390625 34.699219 15.925781 C 34.699219 15.464844 34.320312 15.089844 33.859375 15.089844 C 25.988281 15.089844 19.589844 21.488281 19.589844 29.359375 " fill-opacity="1" fill-rule="nonzero"/><path fill="#5271ff" d="M 11.195312 6.695312 L 27.984375 6.695312 C 28.445312 6.695312 28.820312 6.316406 28.820312 5.855469 C 28.820312 5.390625 28.445312 5.015625 27.984375 5.015625 L 11.195312 5.015625 C 10.730469 5.015625 10.355469 5.390625 10.355469 5.855469 C 10.355469 6.316406 10.730469 6.695312 11.195312 6.695312 " fill-opacity="1" fill-rule="nonzero"/><path fill="#5271ff" d="M 11.195312 10.890625 L 27.984375 10.890625 C 28.445312 10.890625 28.820312 10.515625 28.820312 10.050781 C 28.820312 9.589844 28.445312 9.210938 27.984375 9.210938 L 11.195312 9.210938 C 10.730469 9.210938 10.355469 9.589844 10.355469 10.050781 C 10.355469 10.515625 10.730469 10.890625 11.195312 10.890625 " fill-opacity="1" fill-rule="nonzero"/><path fill="#5271ff" d="M 11.195312 15.089844 L 20.425781 15.089844 C 20.890625 15.089844 21.265625 14.710938 21.265625 14.25 C 21.265625 13.785156 20.890625 13.410156 20.425781 13.410156 L 11.195312 13.410156 C 10.730469 13.410156 10.355469 13.785156 10.355469 14.25 C 10.355469 14.710938 10.730469 15.089844 11.195312 15.089844 " fill-opacity="1" fill-rule="nonzero"/><path fill="#5271ff" d="M 11.195312 19.285156 L 16.230469 19.285156 C 16.691406 19.285156 17.070312 18.910156 17.070312 18.445312 C 17.070312 17.984375 16.691406 17.605469 16.230469 17.605469 L 11.195312 17.605469 C 10.730469 17.605469 10.355469 17.984375 10.355469 18.445312 C 10.355469 18.910156 10.730469 19.285156 11.195312 19.285156 " fill-opacity="1" fill-rule="nonzero"/><path fill="#5271ff" d="M 11.195312 23.484375 L 14.550781 23.484375 C 15.015625 23.484375 15.390625 23.105469 15.390625 22.644531 C 15.390625 22.179688 15.015625 21.804688 14.550781 21.804688 L 11.195312 21.804688 C 10.730469 21.804688 10.355469 22.179688 10.355469 22.644531 C 10.355469 23.105469 10.730469 23.484375 11.195312 23.484375 " fill-opacity="1" fill-rule="nonzero"/><path fill="#5271ff" d="M 11.195312 27.679688 L 13.710938 27.679688 C 14.175781 27.679688 14.550781 27.304688 14.550781 26.839844 C 14.550781 26.378906 14.175781 26 13.710938 26 L 11.195312 26 C 10.730469 26 10.355469 26.378906 10.355469 26.839844 C 10.355469 27.304688 10.730469 27.679688 11.195312 27.679688 " fill-opacity="1" fill-rule="nonzero"/><path fill="#5271ff" d="M 11.195312 31.878906 L 13.710938 31.878906 C 14.175781 31.878906 14.550781 31.5 14.550781 31.039062 C 14.550781 30.574219 14.175781 30.199219 13.710938 30.199219 L 11.195312 30.199219 C 10.730469 30.199219 10.355469 30.574219 10.355469 31.039062 C 10.355469 31.5 10.730469 31.878906 11.195312 31.878906 " fill-opacity="1" fill-rule="nonzero"/><path fill="#5271ff" d="M 11.195312 36.074219 L 14.550781 36.074219 C 15.015625 36.074219 15.390625 35.699219 15.390625 35.234375 C 15.390625 34.773438 15.015625 34.394531 14.550781 34.394531 L 11.195312 34.394531 C 10.730469 34.394531 10.355469 34.773438 10.355469 35.234375 C 10.355469 35.699219 10.730469 36.074219 11.195312 36.074219 " fill-opacity="1" fill-rule="nonzero"/><path fill="#5271ff" d="M 11.195312 40.273438 L 16.230469 40.273438 C 16.691406 40.273438 17.070312 39.894531 17.070312 39.433594 C 17.070312 38.96875 16.691406 38.59375 16.230469 38.59375 L 11.195312 38.59375 C 10.730469 38.59375 10.355469 38.96875 10.355469 39.433594 C 10.355469 39.894531 10.730469 40.273438 11.195312 40.273438 " fill-opacity="1" fill-rule="nonzero"/><path fill="#5271ff" d="M 29.414062 31.285156 C 29.085938 30.957031 28.558594 30.957031 28.230469 31.285156 C 27.902344 31.613281 27.902344 32.144531 28.230469 32.472656 L 30.746094 34.988281 C 30.90625 35.148438 31.117188 35.234375 31.339844 35.234375 C 31.359375 35.234375 31.378906 35.234375 31.398438 35.230469 C 31.640625 35.214844 31.867188 35.09375 32.011719 34.898438 L 39.566406 24.824219 C 39.847656 24.453125 39.769531 23.929688 39.398438 23.648438 C 39.03125 23.371094 38.503906 23.445312 38.222656 23.820312 L 31.25 33.117188 L 29.414062 31.285156 " fill-opacity="1" fill-rule="nonzero"/></svg>