<svg xmlns="http://www.w3.org/2000/svg" xmlns:xlink="http://www.w3.org/1999/xlink" width="298" zoomAndPan="magnify" viewBox="0 0 223.5 209.249992" height="279" preserveAspectRatio="xMidYMid meet" version="1.0"><defs><clipPath id="99deaf2014"><path d="M 23.984375 2.78125 L 198.859375 2.78125 L 198.859375 206 L 23.984375 206 Z M 23.984375 2.78125 " clip-rule="nonzero"/></clipPath><clipPath id="3b2b5545b3"><path d="M 159.183594 87.589844 L 162.605469 87.589844 L 162.605469 88.867188 L 159.183594 88.867188 Z M 159.183594 87.589844 " clip-rule="nonzero"/></clipPath><clipPath id="40b1e8dc4b"><path d="M 159.191406 88.175781 C 159.511719 87.707031 160.097656 87.492188 160.644531 87.636719 L 162.390625 88.09375 C 162.628906 88.15625 162.660156 88.476562 162.445312 88.585938 L 162.058594 88.777344 C 161.898438 88.859375 161.714844 88.875 161.539062 88.828125 Z M 159.191406 88.175781 " clip-rule="nonzero"/></clipPath><clipPath id="938fa0d0e5"><path d="M 163.554688 92.667969 L 167.546875 92.667969 L 167.546875 98.289062 L 163.554688 98.289062 Z M 163.554688 92.667969 " clip-rule="nonzero"/></clipPath><clipPath id="3b58339e20"><path d="M 163.953125 92.84375 C 164.308594 92.671875 164.636719 92.628906 164.890625 92.777344 C 165.25 92.988281 165.535156 93.304688 165.714844 93.683594 L 167.429688 97.292969 C 167.558594 97.558594 167.546875 97.875 167.40625 98.132812 C 167.3125 98.308594 167.058594 98.308594 166.964844 98.128906 L 165.199219 94.703125 C 164.910156 94.144531 164.417969 93.71875 163.824219 93.515625 L 163.777344 93.5 C 163.527344 93.414062 163.503906 93.074219 163.738281 92.953125 Z M 163.953125 92.84375 " clip-rule="nonzero"/></clipPath><clipPath id="df0548e9b4"><path d="M 157.28125 90.496094 L 169.09375 90.496094 L 169.09375 95.519531 L 157.28125 95.519531 Z M 157.28125 90.496094 " clip-rule="nonzero"/></clipPath><clipPath id="89a5bb3d5e"><path d="M 157.375 90.800781 C 157.546875 90.554688 157.859375 90.449219 158.144531 90.542969 L 161.597656 91.65625 C 161.765625 91.710938 161.953125 91.699219 162.113281 91.621094 L 164.144531 90.644531 C 164.308594 90.566406 164.496094 90.550781 164.667969 90.601562 L 165.136719 90.738281 C 165.914062 90.964844 166.550781 91.539062 166.859375 92.289062 L 167.164062 93.042969 C 167.226562 93.199219 167.382812 93.296875 167.550781 93.289062 L 168.433594 93.246094 C 168.597656 93.238281 168.75 93.339844 168.804688 93.496094 L 168.957031 93.9375 C 169.136719 94.453125 169.09375 95.027344 168.832031 95.511719 L 168.355469 94.261719 C 168.296875 94.105469 168.140625 94.003906 167.976562 94.011719 L 166.992188 94.042969 C 166.820312 94.050781 166.667969 93.949219 166.597656 93.796875 L 166.214844 92.929688 C 165.960938 92.359375 165.472656 91.925781 164.878906 91.746094 L 164.414062 91.601562 L 162.046875 92.703125 C 161.882812 92.78125 161.699219 92.789062 161.527344 92.730469 L 157.566406 91.382812 C 157.328125 91.300781 157.230469 91.011719 157.375 90.804688 " clip-rule="nonzero"/></clipPath><clipPath id="8f8340fbcb"><path d="M 158.367188 88.597656 L 168.304688 88.597656 L 168.304688 92.640625 L 158.367188 92.640625 Z M 158.367188 88.597656 " clip-rule="nonzero"/></clipPath><clipPath id="f3c24e5529"><path d="M 168.269531 91.960938 C 168.394531 92.316406 168.148438 92.757812 167.816406 92.582031 C 167.734375 92.539062 167.671875 92.46875 167.636719 92.378906 L 167.191406 91.214844 C 166.972656 90.640625 166.492188 90.203125 165.902344 90.039062 L 164.5625 89.667969 C 164.390625 89.617188 164.203125 89.636719 164.042969 89.710938 L 162.019531 90.664062 C 161.859375 90.742188 161.671875 90.753906 161.5 90.703125 L 158.625 89.816406 C 158.390625 89.746094 158.296875 89.46875 158.433594 89.269531 C 158.601562 89.03125 158.902344 88.921875 159.183594 89.003906 L 161.453125 89.667969 C 161.625 89.714844 161.8125 89.699219 161.976562 89.621094 L 163.921875 88.679688 C 164.082031 88.601562 164.269531 88.585938 164.445312 88.628906 L 166.132812 89.074219 C 166.910156 89.277344 167.539062 89.855469 167.800781 90.613281 Z M 168.269531 91.960938 " clip-rule="nonzero"/></clipPath><clipPath id="5fccf69749"><path d="M 166.976562 94.652344 L 168.359375 94.652344 L 168.359375 96.742188 L 166.976562 96.742188 Z M 166.976562 94.652344 " clip-rule="nonzero"/></clipPath><clipPath id="b1c7f0d035"><path d="M 167.539062 94.65625 C 167.707031 94.648438 167.859375 94.746094 167.921875 94.902344 L 168.28125 95.777344 C 168.390625 96.046875 168.375 96.351562 168.238281 96.605469 C 168.148438 96.769531 167.910156 96.757812 167.832031 96.589844 L 166.988281 94.679688 Z M 167.539062 94.65625 " clip-rule="nonzero"/></clipPath><clipPath id="cd59408bf4"><path d="M 155.273438 93.566406 L 157.335938 93.566406 L 157.335938 95.328125 L 155.273438 95.328125 Z M 155.273438 93.566406 " clip-rule="nonzero"/></clipPath><clipPath id="bc10c4c12b"><path d="M 155.417969 93.640625 L 155.460938 93.578125 L 156.949219 94.164062 C 157.109375 94.230469 157.226562 94.371094 157.261719 94.542969 L 157.320312 94.863281 C 157.375 95.15625 157.082031 95.394531 156.804688 95.28125 L 155.777344 94.855469 C 155.296875 94.65625 155.125 94.070312 155.417969 93.640625 " clip-rule="nonzero"/></clipPath><clipPath id="4a81461f2f"><path d="M 156.195312 92.070312 L 164.070312 92.070312 L 164.070312 99.566406 L 156.195312 99.566406 Z M 156.195312 92.070312 " clip-rule="nonzero"/></clipPath><clipPath id="5b7e0def80"><path d="M 156.285156 92.386719 C 156.457031 92.132812 156.78125 92.027344 157.074219 92.132812 L 158.714844 92.71875 C 158.878906 92.777344 159 92.917969 159.035156 93.085938 L 159.402344 94.878906 C 159.433594 95.046875 159.554688 95.191406 159.71875 95.253906 L 162.148438 96.210938 C 162.773438 96.457031 163.308594 96.894531 163.675781 97.457031 L 163.957031 97.890625 C 164.054688 98.042969 164.089844 98.226562 164.058594 98.402344 L 163.839844 99.539062 L 163.058594 98.4375 C 162.6875 97.914062 162.175781 97.507812 161.585938 97.261719 L 158.699219 96.066406 C 158.539062 96 158.421875 95.855469 158.390625 95.683594 L 158.0625 93.855469 C 158.03125 93.683594 157.914062 93.542969 157.75 93.480469 L 156.476562 93 C 156.226562 92.90625 156.132812 92.605469 156.285156 92.386719 " clip-rule="nonzero"/></clipPath><clipPath id="620431a81a"><path d="M 166 98.695312 L 166.675781 98.695312 L 166.675781 99.863281 L 166 99.863281 Z M 166 98.695312 " clip-rule="nonzero"/></clipPath><clipPath id="fa80ec380c"><path d="M 166.546875 98.855469 C 166.695312 99.121094 166.695312 99.445312 166.554688 99.710938 C 166.449219 99.902344 166.160156 99.917969 166.078125 99.71875 C 166.023438 99.585938 166.003906 99.441406 166.027344 99.300781 L 166.089844 98.921875 C 166.128906 98.695312 166.429688 98.640625 166.542969 98.84375 Z M 166.546875 98.855469 " clip-rule="nonzero"/></clipPath><clipPath id="b1415022c9"><path d="M 160.105469 93.375 L 165.917969 93.375 L 165.917969 101.25 L 160.105469 101.25 Z M 160.105469 93.375 " clip-rule="nonzero"/></clipPath><clipPath id="0e2112e3d3"><path d="M 164.148438 96.535156 C 163.820312 95.992188 163.316406 95.574219 162.726562 95.351562 L 160.496094 94.511719 C 160.332031 94.453125 160.214844 94.3125 160.179688 94.140625 L 160.125 93.859375 C 160.066406 93.558594 160.359375 93.304688 160.648438 93.410156 L 163.160156 94.304688 C 163.855469 94.554688 164.4375 95.046875 164.796875 95.695312 L 165.597656 97.144531 C 165.6875 97.300781 165.71875 97.484375 165.6875 97.664062 L 165.332031 99.65625 C 165.300781 99.835938 165.339844 100.015625 165.4375 100.167969 L 165.910156 100.894531 C 165.691406 101.300781 165.117188 101.335938 164.851562 100.957031 L 164.507812 100.46875 C 164.402344 100.320312 164.363281 100.140625 164.394531 99.964844 L 164.761719 97.914062 C 164.792969 97.734375 164.761719 97.550781 164.667969 97.398438 Z M 164.148438 96.535156 " clip-rule="nonzero"/></clipPath><clipPath id="0f16fd8688"><path d="M 159.671875 98.152344 L 164.585938 98.152344 L 164.585938 101.382812 L 159.671875 101.382812 Z M 159.671875 98.152344 " clip-rule="nonzero"/></clipPath><clipPath id="0da1e870ac"><path d="M 161.195312 99.144531 C 161.066406 99.011719 160.910156 98.90625 160.742188 98.832031 L 159.6875 98.363281 L 159.890625 98.238281 C 160.039062 98.144531 160.226562 98.128906 160.386719 98.203125 L 160.84375 98.40625 C 161.011719 98.480469 161.167969 98.585938 161.300781 98.714844 L 162.480469 99.851562 C 162.613281 99.980469 162.765625 100.082031 162.9375 100.160156 L 164.050781 100.664062 L 164.582031 101.359375 L 162.75 100.53125 C 162.582031 100.457031 162.425781 100.351562 162.292969 100.222656 Z M 161.195312 99.144531 " clip-rule="nonzero"/></clipPath><clipPath id="336a93997c"><path d="M 162.007812 98.914062 L 163.664062 98.914062 L 163.664062 100.136719 L 162.007812 100.136719 Z M 162.007812 98.914062 " clip-rule="nonzero"/></clipPath><clipPath id="a29e5cf391"><path d="M 162.007812 98.921875 L 163.085938 99.402344 L 163.640625 100.125 L 163.066406 99.871094 C 162.898438 99.792969 162.746094 99.6875 162.617188 99.554688 Z M 162.007812 98.921875 " clip-rule="nonzero"/></clipPath><clipPath id="5d7c6cfb4e"><path d="M 157.472656 97.691406 L 161.734375 97.691406 L 161.734375 100.082031 L 157.472656 100.082031 Z M 157.472656 97.691406 " clip-rule="nonzero"/></clipPath><clipPath id="1ea5a65d4a"><path d="M 161.71875 100.070312 L 159.136719 98.90625 C 158.53125 98.632812 157.984375 98.238281 157.53125 97.753906 L 157.480469 97.699219 L 160.480469 99.050781 C 160.648438 99.128906 160.804688 99.230469 160.941406 99.355469 Z M 161.71875 100.070312 " clip-rule="nonzero"/></clipPath><clipPath id="81ecb99a98"><path d="M 156.738281 96.578125 L 162.738281 96.578125 L 162.738281 98.886719 L 156.738281 98.886719 Z M 156.738281 96.578125 " clip-rule="nonzero"/></clipPath><clipPath id="5b3dac799b"><path d="M 156.765625 96.59375 L 158.761719 97.480469 C 158.921875 97.550781 159.105469 97.535156 159.25 97.4375 L 159.59375 97.210938 C 159.738281 97.117188 159.921875 97.097656 160.082031 97.167969 L 161.238281 97.65625 C 161.835938 97.910156 162.347656 98.328125 162.714844 98.859375 L 160.238281 97.777344 C 160.078125 97.707031 159.890625 97.71875 159.742188 97.8125 L 159.4375 98 C 159.289062 98.089844 159.105469 98.105469 158.945312 98.03125 L 157.445312 97.367188 C 157.28125 97.292969 157.136719 97.167969 157.039062 97.015625 Z M 156.765625 96.59375 " clip-rule="nonzero"/></clipPath><clipPath id="2dcd9b050e"><path d="M 156.007812 95.4375 L 159.320312 95.4375 L 159.320312 97.121094 L 156.007812 97.121094 Z M 156.007812 95.4375 " clip-rule="nonzero"/></clipPath><clipPath id="06519b772f"><path d="M 156.023438 95.445312 L 159.308594 96.839844 L 159.070312 97.007812 C 158.929688 97.105469 158.746094 97.125 158.585938 97.054688 L 156.71875 96.238281 C 156.554688 96.167969 156.410156 96.046875 156.3125 95.894531 Z M 156.023438 95.445312 " clip-rule="nonzero"/></clipPath><clipPath id="67762be47a"><path d="M 38.753906 122.164062 L 42.175781 122.164062 L 42.175781 123.441406 L 38.753906 123.441406 Z M 38.753906 122.164062 " clip-rule="nonzero"/></clipPath><clipPath id="19967a6ed7"><path d="M 38.761719 122.75 C 39.085938 122.28125 39.667969 122.066406 40.21875 122.207031 L 41.964844 122.664062 C 42.199219 122.726562 42.234375 123.046875 42.015625 123.15625 L 41.632812 123.351562 C 41.472656 123.429688 41.285156 123.449219 41.113281 123.402344 Z M 38.761719 122.75 " clip-rule="nonzero"/></clipPath><clipPath id="95a7183d03"><path d="M 43.125 127.242188 L 47.117188 127.242188 L 47.117188 132.863281 L 43.125 132.863281 Z M 43.125 127.242188 " clip-rule="nonzero"/></clipPath><clipPath id="26ea632a7b"><path d="M 43.523438 127.414062 C 43.882812 127.242188 44.207031 127.199219 44.464844 127.351562 C 44.820312 127.558594 45.105469 127.878906 45.285156 128.253906 L 47 131.863281 C 47.128906 132.132812 47.121094 132.445312 46.980469 132.707031 C 46.882812 132.882812 46.628906 132.878906 46.539062 132.703125 L 44.769531 129.273438 C 44.484375 128.714844 43.988281 128.289062 43.394531 128.085938 L 43.347656 128.070312 C 43.101562 127.988281 43.074219 127.644531 43.308594 127.527344 Z M 43.523438 127.414062 " clip-rule="nonzero"/></clipPath><clipPath id="5b7f89a894"><path d="M 36.855469 125.070312 L 48.664062 125.070312 L 48.664062 130.09375 L 36.855469 130.09375 Z M 36.855469 125.070312 " clip-rule="nonzero"/></clipPath><clipPath id="2d12a20eb6"><path d="M 36.949219 125.375 C 37.117188 125.128906 37.433594 125.023438 37.71875 125.113281 L 41.167969 126.230469 C 41.339844 126.285156 41.523438 126.273438 41.6875 126.195312 L 43.71875 125.21875 C 43.878906 125.140625 44.066406 125.125 44.238281 125.175781 L 44.707031 125.3125 C 45.484375 125.539062 46.121094 126.113281 46.429688 126.863281 L 46.738281 127.617188 C 46.800781 127.769531 46.957031 127.871094 47.121094 127.863281 L 48.003906 127.820312 C 48.171875 127.8125 48.324219 127.914062 48.378906 128.070312 L 48.53125 128.511719 C 48.710938 129.027344 48.664062 129.601562 48.402344 130.082031 L 47.925781 128.835938 C 47.867188 128.679688 47.714844 128.578125 47.546875 128.582031 L 46.5625 128.617188 C 46.394531 128.621094 46.238281 128.523438 46.167969 128.371094 L 45.785156 127.5 C 45.535156 126.933594 45.046875 126.5 44.453125 126.316406 L 43.984375 126.171875 L 41.617188 127.277344 C 41.457031 127.351562 41.269531 127.363281 41.101562 127.304688 L 37.140625 125.957031 C 36.898438 125.875 36.804688 125.585938 36.949219 125.375 " clip-rule="nonzero"/></clipPath><clipPath id="d4ded211c6"><path d="M 37.941406 123.167969 L 47.878906 123.167969 L 47.878906 127.214844 L 37.941406 127.214844 Z M 37.941406 123.167969 " clip-rule="nonzero"/></clipPath><clipPath id="ef83a3c6e7"><path d="M 47.84375 126.535156 C 47.964844 126.886719 47.722656 127.332031 47.390625 127.15625 C 47.308594 127.113281 47.242188 127.039062 47.207031 126.949219 L 46.765625 125.789062 C 46.546875 125.214844 46.0625 124.773438 45.472656 124.609375 L 44.136719 124.238281 C 43.960938 124.191406 43.777344 124.207031 43.613281 124.285156 L 41.59375 125.238281 C 41.429688 125.316406 41.242188 125.328125 41.070312 125.277344 L 38.195312 124.390625 C 37.964844 124.316406 37.867188 124.042969 38.007812 123.84375 C 38.171875 123.601562 38.476562 123.496094 38.753906 123.578125 L 41.027344 124.238281 C 41.199219 124.289062 41.382812 124.273438 41.546875 124.195312 L 43.492188 123.253906 C 43.65625 123.175781 43.839844 123.15625 44.015625 123.203125 L 45.707031 123.644531 C 46.480469 123.847656 47.109375 124.429688 47.375 125.1875 Z M 47.84375 126.535156 " clip-rule="nonzero"/></clipPath><clipPath id="f93a127e60"><path d="M 46.546875 129.222656 L 47.933594 129.222656 L 47.933594 131.316406 L 46.546875 131.316406 Z M 46.546875 129.222656 " clip-rule="nonzero"/></clipPath><clipPath id="22d7bc7400"><path d="M 47.109375 129.226562 C 47.277344 129.21875 47.433594 129.320312 47.496094 129.472656 L 47.855469 130.351562 C 47.964844 130.617188 47.945312 130.921875 47.808594 131.175781 C 47.71875 131.339844 47.480469 131.332031 47.40625 131.160156 L 46.558594 129.253906 Z M 47.109375 129.226562 " clip-rule="nonzero"/></clipPath><clipPath id="d8e47f8093"><path d="M 34.84375 128.136719 L 36.910156 128.136719 L 36.910156 129.902344 L 34.84375 129.902344 Z M 34.84375 128.136719 " clip-rule="nonzero"/></clipPath><clipPath id="c258f072fe"><path d="M 34.988281 128.214844 L 35.03125 128.152344 L 36.519531 128.738281 C 36.679688 128.800781 36.800781 128.945312 36.832031 129.117188 L 36.890625 129.433594 C 36.949219 129.730469 36.652344 129.96875 36.375 129.855469 L 35.347656 129.429688 C 34.867188 129.230469 34.695312 128.640625 34.988281 128.214844 " clip-rule="nonzero"/></clipPath><clipPath id="84e2bdf113"><path d="M 35.769531 126.644531 L 43.640625 126.644531 L 43.640625 134.136719 L 35.769531 134.136719 Z M 35.769531 126.644531 " clip-rule="nonzero"/></clipPath><clipPath id="ef28a4da3b"><path d="M 35.855469 126.960938 C 36.03125 126.707031 36.355469 126.601562 36.644531 126.707031 L 38.285156 127.292969 C 38.449219 127.351562 38.570312 127.488281 38.605469 127.660156 L 38.972656 129.449219 C 39.007812 129.621094 39.128906 129.765625 39.289062 129.828125 L 41.71875 130.785156 C 42.347656 131.03125 42.882812 131.46875 43.246094 132.03125 L 43.53125 132.464844 C 43.628906 132.617188 43.664062 132.796875 43.628906 132.972656 L 43.414062 134.113281 L 42.628906 133.007812 C 42.261719 132.488281 41.75 132.078125 41.15625 131.835938 L 38.273438 130.640625 C 38.113281 130.574219 37.996094 130.429688 37.964844 130.257812 L 37.636719 128.429688 C 37.605469 128.257812 37.484375 128.117188 37.324219 128.054688 L 36.046875 127.574219 C 35.800781 127.480469 35.703125 127.179688 35.855469 126.960938 " clip-rule="nonzero"/></clipPath><clipPath id="9af609fa15"><path d="M 45.570312 133.269531 L 46.25 133.269531 L 46.25 134.4375 L 45.570312 134.4375 Z M 45.570312 133.269531 " clip-rule="nonzero"/></clipPath><clipPath id="9ddce09d2c"><path d="M 46.121094 133.429688 C 46.265625 133.695312 46.269531 134.015625 46.125 134.285156 C 46.019531 134.476562 45.734375 134.492188 45.648438 134.289062 C 45.59375 134.160156 45.578125 134.015625 45.601562 133.875 L 45.660156 133.496094 C 45.699219 133.269531 46 133.214844 46.113281 133.417969 Z M 46.121094 133.429688 " clip-rule="nonzero"/></clipPath><clipPath id="9e05b81906"><path d="M 39.679688 127.949219 L 45.488281 127.949219 L 45.488281 135.820312 L 39.679688 135.820312 Z M 39.679688 127.949219 " clip-rule="nonzero"/></clipPath><clipPath id="f69b58c56f"><path d="M 43.71875 131.109375 C 43.394531 130.566406 42.890625 130.148438 42.296875 129.925781 L 40.066406 129.085938 C 39.90625 129.023438 39.785156 128.882812 39.75 128.714844 L 39.695312 128.433594 C 39.636719 128.132812 39.929688 127.878906 40.222656 127.984375 L 42.730469 128.878906 C 43.425781 129.125 44.007812 129.621094 44.367188 130.265625 L 45.171875 131.714844 C 45.257812 131.875 45.289062 132.058594 45.257812 132.234375 L 44.90625 134.230469 C 44.875 134.40625 44.910156 134.589844 45.007812 134.742188 L 45.480469 135.46875 C 45.261719 135.875 44.691406 135.910156 44.425781 135.53125 L 44.078125 135.039062 C 43.976562 134.894531 43.933594 134.710938 43.964844 134.535156 L 44.335938 132.484375 C 44.367188 132.308594 44.332031 132.125 44.238281 131.96875 Z M 43.71875 131.109375 " clip-rule="nonzero"/></clipPath><clipPath id="314b3f2a22"><path d="M 39.242188 132.726562 L 44.15625 132.726562 L 44.15625 135.957031 L 39.242188 135.957031 Z M 39.242188 132.726562 " clip-rule="nonzero"/></clipPath><clipPath id="877c597469"><path d="M 40.769531 133.714844 C 40.636719 133.585938 40.484375 133.480469 40.3125 133.40625 L 39.261719 132.9375 L 39.464844 132.808594 C 39.613281 132.71875 39.796875 132.703125 39.957031 132.773438 L 40.417969 132.976562 C 40.585938 133.054688 40.742188 133.15625 40.875 133.285156 L 42.050781 134.421875 C 42.183594 134.550781 42.339844 134.65625 42.507812 134.734375 L 43.621094 135.234375 L 44.15625 135.933594 L 42.320312 135.105469 C 42.152344 135.03125 42 134.925781 41.867188 134.792969 Z M 40.769531 133.714844 " clip-rule="nonzero"/></clipPath><clipPath id="50d8d497e4"><path d="M 41.578125 133.488281 L 43.234375 133.488281 L 43.234375 134.707031 L 41.578125 134.707031 Z M 41.578125 133.488281 " clip-rule="nonzero"/></clipPath><clipPath id="7c956bf4af"><path d="M 41.578125 133.496094 L 42.660156 133.972656 L 43.214844 134.699219 L 42.636719 134.441406 C 42.46875 134.367188 42.316406 134.261719 42.1875 134.128906 Z M 41.578125 133.496094 " clip-rule="nonzero"/></clipPath><clipPath id="0ddd5ca198"><path d="M 37.042969 132.265625 L 41.308594 132.265625 L 41.308594 134.652344 L 37.042969 134.652344 Z M 37.042969 132.265625 " clip-rule="nonzero"/></clipPath><clipPath id="f6b63d6255"><path d="M 41.292969 134.640625 L 38.707031 133.476562 C 38.101562 133.203125 37.554688 132.8125 37.101562 132.328125 L 37.050781 132.269531 L 40.050781 133.625 C 40.21875 133.699219 40.375 133.804688 40.511719 133.929688 Z M 41.292969 134.640625 " clip-rule="nonzero"/></clipPath><clipPath id="7a178690f8"><path d="M 36.3125 131.152344 L 42.3125 131.152344 L 42.3125 133.460938 L 36.3125 133.460938 Z M 36.3125 131.152344 " clip-rule="nonzero"/></clipPath><clipPath id="91f5ed9a6d"><path d="M 36.335938 131.167969 L 38.332031 132.054688 C 38.492188 132.125 38.675781 132.109375 38.820312 132.011719 L 39.164062 131.785156 C 39.308594 131.6875 39.496094 131.671875 39.65625 131.738281 L 40.808594 132.230469 C 41.40625 132.480469 41.917969 132.902344 42.285156 133.433594 L 39.808594 132.351562 C 39.648438 132.28125 39.464844 132.292969 39.3125 132.382812 L 39.011719 132.574219 C 38.859375 132.664062 38.675781 132.675781 38.515625 132.605469 L 37.019531 131.9375 C 36.851562 131.863281 36.710938 131.742188 36.609375 131.589844 Z M 36.335938 131.167969 " clip-rule="nonzero"/></clipPath><clipPath id="db788baea7"><path d="M 35.578125 130.011719 L 38.890625 130.011719 L 38.890625 131.695312 L 35.578125 131.695312 Z M 35.578125 130.011719 " clip-rule="nonzero"/></clipPath><clipPath id="8d86c43783"><path d="M 35.59375 130.019531 L 38.878906 131.410156 L 38.644531 131.578125 C 38.5 131.679688 38.316406 131.699219 38.15625 131.628906 L 36.292969 130.8125 C 36.125 130.738281 35.980469 130.617188 35.882812 130.464844 Z M 35.59375 130.019531 " clip-rule="nonzero"/></clipPath></defs><g clip-path="url(#99deaf2014)"><path fill="#ffffff" d="M 198.867188 135.871094 C 196.355469 134.558594 193.84375 133.246094 191.332031 131.9375 C 187.636719 130.007812 183.945312 128.082031 180.25 126.152344 C 179.734375 125.882812 179.214844 125.613281 178.699219 125.34375 C 178.652344 125.316406 178.605469 125.3125 178.566406 125.3125 C 178.558594 125.3125 178.554688 125.3125 178.550781 125.3125 C 178.546875 125.3125 178.546875 125.3125 178.542969 125.316406 C 178.53125 125.316406 178.519531 125.316406 178.507812 125.316406 C 176.472656 125.671875 174.4375 126.027344 172.402344 126.382812 C 168.054688 127.144531 163.707031 127.902344 159.359375 128.664062 C 155.332031 129.367188 151.308594 130.070312 147.285156 130.773438 C 146.167969 130.96875 145.050781 131.164062 143.933594 131.359375 C 143.933594 129.183594 143.933594 127.007812 143.933594 124.832031 C 143.933594 120.300781 143.933594 115.765625 143.933594 111.230469 C 143.933594 107.863281 143.933594 104.492188 143.933594 101.125 C 143.933594 100.988281 143.933594 100.851562 143.933594 100.714844 C 146.910156 102.261719 149.886719 103.808594 152.863281 105.359375 C 153.109375 105.484375 153.359375 105.613281 153.605469 105.746094 C 153.652344 105.769531 153.695312 105.777344 153.738281 105.773438 C 153.746094 105.773438 153.75 105.773438 153.757812 105.773438 C 153.757812 105.773438 153.757812 105.773438 153.761719 105.773438 C 153.773438 105.773438 153.785156 105.773438 153.796875 105.769531 C 156.992188 105.21875 160.183594 104.671875 163.375 104.121094 C 166.011719 103.667969 168.644531 103.214844 171.28125 102.761719 C 171.40625 102.738281 171.460938 102.652344 171.460938 102.554688 C 171.460938 102.546875 171.464844 102.535156 171.464844 102.523438 C 171.464844 99.417969 171.464844 96.308594 171.464844 93.203125 C 171.464844 89.894531 171.464844 86.585938 171.464844 83.277344 C 171.464844 83.269531 171.464844 83.257812 171.464844 83.25 C 171.472656 83.167969 171.4375 83.085938 171.339844 83.035156 C 168.238281 81.425781 165.132812 79.820312 162.03125 78.210938 C 161.769531 78.078125 161.511719 77.945312 161.253906 77.808594 C 161.207031 77.785156 161.164062 77.78125 161.125 77.78125 C 161.105469 77.78125 161.082031 77.78125 161.0625 77.785156 C 157.867188 78.335938 154.667969 78.886719 151.46875 79.441406 C 148.855469 79.890625 146.238281 80.34375 143.621094 80.792969 C 143.496094 80.816406 143.441406 80.902344 143.441406 81 C 143.441406 81.007812 143.4375 81.019531 143.4375 81.03125 C 143.4375 81.03125 143.4375 81.035156 143.4375 81.035156 C 143.4375 81.046875 143.4375 81.058594 143.4375 81.070312 C 143.4375 84.164062 143.4375 87.257812 143.4375 90.351562 C 143.4375 93.53125 143.4375 96.714844 143.4375 99.898438 C 140.742188 98.492188 138.046875 97.089844 135.351562 95.6875 C 132.699219 94.304688 130.046875 92.925781 127.394531 91.542969 C 127.351562 91.519531 127.304688 91.511719 127.265625 91.515625 C 127.257812 91.511719 127.253906 91.515625 127.25 91.515625 C 127.246094 91.515625 127.246094 91.515625 127.242188 91.515625 C 127.230469 91.515625 127.21875 91.515625 127.207031 91.515625 C 124.828125 91.925781 122.453125 92.335938 120.078125 92.746094 C 115.597656 93.519531 111.121094 94.292969 106.640625 95.066406 C 104.121094 95.5 101.601562 95.9375 99.078125 96.371094 C 99.078125 94.960938 99.078125 93.554688 99.078125 92.148438 C 99.078125 88.457031 99.078125 84.769531 99.078125 81.082031 C 99.078125 76.457031 99.078125 71.828125 99.078125 67.203125 C 99.078125 62.878906 99.078125 58.558594 99.078125 54.234375 C 99.078125 51.460938 99.078125 48.6875 99.078125 45.914062 C 99.078125 45.632812 99.078125 45.351562 99.078125 45.066406 C 101.578125 46.371094 104.078125 47.675781 106.582031 48.980469 C 110.003906 50.765625 113.429688 52.550781 116.855469 54.335938 C 117.054688 54.441406 117.253906 54.542969 117.453125 54.648438 C 117.5 54.671875 117.542969 54.679688 117.585938 54.679688 C 117.59375 54.679688 117.597656 54.675781 117.601562 54.675781 C 117.605469 54.675781 117.605469 54.675781 117.609375 54.675781 C 117.621094 54.675781 117.632812 54.675781 117.644531 54.671875 C 119.796875 54.296875 121.949219 53.921875 124.101562 53.550781 C 128.527344 52.777344 132.953125 52.007812 137.378906 51.234375 C 141.035156 50.597656 144.691406 49.960938 148.351562 49.324219 C 148.941406 49.21875 149.53125 49.117188 150.121094 49.015625 C 150.246094 48.992188 150.296875 48.902344 150.296875 48.808594 C 150.300781 48.796875 150.300781 48.789062 150.300781 48.773438 C 150.300781 46.726562 150.300781 44.675781 150.300781 42.625 C 150.300781 38.222656 150.300781 33.820312 150.300781 29.417969 C 150.300781 25.28125 150.300781 21.148438 150.300781 17.015625 C 150.300781 15.664062 150.300781 14.3125 150.300781 12.957031 C 150.308594 12.878906 150.277344 12.792969 150.179688 12.746094 C 147.554688 11.375 144.929688 10.007812 142.304688 8.640625 C 138.878906 6.851562 135.457031 5.066406 132.03125 3.28125 C 131.832031 3.175781 131.628906 3.070312 131.429688 2.96875 C 131.386719 2.945312 131.339844 2.9375 131.296875 2.9375 C 131.292969 2.9375 131.289062 2.941406 131.28125 2.941406 C 131.28125 2.941406 131.277344 2.941406 131.277344 2.941406 C 131.265625 2.941406 131.253906 2.941406 131.238281 2.941406 C 129.089844 3.316406 126.9375 3.691406 124.785156 4.066406 C 120.359375 4.839844 115.933594 5.609375 111.507812 6.382812 C 107.851562 7.019531 104.191406 7.65625 100.535156 8.292969 C 99.945312 8.398438 99.355469 8.5 98.765625 8.601562 C 98.640625 8.625 98.589844 8.710938 98.589844 8.808594 C 98.585938 8.816406 98.585938 8.828125 98.585938 8.839844 C 98.585938 8.839844 98.585938 8.84375 98.585938 8.84375 C 98.582031 8.855469 98.582031 8.867188 98.585938 8.878906 C 98.585938 10.917969 98.585938 12.953125 98.585938 14.992188 C 98.585938 19.394531 98.585938 23.796875 98.585938 28.199219 C 98.585938 32.335938 98.585938 36.46875 98.585938 40.601562 C 98.585938 41.820312 98.585938 43.035156 98.585938 44.25 C 96.664062 43.25 94.742188 42.246094 92.820312 41.246094 C 88.792969 39.144531 84.761719 37.046875 80.734375 34.945312 C 77.882812 33.457031 75.03125 31.972656 72.179688 30.484375 C 72.023438 30.402344 71.863281 30.320312 71.703125 30.238281 C 71.660156 30.210938 71.613281 30.203125 71.574219 30.207031 C 71.566406 30.207031 71.5625 30.207031 71.558594 30.207031 C 71.554688 30.207031 71.554688 30.207031 71.550781 30.207031 C 71.539062 30.210938 71.527344 30.210938 71.511719 30.210938 C 69.921875 30.488281 68.328125 30.765625 66.734375 31.042969 C 62.921875 31.703125 59.105469 32.367188 55.292969 33.03125 C 50.703125 33.828125 46.113281 34.625 41.527344 35.421875 C 37.609375 36.101562 33.695312 36.78125 29.78125 37.464844 C 27.984375 37.777344 26.1875 38.085938 24.390625 38.398438 C 24.382812 38.402344 24.375 38.402344 24.367188 38.402344 C 24.242188 38.425781 24.1875 38.515625 24.1875 38.609375 C 24.1875 38.621094 24.183594 38.632812 24.183594 38.644531 C 24.183594 38.65625 24.183594 38.667969 24.183594 38.683594 C 24.183594 40.171875 24.183594 41.664062 24.183594 43.15625 C 24.183594 46.839844 24.183594 50.527344 24.183594 54.210938 C 24.183594 58.835938 24.183594 63.464844 24.183594 68.089844 C 24.183594 72.414062 24.183594 76.738281 24.183594 81.0625 C 24.183594 83.84375 24.183594 86.628906 24.183594 89.410156 C 24.183594 89.835938 24.183594 90.261719 24.183594 90.6875 C 24.175781 90.769531 24.210938 90.851562 24.304688 90.902344 C 26.351562 91.964844 28.398438 93.027344 30.441406 94.089844 C 34.472656 96.183594 38.5 98.28125 42.53125 100.375 C 45.382812 101.859375 48.234375 103.339844 51.082031 104.824219 C 51.242188 104.90625 51.402344 104.988281 51.558594 105.070312 C 51.605469 105.09375 51.648438 105.101562 51.691406 105.097656 C 51.710938 105.101562 51.730469 105.097656 51.75 105.09375 C 53.34375 104.820312 54.9375 104.542969 56.53125 104.265625 C 60.34375 103.601562 64.160156 102.9375 67.972656 102.277344 C 72.5625 101.480469 77.148438 100.679688 81.738281 99.882812 C 85.652344 99.203125 89.570312 98.523438 93.484375 97.84375 C 95.183594 97.546875 96.886719 97.25 98.585938 96.957031 C 98.585938 99.132812 98.585938 101.304688 98.585938 103.480469 C 98.585938 108.015625 98.585938 112.550781 98.585938 117.082031 C 98.585938 120.453125 98.585938 123.820312 98.585938 127.191406 C 98.585938 127.394531 98.585938 127.597656 98.585938 127.800781 C 97.105469 128.058594 95.625 128.316406 94.144531 128.570312 C 90.410156 129.21875 86.679688 129.867188 82.949219 130.515625 C 78.367188 131.3125 73.785156 132.105469 69.203125 132.902344 C 65.113281 133.613281 61.019531 134.324219 56.925781 135.035156 C 54.660156 135.425781 52.398438 135.820312 50.132812 136.214844 C 50.113281 136.21875 50.09375 136.21875 50.074219 136.222656 C 50.074219 133.09375 50.074219 129.960938 50.074219 126.828125 C 50.074219 124.097656 50.074219 121.363281 50.074219 118.628906 C 50.082031 118.546875 50.046875 118.464844 49.949219 118.414062 C 46.9375 116.84375 43.925781 115.273438 40.914062 113.703125 C 40.816406 113.648438 40.714844 113.597656 40.617188 113.546875 C 40.570312 113.523438 40.523438 113.515625 40.484375 113.515625 C 40.476562 113.515625 40.472656 113.515625 40.46875 113.515625 C 40.46875 113.519531 40.464844 113.519531 40.460938 113.519531 C 40.449219 113.519531 40.4375 113.519531 40.425781 113.519531 C 37.136719 114.089844 33.851562 114.65625 30.566406 115.226562 C 28.433594 115.59375 26.300781 115.960938 24.167969 116.332031 C 24.042969 116.351562 23.992188 116.441406 23.988281 116.535156 C 23.988281 116.546875 23.988281 116.554688 23.988281 116.566406 C 23.984375 116.578125 23.984375 116.59375 23.988281 116.609375 C 23.988281 119.824219 23.988281 123.039062 23.988281 126.257812 C 23.988281 128.988281 23.988281 131.722656 23.988281 134.457031 C 23.988281 134.457031 23.988281 134.457031 23.988281 134.460938 C 23.980469 134.539062 24.015625 134.621094 24.109375 134.671875 C 27.125 136.253906 30.144531 137.832031 33.160156 139.410156 C 33.269531 139.46875 33.375 139.523438 33.484375 139.578125 C 33.53125 139.605469 33.574219 139.609375 33.617188 139.609375 C 33.621094 139.609375 33.625 139.609375 33.628906 139.609375 C 33.628906 139.609375 33.632812 139.609375 33.636719 139.605469 C 33.648438 139.605469 33.660156 139.605469 33.675781 139.605469 C 36.964844 139.027344 40.257812 138.449219 43.546875 137.871094 C 45.558594 137.515625 47.570312 137.164062 49.578125 136.808594 C 49.578125 138.167969 49.578125 139.523438 49.578125 140.882812 C 49.578125 144.480469 49.578125 148.078125 49.578125 151.675781 C 49.578125 156.269531 49.578125 160.863281 49.578125 165.457031 C 49.578125 169.894531 49.578125 174.332031 49.578125 178.769531 C 49.578125 181.902344 49.578125 185.035156 49.578125 188.167969 C 49.578125 188.972656 49.578125 189.777344 49.578125 190.578125 C 49.570312 190.660156 49.605469 190.742188 49.703125 190.792969 C 51.6875 191.824219 53.671875 192.855469 55.65625 193.886719 C 59.664062 195.972656 63.671875 198.054688 67.679688 200.136719 C 70.789062 201.753906 73.898438 203.371094 77.007812 204.988281 C 77.34375 205.164062 77.683594 205.339844 78.023438 205.515625 C 78.066406 205.539062 78.109375 205.546875 78.152344 205.542969 C 78.171875 205.542969 78.191406 205.542969 78.210938 205.539062 C 79.753906 205.273438 81.296875 205.003906 82.835938 204.738281 C 86.566406 204.089844 90.296875 203.441406 94.03125 202.792969 C 98.609375 202 103.191406 201.203125 107.773438 200.40625 C 111.867188 199.695312 115.960938 198.984375 120.050781 198.273438 C 122.316406 197.882812 124.582031 197.488281 126.847656 197.09375 C 126.96875 197.074219 127.09375 197.050781 127.21875 197.03125 C 127.34375 197.007812 127.394531 196.921875 127.398438 196.824219 C 127.398438 196.816406 127.398438 196.804688 127.398438 196.792969 C 127.398438 195.335938 127.398438 193.878906 127.398438 192.421875 C 127.398438 188.820312 127.398438 185.21875 127.398438 181.621094 C 127.398438 177.023438 127.398438 172.429688 127.398438 167.835938 C 127.398438 163.398438 127.398438 158.964844 127.398438 154.527344 C 127.398438 151.402344 127.398438 148.273438 127.398438 145.148438 C 127.398438 144.355469 127.398438 143.5625 127.398438 142.769531 C 127.40625 142.6875 127.375 142.605469 127.277344 142.554688 C 124.15625 140.925781 121.039062 139.296875 117.917969 137.671875 C 117.28125 137.335938 116.644531 137.003906 116.011719 136.671875 C 118.152344 136.304688 120.296875 135.933594 122.441406 135.5625 C 126.917969 134.792969 131.398438 134.019531 135.878906 133.246094 C 138.398438 132.808594 140.917969 132.375 143.4375 131.941406 C 143.4375 133.777344 143.4375 135.617188 143.4375 137.453125 C 143.4375 141.746094 143.4375 146.042969 143.4375 150.335938 C 143.4375 154.722656 143.4375 159.105469 143.4375 163.492188 C 143.4375 165.699219 143.4375 167.90625 143.4375 170.113281 C 143.4375 170.128906 143.4375 170.140625 143.4375 170.15625 C 143.429688 170.238281 143.464844 170.320312 143.5625 170.371094 C 146.078125 171.679688 148.59375 172.992188 151.109375 174.300781 C 154.796875 176.222656 158.484375 178.144531 162.175781 180.066406 C 162.679688 180.332031 163.1875 180.59375 163.695312 180.859375 C 163.738281 180.882812 163.785156 180.890625 163.828125 180.886719 C 163.832031 180.886719 163.835938 180.886719 163.84375 180.886719 C 163.84375 180.886719 163.847656 180.886719 163.847656 180.886719 C 163.859375 180.886719 163.871094 180.886719 163.886719 180.882812 C 165.921875 180.53125 167.960938 180.175781 169.996094 179.824219 C 174.347656 179.070312 178.703125 178.3125 183.054688 177.558594 C 187.082031 176.859375 191.113281 176.160156 195.144531 175.464844 C 196.363281 175.25 197.585938 175.039062 198.808594 174.828125 C 198.933594 174.804688 198.988281 174.714844 198.988281 174.621094 C 198.992188 174.609375 198.992188 174.601562 198.992188 174.589844 C 198.992188 172.652344 198.992188 170.71875 198.992188 168.78125 C 198.992188 164.488281 198.992188 160.195312 198.992188 155.898438 C 198.992188 151.515625 198.992188 147.128906 198.992188 142.746094 C 198.992188 140.539062 198.992188 138.332031 198.992188 136.125 C 198.992188 136.109375 198.992188 136.09375 198.992188 136.078125 C 199 136 198.964844 135.917969 198.867188 135.871094 Z M 149.855469 130.824219 C 154.203125 130.0625 158.550781 129.304688 162.898438 128.542969 C 166.925781 127.839844 170.949219 127.136719 174.972656 126.433594 C 176.160156 126.226562 177.34375 126.019531 178.53125 125.8125 C 181.015625 127.109375 183.5 128.40625 185.984375 129.703125 C 189.675781 131.632812 193.371094 133.558594 197.066406 135.488281 C 197.371094 135.648438 197.675781 135.804688 197.980469 135.964844 C 196.175781 136.277344 194.371094 136.589844 192.566406 136.90625 C 188.214844 137.660156 183.859375 138.414062 179.507812 139.167969 C 175.480469 139.867188 171.449219 140.566406 167.421875 141.265625 C 166.234375 141.46875 165.046875 141.675781 163.859375 141.882812 C 161.371094 140.585938 158.882812 139.289062 156.394531 137.992188 C 152.707031 136.074219 149.019531 134.152344 145.332031 132.230469 C 145.035156 132.078125 144.742188 131.921875 144.445312 131.769531 C 146.25 131.453125 148.054688 131.136719 149.855469 130.824219 Z M 144.554688 100.480469 C 144.347656 100.371094 144.140625 100.261719 143.933594 100.15625 C 143.933594 97.101562 143.933594 94.042969 143.933594 90.988281 C 143.933594 87.804688 143.933594 84.625 143.933594 81.441406 C 146.902344 82.996094 149.867188 84.550781 152.832031 86.105469 C 153.050781 86.21875 153.265625 86.332031 153.484375 86.445312 C 153.484375 89.507812 153.484375 92.570312 153.484375 95.628906 C 153.484375 98.792969 153.484375 101.960938 153.484375 105.121094 C 150.507812 103.574219 147.53125 102.027344 144.554688 100.480469 Z M 161.570312 103.929688 C 159.042969 104.367188 156.511719 104.800781 153.980469 105.238281 C 153.980469 102.222656 153.980469 99.210938 153.980469 96.195312 C 153.980469 92.964844 153.980469 89.734375 153.980469 86.503906 C 157.113281 85.957031 160.242188 85.410156 163.375 84.867188 C 165.90625 84.425781 168.4375 83.984375 170.96875 83.542969 C 170.96875 86.550781 170.96875 89.558594 170.96875 92.566406 C 170.96875 95.816406 170.96875 99.066406 170.96875 102.316406 C 167.835938 102.851562 164.703125 103.390625 161.570312 103.929688 Z M 153.34375 79.617188 C 155.925781 79.171875 158.503906 78.726562 161.085938 78.28125 C 164.164062 79.875 167.238281 81.46875 170.3125 83.0625 C 170.359375 83.085938 170.40625 83.109375 170.449219 83.132812 C 167.492188 83.648438 164.53125 84.164062 161.570312 84.679688 C 158.972656 85.132812 156.371094 85.585938 153.773438 86.039062 C 150.710938 84.433594 147.648438 82.828125 144.585938 81.222656 C 144.539062 81.199219 144.492188 81.175781 144.445312 81.152344 C 147.414062 80.640625 150.378906 80.128906 153.34375 79.617188 Z M 119.464844 93.355469 C 122.050781 92.90625 124.640625 92.460938 127.230469 92.015625 C 130.023438 93.46875 132.8125 94.921875 135.605469 96.375 C 138.042969 97.648438 140.484375 98.917969 142.921875 100.1875 C 140.78125 100.558594 138.636719 100.925781 136.492188 101.296875 C 132.015625 102.070312 127.535156 102.84375 123.054688 103.617188 C 120.464844 104.0625 117.878906 104.507812 115.289062 104.957031 C 112.496094 103.503906 109.707031 102.046875 106.914062 100.59375 C 104.476562 99.324219 102.035156 98.054688 99.597656 96.785156 C 101.738281 96.414062 103.882812 96.042969 106.023438 95.671875 C 110.503906 94.902344 114.984375 94.128906 119.464844 93.355469 Z M 99.082031 121.191406 C 99.082031 116.65625 99.082031 112.125 99.082031 107.589844 C 99.082031 104.21875 99.082031 100.851562 99.082031 97.480469 C 99.082031 97.34375 99.082031 97.210938 99.082031 97.074219 C 101.773438 98.476562 104.46875 99.878906 107.164062 101.285156 C 109.777344 102.644531 112.386719 104.003906 115 105.363281 C 115 107.585938 115 109.808594 115 112.03125 C 115 116.566406 115 121.101562 115 125.632812 C 115 129.003906 115 132.371094 115 135.742188 C 115 135.878906 115 136.015625 115 136.152344 C 112.304688 134.746094 109.609375 133.34375 106.914062 131.9375 C 104.304688 130.578125 101.691406 129.21875 99.082031 127.859375 C 99.082031 125.636719 99.082031 123.414062 99.082031 121.191406 Z M 109.832031 50.117188 C 106.40625 48.332031 102.980469 46.542969 99.558594 44.757812 C 99.398438 44.675781 99.238281 44.59375 99.082031 44.511719 C 99.082031 42.511719 99.082031 40.511719 99.082031 38.511719 C 99.082031 34.105469 99.082031 29.703125 99.082031 25.300781 C 99.082031 21.167969 99.082031 17.035156 99.082031 12.898438 C 99.082031 11.683594 99.082031 10.46875 99.082031 9.25 C 101.582031 10.554688 104.082031 11.859375 106.582031 13.160156 C 110.003906 14.949219 113.429688 16.734375 116.855469 18.519531 C 117.015625 18.601562 117.171875 18.683594 117.332031 18.769531 C 117.332031 20.769531 117.332031 22.769531 117.332031 24.769531 C 117.332031 29.171875 117.332031 33.574219 117.332031 37.976562 C 117.332031 42.109375 117.332031 46.246094 117.332031 50.378906 C 117.332031 51.59375 117.332031 52.8125 117.332031 54.027344 C 114.832031 52.722656 112.332031 51.421875 109.832031 50.117188 Z M 143.535156 49.664062 C 139.109375 50.433594 134.683594 51.203125 130.257812 51.976562 C 126.597656 52.613281 122.941406 53.25 119.28125 53.886719 C 118.796875 53.972656 118.3125 54.058594 117.828125 54.140625 C 117.828125 52.191406 117.828125 50.238281 117.828125 48.285156 C 117.828125 43.882812 117.828125 39.480469 117.828125 35.078125 C 117.828125 30.941406 117.828125 26.808594 117.828125 22.675781 C 117.828125 21.390625 117.828125 20.109375 117.828125 18.824219 C 119.917969 18.460938 122.007812 18.097656 124.097656 17.734375 C 128.523438 16.960938 132.949219 16.191406 137.375 15.417969 C 141.035156 14.78125 144.691406 14.144531 148.351562 13.507812 C 148.835938 13.421875 149.320312 13.335938 149.804688 13.253906 C 149.804688 15.207031 149.804688 17.15625 149.804688 19.109375 C 149.804688 23.511719 149.804688 27.914062 149.804688 32.316406 C 149.804688 36.453125 149.804688 40.585938 149.804688 44.71875 C 149.804688 46.003906 149.804688 47.285156 149.804688 48.570312 C 147.714844 48.933594 145.625 49.296875 143.535156 49.664062 Z M 105.351562 7.957031 C 109.777344 7.183594 114.203125 6.414062 118.628906 5.640625 C 122.285156 5.003906 125.945312 4.367188 129.601562 3.730469 C 130.15625 3.632812 130.710938 3.539062 131.265625 3.441406 C 133.859375 4.792969 136.457031 6.148438 139.054688 7.503906 C 142.46875 9.28125 145.878906 11.0625 149.292969 12.839844 C 147.375 13.175781 145.453125 13.511719 143.535156 13.84375 C 139.109375 14.617188 134.683594 15.386719 130.257812 16.160156 C 126.597656 16.796875 122.941406 17.433594 119.285156 18.070312 C 118.730469 18.167969 118.175781 18.265625 117.621094 18.359375 C 115.023438 17.007812 112.429688 15.652344 109.832031 14.296875 C 106.417969 12.519531 103.007812 10.738281 99.59375 8.960938 C 101.511719 8.625 103.433594 8.289062 105.351562 7.957031 Z M 40.71875 36.066406 C 45.308594 35.265625 49.894531 34.46875 54.484375 33.671875 C 58.398438 32.992188 62.316406 32.3125 66.230469 31.632812 C 68 31.324219 69.769531 31.015625 71.539062 30.710938 C 73.554688 31.761719 75.574219 32.8125 77.589844 33.863281 C 81.617188 35.964844 85.648438 38.066406 89.675781 40.167969 C 92.472656 41.625 95.273438 43.082031 98.070312 44.542969 C 96.707031 44.777344 95.347656 45.015625 93.988281 45.25 C 90.171875 45.914062 86.359375 46.578125 82.542969 47.238281 C 77.957031 48.039062 73.367188 48.835938 68.777344 49.632812 C 64.863281 50.3125 60.945312 50.992188 57.03125 51.671875 C 55.261719 51.980469 53.492188 52.289062 51.726562 52.59375 C 49.707031 51.542969 47.691406 50.492188 45.671875 49.441406 C 41.644531 47.339844 37.613281 45.238281 33.585938 43.136719 C 30.789062 41.679688 27.992188 40.222656 25.191406 38.761719 C 26.554688 38.527344 27.914062 38.289062 29.277344 38.054688 C 33.089844 37.390625 36.90625 36.726562 40.71875 36.066406 Z M 45.671875 101.453125 C 41.644531 99.359375 37.613281 97.265625 33.585938 95.167969 C 30.734375 93.6875 27.882812 92.203125 25.03125 90.722656 C 24.914062 90.660156 24.796875 90.601562 24.679688 90.539062 C 24.679688 89.085938 24.679688 87.628906 24.679688 86.175781 C 24.679688 82.492188 24.679688 78.804688 24.679688 75.121094 C 24.679688 70.492188 24.679688 65.867188 24.679688 61.242188 C 24.679688 56.917969 24.679688 52.59375 24.679688 48.269531 C 24.679688 45.488281 24.679688 42.703125 24.679688 39.921875 C 24.679688 39.632812 24.679688 39.34375 24.679688 39.054688 C 26.601562 40.054688 28.519531 41.054688 30.441406 42.058594 C 34.472656 44.160156 38.5 46.257812 42.527344 48.359375 C 45.378906 49.84375 48.230469 51.332031 51.082031 52.820312 C 51.199219 52.878906 51.320312 52.941406 51.4375 53.003906 C 51.4375 54.460938 51.4375 55.914062 51.4375 57.371094 C 51.4375 61.058594 51.4375 64.746094 51.4375 68.433594 C 51.4375 73.0625 51.4375 77.6875 51.4375 82.316406 C 51.4375 86.636719 51.4375 90.960938 51.4375 95.28125 C 51.4375 98.054688 51.4375 100.828125 51.4375 103.605469 C 51.4375 103.886719 51.4375 104.167969 51.4375 104.449219 C 49.515625 103.449219 47.59375 102.453125 45.671875 101.453125 Z M 82.542969 99.246094 C 77.957031 100.042969 73.367188 100.839844 68.777344 101.636719 C 64.863281 102.316406 60.945312 102.996094 57.03125 103.679688 C 55.332031 103.972656 53.632812 104.269531 51.933594 104.5625 C 51.933594 103.15625 51.933594 101.746094 51.933594 100.339844 C 51.933594 96.652344 51.933594 92.964844 51.933594 89.277344 C 51.933594 84.648438 51.933594 80.023438 51.933594 75.394531 C 51.933594 71.074219 51.933594 66.75 51.933594 62.429688 C 51.933594 59.65625 51.933594 56.878906 51.933594 54.105469 C 51.933594 53.757812 51.933594 53.410156 51.933594 53.058594 C 53.464844 52.792969 54.996094 52.527344 56.53125 52.261719 C 60.34375 51.597656 64.15625 50.9375 67.972656 50.273438 C 72.5625 49.476562 77.148438 48.679688 81.738281 47.882812 C 85.652344 47.199219 89.570312 46.519531 93.484375 45.839844 C 95.183594 45.542969 96.882812 45.25 98.585938 44.953125 C 98.585938 46.363281 98.585938 47.769531 98.585938 49.175781 C 98.585938 52.863281 98.585938 56.554688 98.585938 60.242188 C 98.585938 64.867188 98.585938 69.496094 98.585938 74.121094 C 98.585938 78.445312 98.585938 82.765625 98.585938 87.089844 C 98.585938 89.863281 98.585938 92.636719 98.585938 95.410156 C 98.585938 95.757812 98.585938 96.109375 98.585938 96.457031 C 97.050781 96.722656 95.519531 96.988281 93.988281 97.253906 C 90.171875 97.917969 86.359375 98.582031 82.542969 99.246094 Z M 34.15625 115.109375 C 36.253906 114.746094 38.351562 114.382812 40.449219 114.019531 C 43.320312 115.515625 46.191406 117.015625 49.0625 118.511719 C 46.003906 119.042969 42.945312 119.570312 39.886719 120.101562 C 37.808594 120.460938 35.726562 120.824219 33.648438 121.183594 C 30.765625 119.683594 27.882812 118.1875 25 116.691406 C 28.050781 116.164062 31.105469 115.636719 34.15625 115.109375 Z M 24.679688 134.414062 C 24.613281 134.378906 24.546875 134.347656 24.480469 134.3125 C 24.480469 131.132812 24.480469 127.953125 24.480469 124.773438 C 24.480469 122.175781 24.480469 119.578125 24.480469 116.980469 C 27.382812 118.484375 30.28125 119.992188 33.183594 121.496094 C 33.242188 121.527344 33.300781 121.558594 33.359375 121.589844 C 33.359375 124.761719 33.359375 127.9375 33.359375 131.109375 C 33.359375 133.726562 33.359375 136.34375 33.359375 138.957031 C 30.464844 137.445312 27.574219 135.929688 24.679688 134.414062 Z M 39.886719 138.015625 C 37.875 138.367188 35.867188 138.722656 33.855469 139.074219 C 33.855469 135.949219 33.855469 132.824219 33.855469 129.695312 C 33.855469 127.015625 33.855469 124.332031 33.855469 121.648438 C 37.085938 121.085938 40.316406 120.527344 43.546875 119.96875 C 45.558594 119.621094 47.566406 119.273438 49.578125 118.921875 C 49.578125 122.054688 49.578125 125.1875 49.578125 128.316406 C 49.578125 130.984375 49.578125 133.648438 49.578125 136.3125 C 46.347656 136.878906 43.117188 137.445312 39.886719 138.015625 Z M 72.316406 201.992188 C 68.308594 199.910156 64.300781 197.828125 60.292969 195.742188 C 57.183594 194.128906 54.074219 192.511719 50.964844 190.894531 C 50.667969 190.742188 50.371094 190.585938 50.074219 190.429688 C 50.074219 189.027344 50.074219 187.621094 50.074219 186.214844 C 50.074219 182.617188 50.074219 179.019531 50.074219 175.417969 C 50.074219 170.828125 50.074219 166.234375 50.074219 161.640625 C 50.074219 157.203125 50.074219 152.765625 50.074219 148.328125 C 50.074219 145.195312 50.074219 142.058594 50.074219 138.925781 C 50.074219 138.261719 50.074219 137.59375 50.074219 136.925781 C 51.933594 137.898438 53.792969 138.867188 55.652344 139.835938 C 59.660156 141.925781 63.667969 144.015625 67.675781 146.101562 C 70.785156 147.722656 73.894531 149.34375 77.003906 150.964844 C 77.300781 151.121094 77.597656 151.277344 77.898438 151.429688 C 77.898438 152.835938 77.898438 154.242188 77.898438 155.648438 C 77.898438 159.25 77.898438 162.851562 77.898438 166.453125 C 77.898438 171.046875 77.898438 175.640625 77.898438 180.234375 C 77.898438 184.671875 77.898438 189.109375 77.898438 193.542969 C 77.898438 196.671875 77.898438 199.796875 77.898438 202.921875 C 77.898438 203.582031 77.898438 204.238281 77.898438 204.894531 C 76.035156 203.929688 74.175781 202.960938 72.316406 201.992188 Z M 122.460938 197.359375 C 118.730469 198.007812 115 198.65625 111.269531 199.300781 C 106.6875 200.097656 102.105469 200.894531 97.523438 201.6875 C 93.429688 202.398438 89.339844 203.109375 85.246094 203.820312 C 82.980469 204.214844 80.714844 204.605469 78.453125 205 C 78.433594 205.003906 78.414062 205.007812 78.394531 205.011719 C 78.394531 203.652344 78.394531 202.292969 78.394531 200.933594 C 78.394531 197.332031 78.394531 193.730469 78.394531 190.132812 C 78.394531 185.535156 78.394531 180.941406 78.394531 176.347656 C 78.394531 171.914062 78.394531 167.476562 78.394531 163.039062 C 78.394531 159.914062 78.394531 156.785156 78.394531 153.660156 C 78.394531 152.9375 78.394531 152.214844 78.394531 151.488281 C 79.875 151.230469 81.355469 150.972656 82.835938 150.71875 C 86.566406 150.070312 90.296875 149.421875 94.027344 148.773438 C 98.609375 147.980469 103.191406 147.183594 107.773438 146.386719 C 111.863281 145.675781 115.957031 144.964844 120.050781 144.257812 C 122.316406 143.863281 124.578125 143.46875 126.84375 143.078125 C 126.863281 143.074219 126.882812 143.070312 126.902344 143.066406 C 126.902344 144.425781 126.902344 145.78125 126.902344 147.140625 C 126.902344 150.742188 126.902344 154.34375 126.902344 157.945312 C 126.902344 162.539062 126.902344 167.132812 126.902344 171.730469 C 126.902344 176.164062 126.902344 180.601562 126.902344 185.039062 C 126.902344 188.164062 126.902344 191.289062 126.902344 194.414062 C 126.902344 195.140625 126.902344 195.863281 126.902344 196.589844 C 125.421875 196.84375 123.941406 197.101562 122.460938 197.359375 Z M 124.480469 141.65625 C 125.117188 141.992188 125.753906 142.320312 126.390625 142.652344 C 125.082031 142.882812 123.773438 143.109375 122.460938 143.335938 C 118.730469 143.984375 115 144.632812 111.269531 145.28125 C 106.6875 146.074219 102.105469 146.871094 97.523438 147.667969 C 93.429688 148.378906 89.339844 149.085938 85.246094 149.796875 C 82.980469 150.191406 80.714844 150.585938 78.453125 150.976562 C 78.363281 150.992188 78.273438 151.007812 78.1875 151.023438 C 76.230469 150.003906 74.273438 148.984375 72.316406 147.964844 C 68.308594 145.875 64.300781 143.785156 60.292969 141.699219 C 57.183594 140.078125 54.074219 138.457031 50.964844 136.835938 C 50.839844 136.769531 50.714844 136.703125 50.585938 136.636719 C 51.894531 136.410156 53.203125 136.183594 54.515625 135.957031 C 58.246094 135.308594 61.976562 134.660156 65.707031 134.011719 C 70.289062 133.214844 74.871094 132.421875 79.453125 131.625 C 83.542969 130.914062 87.636719 130.203125 91.730469 129.492188 C 93.996094 129.101562 96.257812 128.707031 98.523438 128.3125 C 98.613281 128.296875 98.703125 128.28125 98.789062 128.265625 C 101.582031 129.722656 104.375 131.175781 107.164062 132.628906 C 109.816406 134.007812 112.46875 135.390625 115.121094 136.773438 C 118.242188 138.402344 121.359375 140.027344 124.480469 141.65625 Z M 123.054688 134.960938 C 120.535156 135.394531 118.015625 135.832031 115.496094 136.265625 C 115.496094 134.089844 115.496094 131.914062 115.496094 129.742188 C 115.496094 125.207031 115.496094 120.671875 115.496094 116.136719 C 115.496094 112.769531 115.496094 109.398438 115.496094 106.03125 C 115.496094 105.828125 115.496094 105.625 115.496094 105.421875 C 117.808594 105.023438 120.125 104.621094 122.4375 104.222656 C 126.917969 103.449219 131.398438 102.675781 135.878906 101.902344 C 138.398438 101.46875 140.917969 101.035156 143.4375 100.601562 C 143.4375 102.773438 143.4375 104.949219 143.4375 107.125 C 143.4375 111.660156 143.4375 116.191406 143.4375 120.726562 C 143.4375 124.097656 143.4375 127.464844 143.4375 130.832031 C 143.4375 131.035156 143.4375 131.242188 143.4375 131.445312 C 141.121094 131.84375 138.808594 132.242188 136.492188 132.640625 C 132.015625 133.414062 127.535156 134.1875 123.054688 134.960938 Z M 156.394531 176.5 C 152.707031 174.582031 149.019531 172.660156 145.332031 170.738281 C 144.863281 170.496094 144.398438 170.253906 143.933594 170.011719 C 143.933594 168.125 143.933594 166.238281 143.933594 164.355469 C 143.933594 160.058594 143.933594 155.765625 143.933594 151.472656 C 143.933594 147.085938 143.933594 142.703125 143.933594 138.316406 C 143.933594 136.230469 143.933594 134.144531 143.933594 132.058594 C 146.324219 133.304688 148.71875 134.550781 151.109375 135.796875 C 154.796875 137.71875 158.484375 139.640625 162.171875 141.5625 C 162.640625 141.804688 163.105469 142.046875 163.570312 142.289062 C 163.570312 144.175781 163.570312 146.058594 163.570312 147.945312 C 163.570312 152.238281 163.570312 156.535156 163.570312 160.828125 C 163.570312 165.210938 163.570312 169.597656 163.570312 173.980469 C 163.570312 176.066406 163.570312 178.152344 163.570312 180.238281 C 161.179688 178.992188 158.789062 177.746094 156.394531 176.5 Z M 192.566406 175.414062 C 188.214844 176.167969 183.859375 176.921875 179.507812 177.675781 C 175.480469 178.375 171.449219 179.074219 167.421875 179.773438 C 166.304688 179.96875 165.183594 180.160156 164.066406 180.355469 C 164.066406 178.515625 164.066406 176.679688 164.066406 174.84375 C 164.066406 170.546875 164.066406 166.253906 164.066406 161.960938 C 164.066406 157.574219 164.066406 153.191406 164.066406 148.804688 C 164.066406 146.652344 164.066406 144.5 164.066406 142.347656 C 166.042969 142.003906 168.019531 141.660156 169.996094 141.316406 C 174.347656 140.5625 178.703125 139.808594 183.054688 139.054688 C 187.082031 138.355469 191.113281 137.65625 195.140625 136.957031 C 196.257812 136.765625 197.378906 136.570312 198.496094 136.378906 C 198.496094 138.214844 198.496094 140.050781 198.496094 141.890625 C 198.496094 146.183594 198.496094 150.476562 198.496094 154.773438 C 198.496094 159.15625 198.496094 163.542969 198.496094 167.925781 C 198.496094 170.078125 198.496094 172.230469 198.496094 174.382812 C 196.519531 174.726562 194.542969 175.070312 192.566406 175.414062 Z M 192.566406 175.414062 " fill-opacity="1" fill-rule="nonzero"/></g><g clip-path="url(#3b2b5545b3)"><g clip-path="url(#40b1e8dc4b)"><path fill="#f266ff" d="M 155.136719 87.457031 L 169.203125 87.457031 L 169.203125 101.492188 L 155.136719 101.492188 Z M 155.136719 87.457031 " fill-opacity="1" fill-rule="nonzero"/></g></g><g clip-path="url(#938fa0d0e5)"><g clip-path="url(#3b58339e20)"><path fill="#ff637e" d="M 155.136719 87.457031 L 169.203125 87.457031 L 169.203125 101.492188 L 155.136719 101.492188 Z M 155.136719 87.457031 " fill-opacity="1" fill-rule="nonzero"/></g></g><g clip-path="url(#df0548e9b4)"><g clip-path="url(#89a5bb3d5e)"><path fill="#00d7be" d="M 155.136719 87.457031 L 169.203125 87.457031 L 169.203125 101.492188 L 155.136719 101.492188 Z M 155.136719 87.457031 " fill-opacity="1" fill-rule="nonzero"/></g></g><g clip-path="url(#8f8340fbcb)"><g clip-path="url(#f3c24e5529)"><path fill="#1f93ff" d="M 155.136719 87.457031 L 169.203125 87.457031 L 169.203125 101.492188 L 155.136719 101.492188 Z M 155.136719 87.457031 " fill-opacity="1" fill-rule="nonzero"/></g></g><g clip-path="url(#5fccf69749)"><g clip-path="url(#b1c7f0d035)"><path fill="#ffd500" d="M 155.136719 87.457031 L 169.203125 87.457031 L 169.203125 101.492188 L 155.136719 101.492188 Z M 155.136719 87.457031 " fill-opacity="1" fill-rule="nonzero"/></g></g><g clip-path="url(#cd59408bf4)"><g clip-path="url(#bc10c4c12b)"><path fill="#1f93ff" d="M 155.136719 87.457031 L 169.203125 87.457031 L 169.203125 101.492188 L 155.136719 101.492188 Z M 155.136719 87.457031 " fill-opacity="1" fill-rule="nonzero"/></g></g><g clip-path="url(#4a81461f2f)"><g clip-path="url(#5b7e0def80)"><path fill="#f266ff" d="M 155.136719 87.457031 L 169.203125 87.457031 L 169.203125 101.492188 L 155.136719 101.492188 Z M 155.136719 87.457031 " fill-opacity="1" fill-rule="nonzero"/></g></g><g clip-path="url(#620431a81a)"><g clip-path="url(#fa80ec380c)"><path fill="#1f93ff" d="M 155.136719 87.457031 L 169.203125 87.457031 L 169.203125 101.492188 L 155.136719 101.492188 Z M 155.136719 87.457031 " fill-opacity="1" fill-rule="nonzero"/></g></g><g clip-path="url(#b1415022c9)"><g clip-path="url(#0e2112e3d3)"><path fill="#ffcf00" d="M 155.136719 87.457031 L 169.203125 87.457031 L 169.203125 101.492188 L 155.136719 101.492188 Z M 155.136719 87.457031 " fill-opacity="1" fill-rule="nonzero"/></g></g><g clip-path="url(#0f16fd8688)"><g clip-path="url(#0da1e870ac)"><path fill="#61d742" d="M 155.136719 87.457031 L 169.203125 87.457031 L 169.203125 101.492188 L 155.136719 101.492188 Z M 155.136719 87.457031 " fill-opacity="1" fill-rule="nonzero"/></g></g><g clip-path="url(#336a93997c)"><g clip-path="url(#a29e5cf391)"><path fill="#1f93ff" d="M 155.136719 87.457031 L 169.203125 87.457031 L 169.203125 101.492188 L 155.136719 101.492188 Z M 155.136719 87.457031 " fill-opacity="1" fill-rule="nonzero"/></g></g><g clip-path="url(#5d7c6cfb4e)"><g clip-path="url(#1ea5a65d4a)"><path fill="#1f93ff" d="M 155.136719 87.457031 L 169.203125 87.457031 L 169.203125 101.492188 L 155.136719 101.492188 Z M 155.136719 87.457031 " fill-opacity="1" fill-rule="nonzero"/></g></g><g clip-path="url(#81ecb99a98)"><g clip-path="url(#5b3dac799b)"><path fill="#ff7a78" d="M 155.136719 87.457031 L 169.203125 87.457031 L 169.203125 101.492188 L 155.136719 101.492188 Z M 155.136719 87.457031 " fill-opacity="1" fill-rule="nonzero"/></g></g><g clip-path="url(#2dcd9b050e)"><g clip-path="url(#06519b772f)"><path fill="#ffcf00" d="M 155.136719 87.457031 L 169.203125 87.457031 L 169.203125 101.492188 L 155.136719 101.492188 Z M 155.136719 87.457031 " fill-opacity="1" fill-rule="nonzero"/></g></g><g clip-path="url(#67762be47a)"><g clip-path="url(#19967a6ed7)"><path fill="#f266ff" d="M 34.710938 122.027344 L 48.773438 122.027344 L 48.773438 136.066406 L 34.710938 136.066406 Z M 34.710938 122.027344 " fill-opacity="1" fill-rule="nonzero"/></g></g><g clip-path="url(#95a7183d03)"><g clip-path="url(#26ea632a7b)"><path fill="#ff637e" d="M 34.710938 122.027344 L 48.773438 122.027344 L 48.773438 136.066406 L 34.710938 136.066406 Z M 34.710938 122.027344 " fill-opacity="1" fill-rule="nonzero"/></g></g><g clip-path="url(#5b7f89a894)"><g clip-path="url(#2d12a20eb6)"><path fill="#00d7be" d="M 34.710938 122.027344 L 48.773438 122.027344 L 48.773438 136.066406 L 34.710938 136.066406 Z M 34.710938 122.027344 " fill-opacity="1" fill-rule="nonzero"/></g></g><g clip-path="url(#d4ded211c6)"><g clip-path="url(#ef83a3c6e7)"><path fill="#1f93ff" d="M 34.710938 122.027344 L 48.773438 122.027344 L 48.773438 136.066406 L 34.710938 136.066406 Z M 34.710938 122.027344 " fill-opacity="1" fill-rule="nonzero"/></g></g><g clip-path="url(#f93a127e60)"><g clip-path="url(#22d7bc7400)"><path fill="#ffd500" d="M 34.710938 122.027344 L 48.773438 122.027344 L 48.773438 136.066406 L 34.710938 136.066406 Z M 34.710938 122.027344 " fill-opacity="1" fill-rule="nonzero"/></g></g><g clip-path="url(#d8e47f8093)"><g clip-path="url(#c258f072fe)"><path fill="#1f93ff" d="M 34.710938 122.027344 L 48.773438 122.027344 L 48.773438 136.066406 L 34.710938 136.066406 Z M 34.710938 122.027344 " fill-opacity="1" fill-rule="nonzero"/></g></g><g clip-path="url(#84e2bdf113)"><g clip-path="url(#ef28a4da3b)"><path fill="#f266ff" d="M 34.710938 122.027344 L 48.773438 122.027344 L 48.773438 136.066406 L 34.710938 136.066406 Z M 34.710938 122.027344 " fill-opacity="1" fill-rule="nonzero"/></g></g><g clip-path="url(#9af609fa15)"><g clip-path="url(#9ddce09d2c)"><path fill="#1f93ff" d="M 34.710938 122.027344 L 48.773438 122.027344 L 48.773438 136.066406 L 34.710938 136.066406 Z M 34.710938 122.027344 " fill-opacity="1" fill-rule="nonzero"/></g></g><g clip-path="url(#9e05b81906)"><g clip-path="url(#f69b58c56f)"><path fill="#ffcf00" d="M 34.710938 122.027344 L 48.773438 122.027344 L 48.773438 136.066406 L 34.710938 136.066406 Z M 34.710938 122.027344 " fill-opacity="1" fill-rule="nonzero"/></g></g><g clip-path="url(#314b3f2a22)"><g clip-path="url(#877c597469)"><path fill="#61d742" d="M 34.710938 122.027344 L 48.773438 122.027344 L 48.773438 136.066406 L 34.710938 136.066406 Z M 34.710938 122.027344 " fill-opacity="1" fill-rule="nonzero"/></g></g><g clip-path="url(#50d8d497e4)"><g clip-path="url(#7c956bf4af)"><path fill="#1f93ff" d="M 34.710938 122.027344 L 48.773438 122.027344 L 48.773438 136.066406 L 34.710938 136.066406 Z M 34.710938 122.027344 " fill-opacity="1" fill-rule="nonzero"/></g></g><g clip-path="url(#0ddd5ca198)"><g clip-path="url(#f6b63d6255)"><path fill="#1f93ff" d="M 34.710938 122.027344 L 48.773438 122.027344 L 48.773438 136.066406 L 34.710938 136.066406 Z M 34.710938 122.027344 " fill-opacity="1" fill-rule="nonzero"/></g></g><g clip-path="url(#7a178690f8)"><g clip-path="url(#91f5ed9a6d)"><path fill="#ff7a78" d="M 34.710938 122.027344 L 48.773438 122.027344 L 48.773438 136.066406 L 34.710938 136.066406 Z M 34.710938 122.027344 " fill-opacity="1" fill-rule="nonzero"/></g></g><g clip-path="url(#db788baea7)"><g clip-path="url(#8d86c43783)"><path fill="#ffcf00" d="M 34.710938 122.027344 L 48.773438 122.027344 L 48.773438 136.066406 L 34.710938 136.066406 Z M 34.710938 122.027344 " fill-opacity="1" fill-rule="nonzero"/></g></g></svg>