<svg xmlns="http://www.w3.org/2000/svg" xmlns:xlink="http://www.w3.org/1999/xlink" width="73" zoomAndPan="magnify" viewBox="0 0 54.75 90.75" height="121" preserveAspectRatio="xMidYMid meet" version="1.0"><defs><filter x="0%" y="0%" width="100%" height="100%" id="ec63e491dc"><feColorMatrix values="0 0 0 0 1 0 0 0 0 1 0 0 0 0 1 0 0 0 1 0" color-interpolation-filters="sRGB"/></filter><mask id="e2275ea1ff"><g filter="url(#ec63e491dc)"><rect x="-5.475" width="65.7" fill="#000000" y="-9.075" height="108.9" fill-opacity="0.01"/></g></mask><clipPath id="a3d26baa9f"><path d="M 7.773438 0.621094 L 14.046875 0.621094 L 14.046875 2.964844 L 7.773438 2.964844 Z M 7.773438 0.621094 " clip-rule="nonzero"/></clipPath><clipPath id="6e9dbec5a3"><path d="M 7.785156 1.695312 C 8.375 0.835938 9.449219 0.4375 10.457031 0.703125 L 13.660156 1.542969 C 14.089844 1.65625 14.152344 2.242188 13.753906 2.445312 L 13.050781 2.796875 C 12.753906 2.945312 12.414062 2.980469 12.097656 2.890625 Z M 7.785156 1.695312 " clip-rule="nonzero"/></clipPath><clipPath id="b37a50ef18"><path d="M 15.789062 9.9375 L 23.113281 9.9375 L 23.113281 20.246094 L 15.789062 20.246094 Z M 15.789062 9.9375 " clip-rule="nonzero"/></clipPath><clipPath id="3baea4fb77"><path d="M 16.519531 10.253906 C 17.175781 9.9375 17.773438 9.859375 18.246094 10.136719 C 18.898438 10.519531 19.421875 11.101562 19.753906 11.796875 L 22.898438 18.417969 C 23.132812 18.90625 23.117188 19.484375 22.859375 19.960938 C 22.683594 20.285156 22.21875 20.28125 22.046875 19.953125 L 18.804688 13.664062 C 18.277344 12.640625 17.371094 11.859375 16.28125 11.488281 L 16.199219 11.460938 C 15.746094 11.304688 15.699219 10.679688 16.125 10.457031 Z M 16.519531 10.253906 " clip-rule="nonzero"/></clipPath><clipPath id="dc44e583d1"><path d="M 4.285156 5.953125 L 25.949219 5.953125 L 25.949219 15.164062 L 4.285156 15.164062 Z M 4.285156 5.953125 " clip-rule="nonzero"/></clipPath><clipPath id="e41fc159de"><path d="M 4.457031 6.511719 C 4.769531 6.058594 5.347656 5.867188 5.871094 6.035156 L 12.199219 8.078125 C 12.511719 8.179688 12.851562 8.15625 13.148438 8.015625 L 16.875 6.222656 C 17.171875 6.082031 17.515625 6.054688 17.832031 6.144531 L 18.691406 6.394531 C 20.117188 6.8125 21.285156 7.863281 21.851562 9.242188 L 22.414062 10.621094 C 22.53125 10.90625 22.816406 11.089844 23.121094 11.074219 L 24.742188 10.996094 C 25.042969 10.980469 25.324219 11.167969 25.421875 11.457031 L 25.703125 12.261719 C 26.035156 13.210938 25.949219 14.265625 25.46875 15.148438 L 24.597656 12.859375 C 24.488281 12.574219 24.207031 12.386719 23.902344 12.398438 L 22.09375 12.457031 C 21.785156 12.46875 21.5 12.289062 21.375 12.003906 L 20.667969 10.410156 C 20.207031 9.371094 19.3125 8.574219 18.222656 8.238281 L 17.367188 7.976562 L 13.023438 10 C 12.726562 10.140625 12.382812 10.160156 12.074219 10.050781 L 4.808594 7.578125 C 4.367188 7.425781 4.195312 6.898438 4.457031 6.511719 " clip-rule="nonzero"/></clipPath><clipPath id="2a5f434663"><path d="M 6.277344 2.464844 L 24.507812 2.464844 L 24.507812 9.886719 L 6.277344 9.886719 Z M 6.277344 2.464844 " clip-rule="nonzero"/></clipPath><clipPath id="89a3067199"><path d="M 24.441406 8.636719 C 24.667969 9.285156 24.21875 10.101562 23.609375 9.777344 C 23.460938 9.699219 23.339844 9.566406 23.277344 9.402344 L 22.464844 7.269531 C 22.0625 6.214844 21.179688 5.410156 20.09375 5.109375 L 17.644531 4.429688 C 17.324219 4.339844 16.984375 4.371094 16.683594 4.511719 L 12.976562 6.261719 C 12.679688 6.402344 12.335938 6.425781 12.023438 6.328125 L 6.746094 4.703125 C 6.320312 4.574219 6.148438 4.066406 6.398438 3.699219 C 6.703125 3.261719 7.257812 3.0625 7.773438 3.214844 L 11.9375 4.429688 C 12.253906 4.519531 12.59375 4.492188 12.894531 4.347656 L 16.464844 2.621094 C 16.761719 2.476562 17.101562 2.445312 17.421875 2.527344 L 20.523438 3.339844 C 21.945312 3.714844 23.097656 4.777344 23.582031 6.167969 Z M 24.441406 8.636719 " clip-rule="nonzero"/></clipPath><clipPath id="381b27389e"><path d="M 22.066406 13.570312 L 24.605469 13.570312 L 24.605469 17.40625 L 22.066406 17.40625 Z M 22.066406 13.570312 " clip-rule="nonzero"/></clipPath><clipPath id="5877ae17cb"><path d="M 23.097656 13.578125 C 23.40625 13.5625 23.6875 13.746094 23.804688 14.03125 L 24.464844 15.640625 C 24.664062 16.128906 24.632812 16.6875 24.378906 17.15625 C 24.214844 17.457031 23.777344 17.4375 23.640625 17.125 L 22.089844 13.625 Z M 23.097656 13.578125 " clip-rule="nonzero"/></clipPath><clipPath id="a67fcc5f7f"><path d="M 0.601562 11.578125 L 4.386719 11.578125 L 4.386719 14.816406 L 0.601562 14.816406 Z M 0.601562 11.578125 " clip-rule="nonzero"/></clipPath><clipPath id="534f0edced"><path d="M 0.867188 11.71875 L 0.941406 11.605469 L 3.671875 12.679688 C 3.96875 12.796875 4.183594 13.058594 4.246094 13.375 L 4.355469 13.957031 C 4.457031 14.5 3.917969 14.941406 3.410156 14.730469 L 1.523438 13.949219 C 0.644531 13.582031 0.324219 12.503906 0.867188 11.71875 " clip-rule="nonzero"/></clipPath><clipPath id="a5f39558b5"><path d="M 2.292969 8.839844 L 16.738281 8.839844 L 16.738281 22.585938 L 2.292969 22.585938 Z M 2.292969 8.839844 " clip-rule="nonzero"/></clipPath><clipPath id="d6d2ac8589"><path d="M 2.453125 9.417969 C 2.773438 8.953125 3.371094 8.761719 3.902344 8.953125 L 6.914062 10.027344 C 7.214844 10.132812 7.4375 10.390625 7.5 10.703125 L 8.171875 13.988281 C 8.234375 14.300781 8.453125 14.5625 8.75 14.679688 L 13.210938 16.433594 C 14.359375 16.886719 15.339844 17.6875 16.015625 18.722656 L 16.53125 19.515625 C 16.710938 19.792969 16.777344 20.128906 16.714844 20.453125 L 16.316406 22.539062 L 14.878906 20.515625 C 14.203125 19.558594 13.261719 18.808594 12.179688 18.363281 L 6.886719 16.167969 C 6.589844 16.046875 6.378906 15.78125 6.320312 15.46875 L 5.71875 12.113281 C 5.660156 11.800781 5.441406 11.539062 5.144531 11.425781 L 2.804688 10.546875 C 2.351562 10.375 2.175781 9.820312 2.453125 9.417969 " clip-rule="nonzero"/></clipPath><clipPath id="cd2749533b"><path d="M 20.273438 21 L 21.519531 21 L 21.519531 23.132812 L 20.273438 23.132812 Z M 20.273438 21 " clip-rule="nonzero"/></clipPath><clipPath id="a2ea8fce2f"><path d="M 21.285156 21.289062 C 21.550781 21.773438 21.554688 22.367188 21.289062 22.851562 C 21.097656 23.207031 20.570312 23.234375 20.417969 22.863281 C 20.316406 22.625 20.285156 22.363281 20.328125 22.105469 L 20.441406 21.40625 C 20.507812 20.988281 21.066406 20.894531 21.269531 21.261719 Z M 21.285156 21.289062 " clip-rule="nonzero"/></clipPath><clipPath id="b0503bf448"><path d="M 9.464844 11.230469 L 20.125 11.230469 L 20.125 25.675781 L 9.464844 25.675781 Z M 9.464844 11.230469 " clip-rule="nonzero"/></clipPath><clipPath id="b1c52c485a"><path d="M 16.878906 17.03125 C 16.277344 16.035156 15.355469 15.269531 14.269531 14.859375 L 10.179688 13.320312 C 9.882812 13.207031 9.660156 12.949219 9.601562 12.636719 L 9.5 12.121094 C 9.390625 11.566406 9.929688 11.105469 10.464844 11.296875 L 15.066406 12.9375 C 16.339844 13.394531 17.410156 14.300781 18.066406 15.484375 L 19.539062 18.144531 C 19.703125 18.433594 19.757812 18.769531 19.699219 19.097656 L 19.054688 22.757812 C 18.996094 23.082031 19.066406 23.417969 19.246094 23.691406 L 20.113281 25.027344 C 19.707031 25.773438 18.660156 25.835938 18.171875 25.140625 L 17.539062 24.242188 C 17.347656 23.972656 17.273438 23.640625 17.332031 23.316406 L 18.007812 19.554688 C 18.066406 19.230469 18.003906 18.890625 17.832031 18.609375 Z M 16.878906 17.03125 " clip-rule="nonzero"/></clipPath><clipPath id="64d54d6010"><path d="M 8.667969 20 L 17.683594 20 L 17.683594 25.925781 L 8.667969 25.925781 Z M 8.667969 20 " clip-rule="nonzero"/></clipPath><clipPath id="255dbcaef5"><path d="M 11.464844 21.8125 C 11.226562 21.574219 10.941406 21.382812 10.632812 21.242188 L 8.699219 20.382812 L 9.074219 20.148438 C 9.34375 19.980469 9.683594 19.957031 9.976562 20.085938 L 10.820312 20.457031 C 11.128906 20.597656 11.414062 20.789062 11.65625 21.023438 L 13.820312 23.109375 C 14.0625 23.34375 14.347656 23.539062 14.65625 23.675781 L 16.699219 24.597656 L 17.679688 25.878906 L 14.3125 24.363281 C 14.003906 24.222656 13.722656 24.027344 13.480469 23.792969 Z M 11.464844 21.8125 " clip-rule="nonzero"/></clipPath><clipPath id="8b063f2ad5"><path d="M 12.953125 21.390625 L 15.988281 21.390625 L 15.988281 23.632812 L 12.953125 23.632812 Z M 12.953125 21.390625 " clip-rule="nonzero"/></clipPath><clipPath id="f0311438e7"><path d="M 12.953125 21.40625 L 14.933594 22.285156 L 15.949219 23.613281 L 14.894531 23.144531 C 14.585938 23.007812 14.304688 22.8125 14.070312 22.566406 Z M 12.953125 21.40625 " clip-rule="nonzero"/></clipPath><clipPath id="842731f141"><path d="M 4.632812 19.148438 L 12.453125 19.148438 L 12.453125 23.53125 L 4.632812 23.53125 Z M 4.632812 19.148438 " clip-rule="nonzero"/></clipPath><clipPath id="6cedc54ed8"><path d="M 12.425781 23.511719 L 7.683594 21.375 C 6.574219 20.875 5.570312 20.15625 4.742188 19.261719 L 4.644531 19.160156 L 10.148438 21.644531 C 10.460938 21.785156 10.746094 21.972656 10.996094 22.203125 Z M 12.425781 23.511719 " clip-rule="nonzero"/></clipPath><clipPath id="3c26d76175"><path d="M 3.289062 17.109375 L 14.296875 17.109375 L 14.296875 21.339844 L 3.289062 21.339844 Z M 3.289062 17.109375 " clip-rule="nonzero"/></clipPath><clipPath id="c76b27dde0"><path d="M 3.335938 17.136719 L 7 18.761719 C 7.289062 18.890625 7.628906 18.863281 7.894531 18.6875 L 8.523438 18.269531 C 8.789062 18.09375 9.128906 18.0625 9.421875 18.1875 L 11.542969 19.085938 C 12.636719 19.546875 13.578125 20.316406 14.25 21.292969 L 9.707031 19.304688 C 9.410156 19.179688 9.070312 19.203125 8.796875 19.371094 L 8.238281 19.714844 C 7.964844 19.882812 7.625 19.90625 7.332031 19.773438 L 4.585938 18.550781 C 4.28125 18.414062 4.019531 18.191406 3.839844 17.910156 Z M 3.335938 17.136719 " clip-rule="nonzero"/></clipPath><clipPath id="a5f7adfc57"><path d="M 1.945312 15.015625 L 8.019531 15.015625 L 8.019531 18.105469 L 1.945312 18.105469 Z M 1.945312 15.015625 " clip-rule="nonzero"/></clipPath><clipPath id="b536f5589f"><path d="M 1.976562 15.03125 L 8.003906 17.585938 L 7.566406 17.894531 C 7.308594 18.074219 6.96875 18.109375 6.675781 17.984375 L 3.253906 16.484375 C 2.949219 16.351562 2.6875 16.128906 2.503906 15.851562 Z M 1.976562 15.03125 " clip-rule="nonzero"/></clipPath><clipPath id="a183edd5ca"><rect x="0" width="27" y="0" height="27"/></clipPath><clipPath id="726e4dffd4"><path d="M 1.203125 19.269531 L 53.464844 19.269531 L 53.464844 71.527344 L 1.203125 71.527344 Z M 1.203125 19.269531 " clip-rule="nonzero"/></clipPath></defs><g mask="url(#e2275ea1ff)"><g transform="matrix(1, 0, 0, 1, 14, 32)"><g clip-path="url(#a183edd5ca)"><g clip-path="url(#a3d26baa9f)"><g clip-path="url(#6e9dbec5a3)"><path fill="#f266ff" d="M 0.351562 0.375 L 26.148438 0.375 L 26.148438 26.125 L 0.351562 26.125 Z M 0.351562 0.375 " fill-opacity="1" fill-rule="nonzero"/></g></g><g clip-path="url(#b37a50ef18)"><g clip-path="url(#3baea4fb77)"><path fill="#ff637e" d="M 0.351562 0.375 L 26.148438 0.375 L 26.148438 26.125 L 0.351562 26.125 Z M 0.351562 0.375 " fill-opacity="1" fill-rule="nonzero"/></g></g><g clip-path="url(#dc44e583d1)"><g clip-path="url(#e41fc159de)"><path fill="#00d7be" d="M 0.351562 0.375 L 26.148438 0.375 L 26.148438 26.125 L 0.351562 26.125 Z M 0.351562 0.375 " fill-opacity="1" fill-rule="nonzero"/></g></g><g clip-path="url(#2a5f434663)"><g clip-path="url(#89a3067199)"><path fill="#1f93ff" d="M 0.351562 0.375 L 26.148438 0.375 L 26.148438 26.125 L 0.351562 26.125 Z M 0.351562 0.375 " fill-opacity="1" fill-rule="nonzero"/></g></g><g clip-path="url(#381b27389e)"><g clip-path="url(#5877ae17cb)"><path fill="#ffd500" d="M 0.351562 0.375 L 26.148438 0.375 L 26.148438 26.125 L 0.351562 26.125 Z M 0.351562 0.375 " fill-opacity="1" fill-rule="nonzero"/></g></g><g clip-path="url(#a67fcc5f7f)"><g clip-path="url(#534f0edced)"><path fill="#1f93ff" d="M 0.351562 0.375 L 26.148438 0.375 L 26.148438 26.125 L 0.351562 26.125 Z M 0.351562 0.375 " fill-opacity="1" fill-rule="nonzero"/></g></g><g clip-path="url(#a5f39558b5)"><g clip-path="url(#d6d2ac8589)"><path fill="#f266ff" d="M 0.351562 0.375 L 26.148438 0.375 L 26.148438 26.125 L 0.351562 26.125 Z M 0.351562 0.375 " fill-opacity="1" fill-rule="nonzero"/></g></g><g clip-path="url(#cd2749533b)"><g clip-path="url(#a2ea8fce2f)"><path fill="#1f93ff" d="M 0.351562 0.375 L 26.148438 0.375 L 26.148438 26.125 L 0.351562 26.125 Z M 0.351562 0.375 " fill-opacity="1" fill-rule="nonzero"/></g></g><g clip-path="url(#b0503bf448)"><g clip-path="url(#b1c52c485a)"><path fill="#ffcf00" d="M 0.351562 0.375 L 26.148438 0.375 L 26.148438 26.125 L 0.351562 26.125 Z M 0.351562 0.375 " fill-opacity="1" fill-rule="nonzero"/></g></g><g clip-path="url(#64d54d6010)"><g clip-path="url(#255dbcaef5)"><path fill="#61d742" d="M 0.351562 0.375 L 26.148438 0.375 L 26.148438 26.125 L 0.351562 26.125 Z M 0.351562 0.375 " fill-opacity="1" fill-rule="nonzero"/></g></g><g clip-path="url(#8b063f2ad5)"><g clip-path="url(#f0311438e7)"><path fill="#1f93ff" d="M 0.351562 0.375 L 26.148438 0.375 L 26.148438 26.125 L 0.351562 26.125 Z M 0.351562 0.375 " fill-opacity="1" fill-rule="nonzero"/></g></g><g clip-path="url(#842731f141)"><g clip-path="url(#6cedc54ed8)"><path fill="#1f93ff" d="M 0.351562 0.375 L 26.148438 0.375 L 26.148438 26.125 L 0.351562 26.125 Z M 0.351562 0.375 " fill-opacity="1" fill-rule="nonzero"/></g></g><g clip-path="url(#3c26d76175)"><g clip-path="url(#c76b27dde0)"><path fill="#ff7a78" d="M 0.351562 0.375 L 26.148438 0.375 L 26.148438 26.125 L 0.351562 26.125 Z M 0.351562 0.375 " fill-opacity="1" fill-rule="nonzero"/></g></g><g clip-path="url(#a5f7adfc57)"><g clip-path="url(#b536f5589f)"><path fill="#ffcf00" d="M 0.351562 0.375 L 26.148438 0.375 L 26.148438 26.125 L 0.351562 26.125 Z M 0.351562 0.375 " fill-opacity="1" fill-rule="nonzero"/></g></g></g></g></g><g clip-path="url(#726e4dffd4)"><path fill="#ffffff" d="M 45.074219 43.191406 L 45.074219 28.203125 L 23.824219 36.339844 L 23.824219 61.242188 L 29.449219 59.085938 L 29.449219 46.828125 C 29.449219 46.535156 29.640625 46.273438 29.917969 46.179688 L 41.839844 42.273438 C 41.980469 42.226562 42.128906 42.226562 42.265625 42.273438 Z M 46.984375 54.078125 C 47.878906 54.167969 48.578125 54.921875 48.578125 55.839844 L 48.578125 62.683594 C 48.578125 63.660156 47.785156 64.453125 46.808594 64.453125 L 37.300781 64.453125 C 36.324219 64.453125 35.53125 63.660156 35.53125 62.683594 L 35.53125 55.839844 C 35.53125 54.925781 36.230469 54.167969 37.125 54.082031 L 37.125 52.066406 C 37.125 49.347656 39.335938 47.132812 42.054688 47.132812 C 44.773438 47.132812 46.984375 49.347656 46.984375 52.066406 Z M 53.292969 47.324219 L 53.292969 60.214844 C 53.160156 64.964844 45.164062 69.511719 42.054688 71.21875 C 38.945312 69.511719 30.949219 64.964844 30.8125 60.214844 L 30.8125 47.324219 L 42.054688 43.636719 Z M 43.90625 58.410156 C 43.90625 59.1875 43.421875 59.855469 42.734375 60.128906 L 42.734375 61.164062 C 42.734375 61.539062 42.433594 61.84375 42.054688 61.84375 C 41.675781 61.84375 41.371094 61.539062 41.371094 61.164062 L 41.371094 60.128906 C 40.6875 59.855469 40.203125 59.1875 40.203125 58.410156 C 40.203125 57.386719 41.035156 56.558594 42.054688 56.558594 C 43.074219 56.558594 43.90625 57.386719 43.90625 58.410156 Z M 46.808594 55.4375 C 47.027344 55.4375 47.210938 55.621094 47.210938 55.839844 L 47.210938 62.683594 C 47.210938 62.90625 47.027344 63.089844 46.808594 63.089844 L 37.300781 63.089844 C 37.082031 63.089844 36.894531 62.90625 36.894531 62.683594 L 36.894531 55.839844 C 36.894531 55.621094 37.082031 55.4375 37.300781 55.4375 Z M 42.054688 57.921875 C 42.320312 57.921875 42.539062 58.140625 42.539062 58.410156 C 42.539062 58.675781 42.320312 58.894531 42.054688 58.894531 C 41.785156 58.894531 41.566406 58.675781 41.566406 58.410156 C 41.566406 58.140625 41.785156 57.921875 42.054688 57.921875 Z M 42.054688 48.5 C 44.019531 48.5 45.621094 50.097656 45.621094 52.066406 L 45.621094 54.070312 L 38.488281 54.070312 L 38.488281 52.066406 C 38.488281 50.097656 40.085938 48.5 42.054688 48.5 Z M 22.457031 61.242188 L 22.457031 36.339844 L 1.207031 28.203125 L 1.207031 53.101562 Z M 23.140625 35.140625 L 2.433594 27.210938 L 23.140625 19.277344 L 43.847656 27.210938 Z M 23.140625 35.140625 " fill-opacity="1" fill-rule="evenodd"/></g></svg>