<svg xmlns="http://www.w3.org/2000/svg" xmlns:xlink="http://www.w3.org/1999/xlink" width="73" zoomAndPan="magnify" viewBox="0 0 54.75 90.75" height="121" preserveAspectRatio="xMidYMid meet" version="1.0"><defs><filter x="0%" y="0%" width="100%" height="100%" id="5190793ea3"><feColorMatrix values="0 0 0 0 1 0 0 0 0 1 0 0 0 0 1 0 0 0 1 0" color-interpolation-filters="sRGB"/></filter><mask id="60072fc658"><g filter="url(#5190793ea3)"><rect x="-5.475" width="65.7" fill="#000000" y="-9.075" height="108.9" fill-opacity="0.01"/></g></mask><clipPath id="2135f3011f"><path d="M 8.375 0.621094 L 14.648438 0.621094 L 14.648438 2.964844 L 8.375 2.964844 Z M 8.375 0.621094 " clip-rule="nonzero"/></clipPath><clipPath id="74da33bf40"><path d="M 8.386719 1.695312 C 8.976562 0.835938 10.050781 0.4375 11.058594 0.703125 L 14.261719 1.542969 C 14.691406 1.65625 14.753906 2.242188 14.355469 2.445312 L 13.652344 2.796875 C 13.355469 2.945312 13.015625 2.980469 12.699219 2.890625 Z M 8.386719 1.695312 " clip-rule="nonzero"/></clipPath><clipPath id="8369446c79"><path d="M 16.390625 9.9375 L 23.714844 9.9375 L 23.714844 20.246094 L 16.390625 20.246094 Z M 16.390625 9.9375 " clip-rule="nonzero"/></clipPath><clipPath id="be714ebda7"><path d="M 17.121094 10.253906 C 17.777344 9.9375 18.375 9.859375 18.84375 10.136719 C 19.5 10.519531 20.023438 11.101562 20.355469 11.796875 L 23.5 18.417969 C 23.734375 18.90625 23.71875 19.484375 23.460938 19.960938 C 23.285156 20.285156 22.820312 20.28125 22.648438 19.953125 L 19.40625 13.664062 C 18.878906 12.640625 17.972656 11.859375 16.882812 11.488281 L 16.800781 11.460938 C 16.34375 11.304688 16.300781 10.679688 16.726562 10.457031 Z M 17.121094 10.253906 " clip-rule="nonzero"/></clipPath><clipPath id="6a4d074f64"><path d="M 4.886719 5.953125 L 26.550781 5.953125 L 26.550781 15.164062 L 4.886719 15.164062 Z M 4.886719 5.953125 " clip-rule="nonzero"/></clipPath><clipPath id="ba212ac6c5"><path d="M 5.058594 6.511719 C 5.371094 6.058594 5.945312 5.867188 6.46875 6.035156 L 12.800781 8.078125 C 13.113281 8.179688 13.453125 8.15625 13.75 8.015625 L 17.476562 6.222656 C 17.773438 6.082031 18.117188 6.054688 18.433594 6.144531 L 19.289062 6.394531 C 20.71875 6.8125 21.886719 7.863281 22.453125 9.242188 L 23.015625 10.621094 C 23.132812 10.90625 23.414062 11.089844 23.722656 11.074219 L 25.34375 10.996094 C 25.644531 10.980469 25.921875 11.167969 26.023438 11.457031 L 26.304688 12.261719 C 26.636719 13.210938 26.550781 14.265625 26.070312 15.148438 L 25.199219 12.859375 C 25.089844 12.574219 24.808594 12.386719 24.5 12.398438 L 22.695312 12.457031 C 22.386719 12.46875 22.101562 12.289062 21.976562 12.003906 L 21.269531 10.410156 C 20.808594 9.371094 19.914062 8.574219 18.824219 8.238281 L 17.96875 7.976562 L 13.625 10 C 13.328125 10.140625 12.984375 10.160156 12.675781 10.050781 L 5.410156 7.578125 C 4.96875 7.425781 4.796875 6.898438 5.058594 6.511719 " clip-rule="nonzero"/></clipPath><clipPath id="e804bd999e"><path d="M 6.878906 2.464844 L 25.109375 2.464844 L 25.109375 9.886719 L 6.878906 9.886719 Z M 6.878906 2.464844 " clip-rule="nonzero"/></clipPath><clipPath id="da7aa83729"><path d="M 25.042969 8.636719 C 25.269531 9.285156 24.820312 10.101562 24.210938 9.777344 C 24.0625 9.699219 23.941406 9.566406 23.878906 9.402344 L 23.066406 7.269531 C 22.664062 6.214844 21.78125 5.410156 20.695312 5.109375 L 18.246094 4.429688 C 17.925781 4.339844 17.585938 4.371094 17.285156 4.511719 L 13.578125 6.261719 C 13.28125 6.402344 12.9375 6.425781 12.625 6.328125 L 7.347656 4.703125 C 6.921875 4.574219 6.746094 4.066406 7 3.699219 C 7.304688 3.261719 7.859375 3.0625 8.371094 3.214844 L 12.539062 4.429688 C 12.855469 4.519531 13.195312 4.492188 13.496094 4.347656 L 17.066406 2.621094 C 17.363281 2.476562 17.703125 2.445312 18.023438 2.527344 L 21.121094 3.339844 C 22.546875 3.714844 23.699219 4.777344 24.183594 6.167969 Z M 25.042969 8.636719 " clip-rule="nonzero"/></clipPath><clipPath id="334873d0d1"><path d="M 22.667969 13.570312 L 25.207031 13.570312 L 25.207031 17.40625 L 22.667969 17.40625 Z M 22.667969 13.570312 " clip-rule="nonzero"/></clipPath><clipPath id="2170efcd47"><path d="M 23.699219 13.578125 C 24.007812 13.5625 24.289062 13.746094 24.40625 14.03125 L 25.0625 15.640625 C 25.265625 16.128906 25.234375 16.6875 24.980469 17.15625 C 24.816406 17.457031 24.378906 17.4375 24.242188 17.125 L 22.691406 13.625 Z M 23.699219 13.578125 " clip-rule="nonzero"/></clipPath><clipPath id="4a6634907c"><path d="M 1.199219 11.578125 L 4.984375 11.578125 L 4.984375 14.816406 L 1.199219 14.816406 Z M 1.199219 11.578125 " clip-rule="nonzero"/></clipPath><clipPath id="78a107925f"><path d="M 1.464844 11.71875 L 1.542969 11.605469 L 4.273438 12.679688 C 4.570312 12.796875 4.785156 13.058594 4.847656 13.375 L 4.957031 13.957031 C 5.058594 14.5 4.519531 14.941406 4.007812 14.730469 L 2.125 13.949219 C 1.246094 13.582031 0.925781 12.503906 1.464844 11.71875 " clip-rule="nonzero"/></clipPath><clipPath id="86508bc569"><path d="M 2.894531 8.839844 L 17.339844 8.839844 L 17.339844 22.585938 L 2.894531 22.585938 Z M 2.894531 8.839844 " clip-rule="nonzero"/></clipPath><clipPath id="dd3e43c9e4"><path d="M 3.054688 9.417969 C 3.375 8.953125 3.972656 8.761719 4.503906 8.953125 L 7.515625 10.027344 C 7.8125 10.132812 8.039062 10.390625 8.101562 10.703125 L 8.773438 13.988281 C 8.835938 14.300781 9.054688 14.5625 9.351562 14.679688 L 13.8125 16.433594 C 14.960938 16.886719 15.941406 17.6875 16.613281 18.722656 L 17.132812 19.515625 C 17.308594 19.792969 17.375 20.128906 17.316406 20.453125 L 16.917969 22.539062 L 15.480469 20.515625 C 14.804688 19.558594 13.863281 18.808594 12.78125 18.363281 L 7.488281 16.167969 C 7.191406 16.046875 6.980469 15.78125 6.921875 15.46875 L 6.320312 12.113281 C 6.261719 11.800781 6.042969 11.539062 5.746094 11.425781 L 3.40625 10.546875 C 2.949219 10.375 2.777344 9.820312 3.054688 9.417969 " clip-rule="nonzero"/></clipPath><clipPath id="ea1dadd549"><path d="M 20.875 21 L 22.121094 21 L 22.121094 23.132812 L 20.875 23.132812 Z M 20.875 21 " clip-rule="nonzero"/></clipPath><clipPath id="b62584ff62"><path d="M 21.882812 21.289062 C 22.152344 21.773438 22.15625 22.367188 21.890625 22.851562 C 21.699219 23.207031 21.171875 23.234375 21.019531 22.863281 C 20.917969 22.625 20.886719 22.363281 20.929688 22.105469 L 21.042969 21.40625 C 21.109375 20.988281 21.667969 20.894531 21.871094 21.261719 Z M 21.882812 21.289062 " clip-rule="nonzero"/></clipPath><clipPath id="71e4c307e2"><path d="M 10.066406 11.230469 L 20.726562 11.230469 L 20.726562 25.675781 L 10.066406 25.675781 Z M 10.066406 11.230469 " clip-rule="nonzero"/></clipPath><clipPath id="1f8db385d4"><path d="M 17.480469 17.03125 C 16.878906 16.035156 15.957031 15.269531 14.871094 14.859375 L 10.78125 13.320312 C 10.484375 13.207031 10.261719 12.949219 10.203125 12.636719 L 10.101562 12.121094 C 9.992188 11.566406 10.53125 11.105469 11.0625 11.296875 L 15.664062 12.9375 C 16.941406 13.394531 18.011719 14.300781 18.667969 15.484375 L 20.140625 18.144531 C 20.300781 18.433594 20.359375 18.769531 20.300781 19.097656 L 19.65625 22.757812 C 19.597656 23.082031 19.667969 23.417969 19.847656 23.691406 L 20.714844 25.027344 C 20.308594 25.773438 19.261719 25.835938 18.773438 25.140625 L 18.140625 24.242188 C 17.949219 23.972656 17.875 23.640625 17.933594 23.316406 L 18.609375 19.554688 C 18.667969 19.230469 18.605469 18.890625 18.433594 18.609375 Z M 17.480469 17.03125 " clip-rule="nonzero"/></clipPath><clipPath id="2aa0efaae6"><path d="M 9.269531 20 L 18.285156 20 L 18.285156 25.925781 L 9.269531 25.925781 Z M 9.269531 20 " clip-rule="nonzero"/></clipPath><clipPath id="f79742e1fe"><path d="M 12.066406 21.8125 C 11.828125 21.574219 11.542969 21.382812 11.234375 21.242188 L 9.300781 20.382812 L 9.675781 20.148438 C 9.945312 19.980469 10.285156 19.957031 10.578125 20.085938 L 11.421875 20.457031 C 11.730469 20.597656 12.015625 20.789062 12.257812 21.023438 L 14.421875 23.109375 C 14.664062 23.34375 14.949219 23.539062 15.257812 23.675781 L 17.300781 24.597656 L 18.28125 25.878906 L 14.914062 24.363281 C 14.605469 24.222656 14.324219 24.027344 14.082031 23.792969 Z M 12.066406 21.8125 " clip-rule="nonzero"/></clipPath><clipPath id="948ce4e8b4"><path d="M 13.554688 21.390625 L 16.589844 21.390625 L 16.589844 23.632812 L 13.554688 23.632812 Z M 13.554688 21.390625 " clip-rule="nonzero"/></clipPath><clipPath id="bfd393e70e"><path d="M 13.554688 21.40625 L 15.535156 22.285156 L 16.550781 23.613281 L 15.496094 23.144531 C 15.1875 23.007812 14.90625 22.8125 14.671875 22.566406 Z M 13.554688 21.40625 " clip-rule="nonzero"/></clipPath><clipPath id="9e670a0b9e"><path d="M 5.234375 19.148438 L 13.054688 19.148438 L 13.054688 23.53125 L 5.234375 23.53125 Z M 5.234375 19.148438 " clip-rule="nonzero"/></clipPath><clipPath id="54da3da012"><path d="M 13.027344 23.511719 L 8.285156 21.375 C 7.175781 20.875 6.171875 20.15625 5.34375 19.261719 L 5.246094 19.160156 L 10.75 21.644531 C 11.0625 21.785156 11.347656 21.972656 11.597656 22.203125 Z M 13.027344 23.511719 " clip-rule="nonzero"/></clipPath><clipPath id="b3384f4e9c"><path d="M 3.890625 17.109375 L 14.898438 17.109375 L 14.898438 21.339844 L 3.890625 21.339844 Z M 3.890625 17.109375 " clip-rule="nonzero"/></clipPath><clipPath id="92e951e6f1"><path d="M 3.9375 17.136719 L 7.601562 18.761719 C 7.890625 18.890625 8.230469 18.863281 8.496094 18.6875 L 9.125 18.269531 C 9.390625 18.09375 9.730469 18.0625 10.023438 18.1875 L 12.144531 19.085938 C 13.238281 19.546875 14.179688 20.316406 14.851562 21.292969 L 10.304688 19.304688 C 10.011719 19.179688 9.671875 19.203125 9.398438 19.371094 L 8.839844 19.714844 C 8.566406 19.882812 8.226562 19.90625 7.933594 19.773438 L 5.1875 18.550781 C 4.882812 18.414062 4.621094 18.191406 4.4375 17.910156 Z M 3.9375 17.136719 " clip-rule="nonzero"/></clipPath><clipPath id="35f88ec740"><path d="M 2.546875 15.015625 L 8.621094 15.015625 L 8.621094 18.105469 L 2.546875 18.105469 Z M 2.546875 15.015625 " clip-rule="nonzero"/></clipPath><clipPath id="21f3a906dd"><path d="M 2.578125 15.03125 L 8.605469 17.585938 L 8.167969 17.894531 C 7.910156 18.074219 7.570312 18.109375 7.277344 17.984375 L 3.855469 16.484375 C 3.546875 16.351562 3.289062 16.128906 3.105469 15.851562 Z M 2.578125 15.03125 " clip-rule="nonzero"/></clipPath><clipPath id="69f66bb131"><rect x="0" width="27" y="0" height="27"/></clipPath><clipPath id="198e888bdb"><path d="M 17 35 L 38 35 L 38 56 L 17 56 Z M 17 35 " clip-rule="nonzero"/></clipPath><clipPath id="f9afcd041c"><path d="M 27.246094 35.300781 C 21.757812 35.300781 17.296875 39.761719 17.296875 45.25 C 17.296875 50.734375 21.757812 55.199219 27.246094 55.199219 C 32.730469 55.199219 37.195312 50.734375 37.195312 45.25 C 37.195312 39.761719 32.730469 35.300781 27.246094 35.300781 Z M 27.246094 53.390625 C 22.757812 53.390625 19.105469 49.738281 19.105469 45.25 C 19.105469 40.761719 22.757812 37.109375 27.246094 37.109375 C 31.734375 37.109375 35.386719 40.761719 35.386719 45.25 C 35.386719 49.738281 31.734375 53.390625 27.246094 53.390625 Z M 27.246094 53.390625 " clip-rule="nonzero"/></clipPath><linearGradient x1="20.80405" gradientTransform="matrix(0.904492, 0, 0, 0.904492, -1.698848, 16.305614)" y1="21.203204" x2="43.196678" gradientUnits="userSpaceOnUse" y2="42.796034" id="ef0c9f4e8e"><stop stop-opacity="1" stop-color="rgb(96.391296%, 96.391296%, 96.391296%)" offset="0"/><stop stop-opacity="1" stop-color="rgb(96.276855%, 96.276855%, 96.276855%)" offset="0.03125"/><stop stop-opacity="1" stop-color="rgb(96.0495%, 96.0495%, 96.0495%)" offset="0.0625"/><stop stop-opacity="1" stop-color="rgb(95.822144%, 95.822144%, 95.822144%)" offset="0.09375"/><stop stop-opacity="1" stop-color="rgb(95.596313%, 95.596313%, 95.596313%)" offset="0.125"/><stop stop-opacity="1" stop-color="rgb(95.368958%, 95.368958%, 95.368958%)" offset="0.15625"/><stop stop-opacity="1" stop-color="rgb(95.141602%, 95.141602%, 95.141602%)" offset="0.1875"/><stop stop-opacity="1" stop-color="rgb(94.914246%, 94.914246%, 94.914246%)" offset="0.21875"/><stop stop-opacity="1" stop-color="rgb(94.68689%, 94.68689%, 94.68689%)" offset="0.25"/><stop stop-opacity="1" stop-color="rgb(94.459534%, 94.459534%, 94.459534%)" offset="0.28125"/><stop stop-opacity="1" stop-color="rgb(94.232178%, 94.232178%, 94.232178%)" offset="0.3125"/><stop stop-opacity="1" stop-color="rgb(94.004822%, 94.004822%, 94.004822%)" offset="0.34375"/><stop stop-opacity="1" stop-color="rgb(93.777466%, 93.777466%, 93.777466%)" offset="0.375"/><stop stop-opacity="1" stop-color="rgb(93.55011%, 93.55011%, 93.55011%)" offset="0.40625"/><stop stop-opacity="1" stop-color="rgb(93.322754%, 93.322754%, 93.322754%)" offset="0.4375"/><stop stop-opacity="1" stop-color="rgb(93.095398%, 93.095398%, 93.095398%)" offset="0.46875"/><stop stop-opacity="1" stop-color="rgb(92.869568%, 92.869568%, 92.869568%)" offset="0.490908"/><stop stop-opacity="1" stop-color="rgb(92.756653%, 92.756653%, 92.756653%)" offset="0.5"/><stop stop-opacity="1" stop-color="rgb(92.642212%, 92.642212%, 92.642212%)" offset="0.509092"/><stop stop-opacity="1" stop-color="rgb(92.529297%, 92.529297%, 92.529297%)" offset="0.53125"/><stop stop-opacity="1" stop-color="rgb(92.414856%, 92.414856%, 92.414856%)" offset="0.5625"/><stop stop-opacity="1" stop-color="rgb(92.1875%, 92.1875%, 92.1875%)" offset="0.59375"/><stop stop-opacity="1" stop-color="rgb(91.960144%, 91.960144%, 91.960144%)" offset="0.625"/><stop stop-opacity="1" stop-color="rgb(91.732788%, 91.732788%, 91.732788%)" offset="0.65625"/><stop stop-opacity="1" stop-color="rgb(91.505432%, 91.505432%, 91.505432%)" offset="0.6875"/><stop stop-opacity="1" stop-color="rgb(91.278076%, 91.278076%, 91.278076%)" offset="0.71875"/><stop stop-opacity="1" stop-color="rgb(91.05072%, 91.05072%, 91.05072%)" offset="0.75"/><stop stop-opacity="1" stop-color="rgb(90.823364%, 90.823364%, 90.823364%)" offset="0.78125"/><stop stop-opacity="1" stop-color="rgb(90.596008%, 90.596008%, 90.596008%)" offset="0.8125"/><stop stop-opacity="1" stop-color="rgb(90.368652%, 90.368652%, 90.368652%)" offset="0.84375"/><stop stop-opacity="1" stop-color="rgb(90.142822%, 90.142822%, 90.142822%)" offset="0.875"/><stop stop-opacity="1" stop-color="rgb(89.915466%, 89.915466%, 89.915466%)" offset="0.90625"/><stop stop-opacity="1" stop-color="rgb(89.68811%, 89.68811%, 89.68811%)" offset="0.9375"/><stop stop-opacity="1" stop-color="rgb(89.460754%, 89.460754%, 89.460754%)" offset="0.96875"/><stop stop-opacity="1" stop-color="rgb(89.233398%, 89.233398%, 89.233398%)" offset="1"/></linearGradient><clipPath id="7a38c5f07c"><path d="M 21 38 L 33 38 L 33 52 L 21 52 Z M 21 38 " clip-rule="nonzero"/></clipPath><clipPath id="464a9df33b"><path d="M 32.234375 41.761719 L 27.710938 39.046875 C 27.425781 38.875 27.066406 38.875 26.78125 39.046875 L 22.257812 41.761719 C 21.984375 41.921875 21.816406 42.21875 21.816406 42.535156 L 21.816406 47.960938 C 21.816406 48.28125 21.984375 48.574219 22.257812 48.738281 L 26.777344 51.453125 C 26.921875 51.539062 27.082031 51.582031 27.246094 51.582031 C 27.40625 51.582031 27.566406 51.539062 27.710938 51.453125 L 32.234375 48.738281 C 32.503906 48.574219 32.671875 48.28125 32.671875 47.960938 L 32.671875 42.535156 C 32.671875 42.21875 32.503906 41.921875 32.234375 41.761719 Z M 27.246094 40.878906 L 30.007812 42.535156 L 27.246094 44.195312 L 24.480469 42.535156 Z M 23.625 44.132812 L 26.339844 45.761719 L 26.339844 49.078125 L 23.625 47.449219 Z M 28.148438 49.078125 L 28.148438 45.761719 L 30.863281 44.132812 L 30.863281 47.449219 Z M 28.148438 49.078125 " clip-rule="nonzero"/></clipPath><linearGradient x1="25.37063" gradientTransform="matrix(0.904492, 0, 0, 0.904492, -1.698848, 16.305614)" y1="25.606679" x2="38.607114" gradientUnits="userSpaceOnUse" y2="38.370395" id="1c46805f70"><stop stop-opacity="1" stop-color="rgb(94.908142%, 94.908142%, 94.908142%)" offset="0"/><stop stop-opacity="1" stop-color="rgb(94.773865%, 94.773865%, 94.773865%)" offset="0.0625"/><stop stop-opacity="1" stop-color="rgb(94.50531%, 94.50531%, 94.50531%)" offset="0.125"/><stop stop-opacity="1" stop-color="rgb(94.236755%, 94.236755%, 94.236755%)" offset="0.1875"/><stop stop-opacity="1" stop-color="rgb(93.968201%, 93.968201%, 93.968201%)" offset="0.25"/><stop stop-opacity="1" stop-color="rgb(93.699646%, 93.699646%, 93.699646%)" offset="0.3125"/><stop stop-opacity="1" stop-color="rgb(93.431091%, 93.431091%, 93.431091%)" offset="0.375"/><stop stop-opacity="1" stop-color="rgb(93.162537%, 93.162537%, 93.162537%)" offset="0.4375"/><stop stop-opacity="1" stop-color="rgb(92.893982%, 92.893982%, 92.893982%)" offset="0.469772"/><stop stop-opacity="1" stop-color="rgb(92.759705%, 92.759705%, 92.759705%)" offset="0.5"/><stop stop-opacity="1" stop-color="rgb(92.625427%, 92.625427%, 92.625427%)" offset="0.530228"/><stop stop-opacity="1" stop-color="rgb(92.49115%, 92.49115%, 92.49115%)" offset="0.5625"/><stop stop-opacity="1" stop-color="rgb(92.356873%, 92.356873%, 92.356873%)" offset="0.625"/><stop stop-opacity="1" stop-color="rgb(92.088318%, 92.088318%, 92.088318%)" offset="0.6875"/><stop stop-opacity="1" stop-color="rgb(91.819763%, 91.819763%, 91.819763%)" offset="0.75"/><stop stop-opacity="1" stop-color="rgb(91.551208%, 91.551208%, 91.551208%)" offset="0.8125"/><stop stop-opacity="1" stop-color="rgb(91.282654%, 91.282654%, 91.282654%)" offset="0.875"/><stop stop-opacity="1" stop-color="rgb(91.014099%, 91.014099%, 91.014099%)" offset="0.9375"/><stop stop-opacity="1" stop-color="rgb(90.745544%, 90.745544%, 90.745544%)" offset="1"/></linearGradient><clipPath id="ec03f133ff"><path d="M 1.917969 18.09375 L 52.6875 18.09375 L 52.6875 72.59375 L 1.917969 72.59375 Z M 1.917969 18.09375 " clip-rule="nonzero"/></clipPath><clipPath id="d3500ed82d"><path d="M 52.132812 37.882812 C 52.402344 37.722656 52.570312 37.425781 52.570312 37.109375 L 52.570312 32.585938 C 52.570312 32.269531 52.402344 31.972656 52.132812 31.8125 L 47.609375 29.097656 C 47.324219 28.925781 46.964844 28.925781 46.679688 29.097656 L 42.617188 31.535156 L 32.671875 25.734375 L 32.671875 21.734375 C 32.671875 21.414062 32.503906 21.121094 32.234375 20.957031 L 27.710938 18.242188 C 27.425781 18.074219 27.066406 18.074219 26.78125 18.242188 L 22.257812 20.957031 C 21.984375 21.121094 21.816406 21.414062 21.816406 21.734375 L 21.816406 25.734375 L 11.875 31.535156 L 7.8125 29.097656 C 7.523438 28.925781 7.167969 28.925781 6.882812 29.097656 L 2.359375 31.8125 C 2.085938 31.972656 1.917969 32.269531 1.917969 32.585938 L 1.917969 37.109375 C 1.917969 37.425781 2.085938 37.722656 2.359375 37.882812 L 6.441406 40.335938 L 6.441406 50.164062 L 2.359375 52.613281 C 2.085938 52.777344 1.917969 53.070312 1.917969 53.390625 L 1.917969 57.914062 C 1.917969 58.230469 2.085938 58.523438 2.359375 58.6875 L 6.878906 61.402344 C 7.023438 61.488281 7.183594 61.53125 7.347656 61.53125 C 7.507812 61.53125 7.667969 61.488281 7.8125 61.402344 L 11.875 58.964844 L 21.816406 64.765625 L 21.816406 68.765625 C 21.816406 69.085938 21.984375 69.378906 22.257812 69.542969 L 26.777344 72.253906 C 26.921875 72.339844 27.082031 72.382812 27.246094 72.382812 C 27.40625 72.382812 27.566406 72.339844 27.710938 72.253906 L 32.234375 69.542969 C 32.503906 69.378906 32.671875 69.085938 32.671875 68.765625 L 32.671875 64.765625 L 42.613281 58.964844 L 46.679688 61.402344 C 46.820312 61.488281 46.984375 61.53125 47.144531 61.53125 C 47.304688 61.53125 47.464844 61.488281 47.609375 61.402344 L 52.132812 58.6875 C 52.402344 58.523438 52.570312 58.230469 52.570312 57.914062 L 52.570312 53.390625 C 52.570312 53.070312 52.402344 52.777344 52.132812 52.613281 L 48.046875 50.164062 L 48.046875 40.335938 Z M 22.714844 27.304688 L 26.339844 29.480469 L 26.339844 31.726562 C 21.753906 32.03125 17.792969 34.617188 15.574219 38.363281 L 12.773438 36.609375 L 12.773438 33.105469 Z M 41.714844 33.105469 L 41.714844 36.605469 L 38.910156 38.355469 C 36.691406 34.613281 32.730469 32.03125 28.148438 31.726562 L 28.148438 29.480469 L 31.773438 27.304688 Z M 46.238281 50.164062 L 42.632812 52.328125 L 39.746094 50.519531 C 40.433594 48.898438 40.8125 47.117188 40.8125 45.25 C 40.8125 43.378906 40.429688 41.59375 39.742188 39.96875 L 42.628906 38.167969 L 46.238281 40.335938 Z M 27.246094 65.902344 L 24.480469 64.242188 L 27.246094 62.585938 L 30.007812 64.242188 Z M 27.246094 57.007812 C 20.761719 57.007812 15.488281 51.734375 15.488281 45.25 C 15.488281 38.765625 20.761719 33.492188 27.246094 33.492188 C 33.726562 33.492188 39.003906 38.765625 39.003906 45.25 C 39.003906 51.734375 33.726562 57.007812 27.246094 57.007812 Z M 11.859375 52.328125 L 8.25 50.164062 L 8.25 40.335938 L 11.859375 38.167969 L 14.742188 39.980469 C 14.058594 41.601562 13.675781 43.382812 13.675781 45.25 C 13.675781 47.117188 14.058594 48.898438 14.742188 50.519531 Z M 8.25 35.8125 L 10.964844 34.183594 L 10.964844 36.597656 L 8.25 38.222656 Z M 43.527344 34.183594 L 46.238281 35.8125 L 46.238281 38.222656 L 43.527344 36.597656 Z M 30.863281 25.742188 L 28.148438 27.371094 L 28.148438 24.957031 L 30.863281 23.328125 Z M 26.339844 24.957031 L 26.339844 27.371094 L 23.625 25.742188 L 23.625 23.328125 Z M 10.109375 53.390625 L 7.347656 55.046875 L 4.582031 53.390625 L 7.347656 51.730469 Z M 12.773438 53.890625 L 15.574219 52.132812 C 17.792969 55.878906 21.753906 58.464844 26.339844 58.773438 L 26.339844 61.019531 L 22.714844 63.191406 L 12.773438 57.390625 Z M 31.773438 63.191406 L 28.148438 61.019531 L 28.148438 58.773438 C 32.734375 58.464844 36.695312 55.882812 38.914062 52.132812 L 41.714844 53.890625 L 41.714844 57.390625 Z M 47.144531 55.046875 L 44.378906 53.390625 L 47.144531 51.730469 L 49.90625 53.390625 Z M 48.046875 38.226562 L 48.046875 35.8125 L 50.761719 34.183594 L 50.761719 36.597656 Z M 47.144531 30.925781 L 49.90625 32.585938 L 47.144531 34.246094 L 44.378906 32.585938 Z M 27.246094 20.074219 L 30.007812 21.734375 L 27.246094 23.390625 L 24.480469 21.734375 Z M 7.347656 30.925781 L 10.109375 32.585938 L 7.347656 34.246094 L 4.582031 32.585938 Z M 3.726562 34.183594 L 6.441406 35.8125 L 6.441406 38.222656 L 3.726562 36.597656 Z M 3.726562 54.988281 L 6.441406 56.613281 L 6.441406 59.027344 L 3.726562 57.398438 Z M 8.25 59.027344 L 8.25 56.617188 L 10.964844 54.988281 L 10.964844 57.398438 Z M 23.625 65.839844 L 26.339844 67.46875 L 26.339844 69.882812 L 23.625 68.253906 Z M 28.148438 69.882812 L 28.148438 67.46875 L 30.863281 65.84375 L 30.863281 68.253906 Z M 43.527344 54.988281 L 46.238281 56.613281 L 46.238281 59.027344 L 43.527344 57.398438 Z M 48.046875 59.027344 L 48.046875 56.617188 L 50.761719 54.988281 L 50.761719 57.398438 Z M 48.046875 59.027344 " clip-rule="nonzero"/></clipPath><linearGradient x1="2.488889" gradientTransform="matrix(0.904492, 0, 0, 0.904492, -1.698848, 16.305614)" y1="3.542205" x2="61.49941" gradientUnits="userSpaceOnUse" y2="60.445047" id="c4035dc333"><stop stop-opacity="1" stop-color="rgb(100%, 100%, 100%)" offset="0"/><stop stop-opacity="1" stop-color="rgb(99.971008%, 99.971008%, 99.971008%)" offset="0.125"/><stop stop-opacity="1" stop-color="rgb(99.794006%, 99.794006%, 99.794006%)" offset="0.140625"/><stop stop-opacity="1" stop-color="rgb(99.494934%, 99.494934%, 99.494934%)" offset="0.15625"/><stop stop-opacity="1" stop-color="rgb(99.194336%, 99.194336%, 99.194336%)" offset="0.171875"/><stop stop-opacity="1" stop-color="rgb(98.895264%, 98.895264%, 98.895264%)" offset="0.1875"/><stop stop-opacity="1" stop-color="rgb(98.596191%, 98.596191%, 98.596191%)" offset="0.203125"/><stop stop-opacity="1" stop-color="rgb(98.297119%, 98.297119%, 98.297119%)" offset="0.21875"/><stop stop-opacity="1" stop-color="rgb(97.998047%, 97.998047%, 97.998047%)" offset="0.234375"/><stop stop-opacity="1" stop-color="rgb(97.697449%, 97.697449%, 97.697449%)" offset="0.25"/><stop stop-opacity="1" stop-color="rgb(97.398376%, 97.398376%, 97.398376%)" offset="0.265625"/><stop stop-opacity="1" stop-color="rgb(97.099304%, 97.099304%, 97.099304%)" offset="0.28125"/><stop stop-opacity="1" stop-color="rgb(96.800232%, 96.800232%, 96.800232%)" offset="0.296875"/><stop stop-opacity="1" stop-color="rgb(96.499634%, 96.499634%, 96.499634%)" offset="0.3125"/><stop stop-opacity="1" stop-color="rgb(96.200562%, 96.200562%, 96.200562%)" offset="0.328125"/><stop stop-opacity="1" stop-color="rgb(95.901489%, 95.901489%, 95.901489%)" offset="0.34375"/><stop stop-opacity="1" stop-color="rgb(95.602417%, 95.602417%, 95.602417%)" offset="0.359375"/><stop stop-opacity="1" stop-color="rgb(95.303345%, 95.303345%, 95.303345%)" offset="0.375"/><stop stop-opacity="1" stop-color="rgb(95.002747%, 95.002747%, 95.002747%)" offset="0.390625"/><stop stop-opacity="1" stop-color="rgb(94.703674%, 94.703674%, 94.703674%)" offset="0.40625"/><stop stop-opacity="1" stop-color="rgb(94.404602%, 94.404602%, 94.404602%)" offset="0.421875"/><stop stop-opacity="1" stop-color="rgb(94.10553%, 94.10553%, 94.10553%)" offset="0.4375"/><stop stop-opacity="1" stop-color="rgb(93.804932%, 93.804932%, 93.804932%)" offset="0.453125"/><stop stop-opacity="1" stop-color="rgb(93.505859%, 93.505859%, 93.505859%)" offset="0.46875"/><stop stop-opacity="1" stop-color="rgb(93.206787%, 93.206787%, 93.206787%)" offset="0.484375"/><stop stop-opacity="1" stop-color="rgb(92.907715%, 92.907715%, 92.907715%)" offset="0.491742"/><stop stop-opacity="1" stop-color="rgb(92.758179%, 92.758179%, 92.758179%)" offset="0.5"/><stop stop-opacity="1" stop-color="rgb(92.608643%, 92.608643%, 92.608643%)" offset="0.508258"/><stop stop-opacity="1" stop-color="rgb(92.459106%, 92.459106%, 92.459106%)" offset="0.515625"/><stop stop-opacity="1" stop-color="rgb(92.308044%, 92.308044%, 92.308044%)" offset="0.53125"/><stop stop-opacity="1" stop-color="rgb(92.008972%, 92.008972%, 92.008972%)" offset="0.546875"/><stop stop-opacity="1" stop-color="rgb(91.7099%, 91.7099%, 91.7099%)" offset="0.5625"/><stop stop-opacity="1" stop-color="rgb(91.410828%, 91.410828%, 91.410828%)" offset="0.578125"/><stop stop-opacity="1" stop-color="rgb(91.111755%, 91.111755%, 91.111755%)" offset="0.59375"/><stop stop-opacity="1" stop-color="rgb(90.811157%, 90.811157%, 90.811157%)" offset="0.609375"/><stop stop-opacity="1" stop-color="rgb(90.512085%, 90.512085%, 90.512085%)" offset="0.625"/><stop stop-opacity="1" stop-color="rgb(90.213013%, 90.213013%, 90.213013%)" offset="0.640625"/><stop stop-opacity="1" stop-color="rgb(89.91394%, 89.91394%, 89.91394%)" offset="0.65625"/><stop stop-opacity="1" stop-color="rgb(89.613342%, 89.613342%, 89.613342%)" offset="0.671875"/><stop stop-opacity="1" stop-color="rgb(89.31427%, 89.31427%, 89.31427%)" offset="0.6875"/><stop stop-opacity="1" stop-color="rgb(89.015198%, 89.015198%, 89.015198%)" offset="0.703125"/><stop stop-opacity="1" stop-color="rgb(88.716125%, 88.716125%, 88.716125%)" offset="0.71875"/><stop stop-opacity="1" stop-color="rgb(88.417053%, 88.417053%, 88.417053%)" offset="0.734375"/><stop stop-opacity="1" stop-color="rgb(88.116455%, 88.116455%, 88.116455%)" offset="0.75"/><stop stop-opacity="1" stop-color="rgb(87.817383%, 87.817383%, 87.817383%)" offset="0.765625"/><stop stop-opacity="1" stop-color="rgb(87.518311%, 87.518311%, 87.518311%)" offset="0.78125"/><stop stop-opacity="1" stop-color="rgb(87.219238%, 87.219238%, 87.219238%)" offset="0.796875"/><stop stop-opacity="1" stop-color="rgb(86.920166%, 86.920166%, 86.920166%)" offset="0.8125"/><stop stop-opacity="1" stop-color="rgb(86.619568%, 86.619568%, 86.619568%)" offset="0.828125"/><stop stop-opacity="1" stop-color="rgb(86.320496%, 86.320496%, 86.320496%)" offset="0.84375"/><stop stop-opacity="1" stop-color="rgb(86.021423%, 86.021423%, 86.021423%)" offset="0.859375"/><stop stop-opacity="1" stop-color="rgb(85.722351%, 85.722351%, 85.722351%)" offset="0.875"/><stop stop-opacity="1" stop-color="rgb(85.421753%, 85.421753%, 85.421753%)" offset="0.890625"/><stop stop-opacity="1" stop-color="rgb(85.185242%, 85.185242%, 85.185242%)" offset="0.90625"/><stop stop-opacity="1" stop-color="rgb(85.099792%, 85.099792%, 85.099792%)" offset="0.9375"/><stop stop-opacity="1" stop-color="rgb(85.099792%, 85.099792%, 85.099792%)" offset="1"/></linearGradient></defs><g mask="url(#60072fc658)"><g transform="matrix(1, 0, 0, 1, 14, 32)"><g clip-path="url(#69f66bb131)"><g clip-path="url(#2135f3011f)"><g clip-path="url(#74da33bf40)"><path fill="#000000" d="M 0.953125 0.375 L 26.75 0.375 L 26.75 26.125 L 0.953125 26.125 Z M 0.953125 0.375 " fill-opacity="1" fill-rule="nonzero"/></g></g><g clip-path="url(#8369446c79)"><g clip-path="url(#be714ebda7)"><path fill="#000000" d="M 0.953125 0.375 L 26.75 0.375 L 26.75 26.125 L 0.953125 26.125 Z M 0.953125 0.375 " fill-opacity="1" fill-rule="nonzero"/></g></g><g clip-path="url(#6a4d074f64)"><g clip-path="url(#ba212ac6c5)"><path fill="#000000" d="M 0.953125 0.375 L 26.75 0.375 L 26.75 26.125 L 0.953125 26.125 Z M 0.953125 0.375 " fill-opacity="1" fill-rule="nonzero"/></g></g><g clip-path="url(#e804bd999e)"><g clip-path="url(#da7aa83729)"><path fill="#000000" d="M 0.953125 0.375 L 26.75 0.375 L 26.75 26.125 L 0.953125 26.125 Z M 0.953125 0.375 " fill-opacity="1" fill-rule="nonzero"/></g></g><g clip-path="url(#334873d0d1)"><g clip-path="url(#2170efcd47)"><path fill="#000000" d="M 0.953125 0.375 L 26.75 0.375 L 26.75 26.125 L 0.953125 26.125 Z M 0.953125 0.375 " fill-opacity="1" fill-rule="nonzero"/></g></g><g clip-path="url(#4a6634907c)"><g clip-path="url(#78a107925f)"><path fill="#000000" d="M 0.953125 0.375 L 26.75 0.375 L 26.75 26.125 L 0.953125 26.125 Z M 0.953125 0.375 " fill-opacity="1" fill-rule="nonzero"/></g></g><g clip-path="url(#86508bc569)"><g clip-path="url(#dd3e43c9e4)"><path fill="#000000" d="M 0.953125 0.375 L 26.75 0.375 L 26.75 26.125 L 0.953125 26.125 Z M 0.953125 0.375 " fill-opacity="1" fill-rule="nonzero"/></g></g><g clip-path="url(#ea1dadd549)"><g clip-path="url(#b62584ff62)"><path fill="#000000" d="M 0.953125 0.375 L 26.75 0.375 L 26.75 26.125 L 0.953125 26.125 Z M 0.953125 0.375 " fill-opacity="1" fill-rule="nonzero"/></g></g><g clip-path="url(#71e4c307e2)"><g clip-path="url(#1f8db385d4)"><path fill="#000000" d="M 0.953125 0.375 L 26.75 0.375 L 26.75 26.125 L 0.953125 26.125 Z M 0.953125 0.375 " fill-opacity="1" fill-rule="nonzero"/></g></g><g clip-path="url(#2aa0efaae6)"><g clip-path="url(#f79742e1fe)"><path fill="#000000" d="M 0.953125 0.375 L 26.75 0.375 L 26.75 26.125 L 0.953125 26.125 Z M 0.953125 0.375 " fill-opacity="1" fill-rule="nonzero"/></g></g><g clip-path="url(#948ce4e8b4)"><g clip-path="url(#bfd393e70e)"><path fill="#000000" d="M 0.953125 0.375 L 26.75 0.375 L 26.75 26.125 L 0.953125 26.125 Z M 0.953125 0.375 " fill-opacity="1" fill-rule="nonzero"/></g></g><g clip-path="url(#9e670a0b9e)"><g clip-path="url(#54da3da012)"><path fill="#000000" d="M 0.953125 0.375 L 26.75 0.375 L 26.75 26.125 L 0.953125 26.125 Z M 0.953125 0.375 " fill-opacity="1" fill-rule="nonzero"/></g></g><g clip-path="url(#b3384f4e9c)"><g clip-path="url(#92e951e6f1)"><path fill="#000000" d="M 0.953125 0.375 L 26.75 0.375 L 26.75 26.125 L 0.953125 26.125 Z M 0.953125 0.375 " fill-opacity="1" fill-rule="nonzero"/></g></g><g clip-path="url(#35f88ec740)"><g clip-path="url(#21f3a906dd)"><path fill="#000000" d="M 0.953125 0.375 L 26.75 0.375 L 26.75 26.125 L 0.953125 26.125 Z M 0.953125 0.375 " fill-opacity="1" fill-rule="nonzero"/></g></g></g></g></g><g clip-path="url(#198e888bdb)"><g clip-path="url(#f9afcd041c)"><path fill="url(#ef0c9f4e8e)" d="M 17.296875 35.300781 L 17.296875 55.199219 L 37.195312 55.199219 L 37.195312 35.300781 Z M 17.296875 35.300781 " fill-rule="nonzero"/></g></g><g clip-path="url(#7a38c5f07c)"><g clip-path="url(#464a9df33b)"><path fill="url(#1c46805f70)" d="M 21.816406 38.875 L 21.816406 51.582031 L 32.671875 51.582031 L 32.671875 38.875 Z M 21.816406 38.875 " fill-rule="nonzero"/></g></g><g clip-path="url(#ec03f133ff)"><g clip-path="url(#d3500ed82d)"><path fill="url(#c4035dc333)" d="M 1.917969 18.09375 L 1.917969 72.382812 L 52.570312 72.382812 L 52.570312 18.09375 Z M 1.917969 18.09375 " fill-rule="nonzero"/></g></g></svg>