<svg xmlns="http://www.w3.org/2000/svg" xmlns:xlink="http://www.w3.org/1999/xlink" width="73" zoomAndPan="magnify" viewBox="0 0 54.75 90.75" height="121" preserveAspectRatio="xMidYMid meet" version="1.0"><defs><clipPath id="5b5f84ce8a"><path d="M 1.324219 19.355469 L 52.839844 19.355469 L 52.839844 70.871094 L 1.324219 70.871094 Z M 1.324219 19.355469 " clip-rule="nonzero"/></clipPath><clipPath id="16a666528a"><path d="M 24.511719 38.9375 L 27.648438 38.9375 L 27.648438 40.105469 L 24.511719 40.105469 Z M 24.511719 38.9375 " clip-rule="nonzero"/></clipPath><clipPath id="e7be7d9595"><path d="M 24.515625 39.472656 C 24.8125 39.042969 25.347656 38.84375 25.851562 38.976562 L 27.453125 39.398438 C 27.671875 39.453125 27.703125 39.746094 27.503906 39.847656 L 27.148438 40.023438 C 27.003906 40.097656 26.832031 40.117188 26.671875 40.070312 Z M 24.515625 39.472656 " clip-rule="nonzero"/></clipPath><clipPath id="1c2c308e09"><path d="M 28.519531 43.59375 L 32.179688 43.59375 L 32.179688 48.75 L 28.519531 48.75 Z M 28.519531 43.59375 " clip-rule="nonzero"/></clipPath><clipPath id="3413e6a6b0"><path d="M 28.886719 43.753906 C 29.214844 43.59375 29.511719 43.554688 29.746094 43.695312 C 30.074219 43.886719 30.335938 44.175781 30.503906 44.523438 L 32.074219 47.832031 C 32.191406 48.078125 32.183594 48.367188 32.054688 48.605469 C 31.96875 48.765625 31.734375 48.765625 31.648438 48.601562 L 30.027344 45.457031 C 29.765625 44.945312 29.3125 44.554688 28.765625 44.367188 L 28.726562 44.355469 C 28.496094 44.277344 28.472656 43.964844 28.6875 43.855469 Z M 28.886719 43.753906 " clip-rule="nonzero"/></clipPath><clipPath id="45569501e3"><path d="M 22.769531 41.601562 L 33.601562 41.601562 L 33.601562 46.207031 L 22.769531 46.207031 Z M 22.769531 41.601562 " clip-rule="nonzero"/></clipPath><clipPath id="ab205191cf"><path d="M 22.855469 41.882812 C 23.011719 41.65625 23.296875 41.558594 23.558594 41.640625 L 26.722656 42.664062 C 26.878906 42.714844 27.050781 42.703125 27.199219 42.632812 L 29.0625 41.738281 C 29.210938 41.664062 29.382812 41.652344 29.539062 41.699219 L 29.96875 41.824219 C 30.683594 42.03125 31.269531 42.558594 31.550781 43.246094 L 31.832031 43.9375 C 31.890625 44.078125 32.03125 44.167969 32.1875 44.160156 L 32.996094 44.121094 C 33.148438 44.117188 33.285156 44.210938 33.335938 44.351562 L 33.476562 44.757812 C 33.640625 45.230469 33.597656 45.757812 33.359375 46.199219 L 32.921875 45.054688 C 32.867188 44.910156 32.730469 44.820312 32.574219 44.824219 L 31.671875 44.855469 C 31.519531 44.859375 31.375 44.769531 31.3125 44.628906 L 30.960938 43.832031 C 30.730469 43.3125 30.28125 42.914062 29.738281 42.746094 L 29.308594 42.613281 L 27.136719 43.625 C 26.988281 43.695312 26.816406 43.703125 26.660156 43.652344 L 23.03125 42.414062 C 22.808594 42.339844 22.722656 42.074219 22.855469 41.882812 " clip-rule="nonzero"/></clipPath><clipPath id="096ae4a0c9"><path d="M 23.765625 39.859375 L 32.878906 39.859375 L 32.878906 43.570312 L 23.765625 43.570312 Z M 23.765625 39.859375 " clip-rule="nonzero"/></clipPath><clipPath id="7e0bd2e391"><path d="M 32.847656 42.945312 C 32.960938 43.269531 32.734375 43.675781 32.429688 43.515625 C 32.355469 43.476562 32.296875 43.410156 32.265625 43.328125 L 31.859375 42.261719 C 31.65625 41.734375 31.214844 41.332031 30.671875 41.179688 L 29.445312 40.839844 C 29.289062 40.796875 29.117188 40.808594 28.96875 40.882812 L 27.113281 41.757812 C 26.964844 41.828125 26.792969 41.839844 26.636719 41.789062 L 24 40.976562 C 23.785156 40.910156 23.699219 40.660156 23.824219 40.476562 C 23.976562 40.253906 24.253906 40.15625 24.511719 40.230469 L 26.59375 40.839844 C 26.753906 40.886719 26.921875 40.871094 27.070312 40.800781 L 28.855469 39.9375 C 29.007812 39.863281 29.175781 39.847656 29.335938 39.890625 L 30.886719 40.296875 C 31.597656 40.480469 32.175781 41.015625 32.417969 41.710938 Z M 32.847656 42.945312 " clip-rule="nonzero"/></clipPath><clipPath id="52a7cb9c5c"><path d="M 31.660156 45.410156 L 32.929688 45.410156 L 32.929688 47.328125 L 31.660156 47.328125 Z M 31.660156 45.410156 " clip-rule="nonzero"/></clipPath><clipPath id="06205d5fe6"><path d="M 32.175781 45.414062 C 32.328125 45.40625 32.46875 45.5 32.527344 45.640625 L 32.855469 46.445312 C 32.957031 46.691406 32.941406 46.96875 32.816406 47.203125 C 32.734375 47.355469 32.515625 47.34375 32.445312 47.1875 L 31.671875 45.4375 Z M 32.175781 45.414062 " clip-rule="nonzero"/></clipPath><clipPath id="c1d15fd6f1"><path d="M 20.925781 44.414062 L 22.816406 44.414062 L 22.816406 46.035156 L 20.925781 46.035156 Z M 20.925781 44.414062 " clip-rule="nonzero"/></clipPath><clipPath id="ca9aad488c"><path d="M 21.058594 44.484375 L 21.097656 44.429688 L 22.460938 44.964844 C 22.609375 45.023438 22.71875 45.15625 22.746094 45.3125 L 22.804688 45.605469 C 22.855469 45.875 22.585938 46.09375 22.328125 45.988281 L 21.386719 45.597656 C 20.945312 45.417969 20.789062 44.878906 21.058594 44.484375 " clip-rule="nonzero"/></clipPath><clipPath id="2b6444eda7"><path d="M 21.773438 43.046875 L 28.992188 43.046875 L 28.992188 49.917969 L 21.773438 49.917969 Z M 21.773438 43.046875 " clip-rule="nonzero"/></clipPath><clipPath id="a8290df802"><path d="M 21.851562 43.335938 C 22.011719 43.101562 22.308594 43.007812 22.574219 43.101562 L 24.082031 43.640625 C 24.230469 43.691406 24.34375 43.820312 24.375 43.976562 L 24.710938 45.621094 C 24.742188 45.777344 24.851562 45.90625 25 45.964844 L 27.230469 46.84375 C 27.804688 47.070312 28.296875 47.46875 28.632812 47.988281 L 28.890625 48.382812 C 28.980469 48.523438 29.011719 48.691406 28.980469 48.851562 L 28.785156 49.894531 L 28.066406 48.882812 C 27.726562 48.40625 27.257812 48.03125 26.714844 47.804688 L 24.070312 46.710938 C 23.921875 46.648438 23.8125 46.515625 23.785156 46.359375 L 23.484375 44.679688 C 23.457031 44.523438 23.347656 44.394531 23.199219 44.339844 L 22.027344 43.898438 C 21.800781 43.8125 21.714844 43.535156 21.851562 43.335938 " clip-rule="nonzero"/></clipPath><clipPath id="b3d7080ac2"><path d="M 30.761719 49.121094 L 31.382812 49.121094 L 31.382812 50.191406 L 30.761719 50.191406 Z M 30.761719 49.121094 " clip-rule="nonzero"/></clipPath><clipPath id="0071883a2e"><path d="M 31.265625 49.269531 C 31.402344 49.511719 31.402344 49.808594 31.269531 50.050781 C 31.175781 50.226562 30.910156 50.242188 30.835938 50.058594 C 30.785156 49.9375 30.769531 49.804688 30.789062 49.675781 L 30.847656 49.328125 C 30.878906 49.121094 31.15625 49.070312 31.261719 49.257812 Z M 31.265625 49.269531 " clip-rule="nonzero"/></clipPath><clipPath id="bffda319bd"><path d="M 25.359375 44.242188 L 30.6875 44.242188 L 30.6875 51.460938 L 25.359375 51.460938 Z M 25.359375 44.242188 " clip-rule="nonzero"/></clipPath><clipPath id="ae6342d5a6"><path d="M 29.066406 47.140625 C 28.765625 46.644531 28.304688 46.257812 27.761719 46.054688 L 25.714844 45.285156 C 25.566406 45.230469 25.457031 45.097656 25.425781 44.941406 L 25.375 44.6875 C 25.320312 44.410156 25.589844 44.175781 25.855469 44.273438 L 28.15625 45.09375 C 28.796875 45.320312 29.332031 45.777344 29.660156 46.367188 L 30.394531 47.695312 C 30.476562 47.839844 30.503906 48.011719 30.476562 48.175781 L 30.152344 50.003906 C 30.125 50.164062 30.15625 50.332031 30.246094 50.472656 L 30.679688 51.136719 C 30.480469 51.511719 29.957031 51.542969 29.710938 51.195312 L 29.394531 50.746094 C 29.300781 50.613281 29.261719 50.445312 29.292969 50.285156 L 29.628906 48.402344 C 29.65625 48.238281 29.625 48.070312 29.542969 47.929688 Z M 29.066406 47.140625 " clip-rule="nonzero"/></clipPath><clipPath id="b968bba270"><path d="M 24.960938 48.625 L 29.46875 48.625 L 29.46875 51.585938 L 24.960938 51.585938 Z M 24.960938 48.625 " clip-rule="nonzero"/></clipPath><clipPath id="07f0966ee6"><path d="M 26.359375 49.53125 C 26.238281 49.414062 26.097656 49.316406 25.941406 49.246094 L 24.976562 48.816406 L 25.160156 48.699219 C 25.296875 48.613281 25.46875 48.601562 25.613281 48.667969 L 26.035156 48.855469 C 26.191406 48.921875 26.332031 49.019531 26.453125 49.136719 L 27.535156 50.179688 C 27.65625 50.296875 27.796875 50.394531 27.953125 50.464844 L 28.976562 50.925781 L 29.464844 51.5625 L 27.78125 50.804688 C 27.628906 50.738281 27.484375 50.640625 27.363281 50.519531 Z M 26.359375 49.53125 " clip-rule="nonzero"/></clipPath><clipPath id="b0b39c6338"><path d="M 27.101562 49.320312 L 28.621094 49.320312 L 28.621094 50.441406 L 27.101562 50.441406 Z M 27.101562 49.320312 " clip-rule="nonzero"/></clipPath><clipPath id="595fd71d06"><path d="M 27.101562 49.328125 L 28.09375 49.769531 L 28.601562 50.433594 L 28.074219 50.199219 C 27.917969 50.128906 27.777344 50.03125 27.660156 49.910156 Z M 27.101562 49.328125 " clip-rule="nonzero"/></clipPath><clipPath id="0bbbb0a0f6"><path d="M 22.941406 48.199219 L 26.851562 48.199219 L 26.851562 50.390625 L 22.941406 50.390625 Z M 22.941406 48.199219 " clip-rule="nonzero"/></clipPath><clipPath id="e68f622812"><path d="M 26.835938 50.378906 L 24.46875 49.3125 C 23.914062 49.0625 23.410156 48.703125 22.996094 48.257812 L 22.949219 48.207031 L 25.699219 49.449219 C 25.855469 49.515625 26 49.613281 26.125 49.726562 Z M 26.835938 50.378906 " clip-rule="nonzero"/></clipPath><clipPath id="79dbe93856"><path d="M 22.269531 47.179688 L 27.773438 47.179688 L 27.773438 49.296875 L 22.269531 49.296875 Z M 22.269531 47.179688 " clip-rule="nonzero"/></clipPath><clipPath id="1c12d53087"><path d="M 22.292969 47.191406 L 24.125 48.007812 C 24.269531 48.070312 24.441406 48.054688 24.574219 47.96875 L 24.886719 47.761719 C 25.019531 47.671875 25.1875 47.65625 25.335938 47.71875 L 26.394531 48.167969 C 26.941406 48.398438 27.414062 48.785156 27.75 49.273438 L 25.476562 48.277344 C 25.332031 48.214844 25.160156 48.226562 25.023438 48.308594 L 24.746094 48.484375 C 24.609375 48.566406 24.4375 48.578125 24.292969 48.511719 L 22.917969 47.902344 C 22.765625 47.832031 22.636719 47.722656 22.542969 47.582031 Z M 22.292969 47.191406 " clip-rule="nonzero"/></clipPath><clipPath id="1b50d8fd84"><path d="M 21.597656 46.132812 L 24.636719 46.132812 L 24.636719 47.675781 L 21.597656 47.675781 Z M 21.597656 46.132812 " clip-rule="nonzero"/></clipPath><clipPath id="0cc7428e3b"><path d="M 21.613281 46.140625 L 24.625 47.417969 L 24.410156 47.570312 C 24.277344 47.664062 24.109375 47.679688 23.964844 47.617188 L 22.253906 46.867188 C 22.097656 46.800781 21.96875 46.691406 21.878906 46.550781 Z M 21.613281 46.140625 " clip-rule="nonzero"/></clipPath></defs><path fill="#ffffff" d="M 25.195312 27.878906 L 29.347656 27.878906 C 29.675781 27.878906 29.949219 27.605469 29.949219 27.277344 L 29.949219 26.457031 C 29.949219 25.800781 29.566406 25.203125 28.964844 24.984375 L 28.472656 24.765625 C 28.144531 25.09375 27.710938 25.253906 27.21875 25.253906 C 26.726562 25.253906 26.34375 25.09375 25.960938 24.765625 L 25.46875 24.984375 C 24.867188 25.253906 24.484375 25.855469 24.484375 26.457031 L 24.484375 27.277344 C 24.59375 27.605469 24.867188 27.878906 25.195312 27.878906 Z M 25.195312 27.878906 " fill-opacity="1" fill-rule="nonzero"/><path fill="#ffffff" d="M 28.636719 23.070312 C 28.636719 23.28125 28.601562 23.484375 28.535156 23.675781 C 28.464844 23.871094 28.367188 24.042969 28.238281 24.191406 C 28.109375 24.339844 27.960938 24.453125 27.792969 24.535156 C 27.628906 24.613281 27.453125 24.65625 27.273438 24.65625 C 27.089844 24.65625 26.917969 24.613281 26.75 24.535156 C 26.582031 24.453125 26.433594 24.339844 26.304688 24.191406 C 26.179688 24.042969 26.078125 23.871094 26.011719 23.675781 C 25.941406 23.484375 25.90625 23.28125 25.90625 23.070312 C 25.90625 22.859375 25.941406 22.660156 26.011719 22.464844 C 26.078125 22.269531 26.179688 22.097656 26.304688 21.949219 C 26.433594 21.800781 26.582031 21.6875 26.75 21.605469 C 26.917969 21.527344 27.089844 21.488281 27.273438 21.488281 C 27.453125 21.488281 27.628906 21.527344 27.792969 21.605469 C 27.960938 21.6875 28.109375 21.800781 28.238281 21.949219 C 28.367188 22.097656 28.464844 22.269531 28.535156 22.464844 C 28.601562 22.660156 28.636719 22.859375 28.636719 23.070312 Z M 28.636719 23.070312 " fill-opacity="1" fill-rule="nonzero"/><path fill="#ffffff" d="M 15.636719 33.175781 L 15.636719 32.355469 C 15.636719 31.703125 15.253906 31.101562 14.652344 30.882812 L 14.164062 30.71875 C 13.835938 31.046875 13.398438 31.210938 12.90625 31.210938 C 12.414062 31.210938 12.03125 31.046875 11.648438 30.71875 L 11.15625 30.9375 C 10.558594 31.210938 10.175781 31.8125 10.175781 32.410156 L 10.175781 33.230469 C 10.175781 33.558594 10.449219 33.832031 10.777344 33.832031 L 14.925781 33.832031 C 15.363281 33.777344 15.636719 33.558594 15.636719 33.175781 Z M 15.636719 33.175781 " fill-opacity="1" fill-rule="nonzero"/><path fill="#ffffff" d="M 12.960938 30.609375 C 13.726562 30.609375 14.328125 29.898438 14.328125 29.023438 C 14.328125 28.152344 13.726562 27.441406 12.960938 27.441406 C 12.195312 27.441406 11.59375 28.152344 11.59375 29.023438 C 11.59375 29.898438 12.195312 30.609375 12.960938 30.609375 Z M 12.960938 30.609375 " fill-opacity="1" fill-rule="nonzero"/><path fill="#ffffff" d="M 39.507812 33.777344 L 43.660156 33.777344 C 43.988281 33.777344 44.261719 33.503906 44.261719 33.175781 L 44.261719 32.355469 C 44.261719 31.703125 43.878906 31.101562 43.277344 30.882812 L 42.785156 30.664062 C 42.457031 30.992188 42.019531 31.15625 41.527344 31.15625 C 41.039062 31.15625 40.65625 30.992188 40.273438 30.664062 L 39.78125 30.882812 C 39.179688 31.15625 38.796875 31.757812 38.796875 32.355469 L 38.796875 33.175781 C 38.90625 33.558594 39.179688 33.777344 39.507812 33.777344 Z M 39.507812 33.777344 " fill-opacity="1" fill-rule="nonzero"/><path fill="#ffffff" d="M 41.582031 30.609375 C 42.347656 30.609375 42.949219 29.898438 42.949219 29.023438 C 42.949219 28.152344 42.347656 27.441406 41.582031 27.441406 C 40.820312 27.441406 40.21875 28.152344 40.21875 29.023438 C 40.273438 29.898438 40.875 30.609375 41.582031 30.609375 Z M 41.582031 30.609375 " fill-opacity="1" fill-rule="nonzero"/><path fill="#ffffff" d="M 8.699219 45.246094 L 8.207031 45.03125 C 7.878906 45.355469 7.445312 45.519531 6.953125 45.519531 C 6.460938 45.519531 6.078125 45.355469 5.695312 45.03125 L 5.3125 45.246094 C 4.710938 45.519531 4.332031 46.066406 4.332031 46.722656 L 4.332031 47.542969 C 4.332031 47.871094 4.601562 48.144531 4.929688 48.144531 L 9.082031 48.144531 C 9.410156 48.144531 9.683594 47.871094 9.683594 47.542969 L 9.683594 46.722656 C 9.683594 46.066406 9.300781 45.519531 8.699219 45.246094 Z M 8.699219 45.246094 " fill-opacity="1" fill-rule="nonzero"/><path fill="#ffffff" d="M 7.007812 44.921875 C 7.769531 44.921875 8.371094 44.210938 8.371094 43.335938 C 8.371094 42.460938 7.769531 41.753906 7.007812 41.753906 C 6.242188 41.753906 5.640625 42.460938 5.640625 43.335938 C 5.695312 44.210938 6.296875 44.921875 7.007812 44.921875 Z M 7.007812 44.921875 " fill-opacity="1" fill-rule="nonzero"/><path fill="#ffffff" d="M 28.964844 65.511719 L 28.472656 65.292969 C 28.144531 65.621094 27.710938 65.785156 27.21875 65.785156 C 26.726562 65.785156 26.34375 65.621094 25.960938 65.292969 L 25.46875 65.511719 C 24.867188 65.785156 24.484375 66.386719 24.484375 66.988281 L 24.484375 67.808594 C 24.484375 68.136719 24.757812 68.410156 25.085938 68.410156 L 29.238281 68.410156 C 29.566406 68.410156 29.839844 68.136719 29.839844 67.808594 L 29.839844 66.988281 C 29.949219 66.332031 29.566406 65.785156 28.964844 65.511719 Z M 28.964844 65.511719 " fill-opacity="1" fill-rule="nonzero"/><path fill="#ffffff" d="M 27.273438 65.1875 C 28.035156 65.1875 28.636719 64.476562 28.636719 63.601562 C 28.636719 62.726562 28.035156 62.015625 27.273438 62.015625 C 26.507812 62.015625 25.90625 62.726562 25.90625 63.601562 C 25.90625 64.476562 26.507812 65.1875 27.273438 65.1875 Z M 27.273438 65.1875 " fill-opacity="1" fill-rule="nonzero"/><path fill="#ffffff" d="M 14.652344 59.558594 L 14.164062 59.339844 C 13.835938 59.667969 13.398438 59.832031 12.90625 59.832031 C 12.414062 59.832031 12.03125 59.667969 11.648438 59.339844 L 11.15625 59.558594 C 10.558594 59.832031 10.175781 60.433594 10.175781 61.035156 L 10.175781 61.855469 C 10.175781 62.179688 10.449219 62.453125 10.777344 62.453125 L 14.925781 62.453125 C 15.253906 62.453125 15.527344 62.179688 15.527344 61.855469 L 15.527344 61.089844 C 15.636719 60.433594 15.253906 59.832031 14.652344 59.558594 Z M 14.652344 59.558594 " fill-opacity="1" fill-rule="nonzero"/><path fill="#ffffff" d="M 12.960938 59.230469 C 13.726562 59.230469 14.328125 58.523438 14.328125 57.648438 C 14.328125 56.773438 13.726562 56.0625 12.960938 56.0625 C 12.195312 56.0625 11.59375 56.773438 11.59375 57.648438 C 11.59375 58.523438 12.195312 59.230469 12.960938 59.230469 Z M 12.960938 59.230469 " fill-opacity="1" fill-rule="nonzero"/><path fill="#ffffff" d="M 41.582031 59.832031 C 41.09375 59.832031 40.710938 59.667969 40.328125 59.339844 L 39.835938 59.558594 C 39.234375 59.832031 38.851562 60.433594 38.851562 61.035156 L 38.851562 61.855469 C 38.851562 62.179688 39.125 62.453125 39.453125 62.453125 L 43.660156 62.453125 C 43.988281 62.453125 44.261719 62.179688 44.261719 61.855469 L 44.261719 61.089844 C 44.261719 60.433594 43.878906 59.832031 43.277344 59.613281 L 42.785156 59.394531 C 42.511719 59.667969 42.074219 59.832031 41.582031 59.832031 Z M 41.582031 59.832031 " fill-opacity="1" fill-rule="nonzero"/><path fill="#ffffff" d="M 40.273438 57.703125 C 40.273438 58.574219 40.875 59.285156 41.636719 59.285156 C 42.402344 59.285156 43.003906 58.574219 43.003906 57.703125 C 43.003906 56.828125 42.402344 56.117188 41.636719 56.117188 C 40.875 56.117188 40.273438 56.828125 40.273438 57.703125 Z M 40.273438 57.703125 " fill-opacity="1" fill-rule="nonzero"/><g clip-path="url(#5b5f84ce8a)"><path fill="#ffffff" d="M 47.539062 39.566406 C 47.046875 39.566406 46.609375 39.621094 46.117188 39.730469 L 44.640625 35.6875 C 46.226562 34.652344 47.265625 32.902344 47.265625 30.9375 C 47.265625 27.824219 44.695312 25.253906 41.582031 25.253906 C 39.507812 25.253906 37.707031 26.347656 36.722656 28.042969 L 32.84375 26.238281 C 32.953125 25.855469 32.953125 25.472656 32.953125 25.039062 C 32.953125 21.921875 30.386719 19.355469 27.273438 19.355469 C 24.160156 19.355469 21.589844 21.871094 21.589844 24.984375 C 21.589844 25.472656 21.644531 25.910156 21.753906 26.402344 L 17.714844 27.878906 C 16.675781 26.292969 14.925781 25.253906 12.960938 25.253906 C 9.847656 25.253906 7.28125 27.824219 7.28125 30.9375 C 7.28125 33.011719 8.371094 34.816406 10.066406 35.796875 L 8.261719 39.675781 C 7.878906 39.566406 7.5 39.566406 7.0625 39.566406 C 3.894531 39.566406 1.324219 42.132812 1.324219 45.246094 C 1.324219 48.363281 3.894531 50.929688 7.007812 50.929688 C 7.5 50.929688 7.933594 50.875 8.425781 50.765625 L 9.902344 54.808594 C 8.316406 55.84375 7.28125 57.59375 7.28125 59.558594 C 7.28125 62.671875 9.847656 65.238281 12.960938 65.238281 C 15.035156 65.238281 16.839844 64.148438 17.820312 62.453125 L 21.699219 64.257812 C 21.589844 64.640625 21.589844 65.023438 21.589844 65.457031 C 21.589844 68.570312 24.160156 71.140625 27.273438 71.140625 C 30.386719 71.140625 32.953125 68.570312 32.953125 65.457031 C 32.953125 64.96875 32.898438 64.53125 32.789062 64.039062 L 36.832031 62.5625 C 37.867188 64.148438 39.617188 65.1875 41.582031 65.1875 C 44.695312 65.1875 47.265625 62.617188 47.265625 59.503906 C 47.265625 57.429688 46.171875 55.625 44.476562 54.644531 L 46.28125 50.765625 C 46.664062 50.875 47.046875 50.875 47.484375 50.875 C 50.597656 50.875 53.164062 48.308594 53.164062 45.195312 C 53.164062 42.078125 50.652344 39.566406 47.539062 39.566406 Z M 45.296875 40.003906 C 43.441406 40.769531 42.074219 42.570312 41.855469 44.648438 L 32.351562 40.714844 L 37.867188 35.199219 C 38.851562 36.070312 40.164062 36.5625 41.582031 36.5625 C 42.402344 36.5625 43.167969 36.398438 43.878906 36.070312 Z M 27.710938 44.210938 L 27.710938 39.730469 L 30.878906 41.042969 Z M 26.835938 44.210938 L 23.667969 41.042969 L 26.835938 39.730469 Z M 26.835938 46.285156 L 26.835938 50.765625 L 23.667969 49.453125 Z M 27.710938 46.285156 L 30.878906 49.453125 L 27.710938 50.765625 Z M 31.75 41.371094 L 40 44.8125 L 28.308594 44.8125 Z M 31.53125 40.386719 L 28.417969 39.074219 L 35.957031 35.960938 Z M 23.011719 40.386719 L 18.585938 35.960938 L 26.179688 39.074219 Z M 26.234375 44.8125 L 14.542969 44.8125 L 22.792969 41.371094 Z M 26.234375 45.683594 L 22.792969 49.125 L 14.542969 45.683594 Z M 23.011719 50.109375 L 26.125 51.421875 L 18.585938 54.535156 Z M 31.53125 50.109375 L 35.957031 54.535156 L 28.363281 51.421875 Z M 28.308594 45.683594 L 40 45.683594 L 31.75 49.125 Z M 41.582031 26.074219 C 44.261719 26.074219 46.390625 28.261719 46.390625 30.882812 C 46.390625 33.558594 44.207031 35.6875 41.582031 35.6875 C 38.90625 35.6875 36.777344 33.503906 36.777344 30.882812 C 36.777344 28.261719 38.960938 26.074219 41.582031 26.074219 Z M 36.339844 28.804688 C 36.066406 29.460938 35.902344 30.171875 35.902344 30.9375 C 35.902344 32.300781 36.394531 33.558594 37.160156 34.542969 L 27.65625 38.476562 L 27.65625 30.664062 C 29.894531 30.5 31.75 29.023438 32.515625 27.058594 Z M 27.273438 20.175781 C 29.949219 20.175781 32.078125 22.359375 32.078125 24.984375 C 32.078125 27.660156 29.894531 29.789062 27.273438 29.789062 C 24.648438 29.789062 22.464844 27.605469 22.464844 24.984375 C 22.464844 22.304688 24.59375 20.175781 27.273438 20.175781 Z M 22.027344 27.222656 C 22.847656 29.132812 24.648438 30.5 26.835938 30.664062 L 26.835938 38.476562 L 17.332031 34.542969 C 18.148438 33.558594 18.585938 32.300781 18.585938 30.9375 C 18.585938 30.117188 18.421875 29.351562 18.09375 28.640625 Z M 8.097656 30.9375 C 8.097656 28.261719 10.285156 26.128906 12.90625 26.128906 C 15.582031 26.128906 17.714844 28.316406 17.714844 30.9375 C 17.714844 33.613281 15.527344 35.742188 12.90625 35.742188 C 10.285156 35.742188 8.097656 33.558594 8.097656 30.9375 Z M 10.832031 36.179688 C 11.484375 36.453125 12.195312 36.617188 12.960938 36.617188 C 14.382812 36.617188 15.636719 36.070312 16.675781 35.25 L 22.191406 40.769531 L 12.6875 44.703125 C 12.46875 42.515625 11.050781 40.714844 9.082031 40.003906 Z M 2.199219 45.246094 C 2.199219 42.570312 4.386719 40.441406 7.007812 40.441406 C 9.628906 40.441406 11.8125 42.625 11.8125 45.246094 C 11.8125 47.871094 9.628906 50.054688 7.007812 50.054688 C 4.386719 50.054688 2.199219 47.925781 2.199219 45.246094 Z M 9.246094 50.492188 C 11.105469 49.671875 12.46875 47.925781 12.6875 45.847656 L 22.191406 49.78125 L 16.621094 55.242188 C 15.636719 54.371094 14.328125 53.878906 12.90625 53.878906 C 12.085938 53.878906 11.320312 54.042969 10.613281 54.371094 Z M 12.960938 64.421875 C 10.285156 64.421875 8.152344 62.234375 8.152344 59.613281 C 8.152344 56.9375 10.339844 54.808594 12.960938 54.808594 C 15.636719 54.808594 17.769531 56.992188 17.769531 59.613281 C 17.769531 62.234375 15.582031 64.421875 12.960938 64.421875 Z M 18.203125 61.691406 C 18.476562 61.035156 18.640625 60.324219 18.640625 59.558594 C 18.640625 58.195312 18.148438 56.9375 17.386719 55.953125 L 26.890625 52.019531 L 26.890625 59.832031 C 24.648438 59.996094 22.792969 61.472656 22.027344 63.4375 Z M 27.273438 70.320312 C 24.59375 70.320312 22.464844 68.136719 22.464844 65.511719 C 22.464844 62.835938 24.648438 60.707031 27.273438 60.707031 C 29.949219 60.707031 32.078125 62.890625 32.078125 65.511719 C 32.078125 68.191406 29.949219 70.320312 27.273438 70.320312 Z M 32.515625 63.273438 C 31.695312 61.363281 29.894531 59.996094 27.710938 59.832031 L 27.710938 52.074219 L 37.214844 56.007812 C 36.394531 56.992188 35.957031 58.25 35.957031 59.613281 C 35.957031 60.433594 36.121094 61.199219 36.449219 61.90625 Z M 46.445312 59.558594 C 46.445312 62.234375 44.261719 64.367188 41.636719 64.367188 C 38.960938 64.367188 36.832031 62.179688 36.832031 59.558594 C 36.832031 56.882812 39.015625 54.753906 41.636719 54.753906 C 44.261719 54.753906 46.445312 56.9375 46.445312 59.558594 Z M 43.714844 54.316406 C 43.058594 54.042969 42.347656 53.878906 41.582031 53.878906 C 40.164062 53.878906 38.851562 54.425781 37.867188 55.242188 L 32.40625 49.78125 L 41.910156 45.847656 C 42.128906 48.035156 43.550781 49.835938 45.515625 50.546875 Z M 47.539062 50.054688 C 44.859375 50.054688 42.730469 47.871094 42.730469 45.246094 C 42.730469 42.570312 44.914062 40.441406 47.539062 40.441406 C 50.214844 40.441406 52.34375 42.625 52.34375 45.246094 C 52.34375 47.925781 50.214844 50.054688 47.539062 50.054688 Z M 47.539062 50.054688 " fill-opacity="1" fill-rule="nonzero"/></g><path fill="#ffffff" d="M 49.230469 45.246094 L 48.738281 45.03125 C 48.410156 45.355469 47.972656 45.519531 47.484375 45.519531 C 46.992188 45.519531 46.609375 45.355469 46.226562 45.03125 L 45.84375 45.246094 C 45.242188 45.519531 44.859375 46.121094 44.859375 46.722656 L 44.859375 47.542969 C 44.859375 47.871094 45.132812 48.144531 45.460938 48.144531 L 49.613281 48.144531 C 49.941406 48.144531 50.214844 47.871094 50.214844 47.542969 L 50.214844 46.722656 C 50.214844 46.066406 49.832031 45.519531 49.230469 45.246094 Z M 49.230469 45.246094 " fill-opacity="1" fill-rule="nonzero"/><path fill="#ffffff" d="M 47.539062 44.921875 C 48.300781 44.921875 48.902344 44.210938 48.902344 43.335938 C 48.902344 42.460938 48.300781 41.753906 47.539062 41.753906 C 46.773438 41.753906 46.171875 42.460938 46.171875 43.335938 C 46.171875 44.210938 46.773438 44.921875 47.539062 44.921875 Z M 47.539062 44.921875 " fill-opacity="1" fill-rule="nonzero"/><g clip-path="url(#16a666528a)"><g clip-path="url(#e7be7d9595)"><path fill="#f266ff" d="M 20.800781 38.8125 L 33.699219 38.8125 L 33.699219 51.6875 L 20.800781 51.6875 Z M 20.800781 38.8125 " fill-opacity="1" fill-rule="nonzero"/></g></g><g clip-path="url(#1c2c308e09)"><g clip-path="url(#3413e6a6b0)"><path fill="#ff637e" d="M 20.800781 38.8125 L 33.699219 38.8125 L 33.699219 51.6875 L 20.800781 51.6875 Z M 20.800781 38.8125 " fill-opacity="1" fill-rule="nonzero"/></g></g><g clip-path="url(#45569501e3)"><g clip-path="url(#ab205191cf)"><path fill="#00d7be" d="M 20.800781 38.8125 L 33.699219 38.8125 L 33.699219 51.6875 L 20.800781 51.6875 Z M 20.800781 38.8125 " fill-opacity="1" fill-rule="nonzero"/></g></g><g clip-path="url(#096ae4a0c9)"><g clip-path="url(#7e0bd2e391)"><path fill="#1f93ff" d="M 20.800781 38.8125 L 33.699219 38.8125 L 33.699219 51.6875 L 20.800781 51.6875 Z M 20.800781 38.8125 " fill-opacity="1" fill-rule="nonzero"/></g></g><g clip-path="url(#52a7cb9c5c)"><g clip-path="url(#06205d5fe6)"><path fill="#ffd500" d="M 20.800781 38.8125 L 33.699219 38.8125 L 33.699219 51.6875 L 20.800781 51.6875 Z M 20.800781 38.8125 " fill-opacity="1" fill-rule="nonzero"/></g></g><g clip-path="url(#c1d15fd6f1)"><g clip-path="url(#ca9aad488c)"><path fill="#1f93ff" d="M 20.800781 38.8125 L 33.699219 38.8125 L 33.699219 51.6875 L 20.800781 51.6875 Z M 20.800781 38.8125 " fill-opacity="1" fill-rule="nonzero"/></g></g><g clip-path="url(#2b6444eda7)"><g clip-path="url(#a8290df802)"><path fill="#f266ff" d="M 20.800781 38.8125 L 33.699219 38.8125 L 33.699219 51.6875 L 20.800781 51.6875 Z M 20.800781 38.8125 " fill-opacity="1" fill-rule="nonzero"/></g></g><g clip-path="url(#b3d7080ac2)"><g clip-path="url(#0071883a2e)"><path fill="#1f93ff" d="M 20.800781 38.8125 L 33.699219 38.8125 L 33.699219 51.6875 L 20.800781 51.6875 Z M 20.800781 38.8125 " fill-opacity="1" fill-rule="nonzero"/></g></g><g clip-path="url(#bffda319bd)"><g clip-path="url(#ae6342d5a6)"><path fill="#ffcf00" d="M 20.800781 38.8125 L 33.699219 38.8125 L 33.699219 51.6875 L 20.800781 51.6875 Z M 20.800781 38.8125 " fill-opacity="1" fill-rule="nonzero"/></g></g><g clip-path="url(#b968bba270)"><g clip-path="url(#07f0966ee6)"><path fill="#61d742" d="M 20.800781 38.8125 L 33.699219 38.8125 L 33.699219 51.6875 L 20.800781 51.6875 Z M 20.800781 38.8125 " fill-opacity="1" fill-rule="nonzero"/></g></g><g clip-path="url(#b0b39c6338)"><g clip-path="url(#595fd71d06)"><path fill="#1f93ff" d="M 20.800781 38.8125 L 33.699219 38.8125 L 33.699219 51.6875 L 20.800781 51.6875 Z M 20.800781 38.8125 " fill-opacity="1" fill-rule="nonzero"/></g></g><g clip-path="url(#0bbbb0a0f6)"><g clip-path="url(#e68f622812)"><path fill="#1f93ff" d="M 20.800781 38.8125 L 33.699219 38.8125 L 33.699219 51.6875 L 20.800781 51.6875 Z M 20.800781 38.8125 " fill-opacity="1" fill-rule="nonzero"/></g></g><g clip-path="url(#79dbe93856)"><g clip-path="url(#1c12d53087)"><path fill="#ff7a78" d="M 20.800781 38.8125 L 33.699219 38.8125 L 33.699219 51.6875 L 20.800781 51.6875 Z M 20.800781 38.8125 " fill-opacity="1" fill-rule="nonzero"/></g></g><g clip-path="url(#1b50d8fd84)"><g clip-path="url(#0cc7428e3b)"><path fill="#ffcf00" d="M 20.800781 38.8125 L 33.699219 38.8125 L 33.699219 51.6875 L 20.800781 51.6875 Z M 20.800781 38.8125 " fill-opacity="1" fill-rule="nonzero"/></g></g></svg>