<svg xmlns="http://www.w3.org/2000/svg" xmlns:xlink="http://www.w3.org/1999/xlink" width="73" zoomAndPan="magnify" viewBox="0 0 54.75 90.75" height="121" preserveAspectRatio="xMidYMid meet" version="1.0"><defs><filter x="0%" y="0%" width="100%" height="100%" id="8882ce1a7c"><feColorMatrix values="0 0 0 0 1 0 0 0 0 1 0 0 0 0 1 0 0 0 1 0" color-interpolation-filters="sRGB"/></filter><mask id="c4b9deb4f3"><g filter="url(#8882ce1a7c)"><rect x="-5.475" width="65.7" fill="#000000" y="-9.075" height="108.9" fill-opacity="0.01"/></g></mask><clipPath id="ae93ede414"><path d="M 8.375 0.621094 L 14.648438 0.621094 L 14.648438 2.964844 L 8.375 2.964844 Z M 8.375 0.621094 " clip-rule="nonzero"/></clipPath><clipPath id="862b00dd1c"><path d="M 8.386719 1.695312 C 8.976562 0.835938 10.050781 0.4375 11.058594 0.703125 L 14.261719 1.542969 C 14.691406 1.65625 14.753906 2.242188 14.355469 2.445312 L 13.652344 2.796875 C 13.355469 2.945312 13.015625 2.980469 12.699219 2.890625 Z M 8.386719 1.695312 " clip-rule="nonzero"/></clipPath><clipPath id="5ec5d479ac"><path d="M 16.390625 9.9375 L 23.714844 9.9375 L 23.714844 20.246094 L 16.390625 20.246094 Z M 16.390625 9.9375 " clip-rule="nonzero"/></clipPath><clipPath id="77b6978d4f"><path d="M 17.121094 10.253906 C 17.777344 9.9375 18.375 9.859375 18.84375 10.136719 C 19.5 10.519531 20.023438 11.101562 20.355469 11.796875 L 23.5 18.417969 C 23.734375 18.90625 23.71875 19.484375 23.460938 19.960938 C 23.285156 20.285156 22.820312 20.28125 22.648438 19.953125 L 19.40625 13.664062 C 18.878906 12.640625 17.972656 11.859375 16.882812 11.488281 L 16.800781 11.460938 C 16.34375 11.304688 16.300781 10.679688 16.726562 10.457031 Z M 17.121094 10.253906 " clip-rule="nonzero"/></clipPath><clipPath id="bdf9c84ef2"><path d="M 4.886719 5.953125 L 26.550781 5.953125 L 26.550781 15.164062 L 4.886719 15.164062 Z M 4.886719 5.953125 " clip-rule="nonzero"/></clipPath><clipPath id="4ee04fb648"><path d="M 5.058594 6.511719 C 5.371094 6.058594 5.945312 5.867188 6.46875 6.035156 L 12.800781 8.078125 C 13.113281 8.179688 13.453125 8.15625 13.75 8.015625 L 17.476562 6.222656 C 17.773438 6.082031 18.117188 6.054688 18.433594 6.144531 L 19.289062 6.394531 C 20.71875 6.8125 21.886719 7.863281 22.453125 9.242188 L 23.015625 10.621094 C 23.132812 10.90625 23.414062 11.089844 23.722656 11.074219 L 25.34375 10.996094 C 25.644531 10.980469 25.921875 11.167969 26.023438 11.457031 L 26.304688 12.261719 C 26.636719 13.210938 26.550781 14.265625 26.070312 15.148438 L 25.199219 12.859375 C 25.089844 12.574219 24.808594 12.386719 24.5 12.398438 L 22.695312 12.457031 C 22.386719 12.46875 22.101562 12.289062 21.976562 12.003906 L 21.269531 10.410156 C 20.808594 9.371094 19.914062 8.574219 18.824219 8.238281 L 17.96875 7.976562 L 13.625 10 C 13.328125 10.140625 12.984375 10.160156 12.675781 10.050781 L 5.410156 7.578125 C 4.96875 7.425781 4.796875 6.898438 5.058594 6.511719 " clip-rule="nonzero"/></clipPath><clipPath id="79c4e16cde"><path d="M 6.878906 2.464844 L 25.109375 2.464844 L 25.109375 9.886719 L 6.878906 9.886719 Z M 6.878906 2.464844 " clip-rule="nonzero"/></clipPath><clipPath id="182952fe4d"><path d="M 25.042969 8.636719 C 25.269531 9.285156 24.820312 10.101562 24.210938 9.777344 C 24.0625 9.699219 23.941406 9.566406 23.878906 9.402344 L 23.066406 7.269531 C 22.664062 6.214844 21.78125 5.410156 20.695312 5.109375 L 18.246094 4.429688 C 17.925781 4.339844 17.585938 4.371094 17.285156 4.511719 L 13.578125 6.261719 C 13.28125 6.402344 12.9375 6.425781 12.625 6.328125 L 7.347656 4.703125 C 6.921875 4.574219 6.746094 4.066406 7 3.699219 C 7.304688 3.261719 7.859375 3.0625 8.371094 3.214844 L 12.539062 4.429688 C 12.855469 4.519531 13.195312 4.492188 13.496094 4.347656 L 17.066406 2.621094 C 17.363281 2.476562 17.703125 2.445312 18.023438 2.527344 L 21.121094 3.339844 C 22.546875 3.714844 23.699219 4.777344 24.183594 6.167969 Z M 25.042969 8.636719 " clip-rule="nonzero"/></clipPath><clipPath id="03821ab0dc"><path d="M 22.667969 13.570312 L 25.207031 13.570312 L 25.207031 17.40625 L 22.667969 17.40625 Z M 22.667969 13.570312 " clip-rule="nonzero"/></clipPath><clipPath id="5d6a79fff1"><path d="M 23.699219 13.578125 C 24.007812 13.5625 24.289062 13.746094 24.40625 14.03125 L 25.0625 15.640625 C 25.265625 16.128906 25.234375 16.6875 24.980469 17.15625 C 24.816406 17.457031 24.378906 17.4375 24.242188 17.125 L 22.691406 13.625 Z M 23.699219 13.578125 " clip-rule="nonzero"/></clipPath><clipPath id="aaed8133b1"><path d="M 1.199219 11.578125 L 4.984375 11.578125 L 4.984375 14.816406 L 1.199219 14.816406 Z M 1.199219 11.578125 " clip-rule="nonzero"/></clipPath><clipPath id="09cf246996"><path d="M 1.464844 11.71875 L 1.542969 11.605469 L 4.273438 12.679688 C 4.570312 12.796875 4.785156 13.058594 4.847656 13.375 L 4.957031 13.957031 C 5.058594 14.5 4.519531 14.941406 4.007812 14.730469 L 2.125 13.949219 C 1.246094 13.582031 0.925781 12.503906 1.464844 11.71875 " clip-rule="nonzero"/></clipPath><clipPath id="ab7d2e8eb8"><path d="M 2.894531 8.839844 L 17.339844 8.839844 L 17.339844 22.585938 L 2.894531 22.585938 Z M 2.894531 8.839844 " clip-rule="nonzero"/></clipPath><clipPath id="f3a432445a"><path d="M 3.054688 9.417969 C 3.375 8.953125 3.972656 8.761719 4.503906 8.953125 L 7.515625 10.027344 C 7.8125 10.132812 8.039062 10.390625 8.101562 10.703125 L 8.773438 13.988281 C 8.835938 14.300781 9.054688 14.5625 9.351562 14.679688 L 13.8125 16.433594 C 14.960938 16.886719 15.941406 17.6875 16.613281 18.722656 L 17.132812 19.515625 C 17.308594 19.792969 17.375 20.128906 17.316406 20.453125 L 16.917969 22.539062 L 15.480469 20.515625 C 14.804688 19.558594 13.863281 18.808594 12.78125 18.363281 L 7.488281 16.167969 C 7.191406 16.046875 6.980469 15.78125 6.921875 15.46875 L 6.320312 12.113281 C 6.261719 11.800781 6.042969 11.539062 5.746094 11.425781 L 3.40625 10.546875 C 2.949219 10.375 2.777344 9.820312 3.054688 9.417969 " clip-rule="nonzero"/></clipPath><clipPath id="bc87331bb7"><path d="M 20.875 21 L 22.121094 21 L 22.121094 23.132812 L 20.875 23.132812 Z M 20.875 21 " clip-rule="nonzero"/></clipPath><clipPath id="79d1c796ad"><path d="M 21.882812 21.289062 C 22.152344 21.773438 22.15625 22.367188 21.890625 22.851562 C 21.699219 23.207031 21.171875 23.234375 21.019531 22.863281 C 20.917969 22.625 20.886719 22.363281 20.929688 22.105469 L 21.042969 21.40625 C 21.109375 20.988281 21.667969 20.894531 21.871094 21.261719 Z M 21.882812 21.289062 " clip-rule="nonzero"/></clipPath><clipPath id="6fecc0f795"><path d="M 10.066406 11.230469 L 20.726562 11.230469 L 20.726562 25.675781 L 10.066406 25.675781 Z M 10.066406 11.230469 " clip-rule="nonzero"/></clipPath><clipPath id="1dbab69f07"><path d="M 17.480469 17.03125 C 16.878906 16.035156 15.957031 15.269531 14.871094 14.859375 L 10.78125 13.320312 C 10.484375 13.207031 10.261719 12.949219 10.203125 12.636719 L 10.101562 12.121094 C 9.992188 11.566406 10.53125 11.105469 11.0625 11.296875 L 15.664062 12.9375 C 16.941406 13.394531 18.011719 14.300781 18.667969 15.484375 L 20.140625 18.144531 C 20.300781 18.433594 20.359375 18.769531 20.300781 19.097656 L 19.65625 22.757812 C 19.597656 23.082031 19.667969 23.417969 19.847656 23.691406 L 20.714844 25.027344 C 20.308594 25.773438 19.261719 25.835938 18.773438 25.140625 L 18.140625 24.242188 C 17.949219 23.972656 17.875 23.640625 17.933594 23.316406 L 18.609375 19.554688 C 18.667969 19.230469 18.605469 18.890625 18.433594 18.609375 Z M 17.480469 17.03125 " clip-rule="nonzero"/></clipPath><clipPath id="a1828a189e"><path d="M 9.269531 20 L 18.285156 20 L 18.285156 25.925781 L 9.269531 25.925781 Z M 9.269531 20 " clip-rule="nonzero"/></clipPath><clipPath id="96fbcec5a6"><path d="M 12.066406 21.8125 C 11.828125 21.574219 11.542969 21.382812 11.234375 21.242188 L 9.300781 20.382812 L 9.675781 20.148438 C 9.945312 19.980469 10.285156 19.957031 10.578125 20.085938 L 11.421875 20.457031 C 11.730469 20.597656 12.015625 20.789062 12.257812 21.023438 L 14.421875 23.109375 C 14.664062 23.34375 14.949219 23.539062 15.257812 23.675781 L 17.300781 24.597656 L 18.28125 25.878906 L 14.914062 24.363281 C 14.605469 24.222656 14.324219 24.027344 14.082031 23.792969 Z M 12.066406 21.8125 " clip-rule="nonzero"/></clipPath><clipPath id="4e75e8abdd"><path d="M 13.554688 21.390625 L 16.589844 21.390625 L 16.589844 23.632812 L 13.554688 23.632812 Z M 13.554688 21.390625 " clip-rule="nonzero"/></clipPath><clipPath id="b84115c52c"><path d="M 13.554688 21.40625 L 15.535156 22.285156 L 16.550781 23.613281 L 15.496094 23.144531 C 15.1875 23.007812 14.90625 22.8125 14.671875 22.566406 Z M 13.554688 21.40625 " clip-rule="nonzero"/></clipPath><clipPath id="d8255fb77a"><path d="M 5.234375 19.148438 L 13.054688 19.148438 L 13.054688 23.53125 L 5.234375 23.53125 Z M 5.234375 19.148438 " clip-rule="nonzero"/></clipPath><clipPath id="af6d010863"><path d="M 13.027344 23.511719 L 8.285156 21.375 C 7.175781 20.875 6.171875 20.15625 5.34375 19.261719 L 5.246094 19.160156 L 10.75 21.644531 C 11.0625 21.785156 11.347656 21.972656 11.597656 22.203125 Z M 13.027344 23.511719 " clip-rule="nonzero"/></clipPath><clipPath id="44b2d8d46a"><path d="M 3.890625 17.109375 L 14.898438 17.109375 L 14.898438 21.339844 L 3.890625 21.339844 Z M 3.890625 17.109375 " clip-rule="nonzero"/></clipPath><clipPath id="33fc0f381d"><path d="M 3.9375 17.136719 L 7.601562 18.761719 C 7.890625 18.890625 8.230469 18.863281 8.496094 18.6875 L 9.125 18.269531 C 9.390625 18.09375 9.730469 18.0625 10.023438 18.1875 L 12.144531 19.085938 C 13.238281 19.546875 14.179688 20.316406 14.851562 21.292969 L 10.304688 19.304688 C 10.011719 19.179688 9.671875 19.203125 9.398438 19.371094 L 8.839844 19.714844 C 8.566406 19.882812 8.226562 19.90625 7.933594 19.773438 L 5.1875 18.550781 C 4.882812 18.414062 4.621094 18.191406 4.4375 17.910156 Z M 3.9375 17.136719 " clip-rule="nonzero"/></clipPath><clipPath id="3f19e5743b"><path d="M 2.546875 15.015625 L 8.621094 15.015625 L 8.621094 18.105469 L 2.546875 18.105469 Z M 2.546875 15.015625 " clip-rule="nonzero"/></clipPath><clipPath id="b82c221800"><path d="M 2.578125 15.03125 L 8.605469 17.585938 L 8.167969 17.894531 C 7.910156 18.074219 7.570312 18.109375 7.277344 17.984375 L 3.855469 16.484375 C 3.546875 16.351562 3.289062 16.128906 3.105469 15.851562 Z M 2.578125 15.03125 " clip-rule="nonzero"/></clipPath><clipPath id="ce651b8ca2"><rect x="0" width="27" y="0" height="27"/></clipPath><clipPath id="6825bb7e27"><path d="M 0.800781 18.800781 L 53.808594 18.800781 L 53.808594 71.808594 L 0.800781 71.808594 Z M 0.800781 18.800781 " clip-rule="nonzero"/></clipPath><clipPath id="8f13ccd089"><path d="M 0.800781 29 L 44 29 L 44 71.808594 L 0.800781 71.808594 Z M 0.800781 29 " clip-rule="nonzero"/></clipPath><clipPath id="93b34777d4"><path d="M 0.800781 39 L 34 39 L 34 71.808594 L 0.800781 71.808594 Z M 0.800781 39 " clip-rule="nonzero"/></clipPath><clipPath id="3d32d1aab2"><path d="M 0.800781 45 L 27 45 L 27 71.808594 L 0.800781 71.808594 Z M 0.800781 45 " clip-rule="nonzero"/></clipPath><clipPath id="2a6d0e6485"><path d="M 0.800781 45 L 4 45 L 4 71.808594 L 0.800781 71.808594 Z M 0.800781 45 " clip-rule="nonzero"/></clipPath><clipPath id="6fedeea882"><path d="M 0.800781 39 L 3 39 L 3 46 L 0.800781 46 Z M 0.800781 39 " clip-rule="nonzero"/></clipPath><clipPath id="fa0ba9c263"><path d="M 0.800781 29 L 3 29 L 3 40 L 0.800781 40 Z M 0.800781 29 " clip-rule="nonzero"/></clipPath><clipPath id="3d55e07844"><path d="M 0.800781 18.800781 L 53.808594 18.800781 L 53.808594 30 L 0.800781 30 Z M 0.800781 18.800781 " clip-rule="nonzero"/></clipPath></defs><g mask="url(#c4b9deb4f3)"><g transform="matrix(1, 0, 0, 1, 14, 32)"><g clip-path="url(#ce651b8ca2)"><g clip-path="url(#ae93ede414)"><g clip-path="url(#862b00dd1c)"><path fill="#000000" d="M 0.953125 0.375 L 26.75 0.375 L 26.75 26.125 L 0.953125 26.125 Z M 0.953125 0.375 " fill-opacity="1" fill-rule="nonzero"/></g></g><g clip-path="url(#5ec5d479ac)"><g clip-path="url(#77b6978d4f)"><path fill="#000000" d="M 0.953125 0.375 L 26.75 0.375 L 26.75 26.125 L 0.953125 26.125 Z M 0.953125 0.375 " fill-opacity="1" fill-rule="nonzero"/></g></g><g clip-path="url(#bdf9c84ef2)"><g clip-path="url(#4ee04fb648)"><path fill="#000000" d="M 0.953125 0.375 L 26.75 0.375 L 26.75 26.125 L 0.953125 26.125 Z M 0.953125 0.375 " fill-opacity="1" fill-rule="nonzero"/></g></g><g clip-path="url(#79c4e16cde)"><g clip-path="url(#182952fe4d)"><path fill="#000000" d="M 0.953125 0.375 L 26.75 0.375 L 26.75 26.125 L 0.953125 26.125 Z M 0.953125 0.375 " fill-opacity="1" fill-rule="nonzero"/></g></g><g clip-path="url(#03821ab0dc)"><g clip-path="url(#5d6a79fff1)"><path fill="#000000" d="M 0.953125 0.375 L 26.75 0.375 L 26.75 26.125 L 0.953125 26.125 Z M 0.953125 0.375 " fill-opacity="1" fill-rule="nonzero"/></g></g><g clip-path="url(#aaed8133b1)"><g clip-path="url(#09cf246996)"><path fill="#000000" d="M 0.953125 0.375 L 26.75 0.375 L 26.75 26.125 L 0.953125 26.125 Z M 0.953125 0.375 " fill-opacity="1" fill-rule="nonzero"/></g></g><g clip-path="url(#ab7d2e8eb8)"><g clip-path="url(#f3a432445a)"><path fill="#000000" d="M 0.953125 0.375 L 26.75 0.375 L 26.75 26.125 L 0.953125 26.125 Z M 0.953125 0.375 " fill-opacity="1" fill-rule="nonzero"/></g></g><g clip-path="url(#bc87331bb7)"><g clip-path="url(#79d1c796ad)"><path fill="#000000" d="M 0.953125 0.375 L 26.75 0.375 L 26.75 26.125 L 0.953125 26.125 Z M 0.953125 0.375 " fill-opacity="1" fill-rule="nonzero"/></g></g><g clip-path="url(#6fecc0f795)"><g clip-path="url(#1dbab69f07)"><path fill="#000000" d="M 0.953125 0.375 L 26.75 0.375 L 26.75 26.125 L 0.953125 26.125 Z M 0.953125 0.375 " fill-opacity="1" fill-rule="nonzero"/></g></g><g clip-path="url(#a1828a189e)"><g clip-path="url(#96fbcec5a6)"><path fill="#000000" d="M 0.953125 0.375 L 26.75 0.375 L 26.75 26.125 L 0.953125 26.125 Z M 0.953125 0.375 " fill-opacity="1" fill-rule="nonzero"/></g></g><g clip-path="url(#4e75e8abdd)"><g clip-path="url(#b84115c52c)"><path fill="#000000" d="M 0.953125 0.375 L 26.75 0.375 L 26.75 26.125 L 0.953125 26.125 Z M 0.953125 0.375 " fill-opacity="1" fill-rule="nonzero"/></g></g><g clip-path="url(#d8255fb77a)"><g clip-path="url(#af6d010863)"><path fill="#000000" d="M 0.953125 0.375 L 26.75 0.375 L 26.75 26.125 L 0.953125 26.125 Z M 0.953125 0.375 " fill-opacity="1" fill-rule="nonzero"/></g></g><g clip-path="url(#44b2d8d46a)"><g clip-path="url(#33fc0f381d)"><path fill="#000000" d="M 0.953125 0.375 L 26.75 0.375 L 26.75 26.125 L 0.953125 26.125 Z M 0.953125 0.375 " fill-opacity="1" fill-rule="nonzero"/></g></g><g clip-path="url(#3f19e5743b)"><g clip-path="url(#b82c221800)"><path fill="#000000" d="M 0.953125 0.375 L 26.75 0.375 L 26.75 26.125 L 0.953125 26.125 Z M 0.953125 0.375 " fill-opacity="1" fill-rule="nonzero"/></g></g></g></g></g><g clip-path="url(#6825bb7e27)"><path fill="#0055a3" d="M 49.304688 71.808594 L 5.304688 71.808594 C 2.820312 71.808594 0.800781 69.789062 0.800781 67.304688 L 0.800781 23.304688 C 0.800781 20.820312 2.820312 18.800781 5.304688 18.800781 L 49.304688 18.800781 C 51.789062 18.800781 53.808594 20.820312 53.808594 23.304688 L 53.808594 67.304688 C 53.808594 69.789062 51.789062 71.808594 49.304688 71.808594 Z M 49.304688 71.808594 " fill-opacity="1" fill-rule="evenodd"/></g><g clip-path="url(#8f13ccd089)"><path fill="#80d261" d="M 43.066406 71.808594 L 5.304688 71.808594 C 2.820312 71.808594 0.800781 69.789062 0.800781 67.304688 L 0.800781 29.546875 L 41.667969 29.546875 C 42.445312 29.546875 43.066406 30.167969 43.066406 30.914062 Z M 43.066406 71.808594 " fill-opacity="1" fill-rule="evenodd"/></g><g clip-path="url(#93b34777d4)"><path fill="#ffc344" d="M 33.40625 71.808594 L 5.304688 71.808594 C 2.820312 71.808594 0.800781 69.789062 0.800781 67.304688 L 0.800781 39.203125 L 32.476562 39.203125 C 33.003906 39.203125 33.40625 39.605469 33.40625 40.105469 Z M 33.40625 71.808594 " fill-opacity="1" fill-rule="evenodd"/></g><path fill="#eef1f2" d="M 24.027344 53.207031 C 23.316406 53.207031 22.941406 52.339844 23.46875 51.8125 L 23.71875 51.53125 L 20.953125 48.953125 L 20.769531 49.140625 C 20.023438 49.917969 18.84375 48.769531 19.621094 47.992188 L 37.289062 30.320312 L 33.035156 26.066406 C 32.507812 25.539062 32.878906 24.671875 33.625 24.671875 L 47.101562 24.671875 C 47.566406 24.671875 47.941406 25.042969 47.941406 25.476562 L 47.941406 38.984375 C 47.941406 39.730469 47.039062 40.074219 46.542969 39.574219 L 42.257812 35.320312 L 24.621094 52.992188 C 24.433594 53.144531 24.246094 53.207031 24.027344 53.207031 Z M 24.027344 53.207031 " fill-opacity="1" fill-rule="evenodd"/><g clip-path="url(#3d32d1aab2)"><path fill="#fd6930" d="M 26.949219 71.808594 L 5.304688 71.808594 C 2.820312 71.808594 0.800781 69.789062 0.800781 67.304688 L 0.800781 45.632812 L 26.328125 45.632812 C 26.667969 45.632812 26.949219 45.910156 26.949219 46.253906 Z M 26.949219 71.808594 " fill-opacity="1" fill-rule="evenodd"/></g><g clip-path="url(#2a6d0e6485)"><path fill="#f85733" d="M 2.914062 69.230469 L 2.914062 45.632812 L 0.800781 45.632812 L 0.800781 67.304688 C 0.800781 69.109375 1.886719 70.691406 3.472656 71.40625 C 3.097656 70.753906 2.914062 70.007812 2.914062 69.230469 Z M 2.914062 69.230469 " fill-opacity="1" fill-rule="evenodd"/></g><g clip-path="url(#6fedeea882)"><path fill="#fba842" d="M 0.800781 39.203125 L 2.914062 39.203125 L 2.914062 45.632812 L 0.800781 45.632812 Z M 0.800781 39.203125 " fill-opacity="1" fill-rule="evenodd"/></g><g clip-path="url(#fa0ba9c263)"><path fill="#68aa4e" d="M 0.800781 29.546875 L 2.914062 29.546875 L 2.914062 39.203125 L 0.800781 39.203125 Z M 0.800781 29.546875 " fill-opacity="1" fill-rule="evenodd"/></g><g clip-path="url(#3d55e07844)"><path fill="#004584" d="M 0.800781 29.546875 L 2.914062 29.546875 L 2.914062 25.230469 C 2.914062 22.777344 4.929688 20.757812 7.414062 20.757812 L 51.417969 20.757812 C 52.070312 20.757812 52.691406 20.882812 53.25 21.128906 C 52.472656 19.765625 50.984375 18.800781 49.304688 18.800781 L 5.304688 18.800781 C 2.820312 18.800781 0.800781 20.820312 0.800781 23.304688 Z M 0.800781 29.546875 " fill-opacity="1" fill-rule="evenodd"/></g><path fill="#c1c3c4" d="M 47.070312 26.472656 L 47.070312 39.792969 C 47.503906 39.824219 47.941406 39.484375 47.941406 38.984375 L 47.941406 25.476562 C 47.941406 25.042969 47.566406 24.671875 47.101562 24.671875 L 33.625 24.671875 C 33.066406 24.671875 32.722656 25.167969 32.816406 25.632812 L 46.261719 25.632812 C 46.699219 25.632812 47.070312 26.003906 47.070312 26.472656 Z M 47.070312 26.472656 " fill-opacity="1" fill-rule="evenodd"/></svg>