<svg xmlns="http://www.w3.org/2000/svg" xmlns:xlink="http://www.w3.org/1999/xlink" width="73" zoomAndPan="magnify" viewBox="0 0 54.75 90.75" height="121" preserveAspectRatio="xMidYMid meet" version="1.0"><defs><filter x="0%" y="0%" width="100%" height="100%" id="63a188846f"><feColorMatrix values="0 0 0 0 1 0 0 0 0 1 0 0 0 0 1 0 0 0 1 0" color-interpolation-filters="sRGB"/></filter><mask id="69a92f653c"><g filter="url(#63a188846f)"><rect x="-5.475" width="65.7" fill="#000000" y="-9.075" height="108.9" fill-opacity="0.01"/></g></mask><clipPath id="664a0a49a7"><path d="M 8.375 0.621094 L 14.648438 0.621094 L 14.648438 2.964844 L 8.375 2.964844 Z M 8.375 0.621094 " clip-rule="nonzero"/></clipPath><clipPath id="c2ff7f6aa9"><path d="M 8.386719 1.695312 C 8.976562 0.835938 10.050781 0.4375 11.058594 0.703125 L 14.261719 1.542969 C 14.691406 1.65625 14.753906 2.242188 14.355469 2.445312 L 13.652344 2.796875 C 13.355469 2.945312 13.015625 2.980469 12.699219 2.890625 Z M 8.386719 1.695312 " clip-rule="nonzero"/></clipPath><clipPath id="9ca2396a8f"><path d="M 16.390625 9.9375 L 23.714844 9.9375 L 23.714844 20.246094 L 16.390625 20.246094 Z M 16.390625 9.9375 " clip-rule="nonzero"/></clipPath><clipPath id="88db5c638b"><path d="M 17.121094 10.253906 C 17.777344 9.9375 18.375 9.859375 18.84375 10.136719 C 19.5 10.519531 20.023438 11.101562 20.355469 11.796875 L 23.5 18.417969 C 23.734375 18.90625 23.71875 19.484375 23.460938 19.960938 C 23.285156 20.285156 22.820312 20.28125 22.648438 19.953125 L 19.40625 13.664062 C 18.878906 12.640625 17.972656 11.859375 16.882812 11.488281 L 16.800781 11.460938 C 16.34375 11.304688 16.300781 10.679688 16.726562 10.457031 Z M 17.121094 10.253906 " clip-rule="nonzero"/></clipPath><clipPath id="f60752f381"><path d="M 4.886719 5.953125 L 26.550781 5.953125 L 26.550781 15.164062 L 4.886719 15.164062 Z M 4.886719 5.953125 " clip-rule="nonzero"/></clipPath><clipPath id="ed85803e13"><path d="M 5.058594 6.511719 C 5.371094 6.058594 5.945312 5.867188 6.46875 6.035156 L 12.800781 8.078125 C 13.113281 8.179688 13.453125 8.15625 13.75 8.015625 L 17.476562 6.222656 C 17.773438 6.082031 18.117188 6.054688 18.433594 6.144531 L 19.289062 6.394531 C 20.71875 6.8125 21.886719 7.863281 22.453125 9.242188 L 23.015625 10.621094 C 23.132812 10.90625 23.414062 11.089844 23.722656 11.074219 L 25.34375 10.996094 C 25.644531 10.980469 25.921875 11.167969 26.023438 11.457031 L 26.304688 12.261719 C 26.636719 13.210938 26.550781 14.265625 26.070312 15.148438 L 25.199219 12.859375 C 25.089844 12.574219 24.808594 12.386719 24.5 12.398438 L 22.695312 12.457031 C 22.386719 12.46875 22.101562 12.289062 21.976562 12.003906 L 21.269531 10.410156 C 20.808594 9.371094 19.914062 8.574219 18.824219 8.238281 L 17.96875 7.976562 L 13.625 10 C 13.328125 10.140625 12.984375 10.160156 12.675781 10.050781 L 5.410156 7.578125 C 4.96875 7.425781 4.796875 6.898438 5.058594 6.511719 " clip-rule="nonzero"/></clipPath><clipPath id="200a06fb31"><path d="M 6.878906 2.464844 L 25.109375 2.464844 L 25.109375 9.886719 L 6.878906 9.886719 Z M 6.878906 2.464844 " clip-rule="nonzero"/></clipPath><clipPath id="8dbbea7b68"><path d="M 25.042969 8.636719 C 25.269531 9.285156 24.820312 10.101562 24.210938 9.777344 C 24.0625 9.699219 23.941406 9.566406 23.878906 9.402344 L 23.066406 7.269531 C 22.664062 6.214844 21.78125 5.410156 20.695312 5.109375 L 18.246094 4.429688 C 17.925781 4.339844 17.585938 4.371094 17.285156 4.511719 L 13.578125 6.261719 C 13.28125 6.402344 12.9375 6.425781 12.625 6.328125 L 7.347656 4.703125 C 6.921875 4.574219 6.746094 4.066406 7 3.699219 C 7.304688 3.261719 7.859375 3.0625 8.371094 3.214844 L 12.539062 4.429688 C 12.855469 4.519531 13.195312 4.492188 13.496094 4.347656 L 17.066406 2.621094 C 17.363281 2.476562 17.703125 2.445312 18.023438 2.527344 L 21.121094 3.339844 C 22.546875 3.714844 23.699219 4.777344 24.183594 6.167969 Z M 25.042969 8.636719 " clip-rule="nonzero"/></clipPath><clipPath id="91182d8603"><path d="M 22.667969 13.570312 L 25.207031 13.570312 L 25.207031 17.40625 L 22.667969 17.40625 Z M 22.667969 13.570312 " clip-rule="nonzero"/></clipPath><clipPath id="838ef603a6"><path d="M 23.699219 13.578125 C 24.007812 13.5625 24.289062 13.746094 24.40625 14.03125 L 25.0625 15.640625 C 25.265625 16.128906 25.234375 16.6875 24.980469 17.15625 C 24.816406 17.457031 24.378906 17.4375 24.242188 17.125 L 22.691406 13.625 Z M 23.699219 13.578125 " clip-rule="nonzero"/></clipPath><clipPath id="0b4151cbbd"><path d="M 1.199219 11.578125 L 4.984375 11.578125 L 4.984375 14.816406 L 1.199219 14.816406 Z M 1.199219 11.578125 " clip-rule="nonzero"/></clipPath><clipPath id="fa97dc84ce"><path d="M 1.464844 11.71875 L 1.542969 11.605469 L 4.273438 12.679688 C 4.570312 12.796875 4.785156 13.058594 4.847656 13.375 L 4.957031 13.957031 C 5.058594 14.5 4.519531 14.941406 4.007812 14.730469 L 2.125 13.949219 C 1.246094 13.582031 0.925781 12.503906 1.464844 11.71875 " clip-rule="nonzero"/></clipPath><clipPath id="4b85256913"><path d="M 2.894531 8.839844 L 17.339844 8.839844 L 17.339844 22.585938 L 2.894531 22.585938 Z M 2.894531 8.839844 " clip-rule="nonzero"/></clipPath><clipPath id="bde27ac3b6"><path d="M 3.054688 9.417969 C 3.375 8.953125 3.972656 8.761719 4.503906 8.953125 L 7.515625 10.027344 C 7.8125 10.132812 8.039062 10.390625 8.101562 10.703125 L 8.773438 13.988281 C 8.835938 14.300781 9.054688 14.5625 9.351562 14.679688 L 13.8125 16.433594 C 14.960938 16.886719 15.941406 17.6875 16.613281 18.722656 L 17.132812 19.515625 C 17.308594 19.792969 17.375 20.128906 17.316406 20.453125 L 16.917969 22.539062 L 15.480469 20.515625 C 14.804688 19.558594 13.863281 18.808594 12.78125 18.363281 L 7.488281 16.167969 C 7.191406 16.046875 6.980469 15.78125 6.921875 15.46875 L 6.320312 12.113281 C 6.261719 11.800781 6.042969 11.539062 5.746094 11.425781 L 3.40625 10.546875 C 2.949219 10.375 2.777344 9.820312 3.054688 9.417969 " clip-rule="nonzero"/></clipPath><clipPath id="fb4075456f"><path d="M 20.875 21 L 22.121094 21 L 22.121094 23.132812 L 20.875 23.132812 Z M 20.875 21 " clip-rule="nonzero"/></clipPath><clipPath id="9a208f9676"><path d="M 21.882812 21.289062 C 22.152344 21.773438 22.15625 22.367188 21.890625 22.851562 C 21.699219 23.207031 21.171875 23.234375 21.019531 22.863281 C 20.917969 22.625 20.886719 22.363281 20.929688 22.105469 L 21.042969 21.40625 C 21.109375 20.988281 21.667969 20.894531 21.871094 21.261719 Z M 21.882812 21.289062 " clip-rule="nonzero"/></clipPath><clipPath id="e10b5d6996"><path d="M 10.066406 11.230469 L 20.726562 11.230469 L 20.726562 25.675781 L 10.066406 25.675781 Z M 10.066406 11.230469 " clip-rule="nonzero"/></clipPath><clipPath id="49a05108ff"><path d="M 17.480469 17.03125 C 16.878906 16.035156 15.957031 15.269531 14.871094 14.859375 L 10.78125 13.320312 C 10.484375 13.207031 10.261719 12.949219 10.203125 12.636719 L 10.101562 12.121094 C 9.992188 11.566406 10.53125 11.105469 11.0625 11.296875 L 15.664062 12.9375 C 16.941406 13.394531 18.011719 14.300781 18.667969 15.484375 L 20.140625 18.144531 C 20.300781 18.433594 20.359375 18.769531 20.300781 19.097656 L 19.65625 22.757812 C 19.597656 23.082031 19.667969 23.417969 19.847656 23.691406 L 20.714844 25.027344 C 20.308594 25.773438 19.261719 25.835938 18.773438 25.140625 L 18.140625 24.242188 C 17.949219 23.972656 17.875 23.640625 17.933594 23.316406 L 18.609375 19.554688 C 18.667969 19.230469 18.605469 18.890625 18.433594 18.609375 Z M 17.480469 17.03125 " clip-rule="nonzero"/></clipPath><clipPath id="9c60329787"><path d="M 9.269531 20 L 18.285156 20 L 18.285156 25.925781 L 9.269531 25.925781 Z M 9.269531 20 " clip-rule="nonzero"/></clipPath><clipPath id="76409be033"><path d="M 12.066406 21.8125 C 11.828125 21.574219 11.542969 21.382812 11.234375 21.242188 L 9.300781 20.382812 L 9.675781 20.148438 C 9.945312 19.980469 10.285156 19.957031 10.578125 20.085938 L 11.421875 20.457031 C 11.730469 20.597656 12.015625 20.789062 12.257812 21.023438 L 14.421875 23.109375 C 14.664062 23.34375 14.949219 23.539062 15.257812 23.675781 L 17.300781 24.597656 L 18.28125 25.878906 L 14.914062 24.363281 C 14.605469 24.222656 14.324219 24.027344 14.082031 23.792969 Z M 12.066406 21.8125 " clip-rule="nonzero"/></clipPath><clipPath id="97ba42975e"><path d="M 13.554688 21.390625 L 16.589844 21.390625 L 16.589844 23.632812 L 13.554688 23.632812 Z M 13.554688 21.390625 " clip-rule="nonzero"/></clipPath><clipPath id="064884fc01"><path d="M 13.554688 21.40625 L 15.535156 22.285156 L 16.550781 23.613281 L 15.496094 23.144531 C 15.1875 23.007812 14.90625 22.8125 14.671875 22.566406 Z M 13.554688 21.40625 " clip-rule="nonzero"/></clipPath><clipPath id="d75b0793fa"><path d="M 5.234375 19.148438 L 13.054688 19.148438 L 13.054688 23.53125 L 5.234375 23.53125 Z M 5.234375 19.148438 " clip-rule="nonzero"/></clipPath><clipPath id="2bd7720b65"><path d="M 13.027344 23.511719 L 8.285156 21.375 C 7.175781 20.875 6.171875 20.15625 5.34375 19.261719 L 5.246094 19.160156 L 10.75 21.644531 C 11.0625 21.785156 11.347656 21.972656 11.597656 22.203125 Z M 13.027344 23.511719 " clip-rule="nonzero"/></clipPath><clipPath id="0ad96e9d0e"><path d="M 3.890625 17.109375 L 14.898438 17.109375 L 14.898438 21.339844 L 3.890625 21.339844 Z M 3.890625 17.109375 " clip-rule="nonzero"/></clipPath><clipPath id="ef2f28457e"><path d="M 3.9375 17.136719 L 7.601562 18.761719 C 7.890625 18.890625 8.230469 18.863281 8.496094 18.6875 L 9.125 18.269531 C 9.390625 18.09375 9.730469 18.0625 10.023438 18.1875 L 12.144531 19.085938 C 13.238281 19.546875 14.179688 20.316406 14.851562 21.292969 L 10.304688 19.304688 C 10.011719 19.179688 9.671875 19.203125 9.398438 19.371094 L 8.839844 19.714844 C 8.566406 19.882812 8.226562 19.90625 7.933594 19.773438 L 5.1875 18.550781 C 4.882812 18.414062 4.621094 18.191406 4.4375 17.910156 Z M 3.9375 17.136719 " clip-rule="nonzero"/></clipPath><clipPath id="2c4f37f39b"><path d="M 2.546875 15.015625 L 8.621094 15.015625 L 8.621094 18.105469 L 2.546875 18.105469 Z M 2.546875 15.015625 " clip-rule="nonzero"/></clipPath><clipPath id="eaef91ee31"><path d="M 2.578125 15.03125 L 8.605469 17.585938 L 8.167969 17.894531 C 7.910156 18.074219 7.570312 18.109375 7.277344 17.984375 L 3.855469 16.484375 C 3.546875 16.351562 3.289062 16.128906 3.105469 15.851562 Z M 2.578125 15.03125 " clip-rule="nonzero"/></clipPath><clipPath id="db7cb688ed"><rect x="0" width="27" y="0" height="27"/></clipPath><clipPath id="485c1357d3"><path d="M 0.601562 18.667969 L 53.609375 18.667969 L 53.609375 71.675781 L 0.601562 71.675781 Z M 0.601562 18.667969 " clip-rule="nonzero"/></clipPath></defs><g mask="url(#69a92f653c)"><g transform="matrix(1, 0, 0, 1, 14, 32)"><g clip-path="url(#db7cb688ed)"><g clip-path="url(#664a0a49a7)"><g clip-path="url(#c2ff7f6aa9)"><path fill="#000000" d="M 0.953125 0.375 L 26.75 0.375 L 26.75 26.125 L 0.953125 26.125 Z M 0.953125 0.375 " fill-opacity="1" fill-rule="nonzero"/></g></g><g clip-path="url(#9ca2396a8f)"><g clip-path="url(#88db5c638b)"><path fill="#000000" d="M 0.953125 0.375 L 26.75 0.375 L 26.75 26.125 L 0.953125 26.125 Z M 0.953125 0.375 " fill-opacity="1" fill-rule="nonzero"/></g></g><g clip-path="url(#f60752f381)"><g clip-path="url(#ed85803e13)"><path fill="#000000" d="M 0.953125 0.375 L 26.75 0.375 L 26.75 26.125 L 0.953125 26.125 Z M 0.953125 0.375 " fill-opacity="1" fill-rule="nonzero"/></g></g><g clip-path="url(#200a06fb31)"><g clip-path="url(#8dbbea7b68)"><path fill="#000000" d="M 0.953125 0.375 L 26.75 0.375 L 26.75 26.125 L 0.953125 26.125 Z M 0.953125 0.375 " fill-opacity="1" fill-rule="nonzero"/></g></g><g clip-path="url(#91182d8603)"><g clip-path="url(#838ef603a6)"><path fill="#000000" d="M 0.953125 0.375 L 26.75 0.375 L 26.75 26.125 L 0.953125 26.125 Z M 0.953125 0.375 " fill-opacity="1" fill-rule="nonzero"/></g></g><g clip-path="url(#0b4151cbbd)"><g clip-path="url(#fa97dc84ce)"><path fill="#000000" d="M 0.953125 0.375 L 26.75 0.375 L 26.75 26.125 L 0.953125 26.125 Z M 0.953125 0.375 " fill-opacity="1" fill-rule="nonzero"/></g></g><g clip-path="url(#4b85256913)"><g clip-path="url(#bde27ac3b6)"><path fill="#000000" d="M 0.953125 0.375 L 26.75 0.375 L 26.75 26.125 L 0.953125 26.125 Z M 0.953125 0.375 " fill-opacity="1" fill-rule="nonzero"/></g></g><g clip-path="url(#fb4075456f)"><g clip-path="url(#9a208f9676)"><path fill="#000000" d="M 0.953125 0.375 L 26.75 0.375 L 26.75 26.125 L 0.953125 26.125 Z M 0.953125 0.375 " fill-opacity="1" fill-rule="nonzero"/></g></g><g clip-path="url(#e10b5d6996)"><g clip-path="url(#49a05108ff)"><path fill="#000000" d="M 0.953125 0.375 L 26.75 0.375 L 26.75 26.125 L 0.953125 26.125 Z M 0.953125 0.375 " fill-opacity="1" fill-rule="nonzero"/></g></g><g clip-path="url(#9c60329787)"><g clip-path="url(#76409be033)"><path fill="#000000" d="M 0.953125 0.375 L 26.75 0.375 L 26.75 26.125 L 0.953125 26.125 Z M 0.953125 0.375 " fill-opacity="1" fill-rule="nonzero"/></g></g><g clip-path="url(#97ba42975e)"><g clip-path="url(#064884fc01)"><path fill="#000000" d="M 0.953125 0.375 L 26.75 0.375 L 26.75 26.125 L 0.953125 26.125 Z M 0.953125 0.375 " fill-opacity="1" fill-rule="nonzero"/></g></g><g clip-path="url(#d75b0793fa)"><g clip-path="url(#2bd7720b65)"><path fill="#000000" d="M 0.953125 0.375 L 26.75 0.375 L 26.75 26.125 L 0.953125 26.125 Z M 0.953125 0.375 " fill-opacity="1" fill-rule="nonzero"/></g></g><g clip-path="url(#0ad96e9d0e)"><g clip-path="url(#ef2f28457e)"><path fill="#000000" d="M 0.953125 0.375 L 26.75 0.375 L 26.75 26.125 L 0.953125 26.125 Z M 0.953125 0.375 " fill-opacity="1" fill-rule="nonzero"/></g></g><g clip-path="url(#2c4f37f39b)"><g clip-path="url(#eaef91ee31)"><path fill="#000000" d="M 0.953125 0.375 L 26.75 0.375 L 26.75 26.125 L 0.953125 26.125 Z M 0.953125 0.375 " fill-opacity="1" fill-rule="nonzero"/></g></g></g></g></g><g clip-path="url(#485c1357d3)"><path fill="#ffffff" d="M 53.699219 19.386719 C 53.699219 19.371094 53.699219 19.363281 53.699219 19.355469 C 53.699219 19.347656 53.695312 19.339844 53.695312 19.332031 C 53.691406 19.3125 53.691406 19.296875 53.6875 19.277344 C 53.683594 19.265625 53.683594 19.253906 53.679688 19.242188 C 53.679688 19.234375 53.675781 19.226562 53.671875 19.21875 C 53.667969 19.203125 53.660156 19.1875 53.65625 19.171875 C 53.652344 19.160156 53.648438 19.148438 53.640625 19.136719 C 53.636719 19.128906 53.632812 19.121094 53.625 19.109375 C 53.621094 19.097656 53.613281 19.085938 53.605469 19.074219 C 53.597656 19.0625 53.59375 19.054688 53.585938 19.042969 C 53.578125 19.035156 53.570312 19.023438 53.5625 19.015625 C 53.554688 19.007812 53.546875 18.996094 53.539062 18.988281 C 53.53125 18.980469 53.519531 18.96875 53.511719 18.960938 C 53.503906 18.953125 53.492188 18.945312 53.484375 18.9375 C 53.472656 18.929688 53.464844 18.921875 53.457031 18.914062 C 53.445312 18.90625 53.433594 18.902344 53.425781 18.894531 C 53.414062 18.886719 53.402344 18.878906 53.386719 18.871094 C 53.378906 18.867188 53.371094 18.863281 53.363281 18.859375 C 53.351562 18.851562 53.339844 18.847656 53.328125 18.84375 C 53.3125 18.839844 53.296875 18.832031 53.28125 18.828125 C 53.273438 18.824219 53.265625 18.820312 53.257812 18.820312 C 53.246094 18.816406 53.230469 18.816406 53.21875 18.8125 C 53.203125 18.808594 53.1875 18.804688 53.167969 18.804688 C 53.160156 18.804688 53.152344 18.800781 53.140625 18.800781 C 53.140625 18.800781 53.117188 18.800781 53.078125 18.796875 C 52.550781 18.773438 49.058594 18.671875 44.226562 19.886719 C 44.160156 19.902344 44.09375 19.917969 44.03125 19.9375 C 43.953125 19.957031 43.878906 19.976562 43.804688 19.996094 C 43.699219 20.023438 43.59375 20.050781 43.488281 20.078125 C 43.4375 20.09375 43.386719 20.105469 43.335938 20.121094 C 43.171875 20.167969 43.003906 20.214844 42.835938 20.261719 C 37.199219 21.898438 29.132812 25.675781 22.53125 34.363281 C 20.46875 34.085938 16.742188 33.996094 12.722656 35.910156 C 7.488281 38.40625 3.449219 43.441406 0.707031 50.882812 C 0.613281 51.132812 0.703125 51.414062 0.917969 51.570312 C 1.023438 51.640625 1.144531 51.679688 1.261719 51.679688 C 1.398438 51.679688 1.53125 51.632812 1.640625 51.546875 C 1.722656 51.476562 9.78125 44.964844 15.71875 46.761719 C 15.457031 47.4375 15.203125 48.128906 14.957031 48.835938 L 14.625 48.503906 C 14.390625 48.269531 14.015625 48.269531 13.785156 48.503906 L 12.046875 50.238281 C 11.816406 50.472656 11.816406 50.847656 12.046875 51.078125 L 13.460938 52.492188 L 11.1875 54.765625 C 10.957031 54.996094 10.957031 55.371094 11.1875 55.601562 L 16.894531 61.3125 C 17.011719 61.425781 17.164062 61.484375 17.316406 61.484375 C 17.46875 61.484375 17.617188 61.425781 17.734375 61.3125 L 20.007812 59.039062 L 21.417969 60.449219 C 21.535156 60.566406 21.6875 60.625 21.839844 60.625 C 21.992188 60.625 22.140625 60.566406 22.257812 60.449219 L 23.996094 58.710938 C 24.226562 58.480469 24.226562 58.105469 23.996094 57.875 L 23.664062 57.542969 C 24.371094 57.296875 25.0625 57.039062 25.738281 56.777344 C 27.53125 62.71875 21.023438 70.777344 20.953125 70.859375 C 20.785156 71.066406 20.773438 71.359375 20.929688 71.578125 C 21.042969 71.738281 21.226562 71.828125 21.414062 71.828125 C 21.480469 71.828125 21.550781 71.816406 21.617188 71.792969 C 29.054688 69.050781 34.09375 65.007812 36.585938 59.777344 C 38.503906 55.757812 38.414062 52.027344 38.136719 49.96875 C 46.824219 43.367188 50.601562 35.296875 52.238281 29.660156 C 53.886719 23.988281 53.722656 19.804688 53.699219 19.386719 Z M 2.574219 49.386719 C 5.164062 43.292969 8.742188 39.121094 13.234375 36.980469 C 16.589844 35.382812 19.726562 35.28125 21.722656 35.464844 C 19.570312 38.488281 17.703125 41.910156 16.160156 45.65625 C 11.285156 44.109375 5.410156 47.453125 2.574219 49.386719 Z M 17.316406 60.050781 L 12.445312 55.183594 L 14.300781 53.332031 L 19.167969 58.199219 Z M 21.839844 59.191406 L 20.425781 57.78125 L 14.71875 52.074219 C 14.71875 52.074219 14.71875 52.070312 14.71875 52.070312 L 13.304688 50.660156 L 14.203125 49.761719 L 22.738281 58.292969 Z M 35.515625 59.265625 C 33.375 63.753906 29.207031 67.335938 23.113281 69.925781 C 25.046875 67.085938 28.386719 61.214844 26.84375 56.335938 C 30.589844 54.796875 34.011719 52.929688 37.035156 50.777344 C 37.21875 52.773438 37.117188 55.910156 35.515625 59.265625 Z M 37.140625 49.234375 C 33.867188 51.679688 30.074219 53.773438 25.871094 55.453125 C 24.863281 55.855469 23.808594 56.242188 22.730469 56.609375 L 15.890625 49.769531 C 16.253906 48.691406 16.640625 47.636719 17.046875 46.625 C 18.726562 42.421875 20.820312 38.632812 23.265625 35.355469 C 29.46875 27.054688 37.050781 23.292969 42.535156 21.589844 C 42.960938 23.652344 43.964844 25.523438 45.472656 27.027344 C 46.976562 28.53125 48.84375 29.539062 50.90625 29.964844 C 49.207031 35.445312 45.445312 43.03125 37.140625 49.234375 Z M 52.527344 20.0625 C 52.527344 20.089844 52.527344 20.121094 52.523438 20.152344 C 52.523438 20.171875 52.523438 20.195312 52.523438 20.21875 C 52.523438 20.269531 52.523438 20.324219 52.523438 20.382812 C 52.523438 20.398438 52.523438 20.417969 52.523438 20.433594 C 52.519531 20.480469 52.519531 20.527344 52.519531 20.574219 C 52.519531 20.597656 52.515625 20.625 52.515625 20.648438 C 52.515625 20.695312 52.511719 20.742188 52.511719 20.789062 C 52.511719 20.8125 52.511719 20.839844 52.507812 20.863281 C 52.507812 20.933594 52.503906 21.003906 52.5 21.078125 C 52.5 21.085938 52.5 21.09375 52.5 21.105469 C 52.496094 21.179688 52.492188 21.253906 52.488281 21.332031 C 52.488281 21.359375 52.484375 21.382812 52.484375 21.410156 C 52.480469 21.472656 52.476562 21.535156 52.472656 21.597656 C 52.472656 21.625 52.46875 21.652344 52.46875 21.683594 C 52.460938 21.761719 52.457031 21.839844 52.449219 21.921875 C 52.449219 21.933594 52.449219 21.945312 52.449219 21.960938 C 52.441406 22.054688 52.433594 22.152344 52.425781 22.25 C 52.421875 22.277344 52.421875 22.304688 52.417969 22.335938 C 52.410156 22.410156 52.40625 22.484375 52.398438 22.5625 C 52.394531 22.59375 52.390625 22.625 52.386719 22.660156 C 52.378906 22.746094 52.371094 22.832031 52.363281 22.921875 C 52.359375 22.941406 52.359375 22.960938 52.355469 22.984375 C 52.34375 23.09375 52.332031 23.203125 52.316406 23.316406 C 52.316406 23.347656 52.3125 23.375 52.308594 23.402344 C 52.296875 23.492188 52.285156 23.578125 52.273438 23.671875 C 52.269531 23.707031 52.265625 23.742188 52.261719 23.78125 C 52.25 23.871094 52.234375 23.96875 52.222656 24.0625 C 52.21875 24.089844 52.214844 24.117188 52.210938 24.148438 C 52.195312 24.269531 52.175781 24.394531 52.15625 24.523438 C 52.152344 24.546875 52.148438 24.570312 52.144531 24.597656 C 52.128906 24.699219 52.113281 24.804688 52.09375 24.910156 C 52.089844 24.949219 52.082031 24.988281 52.078125 25.027344 C 52.058594 25.128906 52.042969 25.230469 52.023438 25.335938 C 52.019531 25.371094 52.011719 25.402344 52.007812 25.4375 C 51.984375 25.574219 51.957031 25.710938 51.929688 25.851562 C 51.929688 25.863281 51.925781 25.878906 51.921875 25.890625 C 51.898438 26.019531 51.875 26.144531 51.847656 26.273438 C 51.839844 26.3125 51.832031 26.351562 51.824219 26.390625 C 51.800781 26.5 51.777344 26.613281 51.753906 26.726562 C 51.746094 26.761719 51.738281 26.800781 51.730469 26.835938 C 51.667969 27.132812 51.597656 27.433594 51.523438 27.738281 C 51.511719 27.777344 51.503906 27.816406 51.492188 27.855469 C 51.464844 27.972656 51.433594 28.09375 51.402344 28.214844 C 51.394531 28.253906 51.382812 28.296875 51.371094 28.335938 C 51.332031 28.488281 51.289062 28.644531 51.246094 28.800781 C 51.246094 28.804688 51.246094 28.804688 51.246094 28.804688 C 51.246094 28.8125 51.242188 28.816406 51.242188 28.824219 C 49.371094 28.453125 47.671875 27.550781 46.308594 26.1875 C 44.949219 24.824219 44.042969 23.128906 43.675781 21.257812 C 43.84375 21.210938 44.011719 21.167969 44.175781 21.121094 C 44.203125 21.117188 44.230469 21.109375 44.257812 21.101562 C 44.402344 21.066406 44.546875 21.027344 44.691406 20.992188 C 44.703125 20.988281 44.71875 20.984375 44.730469 20.984375 C 48.460938 20.070312 51.367188 19.96875 52.527344 19.972656 C 52.527344 19.980469 52.527344 19.984375 52.527344 19.992188 C 52.527344 20.015625 52.527344 20.039062 52.527344 20.0625 Z M 52.527344 20.0625 " fill-opacity="1" fill-rule="nonzero"/></g><path fill="#ffffff" d="M 36 31.1875 C 33.070312 31.1875 30.683594 33.570312 30.683594 36.5 C 30.683594 39.429688 33.070312 41.816406 36 41.816406 C 38.929688 41.816406 41.3125 39.429688 41.3125 36.5 C 41.3125 33.570312 38.929688 31.1875 36 31.1875 Z M 36 40.628906 C 33.722656 40.628906 31.871094 38.777344 31.871094 36.5 C 31.871094 34.222656 33.722656 32.371094 36 32.371094 C 38.273438 32.371094 40.128906 34.222656 40.128906 36.5 C 40.128906 38.777344 38.273438 40.628906 36 40.628906 Z M 36 40.628906 " fill-opacity="1" fill-rule="nonzero"/><path fill="#ffffff" d="M 12.621094 59.878906 C 12.386719 59.648438 12.011719 59.648438 11.78125 59.878906 L 4.335938 67.324219 C 4.105469 67.554688 4.105469 67.929688 4.335938 68.164062 C 4.453125 68.277344 4.605469 68.335938 4.753906 68.335938 C 4.90625 68.335938 5.058594 68.277344 5.175781 68.164062 L 12.621094 60.71875 C 12.851562 60.484375 12.851562 60.109375 12.621094 59.878906 Z M 12.621094 59.878906 " fill-opacity="1" fill-rule="nonzero"/><path fill="#ffffff" d="M 15.476562 62.734375 C 15.246094 62.503906 14.867188 62.503906 14.636719 62.734375 L 9.777344 67.597656 C 9.542969 67.828125 9.542969 68.203125 9.777344 68.433594 C 9.890625 68.550781 10.042969 68.609375 10.195312 68.609375 C 10.347656 68.609375 10.5 68.550781 10.613281 68.433594 L 15.476562 63.574219 C 15.707031 63.34375 15.707031 62.96875 15.476562 62.734375 Z M 15.476562 62.734375 " fill-opacity="1" fill-rule="nonzero"/><path fill="#ffffff" d="M 20.71875 63.207031 C 20.488281 62.976562 20.113281 62.976562 19.878906 63.207031 L 14.785156 68.300781 C 14.554688 68.53125 14.554688 68.910156 14.785156 69.140625 C 14.902344 69.253906 15.050781 69.3125 15.203125 69.3125 C 15.355469 69.3125 15.507812 69.253906 15.625 69.140625 L 20.71875 64.046875 C 20.949219 63.8125 20.949219 63.4375 20.71875 63.207031 Z M 20.71875 63.207031 " fill-opacity="1" fill-rule="nonzero"/><path fill="#ffffff" d="M 9.292969 52.617188 C 9.523438 52.386719 9.523438 52.011719 9.292969 51.78125 C 9.0625 51.546875 8.683594 51.546875 8.453125 51.78125 L 3.359375 56.875 C 3.128906 57.105469 3.128906 57.480469 3.359375 57.714844 C 3.476562 57.828125 3.625 57.886719 3.777344 57.886719 C 3.929688 57.886719 4.082031 57.828125 4.199219 57.714844 Z M 9.292969 52.617188 " fill-opacity="1" fill-rule="nonzero"/><path fill="#ffffff" d="M 4.902344 62.722656 L 9.761719 57.859375 C 9.996094 57.628906 9.996094 57.253906 9.761719 57.023438 C 9.53125 56.789062 9.15625 56.789062 8.925781 57.023438 L 4.0625 61.882812 C 3.832031 62.117188 3.832031 62.492188 4.0625 62.722656 C 4.179688 62.839844 4.332031 62.894531 4.484375 62.894531 C 4.632812 62.894531 4.785156 62.839844 4.902344 62.722656 Z M 4.902344 62.722656 " fill-opacity="1" fill-rule="nonzero"/></svg>