<svg xmlns="http://www.w3.org/2000/svg" xmlns:xlink="http://www.w3.org/1999/xlink" width="82" zoomAndPan="magnify" viewBox="0 0 61.5 73.499996" height="98" preserveAspectRatio="xMidYMid meet" version="1.0"><defs><clipPath id="0b56bb7167"><path d="M 0 9 L 60 9 L 60 63.964844 L 0 63.964844 Z M 0 9 " clip-rule="nonzero"/></clipPath></defs><g clip-path="url(#0b56bb7167)"><path fill="#5271ff" d="M 20.832031 28.628906 C 20.835938 28.644531 20.84375 28.660156 20.847656 28.675781 C 20.847656 28.667969 20.84375 28.660156 20.839844 28.652344 C 20.835938 28.644531 20.832031 28.636719 20.832031 28.628906 Z M 0.773438 56.671875 C 0.675781 56.449219 0.863281 56.894531 0.773438 56.671875 Z M 18.488281 38.859375 C 18.867188 38.804688 17.726562 38.96875 18.488281 38.859375 Z M 58.476562 32.960938 C 57.109375 34.222656 55.460938 35.386719 53.824219 36.265625 C 52.976562 36.722656 51.644531 37.371094 50.691406 36.820312 C 49.699219 37.636719 48.714844 38.457031 47.734375 39.285156 C 46.308594 40.488281 45.566406 42.351562 44.40625 43.820312 C 42.664062 46.03125 40.652344 48.019531 38.507812 49.832031 C 34.550781 53.1875 30.007812 56.21875 25.527344 58.820312 C 23.199219 60.167969 20.789062 61.402344 18.265625 62.34375 C 17.214844 62.734375 12.847656 64.078125 13.8125 61.28125 C 12.484375 62.027344 9.988281 63.886719 8.324219 63.359375 C 6.761719 62.914062 7.148438 60.960938 7.777344 59.898438 C 6.496094 60.589844 4.859375 61.742188 3.320312 61.359375 C 1.675781 60.820312 2.3125 58.683594 3.0625 57.640625 C 2.15625 57.886719 1.160156 57.609375 0.773438 56.671875 C 0.0664062 55.023438 0.960938 53.046875 2.238281 51.976562 C 4.257812 50.515625 6.34375 49.15625 8.339844 47.660156 C 12.011719 44.878906 15.546875 41.875 19.300781 39.210938 C 17.574219 39.464844 15.882812 40.039062 14.324219 40.8125 C 12.921875 41.507812 11.71875 42.558594 10.273438 43.164062 C 8.535156 43.894531 6.394531 44.191406 4.589844 43.519531 C 3.648438 43.167969 2.746094 42.285156 3.492188 41.308594 C 8.199219 36.105469 14.464844 32.097656 21.375 30.664062 C 20.292969 29.839844 19.753906 28.460938 19.769531 27.125 C 19.773438 26.753906 20.125 25.996094 20.058594 25.644531 C 19.988281 25.257812 19.242188 24.644531 19.066406 24.199219 C 18.601562 23.015625 18.636719 21.628906 19.183594 20.480469 C 19.398438 20.027344 19.703125 19.542969 20.125 19.253906 C 19.972656 18.835938 19.878906 18.433594 19.855469 17.984375 C 19.769531 16.3125 20.871094 13.761719 22.871094 13.792969 C 23.089844 12.867188 23.257812 12.050781 23.960938 11.328125 C 24.644531 10.625 26.863281 9.679688 27.558594 10.910156 C 27.402344 10.796875 26.011719 10.625 25.925781 10.636719 C 25.164062 10.746094 24.496094 11.199219 24.042969 11.8125 C 23.484375 12.570312 23.378906 13.355469 23.34375 14.257812 C 21.035156 14.308594 19.875 17.089844 20.753906 19.074219 C 20.992188 19.609375 20.292969 19.894531 19.976562 20.429688 C 19.246094 21.652344 19.230469 23.515625 20.15625 24.65625 C 20.078125 24.410156 19.875 21.292969 20.464844 21.523438 C 20.738281 21.625 20.097656 24.847656 21.007812 25.394531 C 20.921875 25.578125 21.15625 25.9375 21.082031 26 C 20.972656 25.976562 20.882812 25.914062 20.8125 25.8125 C 20.421875 26.6875 20.480469 27.753906 20.832031 28.628906 C 20.785156 28.515625 20.746094 28.425781 20.839844 28.652344 C 20.933594 28.875 20.894531 28.785156 20.847656 28.675781 C 21.164062 29.417969 21.746094 30.113281 22.535156 30.367188 C 21.839844 29.667969 21.410156 28.726562 21.300781 27.753906 C 21.285156 27.554688 21.226562 26.210938 21.46875 26.230469 C 21.507812 26.234375 22.003906 28.796875 22.101562 29.015625 C 22.453125 29.8125 22.632812 30.4375 23.515625 30.453125 C 23.503906 32.171875 24.605469 34.433594 26.699219 33.890625 C 25.796875 33.726562 24.9375 33.140625 24.382812 32.421875 C 24.035156 31.972656 23.761719 31.40625 23.789062 30.828125 C 23.789062 30.808594 23.90625 29.929688 24.09375 30.011719 C 24.050781 29.996094 24.273438 31.445312 24.351562 31.597656 C 24.671875 32.210938 25.195312 32.710938 25.761719 33.097656 C 26.652344 33.707031 26.921875 33.859375 27.738281 33.308594 C 28.847656 35.613281 31.382812 35.769531 32.558594 33.300781 C 34.792969 34.804688 36.789062 32.863281 36.765625 30.433594 C 39.332031 30.386719 40.351562 27.496094 39.25 25.386719 C 41.367188 24.109375 41.25 20.839844 39.296875 19.484375 C 40.277344 17.394531 39.503906 14.394531 36.875 14.339844 C 36.863281 12.042969 34.890625 9.785156 32.636719 11.285156 C 32.269531 10.589844 31.9375 10.003906 31.167969 9.644531 C 30.386719 9.277344 29.492188 9.339844 28.753906 9.769531 C 28.679688 9.8125 27.628906 10.789062 27.570312 10.921875 C 27.570312 10.921875 27.570312 10.917969 27.570312 10.917969 C 27.5625 9.617188 29.683594 8.914062 30.6875 9.097656 C 31.664062 9.25 32.246094 9.875 32.820312 10.605469 C 34.9375 8.972656 37.273438 11.808594 37.507812 13.714844 C 39.34375 13.699219 40.445312 16.03125 40.503906 17.570312 C 40.519531 18.03125 40.050781 19.050781 40.363281 19.339844 C 41.222656 20.140625 41.613281 21.375 41.597656 22.527344 C 43.433594 21.203125 45.414062 19.695312 47.789062 19.855469 C 50.304688 20.023438 52.71875 21.324219 54.691406 22.816406 C 57.1875 24.707031 62.1875 29.925781 58.476562 32.960938 Z M 30.332031 36.082031 C 31.058594 37.554688 31.640625 39.105469 32.25 40.628906 C 32.660156 41.660156 33.066406 42.695312 33.46875 43.730469 C 33.699219 44.328125 33.925781 45.570312 34.367188 46.027344 C 34.425781 45.46875 34.597656 44.910156 34.71875 44.363281 C 34.171875 44.082031 33.75 42.878906 33.5 42.351562 C 33.3125 41.953125 31.445312 37.398438 31.808594 37.265625 C 31.929688 37.222656 34.566406 43.585938 34.742188 44.265625 C 34.976562 43.195312 35.210938 42.121094 35.445312 41.050781 C 36.75 41.839844 38.234375 42.542969 39.433594 43.484375 C 39.214844 41.863281 38.230469 40.074219 37.695312 38.523438 C 37.179688 37.027344 36.632812 35.53125 36.230469 34 C 35.324219 34.789062 34.007812 35.074219 32.894531 34.550781 C 32.449219 35.441406 31.285156 36.027344 30.332031 36.082031 Z M 24.074219 33.988281 C 23.671875 35.523438 23.121094 37.023438 22.605469 38.523438 C 22.070312 40.074219 21.089844 41.863281 20.867188 43.480469 C 21.605469 42.902344 21.773438 42.984375 21.984375 42.101562 C 22.164062 41.332031 22.398438 40.578125 22.660156 39.839844 C 22.757812 39.566406 24.371094 35.621094 24.710938 35.878906 C 24.875 36 22.320312 42.082031 22.027344 42.761719 C 22.96875 42.191406 23.910156 41.621094 24.851562 41.050781 C 25.210938 42.667969 25.566406 44.285156 25.917969 45.90625 C 25.933594 45.964844 25.925781 45.964844 25.933594 46.027344 C 26.484375 45.460938 26.761719 43.917969 27.050781 43.175781 C 27.378906 42.324219 27.714844 41.476562 28.050781 40.628906 C 28.660156 39.105469 29.242188 37.554688 29.96875 36.078125 C 28.929688 36.019531 27.960938 35.417969 27.40625 34.542969 C 26.296875 35.070312 24.980469 34.78125 24.074219 33.988281 Z M 21.011719 38.832031 C 21.949219 38.882812 21.851562 38.738281 22.207031 37.851562 C 22.460938 37.21875 22.71875 36.589844 22.980469 35.957031 C 23.203125 35.417969 23.433594 34.882812 23.675781 34.347656 C 23.988281 33.65625 23.675781 33.683594 23.289062 33.046875 C 22.957031 32.492188 22.773438 31.886719 22.707031 31.25 C 22.308594 31.207031 21.910156 31.023438 21.582031 30.808594 C 20.941406 31.066406 20.285156 31.28125 19.636719 31.511719 C 18.191406 32.03125 16.796875 32.535156 15.433594 33.253906 C 12.34375 34.890625 9.335938 36.894531 6.75 39.261719 C 6.1875 39.78125 3.335938 41.882812 4.484375 42.511719 C 5.90625 43.367188 7.996094 43.09375 9.480469 42.597656 C 10.953125 42.105469 12.152344 41.109375 13.53125 40.425781 C 15.085938 39.652344 16.765625 39.105469 18.488281 38.859375 C 19.367188 38.734375 20.132812 38.78125 21.011719 38.832031 Z M 51.070312 34.429688 C 50.121094 32.175781 47.695312 30.347656 45.78125 28.945312 C 44.160156 27.757812 42.363281 26.585938 40.410156 26.035156 C 40.964844 28.082031 39.910156 30.886719 37.609375 31.265625 C 37.542969 32.066406 37.226562 32.847656 36.730469 33.476562 C 36.160156 34.199219 37.183594 35.625 37.535156 36.476562 C 38.75 39.429688 39.894531 42.410156 41.023438 45.398438 C 39.457031 44.464844 37.78125 43.464844 36.035156 42.425781 C 35.5625 44.613281 35.058594 46.792969 34.570312 48.976562 C 33.027344 44.769531 31.300781 40.535156 30.148438 36.199219 C 29 40.535156 27.273438 44.769531 25.730469 48.976562 C 25.238281 46.792969 24.738281 44.613281 24.261719 42.425781 C 22.519531 43.464844 20.84375 44.464844 19.277344 45.398438 C 20.082031 43.277344 20.890625 41.160156 21.726562 39.050781 C 21.015625 39.132812 20.296875 39.097656 19.589844 39.171875 C 19.160156 39.226562 18.21875 40.488281 17.867188 40.804688 C 15.945312 42.53125 13.960938 44.183594 11.960938 45.820312 C 9.949219 47.488281 7.839844 49.046875 5.738281 50.605469 C 4.117188 51.804688 1.929688 52.636719 1.488281 54.820312 C 1.503906 54.734375 1.519531 54.65625 1.488281 54.828125 C 1.453125 54.996094 1.46875 54.921875 1.484375 54.835938 C 1.09375 56.824219 2.484375 57.195312 3.9375 56.328125 C 5.933594 55.144531 7.929688 53.957031 9.890625 52.714844 C 10.554688 52.292969 18.066406 46.890625 18.046875 46.871094 C 18.582031 47.398438 9.886719 53.582031 9.128906 54.078125 C 7.449219 55.175781 5.726562 56.449219 3.914062 57.316406 C 3.164062 57.671875 2.441406 59.65625 3.027344 60.382812 C 3.957031 61.539062 6.398438 59.726562 7.324219 59.203125 C 9.515625 57.960938 11.703125 56.707031 13.863281 55.410156 C 14.648438 54.941406 23.25 49.203125 23.367188 49.332031 C 23.757812 49.738281 16.40625 54.8125 15.765625 55.222656 C 13.769531 56.5 11.722656 57.6875 9.664062 58.859375 C 8.792969 59.355469 8.3125 59.578125 7.980469 60.566406 C 7.832031 61.03125 7.628906 61.824219 7.929688 62.273438 C 8.929688 63.722656 12.257812 61.195312 13.28125 60.605469 C 15.320312 59.429688 17.316406 58.179688 19.285156 56.890625 C 19.964844 56.445312 27.558594 50.980469 27.726562 51.179688 C 28.289062 51.847656 16.617188 59.640625 15.519531 60.292969 C 14.984375 60.613281 14.121094 60.847656 14.035156 61.535156 C 13.96875 62.050781 14.25 62.496094 14.738281 62.648438 C 15.789062 62.976562 17.128906 62.226562 18.070312 61.839844 C 20.695312 60.761719 23.199219 59.390625 25.617188 57.90625 C 30.285156 55.046875 35.074219 51.800781 39.136719 48.125 C 41.257812 46.207031 43.800781 44.039062 44.652344 41.230469 C 45.039062 39.960938 45.191406 38.636719 45.175781 37.3125 C 45.171875 37.058594 44.894531 35.109375 45.128906 35.027344 C 46.046875 34.691406 45.84375 40.042969 45.761719 40.40625 C 46.5 39.199219 47.300781 38.578125 48.4375 37.652344 C 49.328125 36.925781 51.667969 35.867188 51.070312 34.429688 Z M 56.777344 25.957031 C 54.652344 23.476562 51.53125 21.210938 48.257812 20.632812 C 46.765625 20.363281 45.65625 20.695312 44.347656 21.355469 C 43.550781 21.757812 42.773438 22.199219 41.96875 22.589844 C 41.351562 22.886719 41.507812 23.613281 41.257812 24.242188 C 41.304688 24.128906 41.371094 23.960938 41.253906 24.25 C 41.207031 24.367188 41.222656 24.324219 41.253906 24.253906 C 41.089844 24.636719 39.757812 25.769531 40.613281 25.914062 C 42.6875 26.25 44.683594 27.53125 46.375 28.714844 C 48.445312 30.160156 54.027344 34.09375 50.863281 36.679688 C 52.613281 37.042969 52.917969 34.996094 52.632812 33.710938 C 52.542969 33.320312 50.605469 29.441406 50.5625 29.472656 C 51 29.15625 52.863281 32.902344 52.953125 33.21875 C 53.273438 34.324219 53.183594 35.570312 52.375 36.445312 C 54.328125 35.644531 56.46875 33.941406 57.941406 32.414062 C 59.902344 30.382812 58.320312 27.753906 56.777344 25.957031 Z M 27.570312 10.917969 C 27.566406 10.914062 27.5625 10.910156 27.558594 10.910156 C 27.5625 10.914062 27.566406 10.917969 27.566406 10.921875 C 27.566406 10.921875 27.570312 10.917969 27.570312 10.917969 Z M 34.742188 44.265625 C 34.871094 43.664062 34.726562 44.214844 34.742188 44.265625 Z M 58.476562 32.960938 C 58.46875 32.964844 58.464844 32.96875 58.460938 32.972656 C 58.46875 32.972656 58.472656 32.96875 58.476562 32.960938 Z M 1.488281 54.828125 C 1.484375 54.828125 1.484375 54.832031 1.484375 54.835938 C 1.488281 54.832031 1.488281 54.824219 1.488281 54.820312 C 1.488281 54.820312 1.488281 54.824219 1.488281 54.828125 Z M 22.601562 25.402344 C 22.386719 24.621094 22.8125 26.183594 22.601562 25.402344 Z M 23.976562 16.6875 C 22.261719 19.1875 21.796875 22.496094 22.601562 25.402344 C 23.421875 28.460938 25.773438 31.246094 29.007812 31.800781 C 32.417969 32.386719 35.527344 30.230469 36.996094 27.257812 C 38.484375 24.242188 38.445312 20.480469 36.835938 17.523438 C 36.148438 16.261719 35.171875 15.140625 33.953125 14.367188 C 33.726562 14.226562 30.148438 12.816406 30.148438 13.417969 C 30.148438 13.398438 32.328125 13.988281 32.484375 14.058594 C 33.363281 14.449219 34.148438 15.023438 34.8125 15.71875 C 36.402344 17.394531 37.234375 19.683594 37.3125 21.972656 C 37.457031 26.125 34.785156 31.007812 30.148438 31.027344 C 25.515625 31.007812 22.84375 26.125 22.988281 21.972656 C 23.058594 19.851562 23.777344 17.730469 25.152344 16.097656 C 25.785156 15.34375 26.550781 14.703125 27.425781 14.246094 C 27.664062 14.125 30.148438 13.363281 30.148438 13.414062 C 30.148438 13.019531 27.429688 13.808594 27.25 13.886719 C 25.914062 14.476562 24.796875 15.492188 23.976562 16.6875 Z M 29.238281 25.15625 C 28.863281 25.203125 27.214844 22.683594 26.800781 23.054688 C 26.484375 23.339844 29.070312 26.191406 29.382812 26.550781 C 29.738281 25.949219 33.617188 19.671875 33.066406 19.355469 C 32.582031 19.074219 29.632812 24.429688 29.394531 24.851562 C 29.347656 24.933594 29.261719 25.054688 29.238281 25.15625 Z M 28.480469 29.265625 C 28.640625 29.371094 28.710938 29.421875 28.257812 29.113281 C 28.140625 29.03125 28.136719 29.027344 28.183594 29.058594 C 26.503906 27.855469 25.3125 26.230469 24.886719 24.1875 C 24.800781 23.777344 24.625 19.199219 24.710938 19.210938 C 24.519531 19.179688 24.324219 21.457031 24.316406 21.609375 C 24.238281 23.039062 24.378906 24.507812 24.9375 25.835938 C 25.433594 27.019531 26.25 28.027344 27.265625 28.808594 C 27.441406 28.941406 29.777344 30.417969 29.878906 30.167969 C 29.910156 30.109375 29.335938 29.832031 28.480469 29.265625 Z M 28.480469 29.265625 C 28.378906 29.191406 28.242188 29.097656 28.183594 29.058594 C 28.207031 29.078125 28.230469 29.09375 28.257812 29.113281 C 28.335938 29.164062 28.410156 29.214844 28.480469 29.265625 Z M 26.582031 26.632812 C 26.636719 26.71875 26.625 26.695312 26.601562 26.65625 C 26.820312 26.960938 28.378906 28.636719 28.644531 28.316406 C 28.582031 28.394531 26.332031 25.460938 26.332031 25.460938 C 26.046875 25.457031 26.480469 26.441406 26.574219 26.613281 C 26.546875 26.570312 26.53125 26.546875 26.582031 26.632812 Z M 23.699219 39.886719 C 23.644531 39.960938 23.65625 39.945312 23.683594 39.914062 C 23.511719 40.179688 22.769531 41.777344 23.167969 41.898438 C 23.386719 41.960938 24.203125 39.785156 24.015625 39.660156 C 23.878906 39.679688 23.773438 39.753906 23.699219 39.886719 Z M 33.941406 39.980469 C 33.9375 39.980469 33.9375 39.980469 33.941406 39.980469 Z M 34.003906 39.953125 Z M 34.742188 41.664062 C 35.003906 41.503906 34.230469 39.851562 33.972656 39.96875 C 33.984375 39.960938 34 39.957031 34.003906 39.953125 C 34 39.953125 33.992188 39.957031 33.972656 39.96875 C 33.953125 39.976562 33.941406 39.980469 33.941406 39.980469 C 33.945312 39.980469 33.957031 39.972656 33.972656 39.96875 C 33.628906 40.117188 34.464844 41.839844 34.742188 41.664062 Z M 53.261719 30.398438 C 53.152344 30.46875 53.597656 31.371094 53.632812 31.472656 C 53.714844 31.707031 54.160156 35.371094 54.035156 35.335938 C 55.003906 35.601562 54.089844 29.847656 53.261719 30.398438 Z M 53.261719 30.398438 " fill-opacity="1" fill-rule="nonzero"/></g></svg>