<svg xmlns="http://www.w3.org/2000/svg" xmlns:xlink="http://www.w3.org/1999/xlink" width="94" zoomAndPan="magnify" viewBox="0 0 70.5 62.249996" height="83" preserveAspectRatio="xMidYMid meet" version="1.0"><defs><clipPath id="abeb4ee96c"><path d="M 5.09375 2.9375 L 65.121094 2.9375 L 65.121094 58.519531 L 5.09375 58.519531 Z M 5.09375 2.9375 " clip-rule="nonzero"/></clipPath><clipPath id="e9c3d90099"><path d="M 27.144531 57.386719 C 27.109375 57.519531 26.992188 57.609375 26.859375 57.609375 C 26.832031 57.609375 26.808594 57.605469 26.78125 57.597656 C 25.820312 57.347656 24.859375 57.042969 23.929688 56.691406 C 23.777344 56.632812 23.699219 56.464844 23.757812 56.308594 C 23.816406 56.15625 23.988281 56.078125 24.140625 56.136719 C 25.050781 56.480469 25.992188 56.777344 26.933594 57.023438 C 27.09375 57.066406 27.1875 57.230469 27.144531 57.386719 Z M 32.71875 57.90625 C 31.746094 57.859375 30.765625 57.761719 29.804688 57.617188 C 29.640625 57.59375 29.488281 57.703125 29.464844 57.863281 C 29.4375 58.027344 29.550781 58.179688 29.714844 58.203125 C 30.695312 58.351562 31.695312 58.453125 32.691406 58.5 C 32.695312 58.5 32.699219 58.5 32.707031 58.5 C 32.863281 58.5 32.996094 58.378906 33.003906 58.21875 C 33.011719 58.054688 32.882812 57.914062 32.71875 57.90625 Z M 49.425781 53.417969 C 48.609375 53.945312 47.757812 54.4375 46.890625 54.878906 C 46.746094 54.953125 46.6875 55.132812 46.761719 55.28125 C 46.816406 55.382812 46.917969 55.441406 47.027344 55.441406 C 47.074219 55.441406 47.121094 55.429688 47.164062 55.410156 C 48.046875 54.957031 48.917969 54.457031 49.753906 53.914062 C 49.890625 53.824219 49.929688 53.640625 49.839844 53.503906 C 49.75 53.367188 49.566406 53.328125 49.425781 53.417969 Z M 44.214844 56.070312 C 43.308594 56.421875 42.371094 56.726562 41.429688 56.976562 C 41.273438 57.019531 41.179688 57.183594 41.222656 57.339844 C 41.257812 57.472656 41.378906 57.5625 41.507812 57.5625 C 41.535156 57.5625 41.5625 57.558594 41.585938 57.550781 C 42.546875 57.292969 43.503906 56.980469 44.429688 56.625 C 44.585938 56.566406 44.660156 56.394531 44.601562 56.242188 C 44.542969 56.089844 44.371094 56.011719 44.214844 56.070312 Z M 38.566406 57.585938 C 37.605469 57.742188 36.625 57.84375 35.652344 57.898438 C 35.488281 57.90625 35.363281 58.046875 35.371094 58.210938 C 35.378906 58.367188 35.511719 58.492188 35.667969 58.492188 C 35.671875 58.492188 35.679688 58.492188 35.683594 58.492188 C 36.679688 58.4375 37.679688 58.332031 38.660156 58.175781 C 38.824219 58.148438 38.933594 57.996094 38.90625 57.835938 C 38.882812 57.671875 38.726562 57.5625 38.566406 57.585938 Z M 21.457031 54.964844 C 20.589844 54.527344 19.734375 54.042969 18.914062 53.515625 C 18.773438 53.429688 18.589844 53.46875 18.5 53.605469 C 18.414062 53.746094 18.453125 53.929688 18.589844 54.015625 C 19.429688 54.550781 20.304688 55.050781 21.191406 55.492188 C 21.234375 55.515625 21.28125 55.527344 21.324219 55.527344 C 21.433594 55.527344 21.539062 55.464844 21.589844 55.363281 C 21.664062 55.214844 21.605469 55.035156 21.457031 54.964844 Z M 61.820312 25.140625 C 61.847656 25.285156 61.972656 25.386719 62.117188 25.386719 C 62.132812 25.386719 62.148438 25.386719 62.167969 25.382812 C 62.328125 25.355469 62.4375 25.199219 62.410156 25.039062 C 62.203125 23.851562 61.921875 22.667969 61.566406 21.519531 C 61.519531 21.363281 61.351562 21.273438 61.195312 21.324219 C 61.035156 21.371094 60.949219 21.535156 60.996094 21.695312 C 61.34375 22.820312 61.621094 23.976562 61.820312 25.140625 Z M 59.738281 18.378906 C 59.789062 18.488281 59.894531 18.554688 60.011719 18.554688 C 60.050781 18.554688 60.09375 18.546875 60.132812 18.527344 C 60.28125 18.460938 60.347656 18.285156 60.28125 18.136719 C 59.785156 17.039062 59.210938 15.964844 58.574219 14.941406 C 58.488281 14.800781 58.304688 14.757812 58.164062 14.84375 C 58.023438 14.929688 57.980469 15.113281 58.066406 15.25 C 58.6875 16.253906 59.25 17.308594 59.738281 18.378906 Z M 56.011719 12.359375 C 56.070312 12.429688 56.160156 12.46875 56.246094 12.46875 C 56.3125 12.46875 56.378906 12.445312 56.433594 12.402344 C 56.5625 12.300781 56.582031 12.113281 56.476562 11.984375 C 55.71875 11.050781 54.894531 10.152344 54.023438 9.316406 C 53.90625 9.203125 53.714844 9.207031 53.601562 9.324219 C 53.488281 9.441406 53.492188 9.628906 53.609375 9.742188 C 54.460938 10.5625 55.269531 11.441406 56.011719 12.359375 Z M 47.914062 5.515625 C 48.941406 6.09375 49.945312 6.746094 50.894531 7.449219 C 50.949219 7.488281 51.011719 7.507812 51.074219 7.507812 C 51.164062 7.507812 51.253906 7.46875 51.3125 7.390625 C 51.410156 7.257812 51.382812 7.070312 51.253906 6.972656 C 50.28125 6.253906 49.257812 5.589844 48.207031 4.996094 C 48.0625 4.917969 47.882812 4.96875 47.800781 5.109375 C 47.71875 5.253906 47.769531 5.433594 47.914062 5.515625 Z M 13.316406 10.890625 C 13.394531 10.890625 13.476562 10.859375 13.535156 10.796875 C 14.285156 9.996094 15.089844 9.234375 15.925781 8.527344 C 16.054688 8.421875 16.070312 8.234375 15.960938 8.109375 C 15.855469 7.984375 15.667969 7.96875 15.542969 8.074219 C 14.6875 8.796875 13.863281 9.574219 13.097656 10.390625 C 12.984375 10.511719 12.992188 10.699219 13.113281 10.8125 C 13.171875 10.863281 13.242188 10.890625 13.316406 10.890625 Z M 6.6875 22.339844 C 6.714844 22.351562 6.742188 22.351562 6.769531 22.351562 C 6.898438 22.351562 7.019531 22.269531 7.058594 22.136719 C 7.363281 21.089844 7.734375 20.042969 8.160156 19.035156 C 8.222656 18.886719 8.152344 18.710938 8 18.648438 C 7.847656 18.582031 7.675781 18.65625 7.609375 18.804688 C 7.171875 19.835938 6.792969 20.902344 6.484375 21.972656 C 6.4375 22.132812 6.53125 22.296875 6.6875 22.339844 Z M 5.675781 28.902344 C 5.679688 28.902344 5.683594 28.902344 5.6875 28.902344 C 5.847656 28.902344 5.980469 28.78125 5.988281 28.621094 C 6.035156 27.527344 6.152344 26.425781 6.328125 25.347656 C 6.355469 25.1875 6.246094 25.035156 6.085938 25.007812 C 5.921875 24.980469 5.769531 25.089844 5.742188 25.253906 C 5.558594 26.351562 5.441406 27.476562 5.390625 28.59375 C 5.382812 28.757812 5.511719 28.894531 5.675781 28.902344 Z M 18.40625 6.605469 C 18.460938 6.605469 18.519531 6.589844 18.570312 6.554688 C 19.484375 5.949219 20.445312 5.394531 21.425781 4.902344 C 21.574219 4.828125 21.632812 4.648438 21.558594 4.503906 C 21.484375 4.355469 21.304688 4.296875 21.15625 4.371094 C 20.15625 4.875 19.175781 5.441406 18.238281 6.058594 C 18.101562 6.148438 18.066406 6.335938 18.15625 6.472656 C 18.214844 6.558594 18.308594 6.605469 18.40625 6.605469 Z M 9.214844 16.199219 C 9.261719 16.222656 9.3125 16.238281 9.363281 16.238281 C 9.464844 16.238281 9.566406 16.183594 9.621094 16.085938 C 10.164062 15.136719 10.769531 14.210938 11.421875 13.328125 C 11.519531 13.195312 11.492188 13.007812 11.359375 12.914062 C 11.226562 12.816406 11.039062 12.84375 10.941406 12.976562 C 10.277344 13.875 9.65625 14.824219 9.105469 15.792969 C 9.023438 15.933594 9.074219 16.117188 9.214844 16.199219 Z M 29.183594 49.324219 C 29.183594 49.597656 29.125 49.855469 29.019531 50.09375 C 28.722656 50.761719 28.050781 51.230469 27.273438 51.230469 L 10.46875 51.230469 C 9.414062 51.230469 8.554688 50.375 8.554688 49.324219 L 8.554688 40.464844 C 6.507812 39.476562 5.09375 37.386719 5.09375 34.976562 C 5.09375 31.613281 7.839844 28.878906 11.214844 28.878906 C 11.917969 28.878906 12.597656 29 13.230469 29.222656 C 13.6875 29.382812 14.117188 29.59375 14.519531 29.851562 C 14.851562 29.1875 15.5 28.738281 16.246094 28.738281 C 17.324219 28.738281 18.203125 29.679688 18.207031 30.839844 L 22.214844 30.839844 C 22.21875 29.679688 23.097656 28.738281 24.175781 28.738281 C 25.253906 28.738281 26.132812 29.679688 26.136719 30.839844 L 27.273438 30.839844 C 28.328125 30.839844 29.183594 31.695312 29.183594 32.746094 Z M 28.589844 49.324219 L 28.589844 35.273438 L 17.324219 35.273438 C 17.167969 38.496094 14.488281 41.070312 11.214844 41.070312 C 10.492188 41.070312 9.796875 40.941406 9.152344 40.710938 L 9.152344 49.324219 C 9.152344 50.046875 9.742188 50.636719 10.46875 50.636719 L 27.273438 50.636719 C 27.996094 50.636719 28.589844 50.046875 28.589844 49.324219 Z M 27.273438 31.433594 L 25.898438 31.433594 C 25.878906 31.4375 25.859375 31.441406 25.835938 31.441406 C 25.816406 31.441406 25.796875 31.4375 25.777344 31.433594 L 22.8125 31.433594 L 22.8125 32.957031 L 24.179688 32.957031 C 24.34375 32.957031 24.476562 33.089844 24.476562 33.253906 C 24.476562 33.417969 24.34375 33.550781 24.179688 33.550781 L 20.847656 33.550781 C 20.683594 33.550781 20.550781 33.417969 20.550781 33.253906 C 20.550781 33.089844 20.683594 32.957031 20.847656 32.957031 L 22.214844 32.957031 L 22.214844 31.433594 L 17.972656 31.433594 C 17.949219 31.4375 17.929688 31.441406 17.910156 31.441406 C 17.886719 31.441406 17.867188 31.4375 17.847656 31.433594 L 16.191406 31.433594 C 16.855469 32.359375 17.265625 33.472656 17.324219 34.675781 L 28.589844 34.675781 L 28.589844 32.746094 C 28.589844 32.023438 27.996094 31.433594 27.273438 31.433594 Z M 11.214844 29.472656 C 8.167969 29.472656 5.6875 31.941406 5.6875 34.972656 C 5.6875 38.007812 8.167969 40.472656 11.214844 40.472656 C 14.257812 40.472656 16.738281 38.007812 16.738281 34.972656 C 16.738281 31.941406 14.257812 29.472656 11.214844 29.472656 Z M 22.8125 30.839844 L 25.539062 30.839844 C 25.535156 30.007812 24.925781 29.332031 24.175781 29.332031 C 23.425781 29.332031 22.816406 30.007812 22.8125 30.839844 Z M 15.015625 30.203125 C 15.261719 30.398438 15.492188 30.609375 15.703125 30.839844 L 17.609375 30.839844 C 17.605469 30.007812 16.996094 29.332031 16.246094 29.332031 C 15.703125 29.332031 15.234375 29.6875 15.015625 30.203125 Z M 14.347656 43.835938 C 14.425781 43.835938 14.503906 43.808594 14.558594 43.75 L 16.242188 42.054688 C 16.355469 41.9375 16.355469 41.75 16.238281 41.636719 C 16.121094 41.519531 15.933594 41.519531 15.816406 41.636719 L 14.34375 43.121094 L 13.464844 42.253906 C 13.347656 42.136719 13.160156 42.140625 13.042969 42.257812 C 12.929688 42.371094 12.929688 42.5625 13.046875 42.675781 L 14.136719 43.75 C 14.195312 43.808594 14.273438 43.835938 14.347656 43.835938 Z M 22.285156 43.75 C 22.34375 43.808594 22.421875 43.835938 22.496094 43.835938 C 22.574219 43.835938 22.648438 43.808594 22.707031 43.75 L 24.390625 42.054688 C 24.503906 41.9375 24.503906 41.75 24.386719 41.636719 C 24.269531 41.519531 24.082031 41.519531 23.964844 41.636719 L 22.492188 43.121094 L 21.613281 42.253906 C 21.496094 42.136719 21.308594 42.140625 21.191406 42.257812 C 21.074219 42.375 21.078125 42.5625 21.195312 42.675781 Z M 24.386719 45.898438 C 24.269531 45.785156 24.082031 45.785156 23.964844 45.902344 L 22.492188 47.382812 L 21.613281 46.519531 C 21.496094 46.402344 21.308594 46.402344 21.191406 46.519531 C 21.074219 46.636719 21.078125 46.824219 21.195312 46.941406 L 22.285156 48.015625 C 22.34375 48.070312 22.421875 48.101562 22.496094 48.101562 C 22.574219 48.101562 22.648438 48.070312 22.707031 48.011719 L 24.390625 46.320312 C 24.503906 46.203125 24.503906 46.015625 24.386719 45.898438 Z M 16.488281 46.957031 C 16.488281 47.839844 15.765625 48.5625 14.875 48.5625 C 13.988281 48.5625 13.265625 47.839844 13.265625 46.957031 C 13.265625 46.074219 13.988281 45.351562 14.875 45.351562 C 15.765625 45.351562 16.488281 46.074219 16.488281 46.957031 Z M 14.875 47.96875 C 15.433594 47.96875 15.890625 47.515625 15.890625 46.957031 C 15.890625 46.398438 15.433594 45.945312 14.875 45.945312 C 14.316406 45.945312 13.863281 46.398438 13.863281 46.957031 C 13.863281 47.515625 14.316406 47.96875 14.875 47.96875 Z M 21.40625 38.464844 C 21.40625 37.582031 22.128906 36.863281 23.019531 36.863281 C 23.90625 36.863281 24.628906 37.582031 24.628906 38.464844 C 24.628906 39.351562 23.90625 40.070312 23.019531 40.070312 C 22.128906 40.070312 21.40625 39.351562 21.40625 38.464844 Z M 22.003906 38.464844 C 22.003906 39.023438 22.457031 39.476562 23.019531 39.476562 C 23.578125 39.476562 24.03125 39.023438 24.03125 38.464844 C 24.03125 37.910156 23.578125 37.457031 23.019531 37.457031 C 22.457031 37.457031 22.003906 37.910156 22.003906 38.464844 Z M 13.074219 35.109375 L 11.511719 35.105469 L 11.523438 31.515625 C 11.523438 31.351562 11.390625 31.21875 11.226562 31.21875 C 11.058594 31.210938 10.925781 31.347656 10.925781 31.511719 L 10.914062 35.402344 C 10.914062 35.480469 10.945312 35.554688 11 35.613281 C 11.058594 35.667969 11.132812 35.699219 11.210938 35.699219 L 13.070312 35.703125 C 13.070312 35.703125 13.074219 35.703125 13.074219 35.703125 C 13.238281 35.703125 13.371094 35.574219 13.371094 35.410156 C 13.371094 35.246094 13.238281 35.109375 13.074219 35.109375 Z M 41.296875 23.875 L 23.65625 23.875 C 22.703125 23.875 21.929688 23.101562 21.929688 22.152344 L 21.929688 14.835938 C 21.929688 13.550781 22.976562 12.507812 24.269531 12.507812 L 32.433594 12.507812 C 33.207031 12.507812 33.90625 12.964844 34.210938 13.671875 C 34.277344 13.832031 34.3125 14.015625 34.3125 14.210938 L 34.3125 15.246094 C 34.457031 15.183594 34.617188 15.148438 34.777344 15.148438 L 44.8125 15.148438 C 45.234375 15.148438 45.617188 15.367188 45.832031 15.730469 C 46.050781 16.09375 46.054688 16.53125 45.851562 16.898438 L 42.339844 23.261719 C 42.128906 23.640625 41.730469 23.875 41.296875 23.875 Z M 23.65625 23.28125 L 31.71875 23.28125 C 32.511719 23.28125 33.15625 22.636719 33.15625 21.847656 C 33.15625 21.058594 32.511719 20.417969 31.71875 20.417969 L 25.492188 20.417969 C 25.328125 20.417969 25.195312 20.285156 25.195312 20.121094 C 25.195312 19.957031 25.328125 19.824219 25.492188 19.824219 L 31.320312 19.824219 L 33.714844 15.792969 L 33.714844 14.210938 C 33.714844 14.09375 33.699219 13.992188 33.660156 13.90625 C 33.449219 13.417969 32.96875 13.101562 32.433594 13.101562 L 24.269531 13.101562 C 23.308594 13.101562 22.523438 13.878906 22.523438 14.835938 L 22.523438 22.152344 C 22.523438 22.773438 23.03125 23.28125 23.65625 23.28125 Z M 33.15625 23.28125 L 41.296875 23.28125 C 41.511719 23.28125 41.710938 23.164062 41.816406 22.976562 L 45.328125 16.613281 C 45.429688 16.429688 45.425781 16.210938 45.320312 16.03125 C 45.210938 15.851562 45.023438 15.742188 44.8125 15.742188 L 34.777344 15.742188 C 34.570312 15.742188 34.375 15.855469 34.269531 16.03125 L 32 19.84375 C 32.988281 19.980469 33.753906 20.828125 33.753906 21.847656 C 33.753906 22.40625 33.523438 22.914062 33.15625 23.28125 Z M 28.148438 10.863281 C 27.582031 10.863281 27.046875 10.746094 26.558594 10.53125 C 25.15625 9.921875 24.171875 8.527344 24.171875 6.910156 C 24.171875 4.726562 25.957031 2.953125 28.148438 2.953125 C 30.335938 2.953125 32.121094 4.726562 32.121094 6.910156 C 32.121094 7.820312 31.804688 8.65625 31.285156 9.324219 C 30.558594 10.257812 29.421875 10.863281 28.148438 10.863281 Z M 24.769531 6.910156 C 24.769531 8.761719 26.285156 10.269531 28.148438 10.269531 C 30.007812 10.269531 31.523438 8.761719 31.523438 6.910156 C 31.523438 5.054688 30.007812 3.546875 28.148438 3.546875 C 26.285156 3.546875 24.769531 5.054688 24.769531 6.910156 Z M 36.625 10.15625 L 36.625 4.472656 C 36.625 3.859375 37.128906 3.359375 37.746094 3.359375 L 43.453125 3.359375 C 44.070312 3.359375 44.570312 3.859375 44.570312 4.472656 L 44.570312 10.15625 C 44.570312 10.773438 44.070312 11.269531 43.453125 11.269531 L 37.746094 11.269531 C 37.128906 11.269531 36.625 10.773438 36.625 10.15625 Z M 37.222656 4.472656 L 37.222656 10.15625 C 37.222656 10.445312 37.457031 10.675781 37.746094 10.675781 L 43.453125 10.675781 C 43.742188 10.675781 43.976562 10.445312 43.976562 10.15625 L 43.976562 4.472656 C 43.976562 4.1875 43.742188 3.953125 43.453125 3.953125 L 37.746094 3.953125 C 37.457031 3.953125 37.222656 4.1875 37.222656 4.472656 Z M 40.339844 9.496094 C 40.394531 9.589844 40.492188 9.644531 40.597656 9.644531 C 40.707031 9.644531 40.804688 9.589844 40.855469 9.496094 L 43.101562 5.636719 C 43.183594 5.492188 43.136719 5.3125 42.992188 5.230469 C 42.851562 5.148438 42.667969 5.195312 42.585938 5.335938 L 40.597656 8.753906 L 38.609375 5.335938 C 38.527344 5.195312 38.347656 5.148438 38.203125 5.230469 C 38.0625 5.3125 38.011719 5.492188 38.09375 5.636719 Z M 65.121094 35.574219 L 65.121094 39.390625 C 65.121094 40.433594 64.265625 41.285156 63.21875 41.285156 L 59.160156 41.285156 C 58.113281 41.285156 57.257812 40.433594 57.257812 39.390625 L 57.257812 35.574219 C 57.257812 34.53125 58.113281 33.679688 59.160156 33.679688 L 61.160156 33.679688 L 61.160156 31.105469 C 61.160156 29.21875 59.726562 27.65625 57.855469 27.359375 L 57.855469 28.917969 C 57.855469 29.960938 57.003906 30.8125 55.953125 30.8125 L 51.898438 30.8125 C 50.847656 30.8125 49.996094 29.960938 49.996094 28.917969 L 49.996094 27.375 C 48.167969 27.707031 46.78125 29.25 46.78125 31.105469 L 46.78125 33.105469 C 49.046875 33.21875 50.867188 35.046875 50.957031 37.308594 C 51.78125 37.574219 52.492188 38.074219 53.011719 38.726562 C 53.570312 39.425781 53.90625 40.300781 53.90625 41.25 L 53.90625 43.503906 L 55.953125 43.503906 C 57.003906 43.503906 57.855469 44.355469 57.855469 45.402344 L 57.855469 49.214844 C 57.855469 50.261719 57.003906 51.109375 55.953125 51.109375 L 51.898438 51.109375 C 50.847656 51.109375 49.996094 50.261719 49.996094 49.214844 L 49.996094 45.402344 C 49.996094 44.355469 50.847656 43.503906 51.898438 43.503906 L 53.308594 43.503906 L 53.308594 41.25 C 53.308594 40.542969 53.089844 39.882812 52.714844 39.328125 C 52.292969 38.699219 51.671875 38.207031 50.9375 37.933594 C 50.710938 40.140625 48.832031 41.863281 46.558594 41.863281 C 44.285156 41.863281 42.40625 40.140625 42.179688 37.933594 C 40.796875 38.449219 39.808594 39.738281 39.808594 41.25 L 39.808594 43.503906 L 41.703125 43.503906 C 42.753906 43.503906 43.605469 44.355469 43.605469 45.402344 L 43.605469 49.214844 C 43.605469 50.261719 42.753906 51.109375 41.703125 51.109375 L 37.648438 51.109375 C 37.140625 51.109375 36.683594 50.914062 36.34375 50.589844 C 35.976562 50.246094 35.746094 49.757812 35.746094 49.214844 L 35.746094 45.402344 C 35.746094 44.355469 36.597656 43.503906 37.648438 43.503906 L 39.210938 43.503906 L 39.210938 41.25 C 39.210938 39.414062 40.453125 37.855469 42.160156 37.308594 C 42.25 35.097656 43.988281 33.300781 46.183594 33.117188 L 46.183594 31.105469 C 46.183594 28.925781 47.835938 27.109375 49.996094 26.769531 L 49.996094 25.101562 C 49.996094 24.058594 50.847656 23.207031 51.898438 23.207031 L 55.953125 23.207031 C 57.003906 23.207031 57.855469 24.058594 57.855469 25.101562 L 57.855469 26.757812 C 60.058594 27.058594 61.757812 28.894531 61.757812 31.105469 L 61.757812 33.679688 L 63.21875 33.679688 C 64.265625 33.679688 65.121094 34.53125 65.121094 35.574219 Z M 41.703125 44.101562 L 37.648438 44.101562 C 36.925781 44.101562 36.339844 44.683594 36.339844 45.402344 L 36.339844 49.214844 C 36.339844 49.933594 36.925781 50.515625 37.648438 50.515625 L 41.703125 50.515625 C 42.421875 50.515625 43.007812 49.933594 43.007812 49.214844 L 43.007812 45.402344 C 43.007812 44.683594 42.421875 44.101562 41.703125 44.101562 Z M 55.953125 44.101562 L 51.898438 44.101562 C 51.175781 44.101562 50.589844 44.683594 50.589844 45.402344 L 50.589844 49.214844 C 50.589844 49.933594 51.175781 50.515625 51.898438 50.515625 L 55.953125 50.515625 C 56.671875 50.515625 57.257812 49.933594 57.257812 49.214844 L 57.257812 45.402344 C 57.257812 44.683594 56.671875 44.101562 55.953125 44.101562 Z M 46.558594 33.695312 C 44.460938 33.695312 42.753906 35.394531 42.753906 37.484375 C 42.753906 39.570312 44.460938 41.269531 46.558594 41.269531 C 48.65625 41.269531 50.363281 39.570312 50.363281 37.484375 C 50.363281 35.394531 48.65625 33.695312 46.558594 33.695312 Z M 57.257812 28.917969 L 57.257812 25.101562 C 57.257812 24.382812 56.671875 23.800781 55.953125 23.800781 L 51.898438 23.800781 C 51.175781 23.800781 50.589844 24.382812 50.589844 25.101562 L 50.589844 28.917969 C 50.589844 29.632812 51.175781 30.21875 51.898438 30.21875 L 55.953125 30.21875 C 56.671875 30.21875 57.257812 29.632812 57.257812 28.917969 Z M 64.523438 35.574219 C 64.523438 34.859375 63.9375 34.273438 63.21875 34.273438 L 59.160156 34.273438 C 58.441406 34.273438 57.855469 34.859375 57.855469 35.574219 L 57.855469 39.390625 C 57.855469 40.109375 58.441406 40.691406 59.160156 40.691406 L 63.21875 40.691406 C 63.9375 40.691406 64.523438 40.109375 64.523438 39.390625 Z M 48.765625 35.757812 L 45.929688 38.578125 L 44.617188 37.273438 C 44.5 37.15625 44.3125 37.15625 44.195312 37.273438 C 44.078125 37.390625 44.078125 37.578125 44.195312 37.691406 L 45.71875 39.210938 C 45.773438 39.265625 45.851562 39.296875 45.929688 39.296875 C 46.007812 39.296875 46.085938 39.265625 46.140625 39.210938 L 49.1875 36.175781 C 49.304688 36.058594 49.304688 35.871094 49.1875 35.757812 C 49.070312 35.640625 48.882812 35.640625 48.765625 35.757812 Z M 48.765625 35.757812 " clip-rule="nonzero"/></clipPath><linearGradient x1="514.275515" gradientTransform="matrix(0.0204284, 0, 0, 0.0203405, -5.750542, -9.953814)" y1="651.09629" x2="3348.902943" gradientUnits="userSpaceOnUse" y2="3485.725252" id="1d43dc80ab"><stop stop-opacity="1" stop-color="rgb(11.799622%, 83.898926%, 100%)" offset="0"/><stop stop-opacity="1" stop-color="rgb(11.799622%, 83.898926%, 100%)" offset="0.125"/><stop stop-opacity="1" stop-color="rgb(11.799622%, 83.898926%, 100%)" offset="0.132813"/><stop stop-opacity="1" stop-color="rgb(11.920166%, 83.627319%, 100%)" offset="0.136719"/><stop stop-opacity="1" stop-color="rgb(12.042236%, 83.357239%, 100%)" offset="0.140625"/><stop stop-opacity="1" stop-color="rgb(12.174988%, 83.062744%, 100%)" offset="0.144531"/><stop stop-opacity="1" stop-color="rgb(12.307739%, 82.769775%, 100%)" offset="0.148438"/><stop stop-opacity="1" stop-color="rgb(12.438965%, 82.475281%, 100%)" offset="0.152344"/><stop stop-opacity="1" stop-color="rgb(12.571716%, 82.182312%, 100%)" offset="0.15625"/><stop stop-opacity="1" stop-color="rgb(12.702942%, 81.887817%, 100%)" offset="0.160156"/><stop stop-opacity="1" stop-color="rgb(12.835693%, 81.594849%, 100%)" offset="0.164062"/><stop stop-opacity="1" stop-color="rgb(12.966919%, 81.30188%, 100%)" offset="0.167969"/><stop stop-opacity="1" stop-color="rgb(13.09967%, 81.008911%, 100%)" offset="0.171875"/><stop stop-opacity="1" stop-color="rgb(13.230896%, 80.714417%, 100%)" offset="0.175781"/><stop stop-opacity="1" stop-color="rgb(13.363647%, 80.421448%, 100%)" offset="0.179688"/><stop stop-opacity="1" stop-color="rgb(13.496399%, 80.126953%, 100%)" offset="0.183594"/><stop stop-opacity="1" stop-color="rgb(13.62915%, 79.833984%, 100%)" offset="0.1875"/><stop stop-opacity="1" stop-color="rgb(13.760376%, 79.53949%, 100%)" offset="0.191406"/><stop stop-opacity="1" stop-color="rgb(13.893127%, 79.246521%, 100%)" offset="0.195312"/><stop stop-opacity="1" stop-color="rgb(14.024353%, 78.952026%, 100%)" offset="0.199219"/><stop stop-opacity="1" stop-color="rgb(14.157104%, 78.659058%, 100%)" offset="0.203125"/><stop stop-opacity="1" stop-color="rgb(14.28833%, 78.364563%, 100%)" offset="0.207031"/><stop stop-opacity="1" stop-color="rgb(14.421082%, 78.071594%, 100%)" offset="0.210938"/><stop stop-opacity="1" stop-color="rgb(14.552307%, 77.7771%, 100%)" offset="0.214844"/><stop stop-opacity="1" stop-color="rgb(14.685059%, 77.484131%, 100%)" offset="0.21875"/><stop stop-opacity="1" stop-color="rgb(14.81781%, 77.189636%, 100%)" offset="0.222656"/><stop stop-opacity="1" stop-color="rgb(14.950562%, 76.896667%, 100%)" offset="0.226563"/><stop stop-opacity="1" stop-color="rgb(15.081787%, 76.602173%, 100%)" offset="0.230469"/><stop stop-opacity="1" stop-color="rgb(15.214539%, 76.309204%, 100%)" offset="0.234375"/><stop stop-opacity="1" stop-color="rgb(15.345764%, 76.014709%, 100%)" offset="0.238281"/><stop stop-opacity="1" stop-color="rgb(15.478516%, 75.721741%, 100%)" offset="0.242188"/><stop stop-opacity="1" stop-color="rgb(15.609741%, 75.427246%, 100%)" offset="0.246094"/><stop stop-opacity="1" stop-color="rgb(15.742493%, 75.134277%, 100%)" offset="0.25"/><stop stop-opacity="1" stop-color="rgb(15.873718%, 74.839783%, 100%)" offset="0.253906"/><stop stop-opacity="1" stop-color="rgb(16.00647%, 74.546814%, 100%)" offset="0.257812"/><stop stop-opacity="1" stop-color="rgb(16.139221%, 74.252319%, 100%)" offset="0.261719"/><stop stop-opacity="1" stop-color="rgb(16.271973%, 73.959351%, 100%)" offset="0.265625"/><stop stop-opacity="1" stop-color="rgb(16.403198%, 73.664856%, 100%)" offset="0.269531"/><stop stop-opacity="1" stop-color="rgb(16.53595%, 73.371887%, 100%)" offset="0.273438"/><stop stop-opacity="1" stop-color="rgb(16.667175%, 73.077393%, 100%)" offset="0.277344"/><stop stop-opacity="1" stop-color="rgb(16.799927%, 72.784424%, 100%)" offset="0.28125"/><stop stop-opacity="1" stop-color="rgb(16.931152%, 72.489929%, 100%)" offset="0.285156"/><stop stop-opacity="1" stop-color="rgb(17.063904%, 72.19696%, 100%)" offset="0.289063"/><stop stop-opacity="1" stop-color="rgb(17.195129%, 71.902466%, 100%)" offset="0.292969"/><stop stop-opacity="1" stop-color="rgb(17.327881%, 71.609497%, 100%)" offset="0.296875"/><stop stop-opacity="1" stop-color="rgb(17.460632%, 71.315002%, 100%)" offset="0.300781"/><stop stop-opacity="1" stop-color="rgb(17.593384%, 71.022034%, 100%)" offset="0.304688"/><stop stop-opacity="1" stop-color="rgb(17.724609%, 70.727539%, 100%)" offset="0.308594"/><stop stop-opacity="1" stop-color="rgb(17.857361%, 70.43457%, 100%)" offset="0.3125"/><stop stop-opacity="1" stop-color="rgb(17.988586%, 70.140076%, 100%)" offset="0.316406"/><stop stop-opacity="1" stop-color="rgb(18.121338%, 69.847107%, 100%)" offset="0.320312"/><stop stop-opacity="1" stop-color="rgb(18.252563%, 69.552612%, 100%)" offset="0.324219"/><stop stop-opacity="1" stop-color="rgb(18.385315%, 69.259644%, 100%)" offset="0.328125"/><stop stop-opacity="1" stop-color="rgb(18.518066%, 68.965149%, 100%)" offset="0.332031"/><stop stop-opacity="1" stop-color="rgb(18.650818%, 68.67218%, 100%)" offset="0.335938"/><stop stop-opacity="1" stop-color="rgb(18.782043%, 68.377686%, 100%)" offset="0.339844"/><stop stop-opacity="1" stop-color="rgb(18.914795%, 68.084717%, 100%)" offset="0.34375"/><stop stop-opacity="1" stop-color="rgb(19.046021%, 67.790222%, 100%)" offset="0.347656"/><stop stop-opacity="1" stop-color="rgb(19.178772%, 67.497253%, 100%)" offset="0.351563"/><stop stop-opacity="1" stop-color="rgb(19.309998%, 67.202759%, 100%)" offset="0.355469"/><stop stop-opacity="1" stop-color="rgb(19.442749%, 66.90979%, 100%)" offset="0.359375"/><stop stop-opacity="1" stop-color="rgb(19.573975%, 66.615295%, 100%)" offset="0.363281"/><stop stop-opacity="1" stop-color="rgb(19.706726%, 66.322327%, 100%)" offset="0.367188"/><stop stop-opacity="1" stop-color="rgb(19.839478%, 66.027832%, 100%)" offset="0.371094"/><stop stop-opacity="1" stop-color="rgb(19.972229%, 65.734863%, 100%)" offset="0.375"/><stop stop-opacity="1" stop-color="rgb(20.103455%, 65.440369%, 100%)" offset="0.378906"/><stop stop-opacity="1" stop-color="rgb(20.236206%, 65.1474%, 100%)" offset="0.382812"/><stop stop-opacity="1" stop-color="rgb(20.367432%, 64.852905%, 100%)" offset="0.386719"/><stop stop-opacity="1" stop-color="rgb(20.500183%, 64.559937%, 100%)" offset="0.390625"/><stop stop-opacity="1" stop-color="rgb(20.631409%, 64.265442%, 100%)" offset="0.394531"/><stop stop-opacity="1" stop-color="rgb(20.76416%, 63.972473%, 100%)" offset="0.398438"/><stop stop-opacity="1" stop-color="rgb(20.895386%, 63.677979%, 100%)" offset="0.402344"/><stop stop-opacity="1" stop-color="rgb(21.028137%, 63.38501%, 100%)" offset="0.40625"/><stop stop-opacity="1" stop-color="rgb(21.160889%, 63.090515%, 100%)" offset="0.410156"/><stop stop-opacity="1" stop-color="rgb(21.29364%, 62.797546%, 100%)" offset="0.414063"/><stop stop-opacity="1" stop-color="rgb(21.424866%, 62.503052%, 100%)" offset="0.417969"/><stop stop-opacity="1" stop-color="rgb(21.557617%, 62.210083%, 100%)" offset="0.421875"/><stop stop-opacity="1" stop-color="rgb(21.688843%, 61.915588%, 100%)" offset="0.425781"/><stop stop-opacity="1" stop-color="rgb(21.821594%, 61.62262%, 100%)" offset="0.429688"/><stop stop-opacity="1" stop-color="rgb(21.95282%, 61.328125%, 100%)" offset="0.433594"/><stop stop-opacity="1" stop-color="rgb(22.085571%, 61.035156%, 100%)" offset="0.4375"/><stop stop-opacity="1" stop-color="rgb(22.216797%, 60.740662%, 100%)" offset="0.441406"/><stop stop-opacity="1" stop-color="rgb(22.349548%, 60.447693%, 100%)" offset="0.445312"/><stop stop-opacity="1" stop-color="rgb(22.4823%, 60.153198%, 100%)" offset="0.449219"/><stop stop-opacity="1" stop-color="rgb(22.615051%, 59.860229%, 100%)" offset="0.453125"/><stop stop-opacity="1" stop-color="rgb(22.746277%, 59.565735%, 100%)" offset="0.457031"/><stop stop-opacity="1" stop-color="rgb(22.879028%, 59.272766%, 100%)" offset="0.460938"/><stop stop-opacity="1" stop-color="rgb(23.010254%, 58.978271%, 100%)" offset="0.464844"/><stop stop-opacity="1" stop-color="rgb(23.143005%, 58.685303%, 100%)" offset="0.46875"/><stop stop-opacity="1" stop-color="rgb(23.274231%, 58.390808%, 100%)" offset="0.472656"/><stop stop-opacity="1" stop-color="rgb(23.406982%, 58.097839%, 100%)" offset="0.476563"/><stop stop-opacity="1" stop-color="rgb(23.538208%, 57.803345%, 100%)" offset="0.480469"/><stop stop-opacity="1" stop-color="rgb(23.670959%, 57.510376%, 100%)" offset="0.484375"/><stop stop-opacity="1" stop-color="rgb(23.803711%, 57.215881%, 100%)" offset="0.488281"/><stop stop-opacity="1" stop-color="rgb(23.936462%, 56.922913%, 100%)" offset="0.492188"/><stop stop-opacity="1" stop-color="rgb(24.067688%, 56.628418%, 100%)" offset="0.496094"/><stop stop-opacity="1" stop-color="rgb(24.200439%, 56.335449%, 100%)" offset="0.5"/><stop stop-opacity="1" stop-color="rgb(24.331665%, 56.040955%, 100%)" offset="0.503906"/><stop stop-opacity="1" stop-color="rgb(24.464417%, 55.747986%, 100%)" offset="0.507812"/><stop stop-opacity="1" stop-color="rgb(24.595642%, 55.453491%, 100%)" offset="0.511719"/><stop stop-opacity="1" stop-color="rgb(24.728394%, 55.160522%, 100%)" offset="0.515625"/><stop stop-opacity="1" stop-color="rgb(24.859619%, 54.866028%, 100%)" offset="0.519531"/><stop stop-opacity="1" stop-color="rgb(24.992371%, 54.573059%, 100%)" offset="0.523437"/><stop stop-opacity="1" stop-color="rgb(25.125122%, 54.278564%, 100%)" offset="0.527344"/><stop stop-opacity="1" stop-color="rgb(25.257874%, 53.985596%, 100%)" offset="0.53125"/><stop stop-opacity="1" stop-color="rgb(25.389099%, 53.691101%, 100%)" offset="0.535156"/><stop stop-opacity="1" stop-color="rgb(25.521851%, 53.398132%, 100%)" offset="0.539062"/><stop stop-opacity="1" stop-color="rgb(25.653076%, 53.103638%, 100%)" offset="0.542969"/><stop stop-opacity="1" stop-color="rgb(25.785828%, 52.810669%, 100%)" offset="0.546875"/><stop stop-opacity="1" stop-color="rgb(25.917053%, 52.516174%, 100%)" offset="0.550781"/><stop stop-opacity="1" stop-color="rgb(26.049805%, 52.223206%, 100%)" offset="0.554688"/><stop stop-opacity="1" stop-color="rgb(26.182556%, 51.928711%, 100%)" offset="0.558594"/><stop stop-opacity="1" stop-color="rgb(26.315308%, 51.635742%, 100%)" offset="0.5625"/><stop stop-opacity="1" stop-color="rgb(26.446533%, 51.341248%, 100%)" offset="0.566406"/><stop stop-opacity="1" stop-color="rgb(26.579285%, 51.048279%, 100%)" offset="0.570312"/><stop stop-opacity="1" stop-color="rgb(26.71051%, 50.753784%, 100%)" offset="0.574219"/><stop stop-opacity="1" stop-color="rgb(26.843262%, 50.460815%, 100%)" offset="0.578125"/><stop stop-opacity="1" stop-color="rgb(26.974487%, 50.166321%, 100%)" offset="0.582031"/><stop stop-opacity="1" stop-color="rgb(27.107239%, 49.873352%, 100%)" offset="0.585937"/><stop stop-opacity="1" stop-color="rgb(27.238464%, 49.580383%, 100%)" offset="0.589844"/><stop stop-opacity="1" stop-color="rgb(27.371216%, 49.287415%, 100%)" offset="0.59375"/><stop stop-opacity="1" stop-color="rgb(27.503967%, 48.99292%, 100%)" offset="0.597656"/><stop stop-opacity="1" stop-color="rgb(27.636719%, 48.699951%, 100%)" offset="0.601562"/><stop stop-opacity="1" stop-color="rgb(27.767944%, 48.405457%, 100%)" offset="0.605469"/><stop stop-opacity="1" stop-color="rgb(27.900696%, 48.112488%, 100%)" offset="0.609375"/><stop stop-opacity="1" stop-color="rgb(28.031921%, 47.817993%, 100%)" offset="0.613281"/><stop stop-opacity="1" stop-color="rgb(28.164673%, 47.525024%, 100%)" offset="0.617188"/><stop stop-opacity="1" stop-color="rgb(28.295898%, 47.23053%, 100%)" offset="0.621094"/><stop stop-opacity="1" stop-color="rgb(28.42865%, 46.937561%, 100%)" offset="0.625"/><stop stop-opacity="1" stop-color="rgb(28.559875%, 46.643066%, 100%)" offset="0.628906"/><stop stop-opacity="1" stop-color="rgb(28.692627%, 46.350098%, 100%)" offset="0.632812"/><stop stop-opacity="1" stop-color="rgb(28.825378%, 46.055603%, 100%)" offset="0.636719"/><stop stop-opacity="1" stop-color="rgb(28.95813%, 45.762634%, 100%)" offset="0.640625"/><stop stop-opacity="1" stop-color="rgb(29.089355%, 45.46814%, 100%)" offset="0.644531"/><stop stop-opacity="1" stop-color="rgb(29.222107%, 45.175171%, 100%)" offset="0.648437"/><stop stop-opacity="1" stop-color="rgb(29.353333%, 44.880676%, 100%)" offset="0.652344"/><stop stop-opacity="1" stop-color="rgb(29.486084%, 44.587708%, 100%)" offset="0.65625"/><stop stop-opacity="1" stop-color="rgb(29.61731%, 44.293213%, 100%)" offset="0.660156"/><stop stop-opacity="1" stop-color="rgb(29.750061%, 44.000244%, 100%)" offset="0.664062"/><stop stop-opacity="1" stop-color="rgb(29.881287%, 43.70575%, 100%)" offset="0.667969"/><stop stop-opacity="1" stop-color="rgb(30.014038%, 43.412781%, 100%)" offset="0.671875"/><stop stop-opacity="1" stop-color="rgb(30.14679%, 43.118286%, 100%)" offset="0.675781"/><stop stop-opacity="1" stop-color="rgb(30.279541%, 42.825317%, 100%)" offset="0.679688"/><stop stop-opacity="1" stop-color="rgb(30.410767%, 42.530823%, 100%)" offset="0.683594"/><stop stop-opacity="1" stop-color="rgb(30.543518%, 42.237854%, 100%)" offset="0.6875"/><stop stop-opacity="1" stop-color="rgb(30.674744%, 41.943359%, 100%)" offset="0.691406"/><stop stop-opacity="1" stop-color="rgb(30.807495%, 41.650391%, 100%)" offset="0.695312"/><stop stop-opacity="1" stop-color="rgb(30.938721%, 41.355896%, 100%)" offset="0.699219"/><stop stop-opacity="1" stop-color="rgb(31.071472%, 41.062927%, 100%)" offset="0.703125"/><stop stop-opacity="1" stop-color="rgb(31.202698%, 40.768433%, 100%)" offset="0.707031"/><stop stop-opacity="1" stop-color="rgb(31.335449%, 40.475464%, 100%)" offset="0.710938"/><stop stop-opacity="1" stop-color="rgb(31.468201%, 40.180969%, 100%)" offset="0.714844"/><stop stop-opacity="1" stop-color="rgb(31.600952%, 39.888%, 100%)" offset="0.71875"/><stop stop-opacity="1" stop-color="rgb(31.732178%, 39.593506%, 100%)" offset="0.722656"/><stop stop-opacity="1" stop-color="rgb(31.864929%, 39.300537%, 100%)" offset="0.726562"/><stop stop-opacity="1" stop-color="rgb(31.996155%, 39.006042%, 100%)" offset="0.730469"/><stop stop-opacity="1" stop-color="rgb(32.128906%, 38.713074%, 100%)" offset="0.734375"/><stop stop-opacity="1" stop-color="rgb(32.260132%, 38.418579%, 100%)" offset="0.738281"/><stop stop-opacity="1" stop-color="rgb(32.392883%, 38.12561%, 100%)" offset="0.742187"/><stop stop-opacity="1" stop-color="rgb(32.524109%, 37.831116%, 100%)" offset="0.746094"/><stop stop-opacity="1" stop-color="rgb(32.65686%, 37.538147%, 100%)" offset="0.75"/><stop stop-opacity="1" stop-color="rgb(32.789612%, 37.243652%, 100%)" offset="0.753906"/><stop stop-opacity="1" stop-color="rgb(32.922363%, 36.950684%, 100%)" offset="0.757813"/><stop stop-opacity="1" stop-color="rgb(33.053589%, 36.656189%, 100%)" offset="0.761719"/><stop stop-opacity="1" stop-color="rgb(33.18634%, 36.36322%, 100%)" offset="0.765625"/><stop stop-opacity="1" stop-color="rgb(33.317566%, 36.068726%, 100%)" offset="0.769531"/><stop stop-opacity="1" stop-color="rgb(33.450317%, 35.775757%, 100%)" offset="0.773438"/><stop stop-opacity="1" stop-color="rgb(33.581543%, 35.481262%, 100%)" offset="0.777344"/><stop stop-opacity="1" stop-color="rgb(33.714294%, 35.188293%, 100%)" offset="0.78125"/><stop stop-opacity="1" stop-color="rgb(33.847046%, 34.893799%, 100%)" offset="0.785156"/><stop stop-opacity="1" stop-color="rgb(33.979797%, 34.60083%, 100%)" offset="0.789062"/><stop stop-opacity="1" stop-color="rgb(34.111023%, 34.306335%, 100%)" offset="0.792969"/><stop stop-opacity="1" stop-color="rgb(34.243774%, 34.013367%, 100%)" offset="0.796875"/><stop stop-opacity="1" stop-color="rgb(34.375%, 33.718872%, 100%)" offset="0.800781"/><stop stop-opacity="1" stop-color="rgb(34.507751%, 33.425903%, 100%)" offset="0.804688"/><stop stop-opacity="1" stop-color="rgb(34.638977%, 33.131409%, 100%)" offset="0.808594"/><stop stop-opacity="1" stop-color="rgb(34.771729%, 32.83844%, 100%)" offset="0.8125"/><stop stop-opacity="1" stop-color="rgb(34.902954%, 32.543945%, 100%)" offset="0.816406"/><stop stop-opacity="1" stop-color="rgb(35.035706%, 32.250977%, 100%)" offset="0.820312"/><stop stop-opacity="1" stop-color="rgb(35.168457%, 31.956482%, 100%)" offset="0.824219"/><stop stop-opacity="1" stop-color="rgb(35.301208%, 31.663513%, 100%)" offset="0.828125"/><stop stop-opacity="1" stop-color="rgb(35.432434%, 31.369019%, 100%)" offset="0.832031"/><stop stop-opacity="1" stop-color="rgb(35.565186%, 31.07605%, 100%)" offset="0.835938"/><stop stop-opacity="1" stop-color="rgb(35.696411%, 30.781555%, 100%)" offset="0.839844"/><stop stop-opacity="1" stop-color="rgb(35.829163%, 30.488586%, 100%)" offset="0.84375"/><stop stop-opacity="1" stop-color="rgb(35.960388%, 30.194092%, 100%)" offset="0.847656"/><stop stop-opacity="1" stop-color="rgb(36.09314%, 29.901123%, 100%)" offset="0.851563"/><stop stop-opacity="1" stop-color="rgb(36.224365%, 29.606628%, 100%)" offset="0.855469"/><stop stop-opacity="1" stop-color="rgb(36.357117%, 29.31366%, 100%)" offset="0.859375"/><stop stop-opacity="1" stop-color="rgb(36.427307%, 29.156494%, 100%)" offset="0.875"/><stop stop-opacity="1" stop-color="rgb(36.499023%, 28.999329%, 100%)" offset="1"/></linearGradient><clipPath id="48d2df1720"><path d="M 52.652344 24.386719 L 53.898438 24.386719 L 53.898438 24.851562 L 52.652344 24.851562 Z M 52.652344 24.386719 " clip-rule="nonzero"/></clipPath><clipPath id="be792f6760"><path d="M 52.652344 24.597656 C 52.773438 24.429688 52.984375 24.347656 53.183594 24.402344 L 53.820312 24.566406 C 53.90625 24.589844 53.917969 24.707031 53.839844 24.746094 L 53.699219 24.816406 C 53.640625 24.847656 53.574219 24.855469 53.511719 24.835938 Z M 52.652344 24.597656 " clip-rule="nonzero"/></clipPath><clipPath id="8353f223e3"><path d="M 54.246094 26.234375 L 55.699219 26.234375 L 55.699219 28.285156 L 54.246094 28.285156 Z M 54.246094 26.234375 " clip-rule="nonzero"/></clipPath><clipPath id="fb848ed1a4"><path d="M 54.390625 26.300781 C 54.519531 26.238281 54.640625 26.222656 54.734375 26.277344 C 54.863281 26.351562 54.96875 26.46875 55.03125 26.605469 L 55.65625 27.921875 C 55.703125 28.019531 55.703125 28.132812 55.648438 28.226562 C 55.613281 28.292969 55.523438 28.292969 55.488281 28.226562 L 54.84375 26.976562 C 54.738281 26.773438 54.558594 26.617188 54.34375 26.542969 L 54.328125 26.539062 C 54.234375 26.507812 54.226562 26.382812 54.3125 26.339844 Z M 54.390625 26.300781 " clip-rule="nonzero"/></clipPath><clipPath id="5e58922b6f"><path d="M 51.960938 25.445312 L 56.265625 25.445312 L 56.265625 27.273438 L 51.960938 27.273438 Z M 51.960938 25.445312 " clip-rule="nonzero"/></clipPath><clipPath id="1dfb95a516"><path d="M 51.992188 25.554688 C 52.054688 25.464844 52.167969 25.425781 52.273438 25.460938 L 53.53125 25.867188 C 53.59375 25.886719 53.660156 25.882812 53.71875 25.855469 L 54.460938 25.5 C 54.519531 25.46875 54.585938 25.464844 54.652344 25.484375 L 54.820312 25.53125 C 55.105469 25.613281 55.335938 25.824219 55.449219 26.097656 L 55.5625 26.371094 C 55.585938 26.429688 55.640625 26.464844 55.703125 26.460938 L 56.023438 26.445312 C 56.085938 26.445312 56.140625 26.480469 56.160156 26.539062 L 56.214844 26.699219 C 56.28125 26.886719 56.265625 27.097656 56.167969 27.273438 L 55.996094 26.816406 C 55.972656 26.761719 55.917969 26.722656 55.855469 26.726562 L 55.496094 26.738281 C 55.4375 26.738281 55.378906 26.703125 55.355469 26.648438 L 55.214844 26.332031 C 55.121094 26.125 54.945312 25.964844 54.730469 25.898438 L 54.558594 25.847656 L 53.695312 26.25 C 53.636719 26.277344 53.570312 26.28125 53.507812 26.257812 L 52.0625 25.765625 C 51.976562 25.738281 51.941406 25.632812 51.992188 25.554688 " clip-rule="nonzero"/></clipPath><clipPath id="d151e4b37f"><path d="M 52.355469 24.75 L 55.976562 24.75 L 55.976562 26.226562 L 52.355469 26.226562 Z M 52.355469 24.75 " clip-rule="nonzero"/></clipPath><clipPath id="373bd0fa6b"><path d="M 55.964844 25.976562 C 56.007812 26.105469 55.921875 26.269531 55.800781 26.203125 C 55.769531 26.1875 55.746094 26.164062 55.734375 26.128906 L 55.570312 25.707031 C 55.492188 25.496094 55.316406 25.335938 55.101562 25.277344 L 54.613281 25.140625 C 54.550781 25.125 54.480469 25.128906 54.421875 25.15625 L 53.6875 25.503906 C 53.628906 25.535156 53.558594 25.539062 53.496094 25.519531 L 52.449219 25.195312 C 52.363281 25.171875 52.328125 25.070312 52.378906 24.996094 C 52.441406 24.910156 52.550781 24.871094 52.652344 24.898438 L 53.480469 25.140625 C 53.542969 25.160156 53.609375 25.152344 53.667969 25.125 L 54.378906 24.78125 C 54.4375 24.753906 54.507812 24.746094 54.570312 24.765625 L 55.183594 24.925781 C 55.46875 25 55.699219 25.210938 55.792969 25.488281 Z M 55.964844 25.976562 " clip-rule="nonzero"/></clipPath><clipPath id="68cb60311f"><path d="M 55.492188 26.957031 L 55.996094 26.957031 L 55.996094 27.71875 L 55.492188 27.71875 Z M 55.492188 26.957031 " clip-rule="nonzero"/></clipPath><clipPath id="2ff3a8a846"><path d="M 55.699219 26.960938 C 55.757812 26.957031 55.816406 26.992188 55.839844 27.050781 L 55.96875 27.367188 C 56.007812 27.464844 56.003906 27.578125 55.953125 27.671875 C 55.917969 27.730469 55.832031 27.726562 55.804688 27.664062 L 55.496094 26.96875 Z M 55.699219 26.960938 " clip-rule="nonzero"/></clipPath><clipPath id="da930f5341"><path d="M 51.226562 26.5625 L 51.980469 26.5625 L 51.980469 27.207031 L 51.226562 27.207031 Z M 51.226562 26.5625 " clip-rule="nonzero"/></clipPath><clipPath id="87fe084b47"><path d="M 51.28125 26.589844 L 51.292969 26.566406 L 51.835938 26.78125 C 51.894531 26.804688 51.9375 26.855469 51.949219 26.917969 L 51.972656 27.035156 C 51.992188 27.144531 51.886719 27.230469 51.785156 27.1875 L 51.410156 27.03125 C 51.234375 26.960938 51.171875 26.746094 51.28125 26.589844 " clip-rule="nonzero"/></clipPath><clipPath id="1c5d51e86e"><path d="M 51.5625 26.019531 L 54.433594 26.019531 L 54.433594 28.75 L 51.5625 28.75 Z M 51.5625 26.019531 " clip-rule="nonzero"/></clipPath><clipPath id="680e4b9d54"><path d="M 51.59375 26.132812 C 51.660156 26.039062 51.777344 26.003906 51.882812 26.039062 L 52.480469 26.253906 C 52.539062 26.273438 52.585938 26.328125 52.597656 26.386719 L 52.730469 27.042969 C 52.742188 27.101562 52.789062 27.15625 52.847656 27.179688 L 53.734375 27.527344 C 53.960938 27.617188 54.15625 27.777344 54.289062 27.980469 L 54.390625 28.140625 C 54.429688 28.195312 54.441406 28.261719 54.429688 28.324219 L 54.351562 28.742188 L 54.0625 28.339844 C 53.929688 28.148438 53.742188 28 53.527344 27.910156 L 52.476562 27.472656 C 52.417969 27.449219 52.375 27.398438 52.363281 27.335938 L 52.242188 26.667969 C 52.230469 26.605469 52.1875 26.554688 52.128906 26.53125 L 51.664062 26.355469 C 51.574219 26.324219 51.539062 26.214844 51.59375 26.132812 " clip-rule="nonzero"/></clipPath><clipPath id="8a2577e853"><path d="M 55.136719 28.433594 L 55.382812 28.433594 L 55.382812 28.859375 L 55.136719 28.859375 Z M 55.136719 28.433594 " clip-rule="nonzero"/></clipPath><clipPath id="b0253bec08"><path d="M 55.335938 28.492188 C 55.390625 28.589844 55.390625 28.707031 55.339844 28.800781 C 55.300781 28.871094 55.195312 28.878906 55.164062 28.804688 C 55.144531 28.757812 55.140625 28.707031 55.148438 28.652344 L 55.167969 28.515625 C 55.183594 28.433594 55.292969 28.414062 55.335938 28.488281 Z M 55.335938 28.492188 " clip-rule="nonzero"/></clipPath><clipPath id="344693b938"><path d="M 52.988281 26.492188 L 55.105469 26.492188 L 55.105469 29.363281 L 52.988281 29.363281 Z M 52.988281 26.492188 " clip-rule="nonzero"/></clipPath><clipPath id="7cff481578"><path d="M 54.460938 27.644531 C 54.34375 27.449219 54.160156 27.296875 53.941406 27.214844 L 53.128906 26.910156 C 53.070312 26.886719 53.027344 26.835938 53.015625 26.773438 L 52.996094 26.671875 C 52.972656 26.558594 53.082031 26.46875 53.1875 26.507812 L 54.101562 26.832031 C 54.355469 26.921875 54.566406 27.101562 54.699219 27.339844 L 54.992188 27.867188 C 55.023438 27.925781 55.035156 27.992188 55.023438 28.054688 L 54.894531 28.785156 C 54.882812 28.847656 54.894531 28.914062 54.933594 28.96875 L 55.105469 29.234375 C 55.023438 29.382812 54.816406 29.394531 54.71875 29.257812 L 54.59375 29.078125 C 54.554688 29.027344 54.539062 28.960938 54.550781 28.894531 L 54.6875 28.148438 C 54.699219 28.082031 54.683594 28.015625 54.652344 27.960938 Z M 54.460938 27.644531 " clip-rule="nonzero"/></clipPath><clipPath id="aa15747f27"><path d="M 52.828125 28.234375 L 54.621094 28.234375 L 54.621094 29.414062 L 52.828125 29.414062 Z M 52.828125 28.234375 " clip-rule="nonzero"/></clipPath><clipPath id="8ebe52c387"><path d="M 53.386719 28.597656 C 53.339844 28.546875 53.28125 28.511719 53.21875 28.484375 L 52.835938 28.3125 L 52.910156 28.265625 C 52.964844 28.230469 53.03125 28.226562 53.089844 28.253906 L 53.257812 28.328125 C 53.320312 28.355469 53.375 28.390625 53.425781 28.4375 L 53.855469 28.855469 C 53.902344 28.902344 53.957031 28.9375 54.019531 28.964844 L 54.425781 29.148438 L 54.621094 29.402344 L 53.953125 29.101562 C 53.890625 29.074219 53.835938 29.035156 53.785156 28.988281 Z M 53.386719 28.597656 " clip-rule="nonzero"/></clipPath><clipPath id="ffaa7c8d01"><path d="M 53.679688 28.511719 L 54.285156 28.511719 L 54.285156 28.957031 L 53.679688 28.957031 Z M 53.679688 28.511719 " clip-rule="nonzero"/></clipPath><clipPath id="4bd55ecc13"><path d="M 53.679688 28.515625 L 54.074219 28.691406 L 54.277344 28.953125 L 54.066406 28.859375 C 54.003906 28.832031 53.949219 28.792969 53.902344 28.746094 Z M 53.679688 28.515625 " clip-rule="nonzero"/></clipPath><clipPath id="0e9d7eabb7"><path d="M 52.027344 28.066406 L 53.582031 28.066406 L 53.582031 28.9375 L 52.027344 28.9375 Z M 52.027344 28.066406 " clip-rule="nonzero"/></clipPath><clipPath id="014848e02d"><path d="M 53.578125 28.933594 L 52.632812 28.507812 C 52.414062 28.410156 52.214844 28.265625 52.050781 28.089844 L 52.03125 28.070312 L 53.125 28.5625 C 53.1875 28.589844 53.242188 28.628906 53.292969 28.671875 Z M 53.578125 28.933594 " clip-rule="nonzero"/></clipPath><clipPath id="9764248602"><path d="M 51.761719 27.660156 L 53.949219 27.660156 L 53.949219 28.503906 L 51.761719 28.503906 Z M 51.761719 27.660156 " clip-rule="nonzero"/></clipPath><clipPath id="abfd6efde4"><path d="M 51.769531 27.667969 L 52.5 27.988281 C 52.554688 28.015625 52.625 28.007812 52.675781 27.976562 L 52.800781 27.890625 C 52.855469 27.855469 52.921875 27.851562 52.980469 27.875 L 53.402344 28.054688 C 53.617188 28.144531 53.804688 28.296875 53.9375 28.492188 L 53.035156 28.097656 C 52.976562 28.074219 52.910156 28.078125 52.855469 28.109375 L 52.746094 28.179688 C 52.691406 28.210938 52.621094 28.21875 52.566406 28.191406 L 52.019531 27.949219 C 51.957031 27.921875 51.90625 27.875 51.871094 27.820312 Z M 51.769531 27.667969 " clip-rule="nonzero"/></clipPath><clipPath id="2dd9a2754e"><path d="M 51.492188 27.246094 L 52.703125 27.246094 L 52.703125 27.859375 L 51.492188 27.859375 Z M 51.492188 27.246094 " clip-rule="nonzero"/></clipPath><clipPath id="e1b1614b8d"><path d="M 51.5 27.25 L 52.699219 27.757812 L 52.609375 27.816406 C 52.558594 27.851562 52.492188 27.859375 52.433594 27.835938 L 51.753906 27.539062 C 51.691406 27.511719 51.640625 27.464844 51.605469 27.410156 Z M 51.5 27.25 " clip-rule="nonzero"/></clipPath></defs><g clip-path="url(#abeb4ee96c)"><g clip-path="url(#e9c3d90099)"><path fill="url(#1d43dc80ab)" d="M 5.09375 2.953125 L 5.09375 58.5 L 65.121094 58.5 L 65.121094 2.953125 Z M 5.09375 2.953125 " fill-rule="nonzero"/></g></g><g clip-path="url(#48d2df1720)"><g clip-path="url(#be792f6760)"><path fill="#f266ff" d="M 51.175781 24.335938 L 56.304688 24.335938 L 56.304688 29.453125 L 51.175781 29.453125 Z M 51.175781 24.335938 " fill-opacity="1" fill-rule="nonzero"/></g></g><g clip-path="url(#8353f223e3)"><g clip-path="url(#fb848ed1a4)"><path fill="#ff637e" d="M 51.175781 24.335938 L 56.304688 24.335938 L 56.304688 29.453125 L 51.175781 29.453125 Z M 51.175781 24.335938 " fill-opacity="1" fill-rule="nonzero"/></g></g><g clip-path="url(#5e58922b6f)"><g clip-path="url(#1dfb95a516)"><path fill="#00d7be" d="M 51.175781 24.335938 L 56.304688 24.335938 L 56.304688 29.453125 L 51.175781 29.453125 Z M 51.175781 24.335938 " fill-opacity="1" fill-rule="nonzero"/></g></g><g clip-path="url(#d151e4b37f)"><g clip-path="url(#373bd0fa6b)"><path fill="#1f93ff" d="M 51.175781 24.335938 L 56.304688 24.335938 L 56.304688 29.453125 L 51.175781 29.453125 Z M 51.175781 24.335938 " fill-opacity="1" fill-rule="nonzero"/></g></g><g clip-path="url(#68cb60311f)"><g clip-path="url(#2ff3a8a846)"><path fill="#ffd500" d="M 51.175781 24.335938 L 56.304688 24.335938 L 56.304688 29.453125 L 51.175781 29.453125 Z M 51.175781 24.335938 " fill-opacity="1" fill-rule="nonzero"/></g></g><g clip-path="url(#da930f5341)"><g clip-path="url(#87fe084b47)"><path fill="#1f93ff" d="M 51.175781 24.335938 L 56.304688 24.335938 L 56.304688 29.453125 L 51.175781 29.453125 Z M 51.175781 24.335938 " fill-opacity="1" fill-rule="nonzero"/></g></g><g clip-path="url(#1c5d51e86e)"><g clip-path="url(#680e4b9d54)"><path fill="#f266ff" d="M 51.175781 24.335938 L 56.304688 24.335938 L 56.304688 29.453125 L 51.175781 29.453125 Z M 51.175781 24.335938 " fill-opacity="1" fill-rule="nonzero"/></g></g><g clip-path="url(#8a2577e853)"><g clip-path="url(#b0253bec08)"><path fill="#1f93ff" d="M 51.175781 24.335938 L 56.304688 24.335938 L 56.304688 29.453125 L 51.175781 29.453125 Z M 51.175781 24.335938 " fill-opacity="1" fill-rule="nonzero"/></g></g><g clip-path="url(#344693b938)"><g clip-path="url(#7cff481578)"><path fill="#ffcf00" d="M 51.175781 24.335938 L 56.304688 24.335938 L 56.304688 29.453125 L 51.175781 29.453125 Z M 51.175781 24.335938 " fill-opacity="1" fill-rule="nonzero"/></g></g><g clip-path="url(#aa15747f27)"><g clip-path="url(#8ebe52c387)"><path fill="#61d742" d="M 51.175781 24.335938 L 56.304688 24.335938 L 56.304688 29.453125 L 51.175781 29.453125 Z M 51.175781 24.335938 " fill-opacity="1" fill-rule="nonzero"/></g></g><g clip-path="url(#ffaa7c8d01)"><g clip-path="url(#4bd55ecc13)"><path fill="#1f93ff" d="M 51.175781 24.335938 L 56.304688 24.335938 L 56.304688 29.453125 L 51.175781 29.453125 Z M 51.175781 24.335938 " fill-opacity="1" fill-rule="nonzero"/></g></g><g clip-path="url(#0e9d7eabb7)"><g clip-path="url(#014848e02d)"><path fill="#1f93ff" d="M 51.175781 24.335938 L 56.304688 24.335938 L 56.304688 29.453125 L 51.175781 29.453125 Z M 51.175781 24.335938 " fill-opacity="1" fill-rule="nonzero"/></g></g><g clip-path="url(#9764248602)"><g clip-path="url(#abfd6efde4)"><path fill="#ff7a78" d="M 51.175781 24.335938 L 56.304688 24.335938 L 56.304688 29.453125 L 51.175781 29.453125 Z M 51.175781 24.335938 " fill-opacity="1" fill-rule="nonzero"/></g></g><g clip-path="url(#2dd9a2754e)"><g clip-path="url(#e1b1614b8d)"><path fill="#ffcf00" d="M 51.175781 24.335938 L 56.304688 24.335938 L 56.304688 29.453125 L 51.175781 29.453125 Z M 51.175781 24.335938 " fill-opacity="1" fill-rule="nonzero"/></g></g></svg>