<svg xmlns="http://www.w3.org/2000/svg" xmlns:xlink="http://www.w3.org/1999/xlink" width="94" zoomAndPan="magnify" viewBox="0 0 70.5 62.249996" height="83" preserveAspectRatio="xMidYMid meet" version="1.0"><defs><clipPath id="d537b5d62f"><path d="M 1.660156 33 L 68.359375 33 L 68.359375 56.949219 L 1.660156 56.949219 Z M 1.660156 33 " clip-rule="nonzero"/></clipPath><clipPath id="a5b85c4885"><path d="M 1.660156 39 L 68.359375 39 L 68.359375 56.949219 L 1.660156 56.949219 Z M 1.660156 39 " clip-rule="nonzero"/></clipPath><clipPath id="9fa337363f"><path d="M 1.660156 22 L 68.359375 22 L 68.359375 46 L 1.660156 46 Z M 1.660156 22 " clip-rule="nonzero"/></clipPath><clipPath id="091c2641d7"><path d="M 1.660156 28 L 68.359375 28 L 68.359375 46 L 1.660156 46 Z M 1.660156 28 " clip-rule="nonzero"/></clipPath><clipPath id="7670c379f4"><path d="M 1.660156 4.332031 L 68.359375 4.332031 L 68.359375 34 L 1.660156 34 Z M 1.660156 4.332031 " clip-rule="nonzero"/></clipPath><clipPath id="19db72986a"><path d="M 1.660156 16 L 68.359375 16 L 68.359375 34 L 1.660156 34 Z M 1.660156 16 " clip-rule="nonzero"/></clipPath></defs><g clip-path="url(#d537b5d62f)"><path fill="#3c87d0" d="M 68.328125 42.113281 C 68.328125 42.589844 68.195312 43.023438 67.929688 43.414062 C 67.660156 43.808594 67.304688 44.09375 66.863281 44.269531 L 35.871094 56.578125 C 35.296875 56.804688 34.722656 56.804688 34.148438 56.578125 L 3.15625 44.269531 C 2.714844 44.09375 2.355469 43.808594 2.089844 43.417969 C 1.820312 43.023438 1.683594 42.589844 1.683594 42.113281 C 1.683594 41.636719 1.820312 41.203125 2.089844 40.808594 C 2.355469 40.417969 2.714844 40.132812 3.15625 39.957031 L 17.757812 34.164062 C 18.332031 33.933594 18.90625 33.933594 19.480469 34.164062 L 35.011719 40.328125 L 50.539062 34.164062 C 51.113281 33.933594 51.6875 33.933594 52.261719 34.164062 L 66.863281 39.957031 C 67.304688 40.132812 67.660156 40.417969 67.929688 40.8125 C 68.195312 41.203125 68.328125 41.636719 68.328125 42.113281 Z M 68.328125 42.113281 " fill-opacity="1" fill-rule="nonzero"/></g><g clip-path="url(#a5b85c4885)"><path fill="#3fa9f5" d="M 68.328125 42.113281 C 68.328125 42.589844 68.195312 43.023438 67.929688 43.414062 C 67.660156 43.808594 67.304688 44.09375 66.863281 44.269531 L 35.871094 56.578125 C 35.296875 56.804688 34.722656 56.804688 34.148438 56.578125 L 3.15625 44.269531 C 2.714844 44.09375 2.355469 43.808594 2.089844 43.417969 C 1.820312 43.023438 1.683594 42.589844 1.683594 42.113281 C 1.683594 41.636719 1.820312 41.203125 2.089844 40.808594 C 2.355469 40.417969 2.714844 40.132812 3.15625 39.957031 L 3.578125 39.796875 L 34.148438 51.941406 C 34.722656 52.167969 35.296875 52.167969 35.871094 51.941406 L 66.441406 39.796875 L 66.863281 39.957031 C 67.304688 40.132812 67.660156 40.417969 67.929688 40.8125 C 68.195312 41.203125 68.328125 41.636719 68.328125 42.113281 Z M 68.328125 42.113281 " fill-opacity="0.51" fill-rule="nonzero"/></g><g clip-path="url(#9fa337363f)"><path fill="#60b7ff" d="M 68.328125 30.523438 C 68.328125 31 68.195312 31.433594 67.929688 31.824219 C 67.660156 32.21875 67.304688 32.503906 66.863281 32.679688 L 35.871094 44.988281 C 35.296875 45.214844 34.722656 45.214844 34.148438 44.988281 L 3.15625 32.679688 C 2.714844 32.503906 2.355469 32.21875 2.089844 31.828125 C 1.820312 31.433594 1.683594 31 1.683594 30.523438 C 1.683594 30.046875 1.820312 29.613281 2.089844 29.21875 C 2.355469 28.828125 2.714844 28.542969 3.15625 28.367188 L 17.757812 22.574219 C 18.332031 22.34375 18.90625 22.34375 19.480469 22.574219 L 35.011719 28.738281 L 50.539062 22.574219 C 51.113281 22.34375 51.6875 22.34375 52.261719 22.574219 L 66.863281 28.367188 C 67.304688 28.542969 67.660156 28.828125 67.929688 29.222656 C 68.195312 29.613281 68.328125 30.046875 68.328125 30.523438 Z M 68.328125 30.523438 " fill-opacity="1" fill-rule="nonzero"/></g><g clip-path="url(#091c2641d7)"><path fill="#3c87d0" d="M 68.328125 30.523438 C 68.328125 31 68.195312 31.433594 67.929688 31.824219 C 67.660156 32.21875 67.304688 32.503906 66.863281 32.679688 L 35.871094 44.988281 C 35.296875 45.214844 34.722656 45.214844 34.148438 44.988281 L 3.15625 32.679688 C 2.714844 32.503906 2.355469 32.21875 2.089844 31.828125 C 1.820312 31.433594 1.683594 31 1.683594 30.523438 C 1.683594 30.046875 1.820312 29.613281 2.089844 29.21875 C 2.355469 28.828125 2.714844 28.542969 3.15625 28.367188 L 3.578125 28.207031 L 34.148438 40.351562 C 34.722656 40.578125 35.296875 40.578125 35.871094 40.351562 L 66.441406 28.207031 L 66.863281 28.367188 C 67.304688 28.542969 67.660156 28.828125 67.929688 29.222656 C 68.195312 29.613281 68.328125 30.046875 68.328125 30.523438 Z M 68.328125 30.523438 " fill-opacity="0.5" fill-rule="nonzero"/></g><g clip-path="url(#7670c379f4)"><path fill="#b3dafe" d="M 68.328125 18.933594 C 68.328125 19.410156 68.195312 19.84375 67.929688 20.238281 C 67.660156 20.628906 67.304688 20.914062 66.863281 21.089844 L 35.871094 33.398438 C 35.296875 33.625 34.722656 33.625 34.148438 33.398438 L 3.15625 21.089844 C 2.714844 20.914062 2.355469 20.632812 2.089844 20.238281 C 1.820312 19.84375 1.683594 19.410156 1.683594 18.933594 C 1.683594 18.457031 1.820312 18.023438 2.089844 17.628906 C 2.355469 17.238281 2.714844 16.953125 3.15625 16.777344 L 34.148438 4.46875 C 34.722656 4.242188 35.296875 4.242188 35.871094 4.46875 L 66.863281 16.777344 C 67.304688 16.953125 67.660156 17.238281 67.929688 17.632812 C 68.195312 18.023438 68.328125 18.460938 68.328125 18.933594 Z M 68.328125 18.933594 " fill-opacity="1" fill-rule="nonzero"/></g><g clip-path="url(#19db72986a)"><path fill="#60b7ff" d="M 68.328125 18.933594 C 68.328125 19.410156 68.195312 19.84375 67.929688 20.238281 C 67.660156 20.628906 67.304688 20.914062 66.863281 21.089844 L 35.871094 33.398438 C 35.296875 33.625 34.722656 33.625 34.148438 33.398438 L 3.15625 21.089844 C 2.714844 20.914062 2.355469 20.632812 2.089844 20.238281 C 1.820312 19.84375 1.683594 19.410156 1.683594 18.933594 C 1.683594 18.457031 1.820312 18.023438 2.089844 17.628906 C 2.355469 17.238281 2.714844 16.953125 3.15625 16.777344 L 3.578125 16.617188 L 34.148438 28.761719 C 34.722656 28.988281 35.296875 28.988281 35.871094 28.761719 L 66.441406 16.617188 L 66.863281 16.777344 C 67.304688 16.953125 67.660156 17.238281 67.929688 17.632812 C 68.195312 18.023438 68.328125 18.460938 68.328125 18.933594 Z M 68.328125 18.933594 " fill-opacity="0.5" fill-rule="nonzero"/></g></svg>