<svg xmlns="http://www.w3.org/2000/svg" xmlns:xlink="http://www.w3.org/1999/xlink" width="94" zoomAndPan="magnify" viewBox="0 0 70.5 62.249996" height="83" preserveAspectRatio="xMidYMid meet" version="1.0"><defs><clipPath id="a757d28f2e"><path d="M 11 37 L 61.648438 37 L 61.648438 59.601562 L 11 59.601562 Z M 11 37 " clip-rule="nonzero"/></clipPath><clipPath id="502b4135dd"><path d="M 16 53 L 47 53 L 47 59.601562 L 16 59.601562 Z M 16 53 " clip-rule="nonzero"/></clipPath><clipPath id="18176f961f"><path d="M 20 53 L 23 53 L 23 59.601562 L 20 59.601562 Z M 20 53 " clip-rule="nonzero"/></clipPath><clipPath id="074f0c855d"><path d="M 27 53 L 30 53 L 30 59.601562 L 27 59.601562 Z M 27 53 " clip-rule="nonzero"/></clipPath><clipPath id="044d47642e"><path d="M 34 53 L 37 53 L 37 59.601562 L 34 59.601562 Z M 34 53 " clip-rule="nonzero"/></clipPath><clipPath id="5227ce2e93"><path d="M 41 53 L 44 53 L 44 59.601562 L 41 59.601562 Z M 41 53 " clip-rule="nonzero"/></clipPath><clipPath id="9b23ac98a7"><path d="M 8.292969 42 L 58 42 L 58 59.601562 L 8.292969 59.601562 Z M 8.292969 42 " clip-rule="nonzero"/></clipPath><clipPath id="a3d371b96b"><path d="M 9 58 L 57 58 L 57 59.601562 L 9 59.601562 Z M 9 58 " clip-rule="nonzero"/></clipPath><clipPath id="e17c4718cf"><path d="M 8.292969 39 L 27 39 L 27 59.601562 L 8.292969 59.601562 Z M 8.292969 39 " clip-rule="nonzero"/></clipPath><clipPath id="f7ac960420"><path d="M 8.292969 5 L 61.648438 5 L 61.648438 59.601562 L 8.292969 59.601562 Z M 8.292969 5 " clip-rule="nonzero"/></clipPath><clipPath id="cc8f81bd18"><path d="M 8.292969 2 L 61.648438 2 L 61.648438 24 L 8.292969 24 Z M 8.292969 2 " clip-rule="nonzero"/></clipPath><clipPath id="8fff5c3482"><path d="M 8.292969 1.800781 L 61.648438 1.800781 L 61.648438 35 L 8.292969 35 Z M 8.292969 1.800781 " clip-rule="nonzero"/></clipPath><clipPath id="eed3fafaf2"><path d="M 32.929688 27.535156 L 35.304688 27.535156 L 35.304688 28.417969 L 32.929688 28.417969 Z M 32.929688 27.535156 " clip-rule="nonzero"/></clipPath><clipPath id="411d9a74b4"><path d="M 32.933594 27.9375 C 33.15625 27.613281 33.5625 27.464844 33.945312 27.5625 L 35.15625 27.882812 C 35.320312 27.925781 35.34375 28.148438 35.191406 28.222656 L 34.925781 28.355469 C 34.816406 28.414062 34.6875 28.425781 34.566406 28.390625 Z M 32.933594 27.9375 " clip-rule="nonzero"/></clipPath><clipPath id="6704aea864"><path d="M 35.964844 31.058594 L 38.734375 31.058594 L 38.734375 34.960938 L 35.964844 34.960938 Z M 35.964844 31.058594 " clip-rule="nonzero"/></clipPath><clipPath id="1704ed1f70"><path d="M 36.242188 31.179688 C 36.488281 31.058594 36.714844 31.03125 36.894531 31.136719 C 37.140625 31.28125 37.339844 31.5 37.464844 31.761719 L 38.65625 34.269531 C 38.742188 34.453125 38.738281 34.671875 38.640625 34.855469 C 38.574219 34.976562 38.398438 34.972656 38.332031 34.851562 L 37.105469 32.46875 C 36.90625 32.082031 36.5625 31.785156 36.152344 31.644531 L 36.121094 31.636719 C 35.945312 31.578125 35.929688 31.339844 36.089844 31.257812 Z M 36.242188 31.179688 " clip-rule="nonzero"/></clipPath><clipPath id="37d92bfcb1"><path d="M 31.609375 29.550781 L 39.8125 29.550781 L 39.8125 33.039062 L 31.609375 33.039062 Z M 31.609375 29.550781 " clip-rule="nonzero"/></clipPath><clipPath id="ad150e0541"><path d="M 31.675781 29.761719 C 31.792969 29.59375 32.011719 29.519531 32.207031 29.582031 L 34.605469 30.355469 C 34.722656 30.394531 34.851562 30.386719 34.964844 30.332031 L 36.375 29.652344 C 36.488281 29.601562 36.617188 29.589844 36.738281 29.625 L 37.0625 29.71875 C 37.601562 29.875 38.046875 30.273438 38.257812 30.796875 L 38.472656 31.320312 C 38.515625 31.425781 38.625 31.496094 38.738281 31.488281 L 39.351562 31.460938 C 39.46875 31.453125 39.574219 31.527344 39.609375 31.632812 L 39.714844 31.941406 C 39.84375 32.300781 39.808594 32.699219 39.628906 33.03125 L 39.296875 32.164062 C 39.257812 32.058594 39.148438 31.988281 39.035156 31.992188 L 38.351562 32.011719 C 38.234375 32.015625 38.125 31.949219 38.078125 31.84375 L 37.8125 31.238281 C 37.636719 30.84375 37.296875 30.542969 36.886719 30.417969 L 36.5625 30.316406 L 34.917969 31.082031 C 34.804688 31.136719 34.675781 31.144531 34.558594 31.101562 L 31.808594 30.164062 C 31.640625 30.109375 31.574219 29.910156 31.675781 29.761719 " clip-rule="nonzero"/></clipPath><clipPath id="494a3bbab1"><path d="M 32.363281 28.230469 L 39.265625 28.230469 L 39.265625 31.039062 L 32.363281 31.039062 Z M 32.363281 28.230469 " clip-rule="nonzero"/></clipPath><clipPath id="e17af55cf0"><path d="M 39.238281 30.566406 C 39.324219 30.8125 39.15625 31.121094 38.925781 31 C 38.867188 30.96875 38.824219 30.917969 38.796875 30.855469 L 38.492188 30.050781 C 38.339844 29.652344 38.003906 29.347656 37.59375 29.230469 L 36.664062 28.976562 C 36.546875 28.941406 36.417969 28.953125 36.304688 29.003906 L 34.898438 29.667969 C 34.785156 29.722656 34.65625 29.730469 34.539062 29.695312 L 32.542969 29.078125 C 32.378906 29.027344 32.3125 28.835938 32.410156 28.699219 C 32.523438 28.53125 32.734375 28.457031 32.929688 28.515625 L 34.507812 28.972656 C 34.625 29.007812 34.753906 29 34.867188 28.945312 L 36.21875 28.289062 C 36.332031 28.234375 36.460938 28.222656 36.582031 28.253906 L 37.753906 28.5625 C 38.292969 28.703125 38.730469 29.105469 38.914062 29.632812 Z M 39.238281 30.566406 " clip-rule="nonzero"/></clipPath><clipPath id="250ca3b9e0"><path d="M 38.339844 32.433594 L 39.300781 32.433594 L 39.300781 33.886719 L 38.339844 33.886719 Z M 38.339844 32.433594 " clip-rule="nonzero"/></clipPath><clipPath id="17ccbc6ffb"><path d="M 38.730469 32.4375 C 38.847656 32.433594 38.953125 32.5 39 32.609375 L 39.246094 33.21875 C 39.324219 33.402344 39.3125 33.613281 39.214844 33.792969 C 39.152344 33.90625 38.988281 33.898438 38.9375 33.78125 L 38.347656 32.457031 Z M 38.730469 32.4375 " clip-rule="nonzero"/></clipPath><clipPath id="26f664e6fd"><path d="M 30.214844 31.679688 L 31.648438 31.679688 L 31.648438 32.90625 L 30.214844 32.90625 Z M 30.214844 31.679688 " clip-rule="nonzero"/></clipPath><clipPath id="237d17479c"><path d="M 30.316406 31.734375 L 30.34375 31.691406 L 31.375 32.097656 C 31.488281 32.140625 31.570312 32.242188 31.59375 32.359375 L 31.636719 32.582031 C 31.675781 32.785156 31.46875 32.953125 31.277344 32.875 L 30.5625 32.578125 C 30.230469 32.441406 30.109375 32.03125 30.316406 31.734375 " clip-rule="nonzero"/></clipPath><clipPath id="0e07a7b2db"><path d="M 30.855469 30.644531 L 36.324219 30.644531 L 36.324219 35.847656 L 30.855469 35.847656 Z M 30.855469 30.644531 " clip-rule="nonzero"/></clipPath><clipPath id="e16f90830f"><path d="M 30.914062 30.863281 C 31.035156 30.6875 31.261719 30.613281 31.464844 30.6875 L 32.605469 31.09375 C 32.71875 31.132812 32.800781 31.230469 32.824219 31.347656 L 33.082031 32.59375 C 33.105469 32.710938 33.1875 32.808594 33.300781 32.855469 L 34.988281 33.519531 C 35.421875 33.691406 35.792969 33.992188 36.050781 34.386719 L 36.246094 34.6875 C 36.3125 34.789062 36.335938 34.917969 36.3125 35.039062 L 36.164062 35.828125 L 35.621094 35.0625 C 35.363281 34.703125 35.007812 34.417969 34.597656 34.25 L 32.59375 33.417969 C 32.480469 33.371094 32.402344 33.273438 32.378906 33.152344 L 32.152344 31.882812 C 32.128906 31.765625 32.046875 31.664062 31.933594 31.625 L 31.050781 31.289062 C 30.875 31.226562 30.8125 31.015625 30.914062 30.863281 " clip-rule="nonzero"/></clipPath><clipPath id="13b695dc49"><path d="M 37.660156 35.246094 L 38.132812 35.246094 L 38.132812 36.054688 L 37.660156 36.054688 Z M 37.660156 35.246094 " clip-rule="nonzero"/></clipPath><clipPath id="13fafd5840"><path d="M 38.042969 35.355469 C 38.144531 35.539062 38.148438 35.765625 38.046875 35.949219 C 37.972656 36.082031 37.773438 36.09375 37.714844 35.953125 C 37.679688 35.863281 37.667969 35.761719 37.683594 35.664062 L 37.726562 35.402344 C 37.75 35.242188 37.960938 35.207031 38.039062 35.347656 Z M 38.042969 35.355469 " clip-rule="nonzero"/></clipPath><clipPath id="588512a658"><path d="M 33.570312 31.550781 L 37.605469 31.550781 L 37.605469 37 L 33.570312 37 Z M 33.570312 31.550781 " clip-rule="nonzero"/></clipPath><clipPath id="2cb1df2ed5"><path d="M 36.375 33.746094 C 36.148438 33.367188 35.800781 33.078125 35.390625 32.921875 L 33.839844 32.339844 C 33.726562 32.296875 33.644531 32.199219 33.621094 32.082031 L 33.582031 31.886719 C 33.542969 31.675781 33.746094 31.5 33.949219 31.574219 L 35.691406 32.195312 C 36.171875 32.367188 36.578125 32.710938 36.828125 33.160156 L 37.382812 34.164062 C 37.445312 34.277344 37.464844 34.402344 37.445312 34.527344 L 37.199219 35.910156 C 37.179688 36.035156 37.203125 36.160156 37.273438 36.265625 L 37.601562 36.769531 C 37.449219 37.054688 37.050781 37.078125 36.867188 36.816406 L 36.625 36.472656 C 36.554688 36.375 36.527344 36.246094 36.546875 36.125 L 36.804688 34.699219 C 36.824219 34.578125 36.800781 34.449219 36.738281 34.34375 Z M 36.375 33.746094 " clip-rule="nonzero"/></clipPath><clipPath id="7b10c88c00"><path d="M 33.269531 34.867188 L 36.679688 34.867188 L 36.679688 37.109375 L 33.269531 37.109375 Z M 33.269531 34.867188 " clip-rule="nonzero"/></clipPath><clipPath id="0888889dc9"><path d="M 34.328125 35.554688 C 34.238281 35.464844 34.128906 35.390625 34.011719 35.339844 L 33.28125 35.015625 L 33.421875 34.925781 C 33.523438 34.859375 33.652344 34.851562 33.761719 34.902344 L 34.082031 35.042969 C 34.199219 35.09375 34.308594 35.167969 34.398438 35.257812 L 35.21875 36.046875 C 35.3125 36.136719 35.417969 36.207031 35.535156 36.261719 L 36.308594 36.609375 L 36.679688 37.09375 L 35.40625 36.519531 C 35.289062 36.46875 35.179688 36.394531 35.089844 36.304688 Z M 34.328125 35.554688 " clip-rule="nonzero"/></clipPath><clipPath id="b0746132da"><path d="M 34.890625 35.394531 L 36.039062 35.394531 L 36.039062 36.242188 L 34.890625 36.242188 Z M 34.890625 35.394531 " clip-rule="nonzero"/></clipPath><clipPath id="d4bac40de5"><path d="M 34.890625 35.402344 L 35.640625 35.734375 L 36.023438 36.238281 L 35.625 36.058594 C 35.507812 36.007812 35.402344 35.933594 35.3125 35.839844 Z M 34.890625 35.402344 " clip-rule="nonzero"/></clipPath><clipPath id="b2e23efba3"><path d="M 31.742188 34.546875 L 34.703125 34.546875 L 34.703125 36.207031 L 31.742188 36.207031 Z M 31.742188 34.546875 " clip-rule="nonzero"/></clipPath><clipPath id="f443482e46"><path d="M 34.691406 36.199219 L 32.894531 35.390625 C 32.476562 35.199219 32.097656 34.925781 31.78125 34.589844 L 31.746094 34.550781 L 33.828125 35.492188 C 33.945312 35.542969 34.054688 35.617188 34.148438 35.703125 Z M 34.691406 36.199219 " clip-rule="nonzero"/></clipPath><clipPath id="179f89c592"><path d="M 31.230469 33.773438 L 35.398438 33.773438 L 35.398438 35.375 L 31.230469 35.375 Z M 31.230469 33.773438 " clip-rule="nonzero"/></clipPath><clipPath id="42203bbbe8"><path d="M 31.25 33.785156 L 32.636719 34.398438 C 32.746094 34.449219 32.875 34.4375 32.976562 34.371094 L 33.214844 34.214844 C 33.3125 34.148438 33.441406 34.136719 33.554688 34.183594 L 34.355469 34.523438 C 34.769531 34.699219 35.125 34.988281 35.382812 35.359375 L 33.660156 34.605469 C 33.550781 34.558594 33.421875 34.566406 33.316406 34.628906 L 33.105469 34.761719 C 33.003906 34.824219 32.875 34.832031 32.761719 34.785156 L 31.722656 34.320312 C 31.605469 34.269531 31.507812 34.183594 31.441406 34.078125 Z M 31.25 33.785156 " clip-rule="nonzero"/></clipPath><clipPath id="2961db6c40"><path d="M 30.722656 32.980469 L 33.023438 32.980469 L 33.023438 34.152344 L 30.722656 34.152344 Z M 30.722656 32.980469 " clip-rule="nonzero"/></clipPath><clipPath id="6015a7b0bf"><path d="M 30.734375 32.988281 L 33.015625 33.953125 L 32.851562 34.070312 C 32.753906 34.140625 32.625 34.152344 32.515625 34.105469 L 31.21875 33.539062 C 31.101562 33.488281 31.003906 33.402344 30.933594 33.296875 Z M 30.734375 32.988281 " clip-rule="nonzero"/></clipPath></defs><path fill="#a9afc4" d="M 48.386719 45.453125 L 49.164062 45.453125 L 49.164062 46.234375 L 48.386719 46.234375 Z M 50.464844 45.453125 L 51.242188 45.453125 L 51.242188 46.234375 L 50.464844 46.234375 Z M 52.589844 45.484375 C 52.882812 45.519531 53.164062 45.589844 53.4375 45.695312 L 53.15625 46.421875 C 52.941406 46.339844 52.722656 46.285156 52.496094 46.257812 Z M 54.65625 46.472656 C 54.863281 46.675781 55.046875 46.902344 55.203125 47.148438 L 54.542969 47.566406 C 54.421875 47.371094 54.277344 47.191406 54.113281 47.03125 Z M 55.710938 48.503906 C 55.742188 48.691406 55.757812 48.882812 55.757812 49.074219 L 55.757812 49.34375 L 54.976562 49.34375 L 54.976562 49.074219 C 54.976562 48.921875 54.964844 48.773438 54.941406 48.625 Z M 55.757812 50.644531 L 55.757812 51.421875 L 54.976562 51.421875 L 54.976562 50.644531 Z M 55.757812 50.644531 " fill-opacity="1" fill-rule="nonzero"/><path fill="#f5f5f5" d="M 50.867188 32.585938 C 50.867188 41.289062 43.808594 48.34375 35.105469 48.34375 C 26.40625 48.34375 19.347656 41.289062 19.347656 32.585938 C 19.347656 28.828125 20.660156 25.382812 22.851562 22.675781 C 25.742188 19.105469 30.15625 16.824219 35.105469 16.824219 C 40.058594 16.824219 44.472656 19.105469 47.359375 22.675781 C 49.554688 25.382812 50.867188 28.828125 50.867188 32.585938 Z M 50.867188 32.585938 " fill-opacity="1" fill-rule="nonzero"/><path fill="#dee1ec" d="M 46.851562 32.585938 C 46.851562 33.355469 46.777344 34.117188 46.625 34.875 C 46.476562 35.632812 46.253906 36.367188 45.957031 37.078125 C 45.664062 37.792969 45.300781 38.46875 44.871094 39.109375 C 44.445312 39.75 43.957031 40.34375 43.414062 40.890625 C 42.867188 41.433594 42.273438 41.921875 41.632812 42.351562 C 40.992188 42.777344 40.3125 43.140625 39.601562 43.433594 C 38.890625 43.730469 38.15625 43.953125 37.398438 44.101562 C 36.640625 44.253906 35.878906 44.328125 35.105469 44.328125 C 34.335938 44.328125 33.574219 44.253906 32.816406 44.101562 C 32.058594 43.953125 31.324219 43.730469 30.613281 43.433594 C 29.898438 43.140625 29.222656 42.777344 28.582031 42.351562 C 27.941406 41.921875 27.347656 41.433594 26.800781 40.890625 C 26.257812 40.34375 25.769531 39.75 25.339844 39.109375 C 24.914062 38.46875 24.550781 37.792969 24.257812 37.078125 C 23.960938 36.367188 23.738281 35.632812 23.589844 34.875 C 23.4375 34.117188 23.363281 33.355469 23.363281 32.585938 C 23.363281 31.8125 23.4375 31.050781 23.589844 30.292969 C 23.738281 29.535156 23.960938 28.800781 24.257812 28.089844 C 24.550781 27.378906 24.914062 26.699219 25.339844 26.058594 C 25.769531 25.417969 26.257812 24.824219 26.800781 24.277344 C 27.347656 23.734375 27.941406 23.246094 28.582031 22.820312 C 29.222656 22.390625 29.898438 22.027344 30.613281 21.734375 C 31.324219 21.4375 32.058594 21.214844 32.816406 21.066406 C 33.574219 20.914062 34.335938 20.839844 35.105469 20.839844 C 35.878906 20.839844 36.640625 20.914062 37.398438 21.066406 C 38.15625 21.214844 38.890625 21.4375 39.601562 21.734375 C 40.3125 22.027344 40.992188 22.390625 41.632812 22.820312 C 42.273438 23.246094 42.867188 23.734375 43.414062 24.277344 C 43.957031 24.824219 44.445312 25.417969 44.871094 26.058594 C 45.300781 26.699219 45.664062 27.378906 45.957031 28.089844 C 46.253906 28.800781 46.476562 29.535156 46.625 30.292969 C 46.777344 31.050781 46.851562 31.8125 46.851562 32.585938 Z M 46.851562 32.585938 " fill-opacity="1" fill-rule="nonzero"/><path fill="#f5f5f5" d="M 23.597656 48.34375 L 51.910156 48.34375 C 52.054688 48.34375 52.195312 48.375 52.332031 48.429688 C 52.464844 48.484375 52.585938 48.566406 52.691406 48.667969 C 52.792969 48.773438 52.871094 48.890625 52.929688 49.027344 C 52.984375 49.164062 53.011719 49.304688 53.011719 49.449219 L 53.011719 52.726562 C 53.011719 52.875 52.984375 53.015625 52.929688 53.148438 C 52.871094 53.285156 52.792969 53.40625 52.691406 53.507812 C 52.585938 53.613281 52.464844 53.691406 52.332031 53.746094 C 52.195312 53.804688 52.054688 53.832031 51.910156 53.832031 L 23.597656 53.832031 C 23.449219 53.832031 23.308594 53.804688 23.171875 53.746094 C 23.039062 53.691406 22.917969 53.613281 22.816406 53.507812 C 22.710938 53.40625 22.632812 53.285156 22.574219 53.148438 C 22.519531 53.015625 22.492188 52.875 22.492188 52.726562 L 22.492188 49.449219 C 22.492188 49.304688 22.519531 49.164062 22.574219 49.027344 C 22.632812 48.890625 22.710938 48.773438 22.816406 48.667969 C 22.917969 48.566406 23.039062 48.484375 23.171875 48.429688 C 23.308594 48.375 23.449219 48.34375 23.597656 48.34375 Z M 23.597656 48.34375 " fill-opacity="1" fill-rule="nonzero"/><path fill="#dcdfea" d="M 26.378906 48.34375 L 28.921875 48.34375 L 28.921875 53.832031 L 26.378906 53.832031 Z M 26.378906 48.34375 " fill-opacity="1" fill-rule="nonzero"/><path fill="#dcdfea" d="M 33.335938 48.34375 L 35.878906 48.34375 L 35.878906 53.832031 L 33.335938 53.832031 Z M 33.335938 48.34375 " fill-opacity="1" fill-rule="nonzero"/><path fill="#dcdfea" d="M 40.292969 48.34375 L 42.835938 48.34375 L 42.835938 53.832031 L 40.292969 53.832031 Z M 40.292969 48.34375 " fill-opacity="1" fill-rule="nonzero"/><path fill="#dcdfea" d="M 47.25 48.34375 L 49.792969 48.34375 L 49.792969 53.832031 L 47.25 53.832031 Z M 47.25 48.34375 " fill-opacity="1" fill-rule="nonzero"/><path fill="#000000" d="M 35.105469 25.179688 L 28.695312 28.882812 L 28.695312 36.285156 L 35.105469 39.988281 L 41.519531 36.285156 L 41.519531 28.882812 Z M 35.105469 25.179688 " fill-opacity="1" fill-rule="nonzero"/><g clip-path="url(#a757d28f2e)"><path stroke-linecap="butt" transform="matrix(0.129837, 0, 0, 0.129837, 1.761216, -2.484937)" fill="none" stroke-linejoin="miter" d="M 168.183198 391.480064 L 386.244689 391.480064 C 387.357861 391.480064 388.440948 391.72075 389.493949 392.14195 C 390.516865 392.563151 391.449523 393.194952 392.261838 393.977181 C 393.044067 394.789496 393.645782 395.692069 394.097068 396.74507 C 394.518269 397.798071 394.728869 398.881158 394.728869 399.99433 L 394.728869 425.236271 C 394.728869 426.37953 394.518269 427.462617 394.097068 428.485532 C 393.645782 429.538533 393.044067 430.471191 392.261838 431.253421 C 391.449523 432.065736 390.516865 432.667451 389.493949 433.088651 C 388.440948 433.539938 387.357861 433.750538 386.244689 433.750538 L 168.183198 433.750538 C 167.03994 433.750538 165.956853 433.539938 164.903852 433.088651 C 163.880937 432.667451 162.948279 432.065736 162.166049 431.253421 C 161.353734 430.471191 160.752019 429.538533 160.300733 428.485532 C 159.879532 427.462617 159.668932 426.37953 159.668932 425.236271 L 159.668932 399.99433 C 159.668932 398.881158 159.879532 397.798071 160.300733 396.74507 C 160.752019 395.692069 161.353734 394.789496 162.166049 393.977181 C 162.948279 393.194952 163.880937 392.563151 164.903852 392.14195 C 165.956853 391.72075 167.03994 391.480064 168.183198 391.480064 Z M 168.183198 391.480064 " stroke="#5e6175" stroke-width="6" stroke-opacity="1" stroke-miterlimit="10"/></g><g clip-path="url(#502b4135dd)"><path fill="#f5f5f5" d="M 17.546875 53.832031 L 45.859375 53.832031 C 46.003906 53.832031 46.148438 53.859375 46.28125 53.914062 C 46.417969 53.972656 46.535156 54.050781 46.640625 54.152344 C 46.742188 54.257812 46.824219 54.378906 46.878906 54.511719 C 46.9375 54.648438 46.964844 54.789062 46.964844 54.9375 L 46.964844 58.210938 C 46.964844 58.359375 46.9375 58.5 46.878906 58.636719 C 46.824219 58.769531 46.742188 58.890625 46.640625 58.992188 C 46.535156 59.097656 46.417969 59.175781 46.28125 59.234375 C 46.148438 59.289062 46.003906 59.316406 45.859375 59.316406 L 17.546875 59.316406 C 17.398438 59.316406 17.257812 59.289062 17.125 59.234375 C 16.988281 59.175781 16.867188 59.097656 16.765625 58.992188 C 16.660156 58.890625 16.582031 58.769531 16.527344 58.636719 C 16.46875 58.5 16.441406 58.359375 16.441406 58.210938 L 16.441406 54.9375 C 16.441406 54.789062 16.46875 54.648438 16.527344 54.511719 C 16.582031 54.378906 16.660156 54.257812 16.765625 54.152344 C 16.867188 54.050781 16.988281 53.972656 17.125 53.914062 C 17.257812 53.859375 17.398438 53.832031 17.546875 53.832031 Z M 17.546875 53.832031 " fill-opacity="1" fill-rule="nonzero"/></g><g clip-path="url(#18176f961f)"><path fill="#dcdfea" d="M 20.332031 53.832031 L 22.871094 53.832031 L 22.871094 59.316406 L 20.332031 59.316406 Z M 20.332031 53.832031 " fill-opacity="1" fill-rule="nonzero"/></g><g clip-path="url(#074f0c855d)"><path fill="#dcdfea" d="M 27.289062 53.832031 L 29.828125 53.832031 L 29.828125 59.316406 L 27.289062 59.316406 Z M 27.289062 53.832031 " fill-opacity="1" fill-rule="nonzero"/></g><g clip-path="url(#044d47642e)"><path fill="#dcdfea" d="M 34.242188 53.832031 L 36.785156 53.832031 L 36.785156 59.316406 L 34.242188 59.316406 Z M 34.242188 53.832031 " fill-opacity="1" fill-rule="nonzero"/></g><g clip-path="url(#5227ce2e93)"><path fill="#dcdfea" d="M 41.199219 53.832031 L 43.742188 53.832031 L 43.742188 59.316406 L 41.199219 59.316406 Z M 41.199219 53.832031 " fill-opacity="1" fill-rule="nonzero"/></g><g clip-path="url(#9b23ac98a7)"><path stroke-linecap="butt" transform="matrix(0.129837, 0, 0, 0.129837, 1.761216, -2.484937)" fill="none" stroke-linejoin="miter" d="M 121.580377 433.750538 L 339.641867 433.750538 C 340.75504 433.750538 341.868213 433.961138 342.891128 434.382338 C 343.944129 434.833625 344.846701 435.43534 345.659017 436.217569 C 346.441246 437.029884 347.073047 437.962542 347.494247 438.985458 C 347.945533 440.038459 348.156134 441.121546 348.156134 442.264804 L 348.156134 467.476659 C 348.156134 468.619918 347.945533 469.703005 347.494247 470.756006 C 347.073047 471.778921 346.441246 472.711579 345.659017 473.493809 C 344.846701 474.306124 343.944129 474.907839 342.891128 475.359125 C 341.868213 475.780325 340.75504 475.990926 339.641867 475.990926 L 121.580377 475.990926 C 120.437119 475.990926 119.354032 475.780325 118.331117 475.359125 C 117.278116 474.907839 116.345457 474.306124 115.563228 473.493809 C 114.750913 472.711579 114.149198 471.778921 113.727997 470.756006 C 113.276711 469.703005 113.066111 468.619918 113.066111 467.476659 L 113.066111 442.264804 C 113.066111 441.121546 113.276711 440.038459 113.727997 438.985458 C 114.149198 437.962542 114.750913 437.029884 115.563228 436.217569 C 116.345457 435.43534 117.278116 434.833625 118.331117 434.382338 C 119.354032 433.961138 120.437119 433.750538 121.580377 433.750538 Z M 121.580377 433.750538 " stroke="#5e6175" stroke-width="6" stroke-opacity="1" stroke-miterlimit="10"/></g><g clip-path="url(#a3d371b96b)"><path stroke-linecap="butt" transform="matrix(0.129837, 0, 0, 0.129837, 1.761216, -2.484937)" fill="none" stroke-linejoin="miter" d="M 60.566484 475.990926 L 414.946491 475.990926 " stroke="#5e6175" stroke-width="6" stroke-opacity="1" stroke-miterlimit="10"/></g><g clip-path="url(#e17c4718cf)"><path stroke-linecap="butt" transform="matrix(0.129837, 0, 0, 0.129837, 1.761216, -2.484937)" fill="none" stroke-linejoin="miter" d="M 88.486056 409.621769 L 103.258158 424.393871 " stroke="#5e6175" stroke-width="6" stroke-opacity="1" stroke-miterlimit="10"/></g><path stroke-linecap="butt" transform="matrix(0.129837, 0, 0, 0.129837, 1.761216, -2.484937)" fill="none" stroke-linejoin="miter" d="M 71.427438 441.602918 L 92.306946 441.602918 " stroke="#5e6175" stroke-width="6" stroke-opacity="1" stroke-miterlimit="10"/><path stroke-linecap="butt" transform="matrix(0.129837, 0, 0, 0.129837, 1.761216, -2.484937)" fill="none" stroke-linejoin="miter" d="M 119.203603 392.021607 L 119.203603 412.901115 " stroke="#5e6175" stroke-width="6" stroke-opacity="1" stroke-miterlimit="10"/><g clip-path="url(#f7ac960420)"><path stroke-linecap="butt" transform="matrix(0.129837, 0, 0, 0.129837, 1.761216, -2.484937)" fill="none" stroke-linejoin="miter" d="M 378.211794 270.114163 C 378.211794 274.085481 378.03128 278.0568 377.640165 281.998033 C 377.24905 285.969351 376.677421 289.880498 375.895192 293.791645 C 375.112962 297.672707 374.150219 301.523682 373.00696 305.344572 C 371.833616 309.135376 370.509843 312.866009 368.97547 316.566555 C 367.471183 320.237016 365.756295 323.81722 363.890979 327.337253 C 362.025663 330.827199 359.979832 334.226889 357.753487 337.536321 C 355.557227 340.845753 353.180453 344.034842 350.653251 347.103588 C 348.156134 350.172334 345.478502 353.120737 342.680528 355.948797 C 339.852468 358.746772 336.904064 361.424403 333.835318 363.92152 C 330.766572 366.448723 327.577483 368.825497 324.268051 371.021756 C 320.958619 373.248102 317.558929 375.293932 314.038897 377.159249 C 310.548951 379.024565 306.968747 380.739453 303.298286 382.24374 C 299.597739 383.778113 295.867106 385.101886 292.076302 386.27523 C 288.255412 387.418488 284.404437 388.381232 280.523376 389.163462 C 276.612229 389.945691 272.670996 390.51732 268.729763 390.908435 C 264.758445 391.29955 260.817212 391.480064 256.815807 391.480064 C 252.844489 391.480064 248.87317 391.29955 244.931938 390.908435 C 240.960619 390.51732 237.049472 389.945691 233.138325 389.163462 C 229.257264 388.381232 225.406288 387.418488 221.585398 386.27523 C 217.794594 385.101886 214.063962 383.778113 210.363415 382.24374 C 206.692954 380.739453 203.11275 379.024565 199.592718 377.159249 C 196.102771 375.293932 192.703082 373.248102 189.39365 371.021756 C 186.084218 368.825497 182.895128 366.448723 179.826382 363.92152 C 176.757636 361.424403 173.809233 358.746772 170.981173 355.948797 C 168.183198 353.120737 165.505567 350.172334 163.00845 347.103588 C 160.481247 344.034842 158.104473 340.845753 155.908214 337.536321 C 153.681869 334.226889 151.636038 330.827199 149.770722 327.337253 C 147.905405 323.81722 146.190518 320.237016 144.686231 316.566555 C 143.151857 312.866009 141.828085 309.135376 140.654741 305.344572 C 139.511482 301.523682 138.548738 297.672707 137.766509 293.791645 C 136.984279 289.880498 136.41265 285.969351 136.021536 281.998033 C 135.630421 278.0568 135.449906 274.085481 135.449906 270.114163 C 135.449906 266.112759 135.630421 262.171526 136.021536 258.200207 C 136.41265 254.258975 136.984279 250.317742 137.766509 246.406595 C 138.548738 242.525533 139.511482 238.674558 140.654741 234.853668 C 141.828085 231.062864 143.151857 227.332232 144.686231 223.631685 C 146.190518 219.961224 147.905405 216.38102 149.770722 212.891073 C 151.636038 209.371041 153.681869 205.971352 155.908214 202.661919 C 158.104473 199.352487 160.481247 196.163398 163.00845 193.094652 C 165.505567 190.025906 168.183198 187.077503 170.981173 184.249443 C 173.809233 181.451468 176.757636 178.773837 179.826382 176.27672 C 182.895128 173.749517 186.084218 171.372743 189.39365 169.176484 C 192.703082 166.950138 196.102771 164.904308 199.592718 163.038991 C 203.11275 161.173675 206.692954 159.458788 210.363415 157.9545 C 214.063962 156.420127 217.794594 155.096354 221.585398 153.92301 C 225.406288 152.779752 229.257264 151.817008 233.138325 151.034779 C 237.049472 150.252549 240.960619 149.68092 244.931938 149.289805 C 248.87317 148.898691 252.844489 148.718176 256.815807 148.718176 C 260.817212 148.718176 264.758445 148.898691 268.729763 149.289805 C 272.670996 149.68092 276.612229 150.252549 280.523376 151.034779 C 284.404437 151.817008 288.255412 152.779752 292.076302 153.92301 C 295.867106 155.096354 299.597739 156.420127 303.298286 157.9545 C 306.968747 159.458788 310.548951 161.173675 314.038897 163.038991 C 317.558929 164.904308 320.958619 166.950138 324.268051 169.176484 C 327.577483 171.372743 330.766572 173.749517 333.835318 176.27672 C 336.904064 178.773837 339.852468 181.451468 342.680528 184.249443 C 345.478502 187.077503 348.156134 190.025906 350.653251 193.094652 C 353.180453 196.163398 355.557227 199.352487 357.753487 202.661919 C 359.979832 205.971352 362.025663 209.371041 363.890979 212.891073 C 365.756295 216.38102 367.471183 219.961224 368.97547 223.631685 C 370.509843 227.332232 371.833616 231.062864 373.00696 234.853668 C 374.150219 238.674558 375.112962 242.525533 375.895192 246.406595 C 376.677421 250.317742 377.24905 254.258975 377.640165 258.200207 C 378.03128 262.171526 378.211794 266.112759 378.211794 270.114163 Z M 378.211794 270.114163 " stroke="#5e6175" stroke-width="6" stroke-opacity="1" stroke-miterlimit="10"/></g><g clip-path="url(#cc8f81bd18)"><path fill="#f5f5f5" d="M 8.679688 5.289062 L 8.679688 17.398438 C 8.679688 19.109375 10.066406 20.496094 11.777344 20.496094 L 14.015625 20.496094 L 17.179688 23.691406 L 17.179688 20.496094 L 58.21875 20.496094 C 59.933594 20.496094 61.320312 19.109375 61.320312 17.398438 L 61.320312 5.289062 C 61.320312 3.574219 59.929688 2.1875 58.21875 2.1875 L 11.777344 2.1875 C 10.066406 2.1875 8.679688 3.578125 8.679688 5.289062 Z M 8.679688 5.289062 " fill-opacity="1" fill-rule="nonzero"/></g><g clip-path="url(#8fff5c3482)"><path stroke-linecap="butt" transform="matrix(0.129837, 0, 0, 0.129837, 1.761216, -2.484937)" fill="none" stroke-linejoin="miter" d="M 53.285733 59.874967 L 53.285733 153.140781 C 53.285733 166.318338 63.966173 176.998778 77.14373 176.998778 L 94.382863 176.998778 L 118.752317 201.608918 L 118.752317 176.998778 L 434.833169 176.998778 C 448.040812 176.998778 458.721252 166.318338 458.721252 153.140781 L 458.721252 59.874967 C 458.721252 46.667324 448.010726 35.986884 434.833169 35.986884 L 77.14373 35.986884 C 63.966173 35.986884 53.285733 46.69741 53.285733 59.874967 Z M 53.285733 59.874967 " stroke="#5e6175" stroke-width="6" stroke-opacity="1" stroke-miterlimit="10"/></g><path fill="#000000" d="M 15.597656 15.117188 L 14.121094 15.117188 L 14.121094 9.75 C 13.585938 10.347656 13.039062 10.523438 12.953125 10.546875 L 12.550781 9.128906 L 12.53125 9.132812 C 12.554688 9.125 13.105469 8.925781 13.445312 8.042969 L 13.628906 7.570312 L 15.597656 7.570312 Z M 15.597656 15.117188 " fill-opacity="1" fill-rule="nonzero"/><path fill="#000000" d="M 28.332031 15.117188 L 26.855469 15.117188 L 26.855469 9.75 C 26.320312 10.347656 25.773438 10.523438 25.6875 10.546875 L 25.285156 9.128906 L 25.265625 9.132812 C 25.289062 9.125 25.835938 8.925781 26.179688 8.042969 L 26.363281 7.570312 L 28.332031 7.570312 Z M 28.332031 15.117188 " fill-opacity="1" fill-rule="nonzero"/><path fill="#000000" d="M 33.230469 15.117188 L 31.753906 15.117188 L 31.753906 9.75 C 31.21875 10.347656 30.671875 10.523438 30.585938 10.546875 L 30.183594 9.128906 L 30.164062 9.132812 C 30.1875 9.125 30.738281 8.925781 31.078125 8.042969 L 31.261719 7.570312 L 33.234375 7.570312 L 33.234375 15.113281 Z M 33.230469 15.117188 " fill-opacity="1" fill-rule="nonzero"/><path fill="#000000" d="M 38.132812 15.117188 L 36.65625 15.117188 L 36.65625 9.75 C 36.121094 10.347656 35.574219 10.523438 35.488281 10.546875 L 35.085938 9.128906 L 35.066406 9.132812 C 35.089844 9.125 35.636719 8.925781 35.980469 8.042969 L 36.164062 7.570312 L 38.132812 7.570312 Z M 38.132812 15.117188 " fill-opacity="1" fill-rule="nonzero"/><path fill="#000000" d="M 50.191406 15.117188 L 48.714844 15.117188 L 48.714844 9.75 C 48.179688 10.347656 47.632812 10.523438 47.546875 10.546875 L 47.144531 9.128906 L 47.125 9.132812 C 47.148438 9.125 47.695312 8.925781 48.039062 8.042969 L 48.222656 7.570312 L 50.191406 7.570312 Z M 50.191406 15.117188 " fill-opacity="1" fill-rule="nonzero"/><path fill="#000000" d="M 20.890625 15.082031 L 20.050781 15.082031 C 18.703125 15.082031 17.609375 13.984375 17.609375 12.636719 L 17.609375 10.039062 C 17.609375 8.691406 18.703125 7.59375 20.050781 7.59375 L 20.890625 7.59375 C 22.238281 7.59375 23.332031 8.691406 23.332031 10.039062 L 23.332031 12.636719 C 23.332031 13.984375 22.238281 15.082031 20.890625 15.082031 Z M 20.050781 9.058594 C 19.511719 9.058594 19.074219 9.5 19.074219 10.039062 L 19.074219 12.636719 C 19.074219 13.175781 19.511719 13.617188 20.050781 13.617188 L 20.890625 13.617188 C 21.429688 13.617188 21.867188 13.175781 21.867188 12.636719 L 21.867188 10.039062 C 21.867188 9.5 21.429688 9.058594 20.890625 9.058594 Z M 20.050781 9.058594 " fill-opacity="1" fill-rule="nonzero"/><path fill="#000000" d="M 43.117188 15.082031 L 42.277344 15.082031 C 40.929688 15.082031 39.832031 13.984375 39.832031 12.636719 L 39.832031 10.039062 C 39.832031 8.691406 40.929688 7.59375 42.277344 7.59375 L 43.117188 7.59375 C 44.464844 7.59375 45.558594 8.691406 45.558594 10.039062 L 45.558594 12.636719 C 45.558594 13.984375 44.464844 15.082031 43.117188 15.082031 Z M 42.277344 9.058594 C 41.738281 9.058594 41.300781 9.5 41.300781 10.039062 L 41.300781 12.636719 C 41.300781 13.175781 41.738281 13.617188 42.277344 13.617188 L 43.117188 13.617188 C 43.65625 13.617188 44.09375 13.175781 44.09375 12.636719 L 44.09375 10.039062 C 44.09375 9.5 43.65625 9.058594 43.117188 9.058594 Z M 42.277344 9.058594 " fill-opacity="1" fill-rule="nonzero"/><path fill="#000000" d="M 55.097656 15.082031 L 54.257812 15.082031 C 52.910156 15.082031 51.8125 13.984375 51.8125 12.636719 L 51.8125 10.039062 C 51.8125 8.691406 52.910156 7.59375 54.257812 7.59375 L 55.097656 7.59375 C 56.445312 7.59375 57.539062 8.691406 57.539062 10.039062 L 57.539062 12.636719 C 57.539062 13.984375 56.445312 15.082031 55.097656 15.082031 Z M 54.257812 9.058594 C 53.71875 9.058594 53.28125 9.5 53.28125 10.039062 L 53.28125 12.636719 C 53.28125 13.175781 53.71875 13.617188 54.257812 13.617188 L 55.097656 13.617188 C 55.632812 13.617188 56.074219 13.175781 56.074219 12.636719 L 56.074219 10.039062 C 56.074219 9.5 55.632812 9.058594 55.097656 9.058594 Z M 54.257812 9.058594 " fill-opacity="1" fill-rule="nonzero"/><g clip-path="url(#eed3fafaf2)"><g clip-path="url(#411d9a74b4)"><path fill="#f266ff" d="M 30.121094 27.4375 L 39.886719 27.4375 L 39.886719 37.1875 L 30.121094 37.1875 Z M 30.121094 27.4375 " fill-opacity="1" fill-rule="nonzero"/></g></g><g clip-path="url(#6704aea864)"><g clip-path="url(#1704ed1f70)"><path fill="#ff637e" d="M 30.121094 27.4375 L 39.886719 27.4375 L 39.886719 37.1875 L 30.121094 37.1875 Z M 30.121094 27.4375 " fill-opacity="1" fill-rule="nonzero"/></g></g><g clip-path="url(#37d92bfcb1)"><g clip-path="url(#ad150e0541)"><path fill="#00d7be" d="M 30.121094 27.4375 L 39.886719 27.4375 L 39.886719 37.1875 L 30.121094 37.1875 Z M 30.121094 27.4375 " fill-opacity="1" fill-rule="nonzero"/></g></g><g clip-path="url(#494a3bbab1)"><g clip-path="url(#e17af55cf0)"><path fill="#1f93ff" d="M 30.121094 27.4375 L 39.886719 27.4375 L 39.886719 37.1875 L 30.121094 37.1875 Z M 30.121094 27.4375 " fill-opacity="1" fill-rule="nonzero"/></g></g><g clip-path="url(#250ca3b9e0)"><g clip-path="url(#17ccbc6ffb)"><path fill="#ffd500" d="M 30.121094 27.4375 L 39.886719 27.4375 L 39.886719 37.1875 L 30.121094 37.1875 Z M 30.121094 27.4375 " fill-opacity="1" fill-rule="nonzero"/></g></g><g clip-path="url(#26f664e6fd)"><g clip-path="url(#237d17479c)"><path fill="#1f93ff" d="M 30.121094 27.4375 L 39.886719 27.4375 L 39.886719 37.1875 L 30.121094 37.1875 Z M 30.121094 27.4375 " fill-opacity="1" fill-rule="nonzero"/></g></g><g clip-path="url(#0e07a7b2db)"><g clip-path="url(#e16f90830f)"><path fill="#f266ff" d="M 30.121094 27.4375 L 39.886719 27.4375 L 39.886719 37.1875 L 30.121094 37.1875 Z M 30.121094 27.4375 " fill-opacity="1" fill-rule="nonzero"/></g></g><g clip-path="url(#13b695dc49)"><g clip-path="url(#13fafd5840)"><path fill="#1f93ff" d="M 30.121094 27.4375 L 39.886719 27.4375 L 39.886719 37.1875 L 30.121094 37.1875 Z M 30.121094 27.4375 " fill-opacity="1" fill-rule="nonzero"/></g></g><g clip-path="url(#588512a658)"><g clip-path="url(#2cb1df2ed5)"><path fill="#ffcf00" d="M 30.121094 27.4375 L 39.886719 27.4375 L 39.886719 37.1875 L 30.121094 37.1875 Z M 30.121094 27.4375 " fill-opacity="1" fill-rule="nonzero"/></g></g><g clip-path="url(#7b10c88c00)"><g clip-path="url(#0888889dc9)"><path fill="#61d742" d="M 30.121094 27.4375 L 39.886719 27.4375 L 39.886719 37.1875 L 30.121094 37.1875 Z M 30.121094 27.4375 " fill-opacity="1" fill-rule="nonzero"/></g></g><g clip-path="url(#b0746132da)"><g clip-path="url(#d4bac40de5)"><path fill="#1f93ff" d="M 30.121094 27.4375 L 39.886719 27.4375 L 39.886719 37.1875 L 30.121094 37.1875 Z M 30.121094 27.4375 " fill-opacity="1" fill-rule="nonzero"/></g></g><g clip-path="url(#b2e23efba3)"><g clip-path="url(#f443482e46)"><path fill="#1f93ff" d="M 30.121094 27.4375 L 39.886719 27.4375 L 39.886719 37.1875 L 30.121094 37.1875 Z M 30.121094 27.4375 " fill-opacity="1" fill-rule="nonzero"/></g></g><g clip-path="url(#179f89c592)"><g clip-path="url(#42203bbbe8)"><path fill="#ff7a78" d="M 30.121094 27.4375 L 39.886719 27.4375 L 39.886719 37.1875 L 30.121094 37.1875 Z M 30.121094 27.4375 " fill-opacity="1" fill-rule="nonzero"/></g></g><g clip-path="url(#2961db6c40)"><g clip-path="url(#6015a7b0bf)"><path fill="#ffcf00" d="M 30.121094 27.4375 L 39.886719 27.4375 L 39.886719 37.1875 L 30.121094 37.1875 Z M 30.121094 27.4375 " fill-opacity="1" fill-rule="nonzero"/></g></g></svg>