<svg xmlns="http://www.w3.org/2000/svg" xmlns:xlink="http://www.w3.org/1999/xlink" width="94" zoomAndPan="magnify" viewBox="0 0 70.5 62.249996" height="83" preserveAspectRatio="xMidYMid meet" version="1.0"><defs><clipPath id="517c683047"><path d="M 1.789062 3.605469 L 68.488281 3.605469 L 68.488281 57.703125 L 1.789062 57.703125 Z M 1.789062 3.605469 " clip-rule="nonzero"/></clipPath><clipPath id="4317d1d009"><path d="M 25.753906 25.191406 L 26.542969 25.191406 L 26.542969 25.488281 L 25.753906 25.488281 Z M 25.753906 25.191406 " clip-rule="nonzero"/></clipPath><clipPath id="be3d32af7f"><path d="M 25.753906 25.328125 C 25.828125 25.21875 25.964844 25.167969 26.089844 25.203125 L 26.496094 25.308594 C 26.546875 25.320312 26.554688 25.394531 26.507812 25.421875 L 26.417969 25.464844 C 26.378906 25.484375 26.335938 25.488281 26.296875 25.476562 Z M 25.753906 25.328125 " clip-rule="nonzero"/></clipPath><clipPath id="ba6bea250b"><path d="M 26.761719 26.367188 L 27.6875 26.367188 L 27.6875 27.667969 L 26.761719 27.667969 Z M 26.761719 26.367188 " clip-rule="nonzero"/></clipPath><clipPath id="97d93051e4"><path d="M 26.855469 26.40625 C 26.9375 26.367188 27.011719 26.355469 27.074219 26.390625 C 27.15625 26.441406 27.222656 26.511719 27.261719 26.601562 L 27.660156 27.4375 C 27.6875 27.496094 27.6875 27.570312 27.65625 27.628906 C 27.632812 27.671875 27.574219 27.671875 27.550781 27.628906 L 27.144531 26.835938 C 27.078125 26.707031 26.960938 26.609375 26.824219 26.5625 L 26.816406 26.558594 C 26.757812 26.539062 26.75 26.460938 26.804688 26.433594 Z M 26.855469 26.40625 " clip-rule="nonzero"/></clipPath><clipPath id="b63ddda366"><path d="M 25.3125 25.863281 L 28.042969 25.863281 L 28.042969 27.027344 L 25.3125 27.027344 Z M 25.3125 25.863281 " clip-rule="nonzero"/></clipPath><clipPath id="0561cb3f6f"><path d="M 25.335938 25.933594 C 25.375 25.878906 25.445312 25.851562 25.511719 25.875 L 26.308594 26.132812 C 26.347656 26.144531 26.394531 26.140625 26.429688 26.125 L 26.898438 25.898438 C 26.9375 25.878906 26.980469 25.875 27.019531 25.886719 L 27.128906 25.917969 C 27.308594 25.972656 27.457031 26.105469 27.527344 26.277344 L 27.597656 26.453125 C 27.613281 26.488281 27.648438 26.511719 27.6875 26.507812 L 27.890625 26.5 C 27.929688 26.496094 27.964844 26.523438 27.976562 26.558594 L 28.011719 26.660156 C 28.054688 26.777344 28.042969 26.910156 27.984375 27.023438 L 27.875 26.734375 C 27.859375 26.699219 27.824219 26.675781 27.785156 26.675781 L 27.558594 26.683594 C 27.519531 26.683594 27.484375 26.664062 27.46875 26.625 L 27.378906 26.425781 C 27.320312 26.292969 27.207031 26.195312 27.070312 26.152344 L 26.960938 26.117188 L 26.414062 26.375 C 26.375 26.390625 26.332031 26.394531 26.292969 26.378906 L 25.378906 26.070312 C 25.324219 26.050781 25.300781 25.984375 25.335938 25.933594 " clip-rule="nonzero"/></clipPath><clipPath id="66d1638089"><path d="M 25.5625 25.425781 L 27.863281 25.425781 L 27.863281 26.359375 L 25.5625 26.359375 Z M 25.5625 25.425781 " clip-rule="nonzero"/></clipPath><clipPath id="8265c3b705"><path d="M 27.855469 26.203125 C 27.882812 26.285156 27.828125 26.386719 27.75 26.347656 C 27.730469 26.335938 27.714844 26.320312 27.707031 26.296875 L 27.605469 26.03125 C 27.554688 25.898438 27.441406 25.796875 27.304688 25.757812 L 26.996094 25.671875 C 26.957031 25.660156 26.914062 25.664062 26.875 25.683594 L 26.410156 25.902344 C 26.371094 25.921875 26.328125 25.921875 26.289062 25.910156 L 25.621094 25.707031 C 25.570312 25.691406 25.546875 25.625 25.578125 25.578125 C 25.617188 25.523438 25.6875 25.5 25.75 25.519531 L 26.277344 25.671875 C 26.316406 25.683594 26.359375 25.679688 26.398438 25.660156 L 26.847656 25.445312 C 26.886719 25.425781 26.929688 25.421875 26.96875 25.433594 L 27.359375 25.535156 C 27.539062 25.582031 27.683594 25.714844 27.746094 25.890625 Z M 27.855469 26.203125 " clip-rule="nonzero"/></clipPath><clipPath id="3163cf663f"><path d="M 27.554688 26.824219 L 27.875 26.824219 L 27.875 27.308594 L 27.554688 27.308594 Z M 27.554688 26.824219 " clip-rule="nonzero"/></clipPath><clipPath id="1881570298"><path d="M 27.683594 26.824219 C 27.722656 26.824219 27.757812 26.847656 27.773438 26.882812 L 27.855469 27.085938 C 27.882812 27.148438 27.878906 27.21875 27.847656 27.277344 C 27.824219 27.316406 27.769531 27.3125 27.753906 27.273438 L 27.558594 26.832031 Z M 27.683594 26.824219 " clip-rule="nonzero"/></clipPath><clipPath id="d9e9900c44"><path d="M 24.847656 26.574219 L 25.324219 26.574219 L 25.324219 26.980469 L 24.847656 26.980469 Z M 24.847656 26.574219 " clip-rule="nonzero"/></clipPath><clipPath id="ecac856dde"><path d="M 24.882812 26.589844 L 24.890625 26.578125 L 25.234375 26.710938 C 25.273438 26.726562 25.300781 26.761719 25.308594 26.800781 L 25.320312 26.875 C 25.335938 26.941406 25.265625 26.996094 25.203125 26.96875 L 24.964844 26.871094 C 24.851562 26.824219 24.8125 26.691406 24.882812 26.589844 " clip-rule="nonzero"/></clipPath><clipPath id="e740ecdf50"><path d="M 25.0625 26.226562 L 26.882812 26.226562 L 26.882812 27.960938 L 25.0625 27.960938 Z M 25.0625 26.226562 " clip-rule="nonzero"/></clipPath><clipPath id="2afd8fe24d"><path d="M 25.082031 26.300781 C 25.121094 26.242188 25.195312 26.21875 25.265625 26.242188 L 25.644531 26.378906 C 25.679688 26.390625 25.710938 26.421875 25.71875 26.460938 L 25.800781 26.878906 C 25.808594 26.917969 25.839844 26.949219 25.875 26.964844 L 26.4375 27.1875 C 26.582031 27.242188 26.707031 27.34375 26.792969 27.472656 L 26.855469 27.574219 C 26.878906 27.609375 26.886719 27.652344 26.878906 27.691406 L 26.828125 27.957031 L 26.648438 27.699219 C 26.5625 27.578125 26.445312 27.484375 26.308594 27.429688 L 25.640625 27.152344 C 25.601562 27.136719 25.574219 27.101562 25.570312 27.0625 L 25.492188 26.640625 C 25.484375 26.601562 25.457031 26.566406 25.421875 26.554688 L 25.125 26.441406 C 25.066406 26.421875 25.046875 26.351562 25.082031 26.300781 " clip-rule="nonzero"/></clipPath><clipPath id="89c38b00a7"><path d="M 27.328125 27.761719 L 27.484375 27.761719 L 27.484375 28.03125 L 27.328125 28.03125 Z M 27.328125 27.761719 " clip-rule="nonzero"/></clipPath><clipPath id="f3c8337862"><path d="M 27.457031 27.796875 C 27.488281 27.859375 27.488281 27.933594 27.457031 27.996094 C 27.433594 28.039062 27.367188 28.042969 27.347656 27.996094 C 27.335938 27.964844 27.332031 27.933594 27.335938 27.902344 L 27.351562 27.8125 C 27.359375 27.761719 27.429688 27.746094 27.453125 27.792969 Z M 27.457031 27.796875 " clip-rule="nonzero"/></clipPath><clipPath id="06a25bfe71"><path d="M 25.964844 26.53125 L 27.308594 26.53125 L 27.308594 28.351562 L 25.964844 28.351562 Z M 25.964844 26.53125 " clip-rule="nonzero"/></clipPath><clipPath id="7f15783e03"><path d="M 26.902344 27.261719 C 26.824219 27.136719 26.707031 27.039062 26.570312 26.988281 L 26.054688 26.792969 C 26.019531 26.777344 25.992188 26.746094 25.984375 26.707031 L 25.96875 26.640625 C 25.957031 26.570312 26.023438 26.511719 26.089844 26.539062 L 26.671875 26.746094 C 26.832031 26.800781 26.96875 26.917969 27.050781 27.066406 L 27.234375 27.402344 C 27.257812 27.4375 27.261719 27.480469 27.257812 27.519531 L 27.175781 27.984375 C 27.167969 28.023438 27.175781 28.066406 27.199219 28.101562 L 27.308594 28.269531 C 27.257812 28.363281 27.125 28.371094 27.0625 28.285156 L 26.984375 28.171875 C 26.960938 28.136719 26.949219 28.09375 26.957031 28.054688 L 27.042969 27.578125 C 27.050781 27.539062 27.042969 27.496094 27.019531 27.460938 Z M 26.902344 27.261719 " clip-rule="nonzero"/></clipPath><clipPath id="cf97979de6"><path d="M 25.863281 27.636719 L 27 27.636719 L 27 28.382812 L 25.863281 28.382812 Z M 25.863281 27.636719 " clip-rule="nonzero"/></clipPath><clipPath id="b9d96a4756"><path d="M 26.21875 27.863281 C 26.1875 27.832031 26.152344 27.808594 26.113281 27.792969 L 25.867188 27.683594 L 25.917969 27.652344 C 25.949219 27.632812 25.992188 27.628906 26.03125 27.644531 L 26.136719 27.691406 C 26.175781 27.710938 26.210938 27.734375 26.242188 27.765625 L 26.515625 28.027344 C 26.546875 28.058594 26.582031 28.082031 26.621094 28.097656 L 26.878906 28.214844 L 27 28.375 L 26.578125 28.183594 C 26.539062 28.167969 26.503906 28.144531 26.472656 28.113281 Z M 26.21875 27.863281 " clip-rule="nonzero"/></clipPath><clipPath id="c00c832c24"><path d="M 26.40625 27.8125 L 26.789062 27.8125 L 26.789062 28.09375 L 26.40625 28.09375 Z M 26.40625 27.8125 " clip-rule="nonzero"/></clipPath><clipPath id="15b527eeae"><path d="M 26.40625 27.8125 L 26.65625 27.921875 L 26.785156 28.089844 L 26.648438 28.03125 C 26.609375 28.015625 26.574219 27.988281 26.546875 27.957031 Z M 26.40625 27.8125 " clip-rule="nonzero"/></clipPath><clipPath id="2ca72bcea0"><path d="M 25.355469 27.527344 L 26.34375 27.527344 L 26.34375 28.082031 L 25.355469 28.082031 Z M 25.355469 27.527344 " clip-rule="nonzero"/></clipPath><clipPath id="c84802cd6b"><path d="M 26.339844 28.078125 L 25.742188 27.808594 C 25.601562 27.746094 25.472656 27.65625 25.371094 27.542969 L 25.359375 27.53125 L 26.050781 27.84375 C 26.089844 27.859375 26.128906 27.882812 26.160156 27.914062 Z M 26.339844 28.078125 " clip-rule="nonzero"/></clipPath><clipPath id="bbdbe8355d"><path d="M 25.1875 27.269531 L 26.574219 27.269531 L 26.574219 27.804688 L 25.1875 27.804688 Z M 25.1875 27.269531 " clip-rule="nonzero"/></clipPath><clipPath id="f1bc596d74"><path d="M 25.191406 27.273438 L 25.65625 27.480469 C 25.691406 27.496094 25.734375 27.492188 25.765625 27.46875 L 25.847656 27.417969 C 25.878906 27.394531 25.921875 27.390625 25.960938 27.40625 L 26.226562 27.519531 C 26.367188 27.578125 26.484375 27.675781 26.570312 27.796875 L 25.996094 27.546875 C 25.957031 27.53125 25.914062 27.535156 25.882812 27.554688 L 25.8125 27.597656 C 25.777344 27.621094 25.734375 27.625 25.695312 27.605469 L 25.351562 27.453125 C 25.3125 27.433594 25.277344 27.40625 25.257812 27.371094 Z M 25.191406 27.273438 " clip-rule="nonzero"/></clipPath><clipPath id="c0b108d719"><path d="M 25.015625 27.007812 L 25.785156 27.007812 L 25.785156 27.394531 L 25.015625 27.394531 Z M 25.015625 27.007812 " clip-rule="nonzero"/></clipPath><clipPath id="71b6fda31b"><path d="M 25.019531 27.007812 L 25.78125 27.332031 L 25.726562 27.371094 C 25.695312 27.390625 25.652344 27.398438 25.613281 27.378906 L 25.183594 27.191406 C 25.144531 27.175781 25.109375 27.148438 25.085938 27.113281 Z M 25.019531 27.007812 " clip-rule="nonzero"/></clipPath></defs><g clip-path="url(#517c683047)"><path fill="#5271ff" d="M 26.511719 24.726562 C 27.640625 24.726562 28.550781 25.640625 28.550781 26.765625 C 28.550781 27.894531 27.640625 28.804688 26.511719 28.804688 C 25.386719 28.804688 24.472656 27.894531 24.472656 26.765625 C 24.472656 25.640625 25.386719 24.726562 26.511719 24.726562 Z M 7.914062 38.03125 L 12.074219 54.113281 C 12.273438 54.890625 11.804688 55.691406 11.027344 55.894531 L 7.929688 56.695312 C 7.152344 56.898438 6.351562 56.425781 6.148438 55.648438 L 1.988281 39.566406 C 1.789062 38.789062 2.257812 37.988281 3.035156 37.785156 L 6.132812 36.984375 C 6.910156 36.78125 7.710938 37.253906 7.914062 38.03125 Z M 31.949219 57.328125 L 52.34375 51.21875 C 53.332031 50.921875 53.808594 49.507812 53.523438 48.566406 C 52.875 46.425781 49.164062 47.175781 47.671875 47.582031 L 36.902344 50.511719 C 34.59375 51.140625 32.234375 50.605469 30.1875 49.421875 C 28.054688 48.363281 26.066406 47.085938 24.011719 45.898438 C 23.484375 45.597656 23.304688 44.925781 23.605469 44.402344 C 23.90625 43.875 24.578125 43.695312 25.101562 43.996094 C 27.117188 45.160156 29.078125 46.417969 31.164062 47.453125 C 33.707031 48.476562 34.773438 45.539062 32.988281 44.296875 C 30.105469 42.929688 27.457031 41.085938 25.371094 39.632812 C 22.394531 37.558594 21.648438 37.046875 17.882812 38.0625 L 10.699219 40 L 13.226562 49.773438 C 13.765625 49.628906 14.382812 49.351562 14.914062 49.65625 L 27.132812 56.710938 C 28.820312 57.550781 30.074219 57.886719 31.949219 57.328125 Z M 5.457031 39.320312 C 4.910156 39.253906 4.417969 39.644531 4.355469 40.191406 C 4.289062 40.734375 4.679688 41.230469 5.226562 41.292969 C 5.769531 41.355469 6.261719 40.964844 6.328125 40.421875 C 6.390625 39.875 6 39.382812 5.457031 39.320312 Z M 62.085938 23.46875 L 57.925781 7.386719 C 57.726562 6.609375 58.195312 5.808594 58.972656 5.609375 L 62.070312 4.808594 C 62.847656 4.605469 63.648438 5.078125 63.851562 5.855469 L 68.011719 21.9375 C 68.210938 22.714844 67.742188 23.515625 66.964844 23.71875 L 63.867188 24.519531 C 63.089844 24.71875 62.289062 24.246094 62.085938 23.46875 Z M 38.050781 4.171875 L 17.65625 10.285156 C 16.671875 10.578125 16.191406 11.996094 16.476562 12.933594 C 17.125 15.078125 20.835938 14.328125 22.328125 13.921875 L 33.097656 10.992188 C 35.40625 10.363281 37.765625 10.898438 39.8125 12.082031 C 41.945312 13.136719 43.933594 14.414062 45.988281 15.601562 C 46.515625 15.90625 46.695312 16.574219 46.394531 17.101562 C 46.09375 17.625 45.421875 17.808594 44.898438 17.503906 C 42.882812 16.34375 40.921875 15.085938 38.835938 14.046875 C 36.292969 13.027344 35.226562 15.964844 37.011719 17.203125 C 39.894531 18.570312 42.546875 20.417969 44.628906 21.871094 C 47.605469 23.945312 48.351562 24.457031 52.117188 23.441406 L 59.304688 21.503906 L 56.773438 11.730469 C 56.234375 11.875 55.617188 12.148438 55.085938 11.847656 L 42.867188 4.789062 C 41.183594 3.949219 39.925781 3.613281 38.050781 4.171875 Z M 64.542969 22.183594 C 65.089844 22.246094 65.582031 21.859375 65.648438 21.3125 C 65.710938 20.765625 65.320312 20.273438 64.777344 20.210938 C 64.230469 20.144531 63.738281 20.535156 63.671875 21.082031 C 63.609375 21.625 64 22.121094 64.542969 22.183594 Z M 48.914062 39.699219 L 47.515625 35.140625 L 34.808594 27.804688 C 34.882812 25.363281 33.644531 22.960938 31.382812 21.652344 C 28.097656 19.757812 23.902344 20.882812 22.007812 24.164062 C 20.113281 27.449219 21.238281 31.644531 24.519531 33.539062 C 26.78125 34.847656 29.480469 34.714844 31.558594 33.433594 L 37.0625 36.613281 L 39.582031 35.800781 L 40.140625 38.386719 L 42.660156 37.578125 L 43.21875 40.164062 L 44.265625 40.769531 Z M 48.914062 39.699219 " fill-opacity="1" fill-rule="evenodd"/></g><g clip-path="url(#4317d1d009)"><g clip-path="url(#be3d32af7f)"><path fill="#f266ff" d="M 24.816406 25.160156 L 28.070312 25.160156 L 28.070312 28.40625 L 24.816406 28.40625 Z M 24.816406 25.160156 " fill-opacity="1" fill-rule="nonzero"/></g></g><g clip-path="url(#ba6bea250b)"><g clip-path="url(#97d93051e4)"><path fill="#ff637e" d="M 24.816406 25.160156 L 28.070312 25.160156 L 28.070312 28.40625 L 24.816406 28.40625 Z M 24.816406 25.160156 " fill-opacity="1" fill-rule="nonzero"/></g></g><g clip-path="url(#b63ddda366)"><g clip-path="url(#0561cb3f6f)"><path fill="#00d7be" d="M 24.816406 25.160156 L 28.070312 25.160156 L 28.070312 28.40625 L 24.816406 28.40625 Z M 24.816406 25.160156 " fill-opacity="1" fill-rule="nonzero"/></g></g><g clip-path="url(#66d1638089)"><g clip-path="url(#8265c3b705)"><path fill="#1f93ff" d="M 24.816406 25.160156 L 28.070312 25.160156 L 28.070312 28.40625 L 24.816406 28.40625 Z M 24.816406 25.160156 " fill-opacity="1" fill-rule="nonzero"/></g></g><g clip-path="url(#3163cf663f)"><g clip-path="url(#1881570298)"><path fill="#ffd500" d="M 24.816406 25.160156 L 28.070312 25.160156 L 28.070312 28.40625 L 24.816406 28.40625 Z M 24.816406 25.160156 " fill-opacity="1" fill-rule="nonzero"/></g></g><g clip-path="url(#d9e9900c44)"><g clip-path="url(#ecac856dde)"><path fill="#1f93ff" d="M 24.816406 25.160156 L 28.070312 25.160156 L 28.070312 28.40625 L 24.816406 28.40625 Z M 24.816406 25.160156 " fill-opacity="1" fill-rule="nonzero"/></g></g><g clip-path="url(#e740ecdf50)"><g clip-path="url(#2afd8fe24d)"><path fill="#f266ff" d="M 24.816406 25.160156 L 28.070312 25.160156 L 28.070312 28.40625 L 24.816406 28.40625 Z M 24.816406 25.160156 " fill-opacity="1" fill-rule="nonzero"/></g></g><g clip-path="url(#89c38b00a7)"><g clip-path="url(#f3c8337862)"><path fill="#1f93ff" d="M 24.816406 25.160156 L 28.070312 25.160156 L 28.070312 28.40625 L 24.816406 28.40625 Z M 24.816406 25.160156 " fill-opacity="1" fill-rule="nonzero"/></g></g><g clip-path="url(#06a25bfe71)"><g clip-path="url(#7f15783e03)"><path fill="#ffcf00" d="M 24.816406 25.160156 L 28.070312 25.160156 L 28.070312 28.40625 L 24.816406 28.40625 Z M 24.816406 25.160156 " fill-opacity="1" fill-rule="nonzero"/></g></g><g clip-path="url(#cf97979de6)"><g clip-path="url(#b9d96a4756)"><path fill="#61d742" d="M 24.816406 25.160156 L 28.070312 25.160156 L 28.070312 28.40625 L 24.816406 28.40625 Z M 24.816406 25.160156 " fill-opacity="1" fill-rule="nonzero"/></g></g><g clip-path="url(#c00c832c24)"><g clip-path="url(#15b527eeae)"><path fill="#1f93ff" d="M 24.816406 25.160156 L 28.070312 25.160156 L 28.070312 28.40625 L 24.816406 28.40625 Z M 24.816406 25.160156 " fill-opacity="1" fill-rule="nonzero"/></g></g><g clip-path="url(#2ca72bcea0)"><g clip-path="url(#c84802cd6b)"><path fill="#1f93ff" d="M 24.816406 25.160156 L 28.070312 25.160156 L 28.070312 28.40625 L 24.816406 28.40625 Z M 24.816406 25.160156 " fill-opacity="1" fill-rule="nonzero"/></g></g><g clip-path="url(#bbdbe8355d)"><g clip-path="url(#f1bc596d74)"><path fill="#ff7a78" d="M 24.816406 25.160156 L 28.070312 25.160156 L 28.070312 28.40625 L 24.816406 28.40625 Z M 24.816406 25.160156 " fill-opacity="1" fill-rule="nonzero"/></g></g><g clip-path="url(#c0b108d719)"><g clip-path="url(#71b6fda31b)"><path fill="#ffcf00" d="M 24.816406 25.160156 L 28.070312 25.160156 L 28.070312 28.40625 L 24.816406 28.40625 Z M 24.816406 25.160156 " fill-opacity="1" fill-rule="nonzero"/></g></g></svg>