<svg xmlns="http://www.w3.org/2000/svg" xmlns:xlink="http://www.w3.org/1999/xlink" width="94" zoomAndPan="magnify" viewBox="0 0 70.5 62.249996" height="83" preserveAspectRatio="xMidYMid meet" version="1.0"><defs><clipPath id="8fc6fafd1e"><path d="M 5 0.753906 L 65.027344 0.753906 L 65.027344 60.78125 L 5 60.78125 Z M 5 0.753906 " clip-rule="nonzero"/></clipPath><clipPath id="6a97f8890b"><path d="M 9.414062 17.558594 L 10.5625 17.558594 L 10.5625 17.988281 L 9.414062 17.988281 Z M 9.414062 17.558594 " clip-rule="nonzero"/></clipPath><clipPath id="8a445e5d4c"><path d="M 9.414062 17.753906 C 9.523438 17.597656 9.71875 17.523438 9.902344 17.574219 L 10.488281 17.726562 C 10.570312 17.746094 10.578125 17.855469 10.507812 17.890625 L 10.378906 17.957031 C 10.324219 17.984375 10.261719 17.988281 10.203125 17.972656 Z M 9.414062 17.753906 " clip-rule="nonzero"/></clipPath><clipPath id="96f945cb91"><path d="M 10.878906 19.261719 L 12.21875 19.261719 L 12.21875 21.148438 L 10.878906 21.148438 Z M 10.878906 19.261719 " clip-rule="nonzero"/></clipPath><clipPath id="bf07a7676e"><path d="M 11.011719 19.320312 C 11.132812 19.261719 11.242188 19.246094 11.328125 19.296875 C 11.449219 19.367188 11.542969 19.476562 11.605469 19.601562 L 12.179688 20.8125 C 12.222656 20.902344 12.21875 21.007812 12.171875 21.09375 C 12.140625 21.15625 12.054688 21.152344 12.023438 21.09375 L 11.429688 19.945312 C 11.335938 19.757812 11.167969 19.613281 10.96875 19.546875 L 10.953125 19.539062 C 10.871094 19.511719 10.863281 19.398438 10.941406 19.355469 Z M 11.011719 19.320312 " clip-rule="nonzero"/></clipPath><clipPath id="aad2f14e06"><path d="M 8.773438 18.53125 L 12.738281 18.53125 L 12.738281 20.21875 L 8.773438 20.21875 Z M 8.773438 18.53125 " clip-rule="nonzero"/></clipPath><clipPath id="9f1ea63320"><path d="M 8.808594 18.636719 C 8.863281 18.554688 8.96875 18.515625 9.066406 18.546875 L 10.222656 18.921875 C 10.28125 18.941406 10.34375 18.9375 10.398438 18.910156 L 11.078125 18.582031 C 11.132812 18.558594 11.195312 18.550781 11.253906 18.570312 L 11.410156 18.613281 C 11.671875 18.691406 11.886719 18.882812 11.988281 19.136719 L 12.089844 19.386719 C 12.113281 19.4375 12.164062 19.472656 12.21875 19.46875 L 12.515625 19.457031 C 12.574219 19.453125 12.625 19.488281 12.640625 19.539062 L 12.691406 19.6875 C 12.753906 19.859375 12.738281 20.054688 12.648438 20.214844 L 12.492188 19.796875 C 12.46875 19.742188 12.417969 19.710938 12.363281 19.710938 L 12.03125 19.722656 C 11.976562 19.726562 11.921875 19.691406 11.902344 19.640625 L 11.773438 19.347656 C 11.6875 19.160156 11.523438 19.011719 11.324219 18.953125 L 11.167969 18.902344 L 10.375 19.273438 C 10.320312 19.300781 10.257812 19.300781 10.199219 19.28125 L 8.871094 18.832031 C 8.789062 18.800781 8.757812 18.707031 8.808594 18.636719 " clip-rule="nonzero"/></clipPath><clipPath id="ecd1c6ade8"><path d="M 9.140625 17.894531 L 12.472656 17.894531 L 12.472656 19.253906 L 9.140625 19.253906 Z M 9.140625 17.894531 " clip-rule="nonzero"/></clipPath><clipPath id="40771a55d4"><path d="M 12.460938 19.023438 C 12.503906 19.144531 12.421875 19.292969 12.308594 19.234375 C 12.28125 19.21875 12.261719 19.195312 12.25 19.164062 L 12.101562 18.773438 C 12.027344 18.582031 11.867188 18.433594 11.667969 18.378906 L 11.21875 18.253906 C 11.160156 18.238281 11.097656 18.242188 11.042969 18.269531 L 10.363281 18.589844 C 10.3125 18.617188 10.25 18.621094 10.191406 18.601562 L 9.226562 18.304688 C 9.148438 18.28125 9.117188 18.1875 9.160156 18.121094 C 9.21875 18.039062 9.320312 18.003906 9.414062 18.03125 L 10.175781 18.253906 C 10.234375 18.269531 10.296875 18.265625 10.351562 18.238281 L 11.003906 17.925781 C 11.058594 17.898438 11.121094 17.890625 11.179688 17.90625 L 11.746094 18.054688 C 12.003906 18.125 12.214844 18.316406 12.304688 18.574219 Z M 12.460938 19.023438 " clip-rule="nonzero"/></clipPath><clipPath id="dacb9f1543"><path d="M 12.027344 19.925781 L 12.492188 19.925781 L 12.492188 20.628906 L 12.027344 20.628906 Z M 12.027344 19.925781 " clip-rule="nonzero"/></clipPath><clipPath id="136f21f406"><path d="M 12.214844 19.929688 C 12.273438 19.925781 12.324219 19.957031 12.347656 20.011719 L 12.464844 20.304688 C 12.503906 20.394531 12.496094 20.496094 12.449219 20.582031 C 12.421875 20.636719 12.339844 20.632812 12.316406 20.578125 L 12.03125 19.9375 Z M 12.214844 19.929688 " clip-rule="nonzero"/></clipPath><clipPath id="bf68c657f7"><path d="M 8.101562 19.5625 L 8.792969 19.5625 L 8.792969 20.15625 L 8.101562 20.15625 Z M 8.101562 19.5625 " clip-rule="nonzero"/></clipPath><clipPath id="6ba5743691"><path d="M 8.148438 19.589844 L 8.164062 19.566406 L 8.664062 19.765625 C 8.71875 19.785156 8.757812 19.832031 8.769531 19.890625 L 8.789062 19.996094 C 8.808594 20.097656 8.707031 20.175781 8.613281 20.136719 L 8.269531 19.996094 C 8.109375 19.929688 8.050781 19.730469 8.148438 19.589844 " clip-rule="nonzero"/></clipPath><clipPath id="47c2f7c3a1"><path d="M 8.410156 19.0625 L 11.054688 19.0625 L 11.054688 21.574219 L 8.410156 21.574219 Z M 8.410156 19.0625 " clip-rule="nonzero"/></clipPath><clipPath id="d27f0f4cea"><path d="M 8.441406 19.167969 C 8.5 19.082031 8.609375 19.046875 8.703125 19.082031 L 9.257812 19.277344 C 9.3125 19.296875 9.351562 19.34375 9.363281 19.402344 L 9.484375 20.003906 C 9.496094 20.058594 9.539062 20.109375 9.59375 20.128906 L 10.40625 20.449219 C 10.617188 20.53125 10.796875 20.679688 10.921875 20.867188 L 11.015625 21.015625 C 11.046875 21.066406 11.058594 21.125 11.046875 21.183594 L 10.976562 21.566406 L 10.714844 21.195312 C 10.589844 21.023438 10.417969 20.886719 10.21875 20.804688 L 9.25 20.402344 C 9.195312 20.378906 9.15625 20.332031 9.148438 20.273438 L 9.039062 19.660156 C 9.027344 19.601562 8.988281 19.554688 8.933594 19.535156 L 8.503906 19.375 C 8.421875 19.34375 8.390625 19.242188 8.441406 19.167969 " clip-rule="nonzero"/></clipPath><clipPath id="87de35d6f3"><path d="M 11.699219 21.285156 L 11.925781 21.285156 L 11.925781 21.675781 L 11.699219 21.675781 Z M 11.699219 21.285156 " clip-rule="nonzero"/></clipPath><clipPath id="0eaf47bbb9"><path d="M 11.882812 21.339844 C 11.933594 21.425781 11.933594 21.535156 11.886719 21.625 C 11.851562 21.6875 11.753906 21.695312 11.726562 21.625 C 11.707031 21.582031 11.703125 21.535156 11.710938 21.488281 L 11.730469 21.359375 C 11.742188 21.285156 11.84375 21.265625 11.882812 21.332031 Z M 11.882812 21.339844 " clip-rule="nonzero"/></clipPath><clipPath id="de8c697bf7"><path d="M 9.722656 19.5 L 11.671875 19.5 L 11.671875 22.140625 L 9.722656 22.140625 Z M 9.722656 19.5 " clip-rule="nonzero"/></clipPath><clipPath id="606201c3c6"><path d="M 11.078125 20.558594 C 10.96875 20.378906 10.800781 20.238281 10.601562 20.164062 L 9.851562 19.878906 C 9.796875 19.859375 9.757812 19.8125 9.746094 19.753906 L 9.730469 19.660156 C 9.710938 19.558594 9.808594 19.476562 9.90625 19.511719 L 10.746094 19.8125 C 10.980469 19.894531 11.175781 20.058594 11.296875 20.277344 L 11.566406 20.761719 C 11.59375 20.816406 11.605469 20.878906 11.59375 20.9375 L 11.476562 21.605469 C 11.464844 21.667969 11.480469 21.726562 11.511719 21.777344 L 11.671875 22.023438 C 11.597656 22.160156 11.40625 22.167969 11.316406 22.042969 L 11.199219 21.878906 C 11.164062 21.828125 11.152344 21.769531 11.160156 21.710938 L 11.285156 21.019531 C 11.296875 20.960938 11.285156 20.898438 11.253906 20.847656 Z M 11.078125 20.558594 " clip-rule="nonzero"/></clipPath><clipPath id="e1cb896783"><path d="M 9.578125 21.101562 L 11.226562 21.101562 L 11.226562 22.1875 L 9.578125 22.1875 Z M 9.578125 21.101562 " clip-rule="nonzero"/></clipPath><clipPath id="9db406cada"><path d="M 10.089844 21.433594 C 10.042969 21.390625 9.992188 21.355469 9.9375 21.328125 L 9.582031 21.171875 L 9.652344 21.128906 C 9.699219 21.097656 9.761719 21.09375 9.816406 21.117188 L 9.96875 21.1875 C 10.027344 21.210938 10.078125 21.246094 10.125 21.289062 L 10.519531 21.671875 C 10.5625 21.714844 10.617188 21.75 10.671875 21.773438 L 11.046875 21.945312 L 11.226562 22.179688 L 10.609375 21.902344 C 10.554688 21.875 10.5 21.839844 10.457031 21.796875 Z M 10.089844 21.433594 " clip-rule="nonzero"/></clipPath><clipPath id="4276c4ed65"><path d="M 10.359375 21.355469 L 10.917969 21.355469 L 10.917969 21.765625 L 10.359375 21.765625 Z M 10.359375 21.355469 " clip-rule="nonzero"/></clipPath><clipPath id="82ea6a3056"><path d="M 10.359375 21.359375 L 10.722656 21.519531 L 10.910156 21.765625 L 10.714844 21.679688 C 10.660156 21.652344 10.609375 21.617188 10.566406 21.570312 Z M 10.359375 21.359375 " clip-rule="nonzero"/></clipPath><clipPath id="0c0a0b0dec"><path d="M 8.839844 20.945312 L 10.269531 20.945312 L 10.269531 21.75 L 8.839844 21.75 Z M 8.839844 20.945312 " clip-rule="nonzero"/></clipPath><clipPath id="dfa765ec26"><path d="M 10.265625 21.746094 L 9.398438 21.355469 C 9.195312 21.261719 9.011719 21.132812 8.859375 20.96875 L 8.839844 20.949219 L 9.847656 21.402344 C 9.90625 21.429688 9.957031 21.464844 10.003906 21.503906 Z M 10.265625 21.746094 " clip-rule="nonzero"/></clipPath><clipPath id="4acb348ebe"><path d="M 8.59375 20.574219 L 10.605469 20.574219 L 10.605469 21.347656 L 8.59375 21.347656 Z M 8.59375 20.574219 " clip-rule="nonzero"/></clipPath><clipPath id="5f3f138826"><path d="M 8.601562 20.578125 L 9.273438 20.875 C 9.324219 20.898438 9.386719 20.894531 9.433594 20.863281 L 9.550781 20.785156 C 9.597656 20.753906 9.660156 20.75 9.714844 20.769531 L 10.101562 20.933594 C 10.300781 21.019531 10.476562 21.160156 10.597656 21.339844 L 9.765625 20.976562 C 9.710938 20.953125 9.652344 20.957031 9.601562 20.988281 L 9.5 21.050781 C 9.449219 21.082031 9.386719 21.085938 9.332031 21.0625 L 8.832031 20.835938 C 8.773438 20.8125 8.726562 20.773438 8.695312 20.71875 Z M 8.601562 20.578125 " clip-rule="nonzero"/></clipPath><clipPath id="4ed4aea695"><path d="M 8.347656 20.191406 L 9.457031 20.191406 L 9.457031 20.753906 L 8.347656 20.753906 Z M 8.347656 20.191406 " clip-rule="nonzero"/></clipPath><clipPath id="d04d4184a5"><path d="M 8.351562 20.195312 L 9.457031 20.660156 L 9.375 20.71875 C 9.328125 20.75 9.265625 20.757812 9.210938 20.734375 L 8.585938 20.460938 C 8.53125 20.433594 8.484375 20.394531 8.449219 20.34375 Z M 8.351562 20.195312 " clip-rule="nonzero"/></clipPath></defs><path fill="#78b9eb" d="M 62.027344 9.757812 L 52.023438 9.757812 L 52.023438 3.753906 C 52.019531 3.488281 51.96875 3.234375 51.867188 2.988281 C 51.765625 2.746094 51.621094 2.527344 51.433594 2.339844 C 51.246094 2.152344 51.03125 2.007812 50.785156 1.90625 C 50.542969 1.804688 50.285156 1.753906 50.019531 1.753906 L 46.019531 1.753906 L 46.019531 3.753906 C 46.019531 4.019531 45.96875 4.273438 45.867188 4.519531 C 45.765625 4.761719 45.617188 4.980469 45.433594 5.167969 C 45.246094 5.355469 45.027344 5.5 44.785156 5.601562 C 44.539062 5.703125 44.285156 5.753906 44.019531 5.753906 L 26.011719 5.753906 C 25.746094 5.753906 25.492188 5.703125 25.246094 5.601562 C 25 5.5 24.785156 5.355469 24.597656 5.167969 C 24.410156 4.980469 24.265625 4.761719 24.164062 4.519531 C 24.0625 4.273438 24.011719 4.019531 24.007812 3.753906 L 24.007812 1.753906 L 20.007812 1.753906 C 19.742188 1.753906 19.488281 1.804688 19.242188 1.90625 C 19 2.007812 18.78125 2.152344 18.59375 2.339844 C 18.40625 2.527344 18.261719 2.746094 18.160156 2.988281 C 18.058594 3.234375 18.007812 3.488281 18.007812 3.753906 L 18.007812 9.757812 L 8.003906 9.757812 C 7.738281 9.757812 7.484375 9.808594 7.238281 9.910156 C 6.992188 10.011719 6.777344 10.15625 6.589844 10.34375 C 6.402344 10.53125 6.257812 10.746094 6.15625 10.992188 C 6.054688 11.238281 6.003906 11.492188 6 11.757812 L 6 15.757812 L 64.027344 15.757812 L 64.027344 11.757812 C 64.027344 11.492188 63.976562 11.238281 63.875 10.992188 C 63.773438 10.746094 63.628906 10.53125 63.441406 10.34375 C 63.253906 10.15625 63.035156 10.011719 62.792969 9.910156 C 62.546875 9.808594 62.292969 9.757812 62.027344 9.757812 Z M 62.027344 9.757812 " fill-opacity="1" fill-rule="nonzero"/><path fill="#78b9eb" d="M 16.007812 23.761719 L 54.023438 23.761719 L 54.023438 33.765625 L 16.007812 33.765625 Z M 16.007812 23.761719 " fill-opacity="1" fill-rule="nonzero"/><path fill="#78b9eb" d="M 52.023438 51.777344 L 18.007812 51.777344 L 18.007812 57.777344 C 18.007812 58.042969 18.058594 58.296875 18.160156 58.542969 C 18.261719 58.789062 18.40625 59.003906 18.59375 59.191406 C 18.78125 59.378906 19 59.523438 19.242188 59.625 C 19.488281 59.726562 19.742188 59.777344 20.007812 59.777344 L 50.019531 59.777344 C 50.285156 59.777344 50.542969 59.726562 50.785156 59.625 C 51.03125 59.523438 51.246094 59.378906 51.433594 59.191406 C 51.621094 59.003906 51.765625 58.789062 51.867188 58.542969 C 51.96875 58.296875 52.019531 58.042969 52.023438 57.777344 Z M 52.023438 51.777344 " fill-opacity="1" fill-rule="nonzero"/><g clip-path="url(#8fc6fafd1e)"><path fill="#1a6fb0" d="M 62.027344 8.757812 L 53.023438 8.757812 L 53.023438 3.753906 C 53.023438 3.355469 52.945312 2.972656 52.792969 2.605469 C 52.640625 2.238281 52.425781 1.914062 52.144531 1.632812 C 51.863281 1.351562 51.539062 1.132812 51.167969 0.980469 C 50.800781 0.828125 50.417969 0.753906 50.019531 0.753906 L 20.007812 0.753906 C 19.609375 0.753906 19.226562 0.828125 18.859375 0.980469 C 18.492188 1.132812 18.167969 1.351562 17.886719 1.632812 C 17.605469 1.914062 17.386719 2.238281 17.234375 2.605469 C 17.082031 2.972656 17.007812 3.355469 17.007812 3.753906 L 17.007812 8.757812 L 8.003906 8.757812 C 7.605469 8.757812 7.222656 8.832031 6.855469 8.984375 C 6.484375 9.136719 6.160156 9.355469 5.878906 9.636719 C 5.597656 9.917969 5.382812 10.242188 5.230469 10.609375 C 5.078125 10.976562 5 11.359375 5 11.757812 L 5 49.773438 C 5 50.171875 5.078125 50.554688 5.230469 50.921875 C 5.382812 51.289062 5.597656 51.617188 5.878906 51.898438 C 6.160156 52.179688 6.484375 52.394531 6.855469 52.546875 C 7.222656 52.699219 7.605469 52.777344 8.003906 52.777344 L 17.007812 52.777344 L 17.007812 57.777344 C 17.007812 58.175781 17.082031 58.558594 17.234375 58.925781 C 17.386719 59.292969 17.605469 59.617188 17.886719 59.898438 C 18.167969 60.183594 18.492188 60.398438 18.859375 60.550781 C 19.226562 60.703125 19.609375 60.78125 20.007812 60.78125 L 50.019531 60.78125 C 50.417969 60.78125 50.800781 60.703125 51.167969 60.550781 C 51.539062 60.398438 51.863281 60.183594 52.144531 59.898438 C 52.425781 59.617188 52.640625 59.292969 52.792969 58.925781 C 52.945312 58.558594 53.023438 58.175781 53.023438 57.777344 L 53.023438 52.777344 L 62.027344 52.777344 C 62.425781 52.777344 62.808594 52.699219 63.175781 52.546875 C 63.542969 52.394531 63.867188 52.179688 64.148438 51.898438 C 64.429688 51.617188 64.648438 51.289062 64.800781 50.921875 C 64.953125 50.554688 65.027344 50.171875 65.027344 49.773438 L 65.027344 11.757812 C 65.027344 11.359375 64.953125 10.976562 64.800781 10.609375 C 64.648438 10.242188 64.429688 9.917969 64.148438 9.636719 C 63.867188 9.355469 63.542969 9.136719 63.175781 8.984375 C 62.808594 8.832031 62.425781 8.757812 62.027344 8.757812 Z M 25.011719 2.753906 L 45.019531 2.753906 L 45.019531 3.753906 C 45.019531 3.886719 44.992188 4.015625 44.941406 4.136719 C 44.890625 4.257812 44.820312 4.367188 44.726562 4.460938 C 44.632812 4.554688 44.523438 4.628906 44.402344 4.679688 C 44.277344 4.730469 44.152344 4.753906 44.019531 4.753906 L 26.011719 4.753906 C 25.878906 4.753906 25.75 4.730469 25.628906 4.679688 C 25.503906 4.628906 25.398438 4.554688 25.304688 4.460938 C 25.210938 4.367188 25.136719 4.257812 25.085938 4.136719 C 25.035156 4.015625 25.011719 3.886719 25.011719 3.753906 Z M 19.007812 3.753906 C 19.007812 3.621094 19.03125 3.492188 19.082031 3.371094 C 19.132812 3.25 19.207031 3.140625 19.300781 3.046875 C 19.394531 2.953125 19.503906 2.878906 19.625 2.828125 C 19.746094 2.777344 19.875 2.753906 20.007812 2.753906 L 23.007812 2.753906 L 23.007812 3.753906 C 23.007812 4.152344 23.085938 4.535156 23.238281 4.902344 C 23.390625 5.269531 23.605469 5.59375 23.886719 5.875 C 24.167969 6.15625 24.496094 6.375 24.863281 6.527344 C 25.230469 6.679688 25.613281 6.753906 26.011719 6.753906 L 44.019531 6.753906 C 44.417969 6.753906 44.800781 6.679688 45.167969 6.527344 C 45.535156 6.375 45.859375 6.15625 46.140625 5.875 C 46.421875 5.59375 46.640625 5.269531 46.792969 4.902344 C 46.945312 4.535156 47.019531 4.152344 47.019531 3.753906 L 47.019531 2.753906 L 50.019531 2.753906 C 50.152344 2.753906 50.28125 2.777344 50.402344 2.828125 C 50.527344 2.878906 50.636719 2.953125 50.730469 3.046875 C 50.824219 3.140625 50.894531 3.25 50.945312 3.371094 C 50.996094 3.492188 51.023438 3.621094 51.023438 3.753906 L 51.023438 8.757812 L 19.007812 8.757812 Z M 8.003906 10.757812 L 62.027344 10.757812 C 62.160156 10.757812 62.285156 10.78125 62.410156 10.832031 C 62.53125 10.882812 62.640625 10.957031 62.734375 11.050781 C 62.828125 11.144531 62.898438 11.253906 62.949219 11.375 C 63 11.496094 63.027344 11.625 63.027344 11.757812 L 63.027344 14.757812 L 7.003906 14.757812 L 7.003906 11.757812 C 7.003906 11.625 7.027344 11.496094 7.078125 11.375 C 7.128906 11.253906 7.203125 11.144531 7.296875 11.050781 C 7.390625 10.957031 7.496094 10.882812 7.621094 10.832031 C 7.742188 10.78125 7.871094 10.757812 8.003906 10.757812 Z M 51.023438 57.777344 C 51.023438 57.910156 50.996094 58.039062 50.945312 58.160156 C 50.894531 58.285156 50.824219 58.390625 50.730469 58.484375 C 50.636719 58.578125 50.527344 58.652344 50.402344 58.703125 C 50.28125 58.753906 50.152344 58.777344 50.019531 58.777344 L 20.007812 58.777344 C 19.875 58.777344 19.746094 58.753906 19.625 58.703125 C 19.503906 58.652344 19.394531 58.578125 19.300781 58.484375 C 19.207031 58.390625 19.132812 58.285156 19.082031 58.160156 C 19.03125 58.039062 19.007812 57.910156 19.007812 57.777344 L 19.007812 52.777344 L 51.023438 52.777344 Z M 62.027344 50.773438 L 8.003906 50.773438 C 7.871094 50.773438 7.742188 50.75 7.621094 50.699219 C 7.496094 50.648438 7.390625 50.574219 7.296875 50.480469 C 7.203125 50.386719 7.128906 50.28125 7.078125 50.15625 C 7.027344 50.035156 7.003906 49.90625 7.003906 49.773438 L 7.003906 16.761719 L 63.027344 16.761719 L 63.027344 49.773438 C 63.027344 49.90625 63 50.035156 62.949219 50.15625 C 62.898438 50.28125 62.828125 50.386719 62.734375 50.480469 C 62.640625 50.574219 62.53125 50.648438 62.410156 50.699219 C 62.285156 50.75 62.160156 50.773438 62.027344 50.773438 Z M 62.027344 50.773438 " fill-opacity="1" fill-rule="nonzero"/></g><path fill="#1a6fb0" d="M 9.003906 11.757812 L 11.003906 11.757812 L 11.003906 13.757812 L 9.003906 13.757812 Z M 9.003906 11.757812 " fill-opacity="1" fill-rule="nonzero"/><path fill="#1a6fb0" d="M 13.003906 11.757812 L 15.003906 11.757812 L 15.003906 13.757812 L 13.003906 13.757812 Z M 13.003906 11.757812 " fill-opacity="1" fill-rule="nonzero"/><path fill="#1a6fb0" d="M 17.007812 11.757812 L 19.007812 11.757812 L 19.007812 13.757812 L 17.007812 13.757812 Z M 17.007812 11.757812 " fill-opacity="1" fill-rule="nonzero"/><path fill="#1a6fb0" d="M 21.59375 31.59375 L 23.007812 30.179688 L 24.421875 31.59375 L 25.839844 30.179688 L 24.421875 28.765625 L 25.839844 27.351562 L 24.421875 25.9375 L 23.007812 27.351562 L 21.59375 25.9375 L 20.179688 27.351562 L 21.59375 28.765625 L 20.179688 30.179688 Z M 21.59375 31.59375 " fill-opacity="1" fill-rule="nonzero"/><path fill="#1a6fb0" d="M 29.597656 31.59375 L 31.011719 30.179688 L 32.425781 31.59375 L 33.84375 30.179688 L 32.425781 28.765625 L 33.84375 27.351562 L 32.425781 25.9375 L 31.011719 27.351562 L 29.597656 25.9375 L 28.183594 27.351562 L 29.597656 28.765625 L 28.183594 30.179688 Z M 29.597656 31.59375 " fill-opacity="1" fill-rule="nonzero"/><path fill="#1a6fb0" d="M 37.601562 31.59375 L 39.015625 30.179688 L 40.429688 31.59375 L 41.84375 30.179688 L 40.429688 28.765625 L 41.84375 27.351562 L 40.429688 25.9375 L 39.015625 27.351562 L 37.601562 25.9375 L 36.1875 27.351562 L 37.601562 28.765625 L 36.1875 30.179688 Z M 37.601562 31.59375 " fill-opacity="1" fill-rule="nonzero"/><path fill="#1a6fb0" d="M 45.605469 31.59375 L 47.019531 30.179688 L 48.433594 31.59375 L 49.847656 30.179688 L 48.433594 28.765625 L 49.847656 27.351562 L 48.433594 25.9375 L 47.019531 27.351562 L 45.605469 25.9375 L 44.191406 27.351562 L 45.605469 28.765625 L 44.191406 30.179688 Z M 45.605469 31.59375 " fill-opacity="1" fill-rule="nonzero"/><path fill="#1a6fb0" d="M 54.023438 22.761719 L 16.007812 22.761719 C 15.875 22.761719 15.746094 22.789062 15.625 22.839844 C 15.5 22.890625 15.390625 22.960938 15.296875 23.054688 C 15.203125 23.148438 15.132812 23.257812 15.082031 23.378906 C 15.03125 23.503906 15.003906 23.628906 15.003906 23.761719 L 15.003906 33.765625 C 15.003906 33.898438 15.03125 34.027344 15.082031 34.148438 C 15.132812 34.273438 15.203125 34.382812 15.296875 34.476562 C 15.390625 34.570312 15.5 34.640625 15.625 34.691406 C 15.746094 34.742188 15.875 34.769531 16.007812 34.769531 L 54.023438 34.769531 C 54.15625 34.769531 54.285156 34.742188 54.40625 34.691406 C 54.527344 34.640625 54.636719 34.570312 54.730469 34.476562 C 54.824219 34.382812 54.898438 34.273438 54.949219 34.148438 C 55 34.027344 55.023438 33.898438 55.023438 33.765625 L 55.023438 23.761719 C 55.023438 23.628906 55 23.503906 54.949219 23.378906 C 54.898438 23.257812 54.824219 23.148438 54.730469 23.054688 C 54.636719 22.960938 54.527344 22.890625 54.40625 22.839844 C 54.285156 22.789062 54.15625 22.761719 54.023438 22.761719 Z M 53.023438 32.765625 L 17.007812 32.765625 L 17.007812 24.761719 L 53.023438 24.761719 Z M 53.023438 32.765625 " fill-opacity="1" fill-rule="nonzero"/><path fill="#1a6fb0" d="M 15.003906 38.769531 L 19.007812 38.769531 L 19.007812 40.769531 L 15.003906 40.769531 Z M 15.003906 38.769531 " fill-opacity="1" fill-rule="nonzero"/><path fill="#1a6fb0" d="M 21.007812 38.769531 L 55.023438 38.769531 L 55.023438 40.769531 L 21.007812 40.769531 Z M 21.007812 38.769531 " fill-opacity="1" fill-rule="nonzero"/><path fill="#1a6fb0" d="M 15.003906 42.769531 L 34.015625 42.769531 L 34.015625 44.773438 L 15.003906 44.773438 Z M 15.003906 42.769531 " fill-opacity="1" fill-rule="nonzero"/><path fill="#1a6fb0" d="M 36.015625 42.769531 L 55.023438 42.769531 L 55.023438 44.773438 L 36.015625 44.773438 Z M 36.015625 42.769531 " fill-opacity="1" fill-rule="nonzero"/><path fill="#1a6fb0" d="M 15.003906 46.773438 L 49.019531 46.773438 L 49.019531 48.773438 L 15.003906 48.773438 Z M 15.003906 46.773438 " fill-opacity="1" fill-rule="nonzero"/><path fill="#1a6fb0" d="M 51.023438 46.773438 L 55.023438 46.773438 L 55.023438 48.773438 L 51.023438 48.773438 Z M 51.023438 46.773438 " fill-opacity="1" fill-rule="nonzero"/><path fill="#1a6fb0" d="M 15.003906 18.761719 L 19.007812 18.761719 L 19.007812 20.761719 L 15.003906 20.761719 Z M 15.003906 18.761719 " fill-opacity="1" fill-rule="nonzero"/><path fill="#1a6fb0" d="M 21.007812 18.761719 L 35.015625 18.761719 L 35.015625 20.761719 L 21.007812 20.761719 Z M 21.007812 18.761719 " fill-opacity="1" fill-rule="nonzero"/><path fill="#1a6fb0" d="M 37.015625 18.761719 L 45.019531 18.761719 L 45.019531 20.761719 L 37.015625 20.761719 Z M 37.015625 18.761719 " fill-opacity="1" fill-rule="nonzero"/><path fill="#1a6fb0" d="M 47.019531 18.761719 L 55.023438 18.761719 L 55.023438 20.761719 L 47.019531 20.761719 Z M 47.019531 18.761719 " fill-opacity="1" fill-rule="nonzero"/><g clip-path="url(#6a97f8890b)"><g clip-path="url(#8a445e5d4c)"><path fill="#f266ff" d="M 8.054688 17.511719 L 12.773438 17.511719 L 12.773438 22.222656 L 8.054688 22.222656 Z M 8.054688 17.511719 " fill-opacity="1" fill-rule="nonzero"/></g></g><g clip-path="url(#96f945cb91)"><g clip-path="url(#bf07a7676e)"><path fill="#ff637e" d="M 8.054688 17.511719 L 12.773438 17.511719 L 12.773438 22.222656 L 8.054688 22.222656 Z M 8.054688 17.511719 " fill-opacity="1" fill-rule="nonzero"/></g></g><g clip-path="url(#aad2f14e06)"><g clip-path="url(#9f1ea63320)"><path fill="#00d7be" d="M 8.054688 17.511719 L 12.773438 17.511719 L 12.773438 22.222656 L 8.054688 22.222656 Z M 8.054688 17.511719 " fill-opacity="1" fill-rule="nonzero"/></g></g><g clip-path="url(#ecd1c6ade8)"><g clip-path="url(#40771a55d4)"><path fill="#1f93ff" d="M 8.054688 17.511719 L 12.773438 17.511719 L 12.773438 22.222656 L 8.054688 22.222656 Z M 8.054688 17.511719 " fill-opacity="1" fill-rule="nonzero"/></g></g><g clip-path="url(#dacb9f1543)"><g clip-path="url(#136f21f406)"><path fill="#ffd500" d="M 8.054688 17.511719 L 12.773438 17.511719 L 12.773438 22.222656 L 8.054688 22.222656 Z M 8.054688 17.511719 " fill-opacity="1" fill-rule="nonzero"/></g></g><g clip-path="url(#bf68c657f7)"><g clip-path="url(#6ba5743691)"><path fill="#1f93ff" d="M 8.054688 17.511719 L 12.773438 17.511719 L 12.773438 22.222656 L 8.054688 22.222656 Z M 8.054688 17.511719 " fill-opacity="1" fill-rule="nonzero"/></g></g><g clip-path="url(#47c2f7c3a1)"><g clip-path="url(#d27f0f4cea)"><path fill="#f266ff" d="M 8.054688 17.511719 L 12.773438 17.511719 L 12.773438 22.222656 L 8.054688 22.222656 Z M 8.054688 17.511719 " fill-opacity="1" fill-rule="nonzero"/></g></g><g clip-path="url(#87de35d6f3)"><g clip-path="url(#0eaf47bbb9)"><path fill="#1f93ff" d="M 8.054688 17.511719 L 12.773438 17.511719 L 12.773438 22.222656 L 8.054688 22.222656 Z M 8.054688 17.511719 " fill-opacity="1" fill-rule="nonzero"/></g></g><g clip-path="url(#de8c697bf7)"><g clip-path="url(#606201c3c6)"><path fill="#ffcf00" d="M 8.054688 17.511719 L 12.773438 17.511719 L 12.773438 22.222656 L 8.054688 22.222656 Z M 8.054688 17.511719 " fill-opacity="1" fill-rule="nonzero"/></g></g><g clip-path="url(#e1cb896783)"><g clip-path="url(#9db406cada)"><path fill="#61d742" d="M 8.054688 17.511719 L 12.773438 17.511719 L 12.773438 22.222656 L 8.054688 22.222656 Z M 8.054688 17.511719 " fill-opacity="1" fill-rule="nonzero"/></g></g><g clip-path="url(#4276c4ed65)"><g clip-path="url(#82ea6a3056)"><path fill="#1f93ff" d="M 8.054688 17.511719 L 12.773438 17.511719 L 12.773438 22.222656 L 8.054688 22.222656 Z M 8.054688 17.511719 " fill-opacity="1" fill-rule="nonzero"/></g></g><g clip-path="url(#0c0a0b0dec)"><g clip-path="url(#dfa765ec26)"><path fill="#1f93ff" d="M 8.054688 17.511719 L 12.773438 17.511719 L 12.773438 22.222656 L 8.054688 22.222656 Z M 8.054688 17.511719 " fill-opacity="1" fill-rule="nonzero"/></g></g><g clip-path="url(#4acb348ebe)"><g clip-path="url(#5f3f138826)"><path fill="#ff7a78" d="M 8.054688 17.511719 L 12.773438 17.511719 L 12.773438 22.222656 L 8.054688 22.222656 Z M 8.054688 17.511719 " fill-opacity="1" fill-rule="nonzero"/></g></g><g clip-path="url(#4ed4aea695)"><g clip-path="url(#d04d4184a5)"><path fill="#ffcf00" d="M 8.054688 17.511719 L 12.773438 17.511719 L 12.773438 22.222656 L 8.054688 22.222656 Z M 8.054688 17.511719 " fill-opacity="1" fill-rule="nonzero"/></g></g></svg>