<svg xmlns="http://www.w3.org/2000/svg" xmlns:xlink="http://www.w3.org/1999/xlink" width="94" zoomAndPan="magnify" viewBox="0 0 70.5 62.249996" height="83" preserveAspectRatio="xMidYMid meet" version="1.0"><defs><clipPath id="0b9a180a1f"><path d="M 5.535156 1.285156 L 64.820312 1.285156 L 64.820312 60.570312 L 5.535156 60.570312 Z M 5.535156 1.285156 " clip-rule="nonzero"/></clipPath><clipPath id="9bf5ba4254"><path d="M 16.011719 7.160156 L 16.824219 7.160156 L 16.824219 7.460938 L 16.011719 7.460938 Z M 16.011719 7.160156 " clip-rule="nonzero"/></clipPath><clipPath id="6292144cbc"><path d="M 16.011719 7.296875 C 16.089844 7.1875 16.226562 7.136719 16.359375 7.167969 L 16.773438 7.277344 C 16.828125 7.292969 16.835938 7.367188 16.785156 7.394531 L 16.695312 7.441406 C 16.65625 7.460938 16.613281 7.464844 16.570312 7.453125 Z M 16.011719 7.296875 " clip-rule="nonzero"/></clipPath><clipPath id="5aca18c011"><path d="M 17.046875 8.363281 L 17.996094 8.363281 L 17.996094 9.695312 L 17.046875 9.695312 Z M 17.046875 8.363281 " clip-rule="nonzero"/></clipPath><clipPath id="1f955f72da"><path d="M 17.144531 8.40625 C 17.226562 8.363281 17.304688 8.355469 17.367188 8.390625 C 17.449219 8.4375 17.519531 8.515625 17.558594 8.605469 L 17.96875 9.460938 C 17.996094 9.523438 17.996094 9.597656 17.960938 9.660156 C 17.9375 9.699219 17.878906 9.699219 17.855469 9.65625 L 17.4375 8.84375 C 17.371094 8.714844 17.253906 8.613281 17.113281 8.5625 L 17.101562 8.558594 C 17.042969 8.539062 17.035156 8.460938 17.089844 8.429688 Z M 17.144531 8.40625 " clip-rule="nonzero"/></clipPath><clipPath id="258dcf60c6"><path d="M 15.5625 7.847656 L 18.363281 7.847656 L 18.363281 9.039062 L 15.5625 9.039062 Z M 15.5625 7.847656 " clip-rule="nonzero"/></clipPath><clipPath id="3fc4242dbc"><path d="M 15.582031 7.921875 C 15.625 7.863281 15.699219 7.835938 15.765625 7.859375 L 16.582031 8.125 C 16.625 8.136719 16.667969 8.132812 16.707031 8.113281 L 17.1875 7.882812 C 17.226562 7.863281 17.269531 7.863281 17.3125 7.875 L 17.421875 7.90625 C 17.609375 7.960938 17.757812 8.09375 17.832031 8.273438 L 17.90625 8.453125 C 17.917969 8.488281 17.957031 8.511719 17.996094 8.511719 L 18.207031 8.5 C 18.246094 8.5 18.28125 8.523438 18.292969 8.558594 L 18.328125 8.664062 C 18.371094 8.785156 18.359375 8.921875 18.300781 9.035156 L 18.1875 8.742188 C 18.171875 8.703125 18.136719 8.679688 18.097656 8.679688 L 17.863281 8.6875 C 17.824219 8.691406 17.785156 8.667969 17.769531 8.628906 L 17.679688 8.425781 C 17.617188 8.289062 17.503906 8.1875 17.363281 8.144531 L 17.253906 8.109375 L 16.691406 8.371094 C 16.652344 8.390625 16.609375 8.390625 16.566406 8.378906 L 15.628906 8.058594 C 15.570312 8.039062 15.550781 7.96875 15.582031 7.921875 " clip-rule="nonzero"/></clipPath><clipPath id="15bb535140"><path d="M 15.820312 7.398438 L 18.175781 7.398438 L 18.175781 8.355469 L 15.820312 8.355469 Z M 15.820312 7.398438 " clip-rule="nonzero"/></clipPath><clipPath id="084a066a6a"><path d="M 18.167969 8.195312 C 18.195312 8.28125 18.136719 8.382812 18.058594 8.34375 C 18.039062 8.332031 18.023438 8.316406 18.015625 8.292969 L 17.910156 8.019531 C 17.859375 7.882812 17.746094 7.777344 17.605469 7.738281 L 17.289062 7.652344 C 17.246094 7.640625 17.203125 7.644531 17.164062 7.664062 L 16.683594 7.886719 C 16.644531 7.90625 16.601562 7.910156 16.5625 7.898438 L 15.878906 7.6875 C 15.824219 7.671875 15.800781 7.605469 15.835938 7.558594 C 15.875 7.5 15.945312 7.476562 16.011719 7.496094 L 16.550781 7.652344 C 16.589844 7.664062 16.636719 7.660156 16.671875 7.640625 L 17.136719 7.417969 C 17.171875 7.398438 17.21875 7.394531 17.257812 7.40625 L 17.660156 7.511719 C 17.84375 7.558594 17.992188 7.695312 18.054688 7.875 Z M 18.167969 8.195312 " clip-rule="nonzero"/></clipPath><clipPath id="eaa7ae673f"><path d="M 17.859375 8.832031 L 18.1875 8.832031 L 18.1875 9.328125 L 17.859375 9.328125 Z M 17.859375 8.832031 " clip-rule="nonzero"/></clipPath><clipPath id="e4dca69e40"><path d="M 17.992188 8.835938 C 18.03125 8.832031 18.070312 8.855469 18.085938 8.890625 L 18.167969 9.101562 C 18.195312 9.164062 18.191406 9.234375 18.160156 9.296875 C 18.136719 9.335938 18.082031 9.332031 18.0625 9.292969 L 17.863281 8.839844 Z M 17.992188 8.835938 " clip-rule="nonzero"/></clipPath><clipPath id="427160933b"><path d="M 15.085938 8.574219 L 15.574219 8.574219 L 15.574219 8.992188 L 15.085938 8.992188 Z M 15.085938 8.574219 " clip-rule="nonzero"/></clipPath><clipPath id="d3aa24d324"><path d="M 15.121094 8.59375 L 15.128906 8.578125 L 15.480469 8.71875 C 15.519531 8.734375 15.546875 8.765625 15.554688 8.808594 L 15.570312 8.882812 C 15.582031 8.953125 15.511719 9.011719 15.449219 8.984375 L 15.203125 8.882812 C 15.089844 8.835938 15.050781 8.695312 15.121094 8.59375 " clip-rule="nonzero"/></clipPath><clipPath id="bbe472b389"><path d="M 15.304688 8.222656 L 17.171875 8.222656 L 17.171875 10 L 15.304688 10 Z M 15.304688 8.222656 " clip-rule="nonzero"/></clipPath><clipPath id="50d11e168a"><path d="M 15.324219 8.296875 C 15.367188 8.238281 15.441406 8.210938 15.511719 8.234375 L 15.902344 8.375 C 15.941406 8.390625 15.96875 8.421875 15.976562 8.460938 L 16.0625 8.886719 C 16.070312 8.925781 16.101562 8.960938 16.136719 8.976562 L 16.714844 9.203125 C 16.863281 9.261719 16.988281 9.367188 17.078125 9.5 L 17.144531 9.601562 C 17.167969 9.636719 17.175781 9.679688 17.167969 9.722656 L 17.117188 9.992188 L 16.929688 9.730469 C 16.84375 9.605469 16.722656 9.511719 16.582031 9.453125 L 15.898438 9.167969 C 15.859375 9.152344 15.832031 9.117188 15.824219 9.078125 L 15.746094 8.644531 C 15.738281 8.605469 15.710938 8.570312 15.671875 8.554688 L 15.371094 8.441406 C 15.3125 8.421875 15.289062 8.347656 15.324219 8.296875 " clip-rule="nonzero"/></clipPath><clipPath id="62de1278ce"><path d="M 17.628906 9.792969 L 17.789062 9.792969 L 17.789062 10.070312 L 17.628906 10.070312 Z M 17.628906 9.792969 " clip-rule="nonzero"/></clipPath><clipPath id="cc5a7eea21"><path d="M 17.757812 9.832031 C 17.792969 9.894531 17.792969 9.96875 17.757812 10.03125 C 17.734375 10.078125 17.667969 10.082031 17.644531 10.035156 C 17.632812 10.003906 17.628906 9.96875 17.636719 9.9375 L 17.648438 9.847656 C 17.660156 9.792969 17.730469 9.78125 17.757812 9.828125 Z M 17.757812 9.832031 " clip-rule="nonzero"/></clipPath><clipPath id="51e403e7f3"><path d="M 16.230469 8.53125 L 17.609375 8.53125 L 17.609375 10.398438 L 16.230469 10.398438 Z M 16.230469 8.53125 " clip-rule="nonzero"/></clipPath><clipPath id="59cbefe13d"><path d="M 17.1875 9.28125 C 17.113281 9.152344 16.992188 9.050781 16.851562 9 L 16.324219 8.800781 C 16.285156 8.785156 16.257812 8.753906 16.25 8.710938 L 16.234375 8.644531 C 16.222656 8.574219 16.289062 8.515625 16.359375 8.539062 L 16.953125 8.75 C 17.121094 8.808594 17.257812 8.925781 17.34375 9.082031 L 17.53125 9.425781 C 17.554688 9.460938 17.5625 9.503906 17.554688 9.546875 L 17.46875 10.019531 C 17.460938 10.0625 17.472656 10.105469 17.496094 10.140625 L 17.605469 10.3125 C 17.554688 10.410156 17.417969 10.417969 17.355469 10.328125 L 17.273438 10.210938 C 17.25 10.179688 17.238281 10.132812 17.246094 10.09375 L 17.335938 9.605469 C 17.34375 9.5625 17.335938 9.519531 17.3125 9.484375 Z M 17.1875 9.28125 " clip-rule="nonzero"/></clipPath><clipPath id="02d358b574"><path d="M 16.128906 9.664062 L 17.292969 9.664062 L 17.292969 10.429688 L 16.128906 10.429688 Z M 16.128906 9.664062 " clip-rule="nonzero"/></clipPath><clipPath id="0c7f60df0c"><path d="M 16.488281 9.898438 C 16.457031 9.867188 16.421875 9.84375 16.382812 9.824219 L 16.132812 9.714844 L 16.179688 9.683594 C 16.214844 9.660156 16.257812 9.660156 16.296875 9.675781 L 16.40625 9.722656 C 16.445312 9.742188 16.484375 9.765625 16.515625 9.796875 L 16.792969 10.066406 C 16.824219 10.097656 16.863281 10.121094 16.902344 10.140625 L 17.164062 10.257812 L 17.292969 10.421875 L 16.855469 10.226562 C 16.816406 10.210938 16.78125 10.183594 16.75 10.152344 Z M 16.488281 9.898438 " clip-rule="nonzero"/></clipPath><clipPath id="fcc01f64e3"><path d="M 16.679688 9.84375 L 17.074219 9.84375 L 17.074219 10.132812 L 16.679688 10.132812 Z M 16.679688 9.84375 " clip-rule="nonzero"/></clipPath><clipPath id="14f539ab08"><path d="M 16.679688 9.847656 L 16.9375 9.960938 L 17.070312 10.132812 L 16.933594 10.070312 C 16.890625 10.050781 16.855469 10.027344 16.824219 9.996094 Z M 16.679688 9.847656 " clip-rule="nonzero"/></clipPath><clipPath id="b90dc53973"><path d="M 15.605469 9.554688 L 16.617188 9.554688 L 16.617188 10.121094 L 15.605469 10.121094 Z M 15.605469 9.554688 " clip-rule="nonzero"/></clipPath><clipPath id="1669f5f555"><path d="M 16.613281 10.117188 L 16 9.839844 C 15.855469 9.777344 15.726562 9.683594 15.621094 9.570312 L 15.609375 9.554688 L 16.320312 9.875 C 16.359375 9.894531 16.394531 9.917969 16.429688 9.949219 Z M 16.613281 10.117188 " clip-rule="nonzero"/></clipPath><clipPath id="5c06ae14ef"><path d="M 15.433594 9.289062 L 16.855469 9.289062 L 16.855469 9.835938 L 15.433594 9.835938 Z M 15.433594 9.289062 " clip-rule="nonzero"/></clipPath><clipPath id="76b8d65e64"><path d="M 15.4375 9.292969 L 15.910156 9.503906 C 15.949219 9.519531 15.992188 9.515625 16.027344 9.496094 L 16.109375 9.441406 C 16.144531 9.417969 16.1875 9.414062 16.226562 9.429688 L 16.5 9.546875 C 16.640625 9.605469 16.761719 9.703125 16.847656 9.832031 L 16.261719 9.574219 C 16.222656 9.558594 16.179688 9.5625 16.144531 9.582031 L 16.070312 9.628906 C 16.035156 9.648438 15.992188 9.652344 15.957031 9.636719 L 15.601562 9.476562 C 15.558594 9.460938 15.527344 9.429688 15.503906 9.394531 Z M 15.4375 9.292969 " clip-rule="nonzero"/></clipPath><clipPath id="8a06112260"><path d="M 15.257812 9.019531 L 16.042969 9.019531 L 16.042969 9.417969 L 15.257812 9.417969 Z M 15.257812 9.019531 " clip-rule="nonzero"/></clipPath><clipPath id="4bdd1e20d7"><path d="M 15.261719 9.023438 L 16.042969 9.351562 L 15.984375 9.390625 C 15.953125 9.414062 15.90625 9.417969 15.871094 9.402344 L 15.429688 9.210938 C 15.386719 9.191406 15.355469 9.164062 15.332031 9.128906 Z M 15.261719 9.023438 " clip-rule="nonzero"/></clipPath><clipPath id="561f979afc"><path d="M 56.183594 10.488281 L 56.992188 10.488281 L 56.992188 10.789062 L 56.183594 10.789062 Z M 56.183594 10.488281 " clip-rule="nonzero"/></clipPath><clipPath id="5ae1fc9d34"><path d="M 56.183594 10.625 C 56.261719 10.515625 56.398438 10.464844 56.53125 10.5 L 56.945312 10.605469 C 57 10.621094 57.007812 10.699219 56.957031 10.722656 L 56.863281 10.769531 C 56.828125 10.789062 56.78125 10.792969 56.742188 10.78125 Z M 56.183594 10.625 " clip-rule="nonzero"/></clipPath><clipPath id="cbe920f0de"><path d="M 57.21875 11.691406 L 58.164062 11.691406 L 58.164062 13.023438 L 57.21875 13.023438 Z M 57.21875 11.691406 " clip-rule="nonzero"/></clipPath><clipPath id="c35cf13297"><path d="M 57.3125 11.734375 C 57.398438 11.691406 57.476562 11.683594 57.535156 11.71875 C 57.621094 11.769531 57.6875 11.84375 57.730469 11.933594 L 58.136719 12.789062 C 58.167969 12.851562 58.167969 12.925781 58.132812 12.988281 C 58.109375 13.03125 58.050781 13.027344 58.027344 12.988281 L 57.609375 12.175781 C 57.539062 12.042969 57.421875 11.941406 57.28125 11.894531 L 57.273438 11.890625 C 57.214844 11.867188 57.207031 11.789062 57.261719 11.757812 Z M 57.3125 11.734375 " clip-rule="nonzero"/></clipPath><clipPath id="46050919c9"><path d="M 55.730469 11.175781 L 58.53125 11.175781 L 58.53125 12.367188 L 55.730469 12.367188 Z M 55.730469 11.175781 " clip-rule="nonzero"/></clipPath><clipPath id="c16c7e977b"><path d="M 55.753906 11.25 C 55.792969 11.191406 55.871094 11.164062 55.9375 11.1875 L 56.753906 11.453125 C 56.796875 11.464844 56.839844 11.460938 56.878906 11.445312 L 57.359375 11.210938 C 57.398438 11.195312 57.441406 11.191406 57.484375 11.203125 L 57.59375 11.234375 C 57.777344 11.289062 57.929688 11.425781 58.003906 11.601562 L 58.074219 11.78125 C 58.089844 11.816406 58.128906 11.839844 58.167969 11.839844 L 58.375 11.828125 C 58.414062 11.828125 58.453125 11.851562 58.464844 11.886719 L 58.5 11.992188 C 58.542969 12.117188 58.53125 12.25 58.46875 12.367188 L 58.355469 12.070312 C 58.34375 12.03125 58.308594 12.007812 58.265625 12.011719 L 58.035156 12.019531 C 57.992188 12.019531 57.957031 11.996094 57.941406 11.960938 L 57.851562 11.753906 C 57.789062 11.617188 57.675781 11.515625 57.535156 11.472656 L 57.421875 11.4375 L 56.863281 11.699219 C 56.824219 11.71875 56.777344 11.722656 56.738281 11.707031 L 55.800781 11.386719 C 55.742188 11.367188 55.71875 11.300781 55.753906 11.25 " clip-rule="nonzero"/></clipPath><clipPath id="325bfe75f8"><path d="M 55.988281 10.726562 L 58.347656 10.726562 L 58.347656 11.6875 L 55.988281 11.6875 Z M 55.988281 10.726562 " clip-rule="nonzero"/></clipPath><clipPath id="45b30195a1"><path d="M 58.335938 11.523438 C 58.367188 11.609375 58.308594 11.714844 58.230469 11.671875 C 58.210938 11.660156 58.195312 11.644531 58.1875 11.625 L 58.082031 11.347656 C 58.03125 11.210938 57.914062 11.105469 57.777344 11.066406 L 57.457031 10.980469 C 57.417969 10.96875 57.375 10.972656 57.335938 10.992188 L 56.855469 11.21875 C 56.816406 11.234375 56.773438 11.238281 56.730469 11.226562 L 56.050781 11.015625 C 55.996094 11 55.972656 10.933594 56.003906 10.886719 C 56.042969 10.828125 56.117188 10.804688 56.183594 10.824219 L 56.722656 10.980469 C 56.761719 10.992188 56.804688 10.988281 56.84375 10.96875 L 57.304688 10.746094 C 57.34375 10.726562 57.390625 10.722656 57.429688 10.734375 L 57.832031 10.839844 C 58.015625 10.886719 58.164062 11.027344 58.226562 11.203125 Z M 58.335938 11.523438 " clip-rule="nonzero"/></clipPath><clipPath id="90a674f13e"><path d="M 58.03125 12.160156 L 58.359375 12.160156 L 58.359375 12.65625 L 58.03125 12.65625 Z M 58.03125 12.160156 " clip-rule="nonzero"/></clipPath><clipPath id="cd588e74e2"><path d="M 58.164062 12.164062 C 58.203125 12.160156 58.238281 12.183594 58.253906 12.222656 L 58.339844 12.429688 C 58.367188 12.492188 58.363281 12.566406 58.328125 12.625 C 58.308594 12.664062 58.25 12.660156 58.234375 12.621094 L 58.035156 12.167969 Z M 58.164062 12.164062 " clip-rule="nonzero"/></clipPath><clipPath id="33b50ae679"><path d="M 55.253906 11.90625 L 55.746094 11.90625 L 55.746094 12.324219 L 55.253906 12.324219 Z M 55.253906 11.90625 " clip-rule="nonzero"/></clipPath><clipPath id="907fc23d05"><path d="M 55.289062 11.921875 L 55.300781 11.90625 L 55.652344 12.046875 C 55.691406 12.0625 55.71875 12.097656 55.726562 12.136719 L 55.742188 12.210938 C 55.753906 12.28125 55.683594 12.339844 55.617188 12.3125 L 55.375 12.210938 C 55.261719 12.164062 55.21875 12.023438 55.289062 11.921875 " clip-rule="nonzero"/></clipPath><clipPath id="ca513a8e28"><path d="M 55.476562 11.550781 L 57.339844 11.550781 L 57.339844 13.328125 L 55.476562 13.328125 Z M 55.476562 11.550781 " clip-rule="nonzero"/></clipPath><clipPath id="8cf56b9c14"><path d="M 55.496094 11.625 C 55.535156 11.566406 55.613281 11.539062 55.683594 11.566406 L 56.070312 11.703125 C 56.109375 11.71875 56.140625 11.75 56.148438 11.792969 L 56.234375 12.214844 C 56.242188 12.257812 56.269531 12.289062 56.308594 12.304688 L 56.886719 12.53125 C 57.035156 12.589844 57.160156 12.695312 57.25 12.828125 L 57.316406 12.929688 C 57.339844 12.964844 57.347656 13.007812 57.339844 13.050781 L 57.289062 13.320312 L 57.101562 13.058594 C 57.015625 12.9375 56.894531 12.839844 56.753906 12.78125 L 56.066406 12.496094 C 56.03125 12.480469 56.003906 12.449219 55.996094 12.40625 L 55.917969 11.972656 C 55.910156 11.933594 55.882812 11.898438 55.84375 11.882812 L 55.539062 11.769531 C 55.480469 11.75 55.460938 11.675781 55.496094 11.625 " clip-rule="nonzero"/></clipPath><clipPath id="aa817f2b81"><path d="M 57.796875 13.121094 L 57.960938 13.121094 L 57.960938 13.398438 L 57.796875 13.398438 Z M 57.796875 13.121094 " clip-rule="nonzero"/></clipPath><clipPath id="8838cec2f5"><path d="M 57.929688 13.160156 C 57.964844 13.222656 57.964844 13.296875 57.929688 13.363281 C 57.90625 13.40625 57.835938 13.410156 57.816406 13.363281 C 57.804688 13.332031 57.800781 13.296875 57.804688 13.265625 L 57.820312 13.175781 C 57.828125 13.121094 57.902344 13.109375 57.925781 13.15625 Z M 57.929688 13.160156 " clip-rule="nonzero"/></clipPath><clipPath id="09b47ece28"><path d="M 56.402344 11.859375 L 57.78125 11.859375 L 57.78125 13.726562 L 56.402344 13.726562 Z M 56.402344 11.859375 " clip-rule="nonzero"/></clipPath><clipPath id="31a55e9206"><path d="M 57.359375 12.609375 C 57.28125 12.480469 57.164062 12.382812 57.023438 12.328125 L 56.492188 12.128906 C 56.457031 12.113281 56.425781 12.082031 56.417969 12.042969 L 56.40625 11.976562 C 56.390625 11.902344 56.460938 11.84375 56.53125 11.867188 L 57.125 12.078125 C 57.289062 12.140625 57.429688 12.257812 57.511719 12.410156 L 57.703125 12.753906 C 57.726562 12.789062 57.730469 12.835938 57.722656 12.875 L 57.640625 13.347656 C 57.632812 13.390625 57.640625 13.433594 57.664062 13.46875 L 57.777344 13.640625 C 57.726562 13.738281 57.589844 13.746094 57.527344 13.65625 L 57.445312 13.542969 C 57.421875 13.507812 57.410156 13.464844 57.417969 13.421875 L 57.503906 12.933594 C 57.511719 12.894531 57.503906 12.851562 57.484375 12.8125 Z M 57.359375 12.609375 " clip-rule="nonzero"/></clipPath><clipPath id="8d4b732129"><path d="M 56.296875 12.992188 L 57.464844 12.992188 L 57.464844 13.757812 L 56.296875 13.757812 Z M 56.296875 12.992188 " clip-rule="nonzero"/></clipPath><clipPath id="7f55422f7f"><path d="M 56.660156 13.226562 C 56.628906 13.195312 56.59375 13.171875 56.550781 13.152344 L 56.300781 13.042969 L 56.351562 13.011719 C 56.386719 12.992188 56.429688 12.988281 56.46875 13.003906 L 56.578125 13.050781 C 56.617188 13.070312 56.652344 13.09375 56.683594 13.125 L 56.964844 13.394531 C 56.996094 13.425781 57.03125 13.449219 57.074219 13.46875 L 57.335938 13.585938 L 57.464844 13.753906 L 57.027344 13.558594 C 56.988281 13.539062 56.953125 13.515625 56.921875 13.484375 Z M 56.660156 13.226562 " clip-rule="nonzero"/></clipPath><clipPath id="955aaecfdc"><path d="M 56.851562 13.171875 L 57.246094 13.171875 L 57.246094 13.460938 L 56.851562 13.460938 Z M 56.851562 13.171875 " clip-rule="nonzero"/></clipPath><clipPath id="77c6fffc5e"><path d="M 56.851562 13.175781 L 57.109375 13.289062 L 57.238281 13.460938 L 57.105469 13.398438 C 57.0625 13.382812 57.027344 13.355469 56.996094 13.324219 Z M 56.851562 13.175781 " clip-rule="nonzero"/></clipPath><clipPath id="4cfd326851"><path d="M 55.777344 12.882812 L 56.789062 12.882812 L 56.789062 13.449219 L 55.777344 13.449219 Z M 55.777344 12.882812 " clip-rule="nonzero"/></clipPath><clipPath id="33c95ccb60"><path d="M 56.785156 13.445312 L 56.171875 13.171875 C 56.027344 13.105469 55.898438 13.011719 55.792969 12.898438 L 55.777344 12.882812 L 56.488281 13.207031 C 56.53125 13.222656 56.566406 13.246094 56.597656 13.277344 Z M 56.785156 13.445312 " clip-rule="nonzero"/></clipPath><clipPath id="80c07d4439"><path d="M 55.601562 12.617188 L 57.027344 12.617188 L 57.027344 13.167969 L 55.601562 13.167969 Z M 55.601562 12.617188 " clip-rule="nonzero"/></clipPath><clipPath id="1c28e9dfd3"><path d="M 55.609375 12.621094 L 56.082031 12.832031 C 56.121094 12.847656 56.164062 12.847656 56.199219 12.824219 L 56.28125 12.769531 C 56.3125 12.746094 56.359375 12.742188 56.394531 12.757812 L 56.671875 12.875 C 56.8125 12.933594 56.933594 13.035156 57.019531 13.160156 L 56.433594 12.902344 C 56.394531 12.886719 56.351562 12.890625 56.316406 12.910156 L 56.242188 12.957031 C 56.207031 12.976562 56.164062 12.980469 56.125 12.964844 L 55.769531 12.804688 C 55.730469 12.789062 55.699219 12.757812 55.675781 12.722656 Z M 55.609375 12.621094 " clip-rule="nonzero"/></clipPath><clipPath id="94e7a0584c"><path d="M 55.429688 12.347656 L 56.214844 12.347656 L 56.214844 12.746094 L 55.429688 12.746094 Z M 55.429688 12.347656 " clip-rule="nonzero"/></clipPath><clipPath id="eef8cb245b"><path d="M 55.433594 12.351562 L 56.210938 12.679688 L 56.15625 12.71875 C 56.121094 12.746094 56.078125 12.75 56.042969 12.730469 L 55.597656 12.539062 C 55.558594 12.519531 55.527344 12.492188 55.5 12.457031 Z M 55.433594 12.351562 " clip-rule="nonzero"/></clipPath><clipPath id="973eedc956"><path d="M 51.871094 50.984375 L 52.683594 50.984375 L 52.683594 51.289062 L 51.871094 51.289062 Z M 51.871094 50.984375 " clip-rule="nonzero"/></clipPath><clipPath id="2758f274de"><path d="M 51.875 51.125 C 51.949219 51.011719 52.089844 50.960938 52.21875 50.996094 L 52.632812 51.105469 C 52.6875 51.117188 52.695312 51.195312 52.644531 51.21875 L 52.554688 51.265625 C 52.515625 51.285156 52.472656 51.289062 52.429688 51.277344 Z M 51.875 51.125 " clip-rule="nonzero"/></clipPath><clipPath id="85c963f25a"><path d="M 52.910156 52.1875 L 53.855469 52.1875 L 53.855469 53.519531 L 52.910156 53.519531 Z M 52.910156 52.1875 " clip-rule="nonzero"/></clipPath><clipPath id="6bef799309"><path d="M 53.003906 52.230469 C 53.085938 52.1875 53.164062 52.179688 53.226562 52.214844 C 53.308594 52.265625 53.378906 52.339844 53.421875 52.429688 L 53.828125 53.285156 C 53.855469 53.347656 53.855469 53.421875 53.820312 53.484375 C 53.800781 53.527344 53.738281 53.527344 53.71875 53.484375 L 53.296875 52.671875 C 53.230469 52.539062 53.113281 52.4375 52.972656 52.390625 L 52.960938 52.386719 C 52.902344 52.367188 52.894531 52.285156 52.953125 52.257812 Z M 53.003906 52.230469 " clip-rule="nonzero"/></clipPath><clipPath id="6ce9aed523"><path d="M 51.421875 51.671875 L 54.222656 51.671875 L 54.222656 52.863281 L 51.421875 52.863281 Z M 51.421875 51.671875 " clip-rule="nonzero"/></clipPath><clipPath id="171f5dfea6"><path d="M 51.445312 51.746094 C 51.484375 51.6875 51.558594 51.664062 51.625 51.683594 L 52.445312 51.949219 C 52.484375 51.960938 52.527344 51.957031 52.566406 51.941406 L 53.046875 51.707031 C 53.085938 51.691406 53.132812 51.6875 53.171875 51.699219 L 53.28125 51.730469 C 53.46875 51.785156 53.617188 51.921875 53.691406 52.097656 L 53.765625 52.277344 C 53.78125 52.3125 53.816406 52.335938 53.855469 52.335938 L 54.066406 52.324219 C 54.105469 52.324219 54.140625 52.347656 54.152344 52.386719 L 54.1875 52.488281 C 54.230469 52.613281 54.222656 52.746094 54.160156 52.863281 L 54.046875 52.566406 C 54.03125 52.53125 53.996094 52.503906 53.957031 52.507812 L 53.722656 52.515625 C 53.683594 52.515625 53.644531 52.492188 53.628906 52.457031 L 53.539062 52.25 C 53.480469 52.117188 53.363281 52.011719 53.222656 51.96875 L 53.113281 51.933594 L 52.550781 52.195312 C 52.511719 52.214844 52.46875 52.21875 52.425781 52.203125 L 51.488281 51.882812 C 51.433594 51.863281 51.410156 51.796875 51.445312 51.746094 " clip-rule="nonzero"/></clipPath><clipPath id="9b35cecda0"><path d="M 51.679688 51.222656 L 54.035156 51.222656 L 54.035156 52.183594 L 51.679688 52.183594 Z M 51.679688 51.222656 " clip-rule="nonzero"/></clipPath><clipPath id="94a8aef5f7"><path d="M 54.027344 52.019531 C 54.054688 52.105469 53.996094 52.210938 53.917969 52.167969 C 53.898438 52.15625 53.882812 52.140625 53.875 52.121094 L 53.769531 51.84375 C 53.71875 51.707031 53.605469 51.605469 53.464844 51.566406 L 53.148438 51.476562 C 53.105469 51.464844 53.0625 51.46875 53.023438 51.488281 L 52.542969 51.714844 C 52.507812 51.730469 52.460938 51.734375 52.421875 51.722656 L 51.738281 51.511719 C 51.683594 51.496094 51.660156 51.429688 51.695312 51.382812 C 51.734375 51.324219 51.804688 51.300781 51.871094 51.320312 L 52.410156 51.476562 C 52.449219 51.488281 52.496094 51.484375 52.535156 51.464844 L 52.996094 51.242188 C 53.035156 51.222656 53.078125 51.21875 53.117188 51.230469 L 53.519531 51.335938 C 53.703125 51.382812 53.851562 51.523438 53.914062 51.703125 Z M 54.027344 52.019531 " clip-rule="nonzero"/></clipPath><clipPath id="20a17a7b71"><path d="M 53.71875 52.660156 L 54.046875 52.660156 L 54.046875 53.152344 L 53.71875 53.152344 Z M 53.71875 52.660156 " clip-rule="nonzero"/></clipPath><clipPath id="53f21850c3"><path d="M 53.851562 52.660156 C 53.890625 52.65625 53.929688 52.679688 53.945312 52.71875 L 54.027344 52.925781 C 54.054688 52.988281 54.050781 53.0625 54.019531 53.121094 C 53.996094 53.160156 53.941406 53.160156 53.921875 53.117188 L 53.722656 52.664062 Z M 53.851562 52.660156 " clip-rule="nonzero"/></clipPath><clipPath id="6ad688b19c"><path d="M 50.945312 52.402344 L 51.433594 52.402344 L 51.433594 52.820312 L 50.945312 52.820312 Z M 50.945312 52.402344 " clip-rule="nonzero"/></clipPath><clipPath id="ff822c9d09"><path d="M 50.980469 52.417969 L 50.988281 52.40625 L 51.339844 52.542969 C 51.378906 52.558594 51.40625 52.59375 51.414062 52.632812 L 51.429688 52.707031 C 51.445312 52.777344 51.375 52.835938 51.308594 52.808594 L 51.0625 52.707031 C 50.949219 52.660156 50.910156 52.519531 50.980469 52.417969 " clip-rule="nonzero"/></clipPath><clipPath id="e44d337eaa"><path d="M 51.164062 52.046875 L 53.03125 52.046875 L 53.03125 53.824219 L 51.164062 53.824219 Z M 51.164062 52.046875 " clip-rule="nonzero"/></clipPath><clipPath id="16e8254dfb"><path d="M 51.183594 52.121094 C 51.226562 52.0625 51.304688 52.035156 51.371094 52.0625 L 51.761719 52.199219 C 51.800781 52.214844 51.828125 52.246094 51.835938 52.289062 L 51.921875 52.710938 C 51.929688 52.753906 51.960938 52.785156 52 52.800781 L 52.574219 53.027344 C 52.722656 53.085938 52.851562 53.191406 52.9375 53.324219 L 53.003906 53.425781 C 53.027344 53.460938 53.035156 53.507812 53.027344 53.546875 L 52.976562 53.816406 L 52.789062 53.554688 C 52.703125 53.433594 52.582031 53.335938 52.441406 53.277344 L 51.757812 52.992188 C 51.71875 52.976562 51.691406 52.945312 51.683594 52.902344 L 51.605469 52.46875 C 51.597656 52.429688 51.570312 52.394531 51.53125 52.382812 L 51.230469 52.265625 C 51.171875 52.246094 51.148438 52.171875 51.183594 52.121094 " clip-rule="nonzero"/></clipPath><clipPath id="ba28c4a8b3"><path d="M 53.488281 53.617188 L 53.648438 53.617188 L 53.648438 53.894531 L 53.488281 53.894531 Z M 53.488281 53.617188 " clip-rule="nonzero"/></clipPath><clipPath id="642bce10a3"><path d="M 53.617188 53.65625 C 53.652344 53.71875 53.652344 53.796875 53.617188 53.859375 C 53.59375 53.902344 53.527344 53.90625 53.507812 53.859375 C 53.492188 53.828125 53.488281 53.792969 53.496094 53.761719 L 53.507812 53.671875 C 53.519531 53.617188 53.589844 53.605469 53.617188 53.652344 Z M 53.617188 53.65625 " clip-rule="nonzero"/></clipPath><clipPath id="3dd0c091b8"><path d="M 52.089844 52.355469 L 53.46875 52.355469 L 53.46875 54.222656 L 52.089844 54.222656 Z M 52.089844 52.355469 " clip-rule="nonzero"/></clipPath><clipPath id="95f92873db"><path d="M 53.050781 53.105469 C 52.972656 52.976562 52.851562 52.878906 52.710938 52.824219 L 52.183594 52.625 C 52.144531 52.613281 52.117188 52.578125 52.109375 52.539062 L 52.09375 52.472656 C 52.082031 52.398438 52.152344 52.339844 52.21875 52.363281 L 52.8125 52.578125 C 52.980469 52.636719 53.117188 52.753906 53.203125 52.90625 L 53.394531 53.25 C 53.414062 53.285156 53.421875 53.332031 53.414062 53.371094 L 53.328125 53.84375 C 53.324219 53.886719 53.332031 53.929688 53.355469 53.964844 L 53.464844 54.140625 C 53.414062 54.234375 53.277344 54.242188 53.214844 54.152344 L 53.132812 54.039062 C 53.109375 54.003906 53.101562 53.960938 53.109375 53.917969 L 53.195312 53.433594 C 53.203125 53.390625 53.195312 53.347656 53.171875 53.308594 Z M 53.050781 53.105469 " clip-rule="nonzero"/></clipPath><clipPath id="9580c8c3ad"><path d="M 51.988281 53.488281 L 53.152344 53.488281 L 53.152344 54.253906 L 51.988281 54.253906 Z M 51.988281 53.488281 " clip-rule="nonzero"/></clipPath><clipPath id="7ce8b67db0"><path d="M 52.347656 53.722656 C 52.316406 53.691406 52.28125 53.667969 52.242188 53.648438 L 51.992188 53.539062 L 52.039062 53.507812 C 52.074219 53.488281 52.117188 53.484375 52.15625 53.5 L 52.265625 53.546875 C 52.304688 53.566406 52.34375 53.589844 52.375 53.621094 L 52.652344 53.890625 C 52.683594 53.921875 52.722656 53.945312 52.761719 53.964844 L 53.027344 54.082031 L 53.152344 54.25 L 52.71875 54.054688 C 52.675781 54.035156 52.640625 54.011719 52.609375 53.980469 Z M 52.347656 53.722656 " clip-rule="nonzero"/></clipPath><clipPath id="55ea08a77e"><path d="M 52.542969 53.667969 L 52.933594 53.667969 L 52.933594 53.957031 L 52.542969 53.957031 Z M 52.542969 53.667969 " clip-rule="nonzero"/></clipPath><clipPath id="2354f05f4e"><path d="M 52.542969 53.671875 L 52.796875 53.785156 L 52.929688 53.957031 L 52.792969 53.894531 C 52.753906 53.878906 52.714844 53.851562 52.6875 53.820312 Z M 52.542969 53.671875 " clip-rule="nonzero"/></clipPath><clipPath id="9023b4a8f9"><path d="M 51.464844 53.378906 L 52.476562 53.378906 L 52.476562 53.945312 L 51.464844 53.945312 Z M 51.464844 53.378906 " clip-rule="nonzero"/></clipPath><clipPath id="11d199c97f"><path d="M 52.472656 53.941406 L 51.859375 53.667969 C 51.71875 53.601562 51.585938 53.507812 51.480469 53.394531 L 51.46875 53.378906 L 52.179688 53.703125 C 52.21875 53.71875 52.257812 53.746094 52.289062 53.773438 Z M 52.472656 53.941406 " clip-rule="nonzero"/></clipPath><clipPath id="f2bb9ea4df"><path d="M 51.292969 53.117188 L 52.714844 53.117188 L 52.714844 53.664062 L 51.292969 53.664062 Z M 51.292969 53.117188 " clip-rule="nonzero"/></clipPath><clipPath id="ef8361d3c9"><path d="M 51.296875 53.117188 L 51.773438 53.328125 C 51.808594 53.347656 51.851562 53.34375 51.886719 53.320312 L 51.96875 53.265625 C 52.003906 53.242188 52.046875 53.238281 52.085938 53.253906 L 52.359375 53.371094 C 52.5 53.429688 52.621094 53.53125 52.710938 53.65625 L 52.121094 53.398438 C 52.082031 53.382812 52.039062 53.386719 52.003906 53.40625 L 51.933594 53.453125 C 51.898438 53.472656 51.851562 53.476562 51.816406 53.460938 L 51.460938 53.300781 C 51.421875 53.285156 51.386719 53.253906 51.363281 53.21875 Z M 51.296875 53.117188 " clip-rule="nonzero"/></clipPath><clipPath id="2d19d7ac4a"><path d="M 51.117188 52.84375 L 51.902344 52.84375 L 51.902344 53.246094 L 51.117188 53.246094 Z M 51.117188 52.84375 " clip-rule="nonzero"/></clipPath><clipPath id="5604b918d3"><path d="M 51.121094 52.847656 L 51.902344 53.175781 L 51.84375 53.21875 C 51.8125 53.242188 51.769531 53.246094 51.730469 53.230469 L 51.289062 53.035156 C 51.25 53.019531 51.214844 52.988281 51.191406 52.953125 Z M 51.121094 52.847656 " clip-rule="nonzero"/></clipPath><clipPath id="40b6f070e9"><path d="M 12.675781 46.589844 L 13.488281 46.589844 L 13.488281 46.890625 L 12.675781 46.890625 Z M 12.675781 46.589844 " clip-rule="nonzero"/></clipPath><clipPath id="f92c9b172c"><path d="M 12.679688 46.726562 C 12.753906 46.617188 12.894531 46.566406 13.023438 46.601562 L 13.4375 46.707031 C 13.492188 46.722656 13.5 46.796875 13.449219 46.824219 L 13.359375 46.871094 C 13.320312 46.890625 13.277344 46.894531 13.234375 46.882812 Z M 12.679688 46.726562 " clip-rule="nonzero"/></clipPath><clipPath id="9febefd249"><path d="M 13.714844 47.792969 L 14.660156 47.792969 L 14.660156 49.125 L 13.714844 49.125 Z M 13.714844 47.792969 " clip-rule="nonzero"/></clipPath><clipPath id="66d29f84f5"><path d="M 13.808594 47.835938 C 13.894531 47.792969 13.96875 47.785156 14.03125 47.820312 C 14.113281 47.867188 14.183594 47.945312 14.226562 48.035156 L 14.632812 48.890625 C 14.664062 48.953125 14.660156 49.027344 14.628906 49.089844 C 14.605469 49.128906 14.542969 49.128906 14.523438 49.085938 L 14.101562 48.273438 C 14.035156 48.144531 13.917969 48.042969 13.777344 47.992188 L 13.765625 47.988281 C 13.707031 47.96875 13.703125 47.890625 13.757812 47.859375 Z M 13.808594 47.835938 " clip-rule="nonzero"/></clipPath><clipPath id="80e191e362"><path d="M 12.226562 47.277344 L 15.027344 47.277344 L 15.027344 48.46875 L 12.226562 48.46875 Z M 12.226562 47.277344 " clip-rule="nonzero"/></clipPath><clipPath id="c70bb21b4b"><path d="M 12.25 47.351562 C 12.289062 47.292969 12.363281 47.265625 12.429688 47.289062 L 13.25 47.554688 C 13.289062 47.566406 13.332031 47.5625 13.371094 47.542969 L 13.855469 47.3125 C 13.890625 47.292969 13.9375 47.292969 13.976562 47.304688 L 14.089844 47.335938 C 14.273438 47.390625 14.425781 47.523438 14.496094 47.703125 L 14.570312 47.882812 C 14.585938 47.917969 14.621094 47.941406 14.660156 47.941406 L 14.871094 47.929688 C 14.910156 47.929688 14.945312 47.953125 14.957031 47.988281 L 14.996094 48.09375 C 15.039062 48.214844 15.027344 48.351562 14.964844 48.46875 L 14.851562 48.171875 C 14.835938 48.132812 14.800781 48.109375 14.761719 48.109375 L 14.527344 48.117188 C 14.488281 48.121094 14.453125 48.097656 14.433594 48.058594 L 14.34375 47.855469 C 14.285156 47.71875 14.167969 47.617188 14.027344 47.574219 L 13.917969 47.539062 L 13.355469 47.800781 C 13.316406 47.820312 13.273438 47.820312 13.234375 47.808594 L 12.292969 47.488281 C 12.238281 47.46875 12.214844 47.398438 12.25 47.351562 " clip-rule="nonzero"/></clipPath><clipPath id="f5d54b9029"><path d="M 12.484375 46.828125 L 14.839844 46.828125 L 14.839844 47.785156 L 12.484375 47.785156 Z M 12.484375 46.828125 " clip-rule="nonzero"/></clipPath><clipPath id="f82a7dbc39"><path d="M 14.832031 47.625 C 14.859375 47.710938 14.804688 47.8125 14.722656 47.773438 C 14.707031 47.761719 14.691406 47.746094 14.679688 47.722656 L 14.578125 47.449219 C 14.523438 47.3125 14.410156 47.207031 14.269531 47.167969 L 13.953125 47.082031 C 13.910156 47.070312 13.867188 47.074219 13.828125 47.09375 L 13.351562 47.316406 C 13.3125 47.335938 13.265625 47.339844 13.226562 47.328125 L 12.542969 47.117188 C 12.488281 47.101562 12.46875 47.035156 12.5 46.988281 C 12.539062 46.929688 12.609375 46.90625 12.675781 46.925781 L 13.214844 47.082031 C 13.257812 47.09375 13.300781 47.089844 13.339844 47.070312 L 13.800781 46.847656 C 13.839844 46.828125 13.882812 46.824219 13.925781 46.835938 L 14.324219 46.941406 C 14.507812 46.988281 14.65625 47.125 14.71875 47.304688 Z M 14.832031 47.625 " clip-rule="nonzero"/></clipPath><clipPath id="7531c1ef12"><path d="M 14.523438 48.261719 L 14.851562 48.261719 L 14.851562 48.757812 L 14.523438 48.757812 Z M 14.523438 48.261719 " clip-rule="nonzero"/></clipPath><clipPath id="28d5847c3f"><path d="M 14.660156 48.265625 C 14.699219 48.261719 14.734375 48.285156 14.75 48.324219 L 14.835938 48.53125 C 14.859375 48.59375 14.855469 48.664062 14.824219 48.726562 C 14.800781 48.765625 14.746094 48.761719 14.726562 48.722656 L 14.527344 48.269531 Z M 14.660156 48.265625 " clip-rule="nonzero"/></clipPath><clipPath id="75b2b28d3e"><path d="M 11.75 48.003906 L 12.238281 48.003906 L 12.238281 48.425781 L 11.75 48.425781 Z M 11.75 48.003906 " clip-rule="nonzero"/></clipPath><clipPath id="329c77bd94"><path d="M 11.785156 48.023438 L 11.792969 48.007812 L 12.148438 48.148438 C 12.183594 48.164062 12.214844 48.195312 12.222656 48.238281 L 12.234375 48.3125 C 12.25 48.382812 12.179688 48.441406 12.113281 48.414062 L 11.871094 48.3125 C 11.753906 48.265625 11.714844 48.125 11.785156 48.023438 " clip-rule="nonzero"/></clipPath><clipPath id="9784996429"><path d="M 11.96875 47.652344 L 13.835938 47.652344 L 13.835938 49.429688 L 11.96875 49.429688 Z M 11.96875 47.652344 " clip-rule="nonzero"/></clipPath><clipPath id="b8196553df"><path d="M 11.988281 47.726562 C 12.03125 47.667969 12.109375 47.640625 12.175781 47.664062 L 12.566406 47.804688 C 12.605469 47.820312 12.632812 47.851562 12.640625 47.890625 L 12.730469 48.316406 C 12.738281 48.355469 12.765625 48.390625 12.804688 48.40625 L 13.378906 48.632812 C 13.527344 48.691406 13.65625 48.796875 13.742188 48.929688 L 13.808594 49.03125 C 13.832031 49.066406 13.839844 49.109375 13.832031 49.152344 L 13.78125 49.421875 L 13.597656 49.160156 C 13.507812 49.035156 13.386719 48.941406 13.246094 48.882812 L 12.5625 48.597656 C 12.523438 48.582031 12.496094 48.546875 12.488281 48.507812 L 12.410156 48.074219 C 12.40625 48.035156 12.375 48 12.335938 47.984375 L 12.035156 47.871094 C 11.976562 47.851562 11.953125 47.777344 11.988281 47.726562 " clip-rule="nonzero"/></clipPath><clipPath id="2339fdf104"><path d="M 14.292969 49.222656 L 14.453125 49.222656 L 14.453125 49.5 L 14.292969 49.5 Z M 14.292969 49.222656 " clip-rule="nonzero"/></clipPath><clipPath id="e222b29f04"><path d="M 14.421875 49.261719 C 14.457031 49.324219 14.457031 49.398438 14.425781 49.460938 C 14.398438 49.507812 14.332031 49.511719 14.3125 49.464844 C 14.296875 49.433594 14.292969 49.398438 14.300781 49.367188 L 14.316406 49.277344 C 14.324219 49.222656 14.394531 49.210938 14.421875 49.257812 Z M 14.421875 49.261719 " clip-rule="nonzero"/></clipPath><clipPath id="49354476e2"><path d="M 12.894531 47.960938 L 14.273438 47.960938 L 14.273438 49.828125 L 12.894531 49.828125 Z M 12.894531 47.960938 " clip-rule="nonzero"/></clipPath><clipPath id="50d0365db5"><path d="M 13.855469 48.710938 C 13.777344 48.582031 13.65625 48.480469 13.515625 48.429688 L 12.988281 48.230469 C 12.949219 48.214844 12.921875 48.183594 12.914062 48.140625 L 12.902344 48.074219 C 12.886719 48.003906 12.957031 47.945312 13.023438 47.96875 L 13.621094 48.179688 C 13.785156 48.238281 13.921875 48.355469 14.007812 48.511719 L 14.199219 48.855469 C 14.21875 48.890625 14.226562 48.933594 14.21875 48.976562 L 14.136719 49.449219 C 14.128906 49.492188 14.136719 49.535156 14.160156 49.570312 L 14.273438 49.742188 C 14.21875 49.839844 14.085938 49.847656 14.019531 49.757812 L 13.9375 49.640625 C 13.914062 49.609375 13.90625 49.5625 13.914062 49.523438 L 14 49.035156 C 14.007812 48.996094 14 48.949219 13.976562 48.914062 Z M 13.855469 48.710938 " clip-rule="nonzero"/></clipPath><clipPath id="2f6ca64a56"><path d="M 12.792969 49.09375 L 13.957031 49.09375 L 13.957031 49.859375 L 12.792969 49.859375 Z M 12.792969 49.09375 " clip-rule="nonzero"/></clipPath><clipPath id="f4d62373b8"><path d="M 13.15625 49.328125 C 13.125 49.296875 13.085938 49.273438 13.046875 49.253906 L 12.796875 49.144531 L 12.84375 49.113281 C 12.878906 49.089844 12.925781 49.089844 12.960938 49.105469 L 13.070312 49.152344 C 13.109375 49.171875 13.148438 49.195312 13.179688 49.226562 L 13.457031 49.496094 C 13.492188 49.527344 13.527344 49.550781 13.566406 49.570312 L 13.832031 49.6875 L 13.957031 49.855469 L 13.523438 49.65625 C 13.484375 49.640625 13.445312 49.613281 13.414062 49.582031 Z M 13.15625 49.328125 " clip-rule="nonzero"/></clipPath><clipPath id="f9cec907c1"><path d="M 13.347656 49.273438 L 13.738281 49.273438 L 13.738281 49.5625 L 13.347656 49.5625 Z M 13.347656 49.273438 " clip-rule="nonzero"/></clipPath><clipPath id="594e2a0150"><path d="M 13.347656 49.277344 L 13.601562 49.390625 L 13.734375 49.5625 L 13.597656 49.5 C 13.558594 49.484375 13.523438 49.457031 13.492188 49.425781 Z M 13.347656 49.277344 " clip-rule="nonzero"/></clipPath><clipPath id="ec3d4cea96"><path d="M 12.273438 48.984375 L 13.28125 48.984375 L 13.28125 49.550781 L 12.273438 49.550781 Z M 12.273438 48.984375 " clip-rule="nonzero"/></clipPath><clipPath id="1cccee7de0"><path d="M 13.277344 49.546875 L 12.664062 49.273438 C 12.523438 49.207031 12.394531 49.113281 12.285156 49 L 12.273438 48.984375 L 12.984375 49.304688 C 13.023438 49.324219 13.0625 49.347656 13.09375 49.378906 Z M 13.277344 49.546875 " clip-rule="nonzero"/></clipPath><clipPath id="8e4e7f217b"><path d="M 12.097656 48.71875 L 13.519531 48.71875 L 13.519531 49.265625 L 12.097656 49.265625 Z M 12.097656 48.71875 " clip-rule="nonzero"/></clipPath><clipPath id="338bc9ddd2"><path d="M 12.105469 48.722656 L 12.578125 48.933594 C 12.613281 48.949219 12.660156 48.945312 12.691406 48.925781 L 12.773438 48.871094 C 12.808594 48.847656 12.851562 48.84375 12.890625 48.859375 L 13.164062 48.976562 C 13.304688 49.035156 13.425781 49.136719 13.515625 49.261719 L 12.925781 49.003906 C 12.890625 48.988281 12.84375 48.992188 12.808594 49.011719 L 12.738281 49.058594 C 12.703125 49.078125 12.660156 49.082031 12.621094 49.066406 L 12.265625 48.90625 C 12.226562 48.890625 12.191406 48.859375 12.167969 48.824219 Z M 12.105469 48.722656 " clip-rule="nonzero"/></clipPath><clipPath id="317db56395"><path d="M 11.925781 48.449219 L 12.710938 48.449219 L 12.710938 48.847656 L 11.925781 48.847656 Z M 11.925781 48.449219 " clip-rule="nonzero"/></clipPath><clipPath id="07a4330fad"><path d="M 11.929688 48.453125 L 12.707031 48.78125 L 12.652344 48.820312 C 12.617188 48.84375 12.574219 48.851562 12.535156 48.832031 L 12.09375 48.640625 C 12.054688 48.621094 12.019531 48.59375 11.996094 48.558594 Z M 11.929688 48.453125 " clip-rule="nonzero"/></clipPath></defs><g clip-path="url(#0b9a180a1f)"><path fill="#5271ff" d="M 11.933594 46.324219 C 12.1875 46.699219 12.085938 47.214844 11.714844 47.46875 C 11.570312 47.566406 11.40625 47.613281 11.25 47.613281 C 10.984375 47.613281 10.722656 47.492188 10.566406 47.25 C 7.242188 42.359375 5.480469 36.628906 5.480469 30.695312 C 5.480469 23.535156 8.023438 16.773438 12.683594 11.417969 L 7.472656 11.792969 C 7.019531 11.824219 6.625 11.484375 6.589844 11.03125 C 6.558594 10.582031 6.898438 10.183594 7.351562 10.152344 L 14.632812 9.625 C 14.851562 9.601562 15.0625 9.679688 15.226562 9.820312 C 15.390625 9.964844 15.492188 10.164062 15.511719 10.382812 L 16.042969 17.664062 C 16.074219 18.117188 15.734375 18.511719 15.28125 18.542969 C 15.257812 18.542969 15.238281 18.542969 15.214844 18.542969 C 14.785156 18.542969 14.421875 18.214844 14.390625 17.773438 L 14.003906 12.386719 C 9.566406 17.453125 7.132812 23.875 7.132812 30.671875 C 7.132812 36.277344 8.792969 41.6875 11.933594 46.300781 Z M 50.570312 53.703125 C 45.957031 56.839844 40.546875 58.503906 34.941406 58.503906 C 28.144531 58.503906 21.726562 56.070312 16.660156 51.632812 L 22.042969 51.234375 C 22.496094 51.203125 22.835938 50.804688 22.804688 50.355469 C 22.769531 49.902344 22.363281 49.5625 21.921875 49.59375 L 14.644531 50.121094 C 14.191406 50.15625 13.851562 50.550781 13.882812 51.003906 L 14.410156 58.285156 C 14.445312 58.726562 14.808594 59.054688 15.238281 59.054688 C 15.257812 59.054688 15.28125 59.054688 15.304688 59.054688 C 15.753906 59.023438 16.097656 58.625 16.0625 58.175781 L 15.6875 52.964844 C 21.042969 57.613281 27.804688 60.167969 34.964844 60.167969 C 40.902344 60.167969 46.628906 58.40625 51.519531 55.078125 C 51.894531 54.824219 51.992188 54.308594 51.738281 53.933594 C 51.484375 53.558594 50.96875 53.460938 50.59375 53.714844 Z M 19.3125 7.683594 C 23.929688 4.546875 29.335938 2.882812 34.941406 2.882812 C 41.738281 2.882812 48.160156 5.316406 53.226562 9.753906 L 47.851562 10.140625 C 47.398438 10.175781 47.058594 10.570312 47.089844 11.023438 C 47.125 11.460938 47.488281 11.792969 47.917969 11.792969 C 47.9375 11.792969 47.960938 11.792969 47.984375 11.792969 L 55.265625 11.265625 C 55.714844 11.230469 56.058594 10.835938 56.023438 10.382812 L 55.496094 3.101562 C 55.460938 2.652344 55.066406 2.308594 54.613281 2.34375 C 54.164062 2.375 53.820312 2.773438 53.855469 3.222656 L 54.226562 8.433594 C 48.875 3.785156 42.113281 1.230469 34.953125 1.230469 C 29.015625 1.230469 23.289062 2.992188 18.398438 6.320312 C 18.023438 6.574219 17.925781 7.089844 18.179688 7.464844 C 18.433594 7.839844 18.949219 7.9375 19.324219 7.683594 Z M 62.410156 49.59375 L 57.203125 49.96875 C 61.851562 44.617188 64.40625 37.851562 64.40625 30.695312 C 64.40625 24.757812 62.644531 19.03125 59.316406 14.140625 C 59.0625 13.765625 58.546875 13.664062 58.171875 13.917969 C 57.796875 14.171875 57.699219 14.691406 57.953125 15.0625 C 61.089844 19.679688 62.753906 25.085938 62.753906 30.695312 C 62.753906 37.488281 60.320312 43.910156 55.878906 48.976562 L 55.496094 43.589844 C 55.460938 43.140625 55.066406 42.789062 54.613281 42.832031 C 54.164062 42.863281 53.820312 43.261719 53.855469 43.710938 L 54.382812 50.992188 C 54.394531 51.214844 54.503906 51.410156 54.667969 51.554688 C 54.824219 51.6875 55.011719 51.753906 55.207031 51.753906 C 55.230469 51.753906 55.253906 51.753906 55.265625 51.753906 L 62.542969 51.222656 C 62.996094 51.191406 63.335938 50.792969 63.304688 50.34375 C 63.269531 49.890625 62.863281 49.539062 62.421875 49.582031 Z M 40.4375 26.574219 L 26.121094 18.300781 L 20.625 21.476562 L 34.941406 29.757812 L 40.449219 26.574219 Z M 49.25 21.476562 L 35.351562 13.445312 C 35.097656 13.300781 34.777344 13.300781 34.523438 13.445312 L 27.773438 17.34375 L 42.089844 25.617188 Z M 19.785156 22.90625 L 34.105469 31.1875 L 34.105469 47.710938 L 20.203125 39.679688 C 19.953125 39.539062 19.785156 39.261719 19.785156 38.964844 Z M 25.710938 37.785156 L 30.117188 40.320312 C 30.25 40.398438 30.394531 40.429688 30.527344 40.429688 C 30.8125 40.429688 31.085938 40.289062 31.242188 40.011719 C 31.472656 39.617188 31.328125 39.109375 30.933594 38.886719 L 26.527344 36.355469 C 26.128906 36.136719 25.625 36.265625 25.402344 36.664062 C 25.171875 37.058594 25.316406 37.566406 25.710938 37.785156 Z M 50.074219 38.976562 L 50.074219 22.917969 L 42.917969 27.058594 L 42.917969 30.992188 C 42.917969 31.441406 42.542969 31.816406 42.089844 31.816406 C 41.640625 31.816406 41.265625 31.441406 41.265625 30.992188 L 41.265625 28.015625 L 35.757812 31.199219 L 35.757812 47.722656 L 49.65625 39.691406 C 49.910156 39.550781 50.074219 39.273438 50.074219 38.976562 Z M 50.074219 38.976562 " fill-opacity="1" fill-rule="nonzero"/></g><g clip-path="url(#9bf5ba4254)"><g clip-path="url(#6292144cbc)"><path fill="#f266ff" d="M 15.050781 7.128906 L 18.386719 7.128906 L 18.386719 10.457031 L 15.050781 10.457031 Z M 15.050781 7.128906 " fill-opacity="1" fill-rule="nonzero"/></g></g><g clip-path="url(#5aca18c011)"><g clip-path="url(#1f955f72da)"><path fill="#ff637e" d="M 15.050781 7.128906 L 18.386719 7.128906 L 18.386719 10.457031 L 15.050781 10.457031 Z M 15.050781 7.128906 " fill-opacity="1" fill-rule="nonzero"/></g></g><g clip-path="url(#258dcf60c6)"><g clip-path="url(#3fc4242dbc)"><path fill="#00d7be" d="M 15.050781 7.128906 L 18.386719 7.128906 L 18.386719 10.457031 L 15.050781 10.457031 Z M 15.050781 7.128906 " fill-opacity="1" fill-rule="nonzero"/></g></g><g clip-path="url(#15bb535140)"><g clip-path="url(#084a066a6a)"><path fill="#1f93ff" d="M 15.050781 7.128906 L 18.386719 7.128906 L 18.386719 10.457031 L 15.050781 10.457031 Z M 15.050781 7.128906 " fill-opacity="1" fill-rule="nonzero"/></g></g><g clip-path="url(#eaa7ae673f)"><g clip-path="url(#e4dca69e40)"><path fill="#ffd500" d="M 15.050781 7.128906 L 18.386719 7.128906 L 18.386719 10.457031 L 15.050781 10.457031 Z M 15.050781 7.128906 " fill-opacity="1" fill-rule="nonzero"/></g></g><g clip-path="url(#427160933b)"><g clip-path="url(#d3aa24d324)"><path fill="#1f93ff" d="M 15.050781 7.128906 L 18.386719 7.128906 L 18.386719 10.457031 L 15.050781 10.457031 Z M 15.050781 7.128906 " fill-opacity="1" fill-rule="nonzero"/></g></g><g clip-path="url(#bbe472b389)"><g clip-path="url(#50d11e168a)"><path fill="#f266ff" d="M 15.050781 7.128906 L 18.386719 7.128906 L 18.386719 10.457031 L 15.050781 10.457031 Z M 15.050781 7.128906 " fill-opacity="1" fill-rule="nonzero"/></g></g><g clip-path="url(#62de1278ce)"><g clip-path="url(#cc5a7eea21)"><path fill="#1f93ff" d="M 15.050781 7.128906 L 18.386719 7.128906 L 18.386719 10.457031 L 15.050781 10.457031 Z M 15.050781 7.128906 " fill-opacity="1" fill-rule="nonzero"/></g></g><g clip-path="url(#51e403e7f3)"><g clip-path="url(#59cbefe13d)"><path fill="#ffcf00" d="M 15.050781 7.128906 L 18.386719 7.128906 L 18.386719 10.457031 L 15.050781 10.457031 Z M 15.050781 7.128906 " fill-opacity="1" fill-rule="nonzero"/></g></g><g clip-path="url(#02d358b574)"><g clip-path="url(#0c7f60df0c)"><path fill="#61d742" d="M 15.050781 7.128906 L 18.386719 7.128906 L 18.386719 10.457031 L 15.050781 10.457031 Z M 15.050781 7.128906 " fill-opacity="1" fill-rule="nonzero"/></g></g><g clip-path="url(#fcc01f64e3)"><g clip-path="url(#14f539ab08)"><path fill="#1f93ff" d="M 15.050781 7.128906 L 18.386719 7.128906 L 18.386719 10.457031 L 15.050781 10.457031 Z M 15.050781 7.128906 " fill-opacity="1" fill-rule="nonzero"/></g></g><g clip-path="url(#b90dc53973)"><g clip-path="url(#1669f5f555)"><path fill="#1f93ff" d="M 15.050781 7.128906 L 18.386719 7.128906 L 18.386719 10.457031 L 15.050781 10.457031 Z M 15.050781 7.128906 " fill-opacity="1" fill-rule="nonzero"/></g></g><g clip-path="url(#5c06ae14ef)"><g clip-path="url(#76b8d65e64)"><path fill="#ff7a78" d="M 15.050781 7.128906 L 18.386719 7.128906 L 18.386719 10.457031 L 15.050781 10.457031 Z M 15.050781 7.128906 " fill-opacity="1" fill-rule="nonzero"/></g></g><g clip-path="url(#8a06112260)"><g clip-path="url(#4bdd1e20d7)"><path fill="#ffcf00" d="M 15.050781 7.128906 L 18.386719 7.128906 L 18.386719 10.457031 L 15.050781 10.457031 Z M 15.050781 7.128906 " fill-opacity="1" fill-rule="nonzero"/></g></g><g clip-path="url(#561f979afc)"><g clip-path="url(#5ae1fc9d34)"><path fill="#f266ff" d="M 55.222656 10.457031 L 58.558594 10.457031 L 58.558594 13.785156 L 55.222656 13.785156 Z M 55.222656 10.457031 " fill-opacity="1" fill-rule="nonzero"/></g></g><g clip-path="url(#cbe920f0de)"><g clip-path="url(#c35cf13297)"><path fill="#ff637e" d="M 55.222656 10.457031 L 58.558594 10.457031 L 58.558594 13.785156 L 55.222656 13.785156 Z M 55.222656 10.457031 " fill-opacity="1" fill-rule="nonzero"/></g></g><g clip-path="url(#46050919c9)"><g clip-path="url(#c16c7e977b)"><path fill="#00d7be" d="M 55.222656 10.457031 L 58.558594 10.457031 L 58.558594 13.785156 L 55.222656 13.785156 Z M 55.222656 10.457031 " fill-opacity="1" fill-rule="nonzero"/></g></g><g clip-path="url(#325bfe75f8)"><g clip-path="url(#45b30195a1)"><path fill="#1f93ff" d="M 55.222656 10.457031 L 58.558594 10.457031 L 58.558594 13.785156 L 55.222656 13.785156 Z M 55.222656 10.457031 " fill-opacity="1" fill-rule="nonzero"/></g></g><g clip-path="url(#90a674f13e)"><g clip-path="url(#cd588e74e2)"><path fill="#ffd500" d="M 55.222656 10.457031 L 58.558594 10.457031 L 58.558594 13.785156 L 55.222656 13.785156 Z M 55.222656 10.457031 " fill-opacity="1" fill-rule="nonzero"/></g></g><g clip-path="url(#33b50ae679)"><g clip-path="url(#907fc23d05)"><path fill="#1f93ff" d="M 55.222656 10.457031 L 58.558594 10.457031 L 58.558594 13.785156 L 55.222656 13.785156 Z M 55.222656 10.457031 " fill-opacity="1" fill-rule="nonzero"/></g></g><g clip-path="url(#ca513a8e28)"><g clip-path="url(#8cf56b9c14)"><path fill="#f266ff" d="M 55.222656 10.457031 L 58.558594 10.457031 L 58.558594 13.785156 L 55.222656 13.785156 Z M 55.222656 10.457031 " fill-opacity="1" fill-rule="nonzero"/></g></g><g clip-path="url(#aa817f2b81)"><g clip-path="url(#8838cec2f5)"><path fill="#1f93ff" d="M 55.222656 10.457031 L 58.558594 10.457031 L 58.558594 13.785156 L 55.222656 13.785156 Z M 55.222656 10.457031 " fill-opacity="1" fill-rule="nonzero"/></g></g><g clip-path="url(#09b47ece28)"><g clip-path="url(#31a55e9206)"><path fill="#ffcf00" d="M 55.222656 10.457031 L 58.558594 10.457031 L 58.558594 13.785156 L 55.222656 13.785156 Z M 55.222656 10.457031 " fill-opacity="1" fill-rule="nonzero"/></g></g><g clip-path="url(#8d4b732129)"><g clip-path="url(#7f55422f7f)"><path fill="#61d742" d="M 55.222656 10.457031 L 58.558594 10.457031 L 58.558594 13.785156 L 55.222656 13.785156 Z M 55.222656 10.457031 " fill-opacity="1" fill-rule="nonzero"/></g></g><g clip-path="url(#955aaecfdc)"><g clip-path="url(#77c6fffc5e)"><path fill="#1f93ff" d="M 55.222656 10.457031 L 58.558594 10.457031 L 58.558594 13.785156 L 55.222656 13.785156 Z M 55.222656 10.457031 " fill-opacity="1" fill-rule="nonzero"/></g></g><g clip-path="url(#4cfd326851)"><g clip-path="url(#33c95ccb60)"><path fill="#1f93ff" d="M 55.222656 10.457031 L 58.558594 10.457031 L 58.558594 13.785156 L 55.222656 13.785156 Z M 55.222656 10.457031 " fill-opacity="1" fill-rule="nonzero"/></g></g><g clip-path="url(#80c07d4439)"><g clip-path="url(#1c28e9dfd3)"><path fill="#ff7a78" d="M 55.222656 10.457031 L 58.558594 10.457031 L 58.558594 13.785156 L 55.222656 13.785156 Z M 55.222656 10.457031 " fill-opacity="1" fill-rule="nonzero"/></g></g><g clip-path="url(#94e7a0584c)"><g clip-path="url(#eef8cb245b)"><path fill="#ffcf00" d="M 55.222656 10.457031 L 58.558594 10.457031 L 58.558594 13.785156 L 55.222656 13.785156 Z M 55.222656 10.457031 " fill-opacity="1" fill-rule="nonzero"/></g></g><g clip-path="url(#973eedc956)"><g clip-path="url(#2758f274de)"><path fill="#f266ff" d="M 50.914062 50.953125 L 54.246094 50.953125 L 54.246094 54.28125 L 50.914062 54.28125 Z M 50.914062 50.953125 " fill-opacity="1" fill-rule="nonzero"/></g></g><g clip-path="url(#85c963f25a)"><g clip-path="url(#6bef799309)"><path fill="#ff637e" d="M 50.914062 50.953125 L 54.246094 50.953125 L 54.246094 54.28125 L 50.914062 54.28125 Z M 50.914062 50.953125 " fill-opacity="1" fill-rule="nonzero"/></g></g><g clip-path="url(#6ce9aed523)"><g clip-path="url(#171f5dfea6)"><path fill="#00d7be" d="M 50.914062 50.953125 L 54.246094 50.953125 L 54.246094 54.28125 L 50.914062 54.28125 Z M 50.914062 50.953125 " fill-opacity="1" fill-rule="nonzero"/></g></g><g clip-path="url(#9b35cecda0)"><g clip-path="url(#94a8aef5f7)"><path fill="#1f93ff" d="M 50.914062 50.953125 L 54.246094 50.953125 L 54.246094 54.28125 L 50.914062 54.28125 Z M 50.914062 50.953125 " fill-opacity="1" fill-rule="nonzero"/></g></g><g clip-path="url(#20a17a7b71)"><g clip-path="url(#53f21850c3)"><path fill="#ffd500" d="M 50.914062 50.953125 L 54.246094 50.953125 L 54.246094 54.28125 L 50.914062 54.28125 Z M 50.914062 50.953125 " fill-opacity="1" fill-rule="nonzero"/></g></g><g clip-path="url(#6ad688b19c)"><g clip-path="url(#ff822c9d09)"><path fill="#1f93ff" d="M 50.914062 50.953125 L 54.246094 50.953125 L 54.246094 54.28125 L 50.914062 54.28125 Z M 50.914062 50.953125 " fill-opacity="1" fill-rule="nonzero"/></g></g><g clip-path="url(#e44d337eaa)"><g clip-path="url(#16e8254dfb)"><path fill="#f266ff" d="M 50.914062 50.953125 L 54.246094 50.953125 L 54.246094 54.28125 L 50.914062 54.28125 Z M 50.914062 50.953125 " fill-opacity="1" fill-rule="nonzero"/></g></g><g clip-path="url(#ba28c4a8b3)"><g clip-path="url(#642bce10a3)"><path fill="#1f93ff" d="M 50.914062 50.953125 L 54.246094 50.953125 L 54.246094 54.28125 L 50.914062 54.28125 Z M 50.914062 50.953125 " fill-opacity="1" fill-rule="nonzero"/></g></g><g clip-path="url(#3dd0c091b8)"><g clip-path="url(#95f92873db)"><path fill="#ffcf00" d="M 50.914062 50.953125 L 54.246094 50.953125 L 54.246094 54.28125 L 50.914062 54.28125 Z M 50.914062 50.953125 " fill-opacity="1" fill-rule="nonzero"/></g></g><g clip-path="url(#9580c8c3ad)"><g clip-path="url(#7ce8b67db0)"><path fill="#61d742" d="M 50.914062 50.953125 L 54.246094 50.953125 L 54.246094 54.28125 L 50.914062 54.28125 Z M 50.914062 50.953125 " fill-opacity="1" fill-rule="nonzero"/></g></g><g clip-path="url(#55ea08a77e)"><g clip-path="url(#2354f05f4e)"><path fill="#1f93ff" d="M 50.914062 50.953125 L 54.246094 50.953125 L 54.246094 54.28125 L 50.914062 54.28125 Z M 50.914062 50.953125 " fill-opacity="1" fill-rule="nonzero"/></g></g><g clip-path="url(#9023b4a8f9)"><g clip-path="url(#11d199c97f)"><path fill="#1f93ff" d="M 50.914062 50.953125 L 54.246094 50.953125 L 54.246094 54.28125 L 50.914062 54.28125 Z M 50.914062 50.953125 " fill-opacity="1" fill-rule="nonzero"/></g></g><g clip-path="url(#f2bb9ea4df)"><g clip-path="url(#ef8361d3c9)"><path fill="#ff7a78" d="M 50.914062 50.953125 L 54.246094 50.953125 L 54.246094 54.28125 L 50.914062 54.28125 Z M 50.914062 50.953125 " fill-opacity="1" fill-rule="nonzero"/></g></g><g clip-path="url(#2d19d7ac4a)"><g clip-path="url(#5604b918d3)"><path fill="#ffcf00" d="M 50.914062 50.953125 L 54.246094 50.953125 L 54.246094 54.28125 L 50.914062 54.28125 Z M 50.914062 50.953125 " fill-opacity="1" fill-rule="nonzero"/></g></g><g clip-path="url(#40b6f070e9)"><g clip-path="url(#f92c9b172c)"><path fill="#f266ff" d="M 11.71875 46.558594 L 15.050781 46.558594 L 15.050781 49.886719 L 11.71875 49.886719 Z M 11.71875 46.558594 " fill-opacity="1" fill-rule="nonzero"/></g></g><g clip-path="url(#9febefd249)"><g clip-path="url(#66d29f84f5)"><path fill="#ff637e" d="M 11.71875 46.558594 L 15.050781 46.558594 L 15.050781 49.886719 L 11.71875 49.886719 Z M 11.71875 46.558594 " fill-opacity="1" fill-rule="nonzero"/></g></g><g clip-path="url(#80e191e362)"><g clip-path="url(#c70bb21b4b)"><path fill="#00d7be" d="M 11.71875 46.558594 L 15.050781 46.558594 L 15.050781 49.886719 L 11.71875 49.886719 Z M 11.71875 46.558594 " fill-opacity="1" fill-rule="nonzero"/></g></g><g clip-path="url(#f5d54b9029)"><g clip-path="url(#f82a7dbc39)"><path fill="#1f93ff" d="M 11.71875 46.558594 L 15.050781 46.558594 L 15.050781 49.886719 L 11.71875 49.886719 Z M 11.71875 46.558594 " fill-opacity="1" fill-rule="nonzero"/></g></g><g clip-path="url(#7531c1ef12)"><g clip-path="url(#28d5847c3f)"><path fill="#ffd500" d="M 11.71875 46.558594 L 15.050781 46.558594 L 15.050781 49.886719 L 11.71875 49.886719 Z M 11.71875 46.558594 " fill-opacity="1" fill-rule="nonzero"/></g></g><g clip-path="url(#75b2b28d3e)"><g clip-path="url(#329c77bd94)"><path fill="#1f93ff" d="M 11.71875 46.558594 L 15.050781 46.558594 L 15.050781 49.886719 L 11.71875 49.886719 Z M 11.71875 46.558594 " fill-opacity="1" fill-rule="nonzero"/></g></g><g clip-path="url(#9784996429)"><g clip-path="url(#b8196553df)"><path fill="#f266ff" d="M 11.71875 46.558594 L 15.050781 46.558594 L 15.050781 49.886719 L 11.71875 49.886719 Z M 11.71875 46.558594 " fill-opacity="1" fill-rule="nonzero"/></g></g><g clip-path="url(#2339fdf104)"><g clip-path="url(#e222b29f04)"><path fill="#1f93ff" d="M 11.71875 46.558594 L 15.050781 46.558594 L 15.050781 49.886719 L 11.71875 49.886719 Z M 11.71875 46.558594 " fill-opacity="1" fill-rule="nonzero"/></g></g><g clip-path="url(#49354476e2)"><g clip-path="url(#50d0365db5)"><path fill="#ffcf00" d="M 11.71875 46.558594 L 15.050781 46.558594 L 15.050781 49.886719 L 11.71875 49.886719 Z M 11.71875 46.558594 " fill-opacity="1" fill-rule="nonzero"/></g></g><g clip-path="url(#2f6ca64a56)"><g clip-path="url(#f4d62373b8)"><path fill="#61d742" d="M 11.71875 46.558594 L 15.050781 46.558594 L 15.050781 49.886719 L 11.71875 49.886719 Z M 11.71875 46.558594 " fill-opacity="1" fill-rule="nonzero"/></g></g><g clip-path="url(#f9cec907c1)"><g clip-path="url(#594e2a0150)"><path fill="#1f93ff" d="M 11.71875 46.558594 L 15.050781 46.558594 L 15.050781 49.886719 L 11.71875 49.886719 Z M 11.71875 46.558594 " fill-opacity="1" fill-rule="nonzero"/></g></g><g clip-path="url(#ec3d4cea96)"><g clip-path="url(#1cccee7de0)"><path fill="#1f93ff" d="M 11.71875 46.558594 L 15.050781 46.558594 L 15.050781 49.886719 L 11.71875 49.886719 Z M 11.71875 46.558594 " fill-opacity="1" fill-rule="nonzero"/></g></g><g clip-path="url(#8e4e7f217b)"><g clip-path="url(#338bc9ddd2)"><path fill="#ff7a78" d="M 11.71875 46.558594 L 15.050781 46.558594 L 15.050781 49.886719 L 11.71875 49.886719 Z M 11.71875 46.558594 " fill-opacity="1" fill-rule="nonzero"/></g></g><g clip-path="url(#317db56395)"><g clip-path="url(#07a4330fad)"><path fill="#ffcf00" d="M 11.71875 46.558594 L 15.050781 46.558594 L 15.050781 49.886719 L 11.71875 49.886719 Z M 11.71875 46.558594 " fill-opacity="1" fill-rule="nonzero"/></g></g></svg>