<?xml version="1.0" encoding="UTF-8"?>
<svg xmlns="http://www.w3.org/2000/svg" version="1.1" xmlns:xlink="http://www.w3.org/1999/xlink" viewBox="0 0 1598 923">
  <defs>
    <style>
      .cls-1 {
        fill: url(#radial-gradient-34);
      }

      .cls-2 {
        fill: url(#radial-gradient-33);
      }

      .cls-2, .cls-3, .cls-4, .cls-5, .cls-6, .cls-7, .cls-8, .cls-9, .cls-10, .cls-11, .cls-12, .cls-13, .cls-14, .cls-15 {
        mix-blend-mode: multiply;
      }

      .cls-16 {
        fill: url(#radial-gradient-10);
      }

      .cls-17 {
        fill: #deedf8;
      }

      .cls-18 {
        fill: #d6e5f0;
      }

      .cls-19 {
        clip-path: url(#clippath-21);
      }

      .cls-20 {
        mask: url(#mask-15);
      }

      .cls-21 {
        clip-path: url(#clippath-6);
      }

      .cls-22 {
        clip-path: url(#clippath-7);
      }

      .cls-23 {
        clip-path: url(#clippath-17);
      }

      .cls-24 {
        clip-path: url(#clippath-31);
      }

      .cls-25 {
        mask: url(#mask-5);
      }

      .cls-26 {
        mask: url(#mask-13);
      }

      .cls-27 {
        fill: #a6c2d5;
      }

      .cls-28 {
        clip-path: url(#clippath-15);
      }

      .cls-29 {
        clip-path: url(#clippath-33);
      }

      .cls-30 {
        fill: url(#radial-gradient-35);
      }

      .cls-31 {
        clip-path: url(#clippath-18);
      }

      .cls-32 {
        clip-path: url(#clippath-4);
      }

      .cls-33 {
        fill: #deeffd;
      }

      .cls-34 {
        fill: #949ca1;
      }

      .cls-35 {
        fill: #cbd6dc;
      }

      .cls-36 {
        fill: #d8e9f7;
      }

      .cls-37 {
        fill: url(#linear-gradient-2);
      }

      .cls-38 {
        clip-path: url(#clippath-22);
      }

      .cls-39 {
        mask: url(#mask-1);
      }

      .cls-40 {
        clip-path: url(#clippath-23);
      }

      .cls-41 {
        fill: #d0e2ed;
      }

      .cls-42 {
        fill: #d0e3f0;
      }

      .cls-3 {
        fill: url(#radial-gradient-23);
      }

      .cls-43 {
        filter: url(#luminosity-noclip-21);
      }

      .cls-44 {
        mask: url(#mask-10);
      }

      .cls-45 {
        fill: #cfe0ed;
      }

      .cls-46 {
        mask: url(#mask-6);
      }

      .cls-47 {
        clip-path: url(#clippath-9);
      }

      .cls-48 {
        mask: url(#mask-7);
      }

      .cls-49 {
        clip-path: url(#clippath-10);
      }

      .cls-50 {
        mask: url(#mask-18);
      }

      .cls-51 {
        fill: #bdd1e1;
      }

      .cls-52 {
        fill: url(#radial-gradient-14);
      }

      .cls-53 {
        filter: url(#luminosity-noclip-15);
      }

      .cls-54 {
        filter: url(#luminosity-noclip-5);
      }

      .cls-55 {
        mask: url(#mask-17);
      }

      .cls-56 {
        mask: url(#mask);
      }

      .cls-57 {
        clip-path: url(#clippath-25);
      }

      .cls-58 {
        fill: url(#radial-gradient-16);
      }

      .cls-59 {
        clip-path: url(#clippath-27);
      }

      .cls-60 {
        fill: url(#radial-gradient-18);
      }

      .cls-4 {
        fill: url(#radial-gradient-13);
      }

      .cls-61 {
        fill: url(#radial-gradient-38);
      }

      .cls-62 {
        mask: url(#mask-20);
      }

      .cls-63 {
        clip-path: url(#clippath-11);
      }

      .cls-64 {
        fill: #c3d6e4;
      }

      .cls-65 {
        fill: #91b0c6;
      }

      .cls-66 {
        fill: #e3f2fd;
      }

      .cls-67 {
        fill: none;
      }

      .cls-68 {
        fill: url(#radial-gradient-37);
      }

      .cls-69 {
        fill: url(#radial-gradient);
      }

      .cls-70 {
        mask: url(#mask-8);
      }

      .cls-71 {
        fill: url(#radial-gradient-3);
      }

      .cls-72 {
        filter: url(#luminosity-noclip-11);
      }

      .cls-73 {
        clip-path: url(#clippath-28);
      }

      .cls-74 {
        mask: url(#mask-2);
      }

      .cls-75 {
        filter: url(#luminosity-noclip-3);
      }

      .cls-5 {
        fill: url(#radial-gradient-32);
      }

      .cls-76 {
        fill: #8ba9be;
      }

      .cls-77 {
        fill: #c8dbe9;
      }

      .cls-78 {
        mask: url(#mask-9);
      }

      .cls-79 {
        clip-path: url(#clippath-1);
      }

      .cls-80 {
        fill: url(#radial-gradient-20);
      }

      .cls-81 {
        fill: #a7c3d4;
      }

      .cls-6 {
        fill: url(#radial-gradient-27);
      }

      .cls-82 {
        fill: #bcc8cf;
      }

      .cls-83 {
        fill: url(#radial-gradient-29);
      }

      .cls-84 {
        fill: #8eadc6;
      }

      .cls-85 {
        fill: #5bbacf;
      }

      .cls-86 {
        mask: url(#mask-21);
      }

      .cls-87 {
        fill: #98b4c9;
      }

      .cls-88 {
        isolation: isolate;
      }

      .cls-89 {
        fill: #b4c8da;
      }

      .cls-7 {
        fill: #85d3ff;
      }

      .cls-90 {
        fill: #c7d7e3;
      }

      .cls-91 {
        fill: url(#radial-gradient-11);
      }

      .cls-92 {
        clip-path: url(#clippath-5);
      }

      .cls-93 {
        clip-path: url(#clippath-20);
      }

      .cls-94 {
        fill: url(#radial-gradient-26);
      }

      .cls-8 {
        fill: url(#radial-gradient-24);
      }

      .cls-95 {
        clip-path: url(#clippath-8);
      }

      .cls-9 {
        fill: url(#radial-gradient-9);
      }

      .cls-96 {
        fill: #66939e;
      }

      .cls-97 {
        fill: #b0c8da;
      }

      .cls-98 {
        filter: url(#luminosity-noclip-17);
      }

      .cls-10 {
        fill: url(#radial-gradient-5);
      }

      .cls-99 {
        filter: url(#luminosity-noclip-13);
      }

      .cls-100 {
        fill: #d0dce6;
      }

      .cls-101 {
        filter: url(#luminosity-noclip-19);
      }

      .cls-102 {
        clip-path: url(#clippath-26);
      }

      .cls-103 {
        fill: url(#radial-gradient-8);
      }

      .cls-104 {
        fill: url(#radial-gradient-2);
      }

      .cls-105 {
        clip-path: url(#clippath-12);
      }

      .cls-106 {
        filter: url(#luminosity-noclip-9);
      }

      .cls-107 {
        fill: #d3dee7;
      }

      .cls-108 {
        clip-path: url(#clippath-14);
      }

      .cls-109 {
        fill: #a1b7c9;
      }

      .cls-110 {
        fill: url(#radial-gradient-21);
      }

      .cls-111 {
        mask: url(#mask-16);
      }

      .cls-112 {
        fill: #7d98ab;
      }

      .cls-113 {
        clip-path: url(#clippath-30);
      }

      .cls-114 {
        mask: url(#mask-19);
      }

      .cls-115 {
        clip-path: url(#clippath-19);
      }

      .cls-116 {
        fill: #adc0cf;
      }

      .cls-117 {
        fill: url(#radial-gradient-22);
      }

      .cls-118 {
        fill: url(#radial-gradient-36);
      }

      .cls-119 {
        fill: #818385;
      }

      .cls-120 {
        clip-path: url(#clippath-32);
      }

      .cls-121 {
        fill: url(#radial-gradient-12);
      }

      .cls-122 {
        fill: url(#radial-gradient-19);
      }

      .cls-11 {
        fill: url(#radial-gradient-30);
      }

      .cls-123 {
        fill: #8bacc3;
      }

      .cls-124 {
        mask: url(#mask-11);
      }

      .cls-125 {
        fill: url(#radial-gradient-15);
      }

      .cls-12 {
        fill: url(#radial-gradient-25);
      }

      .cls-126 {
        fill: #a2bcd0;
      }

      .cls-127 {
        mask: url(#mask-12);
      }

      .cls-128 {
        fill: #a9c4d7;
      }

      .cls-129 {
        clip-path: url(#clippath-16);
      }

      .cls-130 {
        fill: #e1ecf4;
      }

      .cls-131 {
        clip-path: url(#clippath-2);
      }

      .cls-132 {
        fill: url(#radial-gradient-6);
      }

      .cls-133 {
        fill: #d8e5f0;
      }

      .cls-134 {
        mask: url(#mask-4);
      }

      .cls-135 {
        clip-path: url(#clippath-29);
      }

      .cls-136 {
        clip-path: url(#clippath-13);
      }

      .cls-137 {
        fill: url(#radial-gradient-7);
      }

      .cls-138 {
        fill: url(#radial-gradient-17);
      }

      .cls-139 {
        fill: #d7e8f5;
      }

      .cls-140 {
        mask: url(#mask-14);
      }

      .cls-141 {
        fill: #d3e5f3;
      }

      .cls-142 {
        fill: #bfcad3;
      }

      .cls-13 {
        fill: url(#radial-gradient-4);
      }

      .cls-14 {
        fill: url(#radial-gradient-31);
      }

      .cls-143 {
        fill: #abc6d9;
      }

      .cls-144 {
        fill: url(#linear-gradient);
      }

      .cls-145 {
        fill: #c7dceb;
      }

      .cls-146 {
        clip-path: url(#clippath-24);
      }

      .cls-147 {
        filter: url(#luminosity-noclip-7);
      }

      .cls-148 {
        fill: #cfe2f1;
      }

      .cls-149 {
        fill: #9fb9cf;
      }

      .cls-150 {
        clip-path: url(#clippath);
      }

      .cls-151 {
        fill: #c3d5e4;
      }

      .cls-15 {
        fill: url(#radial-gradient-28);
      }

      .cls-152 {
        fill: #a8c2d7;
      }

      .cls-153 {
        mask: url(#mask-3);
      }

      .cls-154 {
        filter: url(#luminosity-noclip);
      }

      .cls-155 {
        fill: #cadbe8;
      }
    </style>
    <clipPath id="clippath">
      <polygon class="cls-112" points="861.1 623.3 806.7 562.5 752.4 501.7 757.8 613.8 812.1 674.6 866.5 735.4 861.1 623.3"/>
    </clipPath>
    <radialGradient id="radial-gradient" cx="852.7" cy="1894.7" fx="852.7" fy="1894.7" r="64" gradientTransform="translate(2479.3 -1044.5) rotate(69.8) scale(1.2 1.1) skewX(-1.6)" gradientUnits="userSpaceOnUse">
      <stop offset="0" stop-color="#5d7282"/>
      <stop offset=".4" stop-color="#657c8d"/>
      <stop offset="1" stop-color="#7d98ab"/>
    </radialGradient>
    <clipPath id="clippath-1">
      <polygon class="cls-34" points="752.4 502 806.7 562.8 801.3 450.7 747 389.9 752.4 502"/>
    </clipPath>
    <radialGradient id="radial-gradient-2" cx="718.8" cy="1623.8" fx="718.8" fy="1623.8" r="64" gradientTransform="translate(1231.9 -666.1) rotate(69.8) scale(1.3 .5) skewX(-.7)" gradientUnits="userSpaceOnUse">
      <stop offset=".2" stop-color="#595e63"/>
      <stop offset=".4" stop-color="#63696e"/>
      <stop offset=".8" stop-color="#80878c"/>
      <stop offset="1" stop-color="#949ca1"/>
    </radialGradient>
    <clipPath id="clippath-2">
      <polygon class="cls-34" points="698.1 441.2 752.4 502 747 389.9 692.7 329 698.1 441.2"/>
    </clipPath>
    <radialGradient id="radial-gradient-3" cx="702.1" cy="1715.1" fx="702.1" fy="1715.1" r="64" gradientTransform="translate(814.3 -833.4) rotate(49.6) scale(1.3 .5) skewX(-1.1)" xlink:href="#radial-gradient-2"/>
    <filter id="luminosity-noclip" x="696.8" y="372" width="84.2" height="152.3" color-interpolation-filters="sRGB" filterUnits="userSpaceOnUse">
      <feFlood flood-color="#fff" result="bg"/>
      <feBlend in="SourceGraphic" in2="bg"/>
    </filter>
    <filter id="luminosity-noclip-2" x="696.8" y="-8653" width="84.2" height="32766" color-interpolation-filters="sRGB" filterUnits="userSpaceOnUse">
      <feFlood flood-color="#fff" result="bg"/>
      <feBlend in="SourceGraphic" in2="bg"/>
    </filter>
    <mask id="mask-1" x="696.8" y="-8653" width="84.2" height="32766" maskUnits="userSpaceOnUse"/>
    <radialGradient id="radial-gradient-4" cx="718.8" cy="1623.8" fx="718.8" fy="1623.8" r="64" gradientTransform="translate(1231.9 -666.1) rotate(69.8) scale(1.3 .5) skewX(-.7)" gradientUnits="userSpaceOnUse">
      <stop offset=".2" stop-color="#fff"/>
      <stop offset=".3" stop-color="#f3f3f3"/>
      <stop offset=".4" stop-color="#d5d5d5"/>
      <stop offset=".6" stop-color="#a4a4a4"/>
      <stop offset=".8" stop-color="#616161"/>
      <stop offset="1" stop-color="#0b0b0b"/>
      <stop offset="1" stop-color="#030303"/>
    </radialGradient>
    <mask id="mask" x="696.8" y="372" width="84.2" height="152.3" maskUnits="userSpaceOnUse">
      <g class="cls-154">
        <g class="cls-39">
          <path class="cls-13" d="M766.7,523.5c-17.5,5.8-44.1-23.2-59.4-64.8-15.3-41.7-13.5-80.1,4-86,17.5-5.8,44.1,23.2,59.4,64.8,15.3,41.7,13.5,80.1-4,86Z"/>
        </g>
      </g>
    </mask>
    <clipPath id="clippath-4">
      <polygon class="cls-67" points="993.1 704.6 1119.7 673.7 1114.3 561.5 987.7 592.4 993.1 704.6"/>
    </clipPath>
    <filter id="luminosity-noclip-3" x="1023.8" y="495.3" width="276.7" height="274.7" color-interpolation-filters="sRGB" filterUnits="userSpaceOnUse">
      <feFlood flood-color="#fff" result="bg"/>
      <feBlend in="SourceGraphic" in2="bg"/>
    </filter>
    <filter id="luminosity-noclip-4" x="1023.8" y="-8653" width="276.7" height="32766" color-interpolation-filters="sRGB" filterUnits="userSpaceOnUse">
      <feFlood flood-color="#fff" result="bg"/>
      <feBlend in="SourceGraphic" in2="bg"/>
    </filter>
    <mask id="mask-3" x="1023.8" y="-8653" width="276.7" height="32766" maskUnits="userSpaceOnUse"/>
    <radialGradient id="radial-gradient-5" cx="983.6" cy="543" fx="983.6" fy="543" r="44.7" gradientTransform="translate(-1884.8 -1037.2) scale(3.1 3.1)" gradientUnits="userSpaceOnUse">
      <stop offset=".5" stop-color="#fff"/>
      <stop offset=".6" stop-color="#f5f5f5"/>
      <stop offset=".7" stop-color="#dadada"/>
      <stop offset=".7" stop-color="#afafaf"/>
      <stop offset=".9" stop-color="#737373"/>
      <stop offset="1" stop-color="#272727"/>
      <stop offset="1" stop-color="#1a1a1a"/>
    </radialGradient>
    <mask id="mask-2" x="1023.8" y="495.3" width="276.7" height="274.7" maskUnits="userSpaceOnUse">
      <g class="cls-75">
        <g class="cls-153">
          <path class="cls-10" d="M1300.5,632.6c0,75.9-62,137.4-138.4,137.4s-138.4-61.5-138.4-137.4,62-137.3,138.4-137.3,138.4,61.5,138.4,137.3Z"/>
        </g>
      </g>
    </mask>
    <radialGradient id="radial-gradient-6" cx="983.6" cy="543" fx="983.6" fy="543" r="44.7" gradientTransform="translate(-1884.8 -1037.2) scale(3.1 3.1)" gradientUnits="userSpaceOnUse">
      <stop offset=".5" stop-color="#8097a8"/>
      <stop offset=".6" stop-color="#89a0b0"/>
      <stop offset=".8" stop-color="#a4b9c8"/>
      <stop offset="1" stop-color="#cfe2ef"/>
      <stop offset="1" stop-color="#d0e3f0"/>
    </radialGradient>
    <clipPath id="clippath-5">
      <polygon class="cls-67" points="987.7 592.4 1114.3 561.5 1060 500.7 933.3 531.6 987.7 592.4"/>
    </clipPath>
    <radialGradient id="radial-gradient-7" cx="920.3" cy="473.2" fx="920.3" fy="473.2" r="39.3" gradientTransform="translate(-1906 703.7) rotate(-12) scale(3 .9) skewX(.4)" gradientUnits="userSpaceOnUse">
      <stop offset="0" stop-color="#8097a8"/>
      <stop offset=".7" stop-color="#acbbc6"/>
      <stop offset="1" stop-color="#bfcad3"/>
    </radialGradient>
    <clipPath id="clippath-6">
      <polygon class="cls-67" points="861.1 623.3 987.7 592.4 933.3 531.6 806.7 562.5 861.1 623.3"/>
    </clipPath>
    <clipPath id="clippath-7">
      <polygon class="cls-67" points="806.7 562.8 933.3 532 927.9 419.8 801.3 450.7 806.7 562.8"/>
    </clipPath>
    <radialGradient id="radial-gradient-8" cx="915.8" cy="488" fx="915.8" fy="488" r="44.7" gradientTransform="translate(-1884.8 -1037.2) scale(3.1 3.1)" gradientUnits="userSpaceOnUse">
      <stop offset=".4" stop-color="#8097a8"/>
      <stop offset=".5" stop-color="#849bac"/>
      <stop offset=".7" stop-color="#92a8b8"/>
      <stop offset=".9" stop-color="#a9bdcd"/>
      <stop offset="1" stop-color="#c3d5e4"/>
    </radialGradient>
    <clipPath id="clippath-8">
      <polygon class="cls-67" points="816.4 262.7 731.8 317 840.6 353.9 925.2 299.6 816.4 262.7"/>
    </clipPath>
    <filter id="luminosity-noclip-5" x="776.1" y="79.1" width="276.7" height="274.7" color-interpolation-filters="sRGB" filterUnits="userSpaceOnUse">
      <feFlood flood-color="#fff" result="bg"/>
      <feBlend in="SourceGraphic" in2="bg"/>
    </filter>
    <filter id="luminosity-noclip-6" x="776.1" y="-8653" width="276.7" height="32766" color-interpolation-filters="sRGB" filterUnits="userSpaceOnUse">
      <feFlood flood-color="#fff" result="bg"/>
      <feBlend in="SourceGraphic" in2="bg"/>
    </filter>
    <mask id="mask-5" x="776.1" y="-8653" width="276.7" height="32766" maskUnits="userSpaceOnUse"/>
    <radialGradient id="radial-gradient-9" cx="903.6" cy="407.7" fx="903.6" fy="407.7" r="44.7" gradientTransform="translate(-1884.8 -1037.2) scale(3.1 3.1)" gradientUnits="userSpaceOnUse">
      <stop offset="0" stop-color="#fff"/>
      <stop offset=".1" stop-color="#d6d6d6"/>
      <stop offset=".3" stop-color="#9d9d9d"/>
      <stop offset=".5" stop-color="#6e6e6e"/>
      <stop offset=".6" stop-color="#494949"/>
      <stop offset=".8" stop-color="#2f2f2f"/>
      <stop offset=".9" stop-color="#1f1f1f"/>
      <stop offset="1" stop-color="#1a1a1a"/>
    </radialGradient>
    <mask id="mask-4" x="776.1" y="79.1" width="276.7" height="274.7" maskUnits="userSpaceOnUse">
      <g class="cls-54">
        <g class="cls-25">
          <path class="cls-9" d="M1052.8,216.5c0,75.9-62,137.4-138.4,137.4s-138.4-61.5-138.4-137.4,62-137.3,138.4-137.3,138.4,61.5,138.4,137.3Z"/>
        </g>
      </g>
    </mask>
    <radialGradient id="radial-gradient-10" cx="903.6" cy="407.7" fx="903.6" fy="407.7" r="44.7" gradientTransform="translate(-1884.8 -1037.2) scale(3.1 3.1)" gradientUnits="userSpaceOnUse">
      <stop offset="0" stop-color="#9ab6c9"/>
      <stop offset="0" stop-color="#a1bacb"/>
      <stop offset=".4" stop-color="#bbcbd6"/>
      <stop offset=".8" stop-color="#cbd5dc"/>
      <stop offset="1" stop-color="#d1d9df"/>
    </radialGradient>
    <clipPath id="clippath-9">
      <polygon class="cls-67" points="1000.2 328.1 945.9 267.3 819.3 298.2 692.7 329 747 389.9 873.7 359 1000.2 328.1"/>
    </clipPath>
    <radialGradient id="radial-gradient-11" cx="878" cy="964.5" fx="878" fy="964.5" r="64" gradientTransform="translate(-1401.8 -3183) rotate(8.8) scale(3.2 3.1) skewX(-.9)" gradientUnits="userSpaceOnUse">
      <stop offset="0" stop-color="#8f9fac"/>
      <stop offset=".2" stop-color="#93a2af"/>
      <stop offset=".5" stop-color="#9faeba"/>
      <stop offset=".8" stop-color="#b4c2cd"/>
      <stop offset="1" stop-color="#d0dce6"/>
    </radialGradient>
    <radialGradient id="radial-gradient-12" cx="830.7" cy="1018.7" fx="830.7" fy="1018.7" r="64" gradientTransform="translate(-1867 -453.1) rotate(8.8) scale(3.2 .4) skewX(-.1)" xlink:href="#radial-gradient-11"/>
    <filter id="luminosity-noclip-7" x="766.3" y="344.3" width="181.3" height="181.6" color-interpolation-filters="sRGB" filterUnits="userSpaceOnUse">
      <feFlood flood-color="#fff" result="bg"/>
      <feBlend in="SourceGraphic" in2="bg"/>
    </filter>
    <filter id="luminosity-noclip-8" x="766.3" y="-8653" width="181.3" height="32766" color-interpolation-filters="sRGB" filterUnits="userSpaceOnUse">
      <feFlood flood-color="#fff" result="bg"/>
      <feBlend in="SourceGraphic" in2="bg"/>
    </filter>
    <mask id="mask-7" x="766.3" y="-8653" width="181.3" height="32766" maskUnits="userSpaceOnUse"/>
    <radialGradient id="radial-gradient-13" cx="766.3" cy="520.7" fx="766.3" fy="520.7" r="35.4" gradientTransform="translate(-1486.7 352) rotate(-36.2) scale(2.3 2.8) skewX(3.3)" gradientUnits="userSpaceOnUse">
      <stop offset="0" stop-color="#fff"/>
      <stop offset=".4" stop-color="#9b9b9b"/>
      <stop offset=".8" stop-color="#2e2e2e"/>
      <stop offset="1" stop-color="#030303"/>
    </radialGradient>
    <mask id="mask-6" x="766.3" y="344.3" width="181.3" height="181.6" maskUnits="userSpaceOnUse">
      <g class="cls-147">
        <g class="cls-48">
          <path class="cls-4" d="M923.1,386.7c34.2,42.4,32.4,98.5-4.2,125.2-36.6,26.7-93.9,13.9-128.1-28.5-34.2-42.4-32.4-98.5,4.2-125.2,36.5-26.7,93.9-14,128.1,28.5Z"/>
        </g>
      </g>
    </mask>
    <radialGradient id="radial-gradient-14" cx="766.3" cy="520.7" fx="766.3" fy="520.7" r="35.4" gradientTransform="translate(-1486.7 352) rotate(-36.2) scale(2.3 2.8) skewX(3.3)" gradientUnits="userSpaceOnUse">
      <stop offset="0" stop-color="#8097a8"/>
      <stop offset=".4" stop-color="#a4b6c4"/>
      <stop offset="1" stop-color="#d0dce6"/>
    </radialGradient>
    <linearGradient id="linear-gradient" x1="726.8" y1="233" x2="816.4" y2="233" gradientUnits="userSpaceOnUse">
      <stop offset="0" stop-color="#c2d3e0"/>
      <stop offset="1" stop-color="#b5c8da"/>
    </linearGradient>
    <linearGradient id="linear-gradient-2" x1="790.5" y1="328" x2="890.8" y2="275.9" gradientUnits="userSpaceOnUse">
      <stop offset="0" stop-color="#d1d9df"/>
      <stop offset="1" stop-color="#c3d0da"/>
    </linearGradient>
    <clipPath id="clippath-10">
      <polygon class="cls-67" points="1000.2 328.1 873.7 359 747 389.9 801.3 450.7 927.9 419.8 1054.6 388.9 1000.2 328.1"/>
    </clipPath>
    <radialGradient id="radial-gradient-15" cx="852.7" cy="489.7" fx="852.7" fy="489.7" r="35.4" gradientTransform="translate(-3602.7 -299.4) rotate(-7.8) scale(5.1 2.7) skewX(.4)" gradientUnits="userSpaceOnUse">
      <stop offset="0" stop-color="#8097a8"/>
      <stop offset=".3" stop-color="#9db0be"/>
      <stop offset=".5" stop-color="#b9c8d4"/>
      <stop offset=".8" stop-color="#cad6e1"/>
      <stop offset="1" stop-color="#d0dce6"/>
    </radialGradient>
    <filter id="luminosity-noclip-9" x="766.3" y="344.3" width="181.3" height="181.6" color-interpolation-filters="sRGB" filterUnits="userSpaceOnUse">
      <feFlood flood-color="#fff" result="bg"/>
      <feBlend in="SourceGraphic" in2="bg"/>
    </filter>
    <filter id="luminosity-noclip-10" x="766.3" y="-8653" width="181.3" height="32766" color-interpolation-filters="sRGB" filterUnits="userSpaceOnUse">
      <feFlood flood-color="#fff" result="bg"/>
      <feBlend in="SourceGraphic" in2="bg"/>
    </filter>
    <mask id="mask-9" x="766.3" y="-8653" width="181.3" height="32766" maskUnits="userSpaceOnUse"/>
    <mask id="mask-8" x="766.3" y="344.3" width="181.3" height="181.6" maskUnits="userSpaceOnUse">
      <g class="cls-106">
        <g class="cls-78">
          <path class="cls-4" d="M923.1,386.7c34.2,42.4,32.4,98.5-4.2,125.2-36.6,26.7-93.9,13.9-128.1-28.5-34.2-42.4-32.4-98.5,4.2-125.2,36.5-26.7,93.9-14,128.1,28.5Z"/>
        </g>
      </g>
    </mask>
    <radialGradient id="radial-gradient-16" cx="766.3" cy="520.7" fx="766.3" fy="520.7" gradientTransform="translate(-1486.7 352) rotate(-36.2) scale(2.3 2.8) skewX(3.3)" xlink:href="#radial-gradient-14"/>
    <clipPath id="clippath-11">
      <polygon class="cls-67" points="841 508.9 919.4 569.8 930.9 457.6 852.4 396.8 841 508.9"/>
    </clipPath>
    <radialGradient id="radial-gradient-17" cx="942.8" cy="509" fx="942.8" fy="509" r="44.7" gradientTransform="translate(-1519 -244.7) rotate(-22.5) scale(2.1 3.1) skewX(3.1)" gradientUnits="userSpaceOnUse">
      <stop offset=".4" stop-color="#b5c9d9"/>
      <stop offset=".8" stop-color="#b9c9d6"/>
      <stop offset="1" stop-color="#bfcad3"/>
    </radialGradient>
    <clipPath id="clippath-12">
      <polygon class="cls-67" points="930.9 457.6 1043.7 426.7 965.3 365.9 852.4 396.8 930.9 457.6"/>
    </clipPath>
    <radialGradient id="radial-gradient-18" cx="890.4" cy="450.1" fx="890.4" fy="450.1" r="30" gradientTransform="translate(-2574.6 -548.3) scale(3.9 2)" gradientUnits="userSpaceOnUse">
      <stop offset="0" stop-color="#dbeeff"/>
      <stop offset=".8" stop-color="#cce0f0"/>
      <stop offset="1" stop-color="#c7dceb"/>
    </radialGradient>
    <clipPath id="clippath-13">
      <polygon class="cls-67" points="644.1 165.4 763.7 165.9 766.8 34.7 647.2 34.2 644.1 165.4"/>
    </clipPath>
    <radialGradient id="radial-gradient-19" cx="858.1" cy="406.7" fx="858.1" fy="406.7" r="44.7" gradientTransform="translate(-1884.8 -1037.2) scale(3.1 3.1)" gradientUnits="userSpaceOnUse">
      <stop offset="0" stop-color="#a8bccc"/>
      <stop offset="1" stop-color="#d6e5f0"/>
    </radialGradient>
    <clipPath id="clippath-14">
      <polygon class="cls-67" points="866.5 735.4 993.1 704.6 987.7 592.4 861.1 623.3 866.5 735.4"/>
    </clipPath>
    <radialGradient id="radial-gradient-20" cx="883.8" cy="591" fx="883.8" fy="591" r="44.7" gradientTransform="translate(-1884.8 -1037.2) scale(3.1 3.1)" gradientUnits="userSpaceOnUse">
      <stop offset="0" stop-color="#a8bccc"/>
      <stop offset=".5" stop-color="#bed1e0"/>
      <stop offset="1" stop-color="#d0e3f0"/>
    </radialGradient>
    <clipPath id="clippath-15">
      <polygon class="cls-67" points="595.6 517.5 722.2 486.7 716.8 374.6 590.2 405.4 595.6 517.5"/>
    </clipPath>
    <radialGradient id="radial-gradient-21" cx="1387.6" cy="903.8" fx="1387.6" fy="903.8" r="64" gradientTransform="translate(1137.4 -2548.2) rotate(93.1) scale(2.3 .4) skewX(0)" gradientUnits="userSpaceOnUse">
      <stop offset="0" stop-color="#7d95a3"/>
      <stop offset=".2" stop-color="#889eac"/>
      <stop offset=".5" stop-color="#a6b8c4"/>
      <stop offset=".9" stop-color="#d6e2eb"/>
      <stop offset="1" stop-color="#e1ecf4"/>
    </radialGradient>
    <radialGradient id="radial-gradient-22" cx="1385.1" cy="920.8" fx="1385.1" fy="920.8" r="64" gradientTransform="translate(1137.4 -2548.2) rotate(93.1) scale(2.3 .4) skewX(0)" gradientUnits="userSpaceOnUse">
      <stop offset=".2" stop-color="#6e848f"/>
      <stop offset=".3" stop-color="#798e98"/>
      <stop offset=".5" stop-color="#97a9b3"/>
      <stop offset=".9" stop-color="#c7d4dd"/>
      <stop offset="1" stop-color="#e1ecf4"/>
    </radialGradient>
    <filter id="luminosity-noclip-11" x="552.4" y="352.3" width="288.1" height="103.2" color-interpolation-filters="sRGB" filterUnits="userSpaceOnUse">
      <feFlood flood-color="#fff" result="bg"/>
      <feBlend in="SourceGraphic" in2="bg"/>
    </filter>
    <filter id="luminosity-noclip-12" x="552.4" y="-8653" width="288.1" height="32766" color-interpolation-filters="sRGB" filterUnits="userSpaceOnUse">
      <feFlood flood-color="#fff" result="bg"/>
      <feBlend in="SourceGraphic" in2="bg"/>
    </filter>
    <mask id="mask-11" x="552.4" y="-8653" width="288.1" height="32766" maskUnits="userSpaceOnUse"/>
    <radialGradient id="radial-gradient-23" cx="1222.6" cy="1166.9" fx="1222.6" fy="1166.9" r="64" gradientTransform="translate(3586.5 -82.3) rotate(162.1) scale(2.4 .4) skewX(.3)" gradientUnits="userSpaceOnUse">
      <stop offset="0" stop-color="#fff"/>
      <stop offset="1" stop-color="#030303"/>
    </radialGradient>
    <mask id="mask-10" x="552.4" y="352.3" width="288.1" height="103.2" maskUnits="userSpaceOnUse">
      <g class="cls-72">
        <g class="cls-124">
          <path class="cls-3" d="M552.6,450.5c-4.4-12.2,56.5-43,135.9-68.7,79.4-25.7,147.3-36.7,151.7-24.5,4.4,12.2-56.5,43-135.9,68.7-79.4,25.7-147.4,36.7-151.7,24.5Z"/>
        </g>
      </g>
    </mask>
    <radialGradient id="radial-gradient-24" cx="1222.6" cy="1166.9" fx="1222.6" fy="1166.9" r="64" gradientTransform="translate(3586.5 -82.3) rotate(162.1) scale(2.4 .4) skewX(.3)" gradientUnits="userSpaceOnUse">
      <stop offset="0" stop-color="#9ba0a3"/>
      <stop offset="1" stop-color="#e1ecf4"/>
    </radialGradient>
    <filter id="luminosity-noclip-13" x="527.6" y="331" width="115.1" height="117.1" color-interpolation-filters="sRGB" filterUnits="userSpaceOnUse">
      <feFlood flood-color="#fff" result="bg"/>
      <feBlend in="SourceGraphic" in2="bg"/>
    </filter>
    <filter id="luminosity-noclip-14" x="527.6" y="-8653" width="115.1" height="32766" color-interpolation-filters="sRGB" filterUnits="userSpaceOnUse">
      <feFlood flood-color="#fff" result="bg"/>
      <feBlend in="SourceGraphic" in2="bg"/>
    </filter>
    <mask id="mask-13" x="527.6" y="-8653" width="115.1" height="32766" maskUnits="userSpaceOnUse"/>
    <radialGradient id="radial-gradient-25" cx="1020.2" cy="1340.3" fx="1020.2" fy="1340.3" r="64" gradientTransform="translate(1863.3 1280.6) rotate(162) scale(.9 .9) skewX(1.8)" xlink:href="#radial-gradient-23"/>
    <mask id="mask-12" x="527.6" y="331" width="115.1" height="117.1" maskUnits="userSpaceOnUse">
      <g class="cls-99">
        <g class="cls-26">
          <path class="cls-12" d="M531.2,407.1c-11-30.9,4.2-63.7,34-73.4,29.8-9.7,62.9,7.5,74,38.4,11,30.8-4.2,63.7-34,73.3-29.8,9.7-62.9-7.5-73.9-38.3Z"/>
        </g>
      </g>
    </mask>
    <radialGradient id="radial-gradient-26" cx="1020.2" cy="1340.3" fx="1020.2" fy="1340.3" r="64" gradientTransform="translate(1863.3 1280.6) rotate(162) scale(.9 .9) skewX(1.8)" gradientUnits="userSpaceOnUse">
      <stop offset="0" stop-color="#fff"/>
      <stop offset="1" stop-color="#e1ecf4"/>
    </radialGradient>
    <clipPath id="clippath-16">
      <polygon class="cls-67" points="590.2 405.4 716.8 374.6 662.5 313.7 535.9 344.6 590.2 405.4"/>
    </clipPath>
    <filter id="luminosity-noclip-15" x="461.9" y="287.7" width="288.1" height="103.2" color-interpolation-filters="sRGB" filterUnits="userSpaceOnUse">
      <feFlood flood-color="#fff" result="bg"/>
      <feBlend in="SourceGraphic" in2="bg"/>
    </filter>
    <filter id="luminosity-noclip-16" x="461.9" y="-8653" width="288.1" height="32766" color-interpolation-filters="sRGB" filterUnits="userSpaceOnUse">
      <feFlood flood-color="#fff" result="bg"/>
      <feBlend in="SourceGraphic" in2="bg"/>
    </filter>
    <mask id="mask-15" x="461.9" y="-8653" width="288.1" height="32766" maskUnits="userSpaceOnUse"/>
    <radialGradient id="radial-gradient-27" cx="1249.5" cy="1410.3" fx="1249.5" fy="1410.3" r="64" xlink:href="#radial-gradient-23"/>
    <mask id="mask-14" x="461.9" y="287.7" width="288.1" height="103.2" maskUnits="userSpaceOnUse">
      <g class="cls-53">
        <g class="cls-20">
          <path class="cls-6" d="M462.2,385.9c-4.4-12.2,56.5-43,135.9-68.7,79.4-25.7,147.3-36.7,151.7-24.5,4.4,12.2-56.5,43-135.9,68.7-79.4,25.7-147.4,36.7-151.7,24.5Z"/>
        </g>
      </g>
    </mask>
    <radialGradient id="radial-gradient-28" cx="1249.5" cy="1410.3" fx="1249.5" fy="1410.3" r="64" gradientTransform="translate(3586.5 -82.3) rotate(162.1) scale(2.4 .4) skewX(.3)" gradientUnits="userSpaceOnUse">
      <stop offset="0" stop-color="#b5bbbf"/>
      <stop offset="1" stop-color="#e1ecf4"/>
    </radialGradient>
    <clipPath id="clippath-17">
      <polygon class="cls-67" points="380.7 574.9 264.7 589.5 338.4 633 454.3 618.4 380.7 574.9"/>
    </clipPath>
    <radialGradient id="radial-gradient-29" cx="682.1" cy="1182.2" fx="682.1" fy="1182.2" r="64" gradientTransform="translate(-1002.3 -626.9) rotate(8.8) scale(2.4 .8) skewX(-.3)" gradientUnits="userSpaceOnUse">
      <stop offset="0" stop-color="#85a1b5"/>
      <stop offset=".3" stop-color="#88a4b8"/>
      <stop offset=".6" stop-color="#94adc1"/>
      <stop offset=".9" stop-color="#a8bed0"/>
      <stop offset="1" stop-color="#b4c8da"/>
    </radialGradient>
    <clipPath id="clippath-18">
      <polygon class="cls-67" points="656.1 598.9 789.3 565.4 758.4 458.6 625.1 492.1 656.1 598.9"/>
    </clipPath>
    <filter id="luminosity-noclip-17" x="656.5" y="455.2" width="50" height="196.6" color-interpolation-filters="sRGB" filterUnits="userSpaceOnUse">
      <feFlood flood-color="#fff" result="bg"/>
      <feBlend in="SourceGraphic" in2="bg"/>
    </filter>
    <filter id="luminosity-noclip-18" x="656.5" y="-8653" width="50" height="32766" color-interpolation-filters="sRGB" filterUnits="userSpaceOnUse">
      <feFlood flood-color="#fff" result="bg"/>
      <feBlend in="SourceGraphic" in2="bg"/>
    </filter>
    <mask id="mask-17" x="656.5" y="-8653" width="50" height="32766" maskUnits="userSpaceOnUse"/>
    <radialGradient id="radial-gradient-30" cx="1332.8" cy="629.7" fx="1332.8" fy="629.7" r="64" gradientTransform="translate(822.5 -1503.4) rotate(87.2) scale(1.5 .4) skewX(0)" xlink:href="#radial-gradient-23"/>
    <mask id="mask-16" x="656.5" y="455.2" width="50" height="196.6" maskUnits="userSpaceOnUse">
      <g class="cls-98">
        <g class="cls-55">
          <path class="cls-11" d="M686.3,651.8c-13.6.6-26.7-42.9-29.3-97.2-2.7-54.3,6.2-98.8,19.7-99.4,13.5-.6,26.7,42.9,29.3,97.2,2.7,54.3-6.2,98.8-19.7,99.4Z"/>
        </g>
      </g>
    </mask>
    <radialGradient id="radial-gradient-31" cx="1332.8" cy="629.7" fx="1332.8" fy="629.7" r="64" gradientTransform="translate(822.5 -1503.4) rotate(87.2) scale(1.5 .4) skewX(0)" gradientUnits="userSpaceOnUse">
      <stop offset="0" stop-color="#888c8f"/>
      <stop offset="1" stop-color="#e1ecf4"/>
    </radialGradient>
    <filter id="luminosity-noclip-19" x="667.7" y="416.9" width="192.5" height="85.8" color-interpolation-filters="sRGB" filterUnits="userSpaceOnUse">
      <feFlood flood-color="#fff" result="bg"/>
      <feBlend in="SourceGraphic" in2="bg"/>
    </filter>
    <filter id="luminosity-noclip-20" x="667.7" y="-8653" width="192.5" height="32766" color-interpolation-filters="sRGB" filterUnits="userSpaceOnUse">
      <feFlood flood-color="#fff" result="bg"/>
      <feBlend in="SourceGraphic" in2="bg"/>
    </filter>
    <mask id="mask-19" x="667.7" y="-8653" width="192.5" height="32766" maskUnits="userSpaceOnUse"/>
    <radialGradient id="radial-gradient-32" cx="1102.5" cy="656.3" fx="1102.5" fy="656.3" r="64" gradientTransform="translate(2508.1 44) rotate(158.9) scale(1.6 .4) skewX(.5)" xlink:href="#radial-gradient-23"/>
    <mask id="mask-18" x="667.7" y="416.9" width="192.5" height="85.8" maskUnits="userSpaceOnUse">
      <g class="cls-101">
        <g class="cls-114">
          <path class="cls-5" d="M668.1,496.8c-5.1-12,33.6-38.2,86.6-58.7,52.9-20.5,99.9-27.3,105-15.4,5.1,12-33.6,38.2-86.5,58.7-52.9,20.4-99.9,27.3-105,15.4Z"/>
        </g>
      </g>
    </mask>
    <filter id="luminosity-noclip-21" x="667.7" y="416.9" width="192.5" height="85.8" color-interpolation-filters="sRGB" filterUnits="userSpaceOnUse">
      <feFlood flood-color="#fff" result="bg"/>
      <feBlend in="SourceGraphic" in2="bg"/>
    </filter>
    <filter id="luminosity-noclip-22" x="667.7" y="-8653" width="192.5" height="32766" color-interpolation-filters="sRGB" filterUnits="userSpaceOnUse">
      <feFlood flood-color="#fff" result="bg"/>
      <feBlend in="SourceGraphic" in2="bg"/>
    </filter>
    <mask id="mask-21" x="667.7" y="-8653" width="192.5" height="32766" maskUnits="userSpaceOnUse"/>
    <radialGradient id="radial-gradient-33" cx="1102.5" cy="656.3" fx="1102.5" fy="656.3" r="64" gradientTransform="translate(2508.1 44) rotate(158.9) scale(1.6 .4) skewX(.5)" gradientUnits="userSpaceOnUse">
      <stop offset="0" stop-color="#fff"/>
      <stop offset="1" stop-color="#1a1a1a"/>
    </radialGradient>
    <mask id="mask-20" x="667.7" y="416.9" width="192.5" height="85.8" maskUnits="userSpaceOnUse">
      <g class="cls-43">
        <g class="cls-86">
          <path class="cls-2" d="M668.1,496.8c-5.1-12,33.6-38.2,86.6-58.7,52.9-20.5,99.9-27.3,105-15.4,5.1,12-33.6,38.2-86.5,58.7-52.9,20.4-99.9,27.3-105,15.4Z"/>
        </g>
      </g>
    </mask>
    <radialGradient id="radial-gradient-34" cx="1102.5" cy="656.3" fx="1102.5" fy="656.3" r="64" gradientTransform="translate(2508.1 44) rotate(158.9) scale(1.6 .4) skewX(.5)" xlink:href="#radial-gradient-26"/>
    <clipPath id="clippath-19">
      <polygon class="cls-67" points="660.9 327.9 711.3 303.7 662.6 181.1 609.2 205.3 660.9 327.9"/>
    </clipPath>
    <radialGradient id="radial-gradient-35" cx="854.3" cy="1012" fx="854.3" fy="1012" r="25" gradientTransform="translate(-1401.8 -3183) rotate(8.8) scale(3.2 3.1) skewX(-.9)" gradientUnits="userSpaceOnUse">
      <stop offset="0" stop-color="#8f9fac"/>
      <stop offset="0" stop-color="#91a1ae"/>
      <stop offset=".5" stop-color="#aebecb"/>
      <stop offset=".8" stop-color="#c0d0dc"/>
      <stop offset="1" stop-color="#c7d7e3"/>
    </radialGradient>
    <clipPath id="clippath-20">
      <polygon class="cls-67" points="625.1 492.1 758.4 458.6 741.4 390 608.1 423.6 625.1 492.1"/>
    </clipPath>
    <radialGradient id="radial-gradient-36" cx="1006.3" cy="1310.7" fx="1006.3" fy="1310.7" r="85.7" gradientTransform="translate(1863.3 1280.6) rotate(162) scale(.9 .9) skewX(1.8)" gradientUnits="userSpaceOnUse">
      <stop offset="0" stop-color="#ebf5fd"/>
      <stop offset=".3" stop-color="#d5e4ef"/>
      <stop offset=".7" stop-color="#c7d9e6"/>
      <stop offset="1" stop-color="#c3d6e4"/>
    </radialGradient>
    <clipPath id="clippath-21">
      <polygon class="cls-155" points="712 874.5 826.7 856.7 831.3 731.2 716.6 749 712 874.5"/>
    </clipPath>
    <radialGradient id="radial-gradient-37" cx="837.8" cy="561" fx="837.8" fy="561" r="44.7" gradientTransform="translate(-2010.2 -1037.2) scale(3.2 3.1)" gradientUnits="userSpaceOnUse">
      <stop offset="0" stop-color="#8f9fac"/>
      <stop offset=".5" stop-color="#b3c4d1"/>
      <stop offset=".9" stop-color="#cadbe8"/>
    </radialGradient>
    <clipPath id="clippath-22">
      <polygon class="cls-67" points="707.8 735.8 799.2 671.1 841.9 604.9 750.6 669.5 707.8 735.8"/>
    </clipPath>
    <radialGradient id="radial-gradient-38" cx="826.5" cy="541.7" fx="826.5" fy="541.7" r="44.7" gradientTransform="translate(-2010.2 -1037.2) scale(3.2 3.1)" gradientUnits="userSpaceOnUse">
      <stop offset="0" stop-color="#8f9fac"/>
      <stop offset=".3" stop-color="#91a2b0"/>
      <stop offset=".5" stop-color="#99aebe"/>
      <stop offset=".8" stop-color="#a7c0d5"/>
      <stop offset=".9" stop-color="#a8c2d7"/>
    </radialGradient>
    <clipPath id="clippath-23">
      <polygon class="cls-67" points="531.7 551.5 554.5 488.6 605.1 516.3 582.3 579.2 531.7 551.5"/>
    </clipPath>
    <clipPath id="clippath-24">
      <polygon class="cls-67" points="357.6 328.8 389 282 452.4 325.7 421 372.5 357.6 328.8"/>
    </clipPath>
    <clipPath id="clippath-25">
      <polygon class="cls-67" points="947.2 536.7 952.7 477.3 1015.7 461.8 1009.3 520.2 947.2 536.7"/>
    </clipPath>
    <clipPath id="clippath-26">
      <polygon class="cls-67" points="737.6 842.5 741.7 768.9 807.2 759.4 803.1 833.3 737.6 842.5"/>
    </clipPath>
    <clipPath id="clippath-27">
      <polygon class="cls-67" points="673.4 138.1 678 60.4 740.7 63.4 736.2 139.3 673.4 138.1"/>
    </clipPath>
    <clipPath id="clippath-28">
      <polygon class="cls-67" points="1242.7 467.5 1265.9 394.8 1332.4 400.3 1308.4 471.7 1242.7 467.5"/>
    </clipPath>
    <clipPath id="clippath-29">
      <polygon class="cls-67" points="1244.3 469.6 1267.4 396.9 1333.9 402.4 1309.9 473.8 1244.3 469.6"/>
    </clipPath>
    <clipPath id="clippath-30">
      <polygon class="cls-67" points="735.7 845.1 739.9 771.4 805.3 761.9 801.3 835.8 735.7 845.1"/>
    </clipPath>
    <clipPath id="clippath-31">
      <polygon class="cls-67" points="673.4 141.2 678 63.5 740.7 66.5 736.2 142.3 673.4 141.2"/>
    </clipPath>
    <clipPath id="clippath-32">
      <polygon class="cls-67" points="357.9 331.9 389.3 285 452.7 328.8 421.3 375.6 357.9 331.9"/>
    </clipPath>
    <clipPath id="clippath-33">
      <polygon class="cls-67" points="532.2 554.4 555.1 491.5 605.7 519.3 582.9 582.2 532.2 554.4"/>
    </clipPath>
  </defs>
  <!-- Generator: Adobe Illustrator 28.6.0, SVG Export Plug-In . SVG Version: 1.2.0 Build 709)  -->
  <g class="cls-88">
    <g id="katman_1">
      <g>
        <g>
          <polygon class="cls-112" points="861.1 623.3 806.7 562.5 752.4 501.7 757.8 613.8 812.1 674.6 866.5 735.4 861.1 623.3"/>
          <g class="cls-150">
            <path class="cls-69" d="M820.3,684.3c-38.2,12.7-81.1-9.8-96-50.2-14.9-40.4,4-83.5,42.2-96.2,38.1-12.7,81.1,9.8,95.9,50.2,14.9,40.4-4,83.5-42.1,96.2Z"/>
          </g>
        </g>
        <g>
          <polygon class="cls-34" points="752.4 502 806.7 562.8 801.3 450.7 747 389.9 752.4 502"/>
          <g class="cls-79">
            <path class="cls-104" d="M766.7,523.5c-17.5,5.8-44.1-23.2-59.4-64.8-15.3-41.7-13.5-80.1,4-86,17.5-5.8,44.1,23.2,59.4,64.8,15.3,41.7,13.5,80.1-4,86Z"/>
          </g>
        </g>
        <g>
          <polygon class="cls-34" points="698.1 441.2 752.4 502 747 389.9 692.7 329 698.1 441.2"/>
          <g class="cls-131">
            <path class="cls-71" d="M748.2,448.7c-14.4,11.1-49.8-7.6-79-41.9-29.2-34.3-41.2-71.1-26.8-82.2,14.4-11.1,49.7,7.7,78.9,41.9,29.2,34.3,41.2,71.1,26.8,82.2Z"/>
            <g class="cls-56">
              <path class="cls-104" d="M766.7,523.5c-17.5,5.8-44.1-23.2-59.4-64.8-15.3-41.7-13.5-80.1,4-86,17.5-5.8,44.1,23.2,59.4,64.8,15.3,41.7,13.5,80.1-4,86Z"/>
            </g>
          </g>
        </g>
        <g>
          <polygon class="cls-100" points="1000.2 328.1 945.9 267.3 819.3 298.2 692.7 329 747 389.9 873.7 359 1000.2 328.1"/>
          <polygon class="cls-100" points="1000.2 328.1 873.7 359 747 389.9 801.3 450.7 927.9 419.8 1054.6 388.9 1000.2 328.1"/>
        </g>
        <polygon class="cls-126" points="575.6 160.3 644.1 165.4 647.2 34.2 578.7 29.1 575.6 160.3"/>
        <polygon class="cls-18" points="644.1 165.4 763.7 165.9 766.8 34.7 647.2 34.2 644.1 165.4"/>
        <polygon class="cls-65" points="647.2 34.2 766.8 34.7 698.4 29.7 578.7 29.1 647.2 34.2"/>
        <polygon class="cls-123" points="541.3 456.7 595.6 517.5 590.2 405.4 535.9 344.6 541.3 456.7"/>
        <polygon class="cls-130" points="595.6 517.5 722.2 486.7 716.8 374.6 590.2 405.4 595.6 517.5"/>
        <polygon class="cls-149" points="252.5 712.5 326.1 756 338.4 633 264.7 589.5 252.5 712.5"/>
        <polygon class="cls-42" points="993.1 704.6 1119.7 673.7 1114.3 561.5 987.7 592.4 993.1 704.6"/>
        <polygon class="cls-116" points="1174.2 411.5 1204.9 485.7 1237.9 378 1207.1 303.7 1174.2 411.5"/>
        <polygon class="cls-151" points="806.7 562.8 933.3 532 927.9 419.8 801.3 450.7 806.7 562.8"/>
        <polygon class="cls-35" points="590.2 405.4 716.8 374.6 662.5 313.7 535.9 344.6 590.2 405.4"/>
        <polygon class="cls-119" points="789.3 565.4 772.3 496.8 741.4 390 758.4 458.6 789.3 565.4"/>
        <polygon class="cls-142" points="987.7 592.4 1114.3 561.5 1060 500.7 933.3 531.6 987.7 592.4"/>
        <polygon class="cls-36" points="1204.9 485.7 1335.3 495.5 1368.2 387.7 1237.9 378 1204.9 485.7"/>
        <polygon class="cls-142" points="861.1 623.3 987.7 592.4 933.3 531.6 806.7 562.5 861.1 623.3"/>
        <polygon class="cls-145" points="1237.9 378 1368.2 387.7 1337.5 313.4 1207.1 303.7 1237.9 378"/>
        <polygon class="cls-107" points="933.3 532 1060 501.1 1054.6 388.9 927.9 419.8 933.3 532"/>
        <polygon class="cls-42" points="866.5 735.4 993.1 704.6 987.7 592.4 861.1 623.3 866.5 735.4"/>
        <g class="cls-32">
          <g class="cls-74">
            <path class="cls-132" d="M1300.5,632.6c0,75.9-62,137.4-138.4,137.4s-138.4-61.5-138.4-137.4,62-137.3,138.4-137.3,138.4,61.5,138.4,137.3Z"/>
          </g>
        </g>
        <polygon class="cls-51" points="1056.1 629.1 1148.5 714 1183.3 627.4 1091 542.5 1056.1 629.1"/>
        <polygon class="cls-143" points="1148.5 714 1244.7 663.9 1279.6 577.3 1183.3 627.4 1148.5 714"/>
        <polygon class="cls-33" points="1183.3 627.4 1279.6 577.3 1187.2 492.4 1091 542.5 1183.3 627.4"/>
        <g class="cls-92">
          <path class="cls-137" d="M1037.3,526.3c4.6,19.5-43.8,46.4-108.1,60-64.2,13.6-120,8.9-124.6-10.6-4.6-19.5,43.8-46.4,108.1-60,64.2-13.6,120-8.9,124.6,10.6Z"/>
        </g>
        <g class="cls-21">
          <path class="cls-137" d="M1037.3,526.3c4.6,19.5-43.8,46.4-108.1,60-64.2,13.6-120,8.9-124.6-10.6-4.6-19.5,43.8-46.4,108.1-60,64.2-13.6,120-8.9,124.6,10.6Z"/>
        </g>
        <g class="cls-22">
          <path class="cls-103" d="M1090.5,463.5c0,75.9-62,137.4-138.4,137.4s-138.4-61.5-138.4-137.4,62-137.3,138.4-137.3,138.4,61.5,138.4,137.3Z"/>
        </g>
        <g class="cls-95">
          <g class="cls-134">
            <path class="cls-16" d="M1052.8,216.5c0,75.9-62,137.4-138.4,137.4s-138.4-61.5-138.4-137.4,62-137.3,138.4-137.3,138.4,61.5,138.4,137.3Z"/>
          </g>
        </g>
        <g class="cls-47">
          <path class="cls-91" d="M1033.1,194.6c-18.3,107.3-122.3,180.4-232.5,163.4-110.1-17-184.5-117.7-166.3-225,18.3-107.1,122.3-180.3,232.4-163.3,110.1,17,184.6,117.7,166.3,224.8Z"/>
          <path class="cls-121" d="M855.4,350c-2.2,13-93.3,9.7-203.4-7.3-110.1-17-197.6-41.3-195.4-54.2,2.2-12.9,93.2-9.7,203.3,7.3,110.1,17,197.6,41.3,195.4,54.2Z"/>
          <g class="cls-46">
            <path class="cls-52" d="M923.1,386.7c34.2,42.4,32.4,98.5-4.2,125.2-36.6,26.7-93.9,13.9-128.1-28.5-34.2-42.4-32.4-98.5,4.2-125.2,36.5-26.7,93.9-14,128.1,28.5Z"/>
          </g>
        </g>
        <polygon class="cls-144" points="731.8 317 816.4 262.7 811.4 149 726.8 203.3 731.8 317"/>
        <polygon class="cls-37" points="816.4 262.7 731.8 317 840.6 353.9 925.2 299.6 816.4 262.7"/>
        <polygon class="cls-66" points="816.4 262.7 925.2 299.6 920.2 186 811.4 149 816.4 262.7"/>
        <polygon class="cls-139" points="969 224.1 1092.9 278.7 1144.5 161.4 1020.7 106.8 969 224.1"/>
        <polygon class="cls-27" points="1092.9 278.7 1124.4 256.3 1176.1 139.1 1144.5 161.4 1092.9 278.7"/>
        <polygon class="cls-128" points="1144.5 161.4 1176.1 139.1 1052.2 84.4 1020.7 106.8 1144.5 161.4"/>
        <g class="cls-49">
          <path class="cls-125" d="M1075.8,417.1c8,52.9-65.5,106.8-164.1,120.2-98.6,13.4-185-18.6-193-71.6-8-52.9,65.5-106.8,164.2-120.2,98.6-13.4,185,18.6,193,71.6Z"/>
          <g class="cls-70">
            <path class="cls-58" d="M923.1,386.7c34.2,42.4,32.4,98.5-4.2,125.2-36.6,26.7-93.9,13.9-128.1-28.5-34.2-42.4-32.4-98.5,4.2-125.2,36.5-26.7,93.9-14,128.1,28.5Z"/>
          </g>
        </g>
        <polygon class="cls-141" points="919.4 569.8 1032.3 538.8 1043.7 426.7 930.9 457.6 919.4 569.8"/>
        <polygon class="cls-145" points="930.9 457.6 1043.7 426.7 965.3 365.9 852.4 396.8 930.9 457.6"/>
        <polygon class="cls-142" points="841 508.9 919.4 569.8 930.9 457.6 852.4 396.8 841 508.9"/>
        <polygon class="cls-148" points="903.1 890.8 907.7 765.3 831.3 731.2 826.7 856.7 903.1 890.8"/>
        <g class="cls-63">
          <path class="cls-138" d="M1025.7,406.5c31.9,69.5,19.4,141.8-27.7,161.3-47.2,19.6-111.2-20.9-143.1-90.5-31.8-69.5-19.4-141.8,27.7-161.3,47.2-19.6,111.2,20.9,143.1,90.5Z"/>
        </g>
        <g class="cls-105">
          <path class="cls-60" d="M1059.3,358.9c0,33.4-53,60.5-118.5,60.5s-118.5-27.1-118.5-60.5,53-60.5,118.5-60.5,118.5,27.1,118.5,60.5Z"/>
        </g>
        <g class="cls-136">
          <path class="cls-122" d="M911.8,213.4c0,75.9-62,137.4-138.4,137.4s-138.4-61.5-138.4-137.4,62-137.3,138.4-137.3,138.4,61.5,138.4,137.3Z"/>
        </g>
        <g class="cls-108">
          <path class="cls-80" d="M991.5,780.2c0,75.9-62,137.4-138.4,137.4s-138.4-61.5-138.4-137.4,62-137.3,138.4-137.3,138.4,61.5,138.4,137.3Z"/>
        </g>
        <g class="cls-28">
          <path class="cls-110" d="M602,708.4c-14.1-.7-22-65.9-17.7-145.7,4.3-79.8,19.2-143.8,33.2-143.2,14,.7,21.9,65.9,17.7,145.6-4.3,79.8-19.2,143.9-33.2,143.2Z"/>
          <path class="cls-117" d="M595.5,702.3c-14.1-.7-22-65.9-17.7-145.7,4.3-79.8,19.2-143.8,33.2-143.2,14,.7,21.9,65.9,17.7,145.6-4.3,79.8-19.2,143.9-33.2,143.2Z"/>
          <g class="cls-44">
            <path class="cls-8" d="M552.6,450.5c-4.4-12.2,56.5-43,135.9-68.7,79.4-25.7,147.3-36.7,151.7-24.5,4.4,12.2-56.5,43-135.9,68.7-79.4,25.7-147.4,36.7-151.7,24.5Z"/>
          </g>
          <g class="cls-127">
            <path class="cls-94" d="M531.2,407.1c-11-30.9,4.2-63.7,34-73.4,29.8-9.7,62.9,7.5,74,38.4,11,30.8-4.2,63.7-34,73.3-29.8,9.7-62.9-7.5-73.9-38.3Z"/>
          </g>
        </g>
        <polygon class="cls-82" points="656.1 598.9 789.3 565.4 758.4 458.6 625.1 492.1 656.1 598.9"/>
        <polygon class="cls-64" points="625.1 492.1 758.4 458.6 741.4 390 608.1 423.6 625.1 492.1"/>
        <g class="cls-129">
          <g class="cls-140">
            <path class="cls-15" d="M462.2,385.9c-4.4-12.2,56.5-43,135.9-68.7,79.4-25.7,147.3-36.7,151.7-24.5,4.4,12.2-56.5,43-135.9,68.7-79.4,25.7-147.4,36.7-151.7,24.5Z"/>
          </g>
        </g>
        <polygon class="cls-17" points="600.4 619.4 638.8 501.9 539.7 444.8 501.3 562.2 600.4 619.4"/>
        <polygon class="cls-89" points="380.7 574.9 264.7 589.5 338.4 633 454.3 618.4 380.7 574.9"/>
        <polygon class="cls-45" points="326.1 756 442.1 741.4 454.3 618.4 338.4 633 326.1 756"/>
        <g class="cls-23">
          <path class="cls-83" d="M583.2,592.5c-4.9,28.4-75.9,41.1-158.7,28.3-82.8-12.8-146-46.2-141.2-74.6,4.8-28.4,75.9-41.1,158.7-28.3,82.8,12.8,146,46.2,141.2,74.6Z"/>
        </g>
        <polygon class="cls-87" points="512.6 632.5 600.4 619.4 501.3 562.2 413.5 575.4 512.6 632.5"/>
        <polygon class="cls-97" points="413.5 575.4 501.3 562.2 539.7 444.8 451.8 457.9 413.5 575.4"/>
        <g class="cls-31">
          <g class="cls-111">
            <path class="cls-14" d="M686.3,651.8c-13.6.6-26.7-42.9-29.3-97.2-2.7-54.3,6.2-98.8,19.7-99.4,13.5-.6,26.7,42.9,29.3,97.2,2.7,54.3-6.2,98.8-19.7,99.4Z"/>
          </g>
          <g class="cls-50">
            <g class="cls-62">
              <path class="cls-1" d="M668.1,496.8c-5.1-12,33.6-38.2,86.6-58.7,52.9-20.5,99.9-27.3,105-15.4,5.1,12-33.6,38.2-86.5,58.7-52.9,20.4-99.9,27.3-105,15.4Z"/>
            </g>
          </g>
        </g>
        <polygon class="cls-109" points="680.1 593.7 734.5 654.5 729.1 542.3 674.7 481.5 680.1 593.7"/>
        <polygon class="cls-133" points="734.5 654.5 861.1 623.6 855.7 511.5 729.1 542.3 734.5 654.5"/>
        <polygon class="cls-77" points="729.1 542.3 855.7 511.5 801.3 450.7 674.7 481.5 729.1 542.3"/>
        <polygon class="cls-90" points="660.9 327.9 711.3 303.7 662.6 181.1 609.2 205.3 660.9 327.9"/>
        <polygon class="cls-41" points="542.2 367.9 660.9 327.9 609.2 205.3 490.5 245.3 542.2 367.9"/>
        <polygon class="cls-76" points="490.5 245.3 609.2 205.3 662.6 181.1 540.9 221.1 490.5 245.3"/>
        <g class="cls-115">
          <path class="cls-30" d="M813.3,308.4c-7.1,42-47.8,70.6-90.9,63.9-43.1-6.6-72.2-46-65-88,7.1-41.9,47.8-70.5,90.9-63.9,43.1,6.6,72.2,46,65,87.9Z"/>
        </g>
        <g class="cls-93">
          <path class="cls-118" d="M533.8,435c-14.8-41.3,5.6-85.3,45.5-98.3,39.9-12.9,84.2,10.1,99,51.4,14.8,41.3-5.6,85.3-45.5,98.2-39.9,12.9-84.3-10.1-99-51.4Z"/>
        </g>
        <polygon class="cls-152" points="707.8 735.8 799.2 671.1 841.9 604.9 750.6 669.5 707.8 735.8"/>
        <polygon class="cls-84" points="788.5 908.6 903.1 890.8 826.7 856.7 712 874.5 788.5 908.6"/>
        <g>
          <polygon class="cls-155" points="712 874.5 826.7 856.7 831.3 731.2 716.6 749 712 874.5"/>
          <g class="cls-19">
            <path class="cls-68" d="M840.7,688c0,75.9-64.6,137.4-144.3,137.4s-144.3-61.5-144.3-137.4,64.6-137.3,144.3-137.3,144.3,61.5,144.3,137.3Z"/>
          </g>
        </g>
        <polygon class="cls-66" points="750.6 669.5 841.9 604.9 747.9 511.9 656.5 576.6 750.6 669.5"/>
        <g class="cls-38">
          <path class="cls-61" d="M804.1,628.5c0,75.9-64.6,137.4-144.3,137.4s-144.3-61.5-144.3-137.4,64.6-137.3,144.3-137.3,144.3,61.5,144.3,137.3Z"/>
        </g>
        <polygon class="cls-81" points="613.8 642.8 707.8 735.8 750.6 669.5 656.5 576.6 613.8 642.8"/>
      </g>
      <polygon class="cls-66" points="499.7 310.9 420.7 416.9 314.7 339.6 393.6 233.6 499.7 310.9"/>
      <polygon class="cls-87" points="420.7 416.9 381.7 412.4 275.6 335.1 314.7 339.6 420.7 416.9"/>
      <polygon class="cls-128" points="314.7 339.6 275.6 335.1 354.5 229.1 393.6 233.6 314.7 339.6"/>
      <g>
        <g class="cls-88">
          <g class="cls-40">
            <path class="cls-96" d="M541.8,536.5l14.5-40,42.9,23.5-14.5,40-42.9-23.5M603.2,515.3l-46.8-25.6c-1.1-.6-2.4.2-3,1.8l-16.6,45.8c-.6,1.6-.2,3.3.9,3.9l21.4,11.7-2.1,5.7-9.8-5.3c-1.1-.6-2.4.2-3,1.8-.6,1.6-.2,3.3.9,3.9l23.4,12.8c1.1.6,2.4-.2,3-1.8.6-1.6.2-3.3-.9-3.9l-9.7-5.3,2.1-5.7,21.4,11.7c1.1.6,2.4-.2,3-1.8l16.6-45.8c.6-1.5.2-3.3-.9-3.9"/>
          </g>
        </g>
        <g class="cls-88">
          <g class="cls-146">
            <path class="cls-96" d="M408.4,358.4s0,0-.1,0c-2-1.4-2.4-4.2-.9-6.2,1.4-2,4.1-2.4,6-1.1,0,0,0,0,.1,0,1.9,1.4,2.4,4.2.9,6.2-1.4,2-4.1,2.5-6,1.1M380.2,337.6s0,0-.1,0c-2-1.5-2.4-4.2-.9-6.3,1.4-2,4.1-2.4,6-1.1,0,0,0,0,0,0,1.9,1.4,2.4,4.2.9,6.2-1.4,2-4.1,2.5-6,1.1M397.8,314.6l-12.6-9.4,20.6-1.8-8,11.2M396.8,321.2c1.3.9,3.1.6,4-.7l11-15.4,31.6,23.4-20.8,29.1-3.1-2.2c.2-3-1-6-3.5-7.9,0,0-.1,0-.2-.1-2.5-1.7-5.6-1.9-8.2-.8l-16.2-12c.2-3-1-6-3.5-7.9,0,0-.2-.1-.2-.2-2.5-1.7-5.5-1.9-8.2-.8l-8.5-6.3,8.1-11.3,17.6,13s0,0,0,0M411.6,297.6c-.5-.4-1.2-.5-1.8-.5l-30.6,2.7c-.9,0-1.6.5-2.1,1.2l-12.4,17.3c-1,1.3-.7,3.2.6,4.1l9.8,7.3c-2.1,3.9-1.1,8.7,2.5,11.3,0,0,.1.1.2.2,3.5,2.4,8.2,1.8,11.2-1.3l14.3,10.5c-2,3.9-1.1,8.7,2.5,11.4,0,0,.1.1.2.2,3.5,2.4,8.2,1.8,11.2-1.3l4.4,3.3s0,0,0,0c1.3.9,3,.5,4-.8l24.3-33.9c.9-1.3.7-3.2-.6-4.2l-37.5-27.7s0,0,0,0"/>
          </g>
        </g>
        <g class="cls-88">
          <g class="cls-57">
            <g>
              <path class="cls-96" d="M1006.4,505.9l-4.4,1.2v1.4c-.1,0,4.3-1.2,4.3-1.2v-1.4M1006.9,501.3l-4.4,1.1-.3,3.1,4.4-1.1.3-3.1M1007.2,498.5l-4.4,1.1-.2,1.4,4.4-1.1.2-1.4M1007.8,493.7l-4.4,1.1-.4,3.5,4.4-1.1.4-3.5M1008.1,490.9l-4.4,1.1v1.4c-.1,0,4.3-1.1,4.3-1.1l.2-1.4M1008.6,486.4l-4.4,1.1-.4,3.5,4.4-1.1.4-3.5M1008.9,483.6l-4.4,1.1-.2,1.4,4.4-1.1.2-1.4M1009.4,478.7l-4.4,1.1-.4,3.5,4.4-1.1.4-3.5M1009.7,476.2l-4.4,1.1-.2,1.4,4.4-1.1.2-1.4M1002.3,465.1l-40.5,10c-1.3.3-2.5.9-3.6,1.6-1.1.7-2.2,1.7-3.1,2.7-.9,1-1.7,2.2-2.2,3.4-.6,1.2-.9,2.5-1.1,3.8l-3.8,41.1c-.1,1.2,0,2.4.4,3.3.4,1,.9,1.8,1.7,2.4.7.6,1.7,1,2.7,1.2,1,.2,2.2.1,3.4-.2l39.8-10.6c1.2-.3,2.4-.9,3.5-1.6,1.1-.7,2.1-1.6,3-2.6.9-1,1.6-2.1,2.2-3.3.6-1.2.9-2.4,1.1-3.6l.4-4-4.4,1.2-.4,4c0,.6-.2,1.2-.5,1.8-.3.6-.6,1.2-1.1,1.7-.4.5-.9,1-1.5,1.3-.5.4-1.1.6-1.7.8l-39.9,10.5c-.6.2-1.2.2-1.7.1-.5,0-1-.3-1.3-.6-.4-.3-.6-.7-.8-1.2-.2-.5-.2-1-.2-1.7l3.9-41c0-.6.2-1.3.5-1.9.3-.6.7-1.2,1.1-1.7.5-.5,1-1,1.5-1.3.6-.4,1.2-.6,1.8-.8l40.4-10c.6-.2,1.2-.2,1.7,0s.9.3,1.3.6c.4.3.6.7.8,1.2s.2,1.1.2,1.7l-.3,2.7,4.4-1.1.3-2.7c.1-1.3,0-2.4-.3-3.4-.3-1-.9-1.8-1.6-2.4-.7-.6-1.6-1.1-2.6-1.3-1-.2-2.1-.2-3.4.1"/>
              <polyline class="cls-96" points="1011.2 503.3 1006.6 504.5 1002.2 505.6 1001 505.9 997.8 506.7 997.3 506.9 996.8 511 997.3 510.9 1000.6 510 1001.7 509.7 1006.1 508.6 1010.7 507.4 1010.9 506 1006.3 507.2 1001.9 508.4 1000.7 508.7 1000.8 507.3 1002 507 1006.4 505.9 1011 504.7 1011.2 503.3"/>
              <polyline class="cls-96" points="1012 496 1007.4 497.2 1002.9 498.3 1001.8 498.6 998.5 499.5 998 499.6 997.6 503.7 998.1 503.6 1001.4 502.8 1002.5 502.5 1006.9 501.3 1011.5 500.1 1011.7 498.8 1007.1 500 1002.7 501.1 1001.5 501.4 1001.6 500 1002.8 499.7 1007.2 498.5 1011.8 497.4 1012 496"/>
              <polyline class="cls-96" points="1012.8 488.7 1008.2 489.9 1003.7 491 1002.6 491.3 999.3 492.1 998.8 492.3 998.4 496.1 998.9 496 1002.2 495.1 1003.3 494.8 1007.8 493.7 1012.4 492.5 1012.5 491.1 1007.9 492.3 1003.5 493.4 1002.3 493.7 1002.5 492.4 1003.6 492 1008.1 490.9 1012.7 489.7 1012.8 488.7"/>
              <polyline class="cls-96" points="1013.6 481 1009 482.2 1004.6 483.3 1003.4 483.6 1000.1 484.4 999.6 484.5 999.2 488.8 999.7 488.6 1003 487.8 1004.1 487.5 1008.6 486.4 1013.2 485.2 1013.3 483.8 1008.7 485 1004.3 486.1 1003.1 486.4 1003.2 485 1004.4 484.7 1008.9 483.6 1013.5 482.4 1013.6 481"/>
              <polyline class="cls-96" points="1014.4 473.7 1009.8 474.8 1005.4 475.9 1004.2 476.2 1000.9 477 1000.4 477.2 1000 481 1000.5 480.9 1003.8 480.1 1005 479.8 1009.4 478.7 1014 477.5 1014.1 476.5 1009.5 477.6 1005.1 478.7 1003.9 479 1004 477.6 1005.2 477.3 1009.7 476.2 1014.3 475.1 1014.4 473.7"/>
              <polyline class="cls-96" points="989.5 510.8 961.3 518.2 961.2 519.9 989.3 512.6 989.5 510.8"/>
              <polyline class="cls-96" points="990.3 503.2 962.1 510.5 961.9 512.2 990.1 504.9 990.3 503.2"/>
              <polyline class="cls-96" points="991.1 495.5 962.8 502.7 962.6 504.5 990.9 497.2 991.1 495.5"/>
              <polyline class="cls-96" points="991.9 487.8 963.6 494.9 963.4 496.7 991.7 489.5 991.9 487.8"/>
              <polyline class="cls-96" points="992.7 480 964.3 487.1 964.1 488.9 992.5 481.8 992.7 480"/>
            </g>
          </g>
        </g>
        <g>
          <g>
            <path class="cls-96" d="M1068.6,235.8l-49.2-19.7c-6-2.4-8.9-9.1-6.4-14.8l20.7-46.9c2.5-5.8,9.5-8.5,15.6-6l49.2,19.7c6.1,2.4,8.9,9.1,6.4,14.8l-20.7,46.9c-2.5,5.7-9.5,8.5-15.6,6h0ZM1046.9,153.7c-3-1.2-6.5.1-7.8,3l-20.7,46.9c-1.3,2.9.2,6.2,3.2,7.4l49.2,19.7c3,1.2,6.5-.2,7.8-3l20.7-46.9c1.3-2.9-.2-6.2-3.2-7.4l-49.2-19.7h0Z"/>
            <polygon class="cls-96" points="1047 174 1080.9 187.6 1081.8 185.6 1047.9 172 1047 174"/>
            <path class="cls-96" d="M1059,178.4l10.2,4.1c2.5-.7,4.6-2.4,5.7-4.8,1.9-4.3-.2-9.2-4.7-11-4.5-1.8-9.7.2-11.5,4.5-1.1,2.4-.8,5.1.4,7.2Z"/>
            <path class="cls-96" d="M1097,168.8l-47.2-18.8c-5.9-2.4-12.7.2-15.1,5.8l-5.2,11.8c-2.5,5.8.2,12.8,5.9,15.1l47.2,18.8c5.6,2.2,12.3-.8,14.9-6.8l5.2-11.8c2.5-5.7,0-11.8-5.7-14.1ZM1048.2,153.8l47.2,18.8c3.6,1.4,5,5.1,3.4,8.8l-5.2,11.8c-1.7,3.9-5.9,6-9.3,4.6l-47.2-18.8c-3.5-1.4-5.2-6.1-3.6-9.8l5.2-11.8c1.6-3.5,5.7-5.1,9.5-3.6Z"/>
          </g>
          <path class="cls-96" d="M1057.1,214.3c-1,0-2.2-.2-3.6-.8-2.9-1.1-4.4-3.8-2.9-7.1,1.3-3,4.2-4.3,7.3-3,1.5.6,2.5,1.3,3,1.9l2.8-3.8c-1-.9-2.6-1.9-4.2-2.5,0,0,0,0,0,0l1.3-3-4.3-1.7-1.6,3.7c-4.9-.3-8.6,2.3-10.4,6.3-2,4.5-.8,8.6,2.6,11.3l-1.6,3.6,4.3,1.7,1.4-3.2c2,.7,3.7,1,4.8,1l1.1-4.4Z"/>
        </g>
        <g class="cls-88">
          <g class="cls-102">
            <g>
              <path class="cls-96" d="M785.2,815.4c-.6,0-1.2,0-1.6-.3-.5-.3-.8-.8-1.1-1.4-.3-.6-.5-1.4-.6-2.3-.1-.9-.1-1.9,0-3.1,0-1.1.2-2.1.4-3,.2-.9.5-1.8.8-2.5.3-.7.8-1.3,1.3-1.8.5-.5,1.1-.7,1.7-.8h0c.7-.1,1.2,0,1.7.3.4.3.8.8,1.1,1.4.3.6.4,1.4.5,2.3,0,.9,0,1.9,0,3,0,1.2-.2,2.3-.4,3.3-.2,1-.5,1.8-.8,2.5-.3.7-.8,1.3-1.2,1.7-.5.4-1,.7-1.7.8M786.4,794.7h0c-1.6.2-3.1.8-4.4,1.6-1.3.8-2.5,1.9-3.5,3.2-1,1.3-1.8,2.8-2.3,4.5-.6,1.7-.9,3.5-1,5.4-.1,2,0,3.8.5,5.3.4,1.5,1.1,2.8,1.9,3.7.9,1,1.9,1.7,3.1,2.1,1.2.4,2.5.5,3.9.3,1.4-.2,2.7-.7,4-1.4,1.3-.8,2.4-1.8,3.5-3.1,1-1.3,1.9-2.8,2.5-4.6.6-1.8,1.1-3.8,1.2-6,.1-1.8,0-3.5-.4-4.9-.4-1.4-.9-2.7-1.7-3.7-.8-1-1.8-1.7-3-2.2-1.2-.4-2.6-.6-4.2-.3M786.7,777.3l-4.7.7-24,46.8,4.7-.7,24-46.8M759.1,801.7c-.6,0-1.2,0-1.7-.3-.5-.3-.8-.8-1.1-1.4s-.5-1.4-.6-2.3c-.1-.9-.1-1.9,0-3,0-1.1.2-2.1.4-3,.2-.9.5-1.8.8-2.5.3-.7.8-1.4,1.3-1.8.5-.5,1.1-.7,1.7-.8h0c.7-.1,1.2,0,1.7.3.5.3.8.8,1.1,1.4.3.6.4,1.4.5,2.3,0,.9,0,1.9,0,3,0,1.2-.2,2.3-.4,3.3-.2,1-.5,1.8-.8,2.5-.3.7-.8,1.3-1.2,1.7-.5.4-1,.7-1.7.8M760.3,781h0c-1.6.2-3.1.8-4.4,1.6-1.3.8-2.5,2-3.5,3.3-1,1.3-1.8,2.8-2.3,4.5-.6,1.7-.9,3.5-1,5.4-.1,2,0,3.7.5,5.2.4,1.5,1.1,2.7,1.9,3.7.9,1,1.9,1.7,3.1,2.1,1.2.4,2.5.5,4,.3,1.4-.2,2.7-.7,4-1.4,1.3-.7,2.4-1.8,3.5-3,1-1.3,1.9-2.8,2.5-4.5.6-1.7,1.1-3.7,1.2-5.9.1-1.8,0-3.5-.4-5-.4-1.5-.9-2.7-1.7-3.7-.8-1-1.8-1.7-3-2.2-1.2-.4-2.6-.6-4.2-.3"/>
              <path class="cls-96" d="M747.8,835.8c-.7.1-1.4,0-2-.2-.6-.2-1.1-.6-1.6-1-.4-.5-.8-1-1-1.7-.2-.7-.3-1.4-.3-2.2l2.9-51.2c0-.8.2-1.6.5-2.4.3-.7.7-1.4,1.2-2,.5-.6,1.1-1.1,1.7-1.5.6-.4,1.3-.7,2.1-.8l45.5-6.6c.7-.1,1.4,0,2,.2.6.2,1.2.6,1.6,1,.4.5.8,1,1,1.7.2.7.3,1.4.3,2.3l-2.8,51.4c0,.8-.2,1.6-.5,2.4-.3.7-.7,1.4-1.2,2-.5.6-1.1,1.1-1.7,1.5s-1.3.6-2.1.8l-45.6,6.5M797.2,760.8l-45.5,6.6c-1.4.2-2.7.7-3.9,1.4-1.2.7-2.3,1.7-3.3,2.9-1,1.1-1.8,2.5-2.3,3.9-.6,1.4-.9,2.9-1,4.5l-2.9,51.2c0,1.5.1,3,.5,4.3.4,1.3,1.1,2.4,1.9,3.3.8.9,1.9,1.6,3,2,1.2.4,2.4.5,3.8.3l45.6-6.4c1.4-.2,2.7-.7,3.9-1.4,1.2-.7,2.4-1.7,3.3-2.9,1-1.1,1.8-2.5,2.3-3.9.6-1.4.9-2.9,1-4.5l2.8-51.4c0-1.5-.1-3-.5-4.3-.4-1.3-1.1-2.4-1.9-3.3-.8-.9-1.9-1.6-3-2-1.2-.4-2.5-.5-3.8-.3"/>
            </g>
          </g>
        </g>
        <g class="cls-88">
          <g class="cls-59">
            <g>
              <path class="cls-96" d="M708.8,73.5c-.2,0-.5,0-.7.1-.2,0-.4.2-.6.4-.2.2-.3.4-.4.7-.1.3-.2.5-.2.8l-1.4,23.4s0,0,.1,0c0,0,0,0,.1,0,0,0,0,0,.1,0,0,0,0,0,.1,0l3.1-1.5,1.3-21.5c0-.3,0-.6,0-.8,0-.3-.2-.5-.3-.7-.1-.2-.3-.4-.5-.5-.2-.1-.4-.2-.7-.2"/>
              <path class="cls-96" d="M721.4,91.6c-.1,0-.2,0-.3,0-.1,0-.2,0-.3,0-.1,0-.2,0-.3,0-.1,0-.2,0-.3.1l-11,5.3-3.1,1.5s0,0-.1,0c0,0,0,0-.1,0,0,0,0,0-.1,0,0,0,0,0-.1,0-.4.2-.7.6-.9.9-.3.4-.5.8-.6,1.2s-.2.9-.2,1.4c0,.5,0,1,.2,1.4.1.4.3.7.5,1s.4.6.7.8c.3.2.5.4.8.5.3.1.6.2.9.2.1,0,.2,0,.3,0,.1,0,.2,0,.3,0,.1,0,.2,0,.3,0,.1,0,.2,0,.3-.1l14.1-6.8c.4-.2.8-.5,1.1-.9.3-.4.6-.8.7-1.3.2-.5.3-1,.3-1.5,0-.5,0-1-.2-1.5-.1-.4-.3-.7-.4-1-.2-.3-.4-.6-.6-.8-.2-.2-.5-.4-.8-.5-.3-.1-.6-.2-.9-.2"/>
              <path class="cls-96" d="M705.6,131.4c-3.5,0-6.8-1-9.8-2.7-3-1.6-5.6-4-7.8-6.9-2.2-2.9-3.9-6.3-4.9-10.1-1.1-3.8-1.6-7.9-1.3-12.3.3-4.3,1.2-8.4,2.8-12.1,1.5-3.7,3.6-7,6.1-9.7,2.5-2.7,5.4-4.9,8.6-6.3,3.1-1.4,6.5-2.2,10.1-2,3.5.2,6.8,1.2,9.7,2.9,2.9,1.7,5.5,4.1,7.6,7,2.1,2.9,3.7,6.3,4.8,10,1,3.7,1.5,7.8,1.2,12-.3,4.2-1.2,8.3-2.7,11.9-1.5,3.6-3.5,6.9-6,9.6-2.4,2.7-5.3,4.9-8.4,6.4-3.1,1.5-6.5,2.3-10,2.2M709.8,62c-4.3-.2-8.5.7-12.4,2.4-3.9,1.8-7.5,4.5-10.6,7.8-3.1,3.4-5.7,7.5-7.6,12-1.9,4.6-3.1,9.7-3.4,15-.3,5.4.3,10.5,1.6,15.2,1.3,4.7,3.4,8.9,6.1,12.5,2.7,3.6,5.9,6.5,9.6,8.5,3.7,2,7.7,3.2,12.1,3.3,4.3,0,8.5-.9,12.3-2.8,3.8-1.9,7.3-4.6,10.3-8,3-3.4,5.5-7.4,7.3-11.9,1.8-4.5,3-9.4,3.3-14.7.3-5.2-.2-10.2-1.5-14.8-1.3-4.6-3.3-8.8-5.9-12.4-2.6-3.6-5.8-6.5-9.3-8.6-3.6-2.1-7.6-3.4-12-3.6"/>
            </g>
          </g>
        </g>
        <g class="cls-88">
          <g class="cls-73">
            <g>
              <path class="cls-96" d="M1263.9,433.9h0s0,0,0,0,0,0,0,0c0,0-.2.1-.2.3,0,.1,0,.3,0,.5,0,.2,0,.5,0,.7,0,.3,0,.5.1.8,0,.3.1.5.2.7s.2.4.3.6c0,.2.2.3.3.4,0,0,.2.1.3.2h0s0,0,0,0c0,0,0,0,0,0,0,0,.1-.1.2-.2,0-.1,0-.3,0-.5,0-.2,0-.5,0-.7,0-.3,0-.5-.1-.8,0-.3-.1-.5-.2-.7,0-.2-.2-.4-.3-.6,0-.2-.2-.3-.3-.4,0,0-.2-.2-.3-.2"/>
              <path class="cls-96" d="M1265.6,428c0,0-.2,0-.3.2-.1.1-.2.3-.4.5-.1.2-.2.4-.4.7-.1.3-.2.6-.3.9,0,.3-.2.6-.2.9,0,.3,0,.5-.1.7,0,.2,0,.4,0,.5,0,.1,0,.2.2.2,0,0,.2,0,.3-.2.1-.1.2-.3.3-.5.1-.2.2-.4.4-.7.1-.3.2-.6.3-.9.1-.3.2-.6.2-.9,0-.3,0-.5.1-.7,0-.2,0-.4,0-.5,0-.1,0-.2-.2-.2"/>
              <path class="cls-96" d="M1267.4,422.4c0,0-.2,0-.3.2-.1.1-.2.3-.3.5-.1.2-.2.4-.4.7-.1.3-.2.6-.3.9-.1.3-.2.6-.2.9,0,.3,0,.5-.1.7,0,.2,0,.4,0,.5,0,.1,0,.2.2.2,0,0,.2,0,.3-.2.1-.1.2-.3.3-.5.1-.2.2-.4.4-.7.1-.3.2-.6.3-.9,0-.3.2-.6.2-.9,0-.3,0-.5.1-.7,0-.2,0-.4,0-.5,0-.1,0-.2-.2-.2"/>
              <path class="cls-96" d="M1269.2,416.8c0,0-.2,0-.3.2-.1.1-.2.3-.4.5-.1.2-.2.4-.4.7-.1.3-.2.6-.3.9,0,.3-.2.6-.2.9,0,.3,0,.5-.1.7,0,.2,0,.4,0,.5,0,.1,0,.2.2.2,0,0,.2,0,.3-.2.1-.1.2-.3.3-.5.1-.2.2-.4.4-.7.1-.3.2-.6.3-.9.1-.3.2-.6.2-.9,0-.3,0-.5.1-.7,0-.2,0-.4,0-.5,0-.1,0-.2-.2-.2"/>
              <path class="cls-96" d="M1271.1,412.6c0,0-.2,0-.3,0,0,0-.2,0-.3,0,0,0-.2,0-.3,0,0,0-.2,0-.3,0,0,0,0,.1,0,.2,0,0,0,.1,0,.2,0,0,0,.1,0,.2,0,0,0,.1,0,.2-.1.3-.2.6-.2.9,0,.3,0,.5-.1.7,0,.2,0,.4,0,.5,0,.1,0,.2.2.2,0,0,.2,0,.3-.2.1-.1.2-.3.3-.5.1-.2.2-.4.4-.7.1-.3.2-.6.3-.9,0,0,0-.2,0-.2,0,0,0-.2,0-.2,0,0,0-.2,0-.2,0,0,0-.2,0-.2"/>
              <path class="cls-96" d="M1274.5,438.6c-.3,0-.7,0-1,0-.3,0-.6,0-.8,0-.2,0-.4,0-.6.1-.1,0-.2.1-.3.2,0,0,0,.1.1.2.1,0,.3.1.5.2.2,0,.5.1.7.2.3,0,.6,0,.9.1.3,0,.7,0,1,0s.6,0,.8,0c.2,0,.4,0,.6-.1.1,0,.2-.1.3-.2,0,0,0-.2-.1-.2-.1,0-.3-.2-.5-.2-.2,0-.5-.1-.7-.2-.3,0-.6,0-.9-.1"/>
              <path class="cls-96" d="M1268.4,438.2c-.3,0-.7,0-1,0-.3,0-.6,0-.8,0-.2,0-.4,0-.6.1-.1,0-.2.1-.3.2,0,0,0,.1.1.2.1,0,.3.1.5.2.2,0,.5.1.7.2.3,0,.6,0,.9.1.3,0,.7,0,1,0,.3,0,.6,0,.8,0,.2,0,.4,0,.6-.1.1,0,.2-.1.3-.2,0,0,0-.2-.1-.2-.1,0-.3-.1-.5-.2-.2,0-.5-.1-.7-.2-.3,0-.6,0-.9-.1"/>
              <path class="cls-96" d="M1280.5,439.1c-.3,0-.7,0-1,0-.3,0-.6,0-.8,0-.2,0-.4,0-.6.1-.1,0-.2.1-.3.2,0,0,0,.1.1.2.1,0,.3.1.5.2.2,0,.5.1.7.2.3,0,.6,0,.9.1.3,0,.7,0,1,0,.3,0,.6,0,.8,0,.2,0,.4,0,.6-.1.1,0,.2-.1.3-.2,0,0,0-.2-.1-.2-.1,0-.3-.1-.5-.2-.2,0-.5-.1-.7-.2-.3,0-.6,0-.9-.1"/>
              <path class="cls-96" d="M1313.2,437.4c0,0-.2,0-.3.1-.1,0-.3.2-.5.3-.2.1-.4.3-.6.5-.2.2-.4.4-.7.7-.2.3-.5.5-.6.8-.2.2-.3.5-.5.7-.1.2-.2.4-.2.5,0,.1,0,.2,0,.3,0,0,0,0,0,0,0,0,0,0,0,0,0,0,0,0,0,0,0,0,0,0,0,0,0,0,.2,0,.3-.1.1,0,.3-.2.5-.3.2-.1.4-.3.6-.5.2-.2.4-.4.7-.7.2-.3.5-.5.7-.8.2-.2.3-.5.5-.7.1-.2.2-.4.2-.5,0-.1,0-.2,0-.3,0,0,0,0,0,0,0,0,0,0,0,0,0,0,0,0,0,0s0,0,0,0"/>
              <path class="cls-96" d="M1315.2,431.7c0,0-.2,0-.3.2-.1.1-.2.3-.3.5-.1.2-.2.4-.4.7-.1.3-.2.6-.3.9-.1.3-.2.6-.2.9,0,.3,0,.5-.1.7,0,.2,0,.4,0,.5,0,.1,0,.2.2.2,0,0,.2,0,.3-.2.1-.1.2-.3.3-.5s.2-.4.4-.7c.1-.3.2-.6.3-.9.1-.3.2-.6.2-.9,0-.3,0-.5.1-.7,0-.2,0-.4,0-.5,0-.1,0-.2-.2-.2"/>
              <path class="cls-96" d="M1317.1,426.2c0,0-.2,0-.3.2-.1.1-.2.3-.3.5-.1.2-.2.4-.4.7-.1.3-.2.6-.3.9-.1.3-.2.6-.2.9,0,.3,0,.5-.1.7,0,.2,0,.4,0,.5,0,.1,0,.2.2.2,0,0,.2,0,.3-.2.1-.1.2-.3.3-.5.1-.2.2-.4.4-.7.1-.3.2-.6.3-.9.1-.3.2-.6.2-.9,0-.3,0-.5.1-.7,0-.2,0-.4,0-.5,0-.1,0-.2-.2-.2"/>
              <path class="cls-96" d="M1318.9,420.6c0,0-.2,0-.3.2-.1.1-.2.3-.3.5-.1.2-.2.4-.4.7s-.2.6-.3.9c-.1.3-.2.6-.2.9,0,.3,0,.5-.1.7,0,.2,0,.4,0,.5,0,.1,0,.2.2.2,0,0,.2,0,.3-.2.1-.1.2-.3.4-.5.1-.2.2-.4.4-.7.1-.3.2-.6.3-.9.1-.3.2-.6.2-.9,0-.3,0-.5.1-.7,0-.2,0-.4,0-.5,0-.1,0-.2-.2-.2"/>
              <path class="cls-96" d="M1319.7,416.5c0,0,0,.1,0,.2,0,0,0,.1,0,.2,0,0,0,.1,0,.2,0,0,0,.1,0,.2-.1.3-.2.6-.2.9,0,.3,0,.5-.1.7,0,.2,0,.4,0,.5,0,.1,0,.2.2.2,0,0,.2,0,.3-.2.1-.1.2-.3.3-.5.1-.2.2-.4.4-.7.1-.3.2-.6.3-.9,0,0,0,0,0,0,0,0,0,0,0,0,0,0,0,0,0,0,0,0,0,0,0,0,0,0-.1-.1-.2-.2,0,0-.2,0-.2-.1,0,0-.2,0-.2-.1,0,0-.2,0-.3-.1"/>
              <path class="cls-96" d="M1300.2,440.5c-.3,0-.6,0-.9,0-.3,0-.6,0-.8,0-.2,0-.4,0-.6.1s-.2.1-.3.2c0,0,0,.1.1.2.1,0,.3.1.5.2.2,0,.4.1.7.2.3,0,.6,0,.9.1.3,0,.7,0,1,0,.3,0,.6,0,.8,0,.2,0,.4,0,.6-.1.1,0,.2-.1.3-.2,0,0,0-.2-.1-.2-.1,0-.3-.1-.5-.2-.2,0-.5-.1-.7-.2-.3,0-.6,0-.9-.1"/>
              <path class="cls-96" d="M1306.2,440.9c-.3,0-.7,0-1,0-.3,0-.6,0-.8,0-.2,0-.4,0-.6.1-.1,0-.2.1-.3.2,0,0,0,.1.1.2.1,0,.3.1.5.2.2,0,.5.1.7.2.3,0,.6,0,.9.1.3,0,.7,0,1,0,.3,0,.6,0,.8,0,.2,0,.4,0,.6-.1.1,0,.2-.1.3-.2,0,0,0-.2-.1-.2,0,0-.2-.1-.4-.2-.2,0-.4-.1-.7-.2-.3,0-.6,0-.9-.1"/>
              <path class="cls-96" d="M1294.3,440.1c-.3,0-.6,0-.9,0-.3,0-.6,0-.8,0-.2,0-.4,0-.6.1-.1,0-.2.1-.3.2,0,0,0,.1.1.2.1,0,.3.1.5.2.2,0,.5.1.7.2.3,0,.6,0,.9.1.3,0,.7,0,1,0,.3,0,.6,0,.8,0,.2,0,.4,0,.6-.1.1,0,.2-.1.3-.2,0,0,0-.2-.1-.2-.1,0-.3-.1-.5-.2-.2,0-.4-.1-.7-.2s-.6,0-.9-.1"/>
              <path class="cls-96" d="M1256.7,456.8h0s0,0,0,0c0,0,0,0,0,0,0,0,0,0,0,0,0,0-.1.1-.2.2,0,.1,0,.3,0,.5,0,.2,0,.4,0,.7,0,.3,0,.5.1.8,0,.3.1.5.2.7,0,.2.2.4.3.6,0,.2.2.3.3.4,0,0,.2.1.3.2h0s0,0,0,0c0,0,0,0,0,0,0,0,.1-.1.2-.2,0-.1,0-.3,0-.5,0-.2,0-.4,0-.7,0-.3,0-.5-.1-.8,0-.3-.1-.5-.2-.7,0-.2-.2-.4-.3-.6,0-.2-.2-.3-.3-.4,0,0-.2-.1-.3-.2"/>
              <path class="cls-96" d="M1258.4,451.1c0,0-.2,0-.3.2-.1.1-.2.3-.3.5-.1.2-.2.4-.4.7-.1.3-.2.6-.3.9-.1.3-.2.6-.2.9,0,.3,0,.5,0,.7,0,.2,0,.4,0,.5,0,.1,0,.2.2.2,0,0,.2,0,.3-.2.1-.1.2-.3.3-.5.1-.2.2-.4.4-.7.1-.3.2-.5.3-.9,0-.3.2-.6.2-.9,0-.3,0-.5.1-.7s0-.4,0-.5c0-.1,0-.2-.2-.2"/>
              <path class="cls-96" d="M1260.2,445.6c0,0-.2,0-.3.2-.1.1-.2.3-.3.5-.1.2-.2.4-.4.7-.1.3-.2.6-.3.9,0,.3-.2.6-.2.9,0,.3,0,.5,0,.7,0,.2,0,.4,0,.5,0,.1,0,.2.2.2,0,0,.2,0,.3-.2.1-.1.2-.3.3-.5.1-.2.2-.4.4-.7.1-.3.2-.6.3-.9.1-.3.2-.6.2-.9,0-.3,0-.5.1-.7,0-.2,0-.4,0-.5,0-.1,0-.2-.2-.2"/>
              <path class="cls-96" d="M1305.8,460.1c0,0-.2,0-.3.1-.1,0-.3.2-.5.3-.2.1-.4.3-.6.5-.2.2-.4.4-.7.7-.2.3-.5.5-.6.8-.2.2-.3.5-.5.7-.1.2-.2.4-.2.5,0,.1,0,.2,0,.3,0,0,0,0,0,0,0,0,0,0,0,0,0,0,0,0,0,0h0c0,0,.2,0,.3-.1.1,0,.3-.2.5-.3.2-.1.4-.3.6-.5.2-.2.4-.4.7-.7.2-.3.5-.5.6-.8s.3-.5.5-.7c.1-.2.2-.4.2-.5,0-.1,0-.2,0-.2,0,0,0,0,0,0,0,0,0,0,0,0,0,0,0,0,0,0,0,0,0,0,0,0"/>
              <path class="cls-96" d="M1307.8,454.5c0,0-.2,0-.3.2-.1.1-.2.3-.3.5-.1.2-.2.4-.4.7-.1.3-.2.6-.3.9-.1.3-.2.6-.2.9,0,.3,0,.5-.1.7,0,.2,0,.4,0,.5,0,.1,0,.2.2.2,0,0,.2,0,.3-.2.1-.1.2-.3.3-.5.1-.2.2-.4.4-.7.1-.3.2-.5.3-.8.1-.3.2-.6.2-.9,0-.3,0-.5.1-.7,0-.2,0-.4,0-.5,0-.1,0-.2-.2-.2"/>
              <path class="cls-96" d="M1309.7,449c0,0-.2,0-.3.2-.1.1-.2.3-.3.5-.1.2-.2.4-.4.7-.1.3-.2.6-.3.9-.1.3-.2.6-.2.9,0,.3,0,.5-.1.7,0,.2,0,.4,0,.5,0,.1,0,.2.2.2,0,0,.2,0,.3-.2.1-.1.2-.3.3-.5.1-.2.2-.4.4-.7.1-.3.2-.5.3-.8.1-.3.2-.6.2-.9,0-.3,0-.5.1-.7,0-.2,0-.4,0-.5,0-.1,0-.2-.2-.2"/>
              <path class="cls-96" d="M1261.3,460.9c-.3,0-.7,0-1,0-.3,0-.6,0-.8,0-.2,0-.4,0-.6.1-.1,0-.2.1-.3.2,0,0,0,.1.1.2.1,0,.3.1.5.2.2,0,.5.1.7.2.3,0,.6,0,.9.1.3,0,.7,0,1,0,.3,0,.6,0,.8,0,.2,0,.4,0,.6-.1.1,0,.2-.1.3-.2,0,0,0-.2-.1-.2-.1,0-.3-.1-.5-.2-.2,0-.5-.1-.7-.2-.3,0-.6,0-.9-.1"/>
              <path class="cls-96" d="M1267.7,461.3c-.3,0-.7,0-1,0-.3,0-.6,0-.8,0-.2,0-.4,0-.6.1-.1,0-.2.1-.3.2,0,0,0,.1.1.2.1,0,.3.1.5.2.2,0,.5.1.7.2.3,0,.6,0,.9.1.3,0,.7,0,1,0,.3,0,.6,0,.8,0,.2,0,.4,0,.6-.1.1,0,.2-.1.3-.2,0,0,0-.2-.1-.2-.1,0-.3-.1-.5-.2-.2,0-.5-.1-.7-.2-.3,0-.6,0-.9-.1"/>
              <path class="cls-96" d="M1273.9,461.7c-.3,0-.7,0-.9,0-.3,0-.6,0-.8,0-.2,0-.4,0-.6.1-.1,0-.2.1-.3.2,0,0,0,.1.1.2.1,0,.3.1.5.2.2,0,.5.1.7.2.3,0,.6,0,.9.1.3,0,.7,0,1,0,.3,0,.6,0,.8,0,.2,0,.4,0,.6-.1.1,0,.2-.1.3-.2,0,0,0-.2-.1-.2-.1,0-.3-.1-.5-.2s-.5-.1-.7-.2c-.3,0-.6,0-.9-.1"/>
              <path class="cls-96" d="M1280.2,462.2c-.3,0-.7,0-1,0-.3,0-.6,0-.8,0-.2,0-.4,0-.6.1-.1,0-.2.1-.3.2,0,0,0,.1.1.2.1,0,.3.1.5.2.2,0,.4.1.7.2.3,0,.6,0,.9.1.3,0,.6,0,.9,0,.3,0,.6,0,.8,0,.2,0,.4,0,.6-.1.1,0,.2-.1.3-.2,0,0,0-.2-.1-.2-.1,0-.3-.1-.5-.2-.2,0-.5-.1-.7-.2-.3,0-.6,0-.9-.1"/>
              <path class="cls-96" d="M1286.5,462.6c-.3,0-.7,0-1,0-.3,0-.6,0-.8,0-.2,0-.4,0-.6.1-.1,0-.2.1-.3.2,0,0,0,.1.1.2.1,0,.3.1.5.2s.5.1.7.2c.3,0,.6,0,.9.1.3,0,.6,0,.9,0,.3,0,.6,0,.8,0,.2,0,.4,0,.6-.1.1,0,.2-.1.3-.2,0,0,0-.2-.1-.2-.1,0-.3-.1-.5-.2-.2,0-.4-.1-.7-.2-.3,0-.6,0-.9-.1"/>
              <path class="cls-96" d="M1292.7,463c-.3,0-.7,0-1,0-.3,0-.6,0-.8,0-.2,0-.4,0-.6.1-.1,0-.2.1-.3.2,0,0,0,.1.1.2.1,0,.3.1.5.2.2,0,.5.1.7.2.3,0,.6,0,.9.1.3,0,.6,0,.9,0,.3,0,.6,0,.8,0,.2,0,.4,0,.6-.1.1,0,.2-.1.3-.2,0,0,0-.2-.1-.2-.1,0-.3-.1-.5-.2s-.4-.1-.7-.2c-.3,0-.6,0-.9-.1"/>
              <path class="cls-96" d="M1298.9,463.4c-.3,0-.7,0-1,0-.3,0-.6,0-.8,0-.2,0-.4,0-.6.1-.1,0-.2.1-.3.2,0,0,0,.1.1.2.1,0,.3.1.5.2.2,0,.4.1.7.2.3,0,.6,0,.9.1.3,0,.7,0,.9,0,.3,0,.6,0,.8,0,.2,0,.4,0,.6-.1.1,0,.2-.1.3-.2,0,0,0-.2-.1-.2,0,0-.3-.1-.5-.2-.2,0-.4-.1-.7-.2-.3,0-.6,0-.9-.1"/>
              <path class="cls-96" d="M1287,446.4l-6.7-.5-.2.6c-.2.5-.2,1.1-.2,1.5,0,.5.1.9.3,1.3.2.4.5.7.8.9.3.2.7.4,1.2.4.5,0,.9,0,1.4-.2.5-.2.9-.4,1.3-.8s.8-.7,1.1-1.2c.3-.5.6-1,.8-1.5l.2-.6M1286.1,438.9c-.5,0-.9,0-1.4.2-.5.2-.9.4-1.3.8-.4.3-.8.7-1.1,1.2-.3.5-.6,1-.8,1.5l-.2.5,6.7.5.2-.5c.2-.5.3-1.1.2-1.5,0-.5-.1-.9-.3-1.3-.2-.4-.5-.7-.8-.9-.3-.2-.7-.4-1.2-.4"/>
              <path class="cls-96" d="M1266.3,412.5c-.3.2-.6.4-.8.7-.3.2-.5.5-.7.8-.2.3-.4.6-.6.9-.2.3-.3.6-.4,1l-7.5,23.3c0,.2.1.3.2.5,0,.2.1.3.2.5,0,.2.1.3.2.4,0,.1.2.3.3.4.4.6.8,1.1,1.3,1.5.5.4,1,.8,1.6,1.2.6.3,1.2.6,1.9.8.7.2,1.4.3,2.2.4l16.2,1.1,6.7.5,15.4,1.1c.9,0,1.9,0,2.9-.1,1-.1,1.9-.4,2.9-.7.9-.3,1.9-.7,2.7-1.2.9-.5,1.7-1,2.5-1.7l7.9-23.5c0-.2.1-.4.2-.6,0-.2,0-.4,0-.6,0-.2,0-.4,0-.6,0-.2,0-.4,0-.6l-6.5,19.5c-.4,1.1-1,2-1.7,2.9-.8.9-1.7,1.7-2.8,2.4-1.1.7-2.2,1.2-3.4,1.5-1.2.3-2.4.5-3.6.4l-15.4-1.1-6.7-.5-16.2-1.1c-1.1,0-2.2-.4-3-.8-.8-.5-1.5-1.1-2-1.9-.5-.8-.8-1.7-.9-2.6,0-1,0-2.1.4-3.2l6.7-20.8"/>
              <path class="cls-96" d="M1270.4,411.1c0,0,.1,0,.2,0s.1,0,.2,0c0,0,.1,0,.2,0,0,0,.1,0,.2,0l46.4,3.6c.1,0,.3,0,.4,0,.1,0,.3,0,.4,0,.1,0,.2,0,.4,0,.1,0,.2,0,.4.1,0,0,.2,0,.3.1,0,0,.2,0,.2.1,0,0,.2,0,.2.1,0,0,.2,0,.2.2.2.1.4.3.5.5.2.2.3.3.4.5.1.2.2.4.3.6,0,.2.2.4.2.7,0,.2,0,.4,0,.6,0,.2,0,.4,0,.6,0,.2,0,.4,0,.6,0,.2,0,.4-.2.6l-7.9,23.5-6.3,18.7c-.2.7-.6,1.3-1.1,1.9-.5.6-1.1,1.1-1.7,1.5-.6.4-1.4.8-2.1,1-.7.2-1.5.3-2.2.3l-46-3c-.8,0-1.5-.2-2.1-.5-.6-.3-1.1-.7-1.4-1.2-.4-.5-.6-1.1-.7-1.7,0-.6,0-1.3.2-2l6.2-19.5,7.5-23.3c.1-.3.2-.7.4-1,.2-.3.4-.6.6-.9.2-.3.5-.5.7-.8.3-.2.5-.5.8-.7.2-.2.4-.3.7-.4.2-.1.5-.2.7-.4.2-.1.5-.2.8-.3.3,0,.5-.1.8-.2,0,0,.2,0,.3,0,0,0,.2,0,.3,0,0,0,.2,0,.3,0,0,0,.2,0,.3,0M1285.1,408.1l.7-2.1c.2-.7.6-1.4,1.1-2,.5-.6,1.1-1.1,1.7-1.5.7-.4,1.4-.8,2.1-1,.7-.2,1.5-.3,2.3-.2l10.2.8c.8,0,1.4.3,2,.6.6.3,1,.7,1.4,1.2.3.5.6,1.1.6,1.7,0,.6,0,1.3-.2,2l-.7,2.1-21.2-1.7M1304.5,398l-10.2-.8c-1.4-.1-2.8,0-4.1.4-1.3.4-2.6,1-3.8,1.7-1.2.8-2.2,1.7-3.1,2.8-.9,1.1-1.5,2.3-2,3.5l-.7,2.1-8.3-.7c-1.4-.1-2.8,0-4.1.4-1.4.4-2.7,1-3.8,1.7-1.2.8-2.2,1.7-3.1,2.8-.9,1.1-1.5,2.3-1.9,3.5l-13.7,42.9c-.4,1.3-.5,2.5-.3,3.6.2,1.1.6,2.1,1.2,3,.6.9,1.5,1.6,2.5,2.1,1,.5,2.3.9,3.6,1l46,2.9c1.3,0,2.7,0,4-.5,1.3-.4,2.6-1,3.7-1.7,1.1-.8,2.2-1.7,3-2.7.8-1,1.5-2.2,1.9-3.4l14.2-42.2c.4-1.2.5-2.5.4-3.6-.1-1.1-.5-2.2-1.1-3s-1.4-1.6-2.5-2.2c-1-.6-2.2-.9-3.6-1l-8.2-.6.7-2.1c.4-1.3.5-2.5.4-3.6-.1-1.1-.5-2.2-1.1-3.1-.6-.9-1.5-1.7-2.5-2.2s-2.2-.9-3.6-1"/>
            </g>
          </g>
        </g>
        <g class="cls-88">
          <g class="cls-135">
            <g>
              <path class="cls-85" d="M1264.7,434.5h0s0,0,0,0,0,0,0,0c0,0-.2.1-.2.3,0,.1,0,.3,0,.5,0,.2,0,.5,0,.7,0,.3,0,.5.1.8,0,.3.1.5.2.7,0,.2.2.4.3.6,0,.2.2.3.3.4,0,0,.2.1.3.2h0s0,0,0,0c0,0,0,0,0,0,0,0,.1-.1.2-.2,0-.1,0-.3,0-.5,0-.2,0-.5,0-.7,0-.3,0-.5-.1-.8,0-.3-.1-.5-.2-.7,0-.2-.2-.4-.3-.6,0-.2-.2-.3-.3-.4,0,0-.2-.2-.3-.2"/>
              <path class="cls-85" d="M1266.4,428.7c0,0-.2,0-.3.2-.1.1-.2.3-.4.5s-.2.4-.4.7c-.1.3-.2.6-.3.9,0,.3-.2.6-.2.9,0,.3,0,.5-.1.7,0,.2,0,.4,0,.5,0,.1,0,.2.2.2,0,0,.2,0,.3-.2.1-.1.2-.3.3-.5.1-.2.2-.4.4-.7.1-.3.2-.6.3-.9.1-.3.2-.6.2-.9,0-.3,0-.5.1-.7,0-.2,0-.4,0-.5,0-.1,0-.2-.2-.2"/>
              <path class="cls-85" d="M1268.2,423.1c0,0-.2,0-.3.2-.1.1-.2.3-.3.5-.1.2-.2.4-.4.7-.1.3-.2.6-.3.9-.1.3-.2.6-.2.9,0,.3,0,.5-.1.7,0,.2,0,.4,0,.5s0,.2.2.2c0,0,.2,0,.3-.2.1-.1.2-.3.3-.5.1-.2.2-.4.4-.7.1-.3.2-.6.3-.9,0-.3.2-.6.2-.9,0-.3,0-.5.1-.7,0-.2,0-.4,0-.5,0-.1,0-.2-.2-.2"/>
              <path class="cls-85" d="M1270,417.5c0,0-.2,0-.3.2-.1.1-.2.3-.4.5-.1.2-.2.4-.4.7-.1.3-.2.6-.3.9,0,.3-.2.6-.2.9,0,.3,0,.5-.1.7,0,.2,0,.4,0,.5,0,.1,0,.2.2.2,0,0,.2,0,.3-.2.1-.1.2-.3.3-.5.1-.2.2-.4.4-.7.1-.3.2-.6.3-.9.1-.3.2-.6.2-.9,0-.3,0-.5.1-.7,0-.2,0-.4,0-.5,0-.1,0-.2-.2-.2"/>
              <path class="cls-85" d="M1271.9,413.3c0,0-.2,0-.3,0,0,0-.2,0-.3,0,0,0-.2,0-.3,0,0,0-.2,0-.3,0,0,0,0,.1,0,.2,0,0,0,.1,0,.2,0,0,0,.1,0,.2,0,0,0,.1,0,.2-.1.3-.2.6-.2.9,0,.3,0,.5-.1.7,0,.2,0,.4,0,.5,0,.1,0,.2.2.2,0,0,.2,0,.3-.2.1-.1.2-.3.3-.5.1-.2.2-.4.4-.7.1-.3.2-.6.3-.9,0,0,0-.2,0-.2,0,0,0-.2,0-.2,0,0,0-.2,0-.2,0,0,0-.2,0-.2"/>
              <path class="cls-85" d="M1275.3,439.3c-.3,0-.7,0-1,0-.3,0-.6,0-.8,0-.2,0-.4,0-.6.1-.1,0-.2.1-.3.2,0,0,0,.1.1.2.1,0,.3.1.5.2.2,0,.5.1.7.2.3,0,.6,0,.9.1.3,0,.7,0,1,0,.3,0,.6,0,.8,0,.2,0,.4,0,.6-.1.1,0,.2-.1.3-.2,0,0,0-.2-.1-.2-.1,0-.3-.2-.5-.2-.2,0-.5-.1-.7-.2-.3,0-.6,0-.9-.1"/>
              <path class="cls-85" d="M1269.2,438.9c-.3,0-.7,0-1,0-.3,0-.6,0-.8,0-.2,0-.4,0-.6.1-.1,0-.2.1-.3.2,0,0,0,.1.1.2.1,0,.3.1.5.2.2,0,.5.1.7.2.3,0,.6,0,.9.1.3,0,.7,0,1,0,.3,0,.6,0,.8,0,.2,0,.4,0,.6-.1.1,0,.2-.1.3-.2,0,0,0-.2-.1-.2-.1,0-.3-.1-.5-.2-.2,0-.5-.1-.7-.2-.3,0-.6,0-.9-.1"/>
              <path class="cls-85" d="M1281.3,439.7c-.3,0-.7,0-1,0-.3,0-.6,0-.8,0-.2,0-.4,0-.6.1-.1,0-.2.1-.3.2,0,0,0,.1.1.2.1,0,.3.1.5.2.2,0,.5.1.7.2s.6,0,.9.1c.3,0,.7,0,1,0s.6,0,.8,0c.2,0,.4,0,.6-.1.1,0,.2-.1.3-.2,0,0,0-.2-.1-.2-.1,0-.3-.1-.5-.2s-.5-.1-.7-.2c-.3,0-.6,0-.9-.1"/>
              <path class="cls-85" d="M1313.9,438.1c0,0-.2,0-.3.1-.1,0-.3.2-.5.3-.2.1-.4.3-.6.5-.2.2-.4.4-.7.7-.2.3-.5.5-.6.8-.2.2-.3.5-.5.7-.1.2-.2.4-.2.5,0,.1,0,.2,0,.3,0,0,0,0,0,0,0,0,0,0,0,0,0,0,0,0,0,0,0,0,0,0,0,0,0,0,.2,0,.3-.1.1,0,.3-.2.5-.3.2-.1.4-.3.6-.5.2-.2.4-.4.7-.7.2-.3.5-.5.7-.8.2-.2.3-.5.5-.7.1-.2.2-.4.2-.5,0-.1,0-.2,0-.3,0,0,0,0,0,0,0,0,0,0,0,0,0,0,0,0,0,0s0,0,0,0"/>
              <path class="cls-85" d="M1316,432.4c0,0-.2,0-.3.2-.1.1-.2.3-.3.5-.1.2-.2.4-.4.7-.1.3-.2.6-.3.9-.1.3-.2.6-.2.9,0,.3,0,.5-.1.7,0,.2,0,.4,0,.5,0,.1,0,.2.2.2,0,0,.2,0,.3-.2.1-.1.2-.3.3-.5.1-.2.2-.4.4-.7.1-.3.2-.6.3-.9.1-.3.2-.6.2-.9,0-.3,0-.5.1-.7,0-.2,0-.4,0-.5,0-.1,0-.2-.2-.2"/>
              <path class="cls-85" d="M1317.8,426.9c0,0-.2,0-.3.2-.1.1-.2.3-.3.5-.1.2-.2.4-.4.7-.1.3-.2.6-.3.9-.1.3-.2.6-.2.9,0,.3,0,.5-.1.7,0,.2,0,.4,0,.5,0,.1,0,.2.2.2,0,0,.2,0,.3-.2.1-.1.2-.3.3-.5.1-.2.2-.4.4-.7.1-.3.2-.6.3-.9.1-.3.2-.6.2-.9,0-.3,0-.5.1-.7,0-.2,0-.4,0-.5,0-.1,0-.2-.2-.2"/>
              <path class="cls-85" d="M1319.7,421.3c0,0-.2,0-.3.2-.1.1-.2.3-.3.5-.1.2-.2.4-.4.7-.1.3-.2.6-.3.9-.1.3-.2.6-.2.9,0,.3,0,.5-.1.7,0,.2,0,.4,0,.5,0,.1,0,.2.2.2,0,0,.2,0,.3-.2.1-.1.2-.3.4-.5.1-.2.2-.4.4-.7.1-.3.2-.6.3-.9.1-.3.2-.6.2-.9,0-.3,0-.5.1-.7,0-.2,0-.4,0-.5,0-.1,0-.2-.2-.2"/>
              <path class="cls-85" d="M1320.5,417.2c0,0,0,.1,0,.2,0,0,0,.1,0,.2,0,0,0,.1,0,.2,0,0,0,.1,0,.2-.1.3-.2.6-.2.9,0,.3,0,.5-.1.7,0,.2,0,.4,0,.5s0,.2.2.2c0,0,.2,0,.3-.2.1-.1.2-.3.3-.5s.2-.4.4-.7c.1-.3.2-.6.3-.9,0,0,0,0,0,0,0,0,0,0,0,0,0,0,0,0,0,0,0,0,0,0,0,0,0,0-.1-.1-.2-.2,0,0-.2,0-.2-.1,0,0-.2,0-.2-.1,0,0-.2,0-.3-.1"/>
              <path class="cls-85" d="M1301,441.2c-.3,0-.6,0-.9,0-.3,0-.6,0-.8,0-.2,0-.4,0-.6.1-.1,0-.2.1-.3.2,0,0,0,.1.1.2.1,0,.3.1.5.2.2,0,.4.1.7.2.3,0,.6,0,.9.1.3,0,.7,0,1,0,.3,0,.6,0,.8,0,.2,0,.4,0,.6-.1.1,0,.2-.1.3-.2,0,0,0-.2-.1-.2-.1,0-.3-.1-.5-.2-.2,0-.5-.1-.7-.2-.3,0-.6,0-.9-.1"/>
              <path class="cls-85" d="M1307,441.6c-.3,0-.7,0-1,0-.3,0-.6,0-.8,0-.2,0-.4,0-.6.1-.1,0-.2.1-.3.2,0,0,0,.1.1.2.1,0,.3.1.5.2.2,0,.5.1.7.2.3,0,.6,0,.9.1.3,0,.7,0,1,0,.3,0,.6,0,.8,0,.2,0,.4,0,.6-.1.1,0,.2-.1.3-.2,0,0,0-.2-.1-.2,0,0-.2-.1-.4-.2-.2,0-.4-.1-.7-.2-.3,0-.6,0-.9-.1"/>
              <path class="cls-85" d="M1295.1,440.7c-.3,0-.6,0-.9,0-.3,0-.6,0-.8,0-.2,0-.4,0-.6.1-.1,0-.2.1-.3.2,0,0,0,.1.1.2.1,0,.3.1.5.2s.5.1.7.2c.3,0,.6,0,.9.1.3,0,.7,0,1,0,.3,0,.6,0,.8,0,.2,0,.4,0,.6-.1.1,0,.2-.1.3-.2,0,0,0-.2-.1-.2-.1,0-.3-.1-.5-.2-.2,0-.4-.1-.7-.2s-.6,0-.9-.1"/>
              <path class="cls-85" d="M1257.3,457.7h0s0,0,0,0c0,0,0,0,0,0,0,0,0,0,0,0,0,0-.1.1-.2.2,0,.1,0,.3,0,.5,0,.2,0,.4,0,.7,0,.3,0,.5.1.8,0,.3.1.5.2.7,0,.2.2.4.3.6,0,.2.2.3.3.4,0,0,.2.1.3.2h0s0,0,0,0c0,0,0,0,0,0,0,0,.1-.1.2-.2,0-.1,0-.3,0-.5,0-.2,0-.4,0-.7,0-.3,0-.5-.1-.8,0-.3-.1-.5-.2-.7s-.2-.4-.3-.6c0-.2-.2-.3-.3-.4,0,0-.2-.1-.3-.2"/>
              <path class="cls-85" d="M1258.9,451.9c0,0-.2,0-.3.2-.1.1-.2.3-.3.5-.1.2-.2.4-.4.7-.1.3-.2.6-.3.9-.1.3-.2.6-.2.9,0,.3,0,.5,0,.7,0,.2,0,.4,0,.5,0,.1,0,.2.2.2,0,0,.2,0,.3-.2.1-.1.2-.3.3-.5.1-.2.2-.4.4-.7.1-.3.2-.5.3-.9,0-.3.2-.6.2-.9,0-.3,0-.5.1-.7s0-.4,0-.5c0-.1,0-.2-.2-.2"/>
              <path class="cls-85" d="M1260.7,446.4c0,0-.2,0-.3.2-.1.1-.2.3-.3.5-.1.2-.2.4-.4.7-.1.3-.2.6-.3.9,0,.3-.2.6-.2.9,0,.3,0,.5,0,.7,0,.2,0,.4,0,.5,0,.1,0,.2.2.2,0,0,.2,0,.3-.2.1-.1.2-.3.3-.5.1-.2.2-.4.4-.7.1-.3.2-.6.3-.9.1-.3.2-.6.2-.9,0-.3,0-.5.1-.7s0-.4,0-.5c0-.1,0-.2-.2-.2"/>
              <path class="cls-85" d="M1306.3,461c0,0-.2,0-.3.1-.1,0-.3.2-.5.3-.2.1-.4.3-.6.5-.2.2-.4.4-.7.7-.2.3-.5.5-.6.8-.2.2-.3.5-.5.7-.1.2-.2.4-.2.5,0,.1,0,.2,0,.3,0,0,0,0,0,0,0,0,0,0,0,0,0,0,0,0,0,0h0c0,0,.2,0,.3-.1.1,0,.3-.2.5-.3s.4-.3.6-.5c.2-.2.4-.4.7-.7.2-.3.5-.5.6-.8.2-.2.3-.5.5-.7.1-.2.2-.4.2-.5,0-.1,0-.2,0-.2,0,0,0,0,0,0,0,0,0,0,0,0,0,0,0,0,0,0,0,0,0,0,0,0"/>
              <path class="cls-85" d="M1308.3,455.3c0,0-.2,0-.3.2-.1.1-.2.3-.3.5-.1.2-.2.4-.4.7-.1.3-.2.6-.3.9-.1.3-.2.6-.2.9,0,.3,0,.5-.1.7,0,.2,0,.4,0,.5,0,.1,0,.2.2.2,0,0,.2,0,.3-.2.1-.1.2-.3.3-.5.1-.2.2-.4.4-.7.1-.3.2-.5.3-.8.1-.3.2-.6.2-.9,0-.3,0-.5.1-.7,0-.2,0-.4,0-.5,0-.1,0-.2-.2-.2"/>
              <path class="cls-85" d="M1310.2,449.9c0,0-.2,0-.3.2s-.2.3-.3.5c-.1.2-.2.4-.4.7-.1.3-.2.6-.3.9-.1.3-.2.6-.2.9,0,.3,0,.5-.1.7,0,.2,0,.4,0,.5,0,.1,0,.2.2.2,0,0,.2,0,.3-.2.1-.1.2-.3.3-.5.1-.2.2-.4.4-.7.1-.3.2-.5.3-.8.1-.3.2-.6.2-.9,0-.3,0-.5.1-.7,0-.2,0-.4,0-.5,0-.1,0-.2-.2-.2"/>
              <path class="cls-85" d="M1261.8,461.8c-.3,0-.7,0-1,0-.3,0-.6,0-.8,0-.2,0-.4,0-.6.1-.1,0-.2.1-.3.2,0,0,0,.1.1.2.1,0,.3.1.5.2.2,0,.5.1.7.2.3,0,.6,0,.9.1.3,0,.7,0,1,0,.3,0,.6,0,.8,0s.4,0,.6-.1c.1,0,.2-.1.3-.2,0,0,0-.2-.1-.2-.1,0-.3-.1-.5-.2-.2,0-.5-.1-.7-.2-.3,0-.6,0-.9-.1"/>
              <path class="cls-85" d="M1268.2,462.2c-.3,0-.7,0-1,0-.3,0-.6,0-.8,0-.2,0-.4,0-.6.1-.1,0-.2.1-.3.2,0,0,0,.1.1.2.1,0,.3.1.5.2.2,0,.5.1.7.2.3,0,.6,0,.9.1.3,0,.7,0,1,0,.3,0,.6,0,.8,0,.2,0,.4,0,.6-.1.1,0,.2-.1.3-.2,0,0,0-.2-.1-.2-.1,0-.3-.1-.5-.2-.2,0-.5-.1-.7-.2-.3,0-.6,0-.9-.1"/>
              <path class="cls-85" d="M1274.4,462.6c-.3,0-.7,0-.9,0-.3,0-.6,0-.8,0-.2,0-.4,0-.6.1-.1,0-.2.1-.3.2,0,0,0,.1.1.2.1,0,.3.1.5.2.2,0,.5.1.7.2.3,0,.6,0,.9.1.3,0,.7,0,1,0,.3,0,.6,0,.8,0,.2,0,.4,0,.6-.1.1,0,.2-.1.3-.2,0,0,0-.2-.1-.2-.1,0-.3-.1-.5-.2s-.5-.1-.7-.2c-.3,0-.6,0-.9-.1"/>
              <path class="cls-85" d="M1280.7,463c-.3,0-.7,0-1,0-.3,0-.6,0-.8,0-.2,0-.4,0-.6.1-.1,0-.2.1-.3.2,0,0,0,.1.1.2.1,0,.3.1.5.2.2,0,.4.1.7.2.3,0,.6,0,.9.1.3,0,.6,0,.9,0,.3,0,.6,0,.8,0,.2,0,.4,0,.6-.1.1,0,.2-.1.3-.2,0,0,0-.2-.1-.2-.1,0-.3-.1-.5-.2-.2,0-.5-.1-.7-.2-.3,0-.6,0-.9-.1"/>
              <path class="cls-85" d="M1287,463.4c-.3,0-.7,0-1,0-.3,0-.6,0-.8,0-.2,0-.4,0-.6.1-.1,0-.2.1-.3.2,0,0,0,.1.1.2.1,0,.3.1.5.2s.5.1.7.2c.3,0,.6,0,.9.1.3,0,.6,0,.9,0,.3,0,.6,0,.8,0,.2,0,.4,0,.6-.1.1,0,.2-.1.3-.2,0,0,0-.2-.1-.2-.1,0-.3-.1-.5-.2-.2,0-.4-.1-.7-.2-.3,0-.6,0-.9-.1"/>
              <path class="cls-85" d="M1293.2,463.8c-.3,0-.7,0-1,0-.3,0-.6,0-.8,0-.2,0-.4,0-.6.1-.1,0-.2.1-.3.2,0,0,0,.1.1.2.1,0,.3.1.5.2.2,0,.5.1.7.2.3,0,.6,0,.9.1.3,0,.6,0,.9,0,.3,0,.6,0,.8,0,.2,0,.4,0,.6-.1.1,0,.2-.1.3-.2,0,0,0-.2-.1-.2-.1,0-.3-.1-.5-.2-.2,0-.4-.1-.7-.2-.3,0-.6,0-.9-.1"/>
              <path class="cls-85" d="M1299.4,464.2c-.3,0-.7,0-1,0-.3,0-.6,0-.8,0-.2,0-.4,0-.6.1-.1,0-.2.1-.3.2,0,0,0,.1.1.2.1,0,.3.1.5.2.2,0,.4.1.7.2.3,0,.6,0,.9.1.3,0,.7,0,.9,0,.3,0,.6,0,.8,0,.2,0,.4,0,.6-.1.1,0,.2-.1.3-.2,0,0,0-.2-.1-.2,0,0-.3-.1-.5-.2-.2,0-.4-.1-.7-.2-.3,0-.6,0-.9-.1"/>
              <path class="cls-85" d="M1288.6,448.5l-6.7-.5-.2.6c-.2.5-.2,1.1-.2,1.5,0,.5.1.9.3,1.3.2.4.5.7.8.9.3.2.7.4,1.2.4.5,0,.9,0,1.4-.2.5-.2.9-.4,1.3-.8s.8-.7,1.1-1.2c.3-.5.6-1,.8-1.5l.2-.6M1287.6,441c-.5,0-.9,0-1.4.2-.5.2-.9.4-1.3.8-.4.3-.8.7-1.1,1.2-.3.5-.6,1-.8,1.5l-.2.5,6.7.5.2-.5c.2-.5.3-1.1.2-1.5,0-.5-.1-.9-.3-1.3-.2-.4-.5-.7-.8-.9-.3-.2-.7-.4-1.2-.4"/>
              <path class="cls-85" d="M1267.8,414.6c-.3.2-.6.4-.8.7-.3.2-.5.5-.7.8-.2.3-.4.6-.6.9-.2.3-.3.6-.4,1l-7.5,23.3c0,.2.1.3.2.5,0,.2.1.3.2.5,0,.2.1.3.2.4,0,.1.2.3.3.4.4.6.8,1.1,1.3,1.5.5.4,1,.8,1.6,1.2.6.3,1.2.6,1.9.8.7.2,1.4.3,2.2.4l16.2,1.1,6.7.5,15.4,1.1c.9,0,1.9,0,2.9-.1,1-.1,1.9-.4,2.9-.7.9-.3,1.9-.7,2.7-1.2.9-.5,1.7-1,2.5-1.7l7.9-23.5c0-.2.1-.4.2-.6,0-.2,0-.4,0-.6,0-.2,0-.4,0-.6,0-.2,0-.4,0-.6l-6.5,19.5c-.4,1.1-1,2-1.7,2.9-.8.9-1.7,1.7-2.8,2.4-1.1.7-2.2,1.2-3.4,1.5s-2.4.5-3.6.4l-15.4-1.1-6.7-.5-16.2-1.1c-1.1,0-2.2-.4-3-.8-.8-.5-1.5-1.1-2-1.9-.5-.8-.8-1.7-.9-2.6,0-1,0-2.1.4-3.2l6.7-20.8"/>
              <path class="cls-85" d="M1271.9,413.3c0,0,.1,0,.2,0s.1,0,.2,0c0,0,.1,0,.2,0,0,0,.1,0,.2,0l46.4,3.6c.1,0,.3,0,.4,0,.1,0,.3,0,.4,0,.1,0,.2,0,.4,0,.1,0,.2,0,.3.1,0,0,.2,0,.3.1,0,0,.2,0,.2.1,0,0,.2,0,.2.1,0,0,.2,0,.2.2.2.1.4.3.5.5.2.2.3.3.4.5.1.2.2.4.3.6,0,.2.2.4.2.7,0,.2,0,.4,0,.6,0,.2,0,.4,0,.6,0,.2,0,.4,0,.6,0,.2,0,.4-.2.6l-7.9,23.5-6.3,18.7c-.2.7-.6,1.3-1.1,1.9-.5.6-1.1,1.1-1.7,1.5-.6.4-1.4.8-2.1,1-.7.2-1.5.3-2.2.3l-46-3c-.8,0-1.5-.2-2.1-.5-.6-.3-1.1-.7-1.4-1.2-.4-.5-.6-1.1-.7-1.7,0-.6,0-1.3.2-2l6.2-19.5,7.5-23.3c.1-.3.2-.7.4-1,.2-.3.4-.6.6-.9.2-.3.5-.5.7-.8.3-.2.5-.5.8-.7.2-.2.4-.3.7-.4.2-.1.5-.2.7-.4.2-.1.5-.2.8-.3.3,0,.5-.1.8-.2,0,0,.2,0,.3,0,0,0,.2,0,.3,0,0,0,.2,0,.3,0,0,0,.2,0,.3,0M1286.6,410.2l.7-2.1c.2-.7.6-1.4,1.1-2,.5-.6,1.1-1.1,1.7-1.5.7-.4,1.4-.8,2.1-1,.7-.2,1.5-.3,2.3-.2l10.2.8c.8,0,1.4.3,2,.6.6.3,1,.7,1.4,1.2.3.5.6,1.1.6,1.7,0,.6,0,1.3-.2,2l-.7,2.1-21.2-1.7M1306,400.1l-10.2-.8c-1.4-.1-2.8,0-4.1.4-1.3.4-2.6,1-3.8,1.7-1.2.8-2.2,1.7-3.1,2.8s-1.5,2.3-2,3.5l-.7,2.1-8.3-.7c-1.4-.1-2.8,0-4.1.4-1.4.4-2.7,1-3.8,1.7-1.2.8-2.2,1.7-3.1,2.8-.9,1.1-1.5,2.3-1.9,3.5l-13.7,42.9c-.4,1.3-.5,2.5-.3,3.6.2,1.1.6,2.1,1.2,3,.6.9,1.5,1.6,2.5,2.1,1,.5,2.3.9,3.6,1l46,2.9c1.3,0,2.7,0,4-.5,1.3-.4,2.6-1,3.7-1.7,1.1-.8,2.2-1.7,3-2.7.8-1,1.5-2.2,1.9-3.4l14.2-42.2c.4-1.2.5-2.5.4-3.6s-.5-2.2-1.1-3c-.6-.9-1.4-1.6-2.5-2.2-1-.6-2.2-.9-3.6-1l-8.2-.6.7-2.1c.4-1.3.5-2.5.4-3.6-.1-1.1-.5-2.2-1.1-3.1-.6-.9-1.5-1.7-2.5-2.2-1-.6-2.2-.9-3.6-1"/>
            </g>
          </g>
        </g>
        <g>
          <g>
            <path class="cls-85" d="M1068.6,238.9l-49.2-19.7c-6-2.4-8.9-9.1-6.4-14.8l20.7-46.9c2.5-5.8,9.5-8.5,15.6-6l49.2,19.7c6.1,2.4,8.9,9.1,6.4,14.8l-20.7,46.9c-2.5,5.7-9.5,8.5-15.6,6h0ZM1046.9,156.7c-3-1.2-6.5.1-7.8,3l-20.7,46.9c-1.3,2.9.2,6.2,3.2,7.4l49.2,19.7c3,1.2,6.5-.2,7.8-3l20.7-46.9c1.3-2.9-.2-6.2-3.2-7.4l-49.2-19.7h0Z"/>
            <polygon class="cls-85" points="1047 177.1 1080.9 190.6 1081.8 188.6 1047.9 175.1 1047 177.1"/>
            <path class="cls-85" d="M1059,181.4l10.2,4.1c2.5-.7,4.6-2.4,5.7-4.8,1.9-4.3-.2-9.2-4.7-11-4.5-1.8-9.7.2-11.5,4.5-1.1,2.4-.8,5.1.4,7.2Z"/>
            <path class="cls-85" d="M1097,171.9l-47.2-18.8c-5.9-2.4-12.7.2-15.1,5.8l-5.2,11.8c-2.5,5.8.2,12.8,5.9,15.1l47.2,18.8c5.6,2.2,12.3-.8,14.9-6.8l5.2-11.8c2.5-5.7,0-11.8-5.7-14.1ZM1048.2,156.8l47.2,18.8c3.6,1.4,5,5.1,3.4,8.8l-5.2,11.8c-1.7,3.9-5.9,6-9.3,4.6l-47.2-18.8c-3.5-1.4-5.2-6.1-3.6-9.8l5.2-11.8c1.6-3.5,5.7-5.1,9.5-3.6Z"/>
          </g>
          <path class="cls-85" d="M1057.1,217.4c-1,0-2.2-.2-3.6-.8-2.9-1.1-4.4-3.8-2.9-7.1,1.3-3,4.2-4.3,7.3-3,1.5.6,2.5,1.3,3,1.9l2.8-3.8c-1-.9-2.6-1.9-4.2-2.5,0,0,0,0,0,0l1.3-3-4.3-1.7-1.6,3.7c-4.9-.3-8.6,2.3-10.4,6.3-2,4.5-.8,8.6,2.6,11.3l-1.6,3.6,4.3,1.7,1.4-3.2c2,.7,3.7,1,4.8,1l1.1-4.4Z"/>
        </g>
        <g>
          <path class="cls-85" d="M1008.3,507.2l-4.4,1.2v1.4c-.1,0,4.3-1.2,4.3-1.2v-1.4M1008.8,502.7l-4.4,1.1-.3,3.1,4.4-1.1.3-3.1M1009.1,499.9l-4.4,1.1-.2,1.4,4.4-1.1.2-1.4M1009.6,495l-4.4,1.1-.4,3.5,4.4-1.1.4-3.5M1010,492.2l-4.4,1.1v1.4c-.1,0,4.3-1.1,4.3-1.1l.2-1.4M1010.4,487.7l-4.4,1.1-.4,3.5,4.4-1.1.4-3.5M1010.8,484.9l-4.4,1.1-.2,1.4,4.4-1.1.2-1.4M1011.3,480l-4.4,1.1-.4,3.5,4.4-1.1.4-3.5M1011.6,477.5l-4.4,1.1-.2,1.4,4.4-1.1.2-1.4M1004.2,466.4l-40.5,10c-1.3.3-2.5.9-3.6,1.6-1.1.7-2.2,1.7-3.1,2.7-.9,1-1.7,2.2-2.2,3.4-.6,1.2-.9,2.5-1.1,3.8l-3.8,41.1c-.1,1.2,0,2.4.4,3.3.4,1,.9,1.8,1.7,2.4.7.6,1.7,1,2.7,1.2,1,.2,2.2.1,3.4-.2l39.8-10.6c1.2-.3,2.4-.9,3.5-1.6s2.1-1.6,3-2.6c.9-1,1.6-2.1,2.2-3.3.6-1.2.9-2.4,1.1-3.6l.4-4-4.4,1.2-.4,4c0,.6-.2,1.2-.5,1.8-.3.6-.6,1.2-1.1,1.7-.4.5-.9,1-1.5,1.3s-1.1.6-1.7.8l-39.9,10.5c-.6.2-1.2.2-1.7.1-.5,0-1-.3-1.3-.6-.4-.3-.6-.7-.8-1.2-.2-.5-.2-1-.2-1.7l3.9-41c0-.6.2-1.3.5-1.9.3-.6.7-1.2,1.1-1.7.5-.5,1-1,1.5-1.3.6-.4,1.2-.6,1.8-.8l40.4-10c.6-.2,1.2-.2,1.7,0,.5,0,.9.3,1.3.6.4.3.6.7.8,1.2s.2,1.1.2,1.7l-.3,2.7,4.4-1.1.3-2.7c.1-1.3,0-2.4-.3-3.4-.3-1-.9-1.8-1.6-2.4-.7-.6-1.6-1.1-2.6-1.3-1-.2-2.1-.2-3.4.1"/>
          <polyline class="cls-85" points="1013.1 504.6 1008.5 505.8 1004.1 506.9 1002.9 507.2 999.7 508.1 999.2 508.2 998.7 512.3 999.2 512.2 1002.5 511.3 1003.6 511.1 1008 509.9 1012.6 508.7 1012.8 507.3 1008.2 508.5 1003.8 509.7 1002.6 510 1002.7 508.6 1003.9 508.3 1008.3 507.2 1012.9 506 1013.1 504.6"/>
          <polyline class="cls-85" points="1013.9 497.3 1009.3 498.5 1004.8 499.6 1003.7 499.9 1000.4 500.8 999.9 500.9 999.5 505.1 1000 504.9 1003.3 504.1 1004.4 503.8 1008.8 502.7 1013.4 501.5 1013.6 500.1 1009 501.3 1004.5 502.4 1003.4 502.7 1003.5 501.3 1004.7 501 1009.1 499.9 1013.7 498.7 1013.9 497.3"/>
          <polyline class="cls-85" points="1014.7 490 1010.1 491.2 1005.6 492.3 1004.5 492.6 1001.2 493.4 1000.7 493.6 1000.3 497.4 1000.8 497.3 1004.1 496.4 1005.2 496.1 1009.6 495 1014.2 493.8 1014.4 492.4 1009.8 493.6 1005.4 494.8 1004.2 495.1 1004.4 493.7 1005.5 493.4 1010 492.2 1014.6 491.1 1014.7 490"/>
          <polyline class="cls-85" points="1015.5 482.3 1010.9 483.5 1006.5 484.6 1005.3 484.9 1002 485.7 1001.5 485.9 1001.1 490.1 1001.6 489.9 1004.9 489.1 1006 488.8 1010.4 487.7 1015.1 486.5 1015.2 485.1 1010.6 486.3 1006.2 487.4 1005 487.7 1005.1 486.3 1006.3 486 1010.8 484.9 1015.4 483.7 1015.5 482.3"/>
          <polyline class="cls-85" points="1016.3 475 1011.7 476.1 1007.3 477.2 1006.1 477.5 1002.8 478.4 1002.3 478.5 1001.9 482.3 1002.4 482.2 1005.7 481.4 1006.8 481.1 1011.3 480 1015.9 478.8 1016 477.8 1011.4 478.9 1007 480 1005.8 480.3 1005.9 478.9 1007.1 478.6 1011.6 477.5 1016.2 476.4 1016.3 475"/>
          <polyline class="cls-85" points="991.3 512.1 963.2 519.5 963.1 521.2 991.2 513.9 991.3 512.1"/>
          <polyline class="cls-85" points="992.1 504.5 964 511.8 963.8 513.5 992 506.2 992.1 504.5"/>
          <polyline class="cls-85" points="992.9 496.8 964.7 504 964.5 505.8 992.8 498.5 992.9 496.8"/>
          <polyline class="cls-85" points="993.8 489.1 965.5 496.3 965.3 498 993.6 490.8 993.8 489.1"/>
          <polyline class="cls-85" points="994.6 481.3 966.2 488.4 966 490.2 994.4 483.1 994.6 481.3"/>
        </g>
        <g class="cls-88">
          <g class="cls-113">
            <g>
              <path class="cls-85" d="M783.3,818c-.6,0-1.2,0-1.6-.3-.5-.3-.8-.8-1.1-1.4-.3-.6-.5-1.4-.6-2.3-.1-.9-.1-1.9,0-3.1,0-1.1.2-2.1.4-3,.2-.9.5-1.8.8-2.5.3-.7.8-1.3,1.3-1.8s1.1-.7,1.7-.8h0c.7-.1,1.2,0,1.7.3.4.3.8.8,1.1,1.4.3.6.4,1.4.5,2.3,0,.9,0,1.9,0,3,0,1.2-.2,2.3-.4,3.3-.2,1-.5,1.8-.8,2.5-.3.7-.8,1.3-1.2,1.7-.5.4-1,.7-1.7.8M784.5,797.3h0c-1.6.2-3.1.8-4.4,1.6-1.3.8-2.5,1.9-3.5,3.2-1,1.3-1.8,2.8-2.3,4.5-.6,1.7-.9,3.5-1,5.4-.1,2,0,3.8.5,5.3.4,1.5,1.1,2.8,1.9,3.7.9,1,1.9,1.7,3.1,2.1,1.2.4,2.5.5,3.9.3,1.4-.2,2.7-.7,4-1.4,1.3-.8,2.4-1.8,3.5-3.1,1-1.3,1.9-2.8,2.5-4.6.6-1.8,1.1-3.8,1.2-6,.1-1.8,0-3.5-.4-4.9-.4-1.4-.9-2.7-1.7-3.7-.8-1-1.8-1.7-3-2.2-1.2-.4-2.6-.6-4.2-.3M784.8,779.9l-4.7.7-24,46.8,4.7-.7,24-46.8M757.2,804.3c-.6,0-1.2,0-1.7-.3-.5-.3-.8-.8-1.1-1.4-.3-.6-.5-1.4-.6-2.3-.1-.9-.1-1.9,0-3,0-1.1.2-2.1.4-3,.2-.9.5-1.8.8-2.5.3-.7.8-1.4,1.3-1.8.5-.5,1.1-.7,1.7-.8h0c.7-.1,1.2,0,1.7.3.5.3.8.8,1.1,1.4.3.6.4,1.4.5,2.3,0,.9,0,1.9,0,3,0,1.2-.2,2.3-.4,3.3-.2,1-.5,1.8-.8,2.5-.3.7-.8,1.3-1.2,1.7-.5.4-1,.7-1.6.8M758.5,783.6h0c-1.6.2-3.1.8-4.4,1.6-1.3.8-2.5,2-3.5,3.3s-1.8,2.8-2.3,4.5c-.6,1.7-.9,3.5-1,5.4-.1,2,0,3.7.5,5.2.4,1.5,1.1,2.7,1.9,3.7.9,1,1.9,1.7,3.1,2.1,1.2.4,2.5.5,4,.3,1.4-.2,2.7-.7,4-1.4,1.3-.7,2.4-1.8,3.5-3,1-1.3,1.9-2.8,2.5-4.5.6-1.7,1.1-3.7,1.2-5.9.1-1.8,0-3.5-.4-5-.4-1.5-.9-2.7-1.7-3.7-.8-1-1.8-1.7-3-2.2-1.2-.4-2.6-.6-4.2-.3"/>
              <path class="cls-85" d="M746,838.4c-.7.1-1.4,0-2-.2-.6-.2-1.1-.6-1.6-1-.4-.5-.8-1-1-1.7-.2-.7-.3-1.4-.3-2.2l2.9-51.2c0-.8.2-1.6.5-2.4.3-.7.7-1.4,1.2-2,.5-.6,1.1-1.1,1.7-1.5s1.3-.7,2.1-.8l45.5-6.6c.7-.1,1.4,0,2,.2.6.2,1.2.6,1.6,1,.4.5.8,1,1,1.7.2.7.3,1.4.3,2.3l-2.8,51.4c0,.8-.2,1.6-.5,2.4s-.7,1.4-1.2,2c-.5.6-1.1,1.1-1.7,1.5-.6.4-1.3.6-2.1.8l-45.6,6.5M795.4,763.4l-45.5,6.6c-1.4.2-2.7.7-3.9,1.4-1.2.7-2.3,1.7-3.3,2.9-1,1.1-1.8,2.5-2.3,3.9-.6,1.4-.9,2.9-1,4.5l-2.9,51.2c0,1.5.1,3,.5,4.3.4,1.3,1.1,2.4,1.9,3.3.8.9,1.9,1.6,3,2,1.2.4,2.4.5,3.8.3l45.6-6.5c1.4-.2,2.7-.7,3.9-1.4,1.2-.7,2.4-1.7,3.3-2.9,1-1.1,1.8-2.5,2.3-3.9.6-1.4.9-2.9,1-4.5l2.8-51.4c0-1.5-.1-3-.5-4.3-.4-1.3-1.1-2.4-1.9-3.3-.8-.9-1.9-1.6-3-2-1.2-.4-2.5-.5-3.8-.3"/>
            </g>
          </g>
        </g>
        <g class="cls-88">
          <g class="cls-24">
            <g>
              <path class="cls-85" d="M708.8,76.6c-.2,0-.5,0-.7.1-.2,0-.4.2-.6.4-.2.2-.3.4-.4.7-.1.3-.2.5-.2.8l-1.4,23.4s0,0,.1,0c0,0,0,0,.1,0,0,0,0,0,.1,0,0,0,0,0,.1,0l3.1-1.5,1.3-21.5c0-.3,0-.6,0-.8,0-.3-.2-.5-.3-.7-.1-.2-.3-.4-.5-.5-.2-.1-.4-.2-.7-.2"/>
              <path class="cls-85" d="M721.4,94.7c-.1,0-.2,0-.3,0-.1,0-.2,0-.3,0-.1,0-.2,0-.3,0-.1,0-.2,0-.3.1l-11,5.3-3.1,1.5s0,0-.1,0c0,0,0,0-.1,0,0,0,0,0-.1,0,0,0,0,0-.1,0-.4.2-.7.6-.9.9-.3.4-.5.8-.6,1.2s-.2.9-.2,1.4c0,.5,0,1,.2,1.4.1.4.3.7.5,1s.4.6.7.8c.3.2.5.4.8.5.3.1.6.2.9.2.1,0,.2,0,.3,0,.1,0,.2,0,.3,0,.1,0,.2,0,.3,0,.1,0,.2,0,.3-.1l14.1-6.8c.4-.2.8-.5,1.1-.9.3-.4.6-.8.7-1.3.2-.5.3-1,.3-1.5,0-.5,0-1-.2-1.5-.1-.4-.3-.7-.4-1-.2-.3-.4-.6-.6-.8-.2-.2-.5-.4-.8-.5-.3-.1-.6-.2-.9-.2"/>
              <path class="cls-85" d="M705.6,134.4c-3.5,0-6.8-1-9.8-2.7-3-1.6-5.6-4-7.8-6.9-2.2-2.9-3.9-6.3-4.9-10.1-1.1-3.8-1.6-7.9-1.3-12.3.3-4.3,1.2-8.4,2.8-12.1,1.5-3.7,3.6-7,6.1-9.7,2.5-2.7,5.4-4.9,8.6-6.3,3.1-1.4,6.5-2.2,10.1-2,3.5.2,6.8,1.2,9.7,2.9,2.9,1.7,5.5,4.1,7.6,7,2.1,2.9,3.7,6.3,4.8,10,1,3.7,1.5,7.8,1.2,12-.3,4.2-1.2,8.3-2.7,11.9-1.5,3.6-3.5,6.9-6,9.6-2.4,2.7-5.3,4.9-8.4,6.4-3.1,1.5-6.5,2.3-10,2.2M709.8,65c-4.3-.2-8.5.7-12.4,2.4-3.9,1.8-7.5,4.5-10.6,7.8-3.1,3.4-5.7,7.5-7.6,12-1.9,4.6-3.1,9.7-3.4,15-.3,5.4.3,10.5,1.6,15.2,1.3,4.7,3.4,8.9,6.1,12.5,2.7,3.6,5.9,6.5,9.6,8.5,3.7,2,7.7,3.2,12.1,3.3,4.3,0,8.5-.9,12.3-2.8,3.8-1.9,7.3-4.6,10.3-8,3-3.4,5.5-7.4,7.3-11.9,1.8-4.5,3-9.4,3.3-14.7.3-5.2-.2-10.2-1.5-14.8-1.3-4.6-3.3-8.8-5.9-12.4-2.6-3.6-5.8-6.5-9.3-8.6-3.6-2.1-7.6-3.4-12-3.6"/>
            </g>
          </g>
        </g>
        <g class="cls-88">
          <g class="cls-120">
            <path class="cls-85" d="M408.7,361.4s0,0-.1,0c-2-1.4-2.4-4.2-.9-6.2,1.4-2,4.1-2.4,6-1.1,0,0,0,0,.1,0,1.9,1.4,2.4,4.2.9,6.2-1.4,2-4.1,2.5-6,1.1M380.5,340.7s0,0-.1,0c-2-1.5-2.4-4.2-.9-6.3,1.4-2,4.1-2.4,6-1.1,0,0,0,0,0,0,1.9,1.4,2.4,4.2.9,6.2-1.4,2-4.1,2.5-6,1.1M398.1,317.6l-12.6-9.4,20.6-1.8-8,11.2M397.1,324.3c1.3.9,3.1.6,4-.7l11-15.4,31.6,23.4-20.8,29.1-3.1-2.2c.2-3-1-6-3.5-7.9,0,0-.1,0-.2-.1-2.5-1.7-5.6-1.9-8.2-.8l-16.2-12c.2-3-1-6-3.5-7.9,0,0-.2-.1-.2-.2-2.5-1.7-5.5-1.9-8.2-.8l-8.5-6.3,8.1-11.3,17.6,13s0,0,0,0M411.9,300.6c-.5-.4-1.2-.5-1.8-.5l-30.6,2.7c-.9,0-1.6.5-2.1,1.2l-12.4,17.3c-1,1.3-.7,3.2.6,4.1l9.8,7.3c-2.1,3.9-1.1,8.7,2.5,11.3,0,0,.1.1.2.2,3.5,2.4,8.2,1.8,11.2-1.3l14.3,10.5c-2,3.9-1.1,8.7,2.5,11.4,0,0,.1.1.2.2,3.5,2.4,8.2,1.8,11.2-1.3l4.4,3.3s0,0,0,0c1.3.9,3,.5,4-.8l24.3-33.9c.9-1.3.7-3.2-.6-4.1l-37.5-27.7s0,0,0,0"/>
          </g>
        </g>
        <g class="cls-88">
          <g class="cls-29">
            <path class="cls-85" d="M542.4,539.4l14.5-40,42.9,23.5-14.5,40-42.9-23.5M603.8,518.2l-46.8-25.6c-1.1-.6-2.4.2-3,1.8l-16.6,45.8c-.6,1.6-.2,3.3.9,3.9l21.4,11.7-2.1,5.7-9.8-5.3c-1.1-.6-2.4.2-3,1.8-.6,1.6-.2,3.3.9,3.9l23.4,12.8c1.1.6,2.4-.2,3-1.8.6-1.6.2-3.3-.9-3.9l-9.7-5.3,2.1-5.7,21.4,11.7c1.1.6,2.4-.2,3-1.8l16.6-45.8c.6-1.5.2-3.3-.9-3.9"/>
          </g>
        </g>
      </g>
      <polygon class="cls-7" points="920.2 186 811.4 149 726.8 203.3 731.8 317 840.6 353.9 925.2 299.6 920.2 186"/>
      <polygon class="cls-7" points="747.9 511.9 656.5 576.6 613.8 642.8 707.8 735.8 799.2 671.1 841.9 604.9 747.9 511.9"/>
      <polygon class="cls-7" points="1187.2 492.4 1091 542.5 1056.1 629.1 1148.5 714 1244.7 663.9 1279.6 577.3 1187.2 492.4"/>
      <polygon class="cls-7" points="761.8 460.3 741.4 390 608.1 423.6 625.8 494.4 638.8 501.9 633 519.5 651.7 584 656.5 576.6 678.8 561.4 674.7 481.5 761.8 460.3"/>
      <polygon class="cls-7" points="662.6 181.1 540.9 221.1 490.5 245.3 542.2 367.9 660.9 327.9 711.3 303.7 662.6 181.1"/>
      <polygon class="cls-7" points="380.7 574.9 264.7 589.5 252.5 712.5 326.1 756 442.1 741.4 454.3 618.4 380.7 574.9"/>
    </g>
  </g>
</svg>