<svg xmlns="http://www.w3.org/2000/svg" xmlns:xlink="http://www.w3.org/1999/xlink" width="73" zoomAndPan="magnify" viewBox="0 0 54.75 90.75" height="121" preserveAspectRatio="xMidYMid meet" version="1.0"><defs><filter x="0%" y="0%" width="100%" height="100%" id="3f1248a14c"><feColorMatrix values="0 0 0 0 1 0 0 0 0 1 0 0 0 0 1 0 0 0 1 0" color-interpolation-filters="sRGB"/></filter><mask id="956911d260"><g filter="url(#3f1248a14c)"><rect x="-5.475" width="65.7" fill="#000000" y="-9.075" height="108.9" fill-opacity="0.1"/></g></mask><clipPath id="b5835ba809"><path d="M 15.964844 1.242188 L 28.890625 1.242188 L 28.890625 6.0625 L 15.964844 6.0625 Z M 15.964844 1.242188 " clip-rule="nonzero"/></clipPath><clipPath id="a747482d19"><path d="M 15.992188 3.449219 C 17.210938 1.683594 19.417969 0.863281 21.492188 1.410156 L 28.089844 3.136719 C 28.980469 3.371094 29.109375 4.578125 28.285156 4.992188 L 26.835938 5.722656 C 26.230469 6.027344 25.527344 6.097656 24.875 5.914062 Z M 15.992188 3.449219 " clip-rule="nonzero"/></clipPath><clipPath id="d3257ee8b2"><path d="M 32.480469 20.425781 L 47.5625 20.425781 L 47.5625 41.660156 L 32.480469 41.660156 Z M 32.480469 20.425781 " clip-rule="nonzero"/></clipPath><clipPath id="48b736c8d6"><path d="M 33.988281 21.078125 C 35.335938 20.429688 36.566406 20.269531 37.535156 20.835938 C 38.882812 21.628906 39.964844 22.824219 40.644531 24.253906 L 47.125 37.890625 C 47.605469 38.902344 47.570312 40.085938 47.039062 41.070312 C 46.679688 41.738281 45.71875 41.726562 45.371094 41.054688 L 38.695312 28.101562 C 37.609375 25.996094 35.738281 24.382812 33.496094 23.621094 L 33.324219 23.5625 C 32.386719 23.242188 32.292969 21.953125 33.175781 21.5 Z M 33.988281 21.078125 " clip-rule="nonzero"/></clipPath><clipPath id="af541db22f"><path d="M 8.785156 12.21875 L 53.410156 12.21875 L 53.410156 31.195312 L 8.785156 31.195312 Z M 8.785156 12.21875 " clip-rule="nonzero"/></clipPath><clipPath id="be4076df8f"><path d="M 9.144531 13.375 C 9.785156 12.441406 10.96875 12.039062 12.046875 12.386719 L 25.082031 16.601562 C 25.726562 16.808594 26.433594 16.761719 27.042969 16.46875 L 34.71875 12.777344 C 35.328125 12.484375 36.03125 12.425781 36.683594 12.617188 L 38.453125 13.132812 C 41.394531 13.988281 43.800781 16.15625 44.960938 18.996094 L 46.125 21.839844 C 46.363281 22.421875 46.949219 22.796875 47.578125 22.765625 L 50.917969 22.605469 C 51.539062 22.574219 52.113281 22.964844 52.320312 23.554688 L 52.898438 25.214844 C 53.578125 27.171875 53.402344 29.339844 52.414062 31.160156 L 50.617188 26.445312 C 50.394531 25.855469 49.816406 25.46875 49.183594 25.492188 L 45.464844 25.617188 C 44.828125 25.636719 44.238281 25.269531 43.980469 24.683594 L 42.527344 21.402344 C 41.578125 19.257812 39.734375 17.621094 37.492188 16.929688 L 35.726562 16.386719 L 26.785156 20.558594 C 26.171875 20.84375 25.464844 20.882812 24.824219 20.664062 L 9.867188 15.566406 C 8.957031 15.253906 8.597656 14.164062 9.144531 13.375 " clip-rule="nonzero"/></clipPath><clipPath id="9e2e046095"><path d="M 12.890625 5.035156 L 50.433594 5.035156 L 50.433594 20.320312 L 12.890625 20.320312 Z M 12.890625 5.035156 " clip-rule="nonzero"/></clipPath><clipPath id="ef30d538d2"><path d="M 50.296875 17.746094 C 50.765625 19.085938 49.84375 20.761719 48.589844 20.097656 C 48.28125 19.9375 48.03125 19.664062 47.902344 19.324219 L 46.230469 14.933594 C 45.402344 12.761719 43.582031 11.105469 41.347656 10.484375 L 36.296875 9.082031 C 35.640625 8.902344 34.9375 8.960938 34.324219 9.25 L 26.6875 12.855469 C 26.074219 13.144531 25.371094 13.195312 24.722656 12.996094 L 13.855469 9.648438 C 12.980469 9.378906 12.617188 8.335938 13.140625 7.582031 C 13.765625 6.675781 14.910156 6.269531 15.964844 6.578125 L 24.546875 9.078125 C 25.199219 9.269531 25.902344 9.210938 26.515625 8.914062 L 33.867188 5.359375 C 34.480469 5.0625 35.183594 4.996094 35.84375 5.167969 L 42.226562 6.839844 C 45.160156 7.605469 47.53125 9.800781 48.527344 12.664062 Z M 50.296875 17.746094 " clip-rule="nonzero"/></clipPath><clipPath id="991d34792e"><path d="M 45.40625 27.914062 L 50.640625 27.914062 L 50.640625 35.8125 L 45.40625 35.8125 Z M 45.40625 27.914062 " clip-rule="nonzero"/></clipPath><clipPath id="ae9b1a34d4"><path d="M 47.535156 27.925781 C 48.167969 27.898438 48.75 28.269531 48.988281 28.855469 L 50.34375 32.167969 C 50.757812 33.179688 50.695312 34.332031 50.171875 35.292969 C 49.835938 35.914062 48.933594 35.878906 48.648438 35.230469 L 45.457031 28.023438 Z M 47.535156 27.925781 " clip-rule="nonzero"/></clipPath><clipPath id="244c7f141f"><path d="M 1.195312 23.808594 L 8.992188 23.808594 L 8.992188 30.476562 L 1.195312 30.476562 Z M 1.195312 23.808594 " clip-rule="nonzero"/></clipPath><clipPath id="f919d6aee2"><path d="M 1.742188 24.097656 L 1.902344 23.867188 L 7.523438 26.078125 C 8.132812 26.316406 8.578125 26.859375 8.703125 27.503906 L 8.929688 28.707031 C 9.140625 29.824219 8.027344 30.730469 6.980469 30.292969 L 3.097656 28.6875 C 1.285156 27.9375 0.628906 25.710938 1.742188 24.097656 " clip-rule="nonzero"/></clipPath><clipPath id="b18ce7d7de"><path d="M 4.683594 18.167969 L 34.429688 18.167969 L 34.429688 46.480469 L 4.683594 46.480469 Z M 4.683594 18.167969 " clip-rule="nonzero"/></clipPath><clipPath id="852dcf96f6"><path d="M 5.011719 19.359375 C 5.671875 18.402344 6.898438 18.007812 7.996094 18.398438 L 14.199219 20.613281 C 14.816406 20.832031 15.277344 21.363281 15.40625 22.003906 L 16.789062 28.769531 C 16.921875 29.414062 17.371094 29.953125 17.984375 30.195312 L 27.167969 33.808594 C 29.535156 34.738281 31.558594 36.390625 32.941406 38.519531 L 34.003906 40.15625 C 34.375 40.726562 34.511719 41.417969 34.382812 42.082031 L 33.566406 46.382812 L 30.605469 42.210938 C 29.210938 40.242188 27.277344 38.703125 25.046875 37.777344 L 14.140625 33.261719 C 13.535156 33.007812 13.09375 32.464844 12.980469 31.816406 L 11.734375 24.90625 C 11.621094 24.261719 11.171875 23.722656 10.558594 23.492188 L 5.738281 21.679688 C 4.800781 21.328125 4.441406 20.1875 5.011719 19.359375 " clip-rule="nonzero"/></clipPath><clipPath id="4395dfd4ff"><path d="M 41.714844 43.195312 L 44.277344 43.195312 L 44.277344 47.609375 L 41.714844 47.609375 Z M 41.714844 43.195312 " clip-rule="nonzero"/></clipPath><clipPath id="c787b73fab"><path d="M 43.796875 43.804688 C 44.347656 44.804688 44.355469 46.023438 43.808594 47.027344 C 43.414062 47.753906 42.328125 47.816406 42.011719 47.050781 C 41.808594 46.5625 41.742188 46.015625 41.828125 45.484375 L 42.0625 44.050781 C 42.203125 43.191406 43.347656 42.992188 43.765625 43.753906 Z M 43.796875 43.804688 " clip-rule="nonzero"/></clipPath><clipPath id="4d0b7304d0"><path d="M 19.453125 23.089844 L 41.40625 23.089844 L 41.40625 52.839844 L 19.453125 52.839844 Z M 19.453125 23.089844 " clip-rule="nonzero"/></clipPath><clipPath id="a7468f8351"><path d="M 34.722656 35.035156 C 33.488281 32.984375 31.589844 31.40625 29.347656 30.5625 L 20.925781 27.394531 C 20.3125 27.164062 19.859375 26.628906 19.734375 25.984375 L 19.527344 24.929688 C 19.300781 23.785156 20.410156 22.832031 21.507812 23.222656 L 30.988281 26.605469 C 33.613281 27.542969 35.820312 29.414062 37.171875 31.855469 L 40.207031 37.328125 C 40.535156 37.925781 40.652344 38.621094 40.535156 39.292969 L 39.203125 46.828125 C 39.085938 47.496094 39.226562 48.1875 39.597656 48.757812 L 41.382812 51.503906 C 40.550781 53.039062 38.394531 53.167969 37.386719 51.738281 L 36.082031 49.890625 C 35.691406 49.335938 35.539062 48.648438 35.65625 47.984375 L 37.046875 40.234375 C 37.167969 39.5625 37.039062 38.871094 36.6875 38.289062 Z M 34.722656 35.035156 " clip-rule="nonzero"/></clipPath><clipPath id="72cc45a550"><path d="M 17.8125 41.144531 L 36.378906 41.144531 L 36.378906 53.351562 L 17.8125 53.351562 Z M 17.8125 41.144531 " clip-rule="nonzero"/></clipPath><clipPath id="8811313929"><path d="M 23.574219 44.886719 C 23.078125 44.394531 22.496094 43.996094 21.859375 43.714844 L 17.875 41.945312 L 18.644531 41.460938 C 19.203125 41.109375 19.90625 41.058594 20.507812 41.328125 L 22.242188 42.097656 C 22.882812 42.378906 23.46875 42.773438 23.96875 43.261719 L 28.421875 47.554688 C 28.925781 48.042969 29.507812 48.4375 30.148438 48.726562 L 34.355469 50.625 L 36.371094 53.257812 L 29.441406 50.136719 C 28.804688 49.847656 28.21875 49.449219 27.722656 48.960938 Z M 23.574219 44.886719 " clip-rule="nonzero"/></clipPath><clipPath id="d263611c7c"><path d="M 26.636719 44.019531 L 32.890625 44.019531 L 32.890625 48.632812 L 26.636719 48.632812 Z M 26.636719 44.019531 " clip-rule="nonzero"/></clipPath><clipPath id="fb4abd6c31"><path d="M 26.636719 44.046875 L 30.714844 45.859375 L 32.808594 48.597656 L 30.636719 47.628906 C 30 47.34375 29.421875 46.941406 28.941406 46.4375 Z M 26.636719 44.046875 " clip-rule="nonzero"/></clipPath><clipPath id="1caadbc6e6"><path d="M 9.503906 39.402344 L 25.609375 39.402344 L 25.609375 48.429688 L 9.503906 48.429688 Z M 9.503906 39.402344 " clip-rule="nonzero"/></clipPath><clipPath id="f5adc0fa8f"><path d="M 25.550781 48.382812 L 15.789062 43.984375 C 13.5 42.953125 11.4375 41.472656 9.722656 39.632812 L 9.527344 39.421875 L 20.863281 44.539062 C 21.503906 44.824219 22.089844 45.214844 22.605469 45.6875 Z M 25.550781 48.382812 " clip-rule="nonzero"/></clipPath><clipPath id="58943ef3d9"><path d="M 6.734375 35.195312 L 29.40625 35.195312 L 29.40625 43.914062 L 6.734375 43.914062 Z M 6.734375 35.195312 " clip-rule="nonzero"/></clipPath><clipPath id="b71762b5be"><path d="M 6.832031 35.253906 L 14.375 38.601562 C 14.972656 38.867188 15.671875 38.808594 16.222656 38.445312 L 17.511719 37.589844 C 18.0625 37.226562 18.761719 37.160156 19.367188 37.417969 L 23.730469 39.265625 C 25.984375 40.222656 27.921875 41.804688 29.3125 43.816406 L 19.949219 39.722656 C 19.34375 39.460938 18.640625 39.507812 18.082031 39.855469 L 16.929688 40.5625 C 16.367188 40.910156 15.667969 40.957031 15.0625 40.6875 L 9.40625 38.167969 C 8.773438 37.886719 8.238281 37.429688 7.863281 36.851562 Z M 6.832031 35.253906 " clip-rule="nonzero"/></clipPath><clipPath id="8717364b89"><path d="M 4 30.886719 L 16.480469 30.886719 L 16.480469 37.246094 L 4 37.246094 Z M 4 30.886719 " clip-rule="nonzero"/></clipPath><clipPath id="c5b0f2c754"><path d="M 4.027344 30.917969 L 16.441406 36.179688 L 15.542969 36.8125 C 15.007812 37.1875 14.3125 37.261719 13.710938 36.996094 L 6.660156 33.914062 C 6.03125 33.640625 5.492188 33.179688 5.117188 32.605469 Z M 4.027344 30.917969 " clip-rule="nonzero"/></clipPath><clipPath id="073a503f3c"><rect x="0" width="54" y="0" height="54"/></clipPath><clipPath id="9f763e5e30"><path d="M 0.730469 18.730469 L 53.738281 18.730469 L 53.738281 71.738281 L 0.730469 71.738281 Z M 0.730469 18.730469 " clip-rule="nonzero"/></clipPath><clipPath id="fc1549decd"><path d="M 53.769531 28.453125 L 53.769531 19.613281 C 53.769531 19.125 53.375 18.730469 52.886719 18.730469 L 44.046875 18.730469 C 43.8125 18.730469 43.585938 18.820312 43.421875 18.988281 L 40.257812 22.152344 C 36.300781 19.917969 31.824219 18.730469 27.25 18.730469 C 22.917969 18.730469 18.671875 19.789062 14.875 21.796875 L 14.875 19.613281 C 14.875 19.125 14.476562 18.730469 13.988281 18.730469 L 5.148438 18.730469 C 4.914062 18.730469 4.6875 18.820312 4.523438 18.988281 L 0.988281 22.523438 C 0.820312 22.6875 0.730469 22.914062 0.730469 23.148438 L 0.730469 31.988281 C 0.730469 32.476562 1.125 32.875 1.613281 32.875 L 3.796875 32.875 C 1.789062 36.671875 0.730469 40.917969 0.730469 45.25 C 0.730469 49.824219 1.917969 54.300781 4.152344 58.257812 L 0.988281 61.421875 C 0.820312 61.585938 0.730469 61.8125 0.730469 62.046875 L 0.730469 70.886719 C 0.730469 71.375 1.125 71.769531 1.613281 71.769531 L 10.453125 71.769531 C 10.6875 71.769531 10.914062 71.679688 11.078125 71.511719 L 14.242188 68.347656 C 18.199219 70.582031 22.675781 71.769531 27.25 71.769531 C 31.582031 71.769531 35.828125 70.710938 39.625 68.703125 L 39.625 70.886719 C 39.625 71.375 40.023438 71.769531 40.511719 71.769531 L 49.351562 71.769531 C 49.585938 71.769531 49.8125 71.679688 49.976562 71.511719 L 53.511719 67.976562 C 53.679688 67.8125 53.769531 67.585938 53.769531 67.351562 L 53.769531 58.511719 C 53.769531 58.023438 53.375 57.625 52.886719 57.625 L 50.703125 57.625 C 52.710938 53.828125 53.769531 49.582031 53.769531 45.25 C 53.769531 40.675781 52.582031 36.199219 50.347656 32.242188 L 53.511719 29.078125 C 53.679688 28.914062 53.769531 28.6875 53.769531 28.453125 Z M 44.414062 20.496094 L 50.753906 20.496094 L 48.984375 22.265625 L 42.644531 22.265625 Z M 50.234375 44.367188 C 49.085938 44.367188 48.113281 45.109375 47.746094 46.132812 L 35.207031 46.132812 L 35.207031 44.367188 L 41.394531 44.367188 C 41.777344 44.367188 42.113281 44.121094 42.234375 43.761719 L 43.800781 39.0625 L 46.863281 39.0625 C 47.230469 40.089844 48.199219 40.828125 49.351562 40.828125 C 50.179688 40.828125 50.910156 40.441406 51.398438 39.84375 C 51.777344 41.546875 51.984375 43.289062 51.996094 45.050781 C 51.527344 44.628906 50.914062 44.367188 50.234375 44.367188 Z M 51.121094 47.019531 C 51.121094 47.507812 50.722656 47.902344 50.234375 47.902344 C 49.75 47.902344 49.351562 47.507812 49.351562 47.019531 C 49.351562 46.53125 49.75 46.132812 50.234375 46.132812 C 50.722656 46.132812 51.121094 46.53125 51.121094 47.019531 Z M 48.46875 38.175781 C 48.46875 37.691406 48.863281 37.292969 49.351562 37.292969 C 49.839844 37.292969 50.234375 37.691406 50.234375 38.175781 C 50.234375 38.664062 49.839844 39.0625 49.351562 39.0625 C 48.863281 39.0625 48.46875 38.664062 48.46875 38.175781 Z M 49.351562 35.527344 C 48.199219 35.527344 47.226562 36.265625 46.863281 37.292969 L 43.164062 37.292969 C 42.78125 37.292969 42.445312 37.535156 42.324219 37.898438 L 40.757812 42.597656 L 35.207031 42.597656 L 35.207031 40.828125 L 37.859375 40.828125 C 38.238281 40.828125 38.578125 40.585938 38.699219 40.226562 L 41.148438 32.875 L 48.675781 32.875 C 49.195312 33.765625 49.65625 34.6875 50.058594 35.632812 C 49.832031 35.570312 49.597656 35.527344 49.351562 35.527344 Z M 41.394531 31.105469 L 41.394531 24.03125 L 48.46875 24.03125 L 48.46875 31.105469 Z M 27.25 20.496094 C 31.609375 20.496094 35.875 21.652344 39.625 23.824219 L 39.625 31.847656 L 37.222656 39.0625 L 35.042969 39.0625 C 34.675781 38.035156 33.703125 37.292969 32.554688 37.292969 L 32.554688 35.113281 L 34.8125 33.609375 C 35.058594 33.445312 35.207031 33.167969 35.207031 32.875 L 35.207031 30.941406 C 36.234375 30.578125 36.972656 29.605469 36.972656 28.453125 C 36.972656 26.992188 35.785156 25.800781 34.324219 25.800781 C 32.859375 25.800781 31.671875 26.992188 31.671875 28.453125 C 31.671875 29.605469 32.410156 30.578125 33.4375 30.941406 L 33.4375 32.398438 L 31.179688 33.90625 C 30.933594 34.070312 30.785156 34.347656 30.785156 34.640625 L 30.785156 37.292969 L 28.132812 37.292969 L 28.132812 32.875 C 28.132812 32.679688 28.070312 32.496094 27.957031 32.34375 L 25.480469 29.042969 L 25.480469 27.40625 C 26.507812 27.039062 27.25 26.066406 27.25 24.917969 C 27.25 23.453125 26.058594 22.265625 24.597656 22.265625 C 23.136719 22.265625 21.945312 23.453125 21.945312 24.917969 C 21.945312 26.066406 22.6875 27.039062 23.714844 27.40625 L 23.714844 29.335938 C 23.714844 29.527344 23.777344 29.714844 23.890625 29.867188 L 26.367188 33.167969 L 26.367188 37.292969 L 23.714844 37.292969 L 23.714844 32.875 C 23.714844 32.636719 23.621094 32.414062 23.453125 32.25 L 19.035156 27.828125 C 18.871094 27.660156 18.644531 27.570312 18.410156 27.570312 L 14.875 27.570312 L 14.875 23.824219 C 18.625 21.652344 22.890625 20.496094 27.25 20.496094 Z M 21.945312 51.4375 C 21.457031 51.4375 21.0625 51.042969 21.0625 50.554688 L 21.0625 39.945312 C 21.0625 39.457031 21.457031 39.0625 21.945312 39.0625 L 32.554688 39.0625 C 33.042969 39.0625 33.4375 39.457031 33.4375 39.945312 L 33.4375 50.554688 C 33.4375 51.042969 33.042969 51.4375 32.554688 51.4375 Z M 28.132812 67.351562 C 28.132812 67.839844 27.738281 68.234375 27.25 68.234375 C 26.761719 68.234375 26.367188 67.839844 26.367188 67.351562 C 26.367188 66.863281 26.761719 66.46875 27.25 66.46875 C 27.738281 66.46875 28.132812 66.863281 28.132812 67.351562 Z M 33.4375 28.453125 C 33.4375 27.964844 33.835938 27.570312 34.324219 27.570312 C 34.808594 27.570312 35.207031 27.964844 35.207031 28.453125 C 35.207031 28.941406 34.808594 29.335938 34.324219 29.335938 C 33.835938 29.335938 33.4375 28.941406 33.4375 28.453125 Z M 23.714844 24.917969 C 23.714844 24.429688 24.109375 24.03125 24.597656 24.03125 C 25.085938 24.03125 25.480469 24.429688 25.480469 24.917969 C 25.480469 25.40625 25.085938 25.800781 24.597656 25.800781 C 24.109375 25.800781 23.714844 25.40625 23.714844 24.917969 Z M 5.515625 20.496094 L 11.855469 20.496094 L 10.085938 22.265625 L 3.746094 22.265625 Z M 13.105469 21.746094 L 13.105469 28.085938 L 11.335938 29.855469 L 11.335938 23.515625 Z M 2.496094 24.03125 L 9.570312 24.03125 L 9.570312 31.105469 L 2.496094 31.105469 Z M 5.824219 32.875 L 10.453125 32.875 C 10.6875 32.875 10.914062 32.78125 11.078125 32.613281 L 14.355469 29.335938 L 18.042969 29.335938 L 21.945312 33.238281 L 21.945312 37.292969 C 20.792969 37.292969 19.820312 38.035156 19.457031 39.0625 L 17.007812 39.0625 L 14.613281 36.667969 C 14.449219 36.503906 14.222656 36.410156 13.988281 36.410156 L 11.175781 36.410156 C 10.808594 35.382812 9.835938 34.640625 8.683594 34.640625 C 7.222656 34.640625 6.03125 35.832031 6.03125 37.292969 C 6.03125 38.753906 7.222656 39.945312 8.683594 39.945312 C 9.835938 39.945312 10.808594 39.203125 11.175781 38.175781 L 13.625 38.175781 L 16.015625 40.570312 C 16.183594 40.738281 16.40625 40.828125 16.640625 40.828125 L 19.292969 40.828125 L 19.292969 42.597656 L 12.941406 42.597656 C 12.578125 41.570312 11.605469 40.828125 10.453125 40.828125 C 8.992188 40.828125 7.800781 42.019531 7.800781 43.480469 C 7.800781 44.945312 8.992188 46.132812 10.453125 46.132812 C 11.605469 46.132812 12.578125 45.390625 12.941406 44.367188 L 19.292969 44.367188 L 19.292969 46.132812 L 14.875 46.132812 C 14.714844 46.132812 14.554688 46.175781 14.417969 46.261719 L 10.207031 48.785156 L 6.753906 48.785156 C 6.386719 47.761719 5.414062 47.019531 4.265625 47.019531 C 3.640625 47.019531 3.074219 47.242188 2.621094 47.605469 C 2.546875 46.824219 2.496094 46.039062 2.496094 45.25 C 2.496094 40.890625 3.652344 36.625 5.824219 32.875 Z M 19.292969 49.671875 L 16.640625 49.671875 C 16.433594 49.671875 16.234375 49.742188 16.074219 49.875 L 10.769531 54.292969 C 10.570312 54.464844 10.453125 54.710938 10.453125 54.972656 L 10.453125 57.625 L 5.824219 57.625 C 4.828125 55.910156 4.046875 54.085938 3.496094 52.195312 C 3.742188 52.269531 3.996094 52.324219 4.265625 52.324219 C 5.414062 52.324219 6.386719 51.582031 6.753906 50.554688 L 10.453125 50.554688 C 10.613281 50.554688 10.769531 50.511719 10.910156 50.429688 L 15.117188 47.902344 L 19.292969 47.902344 Z M 10.085938 61.164062 L 3.746094 61.164062 L 5.515625 59.394531 L 11.855469 59.394531 Z M 3.378906 49.671875 C 3.378906 49.183594 3.777344 48.785156 4.265625 48.785156 C 4.75 48.785156 5.148438 49.183594 5.148438 49.671875 C 5.148438 50.160156 4.75 50.554688 4.265625 50.554688 C 3.777344 50.554688 3.378906 50.160156 3.378906 49.671875 Z M 9.570312 37.292969 C 9.570312 37.78125 9.171875 38.175781 8.683594 38.175781 C 8.199219 38.175781 7.800781 37.78125 7.800781 37.292969 C 7.800781 36.804688 8.199219 36.410156 8.683594 36.410156 C 9.171875 36.410156 9.570312 36.804688 9.570312 37.292969 Z M 11.335938 43.480469 C 11.335938 43.96875 10.941406 44.367188 10.453125 44.367188 C 9.964844 44.367188 9.570312 43.96875 9.570312 43.480469 C 9.570312 42.992188 9.964844 42.597656 10.453125 42.597656 C 10.941406 42.597656 11.335938 42.992188 11.335938 43.480469 Z M 2.496094 62.929688 L 9.570312 62.929688 L 9.570312 70.003906 L 2.496094 70.003906 Z M 11.335938 68.753906 L 11.335938 62.414062 L 13.105469 60.644531 L 13.105469 66.984375 Z M 27.25 70.003906 C 22.890625 70.003906 18.625 68.847656 14.875 66.675781 L 14.875 58.511719 C 14.875 58.023438 14.476562 57.625 13.988281 57.625 L 12.222656 57.625 L 12.222656 55.390625 L 16.960938 51.4375 L 19.457031 51.4375 C 19.824219 52.464844 20.796875 53.207031 21.945312 53.207031 L 21.945312 55.417969 L 18.765625 57.804688 C 18.539062 57.96875 18.410156 58.234375 18.410156 58.511719 L 18.410156 61.324219 C 17.382812 61.691406 16.640625 62.664062 16.640625 63.816406 C 16.640625 65.277344 17.832031 66.46875 19.292969 66.46875 C 20.753906 66.46875 21.945312 65.277344 21.945312 63.816406 C 21.945312 62.664062 21.203125 61.691406 20.175781 61.324219 L 20.175781 58.953125 L 23.359375 56.566406 C 23.582031 56.398438 23.714844 56.136719 23.714844 55.859375 L 23.714844 53.207031 L 26.367188 53.207031 L 26.367188 64.863281 C 25.339844 65.226562 24.597656 66.199219 24.597656 67.351562 C 24.597656 68.8125 25.789062 70.003906 27.25 70.003906 C 28.710938 70.003906 29.902344 68.8125 29.902344 67.351562 C 29.902344 66.199219 29.160156 65.226562 28.132812 64.863281 L 28.132812 53.207031 L 30.785156 53.207031 L 30.785156 56.742188 C 30.785156 57.230469 31.183594 57.625 31.671875 57.625 L 38.375 57.625 L 41.027344 60.277344 L 39.886719 61.421875 C 39.71875 61.585938 39.625 61.8125 39.625 62.046875 L 39.625 66.675781 C 35.875 68.847656 31.609375 70.003906 27.25 70.003906 Z M 20.175781 63.816406 C 20.175781 64.304688 19.78125 64.699219 19.292969 64.699219 C 18.804688 64.699219 18.410156 64.304688 18.410156 63.816406 C 18.410156 63.328125 18.804688 62.929688 19.292969 62.929688 C 19.78125 62.929688 20.175781 63.328125 20.175781 63.816406 Z M 48.984375 61.164062 L 42.644531 61.164062 L 44.414062 59.394531 L 50.753906 59.394531 Z M 41.394531 62.929688 L 48.46875 62.929688 L 48.46875 70.003906 L 41.394531 70.003906 Z M 50.234375 68.753906 L 50.234375 62.414062 L 52.003906 60.644531 L 52.003906 66.984375 Z M 44.046875 57.625 C 43.8125 57.625 43.585938 57.71875 43.421875 57.886719 L 42.277344 59.027344 L 39.367188 56.117188 C 39.203125 55.953125 38.976562 55.859375 38.742188 55.859375 L 32.554688 55.859375 L 32.554688 53.207031 C 33.707031 53.207031 34.679688 52.464844 35.042969 51.4375 L 38.375 51.4375 L 40.769531 53.832031 C 40.933594 53.996094 41.160156 54.089844 41.394531 54.089844 L 43.324219 54.089844 C 43.691406 55.117188 44.664062 55.859375 45.816406 55.859375 C 47.277344 55.859375 48.46875 54.667969 48.46875 53.207031 C 48.46875 51.746094 47.277344 50.554688 45.816406 50.554688 C 44.664062 50.554688 43.691406 51.296875 43.324219 52.324219 L 41.761719 52.324219 L 39.367188 49.929688 C 39.203125 49.761719 38.976562 49.671875 38.742188 49.671875 L 35.207031 49.671875 L 35.207031 47.902344 L 47.746094 47.902344 C 48.113281 48.929688 49.085938 49.671875 50.234375 49.671875 C 50.761719 49.671875 51.253906 49.511719 51.667969 49.246094 C 51.1875 52.191406 50.179688 55.03125 48.675781 57.625 Z M 44.929688 53.207031 C 44.929688 52.71875 45.328125 52.324219 45.816406 52.324219 C 46.300781 52.324219 46.699219 52.71875 46.699219 53.207031 C 46.699219 53.695312 46.300781 54.089844 45.816406 54.089844 C 45.328125 54.089844 44.929688 53.695312 44.929688 53.207031 Z M 50.234375 29.855469 L 50.234375 23.515625 L 52.003906 21.746094 L 52.003906 28.085938 Z M 50.234375 29.855469 " clip-rule="nonzero"/></clipPath><linearGradient x1="2.000002" gradientTransform="matrix(0.884049, 0, 0, 0.884049, -1.039567, 16.960431)" y1="2.000002" x2="61.960412" gradientUnits="userSpaceOnUse" y2="61.960412" id="0304f67a04"><stop stop-opacity="1" stop-color="rgb(21.998596%, 0%, 30.198669%)" offset="0"/><stop stop-opacity="1" stop-color="rgb(21.998596%, 0%, 30.198669%)" offset="0.125"/><stop stop-opacity="1" stop-color="rgb(21.998596%, 0%, 30.198669%)" offset="0.140625"/><stop stop-opacity="1" stop-color="rgb(22.128296%, 0.166321%, 30.39856%)" offset="0.144531"/><stop stop-opacity="1" stop-color="rgb(22.257996%, 0.332642%, 30.59845%)" offset="0.148438"/><stop stop-opacity="1" stop-color="rgb(22.467041%, 0.604248%, 30.921936%)" offset="0.152344"/><stop stop-opacity="1" stop-color="rgb(22.677612%, 0.875854%, 31.245422%)" offset="0.15625"/><stop stop-opacity="1" stop-color="rgb(22.886658%, 1.145935%, 31.568909%)" offset="0.160156"/><stop stop-opacity="1" stop-color="rgb(23.097229%, 1.417542%, 31.892395%)" offset="0.164062"/><stop stop-opacity="1" stop-color="rgb(23.306274%, 1.689148%, 32.215881%)" offset="0.167969"/><stop stop-opacity="1" stop-color="rgb(23.516846%, 1.960754%, 32.540894%)" offset="0.171875"/><stop stop-opacity="1" stop-color="rgb(23.727417%, 2.232361%, 32.86438%)" offset="0.175781"/><stop stop-opacity="1" stop-color="rgb(23.937988%, 2.503967%, 33.187866%)" offset="0.179687"/><stop stop-opacity="1" stop-color="rgb(24.147034%, 2.774048%, 33.511353%)" offset="0.183594"/><stop stop-opacity="1" stop-color="rgb(24.357605%, 3.045654%, 33.834839%)" offset="0.1875"/><stop stop-opacity="1" stop-color="rgb(24.56665%, 3.317261%, 34.158325%)" offset="0.191406"/><stop stop-opacity="1" stop-color="rgb(24.777222%, 3.588867%, 34.483337%)" offset="0.195312"/><stop stop-opacity="1" stop-color="rgb(24.986267%, 3.858948%, 34.806824%)" offset="0.199219"/><stop stop-opacity="1" stop-color="rgb(25.196838%, 4.130554%, 35.13031%)" offset="0.203125"/><stop stop-opacity="1" stop-color="rgb(25.405884%, 4.402161%, 35.453796%)" offset="0.207031"/><stop stop-opacity="1" stop-color="rgb(25.616455%, 4.673767%, 35.778809%)" offset="0.210937"/><stop stop-opacity="1" stop-color="rgb(25.827026%, 4.945374%, 36.102295%)" offset="0.214844"/><stop stop-opacity="1" stop-color="rgb(26.037598%, 5.21698%, 36.425781%)" offset="0.21875"/><stop stop-opacity="1" stop-color="rgb(26.246643%, 5.487061%, 36.749268%)" offset="0.222656"/><stop stop-opacity="1" stop-color="rgb(26.457214%, 5.758667%, 37.072754%)" offset="0.226562"/><stop stop-opacity="1" stop-color="rgb(26.66626%, 6.030273%, 37.39624%)" offset="0.230469"/><stop stop-opacity="1" stop-color="rgb(26.876831%, 6.30188%, 37.721252%)" offset="0.234375"/><stop stop-opacity="1" stop-color="rgb(27.085876%, 6.57196%, 38.044739%)" offset="0.238281"/><stop stop-opacity="1" stop-color="rgb(27.296448%, 6.843567%, 38.368225%)" offset="0.242187"/><stop stop-opacity="1" stop-color="rgb(27.505493%, 7.115173%, 38.691711%)" offset="0.246094"/><stop stop-opacity="1" stop-color="rgb(27.716064%, 7.38678%, 39.016724%)" offset="0.25"/><stop stop-opacity="1" stop-color="rgb(27.926636%, 7.658386%, 39.34021%)" offset="0.253906"/><stop stop-opacity="1" stop-color="rgb(28.137207%, 7.929993%, 39.663696%)" offset="0.257812"/><stop stop-opacity="1" stop-color="rgb(28.346252%, 8.200073%, 39.987183%)" offset="0.261719"/><stop stop-opacity="1" stop-color="rgb(28.556824%, 8.47168%, 40.310669%)" offset="0.265625"/><stop stop-opacity="1" stop-color="rgb(28.765869%, 8.743286%, 40.634155%)" offset="0.269531"/><stop stop-opacity="1" stop-color="rgb(28.97644%, 9.014893%, 40.959167%)" offset="0.273438"/><stop stop-opacity="1" stop-color="rgb(29.185486%, 9.284973%, 41.282654%)" offset="0.277344"/><stop stop-opacity="1" stop-color="rgb(29.396057%, 9.55658%, 41.60614%)" offset="0.28125"/><stop stop-opacity="1" stop-color="rgb(29.605103%, 9.828186%, 41.929626%)" offset="0.285156"/><stop stop-opacity="1" stop-color="rgb(29.815674%, 10.099792%, 42.254639%)" offset="0.289062"/><stop stop-opacity="1" stop-color="rgb(30.026245%, 10.369873%, 42.578125%)" offset="0.292969"/><stop stop-opacity="1" stop-color="rgb(30.236816%, 10.641479%, 42.901611%)" offset="0.296875"/><stop stop-opacity="1" stop-color="rgb(30.445862%, 10.913086%, 43.225098%)" offset="0.300781"/><stop stop-opacity="1" stop-color="rgb(30.656433%, 11.184692%, 43.548584%)" offset="0.304688"/><stop stop-opacity="1" stop-color="rgb(30.865479%, 11.456299%, 43.87207%)" offset="0.308594"/><stop stop-opacity="1" stop-color="rgb(31.07605%, 11.727905%, 44.197083%)" offset="0.3125"/><stop stop-opacity="1" stop-color="rgb(31.285095%, 11.997986%, 44.520569%)" offset="0.316406"/><stop stop-opacity="1" stop-color="rgb(31.495667%, 12.269592%, 44.844055%)" offset="0.320313"/><stop stop-opacity="1" stop-color="rgb(31.704712%, 12.541199%, 45.167542%)" offset="0.324219"/><stop stop-opacity="1" stop-color="rgb(31.915283%, 12.812805%, 45.491028%)" offset="0.328125"/><stop stop-opacity="1" stop-color="rgb(32.125854%, 13.082886%, 45.814514%)" offset="0.332031"/><stop stop-opacity="1" stop-color="rgb(32.336426%, 13.354492%, 46.139526%)" offset="0.335938"/><stop stop-opacity="1" stop-color="rgb(32.545471%, 13.626099%, 46.463013%)" offset="0.339844"/><stop stop-opacity="1" stop-color="rgb(32.756042%, 13.897705%, 46.786499%)" offset="0.34375"/><stop stop-opacity="1" stop-color="rgb(32.965088%, 14.169312%, 47.109985%)" offset="0.347656"/><stop stop-opacity="1" stop-color="rgb(33.175659%, 14.440918%, 47.434998%)" offset="0.351563"/><stop stop-opacity="1" stop-color="rgb(33.384705%, 14.710999%, 47.758484%)" offset="0.355469"/><stop stop-opacity="1" stop-color="rgb(33.595276%, 14.982605%, 48.08197%)" offset="0.359375"/><stop stop-opacity="1" stop-color="rgb(33.805847%, 15.254211%, 48.405457%)" offset="0.363281"/><stop stop-opacity="1" stop-color="rgb(34.016418%, 15.525818%, 48.728943%)" offset="0.367188"/><stop stop-opacity="1" stop-color="rgb(34.225464%, 15.795898%, 49.052429%)" offset="0.371094"/><stop stop-opacity="1" stop-color="rgb(34.436035%, 16.067505%, 49.377441%)" offset="0.375"/><stop stop-opacity="1" stop-color="rgb(34.645081%, 16.339111%, 49.700928%)" offset="0.378906"/><stop stop-opacity="1" stop-color="rgb(34.855652%, 16.610718%, 50.024414%)" offset="0.382813"/><stop stop-opacity="1" stop-color="rgb(35.064697%, 16.882324%, 50.3479%)" offset="0.386719"/><stop stop-opacity="1" stop-color="rgb(35.275269%, 17.153931%, 50.672913%)" offset="0.390625"/><stop stop-opacity="1" stop-color="rgb(35.484314%, 17.424011%, 50.996399%)" offset="0.394531"/><stop stop-opacity="1" stop-color="rgb(35.694885%, 17.695618%, 51.319885%)" offset="0.398438"/><stop stop-opacity="1" stop-color="rgb(35.905457%, 17.967224%, 51.643372%)" offset="0.402344"/><stop stop-opacity="1" stop-color="rgb(36.116028%, 18.238831%, 51.966858%)" offset="0.40625"/><stop stop-opacity="1" stop-color="rgb(36.325073%, 18.508911%, 52.290344%)" offset="0.410156"/><stop stop-opacity="1" stop-color="rgb(36.535645%, 18.780518%, 52.615356%)" offset="0.414063"/><stop stop-opacity="1" stop-color="rgb(36.74469%, 19.052124%, 52.938843%)" offset="0.417969"/><stop stop-opacity="1" stop-color="rgb(36.955261%, 19.32373%, 53.262329%)" offset="0.421875"/><stop stop-opacity="1" stop-color="rgb(37.164307%, 19.593811%, 53.585815%)" offset="0.425781"/><stop stop-opacity="1" stop-color="rgb(37.374878%, 19.865417%, 53.909302%)" offset="0.429688"/><stop stop-opacity="1" stop-color="rgb(37.583923%, 20.137024%, 54.232788%)" offset="0.433594"/><stop stop-opacity="1" stop-color="rgb(37.794495%, 20.40863%, 54.5578%)" offset="0.4375"/><stop stop-opacity="1" stop-color="rgb(38.005066%, 20.680237%, 54.881287%)" offset="0.441406"/><stop stop-opacity="1" stop-color="rgb(38.215637%, 20.951843%, 55.204773%)" offset="0.445313"/><stop stop-opacity="1" stop-color="rgb(38.424683%, 21.221924%, 55.528259%)" offset="0.449219"/><stop stop-opacity="1" stop-color="rgb(38.635254%, 21.49353%, 55.853271%)" offset="0.453125"/><stop stop-opacity="1" stop-color="rgb(38.844299%, 21.765137%, 56.176758%)" offset="0.457031"/><stop stop-opacity="1" stop-color="rgb(39.054871%, 22.036743%, 56.500244%)" offset="0.460938"/><stop stop-opacity="1" stop-color="rgb(39.263916%, 22.306824%, 56.82373%)" offset="0.464844"/><stop stop-opacity="1" stop-color="rgb(39.474487%, 22.57843%, 57.147217%)" offset="0.46875"/><stop stop-opacity="1" stop-color="rgb(39.683533%, 22.850037%, 57.470703%)" offset="0.472656"/><stop stop-opacity="1" stop-color="rgb(39.894104%, 23.121643%, 57.795715%)" offset="0.476563"/><stop stop-opacity="1" stop-color="rgb(40.104675%, 23.39325%, 58.119202%)" offset="0.480469"/><stop stop-opacity="1" stop-color="rgb(40.315247%, 23.664856%, 58.442688%)" offset="0.484375"/><stop stop-opacity="1" stop-color="rgb(40.524292%, 23.934937%, 58.766174%)" offset="0.488281"/><stop stop-opacity="1" stop-color="rgb(40.734863%, 24.206543%, 59.091187%)" offset="0.492188"/><stop stop-opacity="1" stop-color="rgb(40.943909%, 24.478149%, 59.414673%)" offset="0.496094"/><stop stop-opacity="1" stop-color="rgb(41.15448%, 24.749756%, 59.738159%)" offset="0.5"/><stop stop-opacity="1" stop-color="rgb(41.363525%, 25.019836%, 60.061646%)" offset="0.503906"/><stop stop-opacity="1" stop-color="rgb(41.574097%, 25.291443%, 60.385132%)" offset="0.507813"/><stop stop-opacity="1" stop-color="rgb(41.783142%, 25.563049%, 60.708618%)" offset="0.511719"/><stop stop-opacity="1" stop-color="rgb(41.993713%, 25.834656%, 61.03363%)" offset="0.515625"/><stop stop-opacity="1" stop-color="rgb(42.204285%, 26.104736%, 61.357117%)" offset="0.519531"/><stop stop-opacity="1" stop-color="rgb(42.414856%, 26.376343%, 61.680603%)" offset="0.523438"/><stop stop-opacity="1" stop-color="rgb(42.623901%, 26.647949%, 62.004089%)" offset="0.527344"/><stop stop-opacity="1" stop-color="rgb(42.834473%, 26.919556%, 62.329102%)" offset="0.53125"/><stop stop-opacity="1" stop-color="rgb(43.043518%, 27.191162%, 62.652588%)" offset="0.535156"/><stop stop-opacity="1" stop-color="rgb(43.254089%, 27.462769%, 62.976074%)" offset="0.539063"/><stop stop-opacity="1" stop-color="rgb(43.463135%, 27.732849%, 63.299561%)" offset="0.542969"/><stop stop-opacity="1" stop-color="rgb(43.673706%, 28.004456%, 63.623047%)" offset="0.546875"/><stop stop-opacity="1" stop-color="rgb(43.882751%, 28.276062%, 63.946533%)" offset="0.550781"/><stop stop-opacity="1" stop-color="rgb(44.093323%, 28.547668%, 64.271545%)" offset="0.554688"/><stop stop-opacity="1" stop-color="rgb(44.303894%, 28.817749%, 64.595032%)" offset="0.558594"/><stop stop-opacity="1" stop-color="rgb(44.514465%, 29.089355%, 64.918518%)" offset="0.5625"/><stop stop-opacity="1" stop-color="rgb(44.723511%, 29.360962%, 65.242004%)" offset="0.566406"/><stop stop-opacity="1" stop-color="rgb(44.934082%, 29.632568%, 65.565491%)" offset="0.570313"/><stop stop-opacity="1" stop-color="rgb(45.143127%, 29.904175%, 65.888977%)" offset="0.574219"/><stop stop-opacity="1" stop-color="rgb(45.353699%, 30.175781%, 66.213989%)" offset="0.578125"/><stop stop-opacity="1" stop-color="rgb(45.562744%, 30.445862%, 66.537476%)" offset="0.582031"/><stop stop-opacity="1" stop-color="rgb(45.773315%, 30.717468%, 66.860962%)" offset="0.585938"/><stop stop-opacity="1" stop-color="rgb(45.982361%, 30.989075%, 67.184448%)" offset="0.589844"/><stop stop-opacity="1" stop-color="rgb(46.192932%, 31.260681%, 67.50946%)" offset="0.59375"/><stop stop-opacity="1" stop-color="rgb(46.403503%, 31.530762%, 67.832947%)" offset="0.597656"/><stop stop-opacity="1" stop-color="rgb(46.614075%, 31.802368%, 68.156433%)" offset="0.601562"/><stop stop-opacity="1" stop-color="rgb(46.82312%, 32.073975%, 68.479919%)" offset="0.605469"/><stop stop-opacity="1" stop-color="rgb(47.033691%, 32.345581%, 68.803406%)" offset="0.609375"/><stop stop-opacity="1" stop-color="rgb(47.242737%, 32.617188%, 69.126892%)" offset="0.613281"/><stop stop-opacity="1" stop-color="rgb(47.453308%, 32.888794%, 69.451904%)" offset="0.617188"/><stop stop-opacity="1" stop-color="rgb(47.662354%, 33.158875%, 69.775391%)" offset="0.621094"/><stop stop-opacity="1" stop-color="rgb(47.872925%, 33.430481%, 70.098877%)" offset="0.625"/><stop stop-opacity="1" stop-color="rgb(48.08197%, 33.702087%, 70.422363%)" offset="0.628906"/><stop stop-opacity="1" stop-color="rgb(48.292542%, 33.973694%, 70.747375%)" offset="0.632813"/><stop stop-opacity="1" stop-color="rgb(48.503113%, 34.243774%, 71.070862%)" offset="0.636719"/><stop stop-opacity="1" stop-color="rgb(48.713684%, 34.515381%, 71.394348%)" offset="0.640625"/><stop stop-opacity="1" stop-color="rgb(48.922729%, 34.786987%, 71.717834%)" offset="0.644531"/><stop stop-opacity="1" stop-color="rgb(49.133301%, 35.058594%, 72.041321%)" offset="0.648438"/><stop stop-opacity="1" stop-color="rgb(49.342346%, 35.328674%, 72.364807%)" offset="0.652344"/><stop stop-opacity="1" stop-color="rgb(49.552917%, 35.600281%, 72.689819%)" offset="0.65625"/><stop stop-opacity="1" stop-color="rgb(49.761963%, 35.871887%, 73.013306%)" offset="0.660156"/><stop stop-opacity="1" stop-color="rgb(49.972534%, 36.143494%, 73.336792%)" offset="0.664063"/><stop stop-opacity="1" stop-color="rgb(50.183105%, 36.4151%, 73.660278%)" offset="0.667969"/><stop stop-opacity="1" stop-color="rgb(50.393677%, 36.686707%, 73.985291%)" offset="0.671875"/><stop stop-opacity="1" stop-color="rgb(50.602722%, 36.956787%, 74.308777%)" offset="0.675781"/><stop stop-opacity="1" stop-color="rgb(50.813293%, 37.228394%, 74.632263%)" offset="0.679688"/><stop stop-opacity="1" stop-color="rgb(51.022339%, 37.5%, 74.95575%)" offset="0.683594"/><stop stop-opacity="1" stop-color="rgb(51.23291%, 37.771606%, 75.279236%)" offset="0.6875"/><stop stop-opacity="1" stop-color="rgb(51.441956%, 38.041687%, 75.602722%)" offset="0.691406"/><stop stop-opacity="1" stop-color="rgb(51.652527%, 38.313293%, 75.927734%)" offset="0.695313"/><stop stop-opacity="1" stop-color="rgb(51.861572%, 38.5849%, 76.251221%)" offset="0.699219"/><stop stop-opacity="1" stop-color="rgb(52.072144%, 38.856506%, 76.574707%)" offset="0.703125"/><stop stop-opacity="1" stop-color="rgb(52.282715%, 39.128113%, 76.898193%)" offset="0.707031"/><stop stop-opacity="1" stop-color="rgb(52.493286%, 39.399719%, 77.22168%)" offset="0.710938"/><stop stop-opacity="1" stop-color="rgb(52.702332%, 39.6698%, 77.545166%)" offset="0.714844"/><stop stop-opacity="1" stop-color="rgb(52.912903%, 39.941406%, 77.870178%)" offset="0.71875"/><stop stop-opacity="1" stop-color="rgb(53.121948%, 40.213013%, 78.193665%)" offset="0.722656"/><stop stop-opacity="1" stop-color="rgb(53.33252%, 40.484619%, 78.517151%)" offset="0.726563"/><stop stop-opacity="1" stop-color="rgb(53.541565%, 40.7547%, 78.840637%)" offset="0.730469"/><stop stop-opacity="1" stop-color="rgb(53.752136%, 41.026306%, 79.165649%)" offset="0.734375"/><stop stop-opacity="1" stop-color="rgb(53.961182%, 41.297913%, 79.489136%)" offset="0.738281"/><stop stop-opacity="1" stop-color="rgb(54.171753%, 41.569519%, 79.812622%)" offset="0.742188"/><stop stop-opacity="1" stop-color="rgb(54.382324%, 41.8396%, 80.136108%)" offset="0.746094"/><stop stop-opacity="1" stop-color="rgb(54.592896%, 42.111206%, 80.459595%)" offset="0.75"/><stop stop-opacity="1" stop-color="rgb(54.801941%, 42.382812%, 80.783081%)" offset="0.753906"/><stop stop-opacity="1" stop-color="rgb(55.012512%, 42.654419%, 81.108093%)" offset="0.757813"/><stop stop-opacity="1" stop-color="rgb(55.221558%, 42.926025%, 81.43158%)" offset="0.761719"/><stop stop-opacity="1" stop-color="rgb(55.432129%, 43.197632%, 81.755066%)" offset="0.765625"/><stop stop-opacity="1" stop-color="rgb(55.641174%, 43.467712%, 82.078552%)" offset="0.769531"/><stop stop-opacity="1" stop-color="rgb(55.851746%, 43.739319%, 82.403564%)" offset="0.773438"/><stop stop-opacity="1" stop-color="rgb(56.060791%, 44.010925%, 82.727051%)" offset="0.777344"/><stop stop-opacity="1" stop-color="rgb(56.271362%, 44.282532%, 83.050537%)" offset="0.78125"/><stop stop-opacity="1" stop-color="rgb(56.481934%, 44.552612%, 83.374023%)" offset="0.785156"/><stop stop-opacity="1" stop-color="rgb(56.692505%, 44.824219%, 83.69751%)" offset="0.789063"/><stop stop-opacity="1" stop-color="rgb(56.90155%, 45.095825%, 84.020996%)" offset="0.792969"/><stop stop-opacity="1" stop-color="rgb(57.112122%, 45.367432%, 84.346008%)" offset="0.796875"/><stop stop-opacity="1" stop-color="rgb(57.321167%, 45.639038%, 84.669495%)" offset="0.800781"/><stop stop-opacity="1" stop-color="rgb(57.531738%, 45.910645%, 84.992981%)" offset="0.804688"/><stop stop-opacity="1" stop-color="rgb(57.740784%, 46.180725%, 85.316467%)" offset="0.808594"/><stop stop-opacity="1" stop-color="rgb(57.951355%, 46.452332%, 85.641479%)" offset="0.8125"/><stop stop-opacity="1" stop-color="rgb(58.1604%, 46.723938%, 85.964966%)" offset="0.816406"/><stop stop-opacity="1" stop-color="rgb(58.370972%, 46.995544%, 86.288452%)" offset="0.820313"/><stop stop-opacity="1" stop-color="rgb(58.581543%, 47.265625%, 86.611938%)" offset="0.824219"/><stop stop-opacity="1" stop-color="rgb(58.792114%, 47.537231%, 86.935425%)" offset="0.828125"/><stop stop-opacity="1" stop-color="rgb(59.00116%, 47.808838%, 87.258911%)" offset="0.832031"/><stop stop-opacity="1" stop-color="rgb(59.211731%, 48.080444%, 87.583923%)" offset="0.835938"/><stop stop-opacity="1" stop-color="rgb(59.420776%, 48.352051%, 87.90741%)" offset="0.839844"/><stop stop-opacity="1" stop-color="rgb(59.631348%, 48.623657%, 88.230896%)" offset="0.84375"/><stop stop-opacity="1" stop-color="rgb(59.840393%, 48.893738%, 88.554382%)" offset="0.847656"/><stop stop-opacity="1" stop-color="rgb(60.050964%, 49.165344%, 88.877869%)" offset="0.851563"/><stop stop-opacity="1" stop-color="rgb(60.26001%, 49.436951%, 89.201355%)" offset="0.855469"/><stop stop-opacity="1" stop-color="rgb(60.470581%, 49.708557%, 89.526367%)" offset="0.859375"/><stop stop-opacity="1" stop-color="rgb(60.681152%, 49.978638%, 89.849854%)" offset="0.863281"/><stop stop-opacity="1" stop-color="rgb(60.891724%, 50.250244%, 90.17334%)" offset="0.867188"/><stop stop-opacity="1" stop-color="rgb(61.100769%, 50.521851%, 90.496826%)" offset="0.871094"/><stop stop-opacity="1" stop-color="rgb(61.31134%, 50.793457%, 90.821838%)" offset="0.875"/><stop stop-opacity="1" stop-color="rgb(61.520386%, 51.063538%, 91.145325%)" offset="0.878906"/><stop stop-opacity="1" stop-color="rgb(61.730957%, 51.335144%, 91.468811%)" offset="0.882813"/><stop stop-opacity="1" stop-color="rgb(61.940002%, 51.60675%, 91.792297%)" offset="0.886719"/><stop stop-opacity="1" stop-color="rgb(62.150574%, 51.878357%, 92.115784%)" offset="0.890625"/><stop stop-opacity="1" stop-color="rgb(62.27417%, 52.038574%, 92.306519%)" offset="0.90625"/><stop stop-opacity="1" stop-color="rgb(62.399292%, 52.198792%, 92.498779%)" offset="0.9375"/><stop stop-opacity="1" stop-color="rgb(62.399292%, 52.198792%, 92.498779%)" offset="1"/></linearGradient><clipPath id="b1241b8887"><path d="M 22 41 L 29 41 L 29 49 L 22 49 Z M 22 41 " clip-rule="nonzero"/></clipPath><clipPath id="427774bcc7"><path d="M 25.480469 41.714844 C 24.019531 41.714844 22.828125 42.902344 22.828125 44.367188 L 22.828125 47.902344 C 22.828125 48.390625 23.226562 48.785156 23.714844 48.785156 C 24.203125 48.785156 24.597656 48.390625 24.597656 47.902344 L 24.597656 47.019531 L 26.367188 47.019531 L 26.367188 47.902344 C 26.367188 48.390625 26.761719 48.785156 27.25 48.785156 C 27.738281 48.785156 28.132812 48.390625 28.132812 47.902344 L 28.132812 44.367188 C 28.132812 42.902344 26.945312 41.714844 25.480469 41.714844 Z M 24.597656 45.25 L 24.597656 44.367188 C 24.597656 43.878906 24.996094 43.480469 25.480469 43.480469 C 25.96875 43.480469 26.367188 43.878906 26.367188 44.367188 L 26.367188 45.25 Z M 24.597656 45.25 " clip-rule="nonzero"/></clipPath><linearGradient x1="26.206502" gradientTransform="matrix(0.884049, 0, 0, 0.884049, -1.039567, 16.960431)" y1="28.793501" x2="33.206501" gradientUnits="userSpaceOnUse" y2="35.7935" id="bf70b66b5a"><stop stop-opacity="1" stop-color="rgb(37.138367%, 19.560242%, 53.544617%)" offset="0"/><stop stop-opacity="1" stop-color="rgb(37.236023%, 19.68689%, 53.695679%)" offset="0.03125"/><stop stop-opacity="1" stop-color="rgb(37.431335%, 19.940186%, 53.997803%)" offset="0.0625"/><stop stop-opacity="1" stop-color="rgb(37.628174%, 20.193481%, 54.299927%)" offset="0.09375"/><stop stop-opacity="1" stop-color="rgb(37.823486%, 20.446777%, 54.603577%)" offset="0.125"/><stop stop-opacity="1" stop-color="rgb(38.020325%, 20.700073%, 54.905701%)" offset="0.15625"/><stop stop-opacity="1" stop-color="rgb(38.215637%, 20.953369%, 55.207825%)" offset="0.1875"/><stop stop-opacity="1" stop-color="rgb(38.412476%, 21.206665%, 55.509949%)" offset="0.21875"/><stop stop-opacity="1" stop-color="rgb(38.607788%, 21.459961%, 55.812073%)" offset="0.25"/><stop stop-opacity="1" stop-color="rgb(38.804626%, 21.713257%, 56.114197%)" offset="0.28125"/><stop stop-opacity="1" stop-color="rgb(39.001465%, 21.966553%, 56.417847%)" offset="0.3125"/><stop stop-opacity="1" stop-color="rgb(39.196777%, 22.219849%, 56.719971%)" offset="0.34375"/><stop stop-opacity="1" stop-color="rgb(39.393616%, 22.473145%, 57.022095%)" offset="0.375"/><stop stop-opacity="1" stop-color="rgb(39.588928%, 22.72644%, 57.324219%)" offset="0.40625"/><stop stop-opacity="1" stop-color="rgb(39.785767%, 22.979736%, 57.626343%)" offset="0.428571"/><stop stop-opacity="1" stop-color="rgb(39.883423%, 23.10791%, 57.778931%)" offset="0.4375"/><stop stop-opacity="1" stop-color="rgb(39.981079%, 23.234558%, 57.929993%)" offset="0.46875"/><stop stop-opacity="1" stop-color="rgb(40.177917%, 23.487854%, 58.232117%)" offset="0.5"/><stop stop-opacity="1" stop-color="rgb(40.37323%, 23.74115%, 58.534241%)" offset="0.53125"/><stop stop-opacity="1" stop-color="rgb(40.570068%, 23.994446%, 58.836365%)" offset="0.5625"/><stop stop-opacity="1" stop-color="rgb(40.765381%, 24.247742%, 59.138489%)" offset="0.571429"/><stop stop-opacity="1" stop-color="rgb(40.864563%, 24.37439%, 59.289551%)" offset="0.59375"/><stop stop-opacity="1" stop-color="rgb(40.962219%, 24.501038%, 59.440613%)" offset="0.625"/><stop stop-opacity="1" stop-color="rgb(41.157532%, 24.754333%, 59.744263%)" offset="0.65625"/><stop stop-opacity="1" stop-color="rgb(41.35437%, 25.007629%, 60.046387%)" offset="0.6875"/><stop stop-opacity="1" stop-color="rgb(41.549683%, 25.260925%, 60.348511%)" offset="0.71875"/><stop stop-opacity="1" stop-color="rgb(41.746521%, 25.514221%, 60.650635%)" offset="0.75"/><stop stop-opacity="1" stop-color="rgb(41.941833%, 25.767517%, 60.952759%)" offset="0.78125"/><stop stop-opacity="1" stop-color="rgb(42.138672%, 26.020813%, 61.256409%)" offset="0.8125"/><stop stop-opacity="1" stop-color="rgb(42.333984%, 26.274109%, 61.558533%)" offset="0.84375"/><stop stop-opacity="1" stop-color="rgb(42.530823%, 26.527405%, 61.860657%)" offset="0.875"/><stop stop-opacity="1" stop-color="rgb(42.726135%, 26.780701%, 62.162781%)" offset="0.90625"/><stop stop-opacity="1" stop-color="rgb(42.922974%, 27.033997%, 62.464905%)" offset="0.9375"/><stop stop-opacity="1" stop-color="rgb(43.118286%, 27.287292%, 62.767029%)" offset="0.96875"/><stop stop-opacity="1" stop-color="rgb(43.315125%, 27.540588%, 63.070679%)" offset="1"/></linearGradient><clipPath id="8be6b6ca2e"><path d="M 29 41 L 32 41 L 32 49 L 29 49 Z M 29 41 " clip-rule="nonzero"/></clipPath><clipPath id="f8504d3d4f"><path d="M 30.785156 41.714844 C 30.296875 41.714844 29.902344 42.109375 29.902344 42.597656 L 29.902344 47.902344 C 29.902344 48.390625 30.296875 48.785156 30.785156 48.785156 C 31.273438 48.785156 31.671875 48.390625 31.671875 47.902344 L 31.671875 42.597656 C 31.671875 42.109375 31.273438 41.714844 30.785156 41.714844 Z M 30.785156 41.714844 " clip-rule="nonzero"/></clipPath><linearGradient x1="33.5" gradientTransform="matrix(0.884049, 0, 0, 0.884049, -1.039567, 16.960431)" y1="29.500002" x2="38.5" gradientUnits="userSpaceOnUse" y2="34.500002" id="e5ab8b7ce6"><stop stop-opacity="1" stop-color="rgb(40.724182%, 24.19281%, 59.074402%)" offset="0"/><stop stop-opacity="1" stop-color="rgb(40.794373%, 24.282837%, 59.181213%)" offset="0.03125"/><stop stop-opacity="1" stop-color="rgb(40.933228%, 24.464417%, 59.397888%)" offset="0.0625"/><stop stop-opacity="1" stop-color="rgb(41.073608%, 24.64447%, 59.614563%)" offset="0.09375"/><stop stop-opacity="1" stop-color="rgb(41.213989%, 24.82605%, 59.829712%)" offset="0.125"/><stop stop-opacity="1" stop-color="rgb(41.35437%, 25.007629%, 60.046387%)" offset="0.15625"/><stop stop-opacity="1" stop-color="rgb(41.494751%, 25.187683%, 60.261536%)" offset="0.1875"/><stop stop-opacity="1" stop-color="rgb(41.633606%, 25.369263%, 60.47821%)" offset="0.2"/><stop stop-opacity="1" stop-color="rgb(41.703796%, 25.45929%, 60.586548%)" offset="0.21875"/><stop stop-opacity="1" stop-color="rgb(41.773987%, 25.549316%, 60.693359%)" offset="0.25"/><stop stop-opacity="1" stop-color="rgb(41.914368%, 25.730896%, 60.910034%)" offset="0.28125"/><stop stop-opacity="1" stop-color="rgb(42.054749%, 25.912476%, 61.125183%)" offset="0.3125"/><stop stop-opacity="1" stop-color="rgb(42.195129%, 26.092529%, 61.341858%)" offset="0.34375"/><stop stop-opacity="1" stop-color="rgb(42.333984%, 26.274109%, 61.558533%)" offset="0.375"/><stop stop-opacity="1" stop-color="rgb(42.474365%, 26.454163%, 61.773682%)" offset="0.40625"/><stop stop-opacity="1" stop-color="rgb(42.614746%, 26.635742%, 61.990356%)" offset="0.4375"/><stop stop-opacity="1" stop-color="rgb(42.755127%, 26.817322%, 62.205505%)" offset="0.46875"/><stop stop-opacity="1" stop-color="rgb(42.895508%, 26.997375%, 62.42218%)" offset="0.5"/><stop stop-opacity="1" stop-color="rgb(43.034363%, 27.178955%, 62.637329%)" offset="0.53125"/><stop stop-opacity="1" stop-color="rgb(43.174744%, 27.360535%, 62.854004%)" offset="0.5625"/><stop stop-opacity="1" stop-color="rgb(43.315125%, 27.540588%, 63.070679%)" offset="0.59375"/><stop stop-opacity="1" stop-color="rgb(43.455505%, 27.722168%, 63.285828%)" offset="0.625"/><stop stop-opacity="1" stop-color="rgb(43.595886%, 27.902222%, 63.502502%)" offset="0.65625"/><stop stop-opacity="1" stop-color="rgb(43.734741%, 28.083801%, 63.717651%)" offset="0.6875"/><stop stop-opacity="1" stop-color="rgb(43.875122%, 28.265381%, 63.934326%)" offset="0.71875"/><stop stop-opacity="1" stop-color="rgb(44.015503%, 28.445435%, 64.149475%)" offset="0.75"/><stop stop-opacity="1" stop-color="rgb(44.155884%, 28.627014%, 64.36615%)" offset="0.78125"/><stop stop-opacity="1" stop-color="rgb(44.296265%, 28.807068%, 64.581299%)" offset="0.8"/><stop stop-opacity="1" stop-color="rgb(44.366455%, 28.898621%, 64.689636%)" offset="0.8125"/><stop stop-opacity="1" stop-color="rgb(44.43512%, 28.988647%, 64.797974%)" offset="0.84375"/><stop stop-opacity="1" stop-color="rgb(44.5755%, 29.170227%, 65.014648%)" offset="0.875"/><stop stop-opacity="1" stop-color="rgb(44.715881%, 29.350281%, 65.229797%)" offset="0.90625"/><stop stop-opacity="1" stop-color="rgb(44.856262%, 29.53186%, 65.446472%)" offset="0.9375"/><stop stop-opacity="1" stop-color="rgb(44.996643%, 29.711914%, 65.661621%)" offset="0.96875"/><stop stop-opacity="1" stop-color="rgb(45.135498%, 29.893494%, 65.878296%)" offset="1"/></linearGradient></defs><g mask="url(#956911d260)"><g transform="matrix(1, 0, 0, 1, 0, 18)"><g clip-path="url(#073a503f3c)"><g clip-path="url(#b5835ba809)"><g clip-path="url(#a747482d19)"><path fill="#f266ff" d="M 0.683594 0.730469 L 53.820312 0.730469 L 53.820312 53.761719 L 0.683594 53.761719 Z M 0.683594 0.730469 " fill-opacity="1" fill-rule="nonzero"/></g></g><g clip-path="url(#d3257ee8b2)"><g clip-path="url(#48b736c8d6)"><path fill="#ff637e" d="M 0.683594 0.730469 L 53.820312 0.730469 L 53.820312 53.761719 L 0.683594 53.761719 Z M 0.683594 0.730469 " fill-opacity="1" fill-rule="nonzero"/></g></g><g clip-path="url(#af541db22f)"><g clip-path="url(#be4076df8f)"><path fill="#00d7be" d="M 0.683594 0.730469 L 53.820312 0.730469 L 53.820312 53.761719 L 0.683594 53.761719 Z M 0.683594 0.730469 " fill-opacity="1" fill-rule="nonzero"/></g></g><g clip-path="url(#9e2e046095)"><g clip-path="url(#ef30d538d2)"><path fill="#1f93ff" d="M 0.683594 0.730469 L 53.820312 0.730469 L 53.820312 53.761719 L 0.683594 53.761719 Z M 0.683594 0.730469 " fill-opacity="1" fill-rule="nonzero"/></g></g><g clip-path="url(#991d34792e)"><g clip-path="url(#ae9b1a34d4)"><path fill="#ffd500" d="M 0.683594 0.730469 L 53.820312 0.730469 L 53.820312 53.761719 L 0.683594 53.761719 Z M 0.683594 0.730469 " fill-opacity="1" fill-rule="nonzero"/></g></g><g clip-path="url(#244c7f141f)"><g clip-path="url(#f919d6aee2)"><path fill="#1f93ff" d="M 0.683594 0.730469 L 53.820312 0.730469 L 53.820312 53.761719 L 0.683594 53.761719 Z M 0.683594 0.730469 " fill-opacity="1" fill-rule="nonzero"/></g></g><g clip-path="url(#b18ce7d7de)"><g clip-path="url(#852dcf96f6)"><path fill="#f266ff" d="M 0.683594 0.730469 L 53.820312 0.730469 L 53.820312 53.761719 L 0.683594 53.761719 Z M 0.683594 0.730469 " fill-opacity="1" fill-rule="nonzero"/></g></g><g clip-path="url(#4395dfd4ff)"><g clip-path="url(#c787b73fab)"><path fill="#1f93ff" d="M 0.683594 0.730469 L 53.820312 0.730469 L 53.820312 53.761719 L 0.683594 53.761719 Z M 0.683594 0.730469 " fill-opacity="1" fill-rule="nonzero"/></g></g><g clip-path="url(#4d0b7304d0)"><g clip-path="url(#a7468f8351)"><path fill="#ffcf00" d="M 0.683594 0.730469 L 53.820312 0.730469 L 53.820312 53.761719 L 0.683594 53.761719 Z M 0.683594 0.730469 " fill-opacity="1" fill-rule="nonzero"/></g></g><g clip-path="url(#72cc45a550)"><g clip-path="url(#8811313929)"><path fill="#61d742" d="M 0.683594 0.730469 L 53.820312 0.730469 L 53.820312 53.761719 L 0.683594 53.761719 Z M 0.683594 0.730469 " fill-opacity="1" fill-rule="nonzero"/></g></g><g clip-path="url(#d263611c7c)"><g clip-path="url(#fb4abd6c31)"><path fill="#1f93ff" d="M 0.683594 0.730469 L 53.820312 0.730469 L 53.820312 53.761719 L 0.683594 53.761719 Z M 0.683594 0.730469 " fill-opacity="1" fill-rule="nonzero"/></g></g><g clip-path="url(#1caadbc6e6)"><g clip-path="url(#f5adc0fa8f)"><path fill="#1f93ff" d="M 0.683594 0.730469 L 53.820312 0.730469 L 53.820312 53.761719 L 0.683594 53.761719 Z M 0.683594 0.730469 " fill-opacity="1" fill-rule="nonzero"/></g></g><g clip-path="url(#58943ef3d9)"><g clip-path="url(#b71762b5be)"><path fill="#ff7a78" d="M 0.683594 0.730469 L 53.820312 0.730469 L 53.820312 53.761719 L 0.683594 53.761719 Z M 0.683594 0.730469 " fill-opacity="1" fill-rule="nonzero"/></g></g><g clip-path="url(#8717364b89)"><g clip-path="url(#c5b0f2c754)"><path fill="#ffcf00" d="M 0.683594 0.730469 L 53.820312 0.730469 L 53.820312 53.761719 L 0.683594 53.761719 Z M 0.683594 0.730469 " fill-opacity="1" fill-rule="nonzero"/></g></g></g></g></g><g clip-path="url(#9f763e5e30)"><g clip-path="url(#fc1549decd)"><path fill="url(#0304f67a04)" d="M 0.730469 18.730469 L 0.730469 71.738281 L 53.738281 71.738281 L 53.738281 18.730469 Z M 0.730469 18.730469 " fill-rule="nonzero"/></g></g><g clip-path="url(#b1241b8887)"><g clip-path="url(#427774bcc7)"><path fill="url(#bf70b66b5a)" d="M 22.828125 41.714844 L 22.828125 48.785156 L 28.132812 48.785156 L 28.132812 41.714844 Z M 22.828125 41.714844 " fill-rule="nonzero"/></g></g><g clip-path="url(#8be6b6ca2e)"><g clip-path="url(#f8504d3d4f)"><path fill="url(#e5ab8b7ce6)" d="M 29.902344 41.714844 L 29.902344 48.785156 L 31.671875 48.785156 L 31.671875 41.714844 Z M 29.902344 41.714844 " fill-rule="nonzero"/></g></g></svg>