<svg xmlns="http://www.w3.org/2000/svg" xmlns:xlink="http://www.w3.org/1999/xlink" width="120" zoomAndPan="magnify" viewBox="0 0 90 89.999999" height="120" preserveAspectRatio="xMidYMid meet" version="1.0"><defs><clipPath id="27cae4acbd"><path d="M 11 4.035156 L 80 4.035156 L 80 56 L 11 56 Z M 11 4.035156 " clip-rule="nonzero"/></clipPath><clipPath id="89bb17c9a7"><path d="M 3 22 L 88.367188 22 L 88.367188 89.535156 L 3 89.535156 Z M 3 22 " clip-rule="nonzero"/></clipPath></defs><g clip-path="url(#27cae4acbd)"><path fill="#000000" d="M 16.320312 49.25 C 15.054688 45.851562 14.324219 42.125 14.324219 38.261719 C 14.324219 34.066406 15.121094 30.003906 16.71875 26.277344 C 19.117188 26.078125 21.582031 24.144531 23.777344 22.480469 C 24.777344 21.683594 25.84375 20.882812 26.441406 20.617188 C 29.039062 19.550781 30.503906 15.6875 30.835938 13.824219 C 31.035156 12.824219 30.96875 11.761719 30.703125 10.761719 C 35.230469 8.296875 40.359375 6.964844 45.6875 6.964844 C 45.6875 6.964844 45.6875 6.964844 45.753906 6.964844 C 47.550781 6.964844 49.28125 7.097656 50.945312 7.433594 C 50.015625 8.164062 48.949219 8.5625 47.75 8.496094 L 47.21875 8.496094 C 45.953125 8.429688 44.488281 8.363281 43.089844 9.230469 C 42.289062 9.695312 41.757812 10.296875 41.425781 11.027344 C 41.15625 11.625 41.15625 12.09375 41.222656 12.492188 C 40.957031 12.492188 40.691406 12.425781 40.359375 12.359375 C 38.828125 11.960938 37.363281 12.359375 36.5625 13.492188 C 35.628906 14.824219 35.699219 16.554688 36.761719 18.152344 C 37.761719 19.683594 39.625 20.484375 42.289062 20.484375 L 42.355469 20.484375 C 42.824219 20.484375 43.554688 20.484375 44.152344 20.082031 C 44.21875 20.214844 45.152344 21.214844 45.484375 21.480469 C 46.085938 22.015625 46.882812 22.148438 47.75 21.949219 C 47.882812 21.882812 48.015625 21.949219 48.015625 21.949219 C 48.75 22.148438 49.613281 22.414062 50.480469 22.746094 C 50.613281 22.8125 50.8125 22.945312 51.144531 23.214844 C 51.210938 23.28125 51.210938 23.480469 51.144531 23.613281 C 50.546875 23.8125 49.878906 23.945312 49.28125 24.011719 C 46.617188 24.34375 44.421875 23.945312 42.421875 22.878906 C 42.753906 23.480469 42.890625 24.210938 42.890625 24.878906 L 42.890625 26.011719 C 44.289062 26.542969 45.820312 26.808594 47.484375 26.808594 C 48.148438 26.808594 48.882812 26.742188 49.613281 26.675781 C 50.414062 26.542969 51.277344 26.410156 52.144531 26.144531 C 52.945312 25.875 53.476562 25.210938 53.675781 24.34375 C 53.875 23.414062 53.742188 22.214844 53.011719 21.414062 C 52.476562 20.882812 51.945312 20.550781 51.480469 20.351562 C 50.546875 19.949219 49.546875 19.683594 48.75 19.484375 C 48.148438 19.285156 47.550781 19.417969 47.152344 19.484375 C 47.015625 19.351562 45.753906 17.953125 45.417969 17.6875 C 44.554688 17.019531 43.421875 17.085938 42.6875 17.953125 C 42.621094 17.953125 42.289062 17.953125 42.289062 17.953125 C 41.089844 17.953125 39.558594 17.6875 38.894531 16.753906 C 38.761719 16.488281 38.226562 15.6875 38.695312 15.089844 C 38.894531 14.824219 39.492188 14.957031 39.625 14.957031 C 40.824219 15.289062 41.890625 15.222656 42.890625 14.824219 C 43.753906 14.421875 44.085938 13.890625 44.152344 13.425781 C 44.289062 12.957031 44.21875 12.425781 43.886719 11.894531 C 44.019531 11.761719 44.152344 11.558594 44.421875 11.425781 C 45.152344 11.027344 45.953125 11.027344 47.085938 11.09375 L 47.617188 11.09375 C 49.546875 11.160156 51.277344 10.5625 52.742188 9.296875 C 53.277344 8.832031 53.742188 8.429688 54.074219 8.097656 C 59.203125 9.5625 63.929688 12.292969 67.792969 16.15625 C 70.324219 18.683594 72.386719 21.613281 73.851562 24.746094 C 73.851562 24.8125 73.320312 29.207031 72.585938 31.535156 C 72.519531 31.738281 72.453125 31.871094 72.386719 32.003906 C 72.320312 31.871094 70.722656 29.007812 70.457031 28.605469 C 68.460938 25.078125 65.195312 23.148438 61.867188 23.679688 C 61.265625 23.746094 60.269531 24.34375 59.867188 25.210938 C 59.535156 25.875 59.601562 26.675781 60.003906 27.339844 C 60.203125 27.675781 60.46875 28.007812 60.601562 28.273438 C 60.734375 28.472656 60.933594 28.738281 60.933594 28.808594 C 60.933594 28.808594 60.933594 28.875 60.867188 28.941406 C 60.601562 29.605469 60.136719 30.070312 59.535156 30.207031 C 58.9375 30.40625 58.269531 30.207031 57.671875 29.738281 C 57.273438 29.40625 56.671875 29.339844 56.207031 29.539062 C 55.472656 29.804688 55.074219 30.671875 54.941406 31.9375 C 54.808594 32.933594 54.941406 34.132812 55.339844 35.265625 C 56.207031 34.800781 57.207031 34.667969 58.136719 34.867188 C 57.671875 34.265625 57.472656 33.402344 57.539062 32.667969 C 58.402344 33 59.402344 33 60.269531 32.734375 C 61.667969 32.335938 62.800781 31.269531 63.332031 29.871094 C 63.929688 28.339844 63.132812 27.273438 62.664062 26.609375 C 62.597656 26.476562 62.464844 26.34375 62.398438 26.210938 C 64.929688 25.875 66.992188 27.875 68.058594 29.804688 C 68.257812 30.207031 69.390625 32.203125 69.722656 32.800781 L 69.789062 32.867188 C 70.191406 33.535156 70.921875 34.800781 72.1875 34.867188 C 72.921875 34.933594 74.253906 34.601562 74.984375 32.269531 C 75.25 31.335938 75.515625 30.605469 75.652344 29.804688 C 76.382812 32.535156 76.78125 35.398438 76.78125 38.261719 C 76.78125 40.792969 76.449219 43.191406 75.851562 45.519531 C 76.449219 46.519531 76.78125 47.652344 76.78125 48.785156 L 76.78125 51.179688 C 78.449219 47.183594 79.445312 42.789062 79.445312 38.195312 C 79.511719 29.074219 75.984375 20.484375 69.589844 14.023438 C 63.199219 7.566406 54.675781 4.035156 45.617188 4.035156 C 45.617188 4.035156 45.617188 4.035156 45.550781 4.035156 C 36.5625 4.300781 28.039062 7.832031 21.582031 14.222656 C 15.1875 20.617188 11.660156 29.140625 11.660156 38.261719 C 11.660156 44.523438 13.390625 50.382812 16.320312 55.441406 Z M 23.511719 16.15625 C 24.976562 14.691406 26.574219 13.359375 28.304688 12.226562 C 28.304688 12.558594 28.304688 12.957031 28.238281 13.292969 C 27.839844 15.222656 26.574219 17.6875 25.375 18.152344 C 24.445312 18.550781 23.378906 19.417969 22.113281 20.351562 C 20.980469 21.214844 19.582031 22.347656 18.25 23.011719 C 19.648438 20.484375 21.378906 18.21875 23.511719 16.15625 Z M 23.511719 16.15625 " fill-opacity="1" fill-rule="nonzero"/></g><path fill="#000000" d="M 33.632812 49.582031 L 33.632812 48.917969 C 33.632812 48.183594 33.035156 47.585938 32.300781 47.585938 C 31.570312 47.585938 30.96875 48.183594 30.96875 48.917969 L 30.96875 49.648438 C 31.167969 49.648438 31.4375 49.582031 31.636719 49.582031 Z M 33.632812 49.582031 " fill-opacity="1" fill-rule="nonzero"/><path fill="#000000" d="M 28.304688 50.515625 L 28.304688 48.917969 C 28.304688 48.183594 27.707031 47.585938 26.972656 47.585938 C 26.242188 47.585938 25.640625 48.183594 25.640625 48.917969 L 25.640625 51.582031 C 25.640625 51.980469 25.84375 52.3125 26.109375 52.578125 C 26.640625 51.714844 27.441406 50.980469 28.304688 50.515625 Z M 28.304688 50.515625 " fill-opacity="1" fill-rule="nonzero"/><path fill="#000000" d="M 36.960938 58.90625 L 34.300781 58.90625 C 33.566406 58.90625 32.96875 59.503906 32.96875 60.238281 C 32.96875 60.96875 33.566406 61.570312 34.300781 61.570312 L 36.960938 61.570312 C 37.695312 61.570312 38.292969 60.96875 38.292969 60.238281 C 38.292969 59.503906 37.695312 58.90625 36.960938 58.90625 Z M 36.960938 58.90625 " fill-opacity="1" fill-rule="nonzero"/><path fill="#000000" d="M 42.289062 61.570312 L 44.953125 61.570312 C 45.6875 61.570312 46.285156 60.96875 46.285156 60.238281 C 46.285156 59.503906 45.6875 58.90625 44.953125 58.90625 L 42.289062 58.90625 C 41.558594 58.90625 40.957031 59.503906 40.957031 60.238281 C 40.957031 60.96875 41.558594 61.570312 42.289062 61.570312 Z M 42.289062 61.570312 " fill-opacity="1" fill-rule="nonzero"/><path fill="#000000" d="M 36.960938 64.230469 L 34.300781 64.230469 C 33.566406 64.230469 32.96875 64.832031 32.96875 65.5625 C 32.96875 66.296875 33.566406 66.894531 34.300781 66.894531 L 36.960938 66.894531 C 37.695312 66.894531 38.292969 66.296875 38.292969 65.5625 C 38.292969 64.832031 37.695312 64.230469 36.960938 64.230469 Z M 36.960938 64.230469 " fill-opacity="1" fill-rule="nonzero"/><path fill="#000000" d="M 42.289062 66.894531 L 44.953125 66.894531 C 45.6875 66.894531 46.285156 66.296875 46.285156 65.5625 C 46.285156 64.832031 45.6875 64.230469 44.953125 64.230469 L 42.289062 64.230469 C 41.558594 64.230469 40.957031 64.832031 40.957031 65.5625 C 40.957031 66.296875 41.558594 66.894531 42.289062 66.894531 Z M 42.289062 66.894531 " fill-opacity="1" fill-rule="nonzero"/><path fill="#000000" d="M 36.960938 69.558594 L 34.300781 69.558594 C 33.566406 69.558594 32.96875 70.160156 32.96875 70.890625 C 32.96875 71.625 33.566406 72.222656 34.300781 72.222656 L 36.960938 72.222656 C 37.695312 72.222656 38.292969 71.625 38.292969 70.890625 C 38.292969 70.160156 37.695312 69.558594 36.960938 69.558594 Z M 36.960938 69.558594 " fill-opacity="1" fill-rule="nonzero"/><path fill="#000000" d="M 46.285156 70.890625 C 46.285156 70.160156 45.6875 69.558594 44.953125 69.558594 L 42.289062 69.558594 C 41.558594 69.558594 40.957031 70.160156 40.957031 70.890625 C 40.957031 71.625 41.558594 72.222656 42.289062 72.222656 L 44.953125 72.222656 C 45.6875 72.222656 46.285156 71.625 46.285156 70.890625 Z M 46.285156 70.890625 " fill-opacity="1" fill-rule="nonzero"/><path fill="#000000" d="M 32.300781 44.921875 C 33.035156 44.921875 33.632812 44.320312 33.632812 43.589844 L 33.632812 40.925781 C 33.632812 40.195312 33.035156 39.59375 32.300781 39.59375 C 31.570312 39.59375 30.96875 40.195312 30.96875 40.925781 L 30.96875 43.589844 C 30.96875 44.320312 31.570312 44.921875 32.300781 44.921875 Z M 32.300781 44.921875 " fill-opacity="1" fill-rule="nonzero"/><path fill="#000000" d="M 26.972656 44.921875 C 27.707031 44.921875 28.304688 44.320312 28.304688 43.589844 L 28.304688 40.925781 C 28.304688 40.195312 27.707031 39.59375 26.972656 39.59375 C 26.242188 39.59375 25.640625 40.195312 25.640625 40.925781 L 25.640625 43.589844 C 25.640625 44.320312 26.242188 44.921875 26.972656 44.921875 Z M 26.972656 44.921875 " fill-opacity="1" fill-rule="nonzero"/><path fill="#000000" d="M 62.265625 53.578125 C 61.535156 53.578125 60.933594 54.175781 60.933594 54.910156 L 60.933594 57.574219 C 60.933594 58.304688 61.535156 58.90625 62.265625 58.90625 C 63 58.90625 63.597656 58.304688 63.597656 57.574219 L 63.597656 54.910156 C 63.597656 54.175781 63 53.578125 62.265625 53.578125 Z M 62.265625 53.578125 " fill-opacity="1" fill-rule="nonzero"/><path fill="#000000" d="M 67.59375 53.578125 C 66.859375 53.578125 66.261719 54.175781 66.261719 54.910156 L 66.261719 57.574219 C 66.261719 58.304688 66.859375 58.90625 67.59375 58.90625 C 68.324219 58.90625 68.925781 58.304688 68.925781 57.574219 L 68.925781 54.910156 C 68.925781 54.175781 68.324219 53.578125 67.59375 53.578125 Z M 67.59375 53.578125 " fill-opacity="1" fill-rule="nonzero"/><path fill="#000000" d="M 62.265625 61.570312 C 61.535156 61.570312 60.933594 62.167969 60.933594 62.898438 L 60.933594 65.5625 C 60.933594 66.296875 61.535156 66.894531 62.265625 66.894531 C 63 66.894531 63.597656 66.296875 63.597656 65.5625 L 63.597656 62.898438 C 63.597656 62.167969 63 61.570312 62.265625 61.570312 Z M 62.265625 61.570312 " fill-opacity="1" fill-rule="nonzero"/><path fill="#000000" d="M 67.59375 61.570312 C 66.859375 61.570312 66.261719 62.167969 66.261719 62.898438 L 66.261719 65.5625 C 66.261719 66.296875 66.859375 66.894531 67.59375 66.894531 C 68.324219 66.894531 68.925781 66.296875 68.925781 65.5625 L 68.925781 62.898438 C 68.925781 62.167969 68.324219 61.570312 67.59375 61.570312 Z M 67.59375 61.570312 " fill-opacity="1" fill-rule="nonzero"/><path fill="#000000" d="M 62.265625 69.558594 C 61.535156 69.558594 60.933594 70.160156 60.933594 70.890625 L 60.933594 73.554688 C 60.933594 74.285156 61.535156 74.886719 62.265625 74.886719 C 63 74.886719 63.597656 74.285156 63.597656 73.554688 L 63.597656 70.890625 C 63.597656 70.160156 63 69.558594 62.265625 69.558594 Z M 62.265625 69.558594 " fill-opacity="1" fill-rule="nonzero"/><path fill="#000000" d="M 67.59375 69.558594 C 66.859375 69.558594 66.261719 70.160156 66.261719 70.890625 L 66.261719 73.554688 C 66.261719 74.285156 66.859375 74.886719 67.59375 74.886719 C 68.324219 74.886719 68.925781 74.285156 68.925781 73.554688 L 68.925781 70.890625 C 68.925781 70.160156 68.324219 69.558594 67.59375 69.558594 Z M 67.59375 69.558594 " fill-opacity="1" fill-rule="nonzero"/><path fill="#000000" d="M 62.265625 77.550781 C 61.535156 77.550781 60.933594 78.148438 60.933594 78.882812 L 60.933594 81.546875 C 60.933594 82.277344 61.535156 82.875 62.265625 82.875 C 63 82.875 63.597656 82.277344 63.597656 81.546875 L 63.597656 78.882812 C 63.597656 78.148438 63 77.550781 62.265625 77.550781 Z M 62.265625 77.550781 " fill-opacity="1" fill-rule="nonzero"/><path fill="#000000" d="M 67.59375 77.550781 C 66.859375 77.550781 66.261719 78.148438 66.261719 78.882812 L 66.261719 81.546875 C 66.261719 82.277344 66.859375 82.875 67.59375 82.875 C 68.324219 82.875 68.925781 82.277344 68.925781 81.546875 L 68.925781 78.882812 C 68.925781 78.148438 68.324219 77.550781 67.59375 77.550781 Z M 67.59375 77.550781 " fill-opacity="1" fill-rule="nonzero"/><g clip-path="url(#89bb17c9a7)"><path fill="#000000" d="M 86.902344 86.871094 L 82.242188 86.871094 L 82.242188 84.476562 C 83.839844 83.742188 84.90625 81.8125 84.90625 79.414062 C 84.90625 76.417969 83.175781 74.085938 80.910156 74.085938 C 78.648438 74.085938 76.914062 76.417969 76.914062 79.414062 C 76.914062 81.746094 77.980469 83.742188 79.578125 84.476562 L 79.578125 86.871094 L 74.253906 86.871094 L 74.253906 48.984375 C 74.253906 47.71875 73.585938 46.519531 72.453125 45.785156 L 58.605469 37.929688 C 58.003906 37.53125 57.273438 37.53125 56.605469 37.863281 C 56.007812 38.195312 55.605469 38.863281 55.605469 39.527344 L 55.605469 44.253906 L 51.613281 44.253906 L 51.613281 39.59375 C 51.613281 37.398438 49.8125 35.597656 47.617188 35.597656 L 40.292969 35.597656 L 40.292969 24.878906 C 40.292969 24.144531 39.890625 23.414062 39.160156 23.148438 C 38.492188 22.8125 37.695312 22.945312 37.09375 23.414062 L 20.316406 37.730469 C 19.449219 38.460938 18.984375 39.460938 18.984375 40.59375 L 18.984375 86.871094 L 13.65625 86.871094 L 13.65625 84.476562 C 15.253906 83.742188 16.320312 81.8125 16.320312 79.414062 C 16.320312 76.417969 14.589844 74.085938 12.324219 74.085938 C 10.0625 74.085938 8.328125 76.417969 8.328125 79.414062 C 8.328125 81.746094 9.394531 83.742188 10.992188 84.476562 L 10.992188 86.871094 L 4.335938 86.871094 C 3.601562 86.871094 3.003906 87.472656 3.003906 88.203125 C 3.003906 88.9375 3.601562 89.535156 4.335938 89.535156 L 86.902344 89.535156 C 87.636719 89.535156 88.234375 88.9375 88.234375 88.203125 C 88.234375 87.472656 87.636719 86.871094 86.902344 86.871094 Z M 80.910156 76.75 C 81.445312 76.75 82.242188 77.816406 82.242188 79.414062 C 82.242188 81.011719 81.445312 82.078125 80.910156 82.078125 C 80.378906 82.078125 79.578125 81.011719 79.578125 79.414062 C 79.578125 77.816406 80.378906 76.75 80.910156 76.75 Z M 12.324219 76.75 C 12.855469 76.75 13.65625 77.816406 13.65625 79.414062 C 13.65625 81.011719 12.855469 82.078125 12.324219 82.078125 C 11.792969 82.078125 10.992188 81.011719 10.992188 79.414062 C 10.992188 77.816406 11.792969 76.75 12.324219 76.75 Z M 58.269531 40.792969 L 71.054688 48.117188 C 71.390625 48.316406 71.589844 48.648438 71.589844 49.050781 L 71.589844 86.871094 L 58.269531 86.871094 Z M 21.648438 40.59375 C 21.648438 40.261719 21.78125 39.992188 22.046875 39.792969 L 37.628906 26.476562 L 37.628906 49.582031 L 40.292969 49.582031 L 40.292969 38.261719 L 47.617188 38.261719 C 48.347656 38.261719 48.949219 38.863281 48.949219 39.59375 L 48.949219 44.320312 C 47.085938 44.65625 45.617188 46.253906 45.617188 48.25 L 45.617188 49.582031 L 47.617188 49.582031 C 47.816406 49.582031 48.082031 49.582031 48.28125 49.648438 L 48.28125 48.25 C 48.28125 47.519531 48.882812 46.917969 49.613281 46.917969 L 55.605469 46.917969 L 55.605469 86.871094 L 51.613281 86.871094 L 51.613281 56.242188 C 51.613281 54.042969 49.8125 52.246094 47.617188 52.246094 L 31.636719 52.246094 C 29.4375 52.246094 27.640625 54.042969 27.640625 56.242188 L 27.640625 86.871094 L 21.648438 86.871094 Z M 36.296875 86.871094 L 36.296875 78.882812 L 42.957031 78.882812 L 42.957031 86.871094 Z M 44.289062 76.21875 L 34.964844 76.21875 C 34.230469 76.21875 33.632812 76.816406 33.632812 77.550781 L 33.632812 86.871094 L 30.304688 86.871094 L 30.304688 56.242188 C 30.304688 55.507812 30.902344 54.910156 31.636719 54.910156 L 47.617188 54.910156 C 48.347656 54.910156 48.949219 55.507812 48.949219 56.242188 L 48.949219 86.871094 L 45.617188 86.871094 L 45.617188 77.550781 C 45.617188 76.816406 45.019531 76.21875 44.289062 76.21875 Z M 44.289062 76.21875 " fill-opacity="1" fill-rule="nonzero"/></g></svg>