<svg xmlns="http://www.w3.org/2000/svg" xmlns:xlink="http://www.w3.org/1999/xlink" width="120" zoomAndPan="magnify" viewBox="0 0 90 89.999999" height="120" preserveAspectRatio="xMidYMid meet" version="1.0"><defs><clipPath id="aec034682d"><path d="M 1.375 2.359375 L 88.375 2.359375 L 88.375 87.859375 L 1.375 87.859375 Z M 1.375 2.359375 " clip-rule="nonzero"/></clipPath></defs><g clip-path="url(#aec034682d)"><path fill="#737373" d="M 60.886719 60.351562 L 48.609375 67.5 C 48.246094 67.714844 47.875 67.886719 47.496094 68.023438 C 47.59375 67.796875 47.675781 67.558594 47.742188 67.304688 C 48.414062 64.800781 46.929688 62.1875 44.363281 61.355469 C 44.304688 61.335938 44.242188 61.320312 44.179688 61.308594 C 40.679688 60.675781 37.210938 59.421875 34.421875 58.414062 C 33.449219 58.0625 32.527344 57.730469 31.742188 57.476562 C 28.480469 56.417969 25.5625 57.710938 23.136719 59.113281 L 14.28125 64.242188 L 13.578125 63 C 13.15625 62.253906 12.464844 61.71875 11.636719 61.488281 C 10.808594 61.257812 9.941406 61.363281 9.195312 61.785156 L 5.753906 63.734375 C 4.210938 64.609375 3.664062 66.574219 4.539062 68.113281 L 14.664062 86.007812 C 15.085938 86.753906 15.777344 87.289062 16.605469 87.519531 C 16.890625 87.597656 17.179688 87.636719 17.46875 87.636719 C 18.015625 87.636719 18.558594 87.496094 19.042969 87.222656 L 22.488281 85.273438 C 24.03125 84.398438 24.574219 82.433594 23.703125 80.894531 L 22.8125 79.320312 L 24.511719 78.34375 L 40.105469 82.519531 C 41.003906 82.761719 41.894531 82.878906 42.769531 82.878906 C 44.542969 82.878906 46.257812 82.390625 47.824219 81.425781 L 70.101562 67.710938 C 72.273438 66.371094 72.96875 63.015625 71.558594 60.664062 C 70.878906 59.527344 68.101562 56.148438 60.886719 60.351562 Z M 21.105469 82.824219 L 17.660156 84.773438 C 17.535156 84.84375 17.414062 84.828125 17.355469 84.808594 C 17.292969 84.792969 17.183594 84.746094 17.113281 84.621094 L 6.984375 66.730469 C 6.878906 66.539062 6.949219 66.289062 7.136719 66.183594 L 10.582031 64.234375 C 10.652344 64.195312 10.71875 64.183594 10.773438 64.183594 C 10.820312 64.183594 10.859375 64.191406 10.886719 64.199219 C 10.945312 64.214844 11.058594 64.261719 11.128906 64.382812 L 21.253906 82.277344 C 21.363281 82.46875 21.292969 82.71875 21.105469 82.824219 Z M 68.628906 65.3125 L 46.347656 79.03125 C 44.660156 80.074219 42.804688 80.332031 40.835938 79.804688 L 24.675781 75.472656 C 24.316406 75.378906 23.929688 75.429688 23.609375 75.613281 L 21.429688 76.875 L 15.664062 66.691406 L 24.546875 61.546875 C 26.53125 60.398438 28.667969 59.433594 30.875 60.152344 C 31.617188 60.390625 32.472656 60.699219 33.464844 61.058594 C 36.328125 62.09375 39.878906 63.378906 43.578125 64.058594 C 44.6875 64.457031 45.308594 65.527344 45.027344 66.578125 C 44.726562 67.695312 43.890625 68.183594 42.539062 68.03125 C 40.75 67.660156 39.042969 67.175781 37.238281 66.660156 C 36.375 66.414062 35.480469 66.15625 34.5625 65.910156 C 33.8125 65.710938 33.042969 66.15625 32.839844 66.90625 C 32.640625 67.65625 33.085938 68.425781 33.835938 68.628906 C 34.730469 68.867188 35.613281 69.121094 36.464844 69.363281 C 38.347656 69.898438 40.121094 70.40625 42.039062 70.800781 C 42.046875 70.800781 42.085938 70.808594 42.09375 70.808594 L 43.621094 71.058594 C 45.980469 71.433594 48.074219 71.066406 50.023438 69.929688 L 62.300781 62.78125 C 65.617188 60.851562 68.238281 60.59375 69.148438 62.109375 C 69.761719 63.132812 69.496094 64.78125 68.628906 65.3125 Z M 11.425781 67.414062 C 11.523438 68.085938 11.058594 68.710938 10.386719 68.808594 C 9.714844 68.90625 9.089844 68.441406 8.992188 67.769531 C 8.894531 67.097656 9.359375 66.472656 10.03125 66.375 C 10.703125 66.277344 11.328125 66.742188 11.425781 67.414062 Z M 30.292969 19.207031 C 30.738281 20.070312 30.980469 20.542969 31.039062 20.871094 C 31.097656 21.203125 31.03125 21.730469 30.910156 22.691406 C 30.875 22.953125 30.839844 23.242188 30.800781 23.566406 C 30.566406 25.519531 31.625 27.355469 33.4375 28.128906 C 33.640625 28.21875 33.832031 28.296875 34.007812 28.375 L 30.371094 36.191406 C 30.148438 36.664062 30.210938 37.222656 30.527344 37.640625 C 30.847656 38.054688 31.371094 38.257812 31.886719 38.167969 L 35.808594 37.484375 L 37.808594 40.925781 C 38.0625 41.359375 38.523438 41.625 39.023438 41.625 C 39.046875 41.625 39.066406 41.625 39.089844 41.625 C 39.613281 41.601562 40.078125 41.289062 40.300781 40.8125 L 44.035156 32.785156 C 44.480469 32.65625 44.777344 32.589844 45 32.589844 C 45.332031 32.589844 45.84375 32.746094 46.769531 33.03125 C 46.820312 33.046875 46.875 33.0625 46.929688 33.082031 L 49.585938 39.25 C 49.792969 39.730469 50.25 40.058594 50.773438 40.097656 C 50.808594 40.097656 50.84375 40.101562 50.878906 40.101562 C 51.363281 40.101562 51.816406 39.851562 52.074219 39.4375 L 54.171875 36.050781 L 58.074219 36.851562 C 58.585938 36.957031 59.113281 36.765625 59.445312 36.359375 C 59.777344 35.957031 59.855469 35.398438 59.644531 34.917969 L 56.695312 28.066406 C 58.421875 27.261719 59.425781 25.472656 59.199219 23.566406 C 59.160156 23.242188 59.121094 22.953125 59.089844 22.691406 C 58.96875 21.730469 58.902344 21.203125 58.960938 20.871094 C 59.019531 20.542969 59.261719 20.070312 59.703125 19.207031 C 59.824219 18.972656 59.957031 18.714844 60.105469 18.421875 C 60.992188 16.667969 60.625 14.582031 59.191406 13.234375 C 58.949219 13.011719 58.738281 12.8125 58.546875 12.632812 C 57.835938 11.976562 57.445312 11.613281 57.277344 11.324219 C 57.109375 11.035156 56.992188 10.511719 56.777344 9.570312 C 56.71875 9.3125 56.652344 9.027344 56.578125 8.710938 C 56.128906 6.792969 54.507812 5.433594 52.542969 5.324219 C 52.214844 5.304688 51.921875 5.292969 51.664062 5.277344 C 50.695312 5.230469 50.160156 5.203125 49.847656 5.089844 C 49.535156 4.976562 49.109375 4.652344 48.335938 4.066406 C 48.128906 3.910156 47.894531 3.734375 47.632812 3.539062 C 46.058594 2.359375 43.941406 2.359375 42.363281 3.539062 C 42.101562 3.734375 41.871094 3.910156 41.660156 4.066406 C 40.890625 4.652344 40.464844 4.976562 40.148438 5.089844 C 39.835938 5.203125 39.304688 5.230469 38.335938 5.277344 C 38.074219 5.292969 37.785156 5.304688 37.457031 5.324219 C 35.492188 5.433594 33.871094 6.792969 33.421875 8.710938 C 33.34375 9.03125 33.28125 9.3125 33.222656 9.570312 C 33.007812 10.511719 32.886719 11.035156 32.722656 11.324219 C 32.554688 11.613281 32.164062 11.976562 31.453125 12.632812 C 31.261719 12.8125 31.046875 13.011719 30.808594 13.234375 C 29.375 14.582031 29.003906 16.667969 29.894531 18.421875 C 30.042969 18.714844 30.175781 18.972656 30.292969 19.207031 Z M 38.886719 37.183594 L 37.746094 35.222656 C 37.453125 34.714844 36.871094 34.445312 36.289062 34.546875 L 34.054688 34.933594 L 36.402344 29.898438 C 36.554688 30.125 36.734375 30.402344 36.957031 30.746094 C 37.101562 30.96875 37.257812 31.210938 37.4375 31.488281 C 38.179688 32.621094 39.351562 33.316406 40.625 33.453125 Z M 53.777344 33.101562 C 53.199219 32.980469 52.609375 33.238281 52.300781 33.738281 L 51.105469 35.664062 L 50.09375 33.3125 C 51.082031 33.03125 51.964844 32.402344 52.5625 31.488281 C 52.742188 31.214844 52.898438 30.96875 53.042969 30.75 C 53.566406 29.933594 53.855469 29.484375 54.113281 29.273438 C 54.121094 29.265625 54.132812 29.257812 54.144531 29.25 L 56 33.554688 Z M 32.734375 15.285156 C 32.96875 15.066406 33.179688 14.871094 33.367188 14.695312 C 35.25 12.949219 35.394531 12.695312 35.964844 10.195312 C 36.023438 9.945312 36.085938 9.664062 36.160156 9.351562 C 36.324219 8.652344 36.894531 8.171875 37.613281 8.132812 C 37.933594 8.113281 38.21875 8.097656 38.476562 8.085938 C 41.039062 7.960938 41.3125 7.859375 43.359375 6.308594 C 43.566406 6.152344 43.792969 5.980469 44.050781 5.789062 C 44.628906 5.355469 45.371094 5.355469 45.949219 5.789062 C 46.207031 5.980469 46.433594 6.152344 46.640625 6.308594 C 48.683594 7.859375 48.960938 7.960938 51.523438 8.085938 C 51.78125 8.097656 52.066406 8.113281 52.386719 8.132812 C 53.105469 8.171875 53.675781 8.652344 53.839844 9.351562 C 53.914062 9.664062 53.976562 9.945312 54.035156 10.195312 C 54.605469 12.695312 54.75 12.949219 56.632812 14.695312 C 56.820312 14.871094 57.03125 15.066406 57.265625 15.285156 C 57.789062 15.777344 57.921875 16.511719 57.59375 17.152344 C 57.449219 17.441406 57.320312 17.695312 57.203125 17.925781 C 56.03125 20.207031 55.980469 20.496094 56.300781 23.042969 C 56.332031 23.296875 56.367188 23.582031 56.40625 23.902344 C 56.492188 24.617188 56.117188 25.261719 55.457031 25.542969 C 55.160156 25.671875 54.898438 25.78125 54.660156 25.882812 C 52.292969 26.878906 52.070312 27.066406 50.679688 29.222656 C 50.539062 29.4375 50.382812 29.679688 50.207031 29.949219 C 49.8125 30.550781 49.113281 30.804688 48.425781 30.597656 C 48.117188 30.503906 47.84375 30.421875 47.597656 30.34375 C 46.371094 29.964844 45.6875 29.777344 45 29.777344 C 44.3125 29.777344 43.628906 29.964844 42.402344 30.34375 C 42.15625 30.421875 41.882812 30.503906 41.574219 30.597656 C 40.886719 30.804688 40.183594 30.550781 39.789062 29.949219 C 39.613281 29.679688 39.460938 29.4375 39.320312 29.222656 C 37.925781 27.066406 37.703125 26.878906 35.339844 25.882812 C 35.101562 25.78125 34.839844 25.671875 34.542969 25.542969 C 33.878906 25.261719 33.507812 24.617188 33.59375 23.902344 C 33.632812 23.582031 33.667969 23.296875 33.699219 23.042969 C 34.019531 20.496094 33.96875 20.207031 32.796875 17.925781 C 32.679688 17.695312 32.550781 17.441406 32.402344 17.152344 C 32.078125 16.511719 32.207031 15.777344 32.734375 15.285156 Z M 45 27.839844 C 50.390625 27.839844 54.773438 23.457031 54.773438 18.066406 C 54.773438 12.675781 50.390625 8.292969 45 8.292969 C 39.609375 8.292969 35.226562 12.675781 35.226562 18.066406 C 35.226562 23.457031 39.609375 27.839844 45 27.839844 Z M 45 11.105469 C 48.839844 11.105469 51.960938 14.226562 51.960938 18.066406 C 51.960938 21.90625 48.839844 25.027344 45 25.027344 C 41.160156 25.027344 38.039062 21.90625 38.039062 18.066406 C 38.039062 14.226562 41.160156 11.105469 45 11.105469 Z M 42.367188 21.589844 L 40.070312 19.296875 C 39.523438 18.746094 39.523438 17.855469 40.070312 17.304688 C 40.621094 16.757812 41.511719 16.757812 42.058594 17.304688 L 43.40625 18.652344 L 47.988281 14.496094 C 48.5625 13.972656 49.453125 14.019531 49.976562 14.59375 C 50.496094 15.167969 50.453125 16.058594 49.878906 16.578125 L 44.304688 21.636719 C 44.035156 21.878906 43.699219 22 43.359375 22 C 43 22 42.640625 21.863281 42.367188 21.589844 Z M 76.007812 16.589844 C 69.070312 16.589844 63.425781 22.230469 63.425781 29.167969 C 63.425781 36.105469 69.070312 41.75 76.007812 41.75 C 82.945312 41.75 88.589844 36.105469 88.589844 29.167969 C 88.589844 22.230469 82.945312 16.589844 76.007812 16.589844 Z M 76.007812 38.9375 C 70.621094 38.9375 66.238281 34.554688 66.238281 29.167969 C 66.238281 23.78125 70.621094 19.398438 76.007812 19.398438 C 81.394531 19.398438 85.777344 23.78125 85.777344 29.167969 C 85.777344 34.554688 81.394531 38.9375 76.007812 38.9375 Z M 80.96875 31.617188 C 81.097656 32.675781 80.808594 33.644531 80.136719 34.421875 C 79.503906 35.15625 78.53125 35.683594 77.414062 35.921875 L 77.414062 36.242188 C 77.414062 37.015625 76.785156 37.648438 76.007812 37.648438 C 75.230469 37.648438 74.601562 37.015625 74.601562 36.242188 L 74.601562 35.898438 C 72.832031 35.460938 71.484375 34.21875 71.058594 32.515625 C 70.871094 31.761719 71.328125 31 72.082031 30.8125 C 72.835938 30.625 73.597656 31.082031 73.785156 31.835938 C 74.054688 32.917969 75.207031 33.28125 76.121094 33.253906 C 76.90625 33.234375 77.683594 32.960938 78.011719 32.582031 C 78.117188 32.460938 78.21875 32.292969 78.175781 31.953125 C 78.136719 31.636719 78.046875 30.886719 75.789062 30.515625 C 72.097656 29.910156 71.449219 27.808594 71.390625 26.609375 C 71.296875 24.664062 72.578125 23.027344 74.601562 22.464844 L 74.601562 22.097656 C 74.601562 21.320312 75.230469 20.691406 76.007812 20.691406 C 76.785156 20.691406 77.414062 21.320312 77.414062 22.097656 L 77.414062 22.453125 C 78.71875 22.800781 79.9375 23.671875 80.59375 25.230469 C 80.894531 25.945312 80.558594 26.769531 79.839844 27.070312 C 79.125 27.371094 78.300781 27.035156 78 26.320312 C 77.472656 25.0625 76.160156 24.988281 75.472656 25.148438 C 75.160156 25.21875 74.152344 25.519531 74.199219 26.472656 C 74.210938 26.730469 74.246094 27.414062 76.246094 27.742188 C 79.125 28.214844 80.714844 29.519531 80.96875 31.617188 Z M 13.992188 41.75 C 20.929688 41.75 26.574219 36.105469 26.574219 29.167969 C 26.574219 22.230469 20.929688 16.589844 13.992188 16.589844 C 7.054688 16.589844 1.410156 22.230469 1.410156 29.167969 C 1.410156 36.105469 7.054688 41.75 13.992188 41.75 Z M 13.992188 19.398438 C 19.378906 19.398438 23.761719 23.78125 23.761719 29.167969 C 23.761719 34.554688 19.378906 38.9375 13.992188 38.9375 C 8.605469 38.9375 4.222656 34.554688 4.222656 29.167969 C 4.222656 23.78125 8.605469 19.398438 13.992188 19.398438 Z M 8.449219 34.019531 C 8.257812 34.714844 8.515625 35.4375 9.097656 35.859375 C 9.679688 36.285156 10.445312 36.304688 11.050781 35.910156 L 13.992188 33.980469 L 16.9375 35.910156 C 17.226562 36.097656 17.554688 36.191406 17.878906 36.191406 C 18.234375 36.191406 18.585938 36.082031 18.890625 35.859375 C 19.472656 35.4375 19.726562 34.714844 19.539062 34.019531 L 18.613281 30.625 L 21.355469 28.417969 C 21.917969 27.96875 22.136719 27.234375 21.914062 26.546875 C 21.691406 25.863281 21.082031 25.398438 20.363281 25.363281 L 16.847656 25.191406 L 15.601562 21.902344 C 15.34375 21.230469 14.714844 20.792969 13.992188 20.792969 C 13.273438 20.792969 12.640625 21.230469 12.386719 21.902344 L 11.136719 25.191406 L 7.621094 25.363281 C 6.902344 25.398438 6.292969 25.863281 6.070312 26.546875 C 5.847656 27.234375 6.066406 27.96875 6.628906 28.417969 L 9.371094 30.625 Z M 11.988281 27.964844 C 12.671875 27.929688 13.269531 27.496094 13.511719 26.859375 L 13.992188 25.589844 L 14.472656 26.859375 C 14.71875 27.496094 15.316406 27.929688 15.996094 27.964844 L 17.351562 28.03125 L 16.296875 28.878906 C 15.761719 29.308594 15.53125 30.011719 15.710938 30.671875 L 16.066406 31.980469 L 14.933594 31.238281 C 14.648438 31.050781 14.320312 30.957031 13.992188 30.957031 C 13.664062 30.957031 13.335938 31.050781 13.050781 31.234375 L 11.917969 31.980469 L 12.273438 30.671875 C 12.453125 30.011719 12.222656 29.308594 11.691406 28.878906 L 10.632812 28.03125 Z M 30.242188 51.683594 C 30.789062 52.234375 30.789062 53.125 30.242188 53.671875 C 29.964844 53.949219 29.605469 54.085938 29.246094 54.085938 C 28.886719 54.085938 28.527344 53.949219 28.253906 53.671875 L 21.578125 47 C 21.027344 46.449219 21.027344 45.558594 21.578125 45.011719 C 22.125 44.460938 23.015625 44.460938 23.566406 45.011719 Z M 45 43.214844 C 45.777344 43.214844 46.40625 43.84375 46.40625 44.621094 L 46.40625 54.0625 C 46.40625 54.839844 45.777344 55.46875 45 55.46875 C 44.222656 55.46875 43.59375 54.839844 43.59375 54.0625 L 43.59375 44.621094 C 43.59375 43.84375 44.222656 43.214844 45 43.214844 Z M 59.757812 51.683594 L 66.433594 45.011719 C 66.984375 44.460938 67.875 44.460938 68.421875 45.011719 C 68.972656 45.558594 68.972656 46.449219 68.421875 47 L 61.746094 53.671875 C 61.472656 53.949219 61.113281 54.085938 60.753906 54.085938 C 60.394531 54.085938 60.035156 53.949219 59.757812 53.671875 C 59.210938 53.125 59.210938 52.234375 59.757812 51.683594 Z M 59.757812 51.683594 " fill-opacity="1" fill-rule="nonzero"/></g></svg>