<svg xmlns="http://www.w3.org/2000/svg" xmlns:xlink="http://www.w3.org/1999/xlink" width="73" zoomAndPan="magnify" viewBox="0 0 54.75 90.75" height="121" preserveAspectRatio="xMidYMid meet" version="1.0"><defs><filter x="0%" y="0%" width="100%" height="100%" id="4be12e1b63"><feColorMatrix values="0 0 0 0 1 0 0 0 0 1 0 0 0 0 1 0 0 0 1 0" color-interpolation-filters="sRGB"/></filter><mask id="4fb5aaac7f"><g filter="url(#4be12e1b63)"><rect x="-5.475" width="65.7" fill="#000000" y="-9.075" height="108.9" fill-opacity="0.1"/></g></mask><clipPath id="2eb81212b3"><path d="M 15.964844 1.242188 L 28.890625 1.242188 L 28.890625 6.0625 L 15.964844 6.0625 Z M 15.964844 1.242188 " clip-rule="nonzero"/></clipPath><clipPath id="1ab1314359"><path d="M 15.992188 3.449219 C 17.210938 1.683594 19.417969 0.863281 21.492188 1.410156 L 28.089844 3.136719 C 28.980469 3.371094 29.109375 4.578125 28.285156 4.992188 L 26.835938 5.722656 C 26.230469 6.027344 25.527344 6.097656 24.875 5.914062 Z M 15.992188 3.449219 " clip-rule="nonzero"/></clipPath><clipPath id="6a2e34275f"><path d="M 32.480469 20.425781 L 47.5625 20.425781 L 47.5625 41.660156 L 32.480469 41.660156 Z M 32.480469 20.425781 " clip-rule="nonzero"/></clipPath><clipPath id="1d338724c1"><path d="M 33.988281 21.078125 C 35.335938 20.429688 36.566406 20.269531 37.535156 20.835938 C 38.882812 21.628906 39.964844 22.824219 40.644531 24.253906 L 47.125 37.890625 C 47.605469 38.902344 47.570312 40.085938 47.039062 41.070312 C 46.679688 41.738281 45.71875 41.726562 45.371094 41.054688 L 38.695312 28.101562 C 37.609375 25.996094 35.738281 24.382812 33.496094 23.621094 L 33.324219 23.5625 C 32.386719 23.242188 32.292969 21.953125 33.175781 21.5 Z M 33.988281 21.078125 " clip-rule="nonzero"/></clipPath><clipPath id="2ac9fea5bf"><path d="M 8.785156 12.21875 L 53.410156 12.21875 L 53.410156 31.195312 L 8.785156 31.195312 Z M 8.785156 12.21875 " clip-rule="nonzero"/></clipPath><clipPath id="120ad3429b"><path d="M 9.144531 13.375 C 9.785156 12.441406 10.96875 12.039062 12.046875 12.386719 L 25.082031 16.601562 C 25.726562 16.808594 26.433594 16.761719 27.042969 16.46875 L 34.71875 12.777344 C 35.328125 12.484375 36.03125 12.425781 36.683594 12.617188 L 38.453125 13.132812 C 41.394531 13.988281 43.800781 16.15625 44.960938 18.996094 L 46.125 21.839844 C 46.363281 22.421875 46.949219 22.796875 47.578125 22.765625 L 50.917969 22.605469 C 51.539062 22.574219 52.113281 22.964844 52.320312 23.554688 L 52.898438 25.214844 C 53.578125 27.171875 53.402344 29.339844 52.414062 31.160156 L 50.617188 26.445312 C 50.394531 25.855469 49.816406 25.46875 49.183594 25.492188 L 45.464844 25.617188 C 44.828125 25.636719 44.238281 25.269531 43.980469 24.683594 L 42.527344 21.402344 C 41.578125 19.257812 39.734375 17.621094 37.492188 16.929688 L 35.726562 16.386719 L 26.785156 20.558594 C 26.171875 20.84375 25.464844 20.882812 24.824219 20.664062 L 9.867188 15.566406 C 8.957031 15.253906 8.597656 14.164062 9.144531 13.375 " clip-rule="nonzero"/></clipPath><clipPath id="305c70b432"><path d="M 12.890625 5.035156 L 50.433594 5.035156 L 50.433594 20.320312 L 12.890625 20.320312 Z M 12.890625 5.035156 " clip-rule="nonzero"/></clipPath><clipPath id="846cc85e23"><path d="M 50.296875 17.746094 C 50.765625 19.085938 49.84375 20.761719 48.589844 20.097656 C 48.28125 19.9375 48.03125 19.664062 47.902344 19.324219 L 46.230469 14.933594 C 45.402344 12.761719 43.582031 11.105469 41.347656 10.484375 L 36.296875 9.082031 C 35.640625 8.902344 34.9375 8.960938 34.324219 9.25 L 26.6875 12.855469 C 26.074219 13.144531 25.371094 13.195312 24.722656 12.996094 L 13.855469 9.648438 C 12.980469 9.378906 12.617188 8.335938 13.140625 7.582031 C 13.765625 6.675781 14.910156 6.269531 15.964844 6.578125 L 24.546875 9.078125 C 25.199219 9.269531 25.902344 9.210938 26.515625 8.914062 L 33.867188 5.359375 C 34.480469 5.0625 35.183594 4.996094 35.84375 5.167969 L 42.226562 6.839844 C 45.160156 7.605469 47.53125 9.800781 48.527344 12.664062 Z M 50.296875 17.746094 " clip-rule="nonzero"/></clipPath><clipPath id="ee7d367559"><path d="M 45.40625 27.914062 L 50.640625 27.914062 L 50.640625 35.8125 L 45.40625 35.8125 Z M 45.40625 27.914062 " clip-rule="nonzero"/></clipPath><clipPath id="646bb2a9f8"><path d="M 47.535156 27.925781 C 48.167969 27.898438 48.75 28.269531 48.988281 28.855469 L 50.34375 32.167969 C 50.757812 33.179688 50.695312 34.332031 50.171875 35.292969 C 49.835938 35.914062 48.933594 35.878906 48.648438 35.230469 L 45.457031 28.023438 Z M 47.535156 27.925781 " clip-rule="nonzero"/></clipPath><clipPath id="8bfea3172f"><path d="M 1.195312 23.808594 L 8.992188 23.808594 L 8.992188 30.476562 L 1.195312 30.476562 Z M 1.195312 23.808594 " clip-rule="nonzero"/></clipPath><clipPath id="b1f86de181"><path d="M 1.742188 24.097656 L 1.902344 23.867188 L 7.523438 26.078125 C 8.132812 26.316406 8.578125 26.859375 8.703125 27.503906 L 8.929688 28.707031 C 9.140625 29.824219 8.027344 30.730469 6.980469 30.292969 L 3.097656 28.6875 C 1.285156 27.9375 0.628906 25.710938 1.742188 24.097656 " clip-rule="nonzero"/></clipPath><clipPath id="8118f3d50e"><path d="M 4.683594 18.167969 L 34.429688 18.167969 L 34.429688 46.480469 L 4.683594 46.480469 Z M 4.683594 18.167969 " clip-rule="nonzero"/></clipPath><clipPath id="10491e97af"><path d="M 5.011719 19.359375 C 5.671875 18.402344 6.898438 18.007812 7.996094 18.398438 L 14.199219 20.613281 C 14.816406 20.832031 15.277344 21.363281 15.40625 22.003906 L 16.789062 28.769531 C 16.921875 29.414062 17.371094 29.953125 17.984375 30.195312 L 27.167969 33.808594 C 29.535156 34.738281 31.558594 36.390625 32.941406 38.519531 L 34.003906 40.15625 C 34.375 40.726562 34.511719 41.417969 34.382812 42.082031 L 33.566406 46.382812 L 30.605469 42.210938 C 29.210938 40.242188 27.277344 38.703125 25.046875 37.777344 L 14.140625 33.261719 C 13.535156 33.007812 13.09375 32.464844 12.980469 31.816406 L 11.734375 24.90625 C 11.621094 24.261719 11.171875 23.722656 10.558594 23.492188 L 5.738281 21.679688 C 4.800781 21.328125 4.441406 20.1875 5.011719 19.359375 " clip-rule="nonzero"/></clipPath><clipPath id="f2b0068ab4"><path d="M 41.714844 43.195312 L 44.277344 43.195312 L 44.277344 47.609375 L 41.714844 47.609375 Z M 41.714844 43.195312 " clip-rule="nonzero"/></clipPath><clipPath id="c7770421b8"><path d="M 43.796875 43.804688 C 44.347656 44.804688 44.355469 46.023438 43.808594 47.027344 C 43.414062 47.753906 42.328125 47.816406 42.011719 47.050781 C 41.808594 46.5625 41.742188 46.015625 41.828125 45.484375 L 42.0625 44.050781 C 42.203125 43.191406 43.347656 42.992188 43.765625 43.753906 Z M 43.796875 43.804688 " clip-rule="nonzero"/></clipPath><clipPath id="b373acab56"><path d="M 19.453125 23.089844 L 41.40625 23.089844 L 41.40625 52.839844 L 19.453125 52.839844 Z M 19.453125 23.089844 " clip-rule="nonzero"/></clipPath><clipPath id="611d255ed6"><path d="M 34.722656 35.035156 C 33.488281 32.984375 31.589844 31.40625 29.347656 30.5625 L 20.925781 27.394531 C 20.3125 27.164062 19.859375 26.628906 19.734375 25.984375 L 19.527344 24.929688 C 19.300781 23.785156 20.410156 22.832031 21.507812 23.222656 L 30.988281 26.605469 C 33.613281 27.542969 35.820312 29.414062 37.171875 31.855469 L 40.207031 37.328125 C 40.535156 37.925781 40.652344 38.621094 40.535156 39.292969 L 39.203125 46.828125 C 39.085938 47.496094 39.226562 48.1875 39.597656 48.757812 L 41.382812 51.503906 C 40.550781 53.039062 38.394531 53.167969 37.386719 51.738281 L 36.082031 49.890625 C 35.691406 49.335938 35.539062 48.648438 35.65625 47.984375 L 37.046875 40.234375 C 37.167969 39.5625 37.039062 38.871094 36.6875 38.289062 Z M 34.722656 35.035156 " clip-rule="nonzero"/></clipPath><clipPath id="37ed3883bd"><path d="M 17.8125 41.144531 L 36.378906 41.144531 L 36.378906 53.351562 L 17.8125 53.351562 Z M 17.8125 41.144531 " clip-rule="nonzero"/></clipPath><clipPath id="ee5d4c5961"><path d="M 23.574219 44.886719 C 23.078125 44.394531 22.496094 43.996094 21.859375 43.714844 L 17.875 41.945312 L 18.644531 41.460938 C 19.203125 41.109375 19.90625 41.058594 20.507812 41.328125 L 22.242188 42.097656 C 22.882812 42.378906 23.46875 42.773438 23.96875 43.261719 L 28.421875 47.554688 C 28.925781 48.042969 29.507812 48.4375 30.148438 48.726562 L 34.355469 50.625 L 36.371094 53.257812 L 29.441406 50.136719 C 28.804688 49.847656 28.21875 49.449219 27.722656 48.960938 Z M 23.574219 44.886719 " clip-rule="nonzero"/></clipPath><clipPath id="13f5e9d5a3"><path d="M 26.636719 44.019531 L 32.890625 44.019531 L 32.890625 48.632812 L 26.636719 48.632812 Z M 26.636719 44.019531 " clip-rule="nonzero"/></clipPath><clipPath id="4dbefbe408"><path d="M 26.636719 44.046875 L 30.714844 45.859375 L 32.808594 48.597656 L 30.636719 47.628906 C 30 47.34375 29.421875 46.941406 28.941406 46.4375 Z M 26.636719 44.046875 " clip-rule="nonzero"/></clipPath><clipPath id="84be815770"><path d="M 9.503906 39.402344 L 25.609375 39.402344 L 25.609375 48.429688 L 9.503906 48.429688 Z M 9.503906 39.402344 " clip-rule="nonzero"/></clipPath><clipPath id="c658029381"><path d="M 25.550781 48.382812 L 15.789062 43.984375 C 13.5 42.953125 11.4375 41.472656 9.722656 39.632812 L 9.527344 39.421875 L 20.863281 44.539062 C 21.503906 44.824219 22.089844 45.214844 22.605469 45.6875 Z M 25.550781 48.382812 " clip-rule="nonzero"/></clipPath><clipPath id="747cd2a555"><path d="M 6.734375 35.195312 L 29.40625 35.195312 L 29.40625 43.914062 L 6.734375 43.914062 Z M 6.734375 35.195312 " clip-rule="nonzero"/></clipPath><clipPath id="a5344bb537"><path d="M 6.832031 35.253906 L 14.375 38.601562 C 14.972656 38.867188 15.671875 38.808594 16.222656 38.445312 L 17.511719 37.589844 C 18.0625 37.226562 18.761719 37.160156 19.367188 37.417969 L 23.730469 39.265625 C 25.984375 40.222656 27.921875 41.804688 29.3125 43.816406 L 19.949219 39.722656 C 19.34375 39.460938 18.640625 39.507812 18.082031 39.855469 L 16.929688 40.5625 C 16.367188 40.910156 15.667969 40.957031 15.0625 40.6875 L 9.40625 38.167969 C 8.773438 37.886719 8.238281 37.429688 7.863281 36.851562 Z M 6.832031 35.253906 " clip-rule="nonzero"/></clipPath><clipPath id="ce0a6f7da8"><path d="M 4 30.886719 L 16.480469 30.886719 L 16.480469 37.246094 L 4 37.246094 Z M 4 30.886719 " clip-rule="nonzero"/></clipPath><clipPath id="356e3e6839"><path d="M 4.027344 30.917969 L 16.441406 36.179688 L 15.542969 36.8125 C 15.007812 37.1875 14.3125 37.261719 13.710938 36.996094 L 6.660156 33.914062 C 6.03125 33.640625 5.492188 33.179688 5.117188 32.605469 Z M 4.027344 30.917969 " clip-rule="nonzero"/></clipPath><clipPath id="5c48e30342"><rect x="0" width="54" y="0" height="54"/></clipPath><clipPath id="eedff12fb6"><path d="M 0.894531 18.894531 L 53.902344 18.894531 L 53.902344 71.902344 L 0.894531 71.902344 Z M 0.894531 18.894531 " clip-rule="nonzero"/></clipPath></defs><g mask="url(#4fb5aaac7f)"><g transform="matrix(1, 0, 0, 1, 0, 18)"><g clip-path="url(#5c48e30342)"><g clip-path="url(#2eb81212b3)"><g clip-path="url(#1ab1314359)"><path fill="#f266ff" d="M 0.683594 0.730469 L 53.820312 0.730469 L 53.820312 53.761719 L 0.683594 53.761719 Z M 0.683594 0.730469 " fill-opacity="1" fill-rule="nonzero"/></g></g><g clip-path="url(#6a2e34275f)"><g clip-path="url(#1d338724c1)"><path fill="#ff637e" d="M 0.683594 0.730469 L 53.820312 0.730469 L 53.820312 53.761719 L 0.683594 53.761719 Z M 0.683594 0.730469 " fill-opacity="1" fill-rule="nonzero"/></g></g><g clip-path="url(#2ac9fea5bf)"><g clip-path="url(#120ad3429b)"><path fill="#00d7be" d="M 0.683594 0.730469 L 53.820312 0.730469 L 53.820312 53.761719 L 0.683594 53.761719 Z M 0.683594 0.730469 " fill-opacity="1" fill-rule="nonzero"/></g></g><g clip-path="url(#305c70b432)"><g clip-path="url(#846cc85e23)"><path fill="#1f93ff" d="M 0.683594 0.730469 L 53.820312 0.730469 L 53.820312 53.761719 L 0.683594 53.761719 Z M 0.683594 0.730469 " fill-opacity="1" fill-rule="nonzero"/></g></g><g clip-path="url(#ee7d367559)"><g clip-path="url(#646bb2a9f8)"><path fill="#ffd500" d="M 0.683594 0.730469 L 53.820312 0.730469 L 53.820312 53.761719 L 0.683594 53.761719 Z M 0.683594 0.730469 " fill-opacity="1" fill-rule="nonzero"/></g></g><g clip-path="url(#8bfea3172f)"><g clip-path="url(#b1f86de181)"><path fill="#1f93ff" d="M 0.683594 0.730469 L 53.820312 0.730469 L 53.820312 53.761719 L 0.683594 53.761719 Z M 0.683594 0.730469 " fill-opacity="1" fill-rule="nonzero"/></g></g><g clip-path="url(#8118f3d50e)"><g clip-path="url(#10491e97af)"><path fill="#f266ff" d="M 0.683594 0.730469 L 53.820312 0.730469 L 53.820312 53.761719 L 0.683594 53.761719 Z M 0.683594 0.730469 " fill-opacity="1" fill-rule="nonzero"/></g></g><g clip-path="url(#f2b0068ab4)"><g clip-path="url(#c7770421b8)"><path fill="#1f93ff" d="M 0.683594 0.730469 L 53.820312 0.730469 L 53.820312 53.761719 L 0.683594 53.761719 Z M 0.683594 0.730469 " fill-opacity="1" fill-rule="nonzero"/></g></g><g clip-path="url(#b373acab56)"><g clip-path="url(#611d255ed6)"><path fill="#ffcf00" d="M 0.683594 0.730469 L 53.820312 0.730469 L 53.820312 53.761719 L 0.683594 53.761719 Z M 0.683594 0.730469 " fill-opacity="1" fill-rule="nonzero"/></g></g><g clip-path="url(#37ed3883bd)"><g clip-path="url(#ee5d4c5961)"><path fill="#61d742" d="M 0.683594 0.730469 L 53.820312 0.730469 L 53.820312 53.761719 L 0.683594 53.761719 Z M 0.683594 0.730469 " fill-opacity="1" fill-rule="nonzero"/></g></g><g clip-path="url(#13f5e9d5a3)"><g clip-path="url(#4dbefbe408)"><path fill="#1f93ff" d="M 0.683594 0.730469 L 53.820312 0.730469 L 53.820312 53.761719 L 0.683594 53.761719 Z M 0.683594 0.730469 " fill-opacity="1" fill-rule="nonzero"/></g></g><g clip-path="url(#84be815770)"><g clip-path="url(#c658029381)"><path fill="#1f93ff" d="M 0.683594 0.730469 L 53.820312 0.730469 L 53.820312 53.761719 L 0.683594 53.761719 Z M 0.683594 0.730469 " fill-opacity="1" fill-rule="nonzero"/></g></g><g clip-path="url(#747cd2a555)"><g clip-path="url(#a5344bb537)"><path fill="#ff7a78" d="M 0.683594 0.730469 L 53.820312 0.730469 L 53.820312 53.761719 L 0.683594 53.761719 Z M 0.683594 0.730469 " fill-opacity="1" fill-rule="nonzero"/></g></g><g clip-path="url(#ce0a6f7da8)"><g clip-path="url(#356e3e6839)"><path fill="#ffcf00" d="M 0.683594 0.730469 L 53.820312 0.730469 L 53.820312 53.761719 L 0.683594 53.761719 Z M 0.683594 0.730469 " fill-opacity="1" fill-rule="nonzero"/></g></g></g></g></g><g clip-path="url(#eedff12fb6)"><path fill="#38004d" d="M 47.453125 62.183594 L 47.453125 57.179688 L 51.84375 54.667969 L 51.84375 59.671875 Z M 41.304688 54.667969 L 45.695312 57.179688 L 45.695312 62.183594 L 41.304688 59.671875 Z M 33.832031 59.417969 L 28.125 56.15625 L 28.125 52.785156 L 33.832031 49.523438 C 34.105469 49.371094 34.277344 49.078125 34.277344 48.761719 L 34.277344 41.734375 C 34.277344 41.417969 34.105469 41.128906 33.832031 40.972656 L 28.125 37.710938 L 28.125 34.339844 L 33.425781 31.308594 L 39.546875 34.371094 L 39.546875 37.34375 C 39.546875 37.660156 39.714844 37.949219 39.988281 38.105469 L 45.695312 41.367188 L 45.695312 49.128906 L 39.988281 52.390625 C 39.714844 52.546875 39.546875 52.839844 39.546875 53.152344 L 39.546875 59.695312 L 34.277344 62.988281 L 34.277344 60.179688 C 34.277344 59.867188 34.105469 59.574219 33.832031 59.417969 Z M 28.125 69.207031 L 28.125 64.207031 L 32.519531 61.695312 L 32.519531 66.695312 Z M 21.976562 61.695312 L 26.371094 64.207031 L 26.371094 69.207031 L 21.976562 66.695312 Z M 14.949219 59.695312 L 14.949219 53.152344 C 14.949219 52.839844 14.78125 52.546875 14.507812 52.390625 L 8.800781 49.128906 L 8.800781 41.367188 L 14.507812 38.105469 C 14.78125 37.949219 14.949219 37.660156 14.949219 37.34375 L 14.949219 34.371094 L 21.070312 31.308594 L 26.371094 34.339844 L 26.371094 37.710938 L 20.664062 40.972656 C 20.390625 41.128906 20.222656 41.417969 20.222656 41.734375 L 20.222656 48.761719 C 20.222656 49.078125 20.390625 49.371094 20.664062 49.523438 L 26.371094 52.785156 L 26.371094 56.15625 L 20.664062 59.417969 C 20.390625 59.574219 20.222656 59.867188 20.222656 60.179688 L 20.222656 62.988281 Z M 8.800781 62.183594 L 8.800781 57.179688 L 13.195312 54.667969 L 13.195312 59.671875 Z M 2.652344 54.667969 L 7.042969 57.179688 L 7.042969 62.183594 L 2.652344 59.671875 Z M 7.921875 55.65625 L 3.542969 53.152344 L 7.921875 50.652344 L 12.300781 53.152344 Z M 2.652344 31.828125 L 7.042969 34.339844 L 7.042969 39.34375 L 2.652344 36.832031 Z M 7.921875 27.8125 L 12.300781 30.316406 L 7.921875 32.816406 L 3.542969 30.316406 Z M 8.800781 34.339844 L 13.195312 31.828125 L 13.195312 36.832031 L 8.800781 39.34375 Z M 27.25 20.785156 L 31.625 23.289062 L 27.25 25.789062 L 22.871094 23.289062 Z M 28.125 27.3125 L 32.519531 24.800781 L 32.519531 29.804688 L 28.125 32.316406 Z M 21.976562 24.800781 L 26.371094 27.3125 L 26.371094 32.316406 L 21.976562 29.804688 Z M 27.25 44.234375 L 22.871094 41.734375 L 27.25 39.234375 L 31.625 41.734375 Z M 28.125 45.757812 L 32.519531 43.246094 L 32.519531 48.25 L 28.125 50.761719 Z M 21.976562 43.246094 L 26.371094 45.757812 L 26.371094 50.761719 L 21.976562 48.25 Z M 27.25 62.683594 L 22.871094 60.179688 L 27.25 57.679688 L 31.625 60.179688 Z M 46.574219 27.8125 L 50.953125 30.316406 L 46.574219 32.816406 L 42.195312 30.316406 Z M 41.304688 31.828125 L 45.695312 34.339844 L 45.695312 39.34375 L 41.304688 36.832031 Z M 46.574219 55.65625 L 42.195312 53.152344 L 46.574219 50.652344 L 50.953125 53.152344 Z M 47.453125 39.34375 L 47.453125 34.339844 L 51.84375 31.828125 L 51.84375 36.832031 Z M 53.15625 38.105469 C 53.433594 37.949219 53.601562 37.660156 53.601562 37.34375 L 53.601562 30.316406 C 53.601562 30 53.433594 29.707031 53.15625 29.554688 L 47.007812 26.039062 C 46.742188 25.886719 46.40625 25.886719 46.136719 26.039062 L 39.988281 29.554688 C 39.714844 29.707031 39.546875 30 39.546875 30.316406 L 39.546875 32.410156 L 34.277344 29.773438 L 34.277344 23.289062 C 34.277344 22.972656 34.105469 22.679688 33.832031 22.527344 L 27.683594 19.011719 C 27.417969 18.859375 27.082031 18.859375 26.8125 19.011719 L 20.664062 22.527344 C 20.390625 22.679688 20.222656 22.972656 20.222656 23.289062 L 20.222656 29.773438 L 14.949219 32.410156 L 14.949219 30.316406 C 14.949219 30 14.78125 29.707031 14.507812 29.554688 L 8.359375 26.039062 C 8.089844 25.886719 7.757812 25.886719 7.488281 26.039062 L 1.339844 29.554688 C 1.0625 29.707031 0.894531 30 0.894531 30.316406 L 0.894531 37.34375 C 0.894531 37.660156 1.0625 37.949219 1.339844 38.105469 L 7.042969 41.367188 L 7.042969 49.128906 L 1.339844 52.390625 C 1.0625 52.546875 0.894531 52.839844 0.894531 53.152344 L 0.894531 60.179688 C 0.894531 60.496094 1.0625 60.789062 1.339844 60.941406 L 7.488281 64.457031 C 7.621094 64.535156 7.773438 64.574219 7.921875 64.574219 C 8.074219 64.574219 8.226562 64.535156 8.359375 64.457031 L 14.050781 61.203125 L 20.222656 65.058594 L 20.222656 67.207031 C 20.222656 67.523438 20.390625 67.816406 20.664062 67.96875 L 26.8125 71.484375 C 26.945312 71.5625 27.097656 71.601562 27.25 71.601562 C 27.398438 71.601562 27.550781 71.5625 27.683594 71.484375 L 33.832031 67.96875 C 34.105469 67.816406 34.277344 67.523438 34.277344 67.207031 L 34.277344 65.058594 L 40.445312 61.203125 L 46.136719 64.457031 C 46.269531 64.535156 46.421875 64.574219 46.574219 64.574219 C 46.722656 64.574219 46.875 64.535156 47.007812 64.457031 L 53.15625 60.941406 C 53.433594 60.789062 53.601562 60.496094 53.601562 60.179688 L 53.601562 53.152344 C 53.601562 52.839844 53.433594 52.546875 53.15625 52.390625 L 47.453125 49.128906 L 47.453125 41.367188 L 53.15625 38.105469 " fill-opacity="1" fill-rule="nonzero"/></g></svg>