<svg xmlns="http://www.w3.org/2000/svg" xmlns:xlink="http://www.w3.org/1999/xlink" width="64" zoomAndPan="magnify" viewBox="0 0 48 48" height="64" preserveAspectRatio="xMidYMid meet" version="1.0"><defs><clipPath id="1716f3af6b"><path d="M 1.222656 0.734375 L 46.777344 0.734375 L 46.777344 46.285156 L 1.222656 46.285156 Z M 1.222656 0.734375 " clip-rule="nonzero"/></clipPath><clipPath id="8db5bfe6d9"><path d="M 24 0.734375 C 11.421875 0.734375 1.222656 10.929688 1.222656 23.511719 C 1.222656 36.089844 11.421875 46.285156 24 46.285156 C 36.578125 46.285156 46.777344 36.089844 46.777344 23.511719 C 46.777344 10.929688 36.578125 0.734375 24 0.734375 Z M 24 0.734375 " clip-rule="nonzero"/></clipPath><clipPath id="eef87cdda9"><path d="M 15.847656 4.71875 L 25.1875 4.71875 L 25.1875 8.203125 L 15.847656 8.203125 Z M 15.847656 4.71875 " clip-rule="nonzero"/></clipPath><clipPath id="4d12d70b10"><path d="M 15.867188 6.316406 C 16.746094 5.039062 18.339844 4.445312 19.839844 4.839844 L 24.605469 6.089844 C 25.25 6.257812 25.34375 7.132812 24.75 7.429688 L 23.699219 7.957031 C 23.261719 8.179688 22.753906 8.226562 22.28125 8.097656 Z M 15.867188 6.316406 " clip-rule="nonzero"/></clipPath><clipPath id="58cfdc4cf3"><path d="M 27.78125 18.578125 L 38.675781 18.578125 L 38.675781 33.917969 L 27.78125 33.917969 Z M 27.78125 18.578125 " clip-rule="nonzero"/></clipPath><clipPath id="fd5fbf7d82"><path d="M 28.867188 19.050781 C 29.839844 18.582031 30.730469 18.464844 31.429688 18.878906 C 32.402344 19.449219 33.183594 20.3125 33.675781 21.34375 L 38.359375 31.199219 C 38.703125 31.925781 38.679688 32.785156 38.296875 33.496094 C 38.035156 33.976562 37.34375 33.96875 37.089844 33.480469 L 32.265625 24.125 C 31.484375 22.605469 30.132812 21.4375 28.511719 20.886719 L 28.386719 20.84375 C 27.710938 20.613281 27.644531 19.683594 28.28125 19.355469 Z M 28.867188 19.050781 " clip-rule="nonzero"/></clipPath><clipPath id="8ff4569625"><path d="M 10.660156 12.648438 L 42.898438 12.648438 L 42.898438 26.359375 L 10.660156 26.359375 Z M 10.660156 12.648438 " clip-rule="nonzero"/></clipPath><clipPath id="a885c8aaca"><path d="M 10.917969 13.484375 C 11.382812 12.8125 12.238281 12.519531 13.015625 12.773438 L 22.433594 15.816406 C 22.898438 15.964844 23.410156 15.929688 23.847656 15.71875 L 29.394531 13.054688 C 29.835938 12.84375 30.34375 12.800781 30.816406 12.9375 L 32.09375 13.308594 C 34.21875 13.929688 35.957031 15.496094 36.796875 17.546875 L 37.636719 19.601562 C 37.808594 20.023438 38.230469 20.292969 38.6875 20.269531 L 41.097656 20.15625 C 41.546875 20.132812 41.960938 20.414062 42.109375 20.839844 L 42.527344 22.039062 C 43.019531 23.453125 42.894531 25.019531 42.179688 26.335938 L 40.882812 22.929688 C 40.71875 22.5 40.300781 22.222656 39.847656 22.238281 L 37.160156 22.328125 C 36.699219 22.34375 36.273438 22.078125 36.085938 21.65625 L 35.035156 19.285156 C 34.351562 17.738281 33.019531 16.554688 31.398438 16.054688 L 30.125 15.660156 L 23.664062 18.675781 C 23.21875 18.882812 22.710938 18.910156 22.246094 18.75 L 11.441406 15.066406 C 10.785156 14.84375 10.523438 14.054688 10.917969 13.484375 " clip-rule="nonzero"/></clipPath><clipPath id="27b4b0573c"><path d="M 13.625 7.460938 L 40.75 7.460938 L 40.75 18.503906 L 13.625 18.503906 Z M 13.625 7.460938 " clip-rule="nonzero"/></clipPath><clipPath id="5c68130a28"><path d="M 40.652344 16.644531 C 40.988281 17.613281 40.324219 18.824219 39.417969 18.34375 C 39.195312 18.226562 39.015625 18.03125 38.921875 17.785156 L 37.710938 14.609375 C 37.113281 13.042969 35.800781 11.847656 34.183594 11.398438 L 30.535156 10.386719 C 30.0625 10.253906 29.554688 10.296875 29.109375 10.507812 L 23.59375 13.109375 C 23.148438 13.320312 22.640625 13.355469 22.171875 13.210938 L 14.324219 10.792969 C 13.691406 10.597656 13.429688 9.847656 13.804688 9.300781 C 14.257812 8.644531 15.082031 8.351562 15.847656 8.574219 L 22.046875 10.382812 C 22.519531 10.519531 23.027344 10.476562 23.46875 10.261719 L 28.78125 7.695312 C 29.222656 7.480469 29.730469 7.429688 30.207031 7.554688 L 34.820312 8.761719 C 36.9375 9.320312 38.652344 10.902344 39.371094 12.972656 Z M 40.652344 16.644531 " clip-rule="nonzero"/></clipPath><clipPath id="c777a58e68"><path d="M 37.117188 24 L 40.898438 24 L 40.898438 29.695312 L 37.117188 29.695312 Z M 37.117188 24 " clip-rule="nonzero"/></clipPath><clipPath id="1260bf1b1e"><path d="M 38.652344 24 C 39.109375 23.976562 39.53125 24.246094 39.707031 24.671875 L 40.683594 27.0625 C 40.980469 27.792969 40.9375 28.625 40.5625 29.320312 C 40.316406 29.769531 39.664062 29.742188 39.457031 29.277344 L 37.152344 24.070312 Z M 38.652344 24 " clip-rule="nonzero"/></clipPath><clipPath id="b93d187cf4"><path d="M 5.175781 21.023438 L 10.808594 21.023438 L 10.808594 25.839844 L 5.175781 25.839844 Z M 5.175781 21.023438 " clip-rule="nonzero"/></clipPath><clipPath id="13cc9c7f34"><path d="M 5.570312 21.234375 L 5.6875 21.066406 L 9.746094 22.664062 C 10.1875 22.835938 10.511719 23.226562 10.597656 23.691406 L 10.765625 24.5625 C 10.917969 25.371094 10.113281 26.023438 9.355469 25.710938 L 6.550781 24.546875 C 5.242188 24.007812 4.765625 22.398438 5.570312 21.234375 " clip-rule="nonzero"/></clipPath><clipPath id="096dffcb4b"><path d="M 7.695312 17 L 29.1875 17 L 29.1875 37.402344 L 7.695312 37.402344 Z M 7.695312 17 " clip-rule="nonzero"/></clipPath><clipPath id="ae4eb036e2"><path d="M 7.933594 17.808594 C 8.410156 17.117188 9.296875 16.832031 10.089844 17.113281 L 14.570312 18.714844 C 15.015625 18.875 15.347656 19.257812 15.441406 19.71875 L 16.441406 24.609375 C 16.535156 25.074219 16.863281 25.464844 17.304688 25.636719 L 23.941406 28.25 C 25.648438 28.921875 27.109375 30.113281 28.113281 31.652344 L 28.878906 32.835938 C 29.144531 33.246094 29.246094 33.746094 29.152344 34.226562 L 28.5625 37.332031 L 26.425781 34.320312 C 25.414062 32.894531 24.019531 31.785156 22.40625 31.117188 L 14.53125 27.851562 C 14.089844 27.671875 13.773438 27.277344 13.6875 26.808594 L 12.792969 21.816406 C 12.707031 21.351562 12.382812 20.960938 11.941406 20.796875 L 8.460938 19.488281 C 7.78125 19.230469 7.523438 18.40625 7.933594 17.808594 " clip-rule="nonzero"/></clipPath><clipPath id="26c194dd87"><path d="M 34.449219 35.03125 L 36.300781 35.03125 L 36.300781 38.21875 L 34.449219 38.21875 Z M 34.449219 35.03125 " clip-rule="nonzero"/></clipPath><clipPath id="b5dca26553"><path d="M 35.953125 35.46875 C 36.351562 36.191406 36.355469 37.074219 35.964844 37.796875 C 35.679688 38.324219 34.894531 38.367188 34.664062 37.816406 C 34.515625 37.460938 34.46875 37.066406 34.53125 36.683594 L 34.699219 35.644531 C 34.800781 35.027344 35.628906 34.882812 35.933594 35.433594 Z M 35.953125 35.46875 " clip-rule="nonzero"/></clipPath><clipPath id="77dccd8a7d"><path d="M 18.367188 20.503906 L 34.226562 20.503906 L 34.226562 41.996094 L 18.367188 41.996094 Z M 18.367188 20.503906 " clip-rule="nonzero"/></clipPath><clipPath id="ac57025943"><path d="M 29.398438 29.132812 C 28.507812 27.652344 27.132812 26.511719 25.515625 25.902344 L 19.429688 23.613281 C 18.988281 23.445312 18.660156 23.058594 18.570312 22.59375 L 18.417969 21.832031 C 18.257812 21.003906 19.058594 20.316406 19.851562 20.601562 L 26.699219 23.042969 C 28.597656 23.722656 30.191406 25.074219 31.167969 26.835938 L 33.359375 30.789062 C 33.597656 31.222656 33.683594 31.726562 33.597656 32.210938 L 32.636719 37.65625 C 32.550781 38.136719 32.652344 38.636719 32.917969 39.046875 L 34.210938 41.03125 C 33.609375 42.140625 32.050781 42.234375 31.320312 41.203125 L 30.378906 39.867188 C 30.097656 39.46875 29.988281 38.96875 30.074219 38.488281 L 31.078125 32.890625 C 31.164062 32.40625 31.070312 31.90625 30.816406 31.484375 Z M 29.398438 29.132812 " clip-rule="nonzero"/></clipPath><clipPath id="a017e28d5d"><path d="M 17.183594 33.546875 L 30.597656 33.546875 L 30.597656 42.367188 L 17.183594 42.367188 Z M 17.183594 33.546875 " clip-rule="nonzero"/></clipPath><clipPath id="269b5b9b23"><path d="M 21.34375 36.25 C 20.988281 35.894531 20.566406 35.609375 20.105469 35.402344 L 17.226562 34.125 L 17.785156 33.777344 C 18.1875 33.523438 18.695312 33.488281 19.128906 33.679688 L 20.382812 34.234375 C 20.84375 34.441406 21.265625 34.726562 21.628906 35.078125 L 24.847656 38.179688 C 25.210938 38.53125 25.632812 38.816406 26.09375 39.023438 L 29.132812 40.398438 L 30.589844 42.300781 L 25.582031 40.042969 C 25.121094 39.835938 24.699219 39.546875 24.339844 39.195312 Z M 21.34375 36.25 " clip-rule="nonzero"/></clipPath><clipPath id="226ea3cb83"><path d="M 23.554688 35.625 L 28.074219 35.625 L 28.074219 38.957031 L 23.554688 38.957031 Z M 23.554688 35.625 " clip-rule="nonzero"/></clipPath><clipPath id="bd190686fd"><path d="M 23.558594 35.644531 L 26.503906 36.953125 L 28.015625 38.933594 L 26.449219 38.234375 C 25.988281 38.027344 25.570312 37.734375 25.21875 37.371094 Z M 23.558594 35.644531 " clip-rule="nonzero"/></clipPath><clipPath id="3a396890c6"><path d="M 11.179688 32.289062 L 22.8125 32.289062 L 22.8125 38.808594 L 11.179688 38.808594 Z M 11.179688 32.289062 " clip-rule="nonzero"/></clipPath><clipPath id="e2505cb159"><path d="M 22.769531 38.777344 L 15.71875 35.597656 C 14.066406 34.855469 12.574219 33.785156 11.339844 32.457031 L 11.195312 32.304688 L 19.386719 36 C 19.847656 36.207031 20.273438 36.488281 20.644531 36.828125 Z M 22.769531 38.777344 " clip-rule="nonzero"/></clipPath><clipPath id="686290719a"><path d="M 9.179688 29.25 L 25.554688 29.25 L 25.554688 35.550781 L 9.179688 35.550781 Z M 9.179688 29.25 " clip-rule="nonzero"/></clipPath><clipPath id="d38dda34ea"><path d="M 9.25 29.292969 L 14.695312 31.710938 C 15.128906 31.902344 15.636719 31.859375 16.03125 31.597656 L 16.964844 30.980469 C 17.359375 30.71875 17.867188 30.671875 18.304688 30.855469 L 21.457031 32.191406 C 23.085938 32.882812 24.484375 34.023438 25.488281 35.480469 L 18.726562 32.519531 C 18.289062 32.332031 17.78125 32.367188 17.375 32.617188 L 16.542969 33.128906 C 16.136719 33.378906 15.632812 33.414062 15.195312 33.21875 L 11.105469 31.398438 C 10.652344 31.195312 10.265625 30.863281 9.996094 30.445312 Z M 9.25 29.292969 " clip-rule="nonzero"/></clipPath><clipPath id="45efa47a34"><path d="M 7.175781 26.136719 L 16.21875 26.136719 L 16.21875 30.734375 L 7.175781 30.734375 Z M 7.175781 26.136719 " clip-rule="nonzero"/></clipPath><clipPath id="8e67f7c681"><path d="M 7.222656 26.160156 L 16.191406 29.960938 L 15.542969 30.417969 C 15.15625 30.691406 14.652344 30.742188 14.21875 30.550781 L 9.125 28.324219 C 8.667969 28.125 8.28125 27.792969 8.011719 27.378906 Z M 7.222656 26.160156 " clip-rule="nonzero"/></clipPath></defs><g clip-path="url(#1716f3af6b)"><g clip-path="url(#8db5bfe6d9)"><path fill="#000000" d="M 1.222656 0.734375 L 46.777344 0.734375 L 46.777344 46.285156 L 1.222656 46.285156 Z M 1.222656 0.734375 " fill-opacity="1" fill-rule="nonzero"/></g></g><g clip-path="url(#eef87cdda9)"><g clip-path="url(#4d12d70b10)"><path fill="#f266ff" d="M 4.804688 4.347656 L 43.195312 4.347656 L 43.195312 42.664062 L 4.804688 42.664062 Z M 4.804688 4.347656 " fill-opacity="1" fill-rule="nonzero"/></g></g><g clip-path="url(#58cfdc4cf3)"><g clip-path="url(#fd5fbf7d82)"><path fill="#ff637e" d="M 4.804688 4.347656 L 43.195312 4.347656 L 43.195312 42.664062 L 4.804688 42.664062 Z M 4.804688 4.347656 " fill-opacity="1" fill-rule="nonzero"/></g></g><g clip-path="url(#8ff4569625)"><g clip-path="url(#a885c8aaca)"><path fill="#00d7be" d="M 4.804688 4.347656 L 43.195312 4.347656 L 43.195312 42.664062 L 4.804688 42.664062 Z M 4.804688 4.347656 " fill-opacity="1" fill-rule="nonzero"/></g></g><g clip-path="url(#27b4b0573c)"><g clip-path="url(#5c68130a28)"><path fill="#1f93ff" d="M 4.804688 4.347656 L 43.195312 4.347656 L 43.195312 42.664062 L 4.804688 42.664062 Z M 4.804688 4.347656 " fill-opacity="1" fill-rule="nonzero"/></g></g><g clip-path="url(#c777a58e68)"><g clip-path="url(#1260bf1b1e)"><path fill="#ffd500" d="M 4.804688 4.347656 L 43.195312 4.347656 L 43.195312 42.664062 L 4.804688 42.664062 Z M 4.804688 4.347656 " fill-opacity="1" fill-rule="nonzero"/></g></g><g clip-path="url(#b93d187cf4)"><g clip-path="url(#13cc9c7f34)"><path fill="#1f93ff" d="M 4.804688 4.347656 L 43.195312 4.347656 L 43.195312 42.664062 L 4.804688 42.664062 Z M 4.804688 4.347656 " fill-opacity="1" fill-rule="nonzero"/></g></g><g clip-path="url(#096dffcb4b)"><g clip-path="url(#ae4eb036e2)"><path fill="#f266ff" d="M 4.804688 4.347656 L 43.195312 4.347656 L 43.195312 42.664062 L 4.804688 42.664062 Z M 4.804688 4.347656 " fill-opacity="1" fill-rule="nonzero"/></g></g><g clip-path="url(#26c194dd87)"><g clip-path="url(#b5dca26553)"><path fill="#1f93ff" d="M 4.804688 4.347656 L 43.195312 4.347656 L 43.195312 42.664062 L 4.804688 42.664062 Z M 4.804688 4.347656 " fill-opacity="1" fill-rule="nonzero"/></g></g><g clip-path="url(#77dccd8a7d)"><g clip-path="url(#ac57025943)"><path fill="#ffcf00" d="M 4.804688 4.347656 L 43.195312 4.347656 L 43.195312 42.664062 L 4.804688 42.664062 Z M 4.804688 4.347656 " fill-opacity="1" fill-rule="nonzero"/></g></g><g clip-path="url(#a017e28d5d)"><g clip-path="url(#269b5b9b23)"><path fill="#61d742" d="M 4.804688 4.347656 L 43.195312 4.347656 L 43.195312 42.664062 L 4.804688 42.664062 Z M 4.804688 4.347656 " fill-opacity="1" fill-rule="nonzero"/></g></g><g clip-path="url(#226ea3cb83)"><g clip-path="url(#bd190686fd)"><path fill="#1f93ff" d="M 4.804688 4.347656 L 43.195312 4.347656 L 43.195312 42.664062 L 4.804688 42.664062 Z M 4.804688 4.347656 " fill-opacity="1" fill-rule="nonzero"/></g></g><g clip-path="url(#3a396890c6)"><g clip-path="url(#e2505cb159)"><path fill="#1f93ff" d="M 4.804688 4.347656 L 43.195312 4.347656 L 43.195312 42.664062 L 4.804688 42.664062 Z M 4.804688 4.347656 " fill-opacity="1" fill-rule="nonzero"/></g></g><g clip-path="url(#686290719a)"><g clip-path="url(#d38dda34ea)"><path fill="#ff7a78" d="M 4.804688 4.347656 L 43.195312 4.347656 L 43.195312 42.664062 L 4.804688 42.664062 Z M 4.804688 4.347656 " fill-opacity="1" fill-rule="nonzero"/></g></g><g clip-path="url(#45efa47a34)"><g clip-path="url(#8e67f7c681)"><path fill="#ffcf00" d="M 4.804688 4.347656 L 43.195312 4.347656 L 43.195312 42.664062 L 4.804688 42.664062 Z M 4.804688 4.347656 " fill-opacity="1" fill-rule="nonzero"/></g></g></svg>