<svg xmlns="http://www.w3.org/2000/svg" xmlns:xlink="http://www.w3.org/1999/xlink" width="64" zoomAndPan="magnify" viewBox="0 0 48 48" height="64" preserveAspectRatio="xMidYMid meet" version="1.0"><defs><clipPath id="f4b50eb9ad"><path d="M 0.820312 0.332031 L 47.179688 0.332031 L 47.179688 46.691406 L 0.820312 46.691406 Z M 0.820312 0.332031 " clip-rule="nonzero"/></clipPath><clipPath id="6060adbb0d"><path d="M 24 0.332031 C 11.199219 0.332031 0.820312 10.707031 0.820312 23.511719 C 0.820312 36.3125 11.199219 46.691406 24 46.691406 C 36.800781 46.691406 47.179688 36.3125 47.179688 23.511719 C 47.179688 10.707031 36.800781 0.332031 24 0.332031 Z M 24 0.332031 " clip-rule="nonzero"/></clipPath><linearGradient x1="-0.000000130164" gradientTransform="matrix(0.181091, 0, 0, 0.181091, 0.820408, 0.330615)" y1="128" x2="255.99999" gradientUnits="userSpaceOnUse" y2="128" id="c88bd20b0d"><stop stop-opacity="1" stop-color="rgb(0%, 0%, 0%)" offset="0"/><stop stop-opacity="1" stop-color="rgb(0.175476%, 0.175476%, 0.175476%)" offset="0.0078125"/><stop stop-opacity="1" stop-color="rgb(0.526428%, 0.526428%, 0.526428%)" offset="0.015625"/><stop stop-opacity="1" stop-color="rgb(0.878906%, 0.878906%, 0.878906%)" offset="0.0234375"/><stop stop-opacity="1" stop-color="rgb(1.231384%, 1.231384%, 1.231384%)" offset="0.03125"/><stop stop-opacity="1" stop-color="rgb(1.583862%, 1.583862%, 1.583862%)" offset="0.0390625"/><stop stop-opacity="1" stop-color="rgb(1.93634%, 1.93634%, 1.93634%)" offset="0.046875"/><stop stop-opacity="1" stop-color="rgb(2.288818%, 2.288818%, 2.288818%)" offset="0.0546875"/><stop stop-opacity="1" stop-color="rgb(2.641296%, 2.641296%, 2.641296%)" offset="0.0625"/><stop stop-opacity="1" stop-color="rgb(2.993774%, 2.993774%, 2.993774%)" offset="0.0703125"/><stop stop-opacity="1" stop-color="rgb(3.346252%, 3.346252%, 3.346252%)" offset="0.078125"/><stop stop-opacity="1" stop-color="rgb(3.69873%, 3.69873%, 3.69873%)" offset="0.0859375"/><stop stop-opacity="1" stop-color="rgb(4.051208%, 4.051208%, 4.051208%)" offset="0.09375"/><stop stop-opacity="1" stop-color="rgb(4.402161%, 4.402161%, 4.402161%)" offset="0.101562"/><stop stop-opacity="1" stop-color="rgb(4.754639%, 4.754639%, 4.754639%)" offset="0.109375"/><stop stop-opacity="1" stop-color="rgb(5.107117%, 5.107117%, 5.107117%)" offset="0.117187"/><stop stop-opacity="1" stop-color="rgb(5.459595%, 5.459595%, 5.459595%)" offset="0.125"/><stop stop-opacity="1" stop-color="rgb(5.812073%, 5.812073%, 5.812073%)" offset="0.132812"/><stop stop-opacity="1" stop-color="rgb(6.164551%, 6.164551%, 6.164551%)" offset="0.140625"/><stop stop-opacity="1" stop-color="rgb(6.517029%, 6.517029%, 6.517029%)" offset="0.148438"/><stop stop-opacity="1" stop-color="rgb(6.869507%, 6.869507%, 6.869507%)" offset="0.15625"/><stop stop-opacity="1" stop-color="rgb(7.221985%, 7.221985%, 7.221985%)" offset="0.164062"/><stop stop-opacity="1" stop-color="rgb(7.574463%, 7.574463%, 7.574463%)" offset="0.171875"/><stop stop-opacity="1" stop-color="rgb(7.926941%, 7.926941%, 7.926941%)" offset="0.179688"/><stop stop-opacity="1" stop-color="rgb(8.277893%, 8.277893%, 8.277893%)" offset="0.1875"/><stop stop-opacity="1" stop-color="rgb(8.630371%, 8.630371%, 8.630371%)" offset="0.195312"/><stop stop-opacity="1" stop-color="rgb(8.982849%, 8.982849%, 8.982849%)" offset="0.203125"/><stop stop-opacity="1" stop-color="rgb(9.335327%, 9.335327%, 9.335327%)" offset="0.210938"/><stop stop-opacity="1" stop-color="rgb(9.687805%, 9.687805%, 9.687805%)" offset="0.21875"/><stop stop-opacity="1" stop-color="rgb(10.040283%, 10.040283%, 10.040283%)" offset="0.226562"/><stop stop-opacity="1" stop-color="rgb(10.392761%, 10.392761%, 10.392761%)" offset="0.234375"/><stop stop-opacity="1" stop-color="rgb(10.745239%, 10.745239%, 10.745239%)" offset="0.242188"/><stop stop-opacity="1" stop-color="rgb(11.097717%, 11.097717%, 11.097717%)" offset="0.25"/><stop stop-opacity="1" stop-color="rgb(11.450195%, 11.450195%, 11.450195%)" offset="0.257812"/><stop stop-opacity="1" stop-color="rgb(11.802673%, 11.802673%, 11.802673%)" offset="0.265625"/><stop stop-opacity="1" stop-color="rgb(12.155151%, 12.155151%, 12.155151%)" offset="0.273438"/><stop stop-opacity="1" stop-color="rgb(12.506104%, 12.506104%, 12.506104%)" offset="0.28125"/><stop stop-opacity="1" stop-color="rgb(12.858582%, 12.858582%, 12.858582%)" offset="0.289063"/><stop stop-opacity="1" stop-color="rgb(13.21106%, 13.21106%, 13.21106%)" offset="0.296875"/><stop stop-opacity="1" stop-color="rgb(13.563538%, 13.563538%, 13.563538%)" offset="0.304687"/><stop stop-opacity="1" stop-color="rgb(13.916016%, 13.916016%, 13.916016%)" offset="0.3125"/><stop stop-opacity="1" stop-color="rgb(14.268494%, 14.268494%, 14.268494%)" offset="0.320312"/><stop stop-opacity="1" stop-color="rgb(14.620972%, 14.620972%, 14.620972%)" offset="0.328125"/><stop stop-opacity="1" stop-color="rgb(14.97345%, 14.97345%, 14.97345%)" offset="0.335938"/><stop stop-opacity="1" stop-color="rgb(15.325928%, 15.325928%, 15.325928%)" offset="0.34375"/><stop stop-opacity="1" stop-color="rgb(15.678406%, 15.678406%, 15.678406%)" offset="0.351562"/><stop stop-opacity="1" stop-color="rgb(16.030884%, 16.030884%, 16.030884%)" offset="0.359375"/><stop stop-opacity="1" stop-color="rgb(16.381836%, 16.381836%, 16.381836%)" offset="0.367188"/><stop stop-opacity="1" stop-color="rgb(16.734314%, 16.734314%, 16.734314%)" offset="0.375"/><stop stop-opacity="1" stop-color="rgb(17.086792%, 17.086792%, 17.086792%)" offset="0.382812"/><stop stop-opacity="1" stop-color="rgb(17.43927%, 17.43927%, 17.43927%)" offset="0.390625"/><stop stop-opacity="1" stop-color="rgb(17.791748%, 17.791748%, 17.791748%)" offset="0.398438"/><stop stop-opacity="1" stop-color="rgb(18.144226%, 18.144226%, 18.144226%)" offset="0.40625"/><stop stop-opacity="1" stop-color="rgb(18.496704%, 18.496704%, 18.496704%)" offset="0.414062"/><stop stop-opacity="1" stop-color="rgb(18.849182%, 18.849182%, 18.849182%)" offset="0.421875"/><stop stop-opacity="1" stop-color="rgb(19.20166%, 19.20166%, 19.20166%)" offset="0.429688"/><stop stop-opacity="1" stop-color="rgb(19.554138%, 19.554138%, 19.554138%)" offset="0.4375"/><stop stop-opacity="1" stop-color="rgb(19.906616%, 19.906616%, 19.906616%)" offset="0.445312"/><stop stop-opacity="1" stop-color="rgb(20.257568%, 20.257568%, 20.257568%)" offset="0.453125"/><stop stop-opacity="1" stop-color="rgb(20.610046%, 20.610046%, 20.610046%)" offset="0.460938"/><stop stop-opacity="1" stop-color="rgb(20.962524%, 20.962524%, 20.962524%)" offset="0.46875"/><stop stop-opacity="1" stop-color="rgb(21.315002%, 21.315002%, 21.315002%)" offset="0.476563"/><stop stop-opacity="1" stop-color="rgb(21.66748%, 21.66748%, 21.66748%)" offset="0.484375"/><stop stop-opacity="1" stop-color="rgb(22.019958%, 22.019958%, 22.019958%)" offset="0.492188"/><stop stop-opacity="1" stop-color="rgb(22.372437%, 22.372437%, 22.372437%)" offset="0.5"/><stop stop-opacity="1" stop-color="rgb(22.724915%, 22.724915%, 22.724915%)" offset="0.507812"/><stop stop-opacity="1" stop-color="rgb(23.077393%, 23.077393%, 23.077393%)" offset="0.515625"/><stop stop-opacity="1" stop-color="rgb(23.429871%, 23.429871%, 23.429871%)" offset="0.523438"/><stop stop-opacity="1" stop-color="rgb(23.782349%, 23.782349%, 23.782349%)" offset="0.53125"/><stop stop-opacity="1" stop-color="rgb(24.134827%, 24.134827%, 24.134827%)" offset="0.539062"/><stop stop-opacity="1" stop-color="rgb(24.485779%, 24.485779%, 24.485779%)" offset="0.546875"/><stop stop-opacity="1" stop-color="rgb(24.838257%, 24.838257%, 24.838257%)" offset="0.554688"/><stop stop-opacity="1" stop-color="rgb(25.190735%, 25.190735%, 25.190735%)" offset="0.5625"/><stop stop-opacity="1" stop-color="rgb(25.543213%, 25.543213%, 25.543213%)" offset="0.570312"/><stop stop-opacity="1" stop-color="rgb(25.895691%, 25.895691%, 25.895691%)" offset="0.578125"/><stop stop-opacity="1" stop-color="rgb(26.248169%, 26.248169%, 26.248169%)" offset="0.585938"/><stop stop-opacity="1" stop-color="rgb(26.600647%, 26.600647%, 26.600647%)" offset="0.59375"/><stop stop-opacity="1" stop-color="rgb(26.953125%, 26.953125%, 26.953125%)" offset="0.601562"/><stop stop-opacity="1" stop-color="rgb(27.305603%, 27.305603%, 27.305603%)" offset="0.609375"/><stop stop-opacity="1" stop-color="rgb(27.658081%, 27.658081%, 27.658081%)" offset="0.617188"/><stop stop-opacity="1" stop-color="rgb(28.010559%, 28.010559%, 28.010559%)" offset="0.625"/><stop stop-opacity="1" stop-color="rgb(28.361511%, 28.361511%, 28.361511%)" offset="0.632812"/><stop stop-opacity="1" stop-color="rgb(28.713989%, 28.713989%, 28.713989%)" offset="0.640625"/><stop stop-opacity="1" stop-color="rgb(29.066467%, 29.066467%, 29.066467%)" offset="0.648438"/><stop stop-opacity="1" stop-color="rgb(29.418945%, 29.418945%, 29.418945%)" offset="0.65625"/><stop stop-opacity="1" stop-color="rgb(29.771423%, 29.771423%, 29.771423%)" offset="0.664062"/><stop stop-opacity="1" stop-color="rgb(30.123901%, 30.123901%, 30.123901%)" offset="0.671875"/><stop stop-opacity="1" stop-color="rgb(30.476379%, 30.476379%, 30.476379%)" offset="0.679688"/><stop stop-opacity="1" stop-color="rgb(30.828857%, 30.828857%, 30.828857%)" offset="0.6875"/><stop stop-opacity="1" stop-color="rgb(31.181335%, 31.181335%, 31.181335%)" offset="0.695312"/><stop stop-opacity="1" stop-color="rgb(31.533813%, 31.533813%, 31.533813%)" offset="0.703125"/><stop stop-opacity="1" stop-color="rgb(31.886292%, 31.886292%, 31.886292%)" offset="0.710938"/><stop stop-opacity="1" stop-color="rgb(32.237244%, 32.237244%, 32.237244%)" offset="0.71875"/><stop stop-opacity="1" stop-color="rgb(32.589722%, 32.589722%, 32.589722%)" offset="0.726562"/><stop stop-opacity="1" stop-color="rgb(32.9422%, 32.9422%, 32.9422%)" offset="0.734375"/><stop stop-opacity="1" stop-color="rgb(33.294678%, 33.294678%, 33.294678%)" offset="0.742188"/><stop stop-opacity="1" stop-color="rgb(33.647156%, 33.647156%, 33.647156%)" offset="0.75"/><stop stop-opacity="1" stop-color="rgb(33.999634%, 33.999634%, 33.999634%)" offset="0.757812"/><stop stop-opacity="1" stop-color="rgb(34.352112%, 34.352112%, 34.352112%)" offset="0.765625"/><stop stop-opacity="1" stop-color="rgb(34.70459%, 34.70459%, 34.70459%)" offset="0.773438"/><stop stop-opacity="1" stop-color="rgb(35.057068%, 35.057068%, 35.057068%)" offset="0.78125"/><stop stop-opacity="1" stop-color="rgb(35.409546%, 35.409546%, 35.409546%)" offset="0.789062"/><stop stop-opacity="1" stop-color="rgb(35.762024%, 35.762024%, 35.762024%)" offset="0.796875"/><stop stop-opacity="1" stop-color="rgb(36.114502%, 36.114502%, 36.114502%)" offset="0.804688"/><stop stop-opacity="1" stop-color="rgb(36.465454%, 36.465454%, 36.465454%)" offset="0.8125"/><stop stop-opacity="1" stop-color="rgb(36.817932%, 36.817932%, 36.817932%)" offset="0.820312"/><stop stop-opacity="1" stop-color="rgb(37.17041%, 37.17041%, 37.17041%)" offset="0.828125"/><stop stop-opacity="1" stop-color="rgb(37.522888%, 37.522888%, 37.522888%)" offset="0.835938"/><stop stop-opacity="1" stop-color="rgb(37.875366%, 37.875366%, 37.875366%)" offset="0.84375"/><stop stop-opacity="1" stop-color="rgb(38.227844%, 38.227844%, 38.227844%)" offset="0.851562"/><stop stop-opacity="1" stop-color="rgb(38.580322%, 38.580322%, 38.580322%)" offset="0.859375"/><stop stop-opacity="1" stop-color="rgb(38.9328%, 38.9328%, 38.9328%)" offset="0.867188"/><stop stop-opacity="1" stop-color="rgb(39.285278%, 39.285278%, 39.285278%)" offset="0.875"/><stop stop-opacity="1" stop-color="rgb(39.637756%, 39.637756%, 39.637756%)" offset="0.882812"/><stop stop-opacity="1" stop-color="rgb(39.990234%, 39.990234%, 39.990234%)" offset="0.890625"/><stop stop-opacity="1" stop-color="rgb(40.341187%, 40.341187%, 40.341187%)" offset="0.898438"/><stop stop-opacity="1" stop-color="rgb(40.693665%, 40.693665%, 40.693665%)" offset="0.90625"/><stop stop-opacity="1" stop-color="rgb(41.046143%, 41.046143%, 41.046143%)" offset="0.914062"/><stop stop-opacity="1" stop-color="rgb(41.398621%, 41.398621%, 41.398621%)" offset="0.921875"/><stop stop-opacity="1" stop-color="rgb(41.751099%, 41.751099%, 41.751099%)" offset="0.929688"/><stop stop-opacity="1" stop-color="rgb(42.103577%, 42.103577%, 42.103577%)" offset="0.9375"/><stop stop-opacity="1" stop-color="rgb(42.456055%, 42.456055%, 42.456055%)" offset="0.945312"/><stop stop-opacity="1" stop-color="rgb(42.808533%, 42.808533%, 42.808533%)" offset="0.953125"/><stop stop-opacity="1" stop-color="rgb(43.161011%, 43.161011%, 43.161011%)" offset="0.960937"/><stop stop-opacity="1" stop-color="rgb(43.513489%, 43.513489%, 43.513489%)" offset="0.96875"/><stop stop-opacity="1" stop-color="rgb(43.865967%, 43.865967%, 43.865967%)" offset="0.976562"/><stop stop-opacity="1" stop-color="rgb(44.216919%, 44.216919%, 44.216919%)" offset="0.984375"/><stop stop-opacity="1" stop-color="rgb(44.569397%, 44.569397%, 44.569397%)" offset="0.992188"/><stop stop-opacity="1" stop-color="rgb(44.921875%, 44.921875%, 44.921875%)" offset="1"/></linearGradient><clipPath id="25807f637b"><path d="M 17.027344 7.4375 L 25 7.4375 L 25 10.417969 L 17.027344 10.417969 Z M 17.027344 7.4375 " clip-rule="nonzero"/></clipPath><clipPath id="e7461a15dc"><path d="M 17.042969 8.800781 C 17.796875 7.710938 19.160156 7.203125 20.441406 7.539062 L 24.519531 8.609375 C 25.070312 8.753906 25.148438 9.5 24.640625 9.757812 L 23.746094 10.207031 C 23.367188 10.394531 22.933594 10.4375 22.53125 10.324219 Z M 17.042969 8.800781 " clip-rule="nonzero"/></clipPath><clipPath id="f438529b1f"><path d="M 27.234375 19.292969 L 36.550781 19.292969 L 36.550781 32.414062 L 27.234375 32.414062 Z M 27.234375 19.292969 " clip-rule="nonzero"/></clipPath><clipPath id="6837c40792"><path d="M 28.164062 19.695312 C 28.996094 19.296875 29.757812 19.195312 30.355469 19.546875 C 31.1875 20.035156 31.855469 20.777344 32.277344 21.660156 L 36.28125 30.085938 C 36.578125 30.710938 36.558594 31.441406 36.230469 32.050781 C 36.007812 32.464844 35.414062 32.457031 35.199219 32.039062 L 31.070312 24.035156 C 30.402344 22.734375 29.246094 21.738281 27.859375 21.265625 L 27.753906 21.230469 C 27.175781 21.03125 27.117188 20.234375 27.660156 19.957031 Z M 28.164062 19.695312 " clip-rule="nonzero"/></clipPath><clipPath id="45ff7e8dd8"><path d="M 12.589844 14.21875 L 40.164062 14.21875 L 40.164062 25.949219 L 12.589844 25.949219 Z M 12.589844 14.21875 " clip-rule="nonzero"/></clipPath><clipPath id="1161807967"><path d="M 12.808594 14.933594 C 13.207031 14.359375 13.9375 14.109375 14.605469 14.324219 L 22.660156 16.929688 C 23.058594 17.058594 23.492188 17.027344 23.871094 16.847656 L 28.613281 14.566406 C 28.992188 14.386719 29.425781 14.347656 29.832031 14.464844 L 30.921875 14.785156 C 32.742188 15.316406 34.230469 16.65625 34.945312 18.40625 L 35.664062 20.164062 C 35.8125 20.527344 36.171875 20.757812 36.5625 20.738281 L 38.625 20.640625 C 39.011719 20.621094 39.363281 20.859375 39.492188 21.226562 L 39.847656 22.253906 C 40.269531 23.460938 40.160156 24.800781 39.550781 25.925781 L 38.441406 23.011719 C 38.300781 22.648438 37.945312 22.410156 37.554688 22.421875 L 35.257812 22.5 C 34.863281 22.511719 34.5 22.285156 34.339844 21.925781 L 33.441406 19.898438 C 32.855469 18.570312 31.714844 17.558594 30.328125 17.132812 L 29.238281 16.796875 L 23.710938 19.375 C 23.332031 19.550781 22.898438 19.574219 22.5 19.441406 L 13.257812 16.289062 C 12.695312 16.097656 12.472656 15.421875 12.808594 14.933594 " clip-rule="nonzero"/></clipPath><clipPath id="d4678a9b8c"><path d="M 15.125 9.78125 L 38.328125 9.78125 L 38.328125 19.226562 L 15.125 19.226562 Z M 15.125 9.78125 " clip-rule="nonzero"/></clipPath><clipPath id="8ecfc37660"><path d="M 38.242188 17.636719 C 38.53125 18.464844 37.960938 19.5 37.1875 19.089844 C 36.996094 18.988281 36.84375 18.820312 36.761719 18.613281 L 35.730469 15.898438 C 35.21875 14.558594 34.09375 13.53125 32.710938 13.148438 L 29.589844 12.28125 C 29.183594 12.171875 28.75 12.207031 28.371094 12.386719 L 23.652344 14.613281 C 23.273438 14.792969 22.835938 14.824219 22.4375 14.699219 L 15.722656 12.632812 C 15.179688 12.464844 14.957031 11.824219 15.28125 11.355469 C 15.667969 10.796875 16.371094 10.542969 17.027344 10.734375 L 22.328125 12.28125 C 22.730469 12.398438 23.167969 12.363281 23.542969 12.179688 L 28.089844 9.980469 C 28.46875 9.796875 28.902344 9.757812 29.308594 9.863281 L 33.253906 10.894531 C 35.066406 11.371094 36.535156 12.726562 37.148438 14.496094 Z M 38.242188 17.636719 " clip-rule="nonzero"/></clipPath><clipPath id="54ac6aba7a"><path d="M 35.21875 23.917969 L 38.453125 23.917969 L 38.453125 28.800781 L 35.21875 28.800781 Z M 35.21875 23.917969 " clip-rule="nonzero"/></clipPath><clipPath id="ffa0948336"><path d="M 36.535156 23.929688 C 36.925781 23.910156 37.285156 24.140625 37.433594 24.503906 L 38.269531 26.550781 C 38.527344 27.175781 38.488281 27.886719 38.164062 28.480469 C 37.957031 28.863281 37.398438 28.839844 37.222656 28.441406 L 35.25 23.988281 Z M 36.535156 23.929688 " clip-rule="nonzero"/></clipPath><clipPath id="d37b109e2d"><path d="M 7.898438 21.382812 L 12.714844 21.382812 L 12.714844 25.503906 L 7.898438 25.503906 Z M 7.898438 21.382812 " clip-rule="nonzero"/></clipPath><clipPath id="fd460149c5"><path d="M 8.234375 21.5625 L 8.335938 21.417969 L 11.808594 22.785156 C 12.183594 22.933594 12.460938 23.269531 12.539062 23.667969 L 12.679688 24.410156 C 12.808594 25.101562 12.121094 25.660156 11.472656 25.390625 L 9.074219 24.398438 C 7.953125 23.933594 7.546875 22.558594 8.234375 21.5625 " clip-rule="nonzero"/></clipPath><clipPath id="791d688df7"><path d="M 10.054688 17.898438 L 28.4375 17.898438 L 28.4375 35.394531 L 10.054688 35.394531 Z M 10.054688 17.898438 " clip-rule="nonzero"/></clipPath><clipPath id="1e3553e30d"><path d="M 10.257812 18.632812 C 10.664062 18.042969 11.421875 17.796875 12.101562 18.039062 L 15.933594 19.40625 C 16.316406 19.542969 16.601562 19.871094 16.679688 20.269531 L 17.535156 24.449219 C 17.617188 24.847656 17.894531 25.179688 18.273438 25.328125 L 23.949219 27.5625 C 25.410156 28.136719 26.660156 29.160156 27.515625 30.476562 L 28.175781 31.488281 C 28.402344 31.835938 28.488281 32.265625 28.410156 32.675781 L 27.902344 35.332031 L 26.074219 32.753906 C 25.210938 31.539062 24.015625 30.585938 22.636719 30.015625 L 15.898438 27.226562 C 15.523438 27.070312 15.25 26.730469 15.179688 26.332031 L 14.410156 22.0625 C 14.339844 21.664062 14.0625 21.332031 13.683594 21.1875 L 10.707031 20.066406 C 10.125 19.851562 9.90625 19.144531 10.257812 18.632812 " clip-rule="nonzero"/></clipPath><clipPath id="fec54f1bd9"><path d="M 32.9375 33.363281 L 34.523438 33.363281 L 34.523438 36.089844 L 32.9375 36.089844 Z M 32.9375 33.363281 " clip-rule="nonzero"/></clipPath><clipPath id="409e90a054"><path d="M 34.222656 33.738281 C 34.566406 34.355469 34.570312 35.113281 34.234375 35.730469 C 33.988281 36.183594 33.316406 36.21875 33.121094 35.746094 C 32.996094 35.445312 32.957031 35.109375 33.007812 34.78125 L 33.152344 33.890625 C 33.238281 33.359375 33.945312 33.238281 34.207031 33.707031 Z M 34.222656 33.738281 " clip-rule="nonzero"/></clipPath><clipPath id="46bf9b35ec"><path d="M 19.183594 20.941406 L 32.75 20.941406 L 32.75 39.324219 L 19.183594 39.324219 Z M 19.183594 20.941406 " clip-rule="nonzero"/></clipPath><clipPath id="d32fbf6814"><path d="M 28.617188 28.320312 C 27.855469 27.054688 26.679688 26.078125 25.296875 25.558594 L 20.089844 23.597656 C 19.710938 23.457031 19.433594 23.125 19.355469 22.726562 L 19.226562 22.074219 C 19.089844 21.367188 19.773438 20.777344 20.453125 21.019531 L 26.308594 23.113281 C 27.929688 23.691406 29.296875 24.847656 30.128906 26.355469 L 32.007812 29.738281 C 32.210938 30.105469 32.28125 30.535156 32.210938 30.953125 L 31.386719 35.609375 C 31.3125 36.023438 31.402344 36.449219 31.628906 36.800781 L 32.734375 38.5 C 32.21875 39.449219 30.886719 39.527344 30.261719 38.644531 L 29.457031 37.5 C 29.214844 37.160156 29.121094 36.734375 29.195312 36.324219 L 30.054688 31.535156 C 30.128906 31.121094 30.046875 30.691406 29.832031 30.332031 Z M 28.617188 28.320312 " clip-rule="nonzero"/></clipPath><clipPath id="bfef4238c4"><path d="M 18.167969 32.097656 L 29.640625 32.097656 L 29.640625 39.640625 L 18.167969 39.640625 Z M 18.167969 32.097656 " clip-rule="nonzero"/></clipPath><clipPath id="26860ace34"><path d="M 21.730469 34.410156 C 21.421875 34.105469 21.0625 33.859375 20.667969 33.683594 L 18.207031 32.589844 L 18.683594 32.292969 C 19.027344 32.074219 19.460938 32.042969 19.832031 32.207031 L 20.90625 32.683594 C 21.300781 32.859375 21.664062 33.105469 21.972656 33.402344 L 24.722656 36.058594 C 25.035156 36.359375 25.394531 36.601562 25.789062 36.78125 L 28.390625 37.953125 L 29.636719 39.582031 L 25.351562 37.652344 C 24.960938 37.476562 24.597656 37.230469 24.292969 36.925781 Z M 21.730469 34.410156 " clip-rule="nonzero"/></clipPath><clipPath id="4c253fedf0"><path d="M 23.621094 33.871094 L 27.488281 33.871094 L 27.488281 36.726562 L 23.621094 36.726562 Z M 23.621094 33.871094 " clip-rule="nonzero"/></clipPath><clipPath id="c454203c1b"><path d="M 23.621094 33.890625 L 26.140625 35.007812 L 27.4375 36.703125 L 26.09375 36.105469 C 25.699219 35.929688 25.34375 35.679688 25.042969 35.367188 Z M 23.621094 33.890625 " clip-rule="nonzero"/></clipPath><clipPath id="9c4ea2096d"><path d="M 13.03125 31.019531 L 22.984375 31.019531 L 22.984375 36.597656 L 13.03125 36.597656 Z M 13.03125 31.019531 " clip-rule="nonzero"/></clipPath><clipPath id="885b458a71"><path d="M 22.949219 36.570312 L 16.917969 33.851562 C 15.503906 33.214844 14.226562 32.296875 13.167969 31.164062 L 13.046875 31.03125 L 20.054688 34.195312 C 20.449219 34.371094 20.8125 34.609375 21.128906 34.902344 Z M 22.949219 36.570312 " clip-rule="nonzero"/></clipPath><clipPath id="af407dbe32"><path d="M 11.320312 28.421875 L 25.332031 28.421875 L 25.332031 33.808594 L 11.320312 33.808594 Z M 11.320312 28.421875 " clip-rule="nonzero"/></clipPath><clipPath id="0704168d37"><path d="M 11.382812 28.457031 L 16.042969 30.523438 C 16.414062 30.691406 16.84375 30.652344 17.183594 30.429688 L 17.980469 29.898438 C 18.320312 29.675781 18.753906 29.632812 19.128906 29.792969 L 21.824219 30.9375 C 23.214844 31.527344 24.414062 32.503906 25.273438 33.75 L 19.488281 31.21875 C 19.113281 31.054688 18.679688 31.085938 18.332031 31.300781 L 17.621094 31.738281 C 17.273438 31.953125 16.839844 31.980469 16.46875 31.816406 L 12.972656 30.257812 C 12.582031 30.085938 12.25 29.800781 12.019531 29.441406 Z M 11.382812 28.457031 " clip-rule="nonzero"/></clipPath><clipPath id="b4d5cd8b7e"><path d="M 9.609375 25.757812 L 17.34375 25.757812 L 17.34375 29.6875 L 9.609375 29.6875 Z M 9.609375 25.757812 " clip-rule="nonzero"/></clipPath><clipPath id="4dfed23cd1"><path d="M 9.648438 25.777344 L 17.320312 29.027344 L 16.765625 29.417969 C 16.433594 29.652344 16.003906 29.695312 15.632812 29.535156 L 11.277344 27.628906 C 10.886719 27.457031 10.554688 27.175781 10.324219 26.820312 Z M 9.648438 25.777344 " clip-rule="nonzero"/></clipPath></defs><g clip-path="url(#f4b50eb9ad)"><g clip-path="url(#6060adbb0d)"><path fill="url(#c88bd20b0d)" d="M 0.820312 0.332031 L 0.820312 46.691406 L 47.179688 46.691406 L 47.179688 0.332031 Z M 0.820312 0.332031 " fill-rule="nonzero"/></g></g><g clip-path="url(#25807f637b)"><g clip-path="url(#e7461a15dc)"><path fill="#f266ff" d="M 7.582031 7.121094 L 40.417969 7.121094 L 40.417969 39.894531 L 7.582031 39.894531 Z M 7.582031 7.121094 " fill-opacity="1" fill-rule="nonzero"/></g></g><g clip-path="url(#f438529b1f)"><g clip-path="url(#6837c40792)"><path fill="#ff637e" d="M 7.582031 7.121094 L 40.417969 7.121094 L 40.417969 39.894531 L 7.582031 39.894531 Z M 7.582031 7.121094 " fill-opacity="1" fill-rule="nonzero"/></g></g><g clip-path="url(#45ff7e8dd8)"><g clip-path="url(#1161807967)"><path fill="#00d7be" d="M 7.582031 7.121094 L 40.417969 7.121094 L 40.417969 39.894531 L 7.582031 39.894531 Z M 7.582031 7.121094 " fill-opacity="1" fill-rule="nonzero"/></g></g><g clip-path="url(#d4678a9b8c)"><g clip-path="url(#8ecfc37660)"><path fill="#1f93ff" d="M 7.582031 7.121094 L 40.417969 7.121094 L 40.417969 39.894531 L 7.582031 39.894531 Z M 7.582031 7.121094 " fill-opacity="1" fill-rule="nonzero"/></g></g><g clip-path="url(#54ac6aba7a)"><g clip-path="url(#ffa0948336)"><path fill="#ffd500" d="M 7.582031 7.121094 L 40.417969 7.121094 L 40.417969 39.894531 L 7.582031 39.894531 Z M 7.582031 7.121094 " fill-opacity="1" fill-rule="nonzero"/></g></g><g clip-path="url(#d37b109e2d)"><g clip-path="url(#fd460149c5)"><path fill="#1f93ff" d="M 7.582031 7.121094 L 40.417969 7.121094 L 40.417969 39.894531 L 7.582031 39.894531 Z M 7.582031 7.121094 " fill-opacity="1" fill-rule="nonzero"/></g></g><g clip-path="url(#791d688df7)"><g clip-path="url(#1e3553e30d)"><path fill="#f266ff" d="M 7.582031 7.121094 L 40.417969 7.121094 L 40.417969 39.894531 L 7.582031 39.894531 Z M 7.582031 7.121094 " fill-opacity="1" fill-rule="nonzero"/></g></g><g clip-path="url(#fec54f1bd9)"><g clip-path="url(#409e90a054)"><path fill="#1f93ff" d="M 7.582031 7.121094 L 40.417969 7.121094 L 40.417969 39.894531 L 7.582031 39.894531 Z M 7.582031 7.121094 " fill-opacity="1" fill-rule="nonzero"/></g></g><g clip-path="url(#46bf9b35ec)"><g clip-path="url(#d32fbf6814)"><path fill="#ffcf00" d="M 7.582031 7.121094 L 40.417969 7.121094 L 40.417969 39.894531 L 7.582031 39.894531 Z M 7.582031 7.121094 " fill-opacity="1" fill-rule="nonzero"/></g></g><g clip-path="url(#bfef4238c4)"><g clip-path="url(#26860ace34)"><path fill="#61d742" d="M 7.582031 7.121094 L 40.417969 7.121094 L 40.417969 39.894531 L 7.582031 39.894531 Z M 7.582031 7.121094 " fill-opacity="1" fill-rule="nonzero"/></g></g><g clip-path="url(#4c253fedf0)"><g clip-path="url(#c454203c1b)"><path fill="#1f93ff" d="M 7.582031 7.121094 L 40.417969 7.121094 L 40.417969 39.894531 L 7.582031 39.894531 Z M 7.582031 7.121094 " fill-opacity="1" fill-rule="nonzero"/></g></g><g clip-path="url(#9c4ea2096d)"><g clip-path="url(#885b458a71)"><path fill="#1f93ff" d="M 7.582031 7.121094 L 40.417969 7.121094 L 40.417969 39.894531 L 7.582031 39.894531 Z M 7.582031 7.121094 " fill-opacity="1" fill-rule="nonzero"/></g></g><g clip-path="url(#af407dbe32)"><g clip-path="url(#0704168d37)"><path fill="#ff7a78" d="M 7.582031 7.121094 L 40.417969 7.121094 L 40.417969 39.894531 L 7.582031 39.894531 Z M 7.582031 7.121094 " fill-opacity="1" fill-rule="nonzero"/></g></g><g clip-path="url(#b4d5cd8b7e)"><g clip-path="url(#4dfed23cd1)"><path fill="#ffcf00" d="M 7.582031 7.121094 L 40.417969 7.121094 L 40.417969 39.894531 L 7.582031 39.894531 Z M 7.582031 7.121094 " fill-opacity="1" fill-rule="nonzero"/></g></g></svg>