<svg xmlns="http://www.w3.org/2000/svg" xmlns:xlink="http://www.w3.org/1999/xlink" width="104" zoomAndPan="magnify" viewBox="0 0 78 60" height="80" preserveAspectRatio="xMidYMid meet" version="1.0"><defs><clipPath id="a7fe00eaf3"><path d="M 49 31 L 76.910156 31 L 76.910156 43.101562 L 49 43.101562 Z M 49 31 " clip-rule="nonzero"/></clipPath><clipPath id="e6201bc367"><path d="M 1.160156 31 L 56 31 L 56 43.101562 L 1.160156 43.101562 Z M 1.160156 31 " clip-rule="nonzero"/></clipPath><clipPath id="dda7b9673d"><path d="M 44 31 L 56 31 L 56 43.101562 L 44 43.101562 Z M 44 31 " clip-rule="nonzero"/></clipPath><clipPath id="9767a545a8"><path d="M 16 16.851562 L 23 16.851562 L 23 28 L 16 28 Z M 16 16.851562 " clip-rule="nonzero"/></clipPath><clipPath id="c30dd6afba"><path d="M 52 16.851562 L 59 16.851562 L 59 28 L 52 28 Z M 52 16.851562 " clip-rule="nonzero"/></clipPath><clipPath id="1f9bc2df9d"><path d="M 5 16.851562 L 14 16.851562 L 14 28 L 5 28 Z M 5 16.851562 " clip-rule="nonzero"/></clipPath><clipPath id="95074393d2"><path d="M 25 16.851562 L 34 16.851562 L 34 28 L 25 28 Z M 25 16.851562 " clip-rule="nonzero"/></clipPath><clipPath id="5720364f1f"><path d="M 34 16.851562 L 44 16.851562 L 44 28 L 34 28 Z M 34 16.851562 " clip-rule="nonzero"/></clipPath><clipPath id="708b1a7d7e"><path d="M 43 16.851562 L 51 16.851562 L 51 28 L 43 28 Z M 43 16.851562 " clip-rule="nonzero"/></clipPath></defs><g clip-path="url(#a7fe00eaf3)"><path fill="#98c0ff" d="M 71.199219 43.101562 L 49.652344 43.101562 L 49.652344 31.746094 L 71.199219 31.746094 C 74.347656 31.746094 76.890625 34.28125 76.890625 37.421875 C 76.890625 40.550781 74.347656 43.101562 71.199219 43.101562 Z M 71.199219 43.101562 " fill-opacity="1" fill-rule="nonzero"/></g><g clip-path="url(#e6201bc367)"><path fill="#41f5c8" d="M 49.652344 43.101562 L 6.871094 43.101562 C 3.722656 43.101562 1.179688 40.550781 1.179688 37.421875 C 1.179688 34.28125 3.722656 31.746094 6.871094 31.746094 L 49.652344 31.746094 C 52.800781 31.746094 55.34375 34.28125 55.34375 37.421875 C 55.34375 40.550781 52.800781 43.101562 49.652344 43.101562 Z M 49.652344 43.101562 " fill-opacity="1" fill-rule="nonzero"/><path fill="#41f5c8" d="M 49.652344 43.101562 L 6.871094 43.101562 C 3.722656 43.101562 1.179688 40.550781 1.179688 37.421875 C 1.179688 34.28125 3.722656 31.746094 6.871094 31.746094 L 49.652344 31.746094 C 52.800781 31.746094 55.34375 34.28125 55.34375 37.421875 C 55.34375 40.550781 52.800781 43.101562 49.652344 43.101562 Z M 49.652344 43.101562 " fill-opacity="1" fill-rule="nonzero"/></g><g clip-path="url(#dda7b9673d)"><path fill="#00f2c3" d="M 49.652344 31.746094 L 44.726562 31.746094 C 47.878906 31.746094 50.421875 34.28125 50.421875 37.421875 C 50.421875 40.5625 47.878906 43.101562 44.726562 43.101562 L 49.652344 43.101562 C 52.800781 43.101562 55.34375 40.5625 55.34375 37.421875 C 55.34375 34.28125 52.800781 31.746094 49.652344 31.746094 Z M 49.652344 31.746094 " fill-opacity="1" fill-rule="nonzero"/></g><g clip-path="url(#9767a545a8)"><path fill="#7a5874" d="M 19.382812 16.910156 L 17.164062 16.910156 C 16.558594 16.910156 16.054688 17.410156 16.054688 18.015625 L 16.054688 26.1875 C 16.054688 26.789062 16.558594 27.292969 17.164062 27.292969 C 17.769531 27.292969 18.273438 26.789062 18.273438 26.1875 L 18.273438 23.738281 C 18.6875 23.738281 19.117188 23.738281 19.382812 23.738281 C 21.261719 23.738281 22.785156 22.203125 22.785156 20.332031 C 22.785156 18.457031 21.246094 16.910156 19.382812 16.910156 Z M 19.382812 21.527344 C 19.132812 21.527344 18.6875 21.527344 18.273438 21.527344 L 18.273438 19.121094 L 19.382812 19.121094 C 20.019531 19.121094 20.566406 19.667969 20.566406 20.316406 C 20.566406 20.964844 20.019531 21.527344 19.382812 21.527344 Z M 19.382812 21.527344 " fill-opacity="1" fill-rule="nonzero"/></g><g clip-path="url(#c30dd6afba)"><path fill="#7a5874" d="M 57.355469 25.136719 L 55.066406 25.136719 L 55.066406 23.207031 L 57.105469 23.207031 C 57.710938 23.207031 58.214844 22.707031 58.214844 22.101562 C 58.214844 21.496094 57.710938 20.996094 57.105469 20.996094 L 55.066406 20.996094 L 55.066406 19.0625 L 57.355469 19.0625 C 57.960938 19.0625 58.464844 18.5625 58.464844 17.957031 C 58.464844 17.351562 57.960938 16.851562 57.355469 16.851562 L 53.957031 16.851562 C 53.347656 16.851562 52.847656 17.351562 52.847656 17.957031 L 52.847656 26.246094 C 52.847656 26.847656 53.347656 27.351562 53.957031 27.351562 L 57.355469 27.351562 C 57.960938 27.351562 58.464844 26.847656 58.464844 26.246094 C 58.464844 25.640625 57.976562 25.136719 57.355469 25.136719 Z M 57.355469 25.136719 " fill-opacity="1" fill-rule="nonzero"/></g><g clip-path="url(#1f9bc2df9d)"><path fill="#7a5874" d="M 12.550781 16.910156 C 11.945312 16.910156 11.441406 17.410156 11.441406 18.015625 L 11.441406 23.632812 C 11.441406 24.003906 11.339844 24.476562 10.511719 24.886719 C 10.257812 25.019531 9.976562 25.078125 9.667969 25.078125 C 9.328125 25.078125 9.015625 24.992188 8.75 24.828125 C 8.101562 24.414062 7.980469 24.078125 7.980469 23.648438 L 7.980469 18.03125 C 7.980469 17.425781 7.480469 16.925781 6.871094 16.925781 C 6.265625 16.925781 5.765625 17.425781 5.765625 18.03125 L 5.765625 23.632812 C 5.765625 24.902344 6.371094 25.921875 7.566406 26.6875 C 8.1875 27.085938 8.898438 27.292969 9.667969 27.292969 C 10.332031 27.292969 10.953125 27.144531 11.515625 26.863281 C 13.289062 25.964844 13.675781 24.609375 13.675781 23.632812 L 13.675781 18.015625 C 13.660156 17.410156 13.15625 16.910156 12.550781 16.910156 Z M 12.550781 16.910156 " fill-opacity="1" fill-rule="nonzero"/></g><g clip-path="url(#95074393d2)"><path fill="#7a5874" d="M 28.640625 16.851562 L 26.289062 16.851562 C 25.683594 16.851562 25.179688 17.351562 25.179688 17.957031 L 25.179688 26.246094 C 25.179688 26.847656 25.667969 27.351562 26.273438 27.351562 C 26.316406 27.351562 27.070312 27.351562 27.765625 27.351562 C 28.136719 27.351562 28.492188 27.351562 28.714844 27.351562 C 31.257812 27.304688 33.089844 25.109375 33.089844 22.117188 C 33.105469 18.960938 31.316406 16.851562 28.640625 16.851562 Z M 30.238281 24.34375 C 29.835938 24.859375 29.320312 25.125 28.699219 25.125 C 28.402344 25.125 27.886719 25.125 27.398438 25.125 L 27.398438 19.0625 L 28.640625 19.0625 C 30.726562 19.0625 30.886719 21.394531 30.886719 22.101562 C 30.886719 23 30.664062 23.796875 30.238281 24.34375 Z M 30.238281 24.34375 " fill-opacity="1" fill-rule="nonzero"/></g><g clip-path="url(#5720364f1f)"><path fill="#7a5874" d="M 40.292969 17.691406 C 40.292969 17.675781 40.277344 17.675781 40.277344 17.660156 C 40.070312 17.175781 39.613281 16.867188 39.078125 16.867188 C 38.546875 16.867188 38.074219 17.175781 37.882812 17.675781 C 37.882812 17.691406 37.882812 17.691406 37.867188 17.707031 L 34.746094 25.847656 C 34.523438 26.421875 34.820312 27.054688 35.382812 27.277344 C 35.960938 27.5 36.59375 27.203125 36.816406 26.644531 L 37.320312 25.316406 L 40.808594 25.316406 L 41.3125 26.628906 C 41.476562 27.070312 41.902344 27.351562 42.347656 27.351562 C 42.480469 27.351562 42.613281 27.320312 42.730469 27.277344 C 43.308594 27.054688 43.589844 26.421875 43.382812 25.847656 Z M 38.164062 23.101562 L 39.066406 20.730469 L 39.964844 23.101562 Z M 38.164062 23.101562 " fill-opacity="1" fill-rule="nonzero"/></g><g clip-path="url(#708b1a7d7e)"><path fill="#7a5874" d="M 49.328125 16.851562 L 44.742188 16.851562 C 44.136719 16.851562 43.632812 17.351562 43.632812 17.957031 C 43.632812 18.5625 44.136719 19.0625 44.742188 19.0625 L 45.925781 19.0625 L 45.925781 26.246094 C 45.925781 26.847656 46.429688 27.351562 47.035156 27.351562 C 47.640625 27.351562 48.144531 26.847656 48.144531 26.246094 L 48.144531 19.0625 L 49.34375 19.0625 C 49.949219 19.0625 50.449219 18.5625 50.449219 17.957031 C 50.449219 17.351562 49.933594 16.851562 49.328125 16.851562 Z M 49.328125 16.851562 " fill-opacity="1" fill-rule="nonzero"/></g><path fill="#7a5874" d="M 63.09375 26.246094 C 63.09375 26.390625 63.066406 26.53125 63.007812 26.667969 C 62.953125 26.804688 62.875 26.921875 62.769531 27.027344 C 62.664062 27.128906 62.546875 27.210938 62.410156 27.265625 C 62.273438 27.324219 62.132812 27.351562 61.984375 27.351562 C 61.835938 27.351562 61.695312 27.324219 61.558594 27.265625 C 61.425781 27.210938 61.304688 27.128906 61.199219 27.027344 C 61.097656 26.921875 61.015625 26.804688 60.960938 26.667969 C 60.902344 26.53125 60.875 26.390625 60.875 26.246094 C 60.875 26.097656 60.902344 25.957031 60.960938 25.820312 C 61.015625 25.6875 61.097656 25.566406 61.199219 25.460938 C 61.304688 25.359375 61.425781 25.277344 61.558594 25.222656 C 61.695312 25.167969 61.835938 25.136719 61.984375 25.136719 C 62.132812 25.136719 62.273438 25.167969 62.410156 25.222656 C 62.546875 25.277344 62.664062 25.359375 62.769531 25.460938 C 62.875 25.566406 62.953125 25.6875 63.007812 25.820312 C 63.066406 25.957031 63.09375 26.097656 63.09375 26.246094 Z M 63.09375 26.246094 " fill-opacity="1" fill-rule="nonzero"/><path fill="#7a5874" d="M 67.707031 26.246094 C 67.707031 26.390625 67.679688 26.53125 67.625 26.667969 C 67.566406 26.804688 67.488281 26.921875 67.382812 27.027344 C 67.277344 27.128906 67.160156 27.210938 67.023438 27.265625 C 66.886719 27.324219 66.746094 27.351562 66.597656 27.351562 C 66.453125 27.351562 66.308594 27.324219 66.175781 27.265625 C 66.039062 27.210938 65.917969 27.128906 65.8125 27.027344 C 65.710938 26.921875 65.628906 26.804688 65.574219 26.667969 C 65.519531 26.53125 65.488281 26.390625 65.488281 26.246094 C 65.488281 26.097656 65.519531 25.957031 65.574219 25.820312 C 65.628906 25.6875 65.710938 25.566406 65.8125 25.460938 C 65.917969 25.359375 66.039062 25.277344 66.175781 25.222656 C 66.308594 25.167969 66.453125 25.136719 66.597656 25.136719 C 66.746094 25.136719 66.886719 25.167969 67.023438 25.222656 C 67.160156 25.277344 67.277344 25.359375 67.382812 25.460938 C 67.488281 25.566406 67.566406 25.6875 67.625 25.820312 C 67.679688 25.957031 67.707031 26.097656 67.707031 26.246094 Z M 67.707031 26.246094 " fill-opacity="1" fill-rule="nonzero"/><path fill="#7a5874" d="M 72.320312 26.246094 C 72.320312 26.390625 72.292969 26.53125 72.238281 26.667969 C 72.179688 26.804688 72.101562 26.921875 71.996094 27.027344 C 71.890625 27.128906 71.773438 27.210938 71.636719 27.265625 C 71.5 27.324219 71.359375 27.351562 71.210938 27.351562 C 71.066406 27.351562 70.921875 27.324219 70.789062 27.265625 C 70.652344 27.210938 70.53125 27.128906 70.429688 27.027344 C 70.324219 26.921875 70.242188 26.804688 70.1875 26.667969 C 70.132812 26.53125 70.101562 26.390625 70.101562 26.246094 C 70.101562 26.097656 70.132812 25.957031 70.1875 25.820312 C 70.242188 25.6875 70.324219 25.566406 70.429688 25.460938 C 70.53125 25.359375 70.652344 25.277344 70.789062 25.222656 C 70.921875 25.167969 71.066406 25.136719 71.210938 25.136719 C 71.359375 25.136719 71.5 25.167969 71.636719 25.222656 C 71.773438 25.277344 71.890625 25.359375 71.996094 25.460938 C 72.101562 25.566406 72.179688 25.6875 72.238281 25.820312 C 72.292969 25.957031 72.320312 26.097656 72.320312 26.246094 Z M 72.320312 26.246094 " fill-opacity="1" fill-rule="nonzero"/></svg>