<svg xmlns="http://www.w3.org/2000/svg" xmlns:xlink="http://www.w3.org/1999/xlink" width="104" zoomAndPan="magnify" viewBox="0 0 78 60" height="80" preserveAspectRatio="xMidYMid meet" version="1.0"><defs><clipPath id="dee8a857b9"><path d="M 59 6 L 68.226562 6 L 68.226562 19 L 59 19 Z M 59 6 " clip-rule="nonzero"/></clipPath><clipPath id="d6ece8acf1"><path d="M 58 52 L 66 52 L 66 59.296875 L 58 59.296875 Z M 58 52 " clip-rule="nonzero"/></clipPath><clipPath id="182120ff8b"><path d="M 58 52 L 66 52 L 66 59.296875 L 58 59.296875 Z M 58 52 " clip-rule="nonzero"/></clipPath><clipPath id="ae5f9aab98"><path d="M 33 55 L 37 55 L 37 59.296875 L 33 59.296875 Z M 33 55 " clip-rule="nonzero"/></clipPath><clipPath id="0c0883caed"><path d="M 37 53 L 41 53 L 41 59.296875 L 37 59.296875 Z M 37 53 " clip-rule="nonzero"/></clipPath><clipPath id="f4b314bd22"><path d="M 41 51 L 45 51 L 45 59.296875 L 41 59.296875 Z M 41 51 " clip-rule="nonzero"/></clipPath><clipPath id="5fb73e3290"><path d="M 18 56 L 25 56 L 25 59.296875 L 18 59.296875 Z M 18 56 " clip-rule="nonzero"/></clipPath><clipPath id="7c8e7f3b11"><path d="M 10 56 L 15 56 L 15 59.296875 L 10 59.296875 Z M 10 56 " clip-rule="nonzero"/></clipPath><clipPath id="9912e4424b"><path d="M 9.726562 27 L 24 27 L 24 56 L 9.726562 56 Z M 9.726562 27 " clip-rule="nonzero"/></clipPath><clipPath id="60d89d5dfe"><path d="M 27 0.796875 L 52 0.796875 L 52 26 L 27 26 Z M 27 0.796875 " clip-rule="nonzero"/></clipPath></defs><g clip-path="url(#dee8a857b9)"><path fill="#3a3683" d="M 66.34375 12.382812 L 66.734375 9.410156 C 66.910156 8.078125 66.015625 6.84375 64.695312 6.597656 L 64.480469 6.558594 C 63.871094 6.445312 63.242188 6.613281 62.773438 7.015625 C 61.984375 7.6875 61.453125 8.613281 61.269531 9.632812 L 59.878906 17.363281 C 59.863281 17.4375 59.914062 17.511719 59.988281 17.523438 L 68.226562 18.910156 C 65.964844 17.777344 66.027344 14.085938 66.34375 12.382812 Z M 66.34375 12.382812 " fill-opacity="1" fill-rule="nonzero"/></g><path fill="#ffffff" d="M 27.398438 40.960938 L 26.679688 41.289062 C 26.539062 41.351562 26.5625 41.554688 26.710938 41.585938 L 50.859375 46.753906 C 50.875 46.757812 50.890625 46.757812 50.910156 46.753906 L 51.015625 46.746094 C 53.167969 46.519531 54.914062 44.894531 55.300781 42.761719 L 59.851562 17.5 L 61.269531 9.632812 C 61.453125 8.613281 61.984375 7.6875 62.773438 7.015625 C 63.238281 6.617188 63.855469 6.449219 64.457031 6.554688 L 38.519531 1.894531 C 37.632812 1.734375 36.78125 2.320312 36.613281 3.210938 L 30.167969 37.425781 C 29.871094 38.988281 28.839844 40.304688 27.398438 40.960938 Z M 27.398438 40.960938 " fill-opacity="1" fill-rule="nonzero"/><path fill="#3a3683" d="M 41.652344 7.199219 C 41.664062 7.121094 41.734375 7.074219 41.808594 7.085938 L 55.621094 9.527344 C 55.695312 9.539062 55.746094 9.613281 55.730469 9.6875 L 55.363281 11.785156 C 55.351562 11.859375 55.277344 11.910156 55.203125 11.898438 L 41.390625 9.457031 C 41.316406 9.441406 41.269531 9.371094 41.28125 9.296875 Z M 41.652344 7.199219 " fill-opacity="1" fill-rule="nonzero"/><path fill="#ffccba" d="M 33.238281 35.679688 C 33.253906 35.605469 33.328125 35.558594 33.402344 35.574219 L 52.539062 39.652344 C 52.613281 39.667969 52.660156 39.738281 52.644531 39.8125 L 52.347656 41.207031 C 52.332031 41.28125 52.261719 41.332031 52.1875 41.316406 L 33.046875 37.238281 C 32.976562 37.222656 32.925781 37.148438 32.941406 37.074219 Z M 33.238281 35.679688 " fill-opacity="1" fill-rule="nonzero"/><path fill="#ffccba" d="M 34.21875 31.0625 C 34.234375 30.988281 34.304688 30.941406 34.378906 30.957031 L 53.519531 35.035156 C 53.589844 35.050781 53.640625 35.125 53.625 35.195312 L 53.328125 36.59375 C 53.3125 36.667969 53.238281 36.714844 53.164062 36.699219 L 34.027344 32.621094 C 33.953125 32.605469 33.90625 32.53125 33.921875 32.457031 Z M 34.21875 31.0625 " fill-opacity="1" fill-rule="nonzero"/><path fill="#ffccba" d="M 35.195312 26.445312 C 35.210938 26.371094 35.285156 26.324219 35.359375 26.339844 L 54.496094 30.417969 C 54.570312 30.433594 54.617188 30.507812 54.601562 30.582031 L 54.308594 31.976562 C 54.289062 32.050781 54.21875 32.097656 54.144531 32.082031 L 35.007812 28.003906 C 34.933594 27.988281 34.886719 27.914062 34.902344 27.839844 Z M 35.195312 26.445312 " fill-opacity="1" fill-rule="nonzero"/><path fill="#ffccba" d="M 36.175781 21.828125 C 36.191406 21.753906 36.265625 21.707031 36.339844 21.722656 L 55.476562 25.800781 C 55.550781 25.816406 55.597656 25.890625 55.582031 25.964844 L 55.285156 27.359375 C 55.269531 27.433594 55.195312 27.480469 55.125 27.464844 L 35.984375 23.386719 C 35.910156 23.371094 35.863281 23.296875 35.878906 23.222656 Z M 36.175781 21.828125 " fill-opacity="1" fill-rule="nonzero"/><path fill="#ffccba" d="M 37.15625 17.210938 C 37.171875 17.136719 37.242188 17.089844 37.316406 17.105469 L 56.453125 21.183594 C 56.527344 21.199219 56.574219 21.273438 56.558594 21.347656 L 56.265625 22.742188 C 56.25 22.816406 56.175781 22.863281 56.101562 22.847656 L 36.964844 18.769531 C 36.890625 18.753906 36.84375 18.679688 36.859375 18.605469 Z M 37.15625 17.210938 " fill-opacity="1" fill-rule="nonzero"/><path fill="#ffccba" d="M 38.132812 12.59375 C 38.148438 12.519531 38.222656 12.472656 38.296875 12.488281 L 57.433594 16.566406 C 57.507812 16.582031 57.554688 16.65625 57.539062 16.730469 L 57.242188 18.125 C 57.226562 18.199219 57.15625 18.246094 57.082031 18.230469 L 37.941406 14.152344 C 37.867188 14.136719 37.820312 14.066406 37.835938 13.992188 Z M 38.132812 12.59375 " fill-opacity="1" fill-rule="nonzero"/><path fill="#ffffff" d="M 50.753906 12.0625 C 50.753906 17.597656 46.28125 22.082031 40.757812 22.082031 C 35.238281 22.082031 30.761719 17.597656 30.761719 12.0625 C 30.761719 6.527344 35.238281 2.039062 40.757812 2.039062 C 46.28125 2.039062 50.753906 6.527344 50.753906 12.0625 Z M 50.753906 12.0625 " fill-opacity="1" fill-rule="nonzero"/><path fill="#2b4ea3" d="M 45.023438 18.777344 C 44.980469 18.878906 44.378906 18.734375 43.671875 18.453125 C 42.964844 18.171875 42.425781 17.863281 42.464844 17.761719 C 42.503906 17.664062 43.109375 17.808594 43.816406 18.085938 C 44.523438 18.367188 45.0625 18.675781 45.023438 18.777344 Z M 45.023438 18.777344 " fill-opacity="1" fill-rule="nonzero"/><path fill="#8eacf7" d="M 43.671875 18.453125 C 44.378906 18.734375 44.980469 18.878906 45.023438 18.777344 L 44.804688 19.328125 L 44.550781 19.96875 L 44.285156 20.648438 C 44.273438 20.679688 44.242188 20.699219 44.207031 20.695312 C 43.3125 20.605469 42.460938 20.269531 41.75 19.722656 C 41.722656 19.699219 41.714844 19.664062 41.726562 19.636719 L 41.8125 19.410156 L 42.066406 18.769531 L 42.464844 17.761719 C 42.425781 17.863281 42.964844 18.171875 43.671875 18.453125 Z M 43.671875 18.453125 " fill-opacity="1" fill-rule="nonzero"/><path fill="#ffffff" d="M 44.855469 19.316406 C 44.863281 19.351562 44.839844 19.390625 44.800781 19.398438 C 44.394531 19.492188 43.867188 19.414062 43.367188 19.28125 C 42.863281 19.152344 42.375 18.96875 42.042969 18.835938 L 42.09375 18.707031 C 42.421875 18.839844 42.90625 19.023438 43.402344 19.148438 C 43.898438 19.28125 44.398438 19.347656 44.773438 19.265625 C 44.808594 19.253906 44.84375 19.277344 44.855469 19.316406 Z M 44.601562 19.960938 C 44.605469 19.996094 44.582031 20.03125 44.542969 20.039062 C 44.160156 20.101562 43.621094 20.019531 43.109375 19.894531 C 42.59375 19.769531 42.09375 19.597656 41.789062 19.476562 L 41.839844 19.347656 C 42.136719 19.46875 42.632812 19.636719 43.140625 19.761719 C 43.652344 19.886719 44.167969 19.960938 44.519531 19.902344 C 44.558594 19.898438 44.59375 19.921875 44.601562 19.960938 Z M 44.601562 19.960938 " fill-opacity="1" fill-rule="evenodd"/><path fill="#ffc600" d="M 45.851562 13.003906 C 44.539062 12.484375 43.058594 13.128906 42.539062 14.441406 C 42.269531 15.128906 42.3125 15.863281 42.605469 16.480469 C 42.726562 16.792969 42.851562 17.503906 42.855469 17.816406 C 42.859375 17.894531 42.902344 17.976562 42.972656 18.003906 L 44.515625 18.613281 C 44.554688 18.632812 44.601562 18.625 44.640625 18.601562 L 44.648438 18.597656 C 44.863281 18.460938 45.21875 18.230469 45.492188 18.042969 C 45.738281 17.871094 46 17.71875 46.25 17.566406 C 46.707031 17.285156 47.078125 16.859375 47.289062 16.324219 C 47.808594 15.011719 47.164062 13.523438 45.851562 13.003906 Z M 45.851562 13.003906 " fill-opacity="1" fill-rule="nonzero"/><path fill="#fe8d00" d="M 45.375 16.027344 C 45.375 16.027344 45.371094 16.027344 45.367188 16.027344 C 45.328125 16.046875 45.269531 16.097656 45.183594 16.210938 C 45.117188 16.308594 45.035156 16.441406 44.941406 16.628906 C 45.148438 16.589844 45.289062 16.394531 45.371094 16.203125 C 45.390625 16.15625 45.394531 16.09375 45.382812 16.050781 C 45.382812 16.035156 45.375 16.027344 45.375 16.027344 Z M 45.378906 16.023438 C 45.378906 16.023438 45.378906 16.023438 45.375 16.023438 C 45.378906 16.023438 45.378906 16.023438 45.378906 16.023438 Z M 44.867188 16.773438 C 45.207031 16.769531 45.402344 16.476562 45.496094 16.257812 C 45.527344 16.183594 45.535156 16.089844 45.515625 16.015625 C 45.507812 15.980469 45.488281 15.9375 45.453125 15.910156 C 45.410156 15.882812 45.359375 15.882812 45.3125 15.902344 C 45.238281 15.9375 45.160156 16.011719 45.074219 16.132812 C 44.992188 16.246094 44.898438 16.40625 44.789062 16.625 C 44.773438 16.621094 44.753906 16.617188 44.734375 16.609375 C 44.730469 16.609375 44.722656 16.609375 44.71875 16.605469 C 44.488281 16.539062 44.261719 16.476562 44.082031 16.347656 C 44.125 16.152344 44.148438 16.003906 44.15625 15.890625 C 44.160156 15.765625 44.148438 15.675781 44.113281 15.613281 C 44.085938 15.566406 44.042969 15.539062 43.992188 15.535156 C 43.949219 15.53125 43.90625 15.550781 43.875 15.574219 C 43.8125 15.621094 43.753906 15.699219 43.738281 15.78125 C 43.695312 15.972656 43.71875 16.214844 43.925781 16.398438 C 43.828125 16.789062 43.644531 17.347656 43.328125 18.144531 L 43.457031 18.195312 C 43.757812 17.433594 43.941406 16.882812 44.046875 16.488281 C 44.238281 16.609375 44.464844 16.675781 44.671875 16.734375 C 44.679688 16.738281 44.6875 16.742188 44.695312 16.742188 C 44.707031 16.746094 44.714844 16.75 44.726562 16.75 C 44.542969 17.136719 44.320312 17.679688 44.054688 18.433594 L 44.183594 18.480469 C 44.460938 17.703125 44.683594 17.152344 44.867188 16.773438 Z M 43.964844 16.242188 C 43.996094 16.089844 44.015625 15.972656 44.019531 15.882812 C 44.023438 15.769531 44.007812 15.707031 43.992188 15.679688 C 43.988281 15.675781 43.988281 15.671875 43.988281 15.671875 C 43.984375 15.671875 43.972656 15.671875 43.953125 15.6875 C 43.917969 15.714844 43.882812 15.765625 43.871094 15.8125 C 43.84375 15.949219 43.851562 16.109375 43.964844 16.242188 Z M 43.964844 16.242188 " fill-opacity="1" fill-rule="evenodd"/><path fill="#fe8d00" d="M 35.253906 12.886719 L 36.015625 12.886719 C 36.097656 12.886719 36.164062 12.953125 36.164062 13.039062 L 36.164062 13.351562 C 36.164062 13.496094 36.265625 13.617188 36.402344 13.660156 C 36.53125 13.703125 36.652344 13.753906 36.769531 13.816406 C 36.898438 13.878906 37.054688 13.863281 37.15625 13.765625 L 37.378906 13.539062 C 37.4375 13.480469 37.53125 13.480469 37.59375 13.539062 L 38.128906 14.078125 C 38.1875 14.140625 38.1875 14.234375 38.128906 14.292969 L 37.90625 14.519531 C 37.804688 14.617188 37.789062 14.777344 37.855469 14.902344 C 37.917969 15.023438 37.96875 15.144531 38.007812 15.273438 C 38.050781 15.410156 38.175781 15.507812 38.316406 15.507812 L 38.632812 15.507812 C 38.714844 15.507812 38.785156 15.578125 38.785156 15.660156 L 38.785156 16.421875 C 38.785156 16.507812 38.714844 16.574219 38.632812 16.574219 L 38.316406 16.574219 C 38.175781 16.574219 38.050781 16.675781 38.007812 16.8125 C 37.96875 16.941406 37.917969 17.0625 37.855469 17.179688 C 37.789062 17.308594 37.804688 17.464844 37.90625 17.566406 L 38.128906 17.789062 C 38.1875 17.851562 38.1875 17.945312 38.128906 18.007812 L 37.59375 18.542969 C 37.53125 18.605469 37.4375 18.605469 37.378906 18.542969 L 37.15625 18.320312 C 37.054688 18.21875 36.898438 18.207031 36.769531 18.269531 C 36.652344 18.332031 36.53125 18.382812 36.402344 18.421875 C 36.265625 18.46875 36.164062 18.589844 36.164062 18.734375 L 36.164062 19.046875 C 36.164062 19.132812 36.097656 19.199219 36.015625 19.199219 L 35.253906 19.199219 C 35.171875 19.199219 35.101562 19.132812 35.101562 19.046875 L 35.101562 18.734375 C 35.101562 18.589844 35 18.46875 34.867188 18.421875 C 34.738281 18.382812 34.617188 18.332031 34.496094 18.269531 C 34.371094 18.203125 34.214844 18.21875 34.113281 18.320312 L 33.890625 18.542969 C 33.832031 18.605469 33.734375 18.605469 33.675781 18.542969 L 33.136719 18.007812 C 33.078125 17.945312 33.078125 17.851562 33.136719 17.789062 L 33.359375 17.566406 C 33.460938 17.464844 33.476562 17.308594 33.410156 17.179688 C 33.351562 17.0625 33.300781 16.941406 33.257812 16.8125 C 33.214844 16.675781 33.09375 16.574219 32.949219 16.574219 L 32.636719 16.574219 C 32.550781 16.574219 32.484375 16.507812 32.484375 16.421875 L 32.484375 15.660156 C 32.484375 15.578125 32.550781 15.507812 32.636719 15.507812 L 32.949219 15.507812 C 33.09375 15.507812 33.214844 15.410156 33.257812 15.273438 C 33.300781 15.144531 33.351562 15.023438 33.410156 14.902344 C 33.476562 14.777344 33.460938 14.617188 33.359375 14.519531 L 33.136719 14.292969 C 33.078125 14.234375 33.078125 14.140625 33.136719 14.078125 L 33.675781 13.539062 C 33.734375 13.480469 33.832031 13.480469 33.890625 13.539062 L 34.113281 13.765625 C 34.214844 13.863281 34.371094 13.878906 34.496094 13.816406 C 34.617188 13.753906 34.738281 13.703125 34.867188 13.660156 C 35 13.617188 35.101562 13.496094 35.101562 13.351562 L 35.101562 13.039062 C 35.101562 12.953125 35.171875 12.886719 35.253906 12.886719 Z M 36.984375 15.90625 C 36.984375 16.652344 36.378906 17.257812 35.632812 17.257812 C 34.886719 17.257812 34.285156 16.652344 34.285156 15.90625 C 34.285156 15.15625 34.886719 14.550781 35.632812 14.550781 C 36.378906 14.550781 36.984375 15.15625 36.984375 15.90625 Z M 36.984375 15.90625 " fill-opacity="1" fill-rule="evenodd"/><path fill="#ffccba" d="M 34.84375 12.886719 L 35.601562 12.886719 C 35.6875 12.886719 35.753906 12.953125 35.753906 13.039062 L 35.753906 13.351562 C 35.753906 13.496094 35.855469 13.617188 35.992188 13.660156 C 36.117188 13.703125 36.242188 13.753906 36.359375 13.816406 C 36.488281 13.878906 36.644531 13.863281 36.746094 13.765625 L 36.96875 13.539062 C 37.027344 13.480469 37.121094 13.480469 37.179688 13.539062 L 37.71875 14.078125 C 37.777344 14.140625 37.777344 14.234375 37.71875 14.292969 L 37.496094 14.519531 C 37.394531 14.617188 37.378906 14.777344 37.445312 14.902344 C 37.503906 15.023438 37.558594 15.144531 37.597656 15.273438 C 37.640625 15.410156 37.761719 15.507812 37.90625 15.507812 L 38.222656 15.507812 C 38.304688 15.507812 38.371094 15.578125 38.371094 15.660156 L 38.371094 16.421875 C 38.371094 16.507812 38.304688 16.574219 38.222656 16.574219 L 37.90625 16.574219 C 37.761719 16.574219 37.640625 16.675781 37.597656 16.8125 C 37.558594 16.941406 37.503906 17.0625 37.445312 17.179688 C 37.378906 17.308594 37.394531 17.464844 37.496094 17.566406 L 37.71875 17.789062 C 37.777344 17.851562 37.777344 17.945312 37.71875 18.007812 L 37.179688 18.542969 C 37.121094 18.605469 37.027344 18.605469 36.96875 18.542969 L 36.746094 18.320312 C 36.644531 18.21875 36.488281 18.207031 36.359375 18.269531 C 36.242188 18.332031 36.117188 18.382812 35.992188 18.421875 C 35.855469 18.46875 35.753906 18.589844 35.753906 18.734375 L 35.753906 19.046875 C 35.753906 19.132812 35.6875 19.199219 35.601562 19.199219 L 34.84375 19.199219 C 34.757812 19.199219 34.691406 19.132812 34.691406 19.046875 L 34.691406 18.734375 C 34.691406 18.589844 34.589844 18.46875 34.457031 18.421875 C 34.328125 18.382812 34.203125 18.332031 34.085938 18.269531 C 33.960938 18.203125 33.804688 18.21875 33.703125 18.320312 L 33.480469 18.542969 C 33.421875 18.605469 33.324219 18.605469 33.265625 18.542969 L 32.726562 18.007812 C 32.667969 17.945312 32.667969 17.851562 32.726562 17.789062 L 32.949219 17.566406 C 33.050781 17.464844 33.066406 17.308594 33 17.179688 C 32.941406 17.0625 32.890625 16.941406 32.847656 16.8125 C 32.804688 16.675781 32.683594 16.574219 32.539062 16.574219 L 32.226562 16.574219 C 32.140625 16.574219 32.074219 16.507812 32.074219 16.421875 L 32.074219 15.660156 C 32.074219 15.578125 32.140625 15.507812 32.226562 15.507812 L 32.539062 15.507812 C 32.683594 15.507812 32.804688 15.410156 32.847656 15.273438 C 32.890625 15.144531 32.941406 15.023438 33 14.902344 C 33.066406 14.777344 33.050781 14.617188 32.949219 14.519531 L 32.726562 14.292969 C 32.667969 14.234375 32.667969 14.140625 32.726562 14.078125 L 33.265625 13.539062 C 33.324219 13.480469 33.421875 13.480469 33.480469 13.539062 L 33.703125 13.765625 C 33.804688 13.863281 33.960938 13.878906 34.085938 13.816406 C 34.203125 13.753906 34.328125 13.703125 34.457031 13.660156 C 34.589844 13.617188 34.691406 13.496094 34.691406 13.351562 L 34.691406 13.039062 C 34.691406 12.953125 34.757812 12.886719 34.84375 12.886719 Z M 36.574219 16.042969 C 36.574219 16.789062 35.96875 17.394531 35.222656 17.394531 C 34.476562 17.394531 33.875 16.789062 33.875 16.042969 C 33.875 15.296875 34.476562 14.691406 35.222656 14.691406 C 35.96875 14.691406 36.574219 15.296875 36.574219 16.042969 Z M 36.574219 16.042969 " fill-opacity="1" fill-rule="evenodd"/><path fill="#ffba9e" d="M 39.566406 4.332031 C 39.710938 4.207031 39.921875 4.203125 40.070312 4.328125 L 43.5 7.1875 C 42.179688 7.011719 41.210938 8.164062 40.554688 8.90625 C 40.539062 8.925781 40.523438 8.945312 40.503906 8.964844 L 40.097656 8.710938 C 40.027344 8.664062 39.941406 8.636719 39.851562 8.636719 C 39.765625 8.636719 39.679688 8.664062 39.605469 8.710938 L 39.21875 8.957031 C 39.203125 8.941406 39.1875 8.925781 39.171875 8.90625 C 38.523438 8.167969 37.5625 7.027344 36.253906 7.183594 Z M 39.566406 4.332031 " fill-opacity="1" fill-rule="nonzero"/><path fill="#ffffff" d="M 40.097656 8.710938 C 40.027344 8.664062 39.941406 8.636719 39.851562 8.636719 C 39.765625 8.636719 39.679688 8.664062 39.605469 8.710938 L 39.21875 8.957031 C 39.203125 8.941406 39.1875 8.925781 39.171875 8.90625 C 38.625 8.285156 37.851562 7.371094 36.839844 7.199219 L 36.839844 5.644531 C 36.839844 5.488281 36.96875 5.363281 37.121094 5.363281 L 42.605469 5.363281 C 42.761719 5.363281 42.886719 5.488281 42.886719 5.644531 L 42.886719 7.199219 C 41.875 7.371094 41.105469 8.285156 40.554688 8.90625 C 40.539062 8.925781 40.523438 8.945312 40.503906 8.964844 Z M 40.097656 8.710938 " fill-opacity="1" fill-rule="nonzero"/><path fill="#ffba9e" d="M 39.328125 8.355469 C 39.328125 8.300781 39.371094 8.257812 39.425781 8.257812 L 41.132812 8.257812 C 41.1875 8.257812 41.230469 8.300781 41.230469 8.355469 C 41.230469 8.410156 41.1875 8.453125 41.132812 8.453125 L 39.425781 8.453125 C 39.371094 8.453125 39.328125 8.410156 39.328125 8.355469 Z M 39.328125 8.355469 " fill-opacity="1" fill-rule="nonzero"/><path fill="#ffba9e" d="M 39.328125 6.828125 C 39.328125 6.777344 39.371094 6.730469 39.425781 6.730469 L 42.351562 6.730469 C 42.40625 6.730469 42.449219 6.777344 42.449219 6.828125 C 42.449219 6.882812 42.40625 6.925781 42.351562 6.925781 L 39.425781 6.925781 C 39.371094 6.925781 39.328125 6.882812 39.328125 6.828125 Z M 39.328125 6.828125 " fill-opacity="1" fill-rule="nonzero"/><path fill="#ffba9e" d="M 39.328125 7.816406 C 39.328125 7.761719 39.371094 7.71875 39.425781 7.71875 L 41.132812 7.71875 C 41.1875 7.71875 41.230469 7.761719 41.230469 7.816406 C 41.230469 7.871094 41.1875 7.914062 41.132812 7.914062 L 39.425781 7.914062 C 39.371094 7.914062 39.328125 7.871094 39.328125 7.816406 Z M 39.328125 7.816406 " fill-opacity="1" fill-rule="nonzero"/><path fill="#ffba9e" d="M 39.328125 6.292969 C 39.328125 6.238281 39.371094 6.195312 39.425781 6.195312 L 41.570312 6.195312 C 41.625 6.195312 41.667969 6.238281 41.667969 6.292969 C 41.667969 6.34375 41.625 6.390625 41.570312 6.390625 L 39.425781 6.390625 C 39.371094 6.390625 39.328125 6.34375 39.328125 6.292969 Z M 39.328125 6.292969 " fill-opacity="1" fill-rule="nonzero"/><path fill="#fe8d00" d="M 37.28125 7.671875 C 37.28125 7.519531 37.402344 7.398438 37.554688 7.398438 L 38.46875 7.398438 C 38.621094 7.398438 38.742188 7.519531 38.742188 7.671875 L 38.742188 8.589844 C 38.742188 8.742188 38.621094 8.863281 38.46875 8.863281 L 37.554688 8.863281 C 37.402344 8.863281 37.28125 8.742188 37.28125 8.589844 Z M 37.28125 7.671875 " fill-opacity="1" fill-rule="nonzero"/><path fill="#ffffff" d="M 37.523438 7.78125 C 37.523438 7.703125 37.585938 7.640625 37.660156 7.640625 L 38.363281 7.640625 C 38.4375 7.640625 38.5 7.703125 38.5 7.78125 L 38.5 8.484375 C 38.5 8.558594 38.4375 8.621094 38.363281 8.621094 L 37.660156 8.621094 C 37.585938 8.621094 37.523438 8.558594 37.523438 8.484375 Z M 37.523438 7.78125 " fill-opacity="1" fill-rule="nonzero"/><path fill="#ffba9e" d="M 38.378906 7.695312 C 38.410156 7.714844 38.421875 7.757812 38.398438 7.789062 L 38.078125 8.289062 C 37.996094 8.417969 37.808594 8.414062 37.730469 8.285156 L 37.648438 8.152344 C 37.628906 8.121094 37.640625 8.078125 37.671875 8.058594 C 37.703125 8.039062 37.746094 8.050781 37.765625 8.082031 L 37.847656 8.214844 C 37.875 8.257812 37.9375 8.257812 37.964844 8.214844 L 38.285156 7.714844 C 38.304688 7.683594 38.347656 7.671875 38.378906 7.695312 Z M 38.378906 7.695312 " fill-opacity="1" fill-rule="evenodd"/><path fill="#ffccba" d="M 43.554688 7.230469 C 43.566406 7.238281 43.570312 7.253906 43.570312 7.269531 L 43.570312 10.472656 L 40.554688 8.90625 C 40.539062 8.925781 40.523438 8.945312 40.503906 8.964844 L 40.097656 8.710938 C 40.027344 8.664062 39.941406 8.636719 39.851562 8.636719 C 39.765625 8.636719 39.679688 8.664062 39.605469 8.710938 L 39.21875 8.957031 C 39.203125 8.941406 39.1875 8.925781 39.171875 8.90625 L 36.183594 10.449219 L 36.183594 7.265625 C 36.183594 7.253906 36.1875 7.238281 36.199219 7.230469 L 36.253906 7.183594 C 37.5625 7.027344 38.523438 8.167969 39.171875 8.90625 C 39.1875 8.925781 39.203125 8.941406 39.21875 8.957031 L 39.605469 8.710938 C 39.679688 8.664062 39.765625 8.636719 39.851562 8.636719 C 39.941406 8.636719 40.027344 8.664062 40.097656 8.710938 L 40.503906 8.964844 C 40.523438 8.945312 40.539062 8.925781 40.554688 8.90625 C 41.210938 8.164062 42.179688 7.011719 43.5 7.1875 Z M 43.554688 7.230469 " fill-opacity="1" fill-rule="nonzero"/><path fill="#fe8d00" d="M 43.277344 12.0625 L 36.472656 12.0625 C 36.3125 12.0625 36.183594 11.929688 36.183594 11.769531 L 36.183594 10.886719 L 39.21875 8.957031 L 39.605469 8.710938 C 39.679688 8.664062 39.765625 8.636719 39.851562 8.636719 C 39.941406 8.636719 40.027344 8.664062 40.097656 8.710938 L 40.503906 8.964844 L 43.570312 10.886719 L 43.570312 11.769531 C 43.570312 11.929688 43.441406 12.0625 43.277344 12.0625 Z M 43.277344 12.0625 " fill-opacity="1" fill-rule="nonzero"/><path fill="#fe8d00" d="M 37.28125 6.027344 C 37.28125 5.875 37.402344 5.753906 37.554688 5.753906 L 38.46875 5.753906 C 38.621094 5.753906 38.742188 5.875 38.742188 6.027344 L 38.742188 6.945312 C 38.742188 7.097656 38.621094 7.21875 38.46875 7.21875 L 37.554688 7.21875 C 37.402344 7.21875 37.28125 7.097656 37.28125 6.945312 Z M 37.28125 6.027344 " fill-opacity="1" fill-rule="nonzero"/><path fill="#ffffff" d="M 37.523438 6.136719 C 37.523438 6.058594 37.585938 6 37.660156 6 L 38.363281 6 C 38.4375 6 38.5 6.058594 38.5 6.136719 L 38.5 6.839844 C 38.5 6.914062 38.4375 6.976562 38.363281 6.976562 L 37.660156 6.976562 C 37.585938 6.976562 37.523438 6.914062 37.523438 6.839844 Z M 37.523438 6.136719 " fill-opacity="1" fill-rule="nonzero"/><path fill="#ffba9e" d="M 38.378906 6.050781 C 38.410156 6.070312 38.421875 6.113281 38.398438 6.144531 L 38.078125 6.644531 C 37.996094 6.773438 37.808594 6.769531 37.730469 6.640625 L 37.648438 6.511719 C 37.628906 6.476562 37.640625 6.4375 37.671875 6.414062 C 37.703125 6.394531 37.746094 6.40625 37.765625 6.4375 L 37.847656 6.570312 C 37.875 6.613281 37.9375 6.613281 37.964844 6.570312 L 38.285156 6.070312 C 38.304688 6.039062 38.347656 6.027344 38.378906 6.050781 Z M 38.378906 6.050781 " fill-opacity="1" fill-rule="evenodd"/><path fill="#ffba9e" d="M 40.097656 8.710938 C 40.027344 8.664062 39.941406 8.636719 39.851562 8.636719 C 39.765625 8.636719 39.679688 8.664062 39.605469 8.710938 L 39.21875 8.957031 L 36.183594 10.886719 L 36.183594 10.449219 L 39.171875 8.90625 C 39.1875 8.925781 39.203125 8.941406 39.21875 8.957031 L 39.605469 8.710938 C 39.679688 8.664062 39.765625 8.636719 39.851562 8.636719 C 39.941406 8.636719 40.027344 8.664062 40.097656 8.710938 L 40.503906 8.964844 C 40.523438 8.945312 40.539062 8.925781 40.554688 8.90625 L 43.570312 10.472656 L 43.570312 10.886719 L 40.503906 8.964844 Z M 40.097656 8.710938 " fill-opacity="1" fill-rule="nonzero"/><g clip-path="url(#d6ece8acf1)"><path fill="#8a86d3" d="M 58.511719 52.558594 L 58.511719 52.566406 C 58.546875 52.628906 59.300781 52.683594 60.398438 52.714844 C 60.910156 52.726562 61.492188 52.734375 62.113281 52.734375 C 62.648438 52.734375 63.148438 52.730469 63.59375 52.71875 C 63.933594 52.710938 64.246094 52.699219 64.515625 52.6875 C 65.183594 52.65625 65.601562 52.613281 65.628906 52.566406 L 65.628906 52.558594 C 65.628906 52.5625 65.628906 52.5625 65.628906 52.566406 L 65.546875 52.867188 L 64.179688 57.976562 L 63.828125 59.285156 L 60.226562 59.285156 L 59.894531 57.976562 L 59.628906 56.933594 L 59.457031 56.257812 L 58.847656 53.871094 L 58.511719 52.566406 C 58.511719 52.5625 58.511719 52.5625 58.511719 52.558594 Z M 58.511719 52.558594 " fill-opacity="1" fill-rule="nonzero"/></g><path fill="#3a3683" d="M 65.628906 52.558594 C 65.628906 52.609375 65.207031 52.65625 64.515625 52.6875 C 64.246094 52.699219 63.933594 52.710938 63.59375 52.71875 C 63.148438 52.730469 62.648438 52.734375 62.113281 52.734375 C 61.492188 52.734375 60.910156 52.726562 60.398438 52.714844 C 59.273438 52.683594 58.511719 52.625 58.511719 52.558594 C 58.511719 52.464844 60.125 52.386719 62.113281 52.386719 C 64.101562 52.386719 65.628906 52.464844 65.628906 52.558594 Z M 65.628906 52.558594 " fill-opacity="1" fill-rule="nonzero"/><g clip-path="url(#182120ff8b)"><path fill="#ffffff" d="M 63.492188 55.019531 C 63.144531 56.179688 62.867188 57.671875 62.867188 59.285156 L 62.730469 59.285156 C 62.730469 57.660156 63.007812 56.148438 63.359375 54.980469 C 63.535156 54.394531 63.726562 53.890625 63.910156 53.5 C 64.097656 53.109375 64.273438 52.824219 64.425781 52.675781 L 64.519531 52.773438 C 64.390625 52.902344 64.21875 53.171875 64.035156 53.558594 C 63.855469 53.941406 63.664062 54.4375 63.492188 55.019531 Z M 60.457031 53.859375 C 60.277344 53.609375 60.226562 53.226562 60.332031 52.699219 L 60.464844 52.726562 C 60.363281 53.238281 60.417969 53.574219 60.566406 53.777344 C 60.710938 53.976562 60.957031 54.0625 61.273438 54.039062 C 61.910156 53.988281 62.792969 53.492188 63.515625 52.703125 L 63.613281 52.796875 C 62.878906 53.601562 61.96875 54.121094 61.28125 54.175781 C 60.9375 54.203125 60.636719 54.109375 60.457031 53.859375 Z M 64.136719 57.453125 C 64.148438 57.640625 64.171875 57.792969 64.210938 57.894531 L 64.085938 57.941406 C 64.039062 57.820312 64.011719 57.65625 64 57.460938 C 63.988281 57.265625 63.992188 57.039062 64.007812 56.789062 C 64.042969 56.292969 64.132812 55.710938 64.261719 55.148438 C 64.394531 54.582031 64.566406 54.035156 64.769531 53.601562 C 64.871094 53.386719 64.984375 53.199219 65.101562 53.050781 C 65.222656 52.90625 65.351562 52.796875 65.492188 52.746094 L 65.539062 52.875 C 65.429688 52.914062 65.320312 53 65.210938 53.136719 C 65.097656 53.273438 64.992188 53.453125 64.894531 53.660156 C 64.695312 54.082031 64.523438 54.621094 64.394531 55.179688 C 64.265625 55.734375 64.179688 56.308594 64.144531 56.796875 C 64.128906 57.042969 64.125 57.265625 64.136719 57.453125 Z M 59.03125 53.9375 L 58.847656 53.9375 L 58.847656 53.800781 L 59.03125 53.800781 C 59.425781 53.800781 59.789062 54.011719 59.988281 54.347656 C 60.132812 54.59375 60.183594 54.890625 60.101562 55.167969 C 59.992188 55.527344 59.816406 55.96875 59.507812 56.304688 L 59.40625 56.214844 C 59.695312 55.898438 59.863281 55.480469 59.96875 55.128906 C 60.042969 54.890625 60 54.636719 59.871094 54.417969 C 59.695312 54.121094 59.375 53.9375 59.03125 53.9375 Z M 61.691406 55.511719 C 61.402344 55.324219 61.015625 55.382812 60.792969 55.648438 L 59.679688 56.976562 L 59.574219 56.886719 L 60.691406 55.558594 C 60.957031 55.242188 61.417969 55.171875 61.765625 55.398438 C 62.023438 55.566406 62.167969 55.863281 62.136719 56.167969 L 61.839844 59.292969 L 61.703125 59.28125 L 62 56.15625 C 62.027344 55.898438 61.90625 55.652344 61.691406 55.511719 Z M 60.671875 57.777344 C 60.605469 57.734375 60.519531 57.730469 60.449219 57.765625 L 59.925781 58.035156 L 59.863281 57.914062 L 60.386719 57.644531 C 60.503906 57.582031 60.640625 57.59375 60.75 57.664062 C 60.839844 57.726562 60.898438 57.828125 60.902344 57.9375 L 60.980469 59.28125 L 60.84375 59.289062 L 60.765625 57.945312 C 60.761719 57.878906 60.726562 57.816406 60.671875 57.777344 Z M 60.671875 57.777344 " fill-opacity="1" fill-rule="evenodd"/></g><path fill="#65c688" d="M 64.550781 46.058594 L 64.578125 45.773438 C 64.59375 45.625 64.429688 45.535156 64.316406 45.625 C 62.449219 47.167969 62.71875 48.917969 63.160156 49.851562 C 63.261719 50.058594 63.480469 50.175781 63.710938 50.164062 C 65.660156 50.058594 66.179688 49.132812 66.601562 48.457031 C 66.683594 48.328125 66.578125 48.148438 66.429688 48.164062 L 66.136719 48.195312 C 66.050781 48.203125 65.980469 48.136719 65.980469 48.050781 C 65.980469 47.992188 66.015625 47.9375 66.066406 47.917969 L 66.714844 47.644531 C 66.890625 47.574219 67.011719 47.410156 67.027344 47.21875 L 67.3125 44.097656 C 67.324219 43.960938 67.175781 43.867188 67.058594 43.933594 L 65.050781 45.085938 C 64.992188 45.117188 64.960938 45.179688 64.964844 45.246094 L 65.027344 46.0625 C 65.035156 46.164062 64.957031 46.246094 64.859375 46.246094 L 64.71875 46.246094 C 64.621094 46.246094 64.539062 46.160156 64.550781 46.058594 Z M 64.550781 46.058594 " fill-opacity="1" fill-rule="nonzero"/><path fill="#65c688" d="M 60.863281 42.585938 L 60.726562 42.316406 C 60.65625 42.175781 60.457031 42.1875 60.410156 42.335938 C 59.621094 44.769531 60.855469 46.175781 61.777344 46.75 C 61.984375 46.878906 62.246094 46.855469 62.441406 46.714844 C 64.117188 45.511719 64.050781 44.390625 64.046875 43.550781 C 64.046875 43.390625 63.851562 43.289062 63.726562 43.386719 L 63.484375 43.582031 C 63.414062 43.636719 63.308594 43.621094 63.261719 43.542969 C 63.226562 43.492188 63.230469 43.425781 63.265625 43.375 L 63.6875 42.765625 C 63.800781 42.601562 63.816406 42.386719 63.722656 42.207031 L 62.207031 39.273438 C 62.136719 39.140625 61.953125 39.140625 61.886719 39.269531 L 60.753906 41.4375 C 60.722656 41.496094 60.730469 41.570312 60.769531 41.628906 L 61.289062 42.320312 C 61.351562 42.402344 61.332031 42.523438 61.242188 42.578125 L 61.121094 42.65625 C 61.03125 42.714844 60.910156 42.683594 60.863281 42.585938 Z M 60.863281 42.585938 " fill-opacity="1" fill-rule="nonzero"/><path fill="#65c688" d="M 57.226562 48.632812 L 56.945312 48.523438 C 56.800781 48.46875 56.660156 48.609375 56.722656 48.75 C 57.761719 51.082031 59.613281 51.296875 60.679688 51.105469 C 60.917969 51.0625 61.09375 50.871094 61.148438 50.632812 C 61.585938 48.617188 60.792969 47.832031 60.226562 47.210938 C 60.121094 47.09375 59.910156 47.152344 59.882812 47.308594 L 59.832031 47.613281 C 59.816406 47.703125 59.726562 47.757812 59.640625 47.734375 C 59.582031 47.71875 59.539062 47.667969 59.53125 47.605469 L 59.4375 46.871094 C 59.410156 46.671875 59.28125 46.503906 59.09375 46.433594 L 56.011719 45.277344 C 55.875 45.226562 55.738281 45.347656 55.773438 45.488281 L 56.378906 47.851562 C 56.394531 47.917969 56.449219 47.96875 56.519531 47.984375 L 57.363281 48.148438 C 57.464844 48.167969 57.53125 48.269531 57.503906 48.371094 L 57.464844 48.511719 C 57.4375 48.613281 57.324219 48.671875 57.226562 48.632812 Z M 57.226562 48.632812 " fill-opacity="1" fill-rule="nonzero"/><path fill="#007d41" d="M 62.082031 43.507812 L 62.082031 42.152344 L 62.21875 42.152344 L 62.21875 44.234375 L 62.789062 43.804688 L 62.871094 43.914062 L 62.21875 44.40625 L 62.21875 51.792969 L 64.433594 47.976562 L 64.125 46.863281 L 64.257812 46.824219 L 64.53125 47.808594 L 65.410156 46.296875 L 65.527344 46.367188 L 64.820312 47.585938 L 66.214844 47.203125 L 66.25 47.335938 L 64.71875 47.757812 L 64.011719 48.976562 L 65.203125 48.824219 L 65.222656 48.960938 L 63.925781 49.125 L 62.21875 52.066406 L 62.21875 52.644531 L 62.082031 52.644531 L 62.082031 52.078125 L 59.914062 49.902344 L 58.925781 50.070312 L 58.902344 49.933594 L 59.792969 49.785156 L 58.714844 48.703125 L 57.808594 48.703125 L 57.808594 48.566406 L 58.578125 48.566406 L 57.675781 47.660156 L 57.773438 47.5625 L 59.085938 48.882812 L 59.015625 47.957031 L 59.152344 47.949219 L 59.238281 49.03125 L 62.082031 51.882812 L 62.082031 45.855469 L 61 45.023438 L 61.085938 44.914062 L 62.082031 45.679688 L 62.082031 43.714844 L 61.417969 42.964844 L 61.519531 42.875 Z M 62.082031 43.507812 " fill-opacity="1" fill-rule="evenodd"/><path fill="#3a3683" d="M 42.324219 49.011719 L 41.835938 50.570312 C 41.804688 50.667969 41.679688 50.699219 41.609375 50.625 L 41.117188 50.132812 L 40.636719 49.730469 C 40.558594 49.667969 40.574219 49.542969 40.667969 49.5 L 42.140625 48.84375 C 42.246094 48.796875 42.359375 48.898438 42.324219 49.011719 Z M 42.324219 49.011719 " fill-opacity="1" fill-rule="nonzero"/><path fill="#3a3683" d="M 42.109375 48.78125 C 42.273438 48.710938 42.445312 48.863281 42.390625 49.03125 L 41.898438 50.589844 C 41.851562 50.738281 41.667969 50.78125 41.558594 50.671875 L 41.121094 50.234375 C 39.695312 51.960938 37.210938 53.460938 34.195312 53.785156 C 34.15625 53.789062 34.121094 53.761719 34.117188 53.722656 C 34.113281 53.683594 34.140625 53.652344 34.179688 53.648438 C 37.164062 53.328125 39.617188 51.84375 41.019531 50.140625 L 40.59375 49.785156 C 40.476562 49.6875 40.5 49.5 40.640625 49.4375 Z M 42.257812 48.992188 C 42.277344 48.933594 42.21875 48.882812 42.167969 48.910156 L 40.695312 49.5625 C 40.648438 49.585938 40.640625 49.644531 40.679688 49.679688 L 41.164062 50.082031 L 41.65625 50.574219 C 41.691406 50.613281 41.753906 50.597656 41.769531 50.546875 Z M 42.257812 48.992188 " fill-opacity="1" fill-rule="evenodd"/><g clip-path="url(#ae5f9aab98)"><path fill="#fa5879" d="M 33.753906 55.34375 L 36.351562 55.34375 L 36.351562 59.253906 L 33.753906 59.253906 Z M 33.753906 55.34375 " fill-opacity="1" fill-rule="nonzero"/></g><g clip-path="url(#0c0883caed)"><path fill="#ffc928" d="M 37.652344 53.824219 L 40.25 53.824219 L 40.25 59.253906 L 37.652344 59.253906 Z M 37.652344 53.824219 " fill-opacity="1" fill-rule="nonzero"/></g><g clip-path="url(#f4b314bd22)"><path fill="#fa5879" d="M 41.550781 51.652344 L 44.148438 51.652344 L 44.148438 59.253906 L 41.550781 59.253906 Z M 41.550781 51.652344 " fill-opacity="1" fill-rule="nonzero"/></g><path fill="#8c1a00" d="M 28.773438 22.289062 C 28.386719 22.28125 25.449219 24.621094 28.019531 26.0625 C 28.910156 26.5625 30.074219 22.289062 28.773438 22.289062 Z M 28.773438 22.289062 " fill-opacity="1" fill-rule="nonzero"/><path fill="#f29a77" d="M 20.171875 9.429688 C 20.269531 9.667969 20.414062 10.09375 20.351562 10.578125 C 20.351562 10.890625 20.980469 11.25 20.800781 11.386719 C 20.65625 11.492188 20.472656 11.550781 20.398438 11.566406 C 20.351562 11.851562 20.359375 12.4375 20.398438 12.644531 C 20.488281 13.136719 19.726562 12.800781 19.324219 13.296875 C 19.070312 13.609375 19.050781 13.984375 19.117188 14.601562 C 19.222656 14.65625 19.570312 14.742188 19.679688 14.804688 C 19.695312 15.058594 19.386719 15.808594 19.324219 16.042969 C 19.136719 16.761719 18.132812 16.992188 16.449219 15.355469 C 16.386719 15.058594 15.574219 14.675781 15.488281 14.394531 C 15.515625 14.332031 16.570312 14.234375 16.597656 14.121094 C 16.703125 13.648438 16.796875 12.976562 16.847656 12.675781 C 16.410156 12.175781 15.78125 11.292969 15.757812 10.753906 C 16.234375 10.578125 17.066406 9.886719 17.527344 9.496094 C 17.617188 9.886719 17.949219 10.40625 18.558594 9.363281 C 18.617188 9.40625 18.683594 9.457031 18.753906 9.503906 C 19.148438 9.773438 19.667969 10.019531 19.546875 9.496094 C 19.523438 9.402344 19.496094 9.3125 19.464844 9.226562 C 19.617188 9.34375 19.902344 9.480469 20.171875 9.429688 Z M 20.171875 9.429688 " fill-opacity="1" fill-rule="nonzero"/><path fill="#8c1a00" d="M 17.386719 10.472656 C 17.582031 10.113281 18.105469 10.339844 18.238281 10.472656 C 18.289062 10.28125 18.527344 9.761719 18.753906 9.503906 C 18.789062 9.707031 18.984375 10.074219 19.476562 9.910156 C 19.75 10.117188 20.339844 10.378906 20.503906 9.773438 C 21.007812 9.363281 21.65625 8.539062 20.230469 8.539062 C 20.253906 8.21875 20.066406 7.644531 19.136719 7.921875 C 18.980469 7.96875 18.847656 8.023438 18.730469 8.085938 C 18.296875 7.804688 17.550781 7.585938 16.945312 8.195312 C 16.875 8.265625 16.738281 8.28125 16.671875 8.332031 C 16.523438 8.441406 16.535156 8.605469 16.535156 8.746094 C 16.03125 8.882812 15.164062 9.472656 15.710938 10.734375 C 15.730469 10.757812 15.753906 10.78125 15.785156 10.800781 C 15.828125 11.105469 16.070312 11.878906 16.707031 12.613281 C 16.761719 12.675781 16.855469 12.675781 16.90625 12.617188 L 17.808594 11.628906 C 17.5 11.421875 17.160156 10.898438 17.386719 10.472656 Z M 17.386719 10.472656 " fill-opacity="1" fill-rule="nonzero"/><path fill="#8c1a00" d="M 19.410156 12.246094 C 18.972656 12.191406 18.40625 11.855469 18.175781 11.695312 L 18.039062 10.734375 C 17.996094 11.101562 17.929688 11.875 18.039062 12.039062 C 18.175781 12.246094 18.863281 12.863281 19.75 13.070312 C 20.464844 13.125 20.460938 12.726562 20.367188 12.519531 C 20.179688 12.566406 20.054688 12.453125 19.820312 12.351562 C 19.878906 12.246094 20.085938 12.035156 20.3125 11.941406 C 20.382812 11.910156 20.4375 11.847656 20.4375 11.769531 C 20.4375 11.691406 20.375 11.621094 20.292969 11.621094 C 19.933594 11.621094 19.410156 11.742188 19.410156 12.246094 Z M 19.410156 12.246094 " fill-opacity="1" fill-rule="nonzero"/><path fill="#f29a77" d="M 21.171875 57.46875 L 18.722656 57.089844 L 18.566406 55.375 L 20.960938 55.167969 Z M 21.171875 57.46875 " fill-opacity="1" fill-rule="nonzero"/><g clip-path="url(#5fb73e3290)"><path fill="#8c1a00" d="M 24.324219 59.136719 L 18.917969 59.148438 L 18.84375 59.148438 L 18.84375 59.21875 L 18.703125 56.921875 L 21.152344 56.539062 C 21.765625 56.589844 21.589844 56.921875 21.425781 57.082031 C 21.875 57.277344 22.851562 58.03125 23.683594 58.652344 C 23.929688 58.835938 24.148438 59.003906 24.324219 59.136719 Z M 24.324219 59.136719 " fill-opacity="1" fill-rule="nonzero"/></g><path fill="#f29a77" d="M 13.210938 55.578125 L 10.902344 55.441406 L 10.765625 56.882812 L 12.582031 56.746094 L 13.210938 56.746094 Z M 13.210938 55.578125 " fill-opacity="1" fill-rule="nonzero"/><g clip-path="url(#7c8e7f3b11)"><path fill="#8c1a00" d="M 13.574219 56.675781 C 12.804688 56.347656 11.40625 56.675781 10.765625 56.882812 C 10.695312 57.433594 10.558594 57.980469 10.421875 59.078125 L 14.53125 59.078125 C 14.257812 58.390625 13.707031 57.542969 13.386719 57.054688 C 13.703125 56.917969 13.671875 56.71875 13.574219 56.675781 Z M 13.574219 56.675781 " fill-opacity="1" fill-rule="nonzero"/></g><g clip-path="url(#9912e4424b)"><path fill="#2d3250" d="M 17.789062 55 C 17.316406 49.761719 17.183594 44.972656 16.878906 40.90625 C 16.152344 46.585938 15.324219 52.777344 14.929688 55.070312 C 14.890625 55.296875 14.710938 55.46875 14.488281 55.496094 C 13.578125 55.617188 11.882812 55.746094 10.464844 55.621094 C 10.238281 55.597656 10.050781 55.433594 10 55.214844 C 9.867188 54.652344 9.75 53.789062 10.320312 52.972656 C 10.566406 52.535156 9.726562 52.269531 10.140625 51.765625 C 10.242188 51.648438 10.328125 51.503906 10.335938 51.347656 C 11.398438 34.121094 10.886719 31.769531 11.613281 27.128906 C 16.585938 27.984375 19.878906 28.265625 20.992188 27.84375 L 22.9375 51.667969 C 23.339844 52.441406 23.363281 52.546875 23.007812 52.902344 C 22.964844 52.941406 22.953125 53.007812 22.980469 53.0625 C 23.375 53.945312 23.195312 54.574219 22.910156 55.226562 C 22.855469 55.363281 22.726562 55.453125 22.582031 55.46875 C 20.441406 55.695312 19.527344 55.644531 18.117188 55.367188 C 17.9375 55.332031 17.804688 55.179688 17.789062 55 Z M 17.789062 55 " fill-opacity="1" fill-rule="nonzero"/></g><path fill="#8a86d3" d="M 12.792969 43.425781 C 12.617188 46.269531 12.425781 48.976562 12.21875 51.183594 C 12.160156 51.785156 12.101562 52.351562 12.042969 52.871094 C 13.023438 52.945312 14.164062 52.902344 15.308594 52.621094 C 15.296875 52.695312 15.289062 52.765625 15.277344 52.839844 C 14.132812 53.109375 13 53.148438 12.019531 53.078125 C 11.890625 54.179688 11.757812 55.070312 11.617188 55.671875 C 11.550781 55.671875 11.480469 55.671875 11.410156 55.667969 C 11.546875 55.082031 11.683594 54.183594 11.816406 53.058594 C 11.269531 53.011719 10.777344 52.925781 10.367188 52.832031 C 10.371094 52.753906 10.347656 52.683594 10.308594 52.609375 C 10.734375 52.710938 11.257812 52.800781 11.839844 52.855469 C 11.898438 52.335938 11.957031 51.769531 12.011719 51.164062 C 12.222656 48.960938 12.414062 46.253906 12.585938 43.410156 C 12.925781 37.816406 13.1875 31.292969 13.328125 27.410156 C 13.394531 27.421875 13.464844 27.433594 13.53125 27.445312 C 13.390625 31.328125 13.132812 37.835938 12.792969 43.425781 Z M 12.792969 43.425781 " fill-opacity="1" fill-rule="nonzero"/><path fill="#8a86d3" d="M 18.679688 48.25 L 18.679688 48.257812 C 18.792969 49.84375 18.894531 51.347656 18.984375 52.628906 C 19.410156 52.695312 19.871094 52.761719 20.335938 52.820312 C 21.300781 52.933594 22.28125 53.007812 22.972656 52.953125 C 22.960938 52.988281 22.964844 53.027344 22.976562 53.0625 C 22.992188 53.09375 23.007812 53.125 23.019531 53.15625 C 22.300781 53.214844 21.289062 53.140625 20.308594 53.023438 C 19.859375 52.96875 19.414062 52.90625 19 52.839844 C 19.078125 53.953125 19.144531 54.886719 19.195312 55.542969 C 19.125 55.535156 19.054688 55.523438 18.984375 55.515625 C 18.9375 54.851562 18.871094 53.917969 18.792969 52.808594 C 18.386719 52.742188 17.917969 52.675781 17.59375 52.617188 C 17.589844 52.546875 17.582031 52.476562 17.578125 52.40625 C 17.886719 52.460938 18.371094 52.527344 18.777344 52.597656 C 18.6875 51.328125 18.585938 49.84375 18.476562 48.277344 L 18.476562 48.269531 C 18.378906 46.871094 18.277344 45.410156 18.175781 43.976562 C 17.9375 40.539062 17.707031 37.269531 17.566406 35.457031 C 17.609375 35.109375 17.648438 34.769531 17.6875 34.4375 C 17.804688 35.765625 18.085938 39.746094 18.382812 43.964844 C 18.484375 45.394531 18.585938 46.855469 18.679688 48.25 Z M 18.679688 48.25 " fill-opacity="1" fill-rule="nonzero"/><path fill="#f29a77" d="M 28.292969 22.90625 L 27.941406 22.839844 C 27.585938 23.171875 27.222656 23.625 27.0625 24.113281 Z M 28.292969 22.90625 " fill-opacity="1" fill-rule="nonzero"/><path fill="#ffc928" d="M 20.769531 21.535156 C 20.609375 22.476562 20.488281 23.433594 20.488281 24.140625 C 20.488281 24.632812 20.550781 25.125 20.640625 25.585938 C 21.414062 26.519531 22.113281 27.382812 22.542969 27.917969 C 20.625 27.917969 19.160156 30.320312 18.933594 31.144531 C 17.964844 30.113281 17.054688 29.175781 16.242188 28.277344 C 14.835938 28.179688 13.277344 27.890625 11.75 27.265625 C 10.898438 26.960938 11.285156 26.015625 11.585938 25.582031 C 11.65625 25.3125 12.230469 24.152344 12.1875 21.867188 C 11.300781 19.558594 11.203125 17.863281 11.332031 17.277344 C 11.726562 15.492188 14.722656 14.441406 16.132812 14.257812 C 16.6875 15.652344 17.695312 16.316406 18.503906 16.25 C 19.308594 16.179688 19.277344 15.511719 19.449219 14.71875 C 20.367188 15.003906 22.542969 15.835938 23.160156 16.453125 C 24.042969 17.339844 24.460938 19.199219 25.347656 21.535156 L 28.773438 22.289062 C 28.386719 22.28125 25.449219 24.621094 28.019531 26.0625 C 25.449219 26.0625 23.417969 25.765625 22.542969 24.898438 C 21.664062 24.027344 21.289062 22.609375 20.769531 21.535156 Z M 20.769531 21.535156 " fill-opacity="1" fill-rule="nonzero"/><path fill="#2d3250" d="M 19.449219 14.71875 C 18.84375 16.867188 16.6875 15.652344 16.132812 14.257812 C 15.839844 14.296875 15.472656 14.371094 15.078125 14.484375 C 15.558594 16.25 18.777344 18.789062 20.304688 15.011719 C 19.972656 14.890625 19.671875 14.789062 19.449219 14.71875 Z M 19.449219 14.71875 " fill-opacity="1" fill-rule="nonzero"/><path fill="#2d3250" d="M 21.332031 18.484375 C 21.386719 18.28125 21.429688 18.136719 21.453125 18.078125 L 21.578125 18.128906 C 21.558594 18.175781 21.519531 18.3125 21.464844 18.519531 C 21.414062 18.722656 21.347656 18.992188 21.277344 19.304688 C 21.136719 19.929688 20.972656 20.734375 20.835938 21.546875 L 20.699219 21.523438 C 20.835938 20.707031 21.003906 19.902344 21.144531 19.273438 C 21.214844 18.960938 21.28125 18.691406 21.332031 18.484375 Z M 21.332031 18.484375 " fill-opacity="1" fill-rule="evenodd"/><path fill="#8a86d3" d="M 16.84375 40.902344 C 17.273438 37.554688 17.667969 34.4375 17.921875 32.101562 L 17.988281 32.109375 C 17.738281 34.445312 17.34375 37.5625 16.914062 40.914062 Z M 16.84375 40.902344 " fill-opacity="1" fill-rule="evenodd"/><path fill="#8c1a00" d="M 28.78125 26.25 C 28.941406 26.089844 28.941406 25.832031 28.78125 25.667969 L 26.660156 23.542969 C 26.5 23.378906 26.238281 23.378906 26.078125 23.542969 L 15.4375 34.207031 C 15.277344 34.367188 15.277344 34.628906 15.4375 34.789062 L 17.558594 36.917969 C 17.722656 37.078125 17.980469 37.078125 18.140625 36.917969 Z M 28.78125 26.25 " fill-opacity="1" fill-rule="nonzero"/><path fill="#ffc928" d="M 22.542969 27.917969 C 20.625 27.917969 19.160156 30.320312 18.933594 31.144531 C 17.964844 30.113281 17.054688 29.175781 16.242188 28.277344 L 20.636719 25.582031 C 21.410156 26.515625 22.113281 27.382812 22.542969 27.917969 Z M 22.542969 27.917969 " fill-opacity="1" fill-rule="nonzero"/><path fill="#8c1a00" d="M 22.542969 27.917969 C 20.625 27.917969 19.160156 30.320312 18.933594 31.144531 C 19.253906 31.347656 19.726562 31 20.53125 30.40625 L 20.554688 30.386719 C 21.582031 29.632812 23.019531 28.808594 22.542969 27.917969 Z M 22.542969 27.917969 " fill-opacity="1" fill-rule="nonzero"/><path fill="#f29a77" d="M 22.199219 31.417969 C 23.84375 32.449219 23.84375 31.554688 25.144531 29.976562 C 24.324219 30.085938 23.933594 29.6875 23.84375 29.472656 C 24.9375 28.742188 25.210938 28.125 24.597656 28.398438 C 24.101562 28.617188 23.296875 28.71875 22.953125 28.742188 L 21.890625 28.007812 C 21.09375 28.234375 20.40625 28.835938 19.890625 29.472656 C 20.316406 29.761719 20.898438 30.054688 21.582031 30.457031 C 22.0625 30.738281 21.664062 31.082031 22.199219 31.417969 Z M 22.199219 31.417969 " fill-opacity="1" fill-rule="nonzero"/><path fill="#2d3250" d="M 16.910156 21.28125 C 16.453125 20.40625 15.4375 18.515625 15 17.859375 L 14.886719 17.933594 C 15.320312 18.589844 16.339844 20.488281 16.796875 21.359375 L 16.808594 21.375 L 16.820312 21.386719 C 16.898438 21.4375 17.023438 21.550781 17.191406 21.71875 C 17.359375 21.886719 17.5625 22.109375 17.792969 22.363281 C 18.257812 22.875 18.828125 23.535156 19.414062 24.230469 C 20.59375 25.621094 21.851562 27.160156 22.488281 27.960938 L 22.59375 27.875 C 21.957031 27.074219 20.699219 25.535156 19.519531 24.140625 C 18.929688 23.445312 18.359375 22.785156 17.894531 22.273438 C 17.664062 22.015625 17.457031 21.792969 17.289062 21.625 C 17.128906 21.464844 17 21.34375 16.910156 21.28125 Z M 13.855469 25.34375 C 13.085938 24.101562 12.523438 22.9375 12.125 21.894531 L 12.253906 21.84375 C 12.648438 22.878906 13.207031 24.035156 13.972656 25.273438 C 14.578125 26.246094 15.371094 27.210938 16.292969 28.230469 L 16.191406 28.324219 C 15.265625 27.300781 14.46875 26.328125 13.855469 25.34375 Z M 13.855469 25.34375 " fill-opacity="1" fill-rule="evenodd"/><g clip-path="url(#60d89d5dfe)"><path fill="#2d3250" d="M 51.632812 12.335938 C 51.632812 18.703125 46.480469 23.867188 40.128906 23.867188 C 37.65625 23.867188 35.363281 23.085938 33.488281 21.753906 C 33.171875 21.527344 32.867188 21.289062 32.578125 21.035156 L 28.339844 25.28125 L 27.066406 23.953125 L 31.289062 19.71875 C 29.625 17.71875 28.625 15.144531 28.625 12.335938 C 28.625 5.96875 33.777344 0.804688 40.128906 0.804688 C 46.480469 0.804688 51.632812 5.96875 51.632812 12.335938 Z M 40.128906 22.359375 C 45.648438 22.359375 50.125 17.871094 50.125 12.335938 C 50.125 6.800781 45.648438 2.316406 40.128906 2.316406 C 34.609375 2.316406 30.132812 6.800781 30.132812 12.335938 C 30.132812 17.871094 34.609375 22.359375 40.128906 22.359375 Z M 40.128906 22.359375 " fill-opacity="1" fill-rule="evenodd"/></g><path fill="#f29a77" d="M 30.894531 23.382812 C 30.730469 23.636719 30.105469 24.644531 30.144531 24.753906 C 29.390625 25.851562 28.699219 25.613281 28.308594 25.175781 C 28.53125 24.960938 28.949219 24.484375 28.871094 24.269531 C 28.804688 24.078125 28.855469 23.875 29.070312 23.640625 C 29.683594 22.992188 28.390625 22.324219 28.773438 22.15625 C 29.066406 22.03125 29.488281 22.582031 29.742188 22.886719 C 29.800781 22.589844 29.652344 22.292969 29.304688 22.023438 C 28.949219 21.753906 29.046875 21.3125 29.6875 21.859375 C 29.917969 22.058594 30.164062 22.355469 30.234375 22.640625 C 30.292969 22.34375 30.144531 22.046875 29.796875 21.777344 C 29.441406 21.507812 29.539062 21.066406 30.179688 21.613281 C 30.382812 21.785156 30.632812 22.171875 30.742188 22.457031 C 30.875 22.328125 30.933594 22.15625 30.78125 22.007812 C 30.316406 21.558594 30.382812 21.261719 30.699219 21.394531 C 31.113281 21.546875 31.671875 22.238281 31.445312 22.691406 C 31.210938 22.949219 31.023438 23.183594 30.894531 23.382812 Z M 30.894531 23.382812 " fill-opacity="1" fill-rule="nonzero"/></svg>