<svg xmlns="http://www.w3.org/2000/svg" xmlns:xlink="http://www.w3.org/1999/xlink" width="104" zoomAndPan="magnify" viewBox="0 0 78 60" height="80" preserveAspectRatio="xMidYMid meet" version="1.0"><defs><clipPath id="536c67ae00"><path d="M 36 1.175781 L 42 1.175781 L 42 7 L 36 7 Z M 36 1.175781 " clip-rule="nonzero"/></clipPath><clipPath id="552ca1b7a5"><path d="M 38 1.175781 L 42 1.175781 L 42 7 L 38 7 Z M 38 1.175781 " clip-rule="nonzero"/></clipPath><clipPath id="c4d2a566ce"><path d="M 36 53 L 42 53 L 42 58.925781 L 36 58.925781 Z M 36 53 " clip-rule="nonzero"/></clipPath><clipPath id="45254790fc"><path d="M 10.175781 27 L 16 27 L 16 33 L 10.175781 33 Z M 10.175781 27 " clip-rule="nonzero"/></clipPath><clipPath id="d29db59bef"><path d="M 62 27 L 67.925781 27 L 67.925781 33 L 62 33 Z M 62 27 " clip-rule="nonzero"/></clipPath><clipPath id="7465fe1e76"><path d="M 38 53 L 42 53 L 42 58.925781 L 38 58.925781 Z M 38 53 " clip-rule="nonzero"/></clipPath><clipPath id="55d7762750"><path d="M 64 27 L 67.925781 27 L 67.925781 33 L 64 33 Z M 64 27 " clip-rule="nonzero"/></clipPath><clipPath id="6d5955db61"><path d="M 37.042969 25.488281 L 39.285156 25.488281 L 39.285156 26.324219 L 37.042969 26.324219 Z M 37.042969 25.488281 " clip-rule="nonzero"/></clipPath><clipPath id="a28b009eac"><path d="M 37.046875 25.871094 C 37.257812 25.566406 37.640625 25.425781 38 25.519531 L 39.144531 25.820312 C 39.300781 25.859375 39.320312 26.070312 39.179688 26.140625 L 38.929688 26.265625 C 38.824219 26.320312 38.703125 26.332031 38.585938 26.300781 Z M 37.046875 25.871094 " clip-rule="nonzero"/></clipPath><clipPath id="2bfe8a39dc"><path d="M 39.90625 28.816406 L 42.523438 28.816406 L 42.523438 32.5 L 39.90625 32.5 Z M 39.90625 28.816406 " clip-rule="nonzero"/></clipPath><clipPath id="47729134bf"><path d="M 40.167969 28.929688 C 40.402344 28.816406 40.617188 28.789062 40.785156 28.886719 C 41.015625 29.023438 41.203125 29.234375 41.324219 29.480469 L 42.445312 31.84375 C 42.53125 32.019531 42.523438 32.226562 42.429688 32.394531 C 42.367188 32.511719 42.203125 32.511719 42.140625 32.394531 L 40.984375 30.148438 C 40.796875 29.78125 40.472656 29.503906 40.082031 29.371094 L 40.054688 29.359375 C 39.890625 29.304688 39.875 29.082031 40.027344 29.003906 Z M 40.167969 28.929688 " clip-rule="nonzero"/></clipPath><clipPath id="0745f25708"><path d="M 35.796875 27.394531 L 43.535156 27.394531 L 43.535156 30.683594 L 35.796875 30.683594 Z M 35.796875 27.394531 " clip-rule="nonzero"/></clipPath><clipPath id="1934c38113"><path d="M 35.859375 27.59375 C 35.972656 27.433594 36.175781 27.363281 36.363281 27.421875 L 38.625 28.152344 C 38.734375 28.1875 38.859375 28.179688 38.964844 28.128906 L 40.292969 27.492188 C 40.402344 27.441406 40.523438 27.429688 40.636719 27.460938 L 40.941406 27.550781 C 41.453125 27.699219 41.871094 28.078125 42.070312 28.570312 L 42.273438 29.0625 C 42.3125 29.164062 42.414062 29.226562 42.523438 29.222656 L 43.105469 29.195312 C 43.210938 29.1875 43.3125 29.257812 43.347656 29.359375 L 43.445312 29.648438 C 43.566406 29.988281 43.535156 30.363281 43.363281 30.679688 L 43.050781 29.859375 C 43.011719 29.757812 42.914062 29.691406 42.804688 29.695312 L 42.160156 29.714844 C 42.046875 29.71875 41.945312 29.65625 41.902344 29.554688 L 41.648438 28.984375 C 41.484375 28.613281 41.164062 28.332031 40.777344 28.210938 L 40.46875 28.117188 L 38.917969 28.839844 C 38.8125 28.890625 38.691406 28.894531 38.578125 28.859375 L 35.984375 27.972656 C 35.828125 27.917969 35.765625 27.730469 35.859375 27.59375 " clip-rule="nonzero"/></clipPath><clipPath id="916e8cd13e"><path d="M 36.507812 26.148438 L 43.019531 26.148438 L 43.019531 28.796875 L 36.507812 28.796875 Z M 36.507812 26.148438 " clip-rule="nonzero"/></clipPath><clipPath id="d826809ef6"><path d="M 42.996094 28.351562 C 43.078125 28.585938 42.917969 28.875 42.699219 28.761719 C 42.648438 28.730469 42.605469 28.683594 42.582031 28.625 L 42.289062 27.863281 C 42.148438 27.488281 41.832031 27.199219 41.445312 27.09375 L 40.570312 26.851562 C 40.453125 26.816406 40.332031 26.828125 40.226562 26.878906 L 38.902344 27.503906 C 38.796875 27.554688 38.675781 27.5625 38.5625 27.527344 L 36.675781 26.949219 C 36.527344 26.902344 36.460938 26.71875 36.554688 26.589844 C 36.660156 26.433594 36.859375 26.363281 37.042969 26.414062 L 38.53125 26.847656 C 38.644531 26.882812 38.765625 26.871094 38.871094 26.820312 L 40.148438 26.203125 C 40.253906 26.152344 40.375 26.140625 40.488281 26.171875 L 41.597656 26.460938 C 42.105469 26.59375 42.515625 26.972656 42.691406 27.46875 Z M 42.996094 28.351562 " clip-rule="nonzero"/></clipPath><clipPath id="696d218380"><path d="M 42.148438 30.113281 L 43.054688 30.113281 L 43.054688 31.484375 L 42.148438 31.484375 Z M 42.148438 30.113281 " clip-rule="nonzero"/></clipPath><clipPath id="43c4cf1223"><path d="M 42.515625 30.117188 C 42.625 30.113281 42.726562 30.175781 42.769531 30.277344 L 43.003906 30.851562 C 43.074219 31.027344 43.066406 31.226562 42.976562 31.394531 C 42.917969 31.503906 42.761719 31.496094 42.710938 31.382812 L 42.15625 30.132812 Z M 42.515625 30.117188 " clip-rule="nonzero"/></clipPath><clipPath id="3334c0a0bc"><path d="M 34.480469 29.402344 L 35.832031 29.402344 L 35.832031 30.558594 L 34.480469 30.558594 Z M 34.480469 29.402344 " clip-rule="nonzero"/></clipPath><clipPath id="72ecdd05b7"><path d="M 34.578125 29.453125 L 34.605469 29.414062 L 35.578125 29.796875 C 35.683594 29.839844 35.761719 29.933594 35.785156 30.042969 L 35.824219 30.253906 C 35.859375 30.445312 35.667969 30.601562 35.484375 30.527344 L 34.8125 30.25 C 34.496094 30.117188 34.382812 29.734375 34.578125 29.453125 " clip-rule="nonzero"/></clipPath><clipPath id="aa10c961bb"><path d="M 35.085938 28.425781 L 40.246094 28.425781 L 40.246094 33.335938 L 35.085938 33.335938 Z M 35.085938 28.425781 " clip-rule="nonzero"/></clipPath><clipPath id="100557115c"><path d="M 35.144531 28.632812 C 35.257812 28.464844 35.472656 28.398438 35.660156 28.464844 L 36.738281 28.847656 C 36.84375 28.886719 36.921875 28.980469 36.945312 29.089844 L 37.1875 30.265625 C 37.207031 30.375 37.285156 30.46875 37.394531 30.511719 L 38.984375 31.136719 C 39.394531 31.296875 39.746094 31.585938 39.988281 31.953125 L 40.171875 32.238281 C 40.234375 32.335938 40.257812 32.457031 40.238281 32.570312 L 40.09375 33.316406 L 39.582031 32.59375 C 39.339844 32.253906 39.003906 31.984375 38.617188 31.824219 L 36.726562 31.042969 C 36.621094 31 36.546875 30.902344 36.523438 30.792969 L 36.308594 29.59375 C 36.289062 29.480469 36.210938 29.386719 36.105469 29.347656 L 35.269531 29.035156 C 35.105469 28.972656 35.046875 28.773438 35.144531 28.632812 " clip-rule="nonzero"/></clipPath><clipPath id="758e2643aa"><path d="M 41.507812 32.765625 L 41.953125 32.765625 L 41.953125 33.53125 L 41.507812 33.53125 Z M 41.507812 32.765625 " clip-rule="nonzero"/></clipPath><clipPath id="995b489a51"><path d="M 41.867188 32.871094 C 41.964844 33.042969 41.964844 33.253906 41.871094 33.429688 C 41.804688 33.554688 41.613281 33.566406 41.558594 33.433594 C 41.523438 33.347656 41.511719 33.253906 41.527344 33.160156 L 41.566406 32.914062 C 41.59375 32.765625 41.789062 32.730469 41.863281 32.863281 Z M 41.867188 32.871094 " clip-rule="nonzero"/></clipPath><clipPath id="7f217fc691"><path d="M 37.648438 29.277344 L 41.453125 29.277344 L 41.453125 34.4375 L 37.648438 34.4375 Z M 37.648438 29.277344 " clip-rule="nonzero"/></clipPath><clipPath id="7dcb524b5a"><path d="M 40.296875 31.351562 C 40.082031 30.996094 39.753906 30.71875 39.363281 30.574219 L 37.902344 30.023438 C 37.796875 29.984375 37.71875 29.890625 37.695312 29.78125 L 37.660156 29.597656 C 37.621094 29.398438 37.8125 29.234375 38.003906 29.300781 L 39.648438 29.886719 C 40.101562 30.050781 40.484375 30.375 40.71875 30.796875 L 41.246094 31.746094 C 41.304688 31.851562 41.324219 31.972656 41.304688 32.089844 L 41.074219 33.394531 C 41.050781 33.511719 41.078125 33.628906 41.140625 33.730469 L 41.449219 34.207031 C 41.304688 34.472656 40.933594 34.492188 40.757812 34.246094 L 40.53125 33.925781 C 40.464844 33.828125 40.4375 33.710938 40.457031 33.59375 L 40.699219 32.25 C 40.71875 32.136719 40.695312 32.015625 40.636719 31.914062 Z M 40.296875 31.351562 " clip-rule="nonzero"/></clipPath><clipPath id="73e4b5fc63"><path d="M 37.363281 32.410156 L 40.582031 32.410156 L 40.582031 34.527344 L 37.363281 34.527344 Z M 37.363281 32.410156 " clip-rule="nonzero"/></clipPath><clipPath id="e18ed52de1"><path d="M 38.363281 33.058594 C 38.277344 32.972656 38.175781 32.902344 38.066406 32.855469 L 37.375 32.546875 L 37.507812 32.464844 C 37.605469 32.402344 37.726562 32.394531 37.832031 32.441406 L 38.132812 32.574219 C 38.242188 32.625 38.34375 32.691406 38.429688 32.777344 L 39.203125 33.519531 C 39.289062 33.605469 39.390625 33.671875 39.503906 33.722656 L 40.230469 34.054688 L 40.582031 34.511719 L 39.378906 33.96875 C 39.269531 33.917969 39.167969 33.847656 39.082031 33.765625 Z M 38.363281 33.058594 " clip-rule="nonzero"/></clipPath><clipPath id="c0f71670dc"><path d="M 38.894531 32.90625 L 39.976562 32.90625 L 39.976562 33.707031 L 38.894531 33.707031 Z M 38.894531 32.90625 " clip-rule="nonzero"/></clipPath><clipPath id="dba15c68cc"><path d="M 38.894531 32.914062 L 39.601562 33.226562 L 39.964844 33.703125 L 39.585938 33.535156 C 39.476562 33.484375 39.375 33.414062 39.292969 33.328125 Z M 38.894531 32.914062 " clip-rule="nonzero"/></clipPath><clipPath id="e21f150a24"><path d="M 35.921875 32.105469 L 38.714844 32.105469 L 38.714844 33.671875 L 35.921875 33.671875 Z M 35.921875 32.105469 " clip-rule="nonzero"/></clipPath><clipPath id="37dc588895"><path d="M 38.703125 33.664062 L 37.011719 32.902344 C 36.617188 32.722656 36.257812 32.464844 35.960938 32.148438 L 35.925781 32.109375 L 37.890625 32.996094 C 38.003906 33.046875 38.105469 33.113281 38.195312 33.195312 Z M 38.703125 33.664062 " clip-rule="nonzero"/></clipPath><clipPath id="1e7083a9ba"><path d="M 35.441406 31.378906 L 39.375 31.378906 L 39.375 32.890625 L 35.441406 32.890625 Z M 35.441406 31.378906 " clip-rule="nonzero"/></clipPath><clipPath id="324bdda9c5"><path d="M 35.460938 31.386719 L 36.765625 31.96875 C 36.871094 32.015625 36.992188 32.003906 37.085938 31.941406 L 37.3125 31.792969 C 37.40625 31.730469 37.527344 31.71875 37.632812 31.761719 L 38.390625 32.082031 C 38.78125 32.25 39.117188 32.523438 39.355469 32.871094 L 37.734375 32.164062 C 37.628906 32.117188 37.507812 32.125 37.410156 32.183594 L 37.210938 32.308594 C 37.113281 32.367188 36.992188 32.375 36.886719 32.332031 L 35.90625 31.894531 C 35.796875 31.84375 35.703125 31.765625 35.636719 31.664062 Z M 35.460938 31.386719 " clip-rule="nonzero"/></clipPath><clipPath id="1891df6dca"><path d="M 34.960938 30.628906 L 37.132812 30.628906 L 37.132812 31.734375 L 34.960938 31.734375 Z M 34.960938 30.628906 " clip-rule="nonzero"/></clipPath><clipPath id="a436af8a92"><path d="M 34.972656 30.636719 L 37.125 31.546875 L 36.96875 31.65625 C 36.878906 31.722656 36.757812 31.734375 36.652344 31.691406 L 35.429688 31.15625 C 35.320312 31.109375 35.226562 31.027344 35.164062 30.929688 Z M 34.972656 30.636719 " clip-rule="nonzero"/></clipPath></defs><path fill="#434e64" d="M 36.046875 14.257812 C 35.863281 14.257812 35.695312 14.203125 35.554688 14.0625 C 35.285156 13.792969 35.285156 13.355469 35.554688 13.089844 L 38.554688 10.070312 C 38.695312 9.945312 38.867188 9.875 39.050781 9.875 C 39.234375 9.875 39.417969 9.945312 39.542969 10.070312 L 42.546875 13.089844 C 42.8125 13.355469 42.8125 13.792969 42.546875 14.0625 C 42.277344 14.328125 41.839844 14.328125 41.558594 14.0625 L 39.050781 11.539062 L 36.539062 14.0625 C 36.398438 14.203125 36.214844 14.257812 36.046875 14.257812 Z M 36.046875 14.257812 " fill-opacity="1" fill-rule="nonzero"/><path fill="#434e64" d="M 39.050781 21.898438 C 38.667969 21.898438 38.359375 21.574219 38.359375 21.195312 L 38.359375 10.566406 C 38.359375 10.183594 38.667969 9.875 39.050781 9.875 C 39.429688 9.875 39.742188 10.183594 39.742188 10.566406 L 39.742188 21.195312 C 39.742188 21.574219 39.429688 21.898438 39.050781 21.898438 Z M 39.050781 21.898438 " fill-opacity="1" fill-rule="nonzero"/><path fill="#434e64" d="M 39.050781 50.226562 C 38.867188 50.226562 38.683594 50.15625 38.554688 50.027344 L 35.554688 47.011719 C 35.285156 46.742188 35.285156 46.304688 35.554688 46.039062 C 35.820312 45.769531 36.257812 45.769531 36.539062 46.039062 L 39.050781 48.5625 L 41.558594 46.039062 C 41.839844 45.769531 42.277344 45.769531 42.546875 46.039062 C 42.8125 46.304688 42.8125 46.742188 42.546875 47.011719 L 39.542969 50.027344 C 39.402344 50.15625 39.234375 50.226562 39.050781 50.226562 Z M 39.050781 50.226562 " fill-opacity="1" fill-rule="nonzero"/><path fill="#434e64" d="M 39.050781 50.226562 C 38.667969 50.226562 38.359375 49.914062 38.359375 49.535156 L 38.359375 38.902344 C 38.359375 38.507812 38.667969 38.199219 39.050781 38.199219 C 39.429688 38.199219 39.742188 38.507812 39.742188 38.902344 L 39.742188 49.535156 C 39.742188 49.914062 39.429688 50.226562 39.050781 50.226562 Z M 39.050781 50.226562 " fill-opacity="1" fill-rule="nonzero"/><path fill="#434e64" d="M 25.261719 21.222656 C 24.878906 21.222656 24.570312 20.914062 24.570312 20.53125 L 24.570312 16.273438 C 24.570312 16.089844 24.640625 15.921875 24.78125 15.78125 C 24.90625 15.65625 25.078125 15.582031 25.261719 15.582031 L 29.519531 15.582031 C 29.898438 15.582031 30.210938 15.894531 30.210938 16.273438 C 30.210938 16.667969 29.898438 16.980469 29.519531 16.980469 L 25.953125 16.964844 L 25.953125 20.53125 C 25.953125 20.914062 25.640625 21.222656 25.261719 21.222656 Z M 25.261719 21.222656 " fill-opacity="1" fill-rule="nonzero"/><path fill="#434e64" d="M 32.789062 24.496094 C 32.605469 24.496094 32.4375 24.425781 32.296875 24.28125 L 24.78125 16.769531 C 24.5 16.5 24.5 16.0625 24.78125 15.78125 C 25.050781 15.511719 25.484375 15.511719 25.753906 15.78125 L 33.28125 23.308594 C 33.550781 23.578125 33.550781 24.015625 33.28125 24.28125 C 33.140625 24.425781 32.957031 24.496094 32.789062 24.496094 Z M 32.789062 24.496094 " fill-opacity="1" fill-rule="nonzero"/><path fill="#434e64" d="M 52.839844 44.515625 L 48.582031 44.515625 C 48.199219 44.515625 47.890625 44.203125 47.890625 43.808594 C 47.890625 43.429688 48.199219 43.121094 48.582031 43.121094 L 52.148438 43.132812 L 52.148438 39.566406 C 52.148438 39.1875 52.457031 38.875 52.839844 38.875 C 53.21875 38.875 53.53125 39.1875 53.53125 39.566406 L 53.53125 43.824219 C 53.53125 44.007812 53.457031 44.175781 53.316406 44.316406 C 53.191406 44.445312 53.023438 44.515625 52.839844 44.515625 Z M 52.839844 44.515625 " fill-opacity="1" fill-rule="nonzero"/><path fill="#434e64" d="M 52.839844 44.515625 C 52.65625 44.515625 52.484375 44.445312 52.34375 44.316406 L 44.832031 36.789062 C 44.546875 36.519531 44.546875 36.082031 44.832031 35.816406 C 45.097656 35.535156 45.535156 35.535156 45.804688 35.816406 L 53.316406 43.332031 C 53.601562 43.597656 53.601562 44.035156 53.316406 44.316406 C 53.191406 44.445312 53.007812 44.515625 52.839844 44.515625 Z M 52.839844 44.515625 " fill-opacity="1" fill-rule="nonzero"/><path fill="#434e64" d="M 22.566406 33.742188 C 22.398438 33.742188 22.214844 33.6875 22.089844 33.546875 L 19.070312 30.542969 C 18.945312 30.402344 18.875 30.234375 18.875 30.050781 C 18.875 29.867188 18.945312 29.683594 19.070312 29.554688 L 22.089844 26.554688 C 22.355469 26.285156 22.792969 26.285156 23.0625 26.554688 C 23.328125 26.820312 23.328125 27.257812 23.0625 27.539062 L 20.539062 30.050781 L 23.0625 32.558594 C 23.328125 32.839844 23.328125 33.277344 23.0625 33.546875 C 22.933594 33.6875 22.75 33.742188 22.566406 33.742188 Z M 22.566406 33.742188 " fill-opacity="1" fill-rule="nonzero"/><path fill="#434e64" d="M 30.195312 30.742188 L 19.566406 30.742188 C 19.183594 30.742188 18.875 30.429688 18.875 30.050781 C 18.875 29.667969 19.183594 29.359375 19.566406 29.359375 L 30.195312 29.359375 C 30.574219 29.359375 30.898438 29.667969 30.898438 30.050781 C 30.898438 30.429688 30.574219 30.742188 30.195312 30.742188 Z M 30.195312 30.742188 " fill-opacity="1" fill-rule="nonzero"/><path fill="#434e64" d="M 55.53125 33.742188 C 55.347656 33.742188 55.164062 33.6875 55.039062 33.546875 C 54.769531 33.277344 54.769531 32.839844 55.039062 32.558594 L 57.546875 30.050781 L 55.039062 27.539062 C 54.769531 27.257812 54.769531 26.820312 55.039062 26.554688 C 55.304688 26.285156 55.742188 26.285156 56.011719 26.554688 L 59.027344 29.554688 C 59.15625 29.695312 59.226562 29.867188 59.226562 30.050781 C 59.226562 30.234375 59.15625 30.417969 59.027344 30.542969 L 56.011719 33.546875 C 55.882812 33.6875 55.699219 33.742188 55.53125 33.742188 Z M 55.53125 33.742188 " fill-opacity="1" fill-rule="nonzero"/><path fill="#434e64" d="M 58.535156 30.742188 L 47.902344 30.742188 C 47.507812 30.742188 47.199219 30.429688 47.199219 30.050781 C 47.199219 29.667969 47.507812 29.359375 47.902344 29.359375 L 58.535156 29.359375 C 58.914062 29.359375 59.226562 29.667969 59.226562 30.050781 C 59.226562 30.429688 58.914062 30.742188 58.535156 30.742188 Z M 58.535156 30.742188 " fill-opacity="1" fill-rule="nonzero"/><path fill="#434e64" d="M 29.53125 44.53125 L 25.273438 44.53125 C 25.089844 44.53125 24.921875 44.457031 24.78125 44.316406 C 24.65625 44.191406 24.582031 44.023438 24.582031 43.839844 L 24.582031 39.582031 C 24.582031 39.199219 24.894531 38.890625 25.273438 38.890625 C 25.667969 38.890625 25.980469 39.199219 25.980469 39.582031 L 25.964844 43.148438 L 29.53125 43.148438 C 29.914062 43.148438 30.222656 43.457031 30.222656 43.839844 C 30.222656 44.21875 29.914062 44.53125 29.53125 44.53125 Z M 29.53125 44.53125 " fill-opacity="1" fill-rule="nonzero"/><path fill="#434e64" d="M 25.273438 44.53125 C 25.105469 44.53125 24.921875 44.457031 24.78125 44.316406 C 24.511719 44.050781 24.511719 43.613281 24.78125 43.34375 L 32.308594 35.816406 C 32.578125 35.546875 33.015625 35.546875 33.28125 35.816406 C 33.566406 36.097656 33.566406 36.535156 33.28125 36.804688 L 25.769531 44.316406 C 25.628906 44.457031 25.457031 44.53125 25.273438 44.53125 Z M 25.273438 44.53125 " fill-opacity="1" fill-rule="nonzero"/><path fill="#434e64" d="M 52.824219 21.210938 C 52.429688 21.210938 52.121094 20.898438 52.121094 20.519531 L 52.132812 16.953125 L 48.566406 16.953125 C 48.1875 16.953125 47.875 16.640625 47.875 16.261719 C 47.875 15.878906 48.1875 15.570312 48.566406 15.570312 L 52.824219 15.570312 C 53.007812 15.570312 53.175781 15.640625 53.316406 15.78125 C 53.445312 15.90625 53.515625 16.078125 53.515625 16.261719 L 53.515625 20.519531 C 53.515625 20.898438 53.203125 21.210938 52.824219 21.210938 Z M 52.824219 21.210938 " fill-opacity="1" fill-rule="nonzero"/><path fill="#434e64" d="M 45.296875 24.480469 C 45.125 24.480469 44.941406 24.410156 44.816406 24.269531 C 44.535156 24 44.535156 23.5625 44.816406 23.296875 L 52.332031 15.78125 C 52.597656 15.5 53.035156 15.5 53.316406 15.78125 C 53.585938 16.050781 53.585938 16.484375 53.316406 16.753906 L 45.789062 24.269531 C 45.648438 24.410156 45.480469 24.480469 45.296875 24.480469 Z M 45.296875 24.480469 " fill-opacity="1" fill-rule="nonzero"/><path fill="#ffcc66" d="M 50.667969 30.050781 C 50.667969 36.480469 45.464844 41.667969 39.050781 41.667969 C 32.632812 41.667969 27.417969 36.480469 27.417969 30.050781 C 27.417969 23.632812 32.632812 18.433594 39.050781 18.433594 C 45.464844 18.433594 50.667969 23.632812 50.667969 30.050781 Z M 50.667969 30.050781 " fill-opacity="1" fill-rule="nonzero"/><path fill="#f4b251" d="M 50.667969 30.050781 C 50.667969 36.480469 45.464844 41.667969 39.050781 41.667969 C 38.78125 41.667969 38.515625 41.667969 38.246094 41.640625 C 44.28125 41.230469 49.058594 36.210938 49.058594 30.050781 C 49.058594 23.902344 44.28125 18.867188 38.246094 18.460938 C 38.515625 18.433594 38.78125 18.433594 39.050781 18.433594 C 45.464844 18.433594 50.667969 23.632812 50.667969 30.050781 Z M 50.667969 30.050781 " fill-opacity="1" fill-rule="nonzero"/><path fill="#f4b251" d="M 50.640625 30.742188 C 50.652344 30.515625 50.667969 30.273438 50.667969 30.050781 C 50.667969 29.824219 50.652344 29.585938 50.640625 29.359375 L 47.296875 29.359375 C 47.140625 27.597656 46.453125 25.988281 45.378906 24.707031 L 47.734375 22.335938 C 47.425781 21.984375 47.101562 21.660156 46.761719 21.351562 L 44.394531 23.734375 C 43.125 22.648438 41.515625 21.941406 39.753906 21.800781 L 39.753906 18.460938 C 39.515625 18.433594 39.289062 18.433594 39.050781 18.433594 C 38.824219 18.433594 38.597656 18.433594 38.359375 18.460938 L 38.359375 21.800781 C 36.597656 21.941406 34.988281 22.632812 33.707031 23.71875 L 31.335938 21.351562 C 30.984375 21.660156 30.660156 21.984375 30.363281 22.335938 L 32.71875 24.707031 C 31.648438 25.988281 30.941406 27.597656 30.789062 29.359375 L 27.445312 29.359375 C 27.433594 29.585938 27.417969 29.824219 27.417969 30.050781 C 27.417969 30.273438 27.433594 30.515625 27.445312 30.742188 L 30.789062 30.742188 C 30.941406 32.503906 31.648438 34.109375 32.71875 35.394531 L 30.351562 37.761719 C 30.660156 38.113281 30.984375 38.425781 31.324219 38.75 L 33.707031 36.378906 C 34.988281 37.464844 36.597656 38.15625 38.359375 38.296875 L 38.359375 41.652344 C 38.597656 41.667969 38.824219 41.667969 39.050781 41.667969 C 39.289062 41.667969 39.515625 41.667969 39.753906 41.652344 L 39.753906 38.296875 C 41.515625 38.15625 43.125 37.453125 44.394531 36.367188 L 46.777344 38.75 C 47.113281 38.425781 47.4375 38.113281 47.75 37.761719 L 45.378906 35.394531 C 46.453125 34.109375 47.140625 32.503906 47.296875 30.742188 Z M 39.050781 36.957031 C 37.144531 36.957031 35.425781 36.183594 34.171875 34.929688 C 32.929688 33.6875 32.15625 31.96875 32.140625 30.0625 C 32.140625 30.0625 32.15625 30.0625 32.15625 30.050781 C 32.15625 30.035156 32.140625 30.035156 32.140625 30.035156 C 32.15625 26.230469 35.242188 23.140625 39.050781 23.140625 C 42.855469 23.140625 45.945312 26.242188 45.945312 30.050781 C 45.945312 33.855469 42.855469 36.957031 39.050781 36.957031 Z M 39.050781 36.957031 " fill-opacity="1" fill-rule="nonzero"/><g clip-path="url(#536c67ae00)"><path fill="#83d4f6" d="M 41.769531 3.894531 C 41.769531 5.402344 40.558594 6.617188 39.050781 6.617188 C 37.539062 6.617188 36.328125 5.402344 36.328125 3.894531 C 36.328125 2.402344 37.539062 1.175781 39.050781 1.175781 C 40.558594 1.175781 41.769531 2.402344 41.769531 3.894531 Z M 41.769531 3.894531 " fill-opacity="1" fill-rule="nonzero"/></g><g clip-path="url(#552ca1b7a5)"><path fill="#57c7ef" d="M 41.785156 3.894531 C 41.785156 5.402344 40.558594 6.617188 39.050781 6.617188 C 38.808594 6.617188 38.597656 6.589844 38.386719 6.53125 C 39.570312 6.234375 40.445312 5.164062 40.445312 3.894531 C 40.445312 2.625 39.570312 1.554688 38.386719 1.257812 C 38.597656 1.203125 38.808594 1.175781 39.050781 1.175781 C 40.558594 1.175781 41.785156 2.402344 41.785156 3.894531 Z M 41.785156 3.894531 " fill-opacity="1" fill-rule="nonzero"/></g><g clip-path="url(#c4d2a566ce)"><path fill="#87d68f" d="M 36.328125 56.203125 C 36.328125 54.695312 37.539062 53.480469 39.050781 53.480469 C 40.558594 53.480469 41.769531 54.695312 41.769531 56.203125 C 41.769531 57.699219 40.558594 58.925781 39.050781 58.925781 C 37.539062 58.925781 36.328125 57.699219 36.328125 56.203125 Z M 36.328125 56.203125 " fill-opacity="1" fill-rule="nonzero"/></g><path fill="#87d68f" d="M 22.496094 9.621094 C 23.554688 10.675781 23.554688 12.410156 22.484375 13.484375 C 21.425781 14.539062 19.707031 14.539062 18.632812 13.484375 C 17.578125 12.410156 17.578125 10.691406 18.632812 9.632812 C 19.707031 8.5625 21.425781 8.5625 22.496094 9.621094 Z M 22.496094 9.621094 " fill-opacity="1" fill-rule="nonzero"/><path fill="#83d4f6" d="M 55.601562 50.480469 C 54.542969 49.421875 54.542969 47.6875 55.617188 46.617188 C 56.671875 45.558594 58.394531 45.558594 59.464844 46.617188 C 60.523438 47.6875 60.523438 49.40625 59.464844 50.464844 C 58.394531 51.535156 56.671875 51.535156 55.601562 50.480469 Z M 55.601562 50.480469 " fill-opacity="1" fill-rule="nonzero"/><g clip-path="url(#45254790fc)"><path fill="#ff6666" d="M 12.894531 27.3125 C 14.402344 27.3125 15.617188 28.539062 15.617188 30.050781 C 15.617188 31.558594 14.402344 32.769531 12.894531 32.769531 C 11.402344 32.769531 10.175781 31.558594 10.175781 30.050781 C 10.175781 28.539062 11.402344 27.3125 12.894531 27.3125 Z M 12.894531 27.3125 " fill-opacity="1" fill-rule="nonzero"/></g><g clip-path="url(#d29db59bef)"><path fill="#aa76b5" d="M 65.203125 32.769531 C 63.695312 32.769531 62.480469 31.558594 62.480469 30.050781 C 62.480469 28.539062 63.695312 27.3125 65.203125 27.3125 C 66.699219 27.3125 67.925781 28.539062 67.925781 30.050781 C 67.925781 31.558594 66.699219 32.769531 65.203125 32.769531 Z M 65.203125 32.769531 " fill-opacity="1" fill-rule="nonzero"/></g><path fill="#aa76b5" d="M 18.621094 46.601562 C 19.675781 45.542969 21.410156 45.542969 22.484375 46.617188 C 23.539062 47.671875 23.539062 49.394531 22.484375 50.464844 C 21.410156 51.523438 19.691406 51.523438 18.632812 50.464844 C 17.5625 49.394531 17.5625 47.671875 18.621094 46.601562 Z M 18.621094 46.601562 " fill-opacity="1" fill-rule="nonzero"/><path fill="#ff6666" d="M 59.480469 13.496094 C 58.421875 14.554688 56.6875 14.554688 55.617188 13.484375 C 54.558594 12.425781 54.558594 10.691406 55.617188 9.632812 C 56.6875 8.578125 58.40625 8.578125 59.464844 9.632812 C 60.535156 10.707031 60.535156 12.425781 59.480469 13.496094 Z M 59.480469 13.496094 " fill-opacity="1" fill-rule="nonzero"/><g clip-path="url(#7465fe1e76)"><path fill="#6cb774" d="M 41.785156 56.203125 C 41.785156 57.710938 40.558594 58.925781 39.050781 58.925781 C 38.824219 58.925781 38.597656 58.894531 38.386719 58.839844 C 39.570312 58.542969 40.445312 57.472656 40.445312 56.203125 C 40.445312 54.933594 39.570312 53.863281 38.386719 53.566406 C 38.597656 53.511719 38.824219 53.480469 39.050781 53.480469 C 40.558594 53.480469 41.785156 54.707031 41.785156 56.203125 Z M 41.785156 56.203125 " fill-opacity="1" fill-rule="nonzero"/></g><path fill="#6cb774" d="M 22.484375 13.46875 C 21.777344 14.175781 20.792969 14.414062 19.890625 14.1875 C 20.355469 14.074219 20.792969 13.835938 21.144531 13.46875 C 22.214844 12.410156 22.214844 10.675781 21.15625 9.621094 C 20.792969 9.253906 20.367188 9.027344 19.902344 8.914062 C 20.804688 8.675781 21.792969 8.914062 22.496094 9.621094 C 23.554688 10.675781 23.554688 12.410156 22.484375 13.46875 Z M 22.484375 13.46875 " fill-opacity="1" fill-rule="nonzero"/><path fill="#57c7ef" d="M 59.464844 50.464844 C 58.761719 51.183594 57.757812 51.421875 56.855469 51.183594 C 57.320312 51.070312 57.757812 50.832031 58.125 50.464844 C 59.183594 49.40625 59.183594 47.671875 58.125 46.617188 C 57.757812 46.261719 57.335938 46.023438 56.871094 45.910156 C 57.757812 45.671875 58.761719 45.910156 59.464844 46.617188 C 60.523438 47.671875 60.523438 49.40625 59.464844 50.464844 Z M 59.464844 50.464844 " fill-opacity="1" fill-rule="nonzero"/><path fill="#f45151" d="M 15.617188 30.050781 C 15.617188 31.558594 14.402344 32.769531 12.894531 32.769531 C 12.671875 32.769531 12.445312 32.742188 12.234375 32.6875 C 13.417969 32.390625 14.277344 31.320312 14.277344 30.050781 C 14.277344 28.78125 13.417969 27.710938 12.234375 27.414062 C 12.445312 27.355469 12.671875 27.328125 12.894531 27.328125 C 14.402344 27.328125 15.617188 28.539062 15.617188 30.050781 Z M 15.617188 30.050781 " fill-opacity="1" fill-rule="nonzero"/><g clip-path="url(#55d7762750)"><path fill="#955fa0" d="M 67.925781 30.035156 C 67.925781 31.558594 66.699219 32.769531 65.203125 32.769531 C 64.976562 32.769531 64.738281 32.742188 64.527344 32.6875 C 65.726562 32.390625 66.585938 31.320312 66.585938 30.035156 C 66.585938 28.78125 65.726562 27.710938 64.527344 27.414062 C 64.738281 27.355469 64.976562 27.328125 65.203125 27.328125 C 66.699219 27.328125 67.925781 28.539062 67.925781 30.035156 Z M 67.925781 30.035156 " fill-opacity="1" fill-rule="nonzero"/></g><path fill="#955fa0" d="M 22.484375 50.464844 C 21.777344 51.171875 20.777344 51.410156 19.875 51.171875 C 20.339844 51.058594 20.777344 50.816406 21.144531 50.464844 C 22.199219 49.394531 22.199219 47.671875 21.144531 46.601562 C 20.777344 46.25 20.339844 46.007812 19.875 45.898438 C 20.777344 45.671875 21.765625 45.910156 22.484375 46.601562 C 23.539062 47.671875 23.539062 49.394531 22.484375 50.464844 Z M 22.484375 50.464844 " fill-opacity="1" fill-rule="nonzero"/><path fill="#f45151" d="M 59.480469 13.496094 C 58.773438 14.1875 57.789062 14.425781 56.886719 14.203125 C 57.351562 14.089844 57.789062 13.851562 58.140625 13.496094 C 59.210938 12.425781 59.210938 10.707031 58.140625 9.632812 C 57.773438 9.28125 57.335938 9.042969 56.886719 8.929688 C 57.773438 8.6875 58.773438 8.941406 59.480469 9.632812 C 60.535156 10.707031 60.535156 12.425781 59.480469 13.496094 Z M 59.480469 13.496094 " fill-opacity="1" fill-rule="nonzero"/><g clip-path="url(#6d5955db61)"><g clip-path="url(#a28b009eac)"><path fill="#f266ff" d="M 34.394531 25.402344 L 43.605469 25.402344 L 43.605469 34.597656 L 34.394531 34.597656 Z M 34.394531 25.402344 " fill-opacity="1" fill-rule="nonzero"/></g></g><g clip-path="url(#2bfe8a39dc)"><g clip-path="url(#47729134bf)"><path fill="#ff637e" d="M 34.394531 25.402344 L 43.605469 25.402344 L 43.605469 34.597656 L 34.394531 34.597656 Z M 34.394531 25.402344 " fill-opacity="1" fill-rule="nonzero"/></g></g><g clip-path="url(#0745f25708)"><g clip-path="url(#1934c38113)"><path fill="#00d7be" d="M 34.394531 25.402344 L 43.605469 25.402344 L 43.605469 34.597656 L 34.394531 34.597656 Z M 34.394531 25.402344 " fill-opacity="1" fill-rule="nonzero"/></g></g><g clip-path="url(#916e8cd13e)"><g clip-path="url(#d826809ef6)"><path fill="#1f93ff" d="M 34.394531 25.402344 L 43.605469 25.402344 L 43.605469 34.597656 L 34.394531 34.597656 Z M 34.394531 25.402344 " fill-opacity="1" fill-rule="nonzero"/></g></g><g clip-path="url(#696d218380)"><g clip-path="url(#43c4cf1223)"><path fill="#ffd500" d="M 34.394531 25.402344 L 43.605469 25.402344 L 43.605469 34.597656 L 34.394531 34.597656 Z M 34.394531 25.402344 " fill-opacity="1" fill-rule="nonzero"/></g></g><g clip-path="url(#3334c0a0bc)"><g clip-path="url(#72ecdd05b7)"><path fill="#1f93ff" d="M 34.394531 25.402344 L 43.605469 25.402344 L 43.605469 34.597656 L 34.394531 34.597656 Z M 34.394531 25.402344 " fill-opacity="1" fill-rule="nonzero"/></g></g><g clip-path="url(#aa10c961bb)"><g clip-path="url(#100557115c)"><path fill="#f266ff" d="M 34.394531 25.402344 L 43.605469 25.402344 L 43.605469 34.597656 L 34.394531 34.597656 Z M 34.394531 25.402344 " fill-opacity="1" fill-rule="nonzero"/></g></g><g clip-path="url(#758e2643aa)"><g clip-path="url(#995b489a51)"><path fill="#1f93ff" d="M 34.394531 25.402344 L 43.605469 25.402344 L 43.605469 34.597656 L 34.394531 34.597656 Z M 34.394531 25.402344 " fill-opacity="1" fill-rule="nonzero"/></g></g><g clip-path="url(#7f217fc691)"><g clip-path="url(#7dcb524b5a)"><path fill="#ffcf00" d="M 34.394531 25.402344 L 43.605469 25.402344 L 43.605469 34.597656 L 34.394531 34.597656 Z M 34.394531 25.402344 " fill-opacity="1" fill-rule="nonzero"/></g></g><g clip-path="url(#73e4b5fc63)"><g clip-path="url(#e18ed52de1)"><path fill="#61d742" d="M 34.394531 25.402344 L 43.605469 25.402344 L 43.605469 34.597656 L 34.394531 34.597656 Z M 34.394531 25.402344 " fill-opacity="1" fill-rule="nonzero"/></g></g><g clip-path="url(#c0f71670dc)"><g clip-path="url(#dba15c68cc)"><path fill="#1f93ff" d="M 34.394531 25.402344 L 43.605469 25.402344 L 43.605469 34.597656 L 34.394531 34.597656 Z M 34.394531 25.402344 " fill-opacity="1" fill-rule="nonzero"/></g></g><g clip-path="url(#e21f150a24)"><g clip-path="url(#37dc588895)"><path fill="#1f93ff" d="M 34.394531 25.402344 L 43.605469 25.402344 L 43.605469 34.597656 L 34.394531 34.597656 Z M 34.394531 25.402344 " fill-opacity="1" fill-rule="nonzero"/></g></g><g clip-path="url(#1e7083a9ba)"><g clip-path="url(#324bdda9c5)"><path fill="#ff7a78" d="M 34.394531 25.402344 L 43.605469 25.402344 L 43.605469 34.597656 L 34.394531 34.597656 Z M 34.394531 25.402344 " fill-opacity="1" fill-rule="nonzero"/></g></g><g clip-path="url(#1891df6dca)"><g clip-path="url(#a436af8a92)"><path fill="#ffcf00" d="M 34.394531 25.402344 L 43.605469 25.402344 L 43.605469 34.597656 L 34.394531 34.597656 Z M 34.394531 25.402344 " fill-opacity="1" fill-rule="nonzero"/></g></g></svg>