<svg xmlns="http://www.w3.org/2000/svg" xmlns:xlink="http://www.w3.org/1999/xlink" width="104" zoomAndPan="magnify" viewBox="0 0 78 60" height="80" preserveAspectRatio="xMidYMid meet" version="1.0"><defs><clipPath id="3f225eddaa"><path d="M 54 0.9375 L 68.4375 0.9375 L 68.4375 15 L 54 15 Z M 54 0.9375 " clip-rule="nonzero"/></clipPath><clipPath id="cf29dc374f"><path d="M 54 45 L 68.4375 45 L 68.4375 59.4375 L 54 59.4375 Z M 54 45 " clip-rule="nonzero"/></clipPath><clipPath id="d621886d50"><path d="M 9.9375 45 L 24 45 L 24 59.4375 L 9.9375 59.4375 Z M 9.9375 45 " clip-rule="nonzero"/></clipPath><clipPath id="a1c107a868"><path d="M 9.9375 0.9375 L 24 0.9375 L 24 15 L 9.9375 15 Z M 9.9375 0.9375 " clip-rule="nonzero"/></clipPath><clipPath id="37ceb32f5c"><path d="M 9.9375 29 L 20 29 L 20 31 L 9.9375 31 Z M 9.9375 29 " clip-rule="nonzero"/></clipPath><clipPath id="a7faa4bd5c"><path d="M 58 29 L 68.4375 29 L 68.4375 31 L 58 31 Z M 58 29 " clip-rule="nonzero"/></clipPath><clipPath id="885200a985"><path d="M 31.554688 24.65625 L 32.871094 24.65625 L 32.871094 25.144531 L 31.554688 25.144531 Z M 31.554688 24.65625 " clip-rule="nonzero"/></clipPath><clipPath id="f91a4f2b2c"><path d="M 31.558594 24.878906 C 31.679688 24.699219 31.90625 24.617188 32.117188 24.671875 L 32.789062 24.847656 C 32.878906 24.871094 32.890625 24.996094 32.808594 25.039062 L 32.660156 25.113281 C 32.597656 25.144531 32.527344 25.148438 32.460938 25.132812 Z M 31.558594 24.878906 " clip-rule="nonzero"/></clipPath><clipPath id="bbd79caf9f"><path d="M 33.234375 26.605469 L 34.769531 26.605469 L 34.769531 28.765625 L 33.234375 28.765625 Z M 33.234375 26.605469 " clip-rule="nonzero"/></clipPath><clipPath id="6fc0a4c9e9"><path d="M 33.386719 26.675781 C 33.523438 26.609375 33.652344 26.589844 33.75 26.648438 C 33.886719 26.730469 33.996094 26.851562 34.066406 26.996094 L 34.722656 28.382812 C 34.773438 28.488281 34.769531 28.609375 34.714844 28.707031 C 34.679688 28.777344 34.582031 28.773438 34.546875 28.707031 L 33.867188 27.386719 C 33.757812 27.175781 33.566406 27.011719 33.335938 26.933594 L 33.320312 26.925781 C 33.226562 26.894531 33.214844 26.761719 33.304688 26.714844 Z M 33.386719 26.675781 " clip-rule="nonzero"/></clipPath><clipPath id="cb8f1fe0d9"><path d="M 30.824219 25.773438 L 35.363281 25.773438 L 35.363281 27.703125 L 30.824219 27.703125 Z M 30.824219 25.773438 " clip-rule="nonzero"/></clipPath><clipPath id="91e88b7b92"><path d="M 30.859375 25.890625 C 30.925781 25.796875 31.046875 25.753906 31.15625 25.789062 L 32.480469 26.21875 C 32.546875 26.238281 32.621094 26.234375 32.679688 26.203125 L 33.460938 25.828125 C 33.523438 25.800781 33.597656 25.792969 33.664062 25.8125 L 33.84375 25.867188 C 34.140625 25.953125 34.386719 26.171875 34.503906 26.460938 L 34.621094 26.75 C 34.648438 26.8125 34.707031 26.847656 34.769531 26.84375 L 35.109375 26.828125 C 35.171875 26.824219 35.230469 26.867188 35.253906 26.925781 L 35.3125 27.09375 C 35.382812 27.292969 35.363281 27.515625 35.261719 27.699219 L 35.078125 27.21875 C 35.058594 27.160156 35 27.121094 34.933594 27.121094 L 34.554688 27.136719 C 34.492188 27.136719 34.429688 27.101562 34.40625 27.039062 L 34.257812 26.707031 C 34.160156 26.488281 33.972656 26.320312 33.746094 26.25 L 33.566406 26.195312 L 32.65625 26.621094 C 32.59375 26.648438 32.519531 26.652344 32.457031 26.632812 L 30.933594 26.113281 C 30.839844 26.082031 30.804688 25.96875 30.859375 25.890625 " clip-rule="nonzero"/></clipPath><clipPath id="ac8a63cde9"><path d="M 31.242188 25.042969 L 35.0625 25.042969 L 35.0625 26.597656 L 31.242188 26.597656 Z M 31.242188 25.042969 " clip-rule="nonzero"/></clipPath><clipPath id="09cbb604bd"><path d="M 35.046875 26.335938 C 35.09375 26.472656 35 26.640625 34.875 26.574219 C 34.84375 26.558594 34.816406 26.53125 34.804688 26.496094 L 34.632812 26.046875 C 34.550781 25.828125 34.363281 25.660156 34.136719 25.597656 L 33.621094 25.453125 C 33.554688 25.433594 33.484375 25.441406 33.421875 25.46875 L 32.644531 25.835938 C 32.582031 25.867188 32.511719 25.871094 32.445312 25.851562 L 31.339844 25.511719 C 31.25 25.484375 31.214844 25.378906 31.265625 25.300781 C 31.332031 25.207031 31.445312 25.167969 31.554688 25.199219 L 32.425781 25.453125 C 32.492188 25.472656 32.566406 25.464844 32.628906 25.4375 L 33.375 25.074219 C 33.4375 25.042969 33.507812 25.039062 33.578125 25.054688 L 34.226562 25.226562 C 34.523438 25.304688 34.765625 25.527344 34.867188 25.816406 Z M 35.046875 26.335938 " clip-rule="nonzero"/></clipPath><clipPath id="1e83c41f48"><path d="M 34.550781 27.367188 L 35.082031 27.367188 L 35.082031 28.171875 L 34.550781 28.171875 Z M 34.550781 27.367188 " clip-rule="nonzero"/></clipPath><clipPath id="30e3c97108"><path d="M 34.765625 27.371094 C 34.832031 27.367188 34.890625 27.40625 34.914062 27.464844 L 35.050781 27.800781 C 35.09375 27.90625 35.085938 28.023438 35.035156 28.121094 C 35 28.183594 34.910156 28.179688 34.878906 28.113281 L 34.554688 27.378906 Z M 34.765625 27.371094 " clip-rule="nonzero"/></clipPath><clipPath id="5b956d87ac"><path d="M 30.050781 26.953125 L 30.84375 26.953125 L 30.84375 27.628906 L 30.050781 27.628906 Z M 30.050781 26.953125 " clip-rule="nonzero"/></clipPath><clipPath id="8550155d9e"><path d="M 30.105469 26.980469 L 30.125 26.957031 L 30.695312 27.183594 C 30.757812 27.207031 30.804688 27.261719 30.816406 27.328125 L 30.839844 27.449219 C 30.859375 27.5625 30.746094 27.65625 30.640625 27.613281 L 30.246094 27.449219 C 30.0625 27.371094 29.992188 27.144531 30.105469 26.980469 " clip-rule="nonzero"/></clipPath><clipPath id="772cfbeb0d"><path d="M 30.40625 26.378906 L 33.433594 26.378906 L 33.433594 29.257812 L 30.40625 29.257812 Z M 30.40625 26.378906 " clip-rule="nonzero"/></clipPath><clipPath id="15a879b8c6"><path d="M 30.441406 26.5 C 30.507812 26.402344 30.632812 26.359375 30.742188 26.402344 L 31.375 26.625 C 31.4375 26.648438 31.484375 26.703125 31.496094 26.769531 L 31.636719 27.457031 C 31.652344 27.523438 31.699219 27.578125 31.761719 27.601562 L 32.695312 27.96875 C 32.933594 28.0625 33.140625 28.230469 33.28125 28.449219 L 33.390625 28.613281 C 33.425781 28.671875 33.441406 28.742188 33.429688 28.8125 L 33.34375 29.25 L 33.042969 28.824219 C 32.902344 28.625 32.707031 28.464844 32.476562 28.371094 L 31.367188 27.914062 C 31.308594 27.886719 31.261719 27.832031 31.25 27.765625 L 31.125 27.0625 C 31.113281 26.996094 31.066406 26.941406 31.003906 26.917969 L 30.515625 26.734375 C 30.417969 26.699219 30.382812 26.582031 30.441406 26.5 " clip-rule="nonzero"/></clipPath><clipPath id="199ccf042e"><path d="M 34.175781 28.925781 L 34.433594 28.925781 L 34.433594 29.371094 L 34.175781 29.371094 Z M 34.175781 28.925781 " clip-rule="nonzero"/></clipPath><clipPath id="2c3ac1eb78"><path d="M 34.386719 28.984375 C 34.441406 29.085938 34.441406 29.210938 34.386719 29.3125 C 34.347656 29.386719 34.238281 29.394531 34.203125 29.316406 C 34.183594 29.265625 34.175781 29.210938 34.1875 29.15625 L 34.210938 29.011719 C 34.222656 28.921875 34.339844 28.902344 34.382812 28.980469 Z M 34.386719 28.984375 " clip-rule="nonzero"/></clipPath><clipPath id="12fea1ed8e"><path d="M 31.910156 26.878906 L 34.144531 26.878906 L 34.144531 29.90625 L 31.910156 29.90625 Z M 31.910156 26.878906 " clip-rule="nonzero"/></clipPath><clipPath id="e29e9a4e59"><path d="M 33.460938 28.09375 C 33.335938 27.886719 33.144531 27.722656 32.914062 27.640625 L 32.058594 27.316406 C 31.996094 27.292969 31.949219 27.238281 31.9375 27.171875 L 31.917969 27.066406 C 31.894531 26.949219 32.007812 26.851562 32.117188 26.890625 L 33.082031 27.234375 C 33.351562 27.332031 33.574219 27.523438 33.710938 27.769531 L 34.019531 28.328125 C 34.054688 28.386719 34.066406 28.457031 34.054688 28.527344 L 33.917969 29.292969 C 33.90625 29.363281 33.921875 29.433594 33.957031 29.488281 L 34.140625 29.769531 C 34.054688 29.925781 33.835938 29.9375 33.734375 29.792969 L 33.601562 29.605469 C 33.5625 29.546875 33.546875 29.480469 33.558594 29.410156 L 33.699219 28.621094 C 33.710938 28.554688 33.699219 28.484375 33.664062 28.425781 Z M 33.460938 28.09375 " clip-rule="nonzero"/></clipPath><clipPath id="3c265443a2"><path d="M 31.742188 28.714844 L 33.632812 28.714844 L 33.632812 29.957031 L 31.742188 29.957031 Z M 31.742188 28.714844 " clip-rule="nonzero"/></clipPath><clipPath id="57d9940414"><path d="M 32.328125 29.097656 C 32.277344 29.046875 32.21875 29.003906 32.152344 28.976562 L 31.75 28.796875 L 31.828125 28.746094 C 31.882812 28.710938 31.957031 28.707031 32.015625 28.734375 L 32.191406 28.8125 C 32.257812 28.839844 32.316406 28.882812 32.367188 28.929688 L 32.820312 29.367188 C 32.871094 29.417969 32.933594 29.457031 32.996094 29.488281 L 33.425781 29.679688 L 33.628906 29.949219 L 32.925781 29.628906 C 32.859375 29.601562 32.800781 29.558594 32.75 29.511719 Z M 32.328125 29.097656 " clip-rule="nonzero"/></clipPath><clipPath id="b283a7bc9c"><path d="M 32.640625 29.007812 L 33.277344 29.007812 L 33.277344 29.476562 L 32.640625 29.476562 Z M 32.640625 29.007812 " clip-rule="nonzero"/></clipPath><clipPath id="13be8e5389"><path d="M 32.640625 29.011719 L 33.054688 29.195312 L 33.269531 29.472656 L 33.046875 29.375 C 32.980469 29.347656 32.921875 29.304688 32.875 29.253906 Z M 32.640625 29.011719 " clip-rule="nonzero"/></clipPath><clipPath id="1651af18b0"><path d="M 30.898438 28.539062 L 32.535156 28.539062 L 32.535156 29.457031 L 30.898438 29.457031 Z M 30.898438 28.539062 " clip-rule="nonzero"/></clipPath><clipPath id="d8bf5d4203"><path d="M 32.53125 29.453125 L 31.535156 29.003906 C 31.304688 28.898438 31.09375 28.75 30.917969 28.5625 L 30.898438 28.539062 L 32.054688 29.058594 C 32.117188 29.089844 32.175781 29.128906 32.230469 29.175781 Z M 32.53125 29.453125 " clip-rule="nonzero"/></clipPath><clipPath id="e6cf425b66"><path d="M 30.617188 28.109375 L 32.921875 28.109375 L 32.921875 28.996094 L 30.617188 28.996094 Z M 30.617188 28.109375 " clip-rule="nonzero"/></clipPath><clipPath id="7a3529cdd8"><path d="M 30.625 28.117188 L 31.390625 28.457031 C 31.453125 28.484375 31.523438 28.476562 31.582031 28.441406 L 31.710938 28.355469 C 31.765625 28.316406 31.839844 28.308594 31.898438 28.335938 L 32.34375 28.523438 C 32.574219 28.621094 32.769531 28.78125 32.914062 28.988281 L 31.960938 28.570312 C 31.898438 28.542969 31.828125 28.546875 31.769531 28.585938 L 31.652344 28.65625 C 31.59375 28.691406 31.523438 28.695312 31.460938 28.667969 L 30.886719 28.414062 C 30.824219 28.382812 30.769531 28.335938 30.730469 28.277344 Z M 30.625 28.117188 " clip-rule="nonzero"/></clipPath><clipPath id="f19798e4e7"><path d="M 30.332031 27.671875 L 31.605469 27.671875 L 31.605469 28.320312 L 30.332031 28.320312 Z M 30.332031 27.671875 " clip-rule="nonzero"/></clipPath><clipPath id="2e27cc47e8"><path d="M 30.339844 27.675781 L 31.601562 28.210938 L 31.511719 28.273438 C 31.457031 28.3125 31.386719 28.320312 31.324219 28.292969 L 30.609375 27.980469 C 30.542969 27.953125 30.488281 27.90625 30.449219 27.847656 Z M 30.339844 27.675781 " clip-rule="nonzero"/></clipPath><clipPath id="4deb9472d2"><path d="M 44.347656 33.796875 L 45.664062 33.796875 L 45.664062 34.289062 L 44.347656 34.289062 Z M 44.347656 33.796875 " clip-rule="nonzero"/></clipPath><clipPath id="1a883b0991"><path d="M 44.351562 34.023438 C 44.476562 33.84375 44.699219 33.761719 44.910156 33.816406 L 45.582031 33.992188 C 45.671875 34.015625 45.683594 34.136719 45.601562 34.179688 L 45.453125 34.253906 C 45.390625 34.285156 45.320312 34.292969 45.253906 34.273438 Z M 44.351562 34.023438 " clip-rule="nonzero"/></clipPath><clipPath id="01825acf01"><path d="M 46.027344 35.75 L 47.5625 35.75 L 47.5625 37.910156 L 46.027344 37.910156 Z M 46.027344 35.75 " clip-rule="nonzero"/></clipPath><clipPath id="dce7b3db54"><path d="M 46.179688 35.816406 C 46.320312 35.75 46.445312 35.734375 46.542969 35.792969 C 46.679688 35.871094 46.789062 35.996094 46.859375 36.140625 L 47.519531 37.527344 C 47.566406 37.628906 47.5625 37.75 47.507812 37.851562 C 47.472656 37.917969 47.375 37.917969 47.339844 37.847656 L 46.660156 36.53125 C 46.550781 36.316406 46.359375 36.152344 46.132812 36.074219 L 46.113281 36.070312 C 46.019531 36.035156 46.007812 35.90625 46.097656 35.859375 Z M 46.179688 35.816406 " clip-rule="nonzero"/></clipPath><clipPath id="45647bf244"><path d="M 43.617188 34.914062 L 48.15625 34.914062 L 48.15625 36.847656 L 43.617188 36.847656 Z M 43.617188 34.914062 " clip-rule="nonzero"/></clipPath><clipPath id="4d622d79f9"><path d="M 43.652344 35.03125 C 43.71875 34.9375 43.839844 34.898438 43.949219 34.933594 L 45.277344 35.359375 C 45.339844 35.382812 45.414062 35.378906 45.476562 35.347656 L 46.253906 34.972656 C 46.316406 34.941406 46.390625 34.9375 46.457031 34.957031 L 46.636719 35.007812 C 46.933594 35.09375 47.179688 35.316406 47.296875 35.605469 L 47.417969 35.894531 C 47.441406 35.953125 47.5 35.992188 47.5625 35.988281 L 47.902344 35.972656 C 47.96875 35.96875 48.027344 36.007812 48.046875 36.070312 L 48.105469 36.238281 C 48.175781 36.4375 48.15625 36.65625 48.054688 36.84375 L 47.875 36.363281 C 47.851562 36.300781 47.792969 36.261719 47.726562 36.265625 L 47.347656 36.277344 C 47.285156 36.28125 47.222656 36.242188 47.199219 36.183594 L 47.050781 35.851562 C 46.953125 35.632812 46.765625 35.464844 46.539062 35.394531 L 46.359375 35.339844 L 45.449219 35.765625 C 45.386719 35.792969 45.316406 35.796875 45.25 35.773438 L 43.726562 35.253906 C 43.636719 35.222656 43.597656 35.113281 43.652344 35.03125 " clip-rule="nonzero"/></clipPath><clipPath id="78fb4e9464"><path d="M 44.035156 34.183594 L 47.855469 34.183594 L 47.855469 35.738281 L 44.035156 35.738281 Z M 44.035156 34.183594 " clip-rule="nonzero"/></clipPath><clipPath id="18f3e0e0e4"><path d="M 47.839844 35.476562 C 47.886719 35.613281 47.792969 35.785156 47.667969 35.71875 C 47.636719 35.699219 47.609375 35.671875 47.597656 35.636719 L 47.425781 35.191406 C 47.34375 34.972656 47.15625 34.800781 46.929688 34.738281 L 46.417969 34.597656 C 46.351562 34.578125 46.277344 34.582031 46.214844 34.613281 L 45.4375 34.980469 C 45.375 35.007812 45.304688 35.015625 45.238281 34.996094 L 44.132812 34.652344 C 44.042969 34.625 44.007812 34.519531 44.0625 34.445312 C 44.125 34.351562 44.242188 34.308594 44.347656 34.339844 L 45.222656 34.597656 C 45.289062 34.617188 45.359375 34.609375 45.421875 34.578125 L 46.167969 34.21875 C 46.230469 34.1875 46.304688 34.179688 46.371094 34.199219 L 47.019531 34.367188 C 47.316406 34.445312 47.558594 34.667969 47.660156 34.960938 Z M 47.839844 35.476562 " clip-rule="nonzero"/></clipPath><clipPath id="8f4c621ed8"><path d="M 47.34375 36.511719 L 47.875 36.511719 L 47.875 37.316406 L 47.34375 37.316406 Z M 47.34375 36.511719 " clip-rule="nonzero"/></clipPath><clipPath id="6dde3eece8"><path d="M 47.558594 36.511719 C 47.625 36.511719 47.683594 36.546875 47.707031 36.609375 L 47.84375 36.945312 C 47.886719 37.046875 47.882812 37.164062 47.828125 37.261719 C 47.792969 37.324219 47.703125 37.324219 47.671875 37.257812 L 47.347656 36.523438 Z M 47.558594 36.511719 " clip-rule="nonzero"/></clipPath><clipPath id="020c5eead1"><path d="M 42.84375 36.09375 L 43.636719 36.09375 L 43.636719 36.773438 L 42.84375 36.773438 Z M 42.84375 36.09375 " clip-rule="nonzero"/></clipPath><clipPath id="aa9bb01e8a"><path d="M 42.902344 36.125 L 42.917969 36.101562 L 43.488281 36.324219 C 43.550781 36.351562 43.597656 36.40625 43.609375 36.46875 L 43.632812 36.59375 C 43.652344 36.707031 43.539062 36.796875 43.433594 36.753906 L 43.039062 36.589844 C 42.855469 36.515625 42.789062 36.289062 42.902344 36.125 " clip-rule="nonzero"/></clipPath><clipPath id="2fc33b1ec6"><path d="M 43.199219 35.519531 L 46.226562 35.519531 L 46.226562 38.402344 L 43.199219 38.402344 Z M 43.199219 35.519531 " clip-rule="nonzero"/></clipPath><clipPath id="06474cac93"><path d="M 43.234375 35.640625 C 43.300781 35.542969 43.425781 35.503906 43.535156 35.542969 L 44.167969 35.769531 C 44.230469 35.792969 44.277344 35.84375 44.292969 35.910156 L 44.433594 36.597656 C 44.445312 36.664062 44.492188 36.71875 44.554688 36.742188 L 45.488281 37.113281 C 45.726562 37.207031 45.933594 37.375 46.074219 37.589844 L 46.183594 37.757812 C 46.222656 37.816406 46.234375 37.886719 46.222656 37.953125 L 46.140625 38.390625 L 45.835938 37.964844 C 45.695312 37.765625 45.5 37.609375 45.273438 37.515625 L 44.164062 37.054688 C 44.101562 37.03125 44.054688 36.976562 44.042969 36.910156 L 43.917969 36.207031 C 43.90625 36.140625 43.859375 36.085938 43.796875 36.0625 L 43.308594 35.878906 C 43.210938 35.84375 43.175781 35.726562 43.234375 35.640625 " clip-rule="nonzero"/></clipPath><clipPath id="cfa8ef157c"><path d="M 46.96875 38.066406 L 47.230469 38.066406 L 47.230469 38.515625 L 46.96875 38.515625 Z M 46.96875 38.066406 " clip-rule="nonzero"/></clipPath><clipPath id="fb2359e567"><path d="M 47.179688 38.128906 C 47.234375 38.230469 47.234375 38.355469 47.179688 38.457031 C 47.140625 38.53125 47.03125 38.535156 46.996094 38.460938 C 46.976562 38.410156 46.96875 38.355469 46.980469 38.300781 L 47.003906 38.152344 C 47.015625 38.066406 47.132812 38.046875 47.175781 38.125 Z M 47.179688 38.128906 " clip-rule="nonzero"/></clipPath><clipPath id="9c1ffdb14d"><path d="M 44.703125 36.019531 L 46.9375 36.019531 L 46.9375 39.046875 L 44.703125 39.046875 Z M 44.703125 36.019531 " clip-rule="nonzero"/></clipPath><clipPath id="3fbcacf953"><path d="M 46.257812 37.238281 C 46.128906 37.027344 45.9375 36.867188 45.710938 36.78125 L 44.851562 36.460938 C 44.789062 36.4375 44.742188 36.382812 44.730469 36.316406 L 44.710938 36.207031 C 44.6875 36.09375 44.800781 35.996094 44.910156 36.035156 L 45.875 36.378906 C 46.144531 36.472656 46.367188 36.664062 46.503906 36.914062 L 46.8125 37.46875 C 46.847656 37.53125 46.859375 37.601562 46.847656 37.667969 L 46.710938 38.4375 C 46.699219 38.503906 46.714844 38.574219 46.753906 38.632812 L 46.933594 38.910156 C 46.847656 39.070312 46.628906 39.082031 46.527344 38.9375 L 46.394531 38.746094 C 46.355469 38.691406 46.339844 38.621094 46.351562 38.554688 L 46.492188 37.765625 C 46.503906 37.699219 46.492188 37.625 46.457031 37.566406 Z M 46.257812 37.238281 " clip-rule="nonzero"/></clipPath><clipPath id="8f744428cb"><path d="M 44.535156 37.859375 L 46.425781 37.859375 L 46.425781 39.101562 L 44.535156 39.101562 Z M 44.535156 37.859375 " clip-rule="nonzero"/></clipPath><clipPath id="955fb3ff71"><path d="M 45.121094 38.238281 C 45.070312 38.1875 45.011719 38.148438 44.949219 38.121094 L 44.542969 37.941406 L 44.621094 37.890625 C 44.675781 37.855469 44.75 37.847656 44.808594 37.875 L 44.988281 37.953125 C 45.050781 37.984375 45.113281 38.023438 45.164062 38.074219 L 45.617188 38.511719 C 45.667969 38.558594 45.726562 38.601562 45.789062 38.628906 L 46.21875 38.824219 L 46.425781 39.089844 L 45.71875 38.773438 C 45.652344 38.742188 45.59375 38.703125 45.542969 38.652344 Z M 45.121094 38.238281 " clip-rule="nonzero"/></clipPath><clipPath id="1363e11abd"><path d="M 45.433594 38.152344 L 46.070312 38.152344 L 46.070312 38.621094 L 45.433594 38.621094 Z M 45.433594 38.152344 " clip-rule="nonzero"/></clipPath><clipPath id="9612ff2b29"><path d="M 45.433594 38.152344 L 45.847656 38.335938 L 46.0625 38.617188 L 45.839844 38.519531 C 45.777344 38.488281 45.71875 38.449219 45.667969 38.398438 Z M 45.433594 38.152344 " clip-rule="nonzero"/></clipPath><clipPath id="21e2746529"><path d="M 43.691406 37.679688 L 45.328125 37.679688 L 45.328125 38.597656 L 43.691406 38.597656 Z M 43.691406 37.679688 " clip-rule="nonzero"/></clipPath><clipPath id="6ef2f1d322"><path d="M 45.324219 38.59375 L 44.328125 38.148438 C 44.097656 38.042969 43.886719 37.890625 43.714844 37.703125 L 43.691406 37.683594 L 44.847656 38.203125 C 44.910156 38.234375 44.972656 38.273438 45.023438 38.320312 Z M 45.324219 38.59375 " clip-rule="nonzero"/></clipPath><clipPath id="f378c4b65c"><path d="M 43.410156 37.253906 L 45.714844 37.253906 L 45.714844 38.140625 L 43.410156 38.140625 Z M 43.410156 37.253906 " clip-rule="nonzero"/></clipPath><clipPath id="e44a97f858"><path d="M 43.417969 37.257812 L 44.1875 37.597656 C 44.246094 37.625 44.316406 37.621094 44.375 37.582031 L 44.503906 37.496094 C 44.5625 37.460938 44.632812 37.453125 44.695312 37.480469 L 45.136719 37.667969 C 45.367188 37.765625 45.566406 37.925781 45.707031 38.128906 L 44.753906 37.714844 C 44.691406 37.6875 44.621094 37.691406 44.5625 37.726562 L 44.445312 37.800781 C 44.390625 37.835938 44.316406 37.839844 44.257812 37.8125 L 43.679688 37.554688 C 43.617188 37.527344 43.5625 37.480469 43.523438 37.421875 Z M 43.417969 37.257812 " clip-rule="nonzero"/></clipPath><clipPath id="236746b26a"><path d="M 43.128906 36.816406 L 44.398438 36.816406 L 44.398438 37.460938 L 43.128906 37.460938 Z M 43.128906 36.816406 " clip-rule="nonzero"/></clipPath><clipPath id="a489d807c9"><path d="M 43.132812 36.816406 L 44.398438 37.351562 L 44.304688 37.417969 C 44.25 37.457031 44.179688 37.464844 44.117188 37.4375 L 43.402344 37.121094 C 43.335938 37.09375 43.28125 37.046875 43.246094 36.988281 Z M 43.132812 36.816406 " clip-rule="nonzero"/></clipPath></defs><path fill="#5271ff" d="M 25.144531 46.316406 C 25.15625 46.316406 25.171875 46.316406 25.183594 46.316406 C 25.417969 46.316406 25.617188 46.140625 25.636719 45.902344 L 25.828125 43.660156 C 25.839844 43.519531 25.785156 43.378906 25.679688 43.285156 C 25.574219 43.1875 25.429688 43.148438 25.289062 43.175781 L 22.984375 43.628906 C 22.738281 43.675781 22.578125 43.914062 22.625 44.160156 C 22.675781 44.40625 22.910156 44.566406 23.160156 44.519531 L 24.066406 44.339844 L 21.875 46.496094 C 22.101562 46.695312 22.316406 46.910156 22.515625 47.136719 L 24.8125 44.878906 L 24.730469 45.824219 C 24.710938 46.074219 24.894531 46.292969 25.144531 46.316406 Z M 25.144531 46.316406 " fill-opacity="1" fill-rule="nonzero"/><path fill="#5271ff" d="M 22.515625 12.859375 C 22.316406 13.085938 22.101562 13.300781 21.875 13.503906 L 24.066406 15.65625 L 23.160156 15.480469 C 22.910156 15.429688 22.675781 15.59375 22.625 15.839844 C 22.578125 16.085938 22.738281 16.324219 22.984375 16.371094 L 25.289062 16.820312 C 25.316406 16.828125 25.347656 16.828125 25.375 16.828125 C 25.488281 16.828125 25.59375 16.789062 25.679688 16.714844 C 25.785156 16.617188 25.839844 16.480469 25.828125 16.335938 L 25.636719 14.09375 C 25.613281 13.847656 25.394531 13.65625 25.144531 13.683594 C 24.894531 13.703125 24.710938 13.921875 24.730469 14.171875 L 24.8125 15.117188 Z M 22.515625 12.859375 " fill-opacity="1" fill-rule="nonzero"/><path fill="#5271ff" d="M 53.074219 17.285156 C 53.105469 17.285156 53.132812 17.28125 53.164062 17.277344 L 55.46875 16.824219 C 55.714844 16.777344 55.875 16.539062 55.824219 16.292969 C 55.777344 16.046875 55.539062 15.882812 55.292969 15.933594 L 54.386719 16.109375 L 56.621094 13.910156 C 56.378906 13.730469 56.144531 13.535156 55.925781 13.324219 L 53.640625 15.570312 L 53.722656 14.628906 C 53.742188 14.378906 53.558594 14.15625 53.308594 14.136719 C 53.054688 14.109375 52.835938 14.300781 52.816406 14.550781 L 52.625 16.792969 C 52.613281 16.933594 52.667969 17.074219 52.773438 17.167969 C 52.855469 17.242188 52.964844 17.285156 53.074219 17.285156 Z M 53.074219 17.285156 " fill-opacity="1" fill-rule="nonzero"/><path fill="#5271ff" d="M 53.269531 45.863281 C 53.28125 45.863281 53.292969 45.863281 53.308594 45.863281 C 53.558594 45.839844 53.742188 45.621094 53.722656 45.371094 L 53.640625 44.425781 L 55.925781 46.675781 C 56.144531 46.464844 56.378906 46.269531 56.621094 46.085938 L 54.386719 43.886719 L 55.292969 44.0625 C 55.539062 44.113281 55.777344 43.953125 55.824219 43.707031 C 55.875 43.460938 55.714844 43.222656 55.46875 43.171875 L 53.164062 42.722656 C 53.023438 42.695312 52.878906 42.734375 52.773438 42.828125 C 52.667969 42.925781 52.613281 43.066406 52.625 43.207031 L 52.816406 45.449219 C 52.835938 45.683594 53.035156 45.863281 53.269531 45.863281 Z M 53.269531 45.863281 " fill-opacity="1" fill-rule="nonzero"/><g clip-path="url(#3f225eddaa)"><path fill="#5271ff" d="M 61.25 0.9375 C 57.488281 0.9375 54.4375 3.984375 54.4375 7.746094 C 54.4375 11.511719 57.488281 14.558594 61.25 14.558594 C 65.011719 14.558594 68.0625 11.511719 68.0625 7.746094 C 68.0625 3.984375 65.011719 0.9375 61.25 0.9375 Z M 65.789062 11.515625 L 65.789062 11.40625 C 65.789062 9.875 64.988281 8.566406 63.773438 7.859375 C 63.582031 8.109375 63.351562 8.332031 63.09375 8.515625 C 64.171875 9.023438 64.882812 10.097656 64.882812 11.40625 L 64.882812 12.289062 C 64.882812 12.320312 64.894531 12.347656 64.902344 12.378906 C 63.894531 13.171875 62.628906 13.652344 61.25 13.652344 C 59.871094 13.652344 58.605469 13.171875 57.597656 12.378906 C 57.605469 12.347656 57.617188 12.320312 57.617188 12.289062 L 57.617188 11.40625 C 57.617188 10.097656 58.328125 9.019531 59.40625 8.515625 C 59.148438 8.332031 58.917969 8.109375 58.726562 7.855469 C 57.511719 8.566406 56.707031 9.871094 56.707031 11.40625 L 56.707031 11.515625 C 55.859375 10.492188 55.347656 9.179688 55.347656 7.746094 C 55.347656 4.492188 57.996094 1.84375 61.25 1.84375 C 64.503906 1.84375 67.152344 4.492188 67.152344 7.746094 C 67.152344 9.179688 66.640625 10.492188 65.789062 11.515625 Z M 65.789062 11.515625 " fill-opacity="1" fill-rule="nonzero"/></g><path fill="#5271ff" d="M 61.25 3.660156 C 59.996094 3.660156 58.980469 4.675781 58.980469 5.929688 C 58.980469 7.183594 59.996094 8.203125 61.25 8.203125 C 62.503906 8.203125 63.519531 7.183594 63.519531 5.929688 C 63.519531 4.675781 62.503906 3.660156 61.25 3.660156 Z M 61.25 7.292969 C 60.5 7.292969 59.886719 6.683594 59.886719 5.929688 C 59.886719 5.179688 60.5 4.570312 61.25 4.570312 C 62 4.570312 62.613281 5.179688 62.613281 5.929688 C 62.613281 6.683594 62 7.292969 61.25 7.292969 Z M 61.25 7.292969 " fill-opacity="1" fill-rule="nonzero"/><g clip-path="url(#cf29dc374f)"><path fill="#5271ff" d="M 61.25 45.4375 C 57.488281 45.4375 54.4375 48.488281 54.4375 52.25 C 54.4375 56.011719 57.488281 59.0625 61.25 59.0625 C 65.011719 59.0625 68.0625 56.011719 68.0625 52.25 C 68.0625 48.488281 65.011719 45.4375 61.25 45.4375 Z M 65.789062 56.015625 L 65.789062 55.90625 C 65.789062 54.375 64.988281 53.066406 63.773438 52.359375 C 63.582031 52.609375 63.351562 52.832031 63.09375 53.019531 C 64.171875 53.523438 64.882812 54.597656 64.882812 55.90625 L 64.882812 56.789062 C 64.882812 56.824219 64.894531 56.851562 64.902344 56.878906 C 63.894531 57.675781 62.628906 58.152344 61.25 58.152344 C 59.871094 58.152344 58.605469 57.675781 57.597656 56.878906 C 57.605469 56.851562 57.617188 56.824219 57.617188 56.789062 L 57.617188 55.90625 C 57.617188 54.597656 58.328125 53.523438 59.40625 53.015625 C 59.148438 52.832031 58.917969 52.609375 58.726562 52.359375 C 57.511719 53.066406 56.707031 54.375 56.707031 55.90625 L 56.707031 56.015625 C 55.859375 54.992188 55.347656 53.679688 55.347656 52.25 C 55.347656 48.996094 57.996094 46.347656 61.25 46.347656 C 64.503906 46.347656 67.152344 48.996094 67.152344 52.25 C 67.152344 53.679688 66.640625 54.992188 65.789062 56.015625 Z M 65.789062 56.015625 " fill-opacity="1" fill-rule="nonzero"/></g><path fill="#5271ff" d="M 61.25 48.164062 C 59.996094 48.164062 58.980469 49.179688 58.980469 50.433594 C 58.980469 51.6875 59.996094 52.703125 61.25 52.703125 C 62.503906 52.703125 63.519531 51.6875 63.519531 50.433594 C 63.519531 49.179688 62.503906 48.164062 61.25 48.164062 Z M 61.25 51.796875 C 60.5 51.796875 59.886719 51.183594 59.886719 50.433594 C 59.886719 49.683594 60.5 49.070312 61.25 49.070312 C 62 49.070312 62.613281 49.683594 62.613281 50.433594 C 62.613281 51.183594 62 51.796875 61.25 51.796875 Z M 61.25 51.796875 " fill-opacity="1" fill-rule="nonzero"/><g clip-path="url(#d621886d50)"><path fill="#5271ff" d="M 16.746094 59.0625 C 20.511719 59.0625 23.558594 56.011719 23.558594 52.25 C 23.558594 48.488281 20.511719 45.4375 16.746094 45.4375 C 12.984375 45.4375 9.9375 48.488281 9.9375 52.25 C 9.9375 56.011719 12.984375 59.0625 16.746094 59.0625 Z M 16.746094 46.347656 C 20.003906 46.347656 22.652344 48.996094 22.652344 52.25 C 22.652344 53.679688 22.140625 54.992188 21.289062 56.015625 L 21.289062 55.90625 C 21.289062 54.375 20.484375 53.066406 19.269531 52.359375 C 19.078125 52.609375 18.851562 52.832031 18.59375 53.019531 C 19.667969 53.523438 20.378906 54.597656 20.378906 55.90625 L 20.378906 56.789062 C 20.378906 56.824219 20.390625 56.851562 20.398438 56.878906 C 19.394531 57.675781 18.125 58.152344 16.746094 58.152344 C 15.371094 58.152344 14.101562 57.675781 13.097656 56.878906 C 13.101562 56.851562 13.113281 56.824219 13.113281 56.789062 L 13.113281 55.90625 C 13.113281 54.597656 13.828125 53.523438 14.902344 53.015625 C 14.644531 52.832031 14.417969 52.609375 14.226562 52.359375 C 13.007812 53.066406 12.207031 54.375 12.207031 55.90625 L 12.207031 56.015625 C 11.355469 54.992188 10.84375 53.679688 10.84375 52.25 C 10.84375 48.996094 13.492188 46.347656 16.746094 46.347656 Z M 16.746094 46.347656 " fill-opacity="1" fill-rule="nonzero"/></g><path fill="#5271ff" d="M 16.746094 52.703125 C 18 52.703125 19.019531 51.6875 19.019531 50.433594 C 19.019531 49.179688 18 48.164062 16.746094 48.164062 C 15.496094 48.164062 14.476562 49.179688 14.476562 50.433594 C 14.476562 51.6875 15.496094 52.703125 16.746094 52.703125 Z M 16.746094 49.070312 C 17.5 49.070312 18.109375 49.683594 18.109375 50.433594 C 18.109375 51.183594 17.5 51.796875 16.746094 51.796875 C 15.996094 51.796875 15.386719 51.183594 15.386719 50.433594 C 15.386719 49.683594 15.996094 49.070312 16.746094 49.070312 Z M 16.746094 49.070312 " fill-opacity="1" fill-rule="nonzero"/><path fill="#5271ff" d="M 27.179688 43.167969 L 50.816406 43.167969 C 51.558594 43.167969 52.167969 42.558594 52.167969 41.816406 L 52.167969 18.179688 C 52.167969 17.4375 51.558594 16.828125 50.816406 16.828125 L 27.179688 16.828125 C 26.4375 16.828125 25.828125 17.4375 25.828125 18.179688 L 25.828125 41.816406 C 25.828125 42.558594 26.4375 43.167969 27.179688 43.167969 Z M 26.738281 18.179688 C 26.738281 17.96875 26.96875 17.738281 27.179688 17.738281 L 50.816406 17.738281 C 51.03125 17.738281 51.257812 17.96875 51.257812 18.179688 L 51.257812 20.460938 L 26.738281 20.460938 Z M 26.738281 21.371094 L 51.257812 21.371094 L 51.257812 41.816406 C 51.257812 42.03125 51.03125 42.257812 50.816406 42.257812 L 27.179688 42.257812 C 26.96875 42.257812 26.738281 42.03125 26.738281 41.816406 Z M 26.738281 21.371094 " fill-opacity="1" fill-rule="nonzero"/><g clip-path="url(#a1c107a868)"><path fill="#5271ff" d="M 16.746094 14.558594 C 20.511719 14.558594 23.558594 11.511719 23.558594 7.746094 C 23.558594 3.984375 20.511719 0.9375 16.746094 0.9375 C 12.984375 0.9375 9.9375 3.984375 9.9375 7.746094 C 9.9375 11.511719 12.984375 14.558594 16.746094 14.558594 Z M 16.746094 1.84375 C 20.003906 1.84375 22.652344 4.492188 22.652344 7.746094 C 22.652344 9.179688 22.140625 10.492188 21.289062 11.515625 L 21.289062 11.40625 C 21.289062 9.875 20.484375 8.566406 19.269531 7.859375 C 19.078125 8.109375 18.851562 8.332031 18.59375 8.515625 C 19.667969 9.023438 20.378906 10.097656 20.378906 11.40625 L 20.378906 12.289062 C 20.378906 12.320312 20.390625 12.347656 20.398438 12.378906 C 19.394531 13.171875 18.125 13.652344 16.746094 13.652344 C 15.371094 13.652344 14.101562 13.171875 13.097656 12.378906 C 13.101562 12.347656 13.113281 12.320312 13.113281 12.289062 L 13.113281 11.40625 C 13.113281 10.097656 13.828125 9.019531 14.902344 8.515625 C 14.644531 8.332031 14.417969 8.109375 14.226562 7.855469 C 13.007812 8.566406 12.207031 9.871094 12.207031 11.40625 L 12.207031 11.515625 C 11.355469 10.492188 10.84375 9.179688 10.84375 7.746094 C 10.84375 4.492188 13.492188 1.84375 16.746094 1.84375 Z M 16.746094 1.84375 " fill-opacity="1" fill-rule="nonzero"/></g><path fill="#5271ff" d="M 39 24.09375 L 48.988281 24.09375 C 49.238281 24.09375 49.441406 23.890625 49.441406 23.640625 C 49.441406 23.390625 49.238281 23.1875 48.988281 23.1875 L 39 23.1875 C 38.75 23.1875 38.542969 23.390625 38.542969 23.640625 C 38.542969 23.890625 38.75 24.09375 39 24.09375 Z M 39 24.09375 " fill-opacity="1" fill-rule="nonzero"/><path fill="#5271ff" d="M 39 25.910156 L 48.988281 25.910156 C 49.238281 25.910156 49.441406 25.707031 49.441406 25.457031 C 49.441406 25.207031 49.238281 25.003906 48.988281 25.003906 L 39 25.003906 C 38.75 25.003906 38.542969 25.207031 38.542969 25.457031 C 38.542969 25.707031 38.75 25.910156 39 25.910156 Z M 39 25.910156 " fill-opacity="1" fill-rule="nonzero"/><path fill="#5271ff" d="M 39 27.726562 L 48.988281 27.726562 C 49.238281 27.726562 49.441406 27.523438 49.441406 27.273438 C 49.441406 27.023438 49.238281 26.820312 48.988281 26.820312 L 39 26.820312 C 38.75 26.820312 38.542969 27.023438 38.542969 27.273438 C 38.542969 27.523438 38.75 27.726562 39 27.726562 Z M 39 27.726562 " fill-opacity="1" fill-rule="nonzero"/><path fill="#5271ff" d="M 39 29.542969 L 48.988281 29.542969 C 49.238281 29.542969 49.441406 29.339844 49.441406 29.089844 C 49.441406 28.839844 49.238281 28.636719 48.988281 28.636719 L 39 28.636719 C 38.75 28.636719 38.542969 28.839844 38.542969 29.089844 C 38.542969 29.339844 38.75 29.542969 39 29.542969 Z M 39 29.542969 " fill-opacity="1" fill-rule="nonzero"/><path fill="#5271ff" d="M 39 31.359375 L 48.988281 31.359375 C 49.238281 31.359375 49.441406 31.15625 49.441406 30.90625 C 49.441406 30.65625 49.238281 30.453125 48.988281 30.453125 L 39 30.453125 C 38.75 30.453125 38.542969 30.65625 38.542969 30.90625 C 38.542969 31.15625 38.75 31.359375 39 31.359375 Z M 39 31.359375 " fill-opacity="1" fill-rule="nonzero"/><path fill="#5271ff" d="M 29.460938 31.359375 L 35.820312 31.359375 C 36.320312 31.359375 36.726562 30.953125 36.726562 30.453125 L 36.726562 24.09375 C 36.726562 23.597656 36.320312 23.1875 35.820312 23.1875 L 29.460938 23.1875 C 28.964844 23.1875 28.554688 23.597656 28.554688 24.09375 L 28.554688 30.453125 C 28.554688 30.953125 28.964844 31.359375 29.460938 31.359375 Z M 29.460938 24.09375 L 35.820312 24.09375 L 35.820312 30.453125 L 29.460938 30.453125 Z M 29.460938 24.09375 " fill-opacity="1" fill-rule="nonzero"/><path fill="#5271ff" d="M 29.007812 33.175781 L 39 33.175781 C 39.25 33.175781 39.453125 32.972656 39.453125 32.722656 C 39.453125 32.472656 39.25 32.269531 39 32.269531 L 29.007812 32.269531 C 28.757812 32.269531 28.554688 32.472656 28.554688 32.722656 C 28.554688 32.972656 28.757812 33.175781 29.007812 33.175781 Z M 29.007812 33.175781 " fill-opacity="1" fill-rule="nonzero"/><path fill="#5271ff" d="M 29.007812 34.992188 L 39 34.992188 C 39.25 34.992188 39.453125 34.789062 39.453125 34.539062 C 39.453125 34.289062 39.25 34.085938 39 34.085938 L 29.007812 34.085938 C 28.757812 34.085938 28.554688 34.289062 28.554688 34.539062 C 28.554688 34.789062 28.757812 34.992188 29.007812 34.992188 Z M 29.007812 34.992188 " fill-opacity="1" fill-rule="nonzero"/><path fill="#5271ff" d="M 29.007812 36.808594 L 39 36.808594 C 39.25 36.808594 39.453125 36.605469 39.453125 36.355469 C 39.453125 36.105469 39.25 35.902344 39 35.902344 L 29.007812 35.902344 C 28.757812 35.902344 28.554688 36.105469 28.554688 36.355469 C 28.554688 36.605469 28.757812 36.808594 29.007812 36.808594 Z M 29.007812 36.808594 " fill-opacity="1" fill-rule="nonzero"/><path fill="#5271ff" d="M 29.007812 38.625 L 39 38.625 C 39.25 38.625 39.453125 38.421875 39.453125 38.171875 C 39.453125 37.921875 39.25 37.71875 39 37.71875 L 29.007812 37.71875 C 28.757812 37.71875 28.554688 37.921875 28.554688 38.171875 C 28.554688 38.421875 28.757812 38.625 29.007812 38.625 Z M 29.007812 38.625 " fill-opacity="1" fill-rule="nonzero"/><path fill="#5271ff" d="M 29.007812 40.441406 L 39 40.441406 C 39.25 40.441406 39.453125 40.238281 39.453125 39.988281 C 39.453125 39.738281 39.25 39.535156 39 39.535156 L 29.007812 39.535156 C 28.757812 39.535156 28.554688 39.738281 28.554688 39.988281 C 28.554688 40.238281 28.757812 40.441406 29.007812 40.441406 Z M 29.007812 40.441406 " fill-opacity="1" fill-rule="nonzero"/><path fill="#5271ff" d="M 48.535156 32.269531 L 42.175781 32.269531 C 41.679688 32.269531 41.269531 32.679688 41.269531 33.175781 L 41.269531 39.535156 C 41.269531 40.035156 41.679688 40.441406 42.175781 40.441406 L 48.535156 40.441406 C 49.035156 40.441406 49.441406 40.035156 49.441406 39.535156 L 49.441406 33.175781 C 49.441406 32.679688 49.035156 32.269531 48.535156 32.269531 Z M 48.535156 39.535156 L 42.175781 39.535156 L 42.175781 33.175781 L 48.535156 33.175781 Z M 48.535156 39.535156 " fill-opacity="1" fill-rule="nonzero"/><path fill="#5271ff" d="M 13.113281 27.726562 C 12.863281 27.726562 12.660156 27.933594 12.660156 28.183594 C 12.660156 28.433594 12.863281 28.636719 13.113281 28.636719 L 19.472656 28.636719 C 19.722656 28.636719 19.925781 28.433594 19.925781 28.183594 C 19.925781 27.933594 19.722656 27.726562 19.472656 27.726562 Z M 13.113281 27.726562 " fill-opacity="1" fill-rule="nonzero"/><g clip-path="url(#37ceb32f5c)"><path fill="#5271ff" d="M 10.390625 30.453125 L 19.472656 30.453125 C 19.722656 30.453125 19.925781 30.25 19.925781 30 C 19.925781 29.75 19.722656 29.542969 19.472656 29.542969 L 10.390625 29.542969 C 10.140625 29.542969 9.9375 29.75 9.9375 30 C 9.9375 30.25 10.140625 30.453125 10.390625 30.453125 Z M 10.390625 30.453125 " fill-opacity="1" fill-rule="nonzero"/></g><path fill="#5271ff" d="M 19.472656 31.359375 L 13.113281 31.359375 C 12.863281 31.359375 12.660156 31.566406 12.660156 31.816406 C 12.660156 32.066406 12.863281 32.269531 13.113281 32.269531 L 19.472656 32.269531 C 19.722656 32.269531 19.925781 32.066406 19.925781 31.816406 C 19.925781 31.566406 19.722656 31.359375 19.472656 31.359375 Z M 19.472656 31.359375 " fill-opacity="1" fill-rule="nonzero"/><path fill="#5271ff" d="M 58.523438 28.636719 L 64.882812 28.636719 C 65.132812 28.636719 65.335938 28.433594 65.335938 28.183594 C 65.335938 27.933594 65.132812 27.726562 64.882812 27.726562 L 58.523438 27.726562 C 58.273438 27.726562 58.070312 27.933594 58.070312 28.183594 C 58.070312 28.433594 58.273438 28.636719 58.523438 28.636719 Z M 58.523438 28.636719 " fill-opacity="1" fill-rule="nonzero"/><g clip-path="url(#a7faa4bd5c)"><path fill="#5271ff" d="M 67.605469 29.542969 L 58.523438 29.542969 C 58.273438 29.542969 58.070312 29.75 58.070312 30 C 58.070312 30.25 58.273438 30.453125 58.523438 30.453125 L 67.605469 30.453125 C 67.859375 30.453125 68.0625 30.25 68.0625 30 C 68.0625 29.75 67.859375 29.542969 67.605469 29.542969 Z M 67.605469 29.542969 " fill-opacity="1" fill-rule="nonzero"/></g><path fill="#5271ff" d="M 64.882812 32.269531 C 65.132812 32.269531 65.335938 32.066406 65.335938 31.816406 C 65.335938 31.566406 65.132812 31.359375 64.882812 31.359375 L 58.523438 31.359375 C 58.273438 31.359375 58.070312 31.566406 58.070312 31.816406 C 58.070312 32.066406 58.273438 32.269531 58.523438 32.269531 Z M 64.882812 32.269531 " fill-opacity="1" fill-rule="nonzero"/><path fill="#5271ff" d="M 50.351562 19.101562 C 50.351562 19.226562 50.308594 19.332031 50.21875 19.421875 C 50.128906 19.511719 50.023438 19.554688 49.898438 19.554688 C 49.773438 19.554688 49.664062 19.511719 49.578125 19.421875 C 49.488281 19.332031 49.441406 19.226562 49.441406 19.101562 C 49.441406 18.976562 49.488281 18.867188 49.578125 18.78125 C 49.664062 18.691406 49.773438 18.644531 49.898438 18.644531 C 50.023438 18.644531 50.128906 18.691406 50.21875 18.78125 C 50.308594 18.867188 50.351562 18.976562 50.351562 19.101562 Z M 50.351562 19.101562 " fill-opacity="1" fill-rule="nonzero"/><path fill="#5271ff" d="M 48.535156 19.101562 C 48.535156 19.226562 48.492188 19.332031 48.402344 19.421875 C 48.3125 19.511719 48.207031 19.554688 48.082031 19.554688 C 47.957031 19.554688 47.847656 19.511719 47.761719 19.421875 C 47.671875 19.332031 47.625 19.226562 47.625 19.101562 C 47.625 18.976562 47.671875 18.867188 47.761719 18.78125 C 47.847656 18.691406 47.957031 18.644531 48.082031 18.644531 C 48.207031 18.644531 48.3125 18.691406 48.402344 18.78125 C 48.492188 18.867188 48.535156 18.976562 48.535156 19.101562 Z M 48.535156 19.101562 " fill-opacity="1" fill-rule="nonzero"/><path fill="#5271ff" d="M 37.183594 18.644531 L 28.101562 18.644531 C 27.851562 18.644531 27.644531 18.851562 27.644531 19.101562 C 27.644531 19.351562 27.851562 19.554688 28.101562 19.554688 L 37.183594 19.554688 C 37.433594 19.554688 37.636719 19.351562 37.636719 19.101562 C 37.636719 18.851562 37.433594 18.644531 37.183594 18.644531 Z M 37.183594 18.644531 " fill-opacity="1" fill-rule="nonzero"/><path fill="#5271ff" d="M 16.746094 8.203125 C 18 8.203125 19.019531 7.183594 19.019531 5.929688 C 19.019531 4.675781 18 3.660156 16.746094 3.660156 C 15.496094 3.660156 14.476562 4.675781 14.476562 5.929688 C 14.476562 7.183594 15.496094 8.203125 16.746094 8.203125 Z M 16.746094 4.570312 C 17.5 4.570312 18.109375 5.179688 18.109375 5.929688 C 18.109375 6.683594 17.5 7.292969 16.746094 7.292969 C 15.996094 7.292969 15.386719 6.683594 15.386719 5.929688 C 15.386719 5.179688 15.996094 4.570312 16.746094 4.570312 Z M 16.746094 4.570312 " fill-opacity="1" fill-rule="nonzero"/><g clip-path="url(#885200a985)"><g clip-path="url(#f91a4f2b2c)"><path fill="#f266ff" d="M 30 24.605469 L 35.40625 24.605469 L 35.40625 30 L 30 30 Z M 30 24.605469 " fill-opacity="1" fill-rule="nonzero"/></g></g><g clip-path="url(#bbd79caf9f)"><g clip-path="url(#6fc0a4c9e9)"><path fill="#ff637e" d="M 30 24.605469 L 35.40625 24.605469 L 35.40625 30 L 30 30 Z M 30 24.605469 " fill-opacity="1" fill-rule="nonzero"/></g></g><g clip-path="url(#cb8f1fe0d9)"><g clip-path="url(#91e88b7b92)"><path fill="#00d7be" d="M 30 24.605469 L 35.40625 24.605469 L 35.40625 30 L 30 30 Z M 30 24.605469 " fill-opacity="1" fill-rule="nonzero"/></g></g><g clip-path="url(#ac8a63cde9)"><g clip-path="url(#09cbb604bd)"><path fill="#1f93ff" d="M 30 24.605469 L 35.40625 24.605469 L 35.40625 30 L 30 30 Z M 30 24.605469 " fill-opacity="1" fill-rule="nonzero"/></g></g><g clip-path="url(#1e83c41f48)"><g clip-path="url(#30e3c97108)"><path fill="#ffd500" d="M 30 24.605469 L 35.40625 24.605469 L 35.40625 30 L 30 30 Z M 30 24.605469 " fill-opacity="1" fill-rule="nonzero"/></g></g><g clip-path="url(#5b956d87ac)"><g clip-path="url(#8550155d9e)"><path fill="#1f93ff" d="M 30 24.605469 L 35.40625 24.605469 L 35.40625 30 L 30 30 Z M 30 24.605469 " fill-opacity="1" fill-rule="nonzero"/></g></g><g clip-path="url(#772cfbeb0d)"><g clip-path="url(#15a879b8c6)"><path fill="#f266ff" d="M 30 24.605469 L 35.40625 24.605469 L 35.40625 30 L 30 30 Z M 30 24.605469 " fill-opacity="1" fill-rule="nonzero"/></g></g><g clip-path="url(#199ccf042e)"><g clip-path="url(#2c3ac1eb78)"><path fill="#1f93ff" d="M 30 24.605469 L 35.40625 24.605469 L 35.40625 30 L 30 30 Z M 30 24.605469 " fill-opacity="1" fill-rule="nonzero"/></g></g><g clip-path="url(#12fea1ed8e)"><g clip-path="url(#e29e9a4e59)"><path fill="#ffcf00" d="M 30 24.605469 L 35.40625 24.605469 L 35.40625 30 L 30 30 Z M 30 24.605469 " fill-opacity="1" fill-rule="nonzero"/></g></g><g clip-path="url(#3c265443a2)"><g clip-path="url(#57d9940414)"><path fill="#61d742" d="M 30 24.605469 L 35.40625 24.605469 L 35.40625 30 L 30 30 Z M 30 24.605469 " fill-opacity="1" fill-rule="nonzero"/></g></g><g clip-path="url(#b283a7bc9c)"><g clip-path="url(#13be8e5389)"><path fill="#1f93ff" d="M 30 24.605469 L 35.40625 24.605469 L 35.40625 30 L 30 30 Z M 30 24.605469 " fill-opacity="1" fill-rule="nonzero"/></g></g><g clip-path="url(#1651af18b0)"><g clip-path="url(#d8bf5d4203)"><path fill="#1f93ff" d="M 30 24.605469 L 35.40625 24.605469 L 35.40625 30 L 30 30 Z M 30 24.605469 " fill-opacity="1" fill-rule="nonzero"/></g></g><g clip-path="url(#e6cf425b66)"><g clip-path="url(#7a3529cdd8)"><path fill="#ff7a78" d="M 30 24.605469 L 35.40625 24.605469 L 35.40625 30 L 30 30 Z M 30 24.605469 " fill-opacity="1" fill-rule="nonzero"/></g></g><g clip-path="url(#f19798e4e7)"><g clip-path="url(#2e27cc47e8)"><path fill="#ffcf00" d="M 30 24.605469 L 35.40625 24.605469 L 35.40625 30 L 30 30 Z M 30 24.605469 " fill-opacity="1" fill-rule="nonzero"/></g></g><g clip-path="url(#4deb9472d2)"><g clip-path="url(#1a883b0991)"><path fill="#f266ff" d="M 42.792969 33.746094 L 48.199219 33.746094 L 48.199219 39.140625 L 42.792969 39.140625 Z M 42.792969 33.746094 " fill-opacity="1" fill-rule="nonzero"/></g></g><g clip-path="url(#01825acf01)"><g clip-path="url(#dce7b3db54)"><path fill="#ff637e" d="M 42.792969 33.746094 L 48.199219 33.746094 L 48.199219 39.140625 L 42.792969 39.140625 Z M 42.792969 33.746094 " fill-opacity="1" fill-rule="nonzero"/></g></g><g clip-path="url(#45647bf244)"><g clip-path="url(#4d622d79f9)"><path fill="#00d7be" d="M 42.792969 33.746094 L 48.199219 33.746094 L 48.199219 39.140625 L 42.792969 39.140625 Z M 42.792969 33.746094 " fill-opacity="1" fill-rule="nonzero"/></g></g><g clip-path="url(#78fb4e9464)"><g clip-path="url(#18f3e0e0e4)"><path fill="#1f93ff" d="M 42.792969 33.746094 L 48.199219 33.746094 L 48.199219 39.140625 L 42.792969 39.140625 Z M 42.792969 33.746094 " fill-opacity="1" fill-rule="nonzero"/></g></g><g clip-path="url(#8f4c621ed8)"><g clip-path="url(#6dde3eece8)"><path fill="#ffd500" d="M 42.792969 33.746094 L 48.199219 33.746094 L 48.199219 39.140625 L 42.792969 39.140625 Z M 42.792969 33.746094 " fill-opacity="1" fill-rule="nonzero"/></g></g><g clip-path="url(#020c5eead1)"><g clip-path="url(#aa9bb01e8a)"><path fill="#1f93ff" d="M 42.792969 33.746094 L 48.199219 33.746094 L 48.199219 39.140625 L 42.792969 39.140625 Z M 42.792969 33.746094 " fill-opacity="1" fill-rule="nonzero"/></g></g><g clip-path="url(#2fc33b1ec6)"><g clip-path="url(#06474cac93)"><path fill="#f266ff" d="M 42.792969 33.746094 L 48.199219 33.746094 L 48.199219 39.140625 L 42.792969 39.140625 Z M 42.792969 33.746094 " fill-opacity="1" fill-rule="nonzero"/></g></g><g clip-path="url(#cfa8ef157c)"><g clip-path="url(#fb2359e567)"><path fill="#1f93ff" d="M 42.792969 33.746094 L 48.199219 33.746094 L 48.199219 39.140625 L 42.792969 39.140625 Z M 42.792969 33.746094 " fill-opacity="1" fill-rule="nonzero"/></g></g><g clip-path="url(#9c1ffdb14d)"><g clip-path="url(#3fbcacf953)"><path fill="#ffcf00" d="M 42.792969 33.746094 L 48.199219 33.746094 L 48.199219 39.140625 L 42.792969 39.140625 Z M 42.792969 33.746094 " fill-opacity="1" fill-rule="nonzero"/></g></g><g clip-path="url(#8f744428cb)"><g clip-path="url(#955fb3ff71)"><path fill="#61d742" d="M 42.792969 33.746094 L 48.199219 33.746094 L 48.199219 39.140625 L 42.792969 39.140625 Z M 42.792969 33.746094 " fill-opacity="1" fill-rule="nonzero"/></g></g><g clip-path="url(#1363e11abd)"><g clip-path="url(#9612ff2b29)"><path fill="#1f93ff" d="M 42.792969 33.746094 L 48.199219 33.746094 L 48.199219 39.140625 L 42.792969 39.140625 Z M 42.792969 33.746094 " fill-opacity="1" fill-rule="nonzero"/></g></g><g clip-path="url(#21e2746529)"><g clip-path="url(#6ef2f1d322)"><path fill="#1f93ff" d="M 42.792969 33.746094 L 48.199219 33.746094 L 48.199219 39.140625 L 42.792969 39.140625 Z M 42.792969 33.746094 " fill-opacity="1" fill-rule="nonzero"/></g></g><g clip-path="url(#f378c4b65c)"><g clip-path="url(#e44a97f858)"><path fill="#ff7a78" d="M 42.792969 33.746094 L 48.199219 33.746094 L 48.199219 39.140625 L 42.792969 39.140625 Z M 42.792969 33.746094 " fill-opacity="1" fill-rule="nonzero"/></g></g><g clip-path="url(#236746b26a)"><g clip-path="url(#a489d807c9)"><path fill="#ffcf00" d="M 42.792969 33.746094 L 48.199219 33.746094 L 48.199219 39.140625 L 42.792969 39.140625 Z M 42.792969 33.746094 " fill-opacity="1" fill-rule="nonzero"/></g></g></svg>