<svg xmlns="http://www.w3.org/2000/svg" xmlns:xlink="http://www.w3.org/1999/xlink" width="104" zoomAndPan="magnify" viewBox="0 0 78 60" height="80" preserveAspectRatio="xMidYMid meet" version="1.0"><defs><filter x="0%" y="0%" width="100%" height="100%" id="519aaadcd5"><feColorMatrix values="0 0 0 0 1 0 0 0 0 1 0 0 0 0 1 0 0 0 1 0" color-interpolation-filters="sRGB"/></filter><clipPath id="c0ecb579dd"><path d="M 51 1.214844 L 67 1.214844 L 67 17 L 51 17 Z M 51 1.214844 " clip-rule="nonzero"/></clipPath><clipPath id="fb464c7fc4"><path d="M 10.214844 20 L 67.964844 20 L 67.964844 44 L 10.214844 44 Z M 10.214844 20 " clip-rule="nonzero"/></clipPath><clipPath id="0d70b005be"><path d="M 15 47 L 25 47 L 25 58.964844 L 15 58.964844 Z M 15 47 " clip-rule="nonzero"/></clipPath><clipPath id="c7e7f36f18"><path d="M 27 45 L 38 45 L 38 58.964844 L 27 58.964844 Z M 27 45 " clip-rule="nonzero"/></clipPath><clipPath id="8fbea51077"><path d="M 39 42 L 50 42 L 50 58.964844 L 39 58.964844 Z M 39 42 " clip-rule="nonzero"/></clipPath><clipPath id="0e13b20f5a"><path d="M 52 38 L 62 38 L 62 58.964844 L 52 58.964844 Z M 52 38 " clip-rule="nonzero"/></clipPath><mask id="0a498c73ac"><g filter="url(#519aaadcd5)"><rect x="-7.8" width="93.6" fill="#000000" y="-6" height="72" fill-opacity="0.12"/></g></mask><clipPath id="014c1d2d44"><path d="M 1.640625 0.660156 L 2.550781 0.660156 L 2.550781 0.996094 L 1.640625 0.996094 Z M 1.640625 0.660156 " clip-rule="nonzero"/></clipPath><clipPath id="e046cda01e"><path d="M 1.644531 0.8125 C 1.730469 0.691406 1.882812 0.632812 2.03125 0.671875 L 2.492188 0.792969 C 2.554688 0.808594 2.566406 0.894531 2.507812 0.921875 L 2.40625 0.972656 C 2.363281 0.996094 2.3125 1 2.265625 0.988281 Z M 1.644531 0.8125 " clip-rule="nonzero"/></clipPath><clipPath id="f01109bfb4"><path d="M 2.800781 2.007812 L 3.859375 2.007812 L 3.859375 3.5 L 2.800781 3.5 Z M 2.800781 2.007812 " clip-rule="nonzero"/></clipPath><clipPath id="278f2472a2"><path d="M 2.90625 2.054688 C 3.003906 2.007812 3.089844 1.996094 3.15625 2.035156 C 3.25 2.089844 3.328125 2.175781 3.375 2.277344 L 3.832031 3.234375 C 3.863281 3.304688 3.863281 3.386719 3.824219 3.457031 C 3.800781 3.503906 3.730469 3.503906 3.707031 3.457031 L 3.238281 2.546875 C 3.160156 2.398438 3.03125 2.285156 2.871094 2.230469 L 2.859375 2.226562 C 2.796875 2.203125 2.789062 2.113281 2.851562 2.082031 Z M 2.90625 2.054688 " clip-rule="nonzero"/></clipPath><clipPath id="29be969f6b"><path d="M 1.136719 1.429688 L 4.273438 1.429688 L 4.273438 2.761719 L 1.136719 2.761719 Z M 1.136719 1.429688 " clip-rule="nonzero"/></clipPath><clipPath id="35c3264a05"><path d="M 1.160156 1.511719 C 1.207031 1.445312 1.289062 1.417969 1.367188 1.441406 L 2.28125 1.738281 C 2.328125 1.753906 2.375 1.75 2.417969 1.730469 L 2.957031 1.46875 C 3 1.449219 3.050781 1.445312 3.097656 1.457031 L 3.222656 1.496094 C 3.429688 1.554688 3.597656 1.707031 3.679688 1.90625 L 3.761719 2.105469 C 3.777344 2.148438 3.816406 2.171875 3.863281 2.171875 L 4.097656 2.160156 C 4.140625 2.15625 4.179688 2.183594 4.195312 2.226562 L 4.234375 2.34375 C 4.285156 2.480469 4.269531 2.632812 4.203125 2.761719 L 4.074219 2.429688 C 4.058594 2.386719 4.019531 2.363281 3.976562 2.363281 L 3.714844 2.371094 C 3.667969 2.375 3.628906 2.347656 3.609375 2.304688 L 3.507812 2.074219 C 3.441406 1.925781 3.3125 1.808594 3.152344 1.761719 L 3.03125 1.722656 L 2.402344 2.015625 C 2.359375 2.035156 2.308594 2.039062 2.265625 2.023438 L 1.210938 1.664062 C 1.148438 1.644531 1.125 1.566406 1.160156 1.511719 " clip-rule="nonzero"/></clipPath><clipPath id="bfb08c4d74"><path d="M 1.425781 0.925781 L 4.0625 0.925781 L 4.0625 2 L 1.425781 2 Z M 1.425781 0.925781 " clip-rule="nonzero"/></clipPath><clipPath id="81a524edac"><path d="M 4.054688 1.820312 C 4.085938 1.914062 4.019531 2.03125 3.933594 1.984375 C 3.910156 1.972656 3.894531 1.953125 3.886719 1.929688 L 3.765625 1.621094 C 3.710938 1.46875 3.582031 1.351562 3.425781 1.308594 L 3.070312 1.210938 C 3.023438 1.199219 2.972656 1.203125 2.929688 1.222656 L 2.394531 1.476562 C 2.351562 1.496094 2.300781 1.5 2.257812 1.484375 L 1.492188 1.25 C 1.433594 1.230469 1.40625 1.15625 1.441406 1.105469 C 1.488281 1.039062 1.566406 1.011719 1.640625 1.035156 L 2.246094 1.210938 C 2.289062 1.222656 2.339844 1.21875 2.382812 1.199219 L 2.898438 0.949219 C 2.941406 0.925781 2.992188 0.921875 3.039062 0.933594 L 3.484375 1.050781 C 3.691406 1.105469 3.859375 1.261719 3.929688 1.460938 Z M 4.054688 1.820312 " clip-rule="nonzero"/></clipPath><clipPath id="f9f0b38f5c"><path d="M 3.710938 2.53125 L 4.078125 2.53125 L 4.078125 3.085938 L 3.710938 3.085938 Z M 3.710938 2.53125 " clip-rule="nonzero"/></clipPath><clipPath id="73476fcc9e"><path d="M 3.859375 2.535156 C 3.902344 2.53125 3.945312 2.558594 3.960938 2.597656 L 4.054688 2.832031 C 4.085938 2.902344 4.082031 2.984375 4.042969 3.050781 C 4.019531 3.09375 3.957031 3.09375 3.9375 3.046875 L 3.714844 2.539062 Z M 3.859375 2.535156 " clip-rule="nonzero"/></clipPath><clipPath id="fa35aa845f"><path d="M 0.605469 2.246094 L 1.152344 2.246094 L 1.152344 2.714844 L 0.605469 2.714844 Z M 0.605469 2.246094 " clip-rule="nonzero"/></clipPath><clipPath id="89164bda00"><path d="M 0.640625 2.265625 L 0.652344 2.25 L 1.046875 2.402344 C 1.089844 2.421875 1.121094 2.457031 1.132812 2.503906 L 1.148438 2.589844 C 1.160156 2.667969 1.082031 2.730469 1.011719 2.699219 L 0.738281 2.585938 C 0.609375 2.535156 0.5625 2.378906 0.640625 2.265625 " clip-rule="nonzero"/></clipPath><clipPath id="0e9f2d6589"><path d="M 0.847656 1.847656 L 2.9375 1.847656 L 2.9375 3.835938 L 0.847656 3.835938 Z M 0.847656 1.847656 " clip-rule="nonzero"/></clipPath><clipPath id="b53e23ca0f"><path d="M 0.871094 1.933594 C 0.917969 1.863281 1.003906 1.835938 1.082031 1.863281 L 1.515625 2.019531 C 1.5625 2.035156 1.59375 2.074219 1.601562 2.117188 L 1.699219 2.59375 C 1.707031 2.636719 1.738281 2.675781 1.78125 2.691406 L 2.429688 2.945312 C 2.59375 3.011719 2.738281 3.128906 2.832031 3.277344 L 2.910156 3.394531 C 2.933594 3.433594 2.945312 3.480469 2.933594 3.527344 L 2.878906 3.832031 L 2.667969 3.539062 C 2.570312 3.398438 2.4375 3.289062 2.277344 3.226562 L 1.511719 2.910156 C 1.46875 2.890625 1.441406 2.851562 1.429688 2.808594 L 1.34375 2.320312 C 1.335938 2.277344 1.304688 2.238281 1.261719 2.222656 L 0.921875 2.09375 C 0.855469 2.070312 0.832031 1.988281 0.871094 1.933594 " clip-rule="nonzero"/></clipPath><clipPath id="7138e9014e"><path d="M 3.449219 3.605469 L 3.628906 3.605469 L 3.628906 3.917969 L 3.449219 3.917969 Z M 3.449219 3.605469 " clip-rule="nonzero"/></clipPath><clipPath id="73d524e943"><path d="M 3.597656 3.648438 C 3.636719 3.71875 3.636719 3.804688 3.597656 3.875 C 3.570312 3.925781 3.492188 3.929688 3.472656 3.878906 C 3.457031 3.84375 3.453125 3.804688 3.457031 3.765625 L 3.476562 3.667969 C 3.484375 3.605469 3.566406 3.59375 3.59375 3.644531 Z M 3.597656 3.648438 " clip-rule="nonzero"/></clipPath><clipPath id="c09ba9a547"><path d="M 1.886719 2.195312 L 3.429688 2.195312 L 3.429688 4.285156 L 1.886719 4.285156 Z M 1.886719 2.195312 " clip-rule="nonzero"/></clipPath><clipPath id="dd9915c82a"><path d="M 2.960938 3.035156 C 2.871094 2.890625 2.738281 2.777344 2.582031 2.71875 L 1.988281 2.496094 C 1.945312 2.480469 1.914062 2.441406 1.90625 2.398438 L 1.890625 2.324219 C 1.875 2.242188 1.953125 2.175781 2.03125 2.203125 L 2.695312 2.441406 C 2.882812 2.507812 3.035156 2.636719 3.132812 2.808594 L 3.34375 3.195312 C 3.367188 3.234375 3.375 3.285156 3.367188 3.332031 L 3.273438 3.863281 C 3.265625 3.910156 3.277344 3.957031 3.300781 3.996094 L 3.425781 4.191406 C 3.367188 4.296875 3.21875 4.308594 3.144531 4.207031 L 3.054688 4.078125 C 3.027344 4.039062 3.015625 3.988281 3.023438 3.941406 L 3.121094 3.398438 C 3.128906 3.351562 3.121094 3.300781 3.097656 3.261719 Z M 2.960938 3.035156 " clip-rule="nonzero"/></clipPath><clipPath id="6b59576795"><path d="M 1.769531 3.460938 L 3.074219 3.460938 L 3.074219 4.320312 L 1.769531 4.320312 Z M 1.769531 3.460938 " clip-rule="nonzero"/></clipPath><clipPath id="bc8f98b0d6"><path d="M 2.175781 3.726562 C 2.140625 3.691406 2.101562 3.664062 2.054688 3.644531 L 1.777344 3.519531 L 1.828125 3.484375 C 1.867188 3.460938 1.917969 3.457031 1.960938 3.476562 L 2.082031 3.53125 C 2.128906 3.550781 2.167969 3.578125 2.203125 3.609375 L 2.515625 3.914062 C 2.550781 3.945312 2.59375 3.976562 2.636719 3.996094 L 2.933594 4.128906 L 3.074219 4.3125 L 2.589844 4.09375 C 2.542969 4.074219 2.503906 4.046875 2.46875 4.011719 Z M 2.175781 3.726562 " clip-rule="nonzero"/></clipPath><clipPath id="d9ff4363a9"><path d="M 2.390625 3.664062 L 2.832031 3.664062 L 2.832031 3.988281 L 2.390625 3.988281 Z M 2.390625 3.664062 " clip-rule="nonzero"/></clipPath><clipPath id="c00280468f"><path d="M 2.390625 3.667969 L 2.675781 3.792969 L 2.824219 3.984375 L 2.671875 3.917969 C 2.628906 3.898438 2.585938 3.871094 2.554688 3.835938 Z M 2.390625 3.667969 " clip-rule="nonzero"/></clipPath><clipPath id="c1eb1cfca4"><path d="M 1.1875 3.339844 L 2.320312 3.339844 L 2.320312 3.972656 L 1.1875 3.972656 Z M 1.1875 3.339844 " clip-rule="nonzero"/></clipPath><clipPath id="a36b02236d"><path d="M 2.316406 3.972656 L 1.628906 3.660156 C 1.46875 3.589844 1.324219 3.484375 1.203125 3.355469 L 1.1875 3.339844 L 1.984375 3.699219 C 2.03125 3.722656 2.070312 3.75 2.109375 3.78125 Z M 2.316406 3.972656 " clip-rule="nonzero"/></clipPath><clipPath id="5f8b0736e3"><path d="M 1 3.042969 L 2.585938 3.042969 L 2.585938 3.65625 L 1 3.65625 Z M 1 3.042969 " clip-rule="nonzero"/></clipPath><clipPath id="f055ff35c2"><path d="M 1 3.046875 L 1.53125 3.285156 C 1.570312 3.300781 1.621094 3.296875 1.660156 3.273438 L 1.75 3.210938 C 1.789062 3.1875 1.835938 3.183594 1.878906 3.199219 L 2.1875 3.332031 C 2.34375 3.398438 2.480469 3.507812 2.578125 3.648438 L 1.921875 3.363281 C 1.878906 3.34375 1.828125 3.347656 1.789062 3.371094 L 1.710938 3.421875 C 1.667969 3.445312 1.621094 3.449219 1.578125 3.429688 L 1.179688 3.253906 C 1.136719 3.234375 1.097656 3.203125 1.074219 3.160156 Z M 1 3.046875 " clip-rule="nonzero"/></clipPath><clipPath id="acfaec7f3f"><path d="M 0.796875 2.742188 L 1.675781 2.742188 L 1.675781 3.1875 L 0.796875 3.1875 Z M 0.796875 2.742188 " clip-rule="nonzero"/></clipPath><clipPath id="76bf4003d8"><path d="M 0.804688 2.746094 L 1.675781 3.113281 L 1.613281 3.15625 C 1.574219 3.183594 1.523438 3.191406 1.484375 3.171875 L 0.988281 2.953125 C 0.945312 2.933594 0.90625 2.902344 0.878906 2.863281 Z M 0.804688 2.746094 " clip-rule="nonzero"/></clipPath><clipPath id="990b704b8f"><rect x="0" width="5" y="0" height="5"/></clipPath></defs><path fill="#5271ff" d="M 39.90625 27.121094 C 44.65625 27.121094 48.523438 23.253906 48.523438 18.503906 C 48.523438 13.75 44.65625 9.882812 39.90625 9.882812 C 35.152344 9.882812 31.285156 13.75 31.285156 18.503906 C 31.285156 23.253906 35.152344 27.121094 39.90625 27.121094 Z M 39.90625 11.796875 C 43.601562 11.796875 46.609375 14.804688 46.609375 18.503906 C 46.609375 22.199219 43.601562 25.207031 39.90625 25.207031 C 36.207031 25.207031 33.199219 22.199219 33.199219 18.503906 C 33.199219 14.804688 36.207031 11.796875 39.90625 11.796875 Z M 39.90625 11.796875 " fill-opacity="1" fill-rule="nonzero"/><path fill="#5271ff" d="M 39.90625 21.375 C 39.378906 21.375 38.949219 20.945312 38.949219 20.417969 L 37.03125 20.417969 C 37.03125 21.664062 37.835938 22.71875 38.949219 23.113281 L 38.949219 24.25 L 40.863281 24.25 L 40.863281 23.113281 C 41.976562 22.71875 42.777344 21.664062 42.777344 20.417969 C 42.777344 18.832031 41.488281 17.542969 39.90625 17.542969 C 39.378906 17.542969 38.949219 17.113281 38.949219 16.585938 C 38.949219 16.058594 39.378906 15.628906 39.90625 15.628906 C 40.433594 15.628906 40.863281 16.058594 40.863281 16.585938 L 42.777344 16.585938 C 42.777344 15.339844 41.976562 14.285156 40.863281 13.890625 L 40.863281 12.753906 L 38.949219 12.753906 L 38.949219 13.890625 C 37.835938 14.285156 37.03125 15.339844 37.03125 16.585938 C 37.03125 18.171875 38.320312 19.460938 39.90625 19.460938 C 40.433594 19.460938 40.863281 19.890625 40.863281 20.417969 C 40.863281 20.945312 40.433594 21.375 39.90625 21.375 Z M 39.90625 21.375 " fill-opacity="1" fill-rule="nonzero"/><g clip-path="url(#c0ecb579dd)"><path fill="#5271ff" d="M 54.6875 11.097656 L 53.972656 15.472656 C 53.914062 15.835938 54.066406 16.199219 54.367188 16.410156 C 54.667969 16.621094 55.058594 16.644531 55.382812 16.46875 L 59.0625 14.433594 L 62.742188 16.46875 C 62.886719 16.546875 63.046875 16.585938 63.203125 16.585938 C 63.398438 16.585938 63.589844 16.527344 63.757812 16.410156 C 64.054688 16.199219 64.210938 15.835938 64.148438 15.472656 L 63.4375 11.097656 L 66.449219 8.007812 C 66.699219 7.753906 66.789062 7.378906 66.671875 7.035156 C 66.558594 6.695312 66.261719 6.449219 65.910156 6.394531 L 61.78125 5.761719 L 59.925781 1.8125 C 59.769531 1.476562 59.433594 1.261719 59.0625 1.261719 C 58.6875 1.261719 58.351562 1.476562 58.195312 1.8125 L 56.339844 5.765625 L 52.210938 6.394531 C 51.855469 6.449219 51.5625 6.695312 51.449219 7.039062 C 51.335938 7.378906 51.421875 7.753906 51.671875 8.011719 Z M 57.132812 7.582031 C 57.449219 7.53125 57.722656 7.328125 57.855469 7.042969 L 59.0625 4.472656 L 60.265625 7.042969 C 60.402344 7.332031 60.671875 7.53125 60.988281 7.582031 L 63.777344 8.007812 L 61.726562 10.109375 C 61.515625 10.324219 61.417969 10.632812 61.46875 10.929688 L 61.941406 13.835938 L 59.523438 12.5 C 59.378906 12.421875 59.222656 12.378906 59.0625 12.378906 C 58.902344 12.378906 58.742188 12.421875 58.597656 12.5 L 56.179688 13.835938 L 56.652344 10.929688 C 56.703125 10.632812 56.605469 10.324219 56.394531 10.109375 L 54.34375 8.007812 Z M 57.132812 7.582031 " fill-opacity="1" fill-rule="nonzero"/></g><g clip-path="url(#fb464c7fc4)"><path fill="#5271ff" d="M 11.171875 43.40625 C 11.179688 43.40625 11.183594 43.40625 11.191406 43.40625 C 16.890625 43.289062 28.421875 42.644531 35.511719 40.953125 C 44.40625 38.828125 52.925781 35.359375 60.851562 30.640625 L 62.511719 33.117188 C 62.71875 33.421875 63.074219 33.585938 63.445312 33.53125 C 63.8125 33.476562 64.113281 33.21875 64.222656 32.867188 L 67.640625 21.808594 C 67.730469 21.511719 67.671875 21.191406 67.484375 20.945312 C 67.296875 20.699219 66.996094 20.554688 66.691406 20.570312 L 56.117188 20.953125 C 55.769531 20.964844 55.457031 21.164062 55.300781 21.476562 C 55.140625 21.785156 55.164062 22.15625 55.355469 22.445312 L 56.824219 24.632812 C 49.726562 28.574219 42.167969 31.519531 34.339844 33.390625 C 25.742188 35.445312 12.621094 35.761719 11.152344 35.789062 C 10.632812 35.800781 10.214844 36.226562 10.214844 36.746094 L 10.214844 42.445312 C 10.214844 42.703125 10.316406 42.949219 10.5 43.128906 C 10.679688 43.304688 10.921875 43.40625 11.171875 43.40625 Z M 12.128906 37.679688 C 15.640625 37.578125 26.988281 37.113281 34.785156 35.25 C 43.121094 33.261719 51.15625 30.078125 58.667969 25.789062 C 58.898438 25.65625 59.066406 25.433594 59.128906 25.175781 C 59.1875 24.917969 59.136719 24.644531 58.988281 24.425781 L 57.902344 22.804688 L 65.410156 22.53125 L 62.984375 30.382812 L 61.9375 28.816406 C 61.652344 28.390625 61.082031 28.265625 60.640625 28.53125 C 52.664062 33.390625 44.058594 36.941406 35.066406 39.089844 C 28.515625 40.65625 18.007812 41.304688 12.128906 41.464844 Z M 12.128906 37.679688 " fill-opacity="1" fill-rule="nonzero"/></g><g clip-path="url(#0d70b005be)"><path fill="#5271ff" d="M 23.625 47.234375 L 15.960938 47.234375 C 15.433594 47.234375 15.003906 47.664062 15.003906 48.191406 L 15.003906 57.769531 C 15.003906 58.300781 15.433594 58.730469 15.960938 58.730469 L 23.625 58.730469 C 24.152344 58.730469 24.582031 58.300781 24.582031 57.769531 L 24.582031 48.191406 C 24.582031 47.664062 24.152344 47.234375 23.625 47.234375 Z M 22.664062 56.8125 L 16.917969 56.8125 L 16.917969 49.152344 L 22.664062 49.152344 Z M 22.664062 56.8125 " fill-opacity="1" fill-rule="nonzero"/></g><g clip-path="url(#c7e7f36f18)"><path fill="#5271ff" d="M 36.074219 45.320312 L 28.410156 45.320312 C 27.882812 45.320312 27.453125 45.75 27.453125 46.277344 L 27.453125 57.769531 C 27.453125 58.300781 27.882812 58.730469 28.410156 58.730469 L 36.074219 58.730469 C 36.601562 58.730469 37.03125 58.300781 37.03125 57.769531 L 37.03125 46.277344 C 37.03125 45.75 36.601562 45.320312 36.074219 45.320312 Z M 35.117188 56.8125 L 29.371094 56.8125 L 29.371094 47.234375 L 35.117188 47.234375 Z M 35.117188 56.8125 " fill-opacity="1" fill-rule="nonzero"/></g><g clip-path="url(#8fbea51077)"><path fill="#5271ff" d="M 48.523438 42.445312 L 40.863281 42.445312 C 40.335938 42.445312 39.90625 42.875 39.90625 43.40625 L 39.90625 57.769531 C 39.90625 58.300781 40.335938 58.730469 40.863281 58.730469 L 48.523438 58.730469 C 49.054688 58.730469 49.484375 58.300781 49.484375 57.769531 L 49.484375 43.40625 C 49.484375 42.875 49.054688 42.445312 48.523438 42.445312 Z M 47.566406 56.8125 L 41.820312 56.8125 L 41.820312 44.363281 L 47.566406 44.363281 Z M 47.566406 56.8125 " fill-opacity="1" fill-rule="nonzero"/></g><g clip-path="url(#0e13b20f5a)"><path fill="#5271ff" d="M 60.976562 38.617188 L 53.3125 38.617188 C 52.785156 38.617188 52.355469 39.042969 52.355469 39.574219 L 52.355469 57.769531 C 52.355469 58.300781 52.785156 58.730469 53.3125 58.730469 L 60.976562 58.730469 C 61.503906 58.730469 61.933594 58.300781 61.933594 57.769531 L 61.933594 39.574219 C 61.933594 39.042969 61.503906 38.617188 60.976562 38.617188 Z M 60.019531 56.8125 L 54.273438 56.8125 L 54.273438 40.53125 L 60.019531 40.53125 Z M 60.019531 56.8125 " fill-opacity="1" fill-rule="nonzero"/></g><path fill="#5271ff" d="M 12.128906 24.246094 L 12.128906 31.910156 C 12.128906 32.4375 12.558594 32.867188 13.085938 32.867188 L 26.496094 32.867188 C 27.023438 32.867188 27.453125 32.4375 27.453125 31.910156 L 27.453125 24.246094 C 27.984375 24.246094 28.410156 23.816406 28.410156 23.289062 L 28.410156 19.457031 C 28.410156 18.929688 27.984375 18.5 27.453125 18.5 L 25.921875 18.5 C 26.726562 17.039062 26.707031 15.449219 25.734375 14.46875 C 24.453125 13.199219 22.105469 13.554688 20.402344 15.273438 C 20.175781 15.496094 19.972656 15.734375 19.792969 15.984375 C 19.613281 15.738281 19.410156 15.5 19.1875 15.277344 C 17.476562 13.554688 15.132812 13.199219 13.84375 14.476562 C 12.875 15.453125 12.859375 17.050781 13.65625 18.5 L 12.128906 18.5 C 11.601562 18.5 11.171875 18.929688 11.171875 19.457031 L 11.171875 23.289062 C 11.171875 23.816406 11.601562 24.246094 12.128906 24.246094 Z M 16.917969 30.953125 L 14.046875 30.953125 L 14.046875 24.246094 L 16.917969 24.246094 Z M 20.75 30.953125 L 18.835938 30.953125 L 18.835938 24.246094 L 20.75 24.246094 Z M 25.539062 30.953125 L 22.664062 30.953125 L 22.664062 24.246094 L 25.539062 24.246094 Z M 26.496094 20.414062 L 26.496094 22.332031 L 23.625 22.332031 L 23.625 20.414062 Z M 21.753906 16.625 C 22.730469 15.644531 23.949219 15.394531 24.378906 15.820312 C 24.8125 16.261719 24.5625 17.476562 23.550781 18.480469 C 23.546875 18.488281 23.539062 18.492188 23.53125 18.5 L 20.769531 18.5 C 20.824219 17.894531 21.179688 17.195312 21.753906 16.625 Z M 21.707031 20.414062 L 21.707031 22.332031 L 17.875 22.332031 L 17.875 20.414062 Z M 15.199219 15.828125 C 15.636719 15.394531 16.855469 15.644531 17.835938 16.632812 C 18.402344 17.195312 18.757812 17.894531 18.8125 18.5 L 16.050781 18.5 C 16.035156 18.484375 16.019531 18.472656 16.003906 18.453125 C 15.019531 17.476562 14.773438 16.261719 15.199219 15.828125 Z M 13.085938 20.414062 L 15.960938 20.414062 L 15.960938 22.332031 L 13.085938 22.332031 Z M 13.085938 20.414062 " fill-opacity="1" fill-rule="nonzero"/><g mask="url(#0a498c73ac)"><g transform="matrix(1, 0, 0, 1, 57, 7)"><g clip-path="url(#990b704b8f)"><g clip-path="url(#014c1d2d44)"><g clip-path="url(#e046cda01e)"><path fill="#f266ff" d="M 0.566406 0.625 L 4.300781 0.625 L 4.300781 4.347656 L 0.566406 4.347656 Z M 0.566406 0.625 " fill-opacity="1" fill-rule="nonzero"/></g></g><g clip-path="url(#f01109bfb4)"><g clip-path="url(#278f2472a2)"><path fill="#ff637e" d="M 0.566406 0.625 L 4.300781 0.625 L 4.300781 4.347656 L 0.566406 4.347656 Z M 0.566406 0.625 " fill-opacity="1" fill-rule="nonzero"/></g></g><g clip-path="url(#29be969f6b)"><g clip-path="url(#35c3264a05)"><path fill="#00d7be" d="M 0.566406 0.625 L 4.300781 0.625 L 4.300781 4.347656 L 0.566406 4.347656 Z M 0.566406 0.625 " fill-opacity="1" fill-rule="nonzero"/></g></g><g clip-path="url(#bfb08c4d74)"><g clip-path="url(#81a524edac)"><path fill="#1f93ff" d="M 0.566406 0.625 L 4.300781 0.625 L 4.300781 4.347656 L 0.566406 4.347656 Z M 0.566406 0.625 " fill-opacity="1" fill-rule="nonzero"/></g></g><g clip-path="url(#f9f0b38f5c)"><g clip-path="url(#73476fcc9e)"><path fill="#ffd500" d="M 0.566406 0.625 L 4.300781 0.625 L 4.300781 4.347656 L 0.566406 4.347656 Z M 0.566406 0.625 " fill-opacity="1" fill-rule="nonzero"/></g></g><g clip-path="url(#fa35aa845f)"><g clip-path="url(#89164bda00)"><path fill="#1f93ff" d="M 0.566406 0.625 L 4.300781 0.625 L 4.300781 4.347656 L 0.566406 4.347656 Z M 0.566406 0.625 " fill-opacity="1" fill-rule="nonzero"/></g></g><g clip-path="url(#0e9f2d6589)"><g clip-path="url(#b53e23ca0f)"><path fill="#f266ff" d="M 0.566406 0.625 L 4.300781 0.625 L 4.300781 4.347656 L 0.566406 4.347656 Z M 0.566406 0.625 " fill-opacity="1" fill-rule="nonzero"/></g></g><g clip-path="url(#7138e9014e)"><g clip-path="url(#73d524e943)"><path fill="#1f93ff" d="M 0.566406 0.625 L 4.300781 0.625 L 4.300781 4.347656 L 0.566406 4.347656 Z M 0.566406 0.625 " fill-opacity="1" fill-rule="nonzero"/></g></g><g clip-path="url(#c09ba9a547)"><g clip-path="url(#dd9915c82a)"><path fill="#ffcf00" d="M 0.566406 0.625 L 4.300781 0.625 L 4.300781 4.347656 L 0.566406 4.347656 Z M 0.566406 0.625 " fill-opacity="1" fill-rule="nonzero"/></g></g><g clip-path="url(#6b59576795)"><g clip-path="url(#bc8f98b0d6)"><path fill="#61d742" d="M 0.566406 0.625 L 4.300781 0.625 L 4.300781 4.347656 L 0.566406 4.347656 Z M 0.566406 0.625 " fill-opacity="1" fill-rule="nonzero"/></g></g><g clip-path="url(#d9ff4363a9)"><g clip-path="url(#c00280468f)"><path fill="#1f93ff" d="M 0.566406 0.625 L 4.300781 0.625 L 4.300781 4.347656 L 0.566406 4.347656 Z M 0.566406 0.625 " fill-opacity="1" fill-rule="nonzero"/></g></g><g clip-path="url(#c1eb1cfca4)"><g clip-path="url(#a36b02236d)"><path fill="#1f93ff" d="M 0.566406 0.625 L 4.300781 0.625 L 4.300781 4.347656 L 0.566406 4.347656 Z M 0.566406 0.625 " fill-opacity="1" fill-rule="nonzero"/></g></g><g clip-path="url(#5f8b0736e3)"><g clip-path="url(#f055ff35c2)"><path fill="#ff7a78" d="M 0.566406 0.625 L 4.300781 0.625 L 4.300781 4.347656 L 0.566406 4.347656 Z M 0.566406 0.625 " fill-opacity="1" fill-rule="nonzero"/></g></g><g clip-path="url(#acfaec7f3f)"><g clip-path="url(#76bf4003d8)"><path fill="#ffcf00" d="M 0.566406 0.625 L 4.300781 0.625 L 4.300781 4.347656 L 0.566406 4.347656 Z M 0.566406 0.625 " fill-opacity="1" fill-rule="nonzero"/></g></g></g></g></g></svg>