<svg xmlns="http://www.w3.org/2000/svg" xmlns:xlink="http://www.w3.org/1999/xlink" width="40" zoomAndPan="magnify" viewBox="0 0 30 30.000001" height="40" preserveAspectRatio="xMidYMid meet" version="1.0"><defs><clipPath id="c801cb3145"><path d="M 0.945312 0.464844 L 29.054688 0.464844 L 29.054688 28.570312 L 0.945312 28.570312 Z M 0.945312 0.464844 " clip-rule="nonzero"/></clipPath><clipPath id="acc5b33f32"><path d="M 15 0.464844 C 7.238281 0.464844 0.945312 6.753906 0.945312 14.515625 C 0.945312 22.277344 7.238281 28.570312 15 28.570312 C 22.761719 28.570312 29.054688 22.277344 29.054688 14.515625 C 29.054688 6.753906 22.761719 0.464844 15 0.464844 Z M 15 0.464844 " clip-rule="nonzero"/></clipPath><linearGradient x1="-0.0000000876209" gradientTransform="matrix(0.109789, 0, 0, 0.109789, 0.947004, 0.463137)" y1="128" x2="255.999991" gradientUnits="userSpaceOnUse" y2="128" id="3a2c74cc6a"><stop stop-opacity="1" stop-color="rgb(0%, 0%, 0%)" offset="0"/><stop stop-opacity="1" stop-color="rgb(0.175476%, 0.175476%, 0.175476%)" offset="0.0078125"/><stop stop-opacity="1" stop-color="rgb(0.526428%, 0.526428%, 0.526428%)" offset="0.015625"/><stop stop-opacity="1" stop-color="rgb(0.878906%, 0.878906%, 0.878906%)" offset="0.0234375"/><stop stop-opacity="1" stop-color="rgb(1.231384%, 1.231384%, 1.231384%)" offset="0.03125"/><stop stop-opacity="1" stop-color="rgb(1.583862%, 1.583862%, 1.583862%)" offset="0.0390625"/><stop stop-opacity="1" stop-color="rgb(1.93634%, 1.93634%, 1.93634%)" offset="0.046875"/><stop stop-opacity="1" stop-color="rgb(2.288818%, 2.288818%, 2.288818%)" offset="0.0546875"/><stop stop-opacity="1" stop-color="rgb(2.641296%, 2.641296%, 2.641296%)" offset="0.0625"/><stop stop-opacity="1" stop-color="rgb(2.993774%, 2.993774%, 2.993774%)" offset="0.0703125"/><stop stop-opacity="1" stop-color="rgb(3.346252%, 3.346252%, 3.346252%)" offset="0.078125"/><stop stop-opacity="1" stop-color="rgb(3.69873%, 3.69873%, 3.69873%)" offset="0.0859375"/><stop stop-opacity="1" stop-color="rgb(4.051208%, 4.051208%, 4.051208%)" offset="0.09375"/><stop stop-opacity="1" stop-color="rgb(4.402161%, 4.402161%, 4.402161%)" offset="0.101562"/><stop stop-opacity="1" stop-color="rgb(4.754639%, 4.754639%, 4.754639%)" offset="0.109375"/><stop stop-opacity="1" stop-color="rgb(5.107117%, 5.107117%, 5.107117%)" offset="0.117187"/><stop stop-opacity="1" stop-color="rgb(5.459595%, 5.459595%, 5.459595%)" offset="0.125"/><stop stop-opacity="1" stop-color="rgb(5.812073%, 5.812073%, 5.812073%)" offset="0.132812"/><stop stop-opacity="1" stop-color="rgb(6.164551%, 6.164551%, 6.164551%)" offset="0.140625"/><stop stop-opacity="1" stop-color="rgb(6.517029%, 6.517029%, 6.517029%)" offset="0.148437"/><stop stop-opacity="1" stop-color="rgb(6.869507%, 6.869507%, 6.869507%)" offset="0.15625"/><stop stop-opacity="1" stop-color="rgb(7.221985%, 7.221985%, 7.221985%)" offset="0.164062"/><stop stop-opacity="1" stop-color="rgb(7.574463%, 7.574463%, 7.574463%)" offset="0.171875"/><stop stop-opacity="1" stop-color="rgb(7.926941%, 7.926941%, 7.926941%)" offset="0.179687"/><stop stop-opacity="1" stop-color="rgb(8.277893%, 8.277893%, 8.277893%)" offset="0.1875"/><stop stop-opacity="1" stop-color="rgb(8.630371%, 8.630371%, 8.630371%)" offset="0.195312"/><stop stop-opacity="1" stop-color="rgb(8.982849%, 8.982849%, 8.982849%)" offset="0.203125"/><stop stop-opacity="1" stop-color="rgb(9.335327%, 9.335327%, 9.335327%)" offset="0.210937"/><stop stop-opacity="1" stop-color="rgb(9.687805%, 9.687805%, 9.687805%)" offset="0.21875"/><stop stop-opacity="1" stop-color="rgb(10.040283%, 10.040283%, 10.040283%)" offset="0.226562"/><stop stop-opacity="1" stop-color="rgb(10.392761%, 10.392761%, 10.392761%)" offset="0.234375"/><stop stop-opacity="1" stop-color="rgb(10.745239%, 10.745239%, 10.745239%)" offset="0.242187"/><stop stop-opacity="1" stop-color="rgb(11.097717%, 11.097717%, 11.097717%)" offset="0.25"/><stop stop-opacity="1" stop-color="rgb(11.450195%, 11.450195%, 11.450195%)" offset="0.257812"/><stop stop-opacity="1" stop-color="rgb(11.802673%, 11.802673%, 11.802673%)" offset="0.265625"/><stop stop-opacity="1" stop-color="rgb(12.155151%, 12.155151%, 12.155151%)" offset="0.273437"/><stop stop-opacity="1" stop-color="rgb(12.506104%, 12.506104%, 12.506104%)" offset="0.28125"/><stop stop-opacity="1" stop-color="rgb(12.858582%, 12.858582%, 12.858582%)" offset="0.289063"/><stop stop-opacity="1" stop-color="rgb(13.21106%, 13.21106%, 13.21106%)" offset="0.296875"/><stop stop-opacity="1" stop-color="rgb(13.563538%, 13.563538%, 13.563538%)" offset="0.304688"/><stop stop-opacity="1" stop-color="rgb(13.916016%, 13.916016%, 13.916016%)" offset="0.3125"/><stop stop-opacity="1" stop-color="rgb(14.268494%, 14.268494%, 14.268494%)" offset="0.320313"/><stop stop-opacity="1" stop-color="rgb(14.620972%, 14.620972%, 14.620972%)" offset="0.328125"/><stop stop-opacity="1" stop-color="rgb(14.97345%, 14.97345%, 14.97345%)" offset="0.335938"/><stop stop-opacity="1" stop-color="rgb(15.325928%, 15.325928%, 15.325928%)" offset="0.34375"/><stop stop-opacity="1" stop-color="rgb(15.678406%, 15.678406%, 15.678406%)" offset="0.351562"/><stop stop-opacity="1" stop-color="rgb(16.030884%, 16.030884%, 16.030884%)" offset="0.359375"/><stop stop-opacity="1" stop-color="rgb(16.381836%, 16.381836%, 16.381836%)" offset="0.367188"/><stop stop-opacity="1" stop-color="rgb(16.734314%, 16.734314%, 16.734314%)" offset="0.375"/><stop stop-opacity="1" stop-color="rgb(17.086792%, 17.086792%, 17.086792%)" offset="0.382812"/><stop stop-opacity="1" stop-color="rgb(17.43927%, 17.43927%, 17.43927%)" offset="0.390625"/><stop stop-opacity="1" stop-color="rgb(17.791748%, 17.791748%, 17.791748%)" offset="0.398438"/><stop stop-opacity="1" stop-color="rgb(18.144226%, 18.144226%, 18.144226%)" offset="0.40625"/><stop stop-opacity="1" stop-color="rgb(18.496704%, 18.496704%, 18.496704%)" offset="0.414062"/><stop stop-opacity="1" stop-color="rgb(18.849182%, 18.849182%, 18.849182%)" offset="0.421875"/><stop stop-opacity="1" stop-color="rgb(19.20166%, 19.20166%, 19.20166%)" offset="0.429688"/><stop stop-opacity="1" stop-color="rgb(19.554138%, 19.554138%, 19.554138%)" offset="0.4375"/><stop stop-opacity="1" stop-color="rgb(19.906616%, 19.906616%, 19.906616%)" offset="0.445313"/><stop stop-opacity="1" stop-color="rgb(20.257568%, 20.257568%, 20.257568%)" offset="0.453125"/><stop stop-opacity="1" stop-color="rgb(20.610046%, 20.610046%, 20.610046%)" offset="0.460938"/><stop stop-opacity="1" stop-color="rgb(20.962524%, 20.962524%, 20.962524%)" offset="0.46875"/><stop stop-opacity="1" stop-color="rgb(21.315002%, 21.315002%, 21.315002%)" offset="0.476562"/><stop stop-opacity="1" stop-color="rgb(21.66748%, 21.66748%, 21.66748%)" offset="0.484375"/><stop stop-opacity="1" stop-color="rgb(22.019958%, 22.019958%, 22.019958%)" offset="0.492188"/><stop stop-opacity="1" stop-color="rgb(22.372437%, 22.372437%, 22.372437%)" offset="0.5"/><stop stop-opacity="1" stop-color="rgb(22.724915%, 22.724915%, 22.724915%)" offset="0.507812"/><stop stop-opacity="1" stop-color="rgb(23.077393%, 23.077393%, 23.077393%)" offset="0.515625"/><stop stop-opacity="1" stop-color="rgb(23.429871%, 23.429871%, 23.429871%)" offset="0.523438"/><stop stop-opacity="1" stop-color="rgb(23.782349%, 23.782349%, 23.782349%)" offset="0.53125"/><stop stop-opacity="1" stop-color="rgb(24.134827%, 24.134827%, 24.134827%)" offset="0.539062"/><stop stop-opacity="1" stop-color="rgb(24.485779%, 24.485779%, 24.485779%)" offset="0.546875"/><stop stop-opacity="1" stop-color="rgb(24.838257%, 24.838257%, 24.838257%)" offset="0.554688"/><stop stop-opacity="1" stop-color="rgb(25.190735%, 25.190735%, 25.190735%)" offset="0.5625"/><stop stop-opacity="1" stop-color="rgb(25.543213%, 25.543213%, 25.543213%)" offset="0.570312"/><stop stop-opacity="1" stop-color="rgb(25.895691%, 25.895691%, 25.895691%)" offset="0.578125"/><stop stop-opacity="1" stop-color="rgb(26.248169%, 26.248169%, 26.248169%)" offset="0.585938"/><stop stop-opacity="1" stop-color="rgb(26.600647%, 26.600647%, 26.600647%)" offset="0.59375"/><stop stop-opacity="1" stop-color="rgb(26.953125%, 26.953125%, 26.953125%)" offset="0.601562"/><stop stop-opacity="1" stop-color="rgb(27.305603%, 27.305603%, 27.305603%)" offset="0.609375"/><stop stop-opacity="1" stop-color="rgb(27.658081%, 27.658081%, 27.658081%)" offset="0.617188"/><stop stop-opacity="1" stop-color="rgb(28.010559%, 28.010559%, 28.010559%)" offset="0.625"/><stop stop-opacity="1" stop-color="rgb(28.361511%, 28.361511%, 28.361511%)" offset="0.632813"/><stop stop-opacity="1" stop-color="rgb(28.713989%, 28.713989%, 28.713989%)" offset="0.640625"/><stop stop-opacity="1" stop-color="rgb(29.066467%, 29.066467%, 29.066467%)" offset="0.648438"/><stop stop-opacity="1" stop-color="rgb(29.418945%, 29.418945%, 29.418945%)" offset="0.65625"/><stop stop-opacity="1" stop-color="rgb(29.771423%, 29.771423%, 29.771423%)" offset="0.664062"/><stop stop-opacity="1" stop-color="rgb(30.123901%, 30.123901%, 30.123901%)" offset="0.671875"/><stop stop-opacity="1" stop-color="rgb(30.476379%, 30.476379%, 30.476379%)" offset="0.679688"/><stop stop-opacity="1" stop-color="rgb(30.828857%, 30.828857%, 30.828857%)" offset="0.6875"/><stop stop-opacity="1" stop-color="rgb(31.181335%, 31.181335%, 31.181335%)" offset="0.695312"/><stop stop-opacity="1" stop-color="rgb(31.533813%, 31.533813%, 31.533813%)" offset="0.703125"/><stop stop-opacity="1" stop-color="rgb(31.886292%, 31.886292%, 31.886292%)" offset="0.710938"/><stop stop-opacity="1" stop-color="rgb(32.237244%, 32.237244%, 32.237244%)" offset="0.71875"/><stop stop-opacity="1" stop-color="rgb(32.589722%, 32.589722%, 32.589722%)" offset="0.726562"/><stop stop-opacity="1" stop-color="rgb(32.9422%, 32.9422%, 32.9422%)" offset="0.734375"/><stop stop-opacity="1" stop-color="rgb(33.294678%, 33.294678%, 33.294678%)" offset="0.742188"/><stop stop-opacity="1" stop-color="rgb(33.647156%, 33.647156%, 33.647156%)" offset="0.75"/><stop stop-opacity="1" stop-color="rgb(33.999634%, 33.999634%, 33.999634%)" offset="0.757813"/><stop stop-opacity="1" stop-color="rgb(34.352112%, 34.352112%, 34.352112%)" offset="0.765625"/><stop stop-opacity="1" stop-color="rgb(34.70459%, 34.70459%, 34.70459%)" offset="0.773438"/><stop stop-opacity="1" stop-color="rgb(35.057068%, 35.057068%, 35.057068%)" offset="0.78125"/><stop stop-opacity="1" stop-color="rgb(35.409546%, 35.409546%, 35.409546%)" offset="0.789063"/><stop stop-opacity="1" stop-color="rgb(35.762024%, 35.762024%, 35.762024%)" offset="0.796875"/><stop stop-opacity="1" stop-color="rgb(36.114502%, 36.114502%, 36.114502%)" offset="0.804688"/><stop stop-opacity="1" stop-color="rgb(36.465454%, 36.465454%, 36.465454%)" offset="0.8125"/><stop stop-opacity="1" stop-color="rgb(36.817932%, 36.817932%, 36.817932%)" offset="0.820312"/><stop stop-opacity="1" stop-color="rgb(37.17041%, 37.17041%, 37.17041%)" offset="0.828125"/><stop stop-opacity="1" stop-color="rgb(37.522888%, 37.522888%, 37.522888%)" offset="0.835938"/><stop stop-opacity="1" stop-color="rgb(37.875366%, 37.875366%, 37.875366%)" offset="0.84375"/><stop stop-opacity="1" stop-color="rgb(38.227844%, 38.227844%, 38.227844%)" offset="0.851562"/><stop stop-opacity="1" stop-color="rgb(38.580322%, 38.580322%, 38.580322%)" offset="0.859375"/><stop stop-opacity="1" stop-color="rgb(38.9328%, 38.9328%, 38.9328%)" offset="0.867188"/><stop stop-opacity="1" stop-color="rgb(39.285278%, 39.285278%, 39.285278%)" offset="0.875"/><stop stop-opacity="1" stop-color="rgb(39.637756%, 39.637756%, 39.637756%)" offset="0.882812"/><stop stop-opacity="1" stop-color="rgb(39.990234%, 39.990234%, 39.990234%)" offset="0.890625"/><stop stop-opacity="1" stop-color="rgb(40.341187%, 40.341187%, 40.341187%)" offset="0.898438"/><stop stop-opacity="1" stop-color="rgb(40.693665%, 40.693665%, 40.693665%)" offset="0.90625"/><stop stop-opacity="1" stop-color="rgb(41.046143%, 41.046143%, 41.046143%)" offset="0.914062"/><stop stop-opacity="1" stop-color="rgb(41.398621%, 41.398621%, 41.398621%)" offset="0.921875"/><stop stop-opacity="1" stop-color="rgb(41.751099%, 41.751099%, 41.751099%)" offset="0.929688"/><stop stop-opacity="1" stop-color="rgb(42.103577%, 42.103577%, 42.103577%)" offset="0.9375"/><stop stop-opacity="1" stop-color="rgb(42.456055%, 42.456055%, 42.456055%)" offset="0.945312"/><stop stop-opacity="1" stop-color="rgb(42.808533%, 42.808533%, 42.808533%)" offset="0.953125"/><stop stop-opacity="1" stop-color="rgb(43.161011%, 43.161011%, 43.161011%)" offset="0.960937"/><stop stop-opacity="1" stop-color="rgb(43.513489%, 43.513489%, 43.513489%)" offset="0.96875"/><stop stop-opacity="1" stop-color="rgb(43.865967%, 43.865967%, 43.865967%)" offset="0.976562"/><stop stop-opacity="1" stop-color="rgb(44.216919%, 44.216919%, 44.216919%)" offset="0.984375"/><stop stop-opacity="1" stop-color="rgb(44.569397%, 44.569397%, 44.569397%)" offset="0.992188"/><stop stop-opacity="1" stop-color="rgb(44.921875%, 44.921875%, 44.921875%)" offset="1"/></linearGradient><clipPath id="6b867fe469"><path d="M 10.773438 4.769531 L 15.613281 4.769531 L 15.613281 6.578125 L 10.773438 6.578125 Z M 10.773438 4.769531 " clip-rule="nonzero"/></clipPath><clipPath id="6b5d3fba2e"><path d="M 10.78125 5.597656 C 11.238281 4.9375 12.066406 4.628906 12.84375 4.835938 L 15.316406 5.480469 C 15.648438 5.570312 15.695312 6.023438 15.386719 6.175781 L 14.84375 6.449219 C 14.617188 6.566406 14.355469 6.589844 14.109375 6.523438 Z M 10.78125 5.597656 " clip-rule="nonzero"/></clipPath><clipPath id="3738e00701"><path d="M 16.960938 11.957031 L 22.609375 11.957031 L 22.609375 19.914062 L 16.960938 19.914062 Z M 16.960938 11.957031 " clip-rule="nonzero"/></clipPath><clipPath id="e40140834f"><path d="M 17.523438 12.203125 C 18.027344 11.960938 18.492188 11.902344 18.851562 12.113281 C 19.359375 12.410156 19.761719 12.859375 20.019531 13.394531 L 22.445312 18.503906 C 22.625 18.882812 22.613281 19.324219 22.414062 19.695312 C 22.277344 19.945312 21.917969 19.941406 21.789062 19.6875 L 19.289062 14.835938 C 18.878906 14.046875 18.179688 13.441406 17.339844 13.15625 L 17.277344 13.132812 C 16.925781 13.015625 16.890625 12.53125 17.21875 12.359375 Z M 17.523438 12.203125 " clip-rule="nonzero"/></clipPath><clipPath id="c93db0b093"><path d="M 8.082031 8.882812 L 24.800781 8.882812 L 24.800781 15.992188 L 8.082031 15.992188 Z M 8.082031 8.882812 " clip-rule="nonzero"/></clipPath><clipPath id="d4f9028855"><path d="M 8.214844 9.316406 C 8.457031 8.96875 8.898438 8.816406 9.304688 8.949219 L 14.1875 10.527344 C 14.429688 10.605469 14.691406 10.585938 14.921875 10.476562 L 17.796875 9.09375 C 18.027344 8.984375 18.289062 8.960938 18.535156 9.03125 L 19.195312 9.226562 C 20.300781 9.546875 21.203125 10.359375 21.636719 11.421875 L 22.070312 12.488281 C 22.160156 12.707031 22.378906 12.847656 22.617188 12.835938 L 23.867188 12.777344 C 24.101562 12.765625 24.316406 12.910156 24.390625 13.132812 L 24.609375 13.753906 C 24.863281 14.488281 24.796875 15.296875 24.429688 15.980469 L 23.753906 14.214844 C 23.671875 13.992188 23.453125 13.847656 23.21875 13.855469 L 21.824219 13.902344 C 21.585938 13.910156 21.363281 13.773438 21.269531 13.554688 L 20.722656 12.324219 C 20.367188 11.523438 19.675781 10.910156 18.835938 10.648438 L 18.175781 10.445312 L 14.824219 12.007812 C 14.59375 12.117188 14.332031 12.128906 14.089844 12.046875 L 8.488281 10.136719 C 8.144531 10.023438 8.011719 9.613281 8.214844 9.316406 " clip-rule="nonzero"/></clipPath><clipPath id="c75be53754"><path d="M 9.621094 6.195312 L 23.6875 6.195312 L 23.6875 11.921875 L 9.621094 11.921875 Z M 9.621094 6.195312 " clip-rule="nonzero"/></clipPath><clipPath id="2ac7642df7"><path d="M 23.636719 10.957031 C 23.808594 11.457031 23.464844 12.085938 22.996094 11.835938 C 22.878906 11.777344 22.785156 11.675781 22.738281 11.546875 L 22.109375 9.902344 C 21.800781 9.089844 21.117188 8.46875 20.28125 8.234375 L 18.390625 7.710938 C 18.144531 7.640625 17.878906 7.664062 17.648438 7.773438 L 14.789062 9.121094 C 14.558594 9.230469 14.296875 9.25 14.050781 9.175781 L 9.980469 7.921875 C 9.652344 7.820312 9.519531 7.429688 9.714844 7.148438 C 9.949219 6.808594 10.375 6.65625 10.773438 6.769531 L 13.988281 7.707031 C 14.230469 7.777344 14.496094 7.757812 14.722656 7.644531 L 17.480469 6.3125 C 17.710938 6.203125 17.972656 6.175781 18.21875 6.242188 L 20.609375 6.867188 C 21.710938 7.15625 22.597656 7.976562 22.972656 9.050781 Z M 23.636719 10.957031 " clip-rule="nonzero"/></clipPath><clipPath id="509f8b1f1b"><path d="M 21.800781 14.765625 L 23.761719 14.765625 L 23.761719 17.722656 L 21.800781 17.722656 Z M 21.800781 14.765625 " clip-rule="nonzero"/></clipPath><clipPath id="736975885a"><path d="M 22.597656 14.769531 C 22.835938 14.757812 23.054688 14.898438 23.144531 15.117188 L 23.652344 16.359375 C 23.808594 16.738281 23.785156 17.167969 23.589844 17.527344 C 23.460938 17.761719 23.125 17.75 23.015625 17.507812 L 21.820312 14.804688 Z M 22.597656 14.769531 " clip-rule="nonzero"/></clipPath><clipPath id="eca8f14e4e"><path d="M 5.238281 13.226562 L 8.160156 13.226562 L 8.160156 15.726562 L 5.238281 15.726562 Z M 5.238281 13.226562 " clip-rule="nonzero"/></clipPath><clipPath id="1911f2c93a"><path d="M 5.441406 13.335938 L 5.503906 13.246094 L 7.609375 14.078125 C 7.835938 14.167969 8.003906 14.371094 8.050781 14.609375 L 8.136719 15.0625 C 8.214844 15.480469 7.796875 15.820312 7.40625 15.65625 L 5.949219 15.054688 C 5.273438 14.773438 5.027344 13.941406 5.441406 13.335938 " clip-rule="nonzero"/></clipPath><clipPath id="d8340968d6"><path d="M 6.542969 11.113281 L 17.691406 11.113281 L 17.691406 21.71875 L 6.542969 21.71875 Z M 6.542969 11.113281 " clip-rule="nonzero"/></clipPath><clipPath id="7522a8b857"><path d="M 6.667969 11.558594 C 6.914062 11.203125 7.375 11.050781 7.785156 11.199219 L 10.109375 12.027344 C 10.339844 12.113281 10.511719 12.308594 10.5625 12.550781 L 11.082031 15.085938 C 11.128906 15.328125 11.300781 15.527344 11.527344 15.617188 L 14.96875 16.972656 C 15.855469 17.320312 16.613281 17.941406 17.132812 18.738281 L 17.53125 19.351562 C 17.667969 19.566406 17.71875 19.824219 17.671875 20.074219 L 17.367188 21.683594 L 16.257812 20.121094 C 15.734375 19.382812 15.011719 18.804688 14.175781 18.460938 L 10.089844 16.769531 C 9.863281 16.675781 9.695312 16.46875 9.652344 16.226562 L 9.1875 13.636719 C 9.144531 13.398438 8.976562 13.195312 8.746094 13.109375 L 6.941406 12.429688 C 6.589844 12.296875 6.453125 11.871094 6.667969 11.558594 " clip-rule="nonzero"/></clipPath><clipPath id="181e28136f"><path d="M 20.417969 20.492188 L 21.378906 20.492188 L 21.378906 22.144531 L 20.417969 22.144531 Z M 20.417969 20.492188 " clip-rule="nonzero"/></clipPath><clipPath id="980f210653"><path d="M 21.199219 20.71875 C 21.40625 21.09375 21.410156 21.550781 21.203125 21.925781 C 21.054688 22.199219 20.648438 22.222656 20.53125 21.933594 C 20.453125 21.75 20.429688 21.546875 20.460938 21.347656 L 20.550781 20.808594 C 20.601562 20.488281 21.03125 20.414062 21.1875 20.699219 Z M 21.199219 20.71875 " clip-rule="nonzero"/></clipPath><clipPath id="d76c40e63a"><path d="M 12.078125 12.957031 L 20.304688 12.957031 L 20.304688 24.101562 L 12.078125 24.101562 Z M 12.078125 12.957031 " clip-rule="nonzero"/></clipPath><clipPath id="ee1e9fb8a8"><path d="M 17.800781 17.433594 C 17.335938 16.664062 16.625 16.074219 15.785156 15.757812 L 12.628906 14.570312 C 12.398438 14.484375 12.230469 14.28125 12.183594 14.042969 L 12.105469 13.644531 C 12.023438 13.21875 12.4375 12.859375 12.847656 13.007812 L 16.398438 14.273438 C 17.382812 14.625 18.210938 15.328125 18.71875 16.242188 L 19.855469 18.292969 C 19.976562 18.515625 20.023438 18.777344 19.976562 19.027344 L 19.480469 21.851562 C 19.433594 22.101562 19.488281 22.359375 19.625 22.574219 L 20.292969 23.601562 C 19.984375 24.179688 19.175781 24.226562 18.796875 23.691406 L 18.308594 22.996094 C 18.164062 22.792969 18.105469 22.535156 18.148438 22.285156 L 18.671875 19.378906 C 18.714844 19.128906 18.667969 18.871094 18.535156 18.652344 Z M 17.800781 17.433594 " clip-rule="nonzero"/></clipPath><clipPath id="df9ffa1710"><path d="M 11.464844 19.722656 L 18.421875 19.722656 L 18.421875 24.296875 L 11.464844 24.296875 Z M 11.464844 19.722656 " clip-rule="nonzero"/></clipPath><clipPath id="db57fe25eb"><path d="M 13.625 21.125 C 13.4375 20.941406 13.21875 20.789062 12.980469 20.683594 L 11.488281 20.019531 L 11.777344 19.839844 C 11.984375 19.707031 12.25 19.691406 12.472656 19.789062 L 13.125 20.078125 C 13.363281 20.183594 13.582031 20.332031 13.769531 20.515625 L 15.4375 22.125 C 15.628906 22.304688 15.847656 22.453125 16.085938 22.5625 L 17.664062 23.273438 L 18.417969 24.261719 L 15.820312 23.089844 C 15.582031 22.984375 15.363281 22.832031 15.175781 22.648438 Z M 13.625 21.125 " clip-rule="nonzero"/></clipPath><clipPath id="c0dc579a2a"><path d="M 14.769531 20.796875 L 17.113281 20.796875 L 17.113281 22.527344 L 14.769531 22.527344 Z M 14.769531 20.796875 " clip-rule="nonzero"/></clipPath><clipPath id="ab20ea92a0"><path d="M 14.769531 20.808594 L 16.296875 21.488281 L 17.082031 22.515625 L 16.269531 22.152344 C 16.03125 22.046875 15.8125 21.894531 15.632812 21.703125 Z M 14.769531 20.808594 " clip-rule="nonzero"/></clipPath><clipPath id="081ce7cd8b"><path d="M 8.351562 19.070312 L 14.386719 19.070312 L 14.386719 22.449219 L 8.351562 22.449219 Z M 8.351562 19.070312 " clip-rule="nonzero"/></clipPath><clipPath id="d77a6eb731"><path d="M 14.363281 22.433594 L 10.707031 20.785156 C 9.847656 20.398438 9.074219 19.84375 8.433594 19.15625 L 8.359375 19.078125 L 12.605469 20.992188 C 12.847656 21.101562 13.066406 21.246094 13.261719 21.421875 Z M 14.363281 22.433594 " clip-rule="nonzero"/></clipPath><clipPath id="45701d685f"><path d="M 7.3125 17.492188 L 15.808594 17.492188 L 15.808594 20.757812 L 7.3125 20.757812 Z M 7.3125 17.492188 " clip-rule="nonzero"/></clipPath><clipPath id="81342bb560"><path d="M 7.351562 17.515625 L 10.175781 18.769531 C 10.398438 18.867188 10.664062 18.847656 10.867188 18.710938 L 11.351562 18.390625 C 11.558594 18.253906 11.820312 18.230469 12.046875 18.324219 L 13.679688 19.019531 C 14.523438 19.375 15.253906 19.96875 15.773438 20.722656 L 12.265625 19.1875 C 12.039062 19.089844 11.773438 19.109375 11.5625 19.238281 L 11.132812 19.503906 C 10.921875 19.632812 10.660156 19.652344 10.433594 19.550781 L 8.3125 18.605469 C 8.078125 18.5 7.878906 18.328125 7.738281 18.113281 Z M 7.351562 17.515625 " clip-rule="nonzero"/></clipPath><clipPath id="3cfae89acb"><path d="M 6.277344 15.878906 L 10.964844 15.878906 L 10.964844 18.261719 L 6.277344 18.261719 Z M 6.277344 15.878906 " clip-rule="nonzero"/></clipPath><clipPath id="dd9a64249d"><path d="M 6.300781 15.890625 L 10.949219 17.859375 L 10.613281 18.097656 C 10.414062 18.238281 10.152344 18.265625 9.925781 18.167969 L 7.285156 17.011719 C 7.050781 16.910156 6.847656 16.738281 6.707031 16.523438 Z M 6.300781 15.890625 " clip-rule="nonzero"/></clipPath></defs><g clip-path="url(#c801cb3145)"><g clip-path="url(#acc5b33f32)"><path fill="url(#3a2c74cc6a)" d="M 0.945312 0.464844 L 0.945312 28.570312 L 29.054688 28.570312 L 29.054688 0.464844 Z M 0.945312 0.464844 " fill-rule="nonzero"/></g></g><g clip-path="url(#6b867fe469)"><g clip-path="url(#6b5d3fba2e)"><path fill="#f266ff" d="M 5.046875 4.578125 L 24.953125 4.578125 L 24.953125 24.449219 L 5.046875 24.449219 Z M 5.046875 4.578125 " fill-opacity="1" fill-rule="nonzero"/></g></g><g clip-path="url(#3738e00701)"><g clip-path="url(#e40140834f)"><path fill="#ff637e" d="M 5.046875 4.578125 L 24.953125 4.578125 L 24.953125 24.449219 L 5.046875 24.449219 Z M 5.046875 4.578125 " fill-opacity="1" fill-rule="nonzero"/></g></g><g clip-path="url(#c93db0b093)"><g clip-path="url(#d4f9028855)"><path fill="#00d7be" d="M 5.046875 4.578125 L 24.953125 4.578125 L 24.953125 24.449219 L 5.046875 24.449219 Z M 5.046875 4.578125 " fill-opacity="1" fill-rule="nonzero"/></g></g><g clip-path="url(#c75be53754)"><g clip-path="url(#2ac7642df7)"><path fill="#1f93ff" d="M 5.046875 4.578125 L 24.953125 4.578125 L 24.953125 24.449219 L 5.046875 24.449219 Z M 5.046875 4.578125 " fill-opacity="1" fill-rule="nonzero"/></g></g><g clip-path="url(#509f8b1f1b)"><g clip-path="url(#736975885a)"><path fill="#ffd500" d="M 5.046875 4.578125 L 24.953125 4.578125 L 24.953125 24.449219 L 5.046875 24.449219 Z M 5.046875 4.578125 " fill-opacity="1" fill-rule="nonzero"/></g></g><g clip-path="url(#eca8f14e4e)"><g clip-path="url(#1911f2c93a)"><path fill="#1f93ff" d="M 5.046875 4.578125 L 24.953125 4.578125 L 24.953125 24.449219 L 5.046875 24.449219 Z M 5.046875 4.578125 " fill-opacity="1" fill-rule="nonzero"/></g></g><g clip-path="url(#d8340968d6)"><g clip-path="url(#7522a8b857)"><path fill="#f266ff" d="M 5.046875 4.578125 L 24.953125 4.578125 L 24.953125 24.449219 L 5.046875 24.449219 Z M 5.046875 4.578125 " fill-opacity="1" fill-rule="nonzero"/></g></g><g clip-path="url(#181e28136f)"><g clip-path="url(#980f210653)"><path fill="#1f93ff" d="M 5.046875 4.578125 L 24.953125 4.578125 L 24.953125 24.449219 L 5.046875 24.449219 Z M 5.046875 4.578125 " fill-opacity="1" fill-rule="nonzero"/></g></g><g clip-path="url(#d76c40e63a)"><g clip-path="url(#ee1e9fb8a8)"><path fill="#ffcf00" d="M 5.046875 4.578125 L 24.953125 4.578125 L 24.953125 24.449219 L 5.046875 24.449219 Z M 5.046875 4.578125 " fill-opacity="1" fill-rule="nonzero"/></g></g><g clip-path="url(#df9ffa1710)"><g clip-path="url(#db57fe25eb)"><path fill="#61d742" d="M 5.046875 4.578125 L 24.953125 4.578125 L 24.953125 24.449219 L 5.046875 24.449219 Z M 5.046875 4.578125 " fill-opacity="1" fill-rule="nonzero"/></g></g><g clip-path="url(#c0dc579a2a)"><g clip-path="url(#ab20ea92a0)"><path fill="#1f93ff" d="M 5.046875 4.578125 L 24.953125 4.578125 L 24.953125 24.449219 L 5.046875 24.449219 Z M 5.046875 4.578125 " fill-opacity="1" fill-rule="nonzero"/></g></g><g clip-path="url(#081ce7cd8b)"><g clip-path="url(#d77a6eb731)"><path fill="#1f93ff" d="M 5.046875 4.578125 L 24.953125 4.578125 L 24.953125 24.449219 L 5.046875 24.449219 Z M 5.046875 4.578125 " fill-opacity="1" fill-rule="nonzero"/></g></g><g clip-path="url(#45701d685f)"><g clip-path="url(#81342bb560)"><path fill="#ff7a78" d="M 5.046875 4.578125 L 24.953125 4.578125 L 24.953125 24.449219 L 5.046875 24.449219 Z M 5.046875 4.578125 " fill-opacity="1" fill-rule="nonzero"/></g></g><g clip-path="url(#3cfae89acb)"><g clip-path="url(#dd9a64249d)"><path fill="#ffcf00" d="M 5.046875 4.578125 L 24.953125 4.578125 L 24.953125 24.449219 L 5.046875 24.449219 Z M 5.046875 4.578125 " fill-opacity="1" fill-rule="nonzero"/></g></g></svg>