<svg xmlns="http://www.w3.org/2000/svg" xmlns:xlink="http://www.w3.org/1999/xlink" width="117" zoomAndPan="magnify" viewBox="0 0 87.75 70.499998" height="94" preserveAspectRatio="xMidYMid meet" version="1.0"><defs><filter x="0%" y="0%" width="100%" height="100%" id="4dca174e09"><feColorMatrix values="0 0 0 0 1 0 0 0 0 1 0 0 0 0 1 0 0 0 1 0" color-interpolation-filters="sRGB"/></filter><mask id="3fb50da403"><g filter="url(#4dca174e09)"><rect x="-8.775" width="105.3" fill="#000000" y="-7.05" height="84.599998" fill-opacity="0.05"/></g></mask><clipPath id="8a09a8af74"><path d="M 12 0.8125 L 22 0.8125 L 22 4.554688 L 12 4.554688 Z M 12 0.8125 " clip-rule="nonzero"/></clipPath><clipPath id="3c662ff2d6"><path d="M 12.011719 2.527344 C 12.957031 1.15625 14.671875 0.519531 16.28125 0.941406 L 21.402344 2.285156 C 22.09375 2.464844 22.191406 3.402344 21.554688 3.726562 L 20.429688 4.292969 C 19.957031 4.527344 19.414062 4.582031 18.90625 4.441406 Z M 12.011719 2.527344 " clip-rule="nonzero"/></clipPath><clipPath id="c7afa378c0"><path d="M 24.8125 15.703125 L 36.515625 15.703125 L 36.515625 32.183594 L 24.8125 32.183594 Z M 24.8125 15.703125 " clip-rule="nonzero"/></clipPath><clipPath id="02f1dfbc29"><path d="M 25.980469 16.210938 C 27.027344 15.707031 27.984375 15.582031 28.734375 16.023438 C 29.777344 16.636719 30.621094 17.566406 31.148438 18.675781 L 36.175781 29.261719 C 36.550781 30.046875 36.523438 30.964844 36.109375 31.730469 C 35.832031 32.246094 35.085938 32.238281 34.816406 31.714844 L 29.632812 21.664062 C 28.789062 20.027344 27.339844 18.777344 25.597656 18.183594 L 25.464844 18.136719 C 24.738281 17.890625 24.664062 16.890625 25.347656 16.535156 Z M 25.980469 16.210938 " clip-rule="nonzero"/></clipPath><clipPath id="c103b3bdd0"><path d="M 6.417969 9.332031 L 41 9.332031 L 41 24.0625 L 6.417969 24.0625 Z M 6.417969 9.332031 " clip-rule="nonzero"/></clipPath><clipPath id="b80e682693"><path d="M 6.695312 10.230469 C 7.195312 9.507812 8.113281 9.195312 8.949219 9.464844 L 19.070312 12.734375 C 19.570312 12.894531 20.117188 12.859375 20.589844 12.632812 L 26.546875 9.769531 C 27.023438 9.539062 27.566406 9.496094 28.074219 9.640625 L 29.445312 10.042969 C 31.730469 10.707031 33.597656 12.390625 34.5 14.59375 L 35.402344 16.800781 C 35.585938 17.253906 36.042969 17.542969 36.53125 17.519531 L 39.121094 17.394531 C 39.605469 17.371094 40.050781 17.671875 40.210938 18.132812 L 40.660156 19.421875 C 41.1875 20.941406 41.050781 22.621094 40.285156 24.035156 L 38.890625 20.375 C 38.714844 19.917969 38.265625 19.621094 37.777344 19.636719 L 34.890625 19.734375 C 34.394531 19.75 33.9375 19.464844 33.738281 19.011719 L 32.609375 16.464844 C 31.871094 14.800781 30.441406 13.527344 28.699219 12.992188 L 27.332031 12.570312 L 20.390625 15.808594 C 19.914062 16.027344 19.367188 16.058594 18.867188 15.890625 L 7.257812 11.929688 C 6.550781 11.691406 6.273438 10.84375 6.695312 10.230469 " clip-rule="nonzero"/></clipPath><clipPath id="53ecbe49ea"><path d="M 9.601562 3.757812 L 38.746094 3.757812 L 38.746094 15.625 L 9.601562 15.625 Z M 9.601562 3.757812 " clip-rule="nonzero"/></clipPath><clipPath id="0537459dcf"><path d="M 38.640625 13.625 C 39.003906 14.664062 38.289062 15.964844 37.316406 15.449219 C 37.074219 15.324219 36.882812 15.113281 36.78125 14.847656 L 35.484375 11.441406 C 34.839844 9.757812 33.429688 8.46875 31.691406 7.988281 L 27.773438 6.898438 C 27.265625 6.757812 26.71875 6.804688 26.242188 7.03125 L 20.3125 9.828125 C 19.839844 10.054688 19.289062 10.09375 18.789062 9.9375 L 10.355469 7.339844 C 9.675781 7.128906 9.394531 6.320312 9.796875 5.734375 C 10.285156 5.03125 11.171875 4.714844 11.992188 4.953125 L 18.652344 6.898438 C 19.160156 7.042969 19.703125 7 20.179688 6.769531 L 25.886719 4.007812 C 26.363281 3.777344 26.910156 3.726562 27.421875 3.859375 L 32.375 5.15625 C 34.652344 5.753906 36.492188 7.457031 37.265625 9.679688 Z M 38.640625 13.625 " clip-rule="nonzero"/></clipPath><clipPath id="cdd7f6313b"><path d="M 34.84375 21.515625 L 38.90625 21.515625 L 38.90625 27.648438 L 34.84375 27.648438 Z M 34.84375 21.515625 " clip-rule="nonzero"/></clipPath><clipPath id="fbf30d6187"><path d="M 36.496094 21.527344 C 36.984375 21.503906 37.441406 21.792969 37.625 22.25 L 38.675781 24.820312 C 38.996094 25.605469 38.949219 26.5 38.542969 27.242188 C 38.28125 27.726562 37.582031 27.699219 37.359375 27.195312 L 34.882812 21.601562 Z M 36.496094 21.527344 " clip-rule="nonzero"/></clipPath><clipPath id="48000d0ca7"><path d="M 0.527344 18.332031 L 6.578125 18.332031 L 6.578125 23.507812 L 0.527344 23.507812 Z M 0.527344 18.332031 " clip-rule="nonzero"/></clipPath><clipPath id="9c3ccd0aba"><path d="M 0.949219 18.554688 L 1.074219 18.375 L 5.4375 20.089844 C 5.910156 20.277344 6.257812 20.699219 6.351562 21.199219 L 6.53125 22.132812 C 6.695312 23 5.828125 23.703125 5.015625 23.363281 L 2 22.117188 C 0.597656 21.535156 0.0859375 19.808594 0.949219 18.554688 " clip-rule="nonzero"/></clipPath><clipPath id="447b360cc0"><path d="M 3.234375 14 L 26.324219 14 L 26.324219 35.929688 L 3.234375 35.929688 Z M 3.234375 14 " clip-rule="nonzero"/></clipPath><clipPath id="766c7c6196"><path d="M 3.488281 14.875 C 4 14.132812 4.953125 13.824219 5.804688 14.128906 L 10.621094 15.847656 C 11.097656 16.019531 11.457031 16.429688 11.558594 16.929688 L 12.628906 22.183594 C 12.730469 22.683594 13.082031 23.101562 13.558594 23.285156 L 20.6875 26.09375 C 22.523438 26.816406 24.09375 28.097656 25.167969 29.75 L 25.992188 31.019531 C 26.28125 31.460938 26.386719 32 26.289062 32.515625 L 25.652344 35.851562 L 23.355469 32.613281 C 22.273438 31.085938 20.773438 29.890625 19.039062 29.171875 L 10.574219 25.667969 C 10.105469 25.472656 9.761719 25.046875 9.671875 24.546875 L 8.707031 19.183594 C 8.617188 18.683594 8.269531 18.265625 7.792969 18.085938 L 4.054688 16.679688 C 3.324219 16.402344 3.046875 15.519531 3.488281 14.875 " clip-rule="nonzero"/></clipPath><clipPath id="d0a64885ee"><path d="M 32 33.378906 L 33.96875 33.378906 L 33.96875 36.804688 L 32 36.804688 Z M 32 33.378906 " clip-rule="nonzero"/></clipPath><clipPath id="6428da9a31"><path d="M 33.59375 33.851562 C 34.023438 34.625 34.027344 35.574219 33.605469 36.351562 C 33.296875 36.917969 32.457031 36.964844 32.207031 36.371094 C 32.050781 35.992188 32 35.570312 32.066406 35.15625 L 32.246094 34.042969 C 32.355469 33.375 33.246094 33.21875 33.570312 33.8125 Z M 33.59375 33.851562 " clip-rule="nonzero"/></clipPath><clipPath id="05181a9a24"><path d="M 14.699219 17.773438 L 31.738281 17.773438 L 31.738281 40.863281 L 14.699219 40.863281 Z M 14.699219 17.773438 " clip-rule="nonzero"/></clipPath><clipPath id="7a59c08a71"><path d="M 26.550781 27.042969 C 25.59375 25.453125 24.117188 24.226562 22.378906 23.574219 L 15.839844 21.113281 C 15.363281 20.933594 15.011719 20.519531 14.914062 20.019531 L 14.753906 19.199219 C 14.582031 18.3125 15.441406 17.570312 16.292969 17.875 L 23.652344 20.5 C 25.6875 21.230469 27.402344 22.683594 28.453125 24.574219 L 30.808594 28.824219 C 31.0625 29.285156 31.15625 29.828125 31.0625 30.351562 L 30.03125 36.199219 C 29.9375 36.71875 30.046875 37.253906 30.335938 37.695312 L 31.722656 39.828125 C 31.074219 41.019531 29.398438 41.121094 28.617188 40.011719 L 27.605469 38.574219 C 27.300781 38.144531 27.183594 37.613281 27.277344 37.097656 L 28.355469 31.078125 C 28.449219 30.558594 28.347656 30.019531 28.074219 29.570312 Z M 26.550781 27.042969 " clip-rule="nonzero"/></clipPath><clipPath id="ca3f860143"><path d="M 13.425781 31.789062 L 27.835938 31.789062 L 27.835938 41.261719 L 13.425781 41.261719 Z M 13.425781 31.789062 " clip-rule="nonzero"/></clipPath><clipPath id="5d7ade72a9"><path d="M 17.898438 34.691406 C 17.511719 34.308594 17.0625 34 16.566406 33.78125 L 13.472656 32.40625 L 14.070312 32.03125 C 14.503906 31.757812 15.050781 31.71875 15.515625 31.929688 L 16.863281 32.527344 C 17.359375 32.746094 17.816406 33.050781 18.203125 33.429688 L 21.660156 36.761719 C 22.050781 37.140625 22.503906 37.449219 23 37.671875 L 26.265625 39.144531 L 27.828125 41.191406 L 22.449219 38.765625 C 21.957031 38.542969 21.503906 38.234375 21.117188 37.851562 Z M 17.898438 34.691406 " clip-rule="nonzero"/></clipPath><clipPath id="977f67f50c"><path d="M 20.273438 34.015625 L 25.128906 34.015625 L 25.128906 37.601562 L 20.273438 37.601562 Z M 20.273438 34.015625 " clip-rule="nonzero"/></clipPath><clipPath id="5dc8041669"><path d="M 20.277344 34.039062 L 23.441406 35.445312 L 25.066406 37.570312 L 23.378906 36.820312 C 22.886719 36.601562 22.4375 36.285156 22.0625 35.894531 Z M 20.277344 34.039062 " clip-rule="nonzero"/></clipPath><clipPath id="8af0f1c1ca"><path d="M 6.976562 30.433594 L 19.476562 30.433594 L 19.476562 37.441406 L 6.976562 37.441406 Z M 6.976562 30.433594 " clip-rule="nonzero"/></clipPath><clipPath id="23341f861c"><path d="M 19.429688 37.40625 L 11.855469 33.988281 C 10.078125 33.1875 8.476562 32.039062 7.144531 30.613281 L 6.996094 30.449219 L 15.792969 34.421875 C 16.289062 34.644531 16.746094 34.945312 17.148438 35.3125 Z M 19.429688 37.40625 " clip-rule="nonzero"/></clipPath><clipPath id="a9369cca60"><path d="M 4.824219 27.167969 L 22.421875 27.167969 L 22.421875 33.9375 L 4.824219 33.9375 Z M 4.824219 27.167969 " clip-rule="nonzero"/></clipPath><clipPath id="b2a225ba6b"><path d="M 4.902344 27.214844 L 10.753906 29.8125 C 11.222656 30.019531 11.765625 29.972656 12.1875 29.691406 L 13.191406 29.027344 C 13.617188 28.746094 14.160156 28.695312 14.632812 28.894531 L 18.019531 30.328125 C 19.765625 31.070312 21.273438 32.296875 22.351562 33.863281 L 15.082031 30.683594 C 14.613281 30.476562 14.070312 30.515625 13.632812 30.785156 L 12.738281 31.335938 C 12.304688 31.605469 11.757812 31.640625 11.292969 31.433594 L 6.898438 29.476562 C 6.410156 29.257812 5.992188 28.902344 5.703125 28.453125 Z M 4.902344 27.214844 " clip-rule="nonzero"/></clipPath><clipPath id="6e7a193a59"><path d="M 2.675781 23.824219 L 12.390625 23.824219 L 12.390625 28.761719 L 2.675781 28.761719 Z M 2.675781 23.824219 " clip-rule="nonzero"/></clipPath><clipPath id="f57df3200b"><path d="M 2.726562 23.847656 L 12.359375 27.933594 L 11.664062 28.421875 C 11.25 28.714844 10.707031 28.773438 10.242188 28.566406 L 4.769531 26.175781 C 4.277344 25.960938 3.859375 25.605469 3.570312 25.15625 Z M 2.726562 23.847656 " clip-rule="nonzero"/></clipPath><clipPath id="782e66cedf"><rect x="0" width="42" y="0" height="42"/></clipPath><clipPath id="abf883d694"><path d="M 11.066406 2.320312 L 76.601562 2.320312 L 76.601562 67.855469 L 11.066406 67.855469 Z M 11.066406 2.320312 " clip-rule="nonzero"/></clipPath></defs><g mask="url(#3fb50da403)"><g transform="matrix(1, 0, 0, 1, 23, 14)"><g clip-path="url(#782e66cedf)"><g clip-path="url(#8a09a8af74)"><g clip-path="url(#3c662ff2d6)"><path fill="#f266ff" d="M 0.128906 0.414062 L 41.375 0.414062 L 41.375 41.582031 L 0.128906 41.582031 Z M 0.128906 0.414062 " fill-opacity="1" fill-rule="nonzero"/></g></g><g clip-path="url(#c7afa378c0)"><g clip-path="url(#02f1dfbc29)"><path fill="#ff637e" d="M 0.128906 0.414062 L 41.375 0.414062 L 41.375 41.582031 L 0.128906 41.582031 Z M 0.128906 0.414062 " fill-opacity="1" fill-rule="nonzero"/></g></g><g clip-path="url(#c103b3bdd0)"><g clip-path="url(#b80e682693)"><path fill="#00d7be" d="M 0.128906 0.414062 L 41.375 0.414062 L 41.375 41.582031 L 0.128906 41.582031 Z M 0.128906 0.414062 " fill-opacity="1" fill-rule="nonzero"/></g></g><g clip-path="url(#53ecbe49ea)"><g clip-path="url(#0537459dcf)"><path fill="#1f93ff" d="M 0.128906 0.414062 L 41.375 0.414062 L 41.375 41.582031 L 0.128906 41.582031 Z M 0.128906 0.414062 " fill-opacity="1" fill-rule="nonzero"/></g></g><g clip-path="url(#cdd7f6313b)"><g clip-path="url(#fbf30d6187)"><path fill="#ffd500" d="M 0.128906 0.414062 L 41.375 0.414062 L 41.375 41.582031 L 0.128906 41.582031 Z M 0.128906 0.414062 " fill-opacity="1" fill-rule="nonzero"/></g></g><g clip-path="url(#48000d0ca7)"><g clip-path="url(#9c3ccd0aba)"><path fill="#1f93ff" d="M 0.128906 0.414062 L 41.375 0.414062 L 41.375 41.582031 L 0.128906 41.582031 Z M 0.128906 0.414062 " fill-opacity="1" fill-rule="nonzero"/></g></g><g clip-path="url(#447b360cc0)"><g clip-path="url(#766c7c6196)"><path fill="#f266ff" d="M 0.128906 0.414062 L 41.375 0.414062 L 41.375 41.582031 L 0.128906 41.582031 Z M 0.128906 0.414062 " fill-opacity="1" fill-rule="nonzero"/></g></g><g clip-path="url(#d0a64885ee)"><g clip-path="url(#6428da9a31)"><path fill="#1f93ff" d="M 0.128906 0.414062 L 41.375 0.414062 L 41.375 41.582031 L 0.128906 41.582031 Z M 0.128906 0.414062 " fill-opacity="1" fill-rule="nonzero"/></g></g><g clip-path="url(#05181a9a24)"><g clip-path="url(#7a59c08a71)"><path fill="#ffcf00" d="M 0.128906 0.414062 L 41.375 0.414062 L 41.375 41.582031 L 0.128906 41.582031 Z M 0.128906 0.414062 " fill-opacity="1" fill-rule="nonzero"/></g></g><g clip-path="url(#ca3f860143)"><g clip-path="url(#5d7ade72a9)"><path fill="#61d742" d="M 0.128906 0.414062 L 41.375 0.414062 L 41.375 41.582031 L 0.128906 41.582031 Z M 0.128906 0.414062 " fill-opacity="1" fill-rule="nonzero"/></g></g><g clip-path="url(#977f67f50c)"><g clip-path="url(#5dc8041669)"><path fill="#1f93ff" d="M 0.128906 0.414062 L 41.375 0.414062 L 41.375 41.582031 L 0.128906 41.582031 Z M 0.128906 0.414062 " fill-opacity="1" fill-rule="nonzero"/></g></g><g clip-path="url(#8af0f1c1ca)"><g clip-path="url(#23341f861c)"><path fill="#1f93ff" d="M 0.128906 0.414062 L 41.375 0.414062 L 41.375 41.582031 L 0.128906 41.582031 Z M 0.128906 0.414062 " fill-opacity="1" fill-rule="nonzero"/></g></g><g clip-path="url(#a9369cca60)"><g clip-path="url(#b2a225ba6b)"><path fill="#ff7a78" d="M 0.128906 0.414062 L 41.375 0.414062 L 41.375 41.582031 L 0.128906 41.582031 Z M 0.128906 0.414062 " fill-opacity="1" fill-rule="nonzero"/></g></g><g clip-path="url(#6e7a193a59)"><g clip-path="url(#f57df3200b)"><path fill="#ffcf00" d="M 0.128906 0.414062 L 41.375 0.414062 L 41.375 41.582031 L 0.128906 41.582031 Z M 0.128906 0.414062 " fill-opacity="1" fill-rule="nonzero"/></g></g></g></g></g><path fill="#230fee" d="M 56.691406 44.554688 L 56.691406 48.097656 L 53.148438 48.097656 L 53.148438 44.554688 L 56.691406 44.554688 " fill-opacity="1" fill-rule="nonzero"/><path fill="#230fee" d="M 49.242188 44.554688 L 49.242188 48.097656 L 45.699219 48.097656 L 45.699219 44.554688 L 49.242188 44.554688 " fill-opacity="1" fill-rule="nonzero"/><path fill="#230fee" d="M 41.796875 44.554688 L 41.796875 48.097656 L 38.253906 48.097656 L 38.253906 44.554688 L 41.796875 44.554688 " fill-opacity="1" fill-rule="nonzero"/><path fill="#230fee" d="M 34.347656 44.554688 L 34.347656 48.097656 L 30.804688 48.097656 L 30.804688 44.554688 L 34.347656 44.554688 " fill-opacity="1" fill-rule="nonzero"/><path fill="#230fee" d="M 34.347656 37.109375 L 34.347656 40.652344 L 30.804688 40.652344 L 30.804688 37.109375 L 34.347656 37.109375 " fill-opacity="1" fill-rule="nonzero"/><path fill="#230fee" d="M 41.1875 38.566406 C 41.339844 38.414062 41.339844 38.164062 41.1875 38.007812 C 41.03125 37.855469 40.78125 37.855469 40.628906 38.007812 L 39.710938 38.929688 L 39.40625 38.65625 C 39.242188 38.511719 38.992188 38.523438 38.847656 38.6875 C 38.703125 38.847656 38.714844 39.097656 38.878906 39.242188 L 39.460938 39.765625 C 39.535156 39.832031 39.628906 39.867188 39.722656 39.867188 C 39.824219 39.867188 39.925781 39.828125 40.003906 39.75 Z M 41.796875 37.109375 L 41.796875 40.652344 L 38.253906 40.652344 L 38.253906 37.109375 L 41.796875 37.109375 " fill-opacity="1" fill-rule="nonzero"/><path fill="#230fee" d="M 49.242188 37.109375 L 49.242188 40.652344 L 45.699219 40.652344 L 45.699219 37.109375 L 49.242188 37.109375 " fill-opacity="1" fill-rule="nonzero"/><path fill="#230fee" d="M 56.691406 37.109375 L 56.691406 40.652344 L 53.148438 40.652344 L 53.148438 37.109375 L 56.691406 37.109375 " fill-opacity="1" fill-rule="nonzero"/><path fill="#230fee" d="M 56.691406 29.660156 L 56.691406 33.203125 L 53.148438 33.203125 L 53.148438 29.660156 L 56.691406 29.660156 " fill-opacity="1" fill-rule="nonzero"/><path fill="#230fee" d="M 49.242188 29.660156 L 49.242188 33.203125 L 45.699219 33.203125 L 45.699219 29.660156 L 49.242188 29.660156 " fill-opacity="1" fill-rule="nonzero"/><path fill="#230fee" d="M 41.796875 29.660156 L 41.796875 33.203125 L 38.253906 33.203125 L 38.253906 29.660156 L 41.796875 29.660156 " fill-opacity="1" fill-rule="nonzero"/><path fill="#230fee" d="M 34.347656 29.660156 L 34.347656 33.203125 L 30.804688 33.203125 L 30.804688 29.660156 L 34.347656 29.660156 " fill-opacity="1" fill-rule="nonzero"/><path fill="#230fee" d="M 35.140625 33.601562 L 35.140625 29.265625 C 35.140625 29.046875 34.960938 28.871094 34.746094 28.871094 L 30.410156 28.871094 C 30.191406 28.871094 30.015625 29.046875 30.015625 29.265625 L 30.015625 33.601562 C 30.015625 33.816406 30.191406 33.996094 30.410156 33.996094 L 34.746094 33.996094 C 34.960938 33.996094 35.140625 33.816406 35.140625 33.601562 Z M 35.140625 41.046875 L 35.140625 36.710938 C 35.140625 36.496094 34.960938 36.316406 34.746094 36.316406 L 30.410156 36.316406 C 30.191406 36.316406 30.015625 36.496094 30.015625 36.710938 L 30.015625 41.046875 C 30.015625 41.265625 30.191406 41.441406 30.410156 41.441406 L 34.746094 41.441406 C 34.960938 41.441406 35.140625 41.265625 35.140625 41.046875 Z M 35.140625 48.492188 L 35.140625 44.160156 C 35.140625 43.941406 34.960938 43.765625 34.746094 43.765625 L 30.410156 43.765625 C 30.191406 43.765625 30.015625 43.941406 30.015625 44.160156 L 30.015625 48.492188 C 30.015625 48.710938 30.191406 48.890625 30.410156 48.890625 L 34.746094 48.890625 C 34.960938 48.890625 35.140625 48.710938 35.140625 48.492188 Z M 42.585938 33.601562 L 42.585938 29.265625 C 42.585938 29.046875 42.410156 28.871094 42.191406 28.871094 L 37.855469 28.871094 C 37.640625 28.871094 37.460938 29.046875 37.460938 29.265625 L 37.460938 33.601562 C 37.460938 33.816406 37.640625 33.996094 37.855469 33.996094 L 42.191406 33.996094 C 42.410156 33.996094 42.585938 33.816406 42.585938 33.601562 Z M 42.585938 41.046875 L 42.585938 36.710938 C 42.585938 36.496094 42.410156 36.316406 42.191406 36.316406 L 37.855469 36.316406 C 37.640625 36.316406 37.460938 36.496094 37.460938 36.710938 L 37.460938 41.046875 C 37.460938 41.265625 37.640625 41.441406 37.855469 41.441406 L 42.191406 41.441406 C 42.410156 41.441406 42.585938 41.265625 42.585938 41.046875 Z M 42.585938 48.492188 L 42.585938 44.160156 C 42.585938 43.941406 42.410156 43.765625 42.191406 43.765625 L 37.855469 43.765625 C 37.640625 43.765625 37.460938 43.941406 37.460938 44.160156 L 37.460938 48.492188 C 37.460938 48.710938 37.640625 48.890625 37.855469 48.890625 L 42.191406 48.890625 C 42.410156 48.890625 42.585938 48.710938 42.585938 48.492188 Z M 50.035156 33.601562 L 50.035156 29.265625 C 50.035156 29.046875 49.855469 28.871094 49.640625 28.871094 L 45.304688 28.871094 C 45.085938 28.871094 44.910156 29.046875 44.910156 29.265625 L 44.910156 33.601562 C 44.910156 33.816406 45.085938 33.996094 45.304688 33.996094 L 49.640625 33.996094 C 49.855469 33.996094 50.035156 33.816406 50.035156 33.601562 Z M 50.035156 41.046875 L 50.035156 36.710938 C 50.035156 36.496094 49.855469 36.316406 49.640625 36.316406 L 45.304688 36.316406 C 45.085938 36.316406 44.910156 36.496094 44.910156 36.710938 L 44.910156 41.046875 C 44.910156 41.265625 45.085938 41.441406 45.304688 41.441406 L 49.640625 41.441406 C 49.855469 41.441406 50.035156 41.265625 50.035156 41.046875 Z M 50.035156 48.492188 L 50.035156 44.160156 C 50.035156 43.941406 49.855469 43.765625 49.640625 43.765625 L 45.304688 43.765625 C 45.085938 43.765625 44.910156 43.941406 44.910156 44.160156 L 44.910156 48.492188 C 44.910156 48.710938 45.085938 48.890625 45.304688 48.890625 L 49.640625 48.890625 C 49.855469 48.890625 50.035156 48.710938 50.035156 48.492188 Z M 57.480469 33.601562 L 57.480469 29.265625 C 57.480469 29.046875 57.304688 28.871094 57.085938 28.871094 L 52.75 28.871094 C 52.535156 28.871094 52.355469 29.046875 52.355469 29.265625 L 52.355469 33.601562 C 52.355469 33.816406 52.535156 33.996094 52.75 33.996094 L 57.085938 33.996094 C 57.304688 33.996094 57.480469 33.816406 57.480469 33.601562 Z M 57.480469 41.046875 L 57.480469 36.710938 C 57.480469 36.496094 57.304688 36.316406 57.085938 36.316406 L 52.75 36.316406 C 52.535156 36.316406 52.355469 36.496094 52.355469 36.710938 L 52.355469 41.046875 C 52.355469 41.265625 52.535156 41.441406 52.75 41.441406 L 57.085938 41.441406 C 57.304688 41.441406 57.480469 41.265625 57.480469 41.046875 Z M 57.480469 48.492188 L 57.480469 44.160156 C 57.480469 43.941406 57.304688 43.765625 57.085938 43.765625 L 52.75 43.765625 C 52.535156 43.765625 52.355469 43.941406 52.355469 44.160156 L 52.355469 48.492188 C 52.355469 48.710938 52.535156 48.890625 52.75 48.890625 L 57.085938 48.890625 C 57.304688 48.890625 57.480469 48.710938 57.480469 48.492188 Z M 61.722656 26.632812 L 61.722656 51.125 L 25.773438 51.125 L 25.773438 26.632812 L 61.722656 26.632812 " fill-opacity="1" fill-rule="nonzero"/><path fill="#230fee" d="M 35.046875 21.023438 L 35.046875 23.175781 L 33.203125 23.175781 L 33.203125 18.871094 L 35.046875 18.871094 L 35.046875 21.023438 " fill-opacity="1" fill-rule="nonzero"/><path fill="#230fee" d="M 54.292969 21.023438 L 54.292969 23.175781 L 52.449219 23.175781 L 52.449219 18.871094 L 54.292969 18.871094 L 54.292969 21.023438 " fill-opacity="1" fill-rule="nonzero"/><path fill="#230fee" d="M 61.722656 21.417969 L 61.722656 25.84375 L 25.773438 25.84375 L 25.773438 21.417969 L 32.414062 21.417969 L 32.414062 23.570312 C 32.414062 23.789062 32.589844 23.96875 32.808594 23.96875 L 35.445312 23.96875 C 35.660156 23.96875 35.839844 23.789062 35.839844 23.570312 L 35.839844 21.417969 L 51.65625 21.417969 L 51.65625 23.570312 C 51.65625 23.789062 51.835938 23.96875 52.054688 23.96875 L 54.6875 23.96875 C 54.90625 23.96875 55.082031 23.789062 55.082031 23.570312 L 55.082031 21.417969 L 61.722656 21.417969 " fill-opacity="1" fill-rule="nonzero"/><g clip-path="url(#abf883d694)"><path fill="#230fee" d="M 43.746094 2.320312 C 25.699219 2.320312 11.066406 16.949219 11.066406 35 C 11.066406 53.046875 25.699219 67.679688 43.746094 67.679688 C 61.796875 67.679688 76.429688 53.046875 76.429688 35 C 76.429688 16.949219 61.796875 2.320312 43.746094 2.320312 Z M 43.746094 3.886719 C 45.859375 3.886719 47.96875 4.101562 50.019531 4.519531 C 52.015625 4.929688 53.980469 5.539062 55.859375 6.332031 C 57.699219 7.113281 59.480469 8.074219 61.140625 9.199219 C 62.789062 10.3125 64.339844 11.589844 65.746094 13 C 67.15625 14.40625 68.433594 15.957031 69.546875 17.605469 C 70.671875 19.269531 71.636719 21.046875 72.414062 22.890625 C 73.210938 24.765625 73.820312 26.730469 74.226562 28.726562 C 74.648438 30.777344 74.859375 32.886719 74.859375 35 C 74.859375 37.109375 74.648438 39.222656 74.226562 41.269531 C 73.820312 43.265625 73.210938 45.230469 72.414062 47.109375 C 71.636719 48.953125 70.671875 50.730469 69.546875 52.394531 C 68.433594 54.039062 67.15625 55.589844 65.746094 57 C 64.339844 58.40625 62.789062 59.683594 61.140625 60.796875 C 59.480469 61.921875 57.699219 62.886719 55.859375 63.667969 C 53.980469 64.460938 52.015625 65.070312 50.019531 65.480469 C 47.96875 65.898438 45.859375 66.109375 43.746094 66.109375 C 41.636719 66.109375 39.527344 65.898438 37.476562 65.480469 C 35.480469 65.070312 33.515625 64.460938 31.636719 63.667969 C 29.796875 62.886719 28.015625 61.921875 26.355469 60.796875 C 24.707031 59.683594 23.15625 58.40625 21.75 57 C 20.339844 55.589844 19.0625 54.039062 17.949219 52.394531 C 16.824219 50.730469 15.859375 48.953125 15.082031 47.109375 C 14.285156 45.230469 13.675781 43.265625 13.269531 41.269531 C 12.847656 39.222656 12.636719 37.109375 12.636719 35 C 12.636719 32.886719 12.847656 30.777344 13.269531 28.726562 C 13.675781 26.730469 14.285156 24.765625 15.082031 22.890625 C 15.859375 21.046875 16.824219 19.269531 17.949219 17.605469 C 19.0625 15.957031 20.339844 14.40625 21.75 13 C 23.15625 11.589844 24.707031 10.3125 26.355469 9.199219 C 28.015625 8.074219 29.796875 7.113281 31.636719 6.332031 C 33.515625 5.539062 35.480469 4.929688 37.476562 4.519531 C 39.527344 4.101562 41.636719 3.886719 43.746094 3.886719 " fill-opacity="1" fill-rule="nonzero"/></g></svg>