<svg xmlns="http://www.w3.org/2000/svg" xmlns:xlink="http://www.w3.org/1999/xlink" width="117" zoomAndPan="magnify" viewBox="0 0 87.75 70.499998" height="94" preserveAspectRatio="xMidYMid meet" version="1.0"><defs><filter x="0%" y="0%" width="100%" height="100%" id="161f7f72e1"><feColorMatrix values="0 0 0 0 1 0 0 0 0 1 0 0 0 0 1 0 0 0 1 0" color-interpolation-filters="sRGB"/></filter><mask id="8cb04d3b90"><g filter="url(#161f7f72e1)"><rect x="-8.775" width="105.3" fill="#000000" y="-7.05" height="84.599998" fill-opacity="0.05"/></g></mask><clipPath id="ea824a9343"><path d="M 12 0.8125 L 22 0.8125 L 22 4.554688 L 12 4.554688 Z M 12 0.8125 " clip-rule="nonzero"/></clipPath><clipPath id="49ecfc33ba"><path d="M 12.011719 2.527344 C 12.957031 1.15625 14.671875 0.519531 16.28125 0.941406 L 21.402344 2.285156 C 22.09375 2.464844 22.191406 3.402344 21.554688 3.726562 L 20.429688 4.292969 C 19.957031 4.527344 19.414062 4.582031 18.90625 4.441406 Z M 12.011719 2.527344 " clip-rule="nonzero"/></clipPath><clipPath id="0a08d26cac"><path d="M 24.8125 15.703125 L 36.515625 15.703125 L 36.515625 32.183594 L 24.8125 32.183594 Z M 24.8125 15.703125 " clip-rule="nonzero"/></clipPath><clipPath id="7a9865e4ef"><path d="M 25.980469 16.210938 C 27.027344 15.707031 27.984375 15.582031 28.734375 16.023438 C 29.777344 16.636719 30.621094 17.566406 31.148438 18.675781 L 36.175781 29.261719 C 36.550781 30.046875 36.523438 30.964844 36.109375 31.730469 C 35.832031 32.246094 35.085938 32.238281 34.816406 31.714844 L 29.632812 21.664062 C 28.789062 20.027344 27.339844 18.777344 25.597656 18.183594 L 25.464844 18.136719 C 24.738281 17.890625 24.664062 16.890625 25.347656 16.535156 Z M 25.980469 16.210938 " clip-rule="nonzero"/></clipPath><clipPath id="08b30ca4e3"><path d="M 6.417969 9.332031 L 41 9.332031 L 41 24.0625 L 6.417969 24.0625 Z M 6.417969 9.332031 " clip-rule="nonzero"/></clipPath><clipPath id="6b0021e1f3"><path d="M 6.695312 10.230469 C 7.195312 9.507812 8.113281 9.195312 8.949219 9.464844 L 19.070312 12.734375 C 19.570312 12.894531 20.117188 12.859375 20.589844 12.632812 L 26.546875 9.769531 C 27.023438 9.539062 27.566406 9.496094 28.074219 9.640625 L 29.445312 10.042969 C 31.730469 10.707031 33.597656 12.390625 34.5 14.59375 L 35.402344 16.800781 C 35.585938 17.253906 36.042969 17.542969 36.53125 17.519531 L 39.121094 17.394531 C 39.605469 17.371094 40.050781 17.671875 40.210938 18.132812 L 40.660156 19.421875 C 41.1875 20.941406 41.050781 22.621094 40.285156 24.035156 L 38.890625 20.375 C 38.714844 19.917969 38.265625 19.621094 37.777344 19.636719 L 34.890625 19.734375 C 34.394531 19.75 33.9375 19.464844 33.738281 19.011719 L 32.609375 16.464844 C 31.871094 14.800781 30.441406 13.527344 28.699219 12.992188 L 27.332031 12.570312 L 20.390625 15.808594 C 19.914062 16.027344 19.367188 16.058594 18.867188 15.890625 L 7.257812 11.929688 C 6.550781 11.691406 6.273438 10.84375 6.695312 10.230469 " clip-rule="nonzero"/></clipPath><clipPath id="b43cd3f188"><path d="M 9.601562 3.757812 L 38.746094 3.757812 L 38.746094 15.625 L 9.601562 15.625 Z M 9.601562 3.757812 " clip-rule="nonzero"/></clipPath><clipPath id="b8e6eb1eac"><path d="M 38.640625 13.625 C 39.003906 14.664062 38.289062 15.964844 37.316406 15.449219 C 37.074219 15.324219 36.882812 15.113281 36.78125 14.847656 L 35.484375 11.441406 C 34.839844 9.757812 33.429688 8.46875 31.691406 7.988281 L 27.773438 6.898438 C 27.265625 6.757812 26.71875 6.804688 26.242188 7.03125 L 20.3125 9.828125 C 19.839844 10.054688 19.289062 10.09375 18.789062 9.9375 L 10.355469 7.339844 C 9.675781 7.128906 9.394531 6.320312 9.796875 5.734375 C 10.285156 5.03125 11.171875 4.714844 11.992188 4.953125 L 18.652344 6.898438 C 19.160156 7.042969 19.703125 7 20.179688 6.769531 L 25.886719 4.007812 C 26.363281 3.777344 26.910156 3.726562 27.421875 3.859375 L 32.375 5.15625 C 34.652344 5.753906 36.492188 7.457031 37.265625 9.679688 Z M 38.640625 13.625 " clip-rule="nonzero"/></clipPath><clipPath id="93714c11e9"><path d="M 34.84375 21.515625 L 38.90625 21.515625 L 38.90625 27.648438 L 34.84375 27.648438 Z M 34.84375 21.515625 " clip-rule="nonzero"/></clipPath><clipPath id="8347563c10"><path d="M 36.496094 21.527344 C 36.984375 21.503906 37.441406 21.792969 37.625 22.25 L 38.675781 24.820312 C 38.996094 25.605469 38.949219 26.5 38.542969 27.242188 C 38.28125 27.726562 37.582031 27.699219 37.359375 27.195312 L 34.882812 21.601562 Z M 36.496094 21.527344 " clip-rule="nonzero"/></clipPath><clipPath id="f2894b2e53"><path d="M 0.527344 18.332031 L 6.578125 18.332031 L 6.578125 23.507812 L 0.527344 23.507812 Z M 0.527344 18.332031 " clip-rule="nonzero"/></clipPath><clipPath id="92d56db84c"><path d="M 0.949219 18.554688 L 1.074219 18.375 L 5.4375 20.089844 C 5.910156 20.277344 6.257812 20.699219 6.351562 21.199219 L 6.53125 22.132812 C 6.695312 23 5.828125 23.703125 5.015625 23.363281 L 2 22.117188 C 0.597656 21.535156 0.0859375 19.808594 0.949219 18.554688 " clip-rule="nonzero"/></clipPath><clipPath id="cb13b88be9"><path d="M 3.234375 14 L 26.324219 14 L 26.324219 35.929688 L 3.234375 35.929688 Z M 3.234375 14 " clip-rule="nonzero"/></clipPath><clipPath id="9627355b44"><path d="M 3.488281 14.875 C 4 14.132812 4.953125 13.824219 5.804688 14.128906 L 10.621094 15.847656 C 11.097656 16.019531 11.457031 16.429688 11.558594 16.929688 L 12.628906 22.183594 C 12.730469 22.683594 13.082031 23.101562 13.558594 23.285156 L 20.6875 26.09375 C 22.523438 26.816406 24.09375 28.097656 25.167969 29.75 L 25.992188 31.019531 C 26.28125 31.460938 26.386719 32 26.289062 32.515625 L 25.652344 35.851562 L 23.355469 32.613281 C 22.273438 31.085938 20.773438 29.890625 19.039062 29.171875 L 10.574219 25.667969 C 10.105469 25.472656 9.761719 25.046875 9.671875 24.546875 L 8.707031 19.183594 C 8.617188 18.683594 8.269531 18.265625 7.792969 18.085938 L 4.054688 16.679688 C 3.324219 16.402344 3.046875 15.519531 3.488281 14.875 " clip-rule="nonzero"/></clipPath><clipPath id="f3fc3b5e02"><path d="M 32 33.378906 L 33.96875 33.378906 L 33.96875 36.804688 L 32 36.804688 Z M 32 33.378906 " clip-rule="nonzero"/></clipPath><clipPath id="d0c7218ffe"><path d="M 33.59375 33.851562 C 34.023438 34.625 34.027344 35.574219 33.605469 36.351562 C 33.296875 36.917969 32.457031 36.964844 32.207031 36.371094 C 32.050781 35.992188 32 35.570312 32.066406 35.15625 L 32.246094 34.042969 C 32.355469 33.375 33.246094 33.21875 33.570312 33.8125 Z M 33.59375 33.851562 " clip-rule="nonzero"/></clipPath><clipPath id="1cca6a962e"><path d="M 14.699219 17.773438 L 31.738281 17.773438 L 31.738281 40.863281 L 14.699219 40.863281 Z M 14.699219 17.773438 " clip-rule="nonzero"/></clipPath><clipPath id="84084ae6f1"><path d="M 26.550781 27.042969 C 25.59375 25.453125 24.117188 24.226562 22.378906 23.574219 L 15.839844 21.113281 C 15.363281 20.933594 15.011719 20.519531 14.914062 20.019531 L 14.753906 19.199219 C 14.582031 18.3125 15.441406 17.570312 16.292969 17.875 L 23.652344 20.5 C 25.6875 21.230469 27.402344 22.683594 28.453125 24.574219 L 30.808594 28.824219 C 31.0625 29.285156 31.15625 29.828125 31.0625 30.351562 L 30.03125 36.199219 C 29.9375 36.71875 30.046875 37.253906 30.335938 37.695312 L 31.722656 39.828125 C 31.074219 41.019531 29.398438 41.121094 28.617188 40.011719 L 27.605469 38.574219 C 27.300781 38.144531 27.183594 37.613281 27.277344 37.097656 L 28.355469 31.078125 C 28.449219 30.558594 28.347656 30.019531 28.074219 29.570312 Z M 26.550781 27.042969 " clip-rule="nonzero"/></clipPath><clipPath id="1dcd4ffaf7"><path d="M 13.425781 31.789062 L 27.835938 31.789062 L 27.835938 41.261719 L 13.425781 41.261719 Z M 13.425781 31.789062 " clip-rule="nonzero"/></clipPath><clipPath id="8cc7ceefdc"><path d="M 17.898438 34.691406 C 17.511719 34.308594 17.0625 34 16.566406 33.78125 L 13.472656 32.40625 L 14.070312 32.03125 C 14.503906 31.757812 15.050781 31.71875 15.515625 31.929688 L 16.863281 32.527344 C 17.359375 32.746094 17.816406 33.050781 18.203125 33.429688 L 21.660156 36.761719 C 22.050781 37.140625 22.503906 37.449219 23 37.671875 L 26.265625 39.144531 L 27.828125 41.191406 L 22.449219 38.765625 C 21.957031 38.542969 21.503906 38.234375 21.117188 37.851562 Z M 17.898438 34.691406 " clip-rule="nonzero"/></clipPath><clipPath id="271d8fdb41"><path d="M 20.273438 34.015625 L 25.128906 34.015625 L 25.128906 37.601562 L 20.273438 37.601562 Z M 20.273438 34.015625 " clip-rule="nonzero"/></clipPath><clipPath id="de79d421f2"><path d="M 20.277344 34.039062 L 23.441406 35.445312 L 25.066406 37.570312 L 23.378906 36.820312 C 22.886719 36.601562 22.4375 36.285156 22.0625 35.894531 Z M 20.277344 34.039062 " clip-rule="nonzero"/></clipPath><clipPath id="a2ce1fd943"><path d="M 6.976562 30.433594 L 19.476562 30.433594 L 19.476562 37.441406 L 6.976562 37.441406 Z M 6.976562 30.433594 " clip-rule="nonzero"/></clipPath><clipPath id="9a16d0d620"><path d="M 19.429688 37.40625 L 11.855469 33.988281 C 10.078125 33.1875 8.476562 32.039062 7.144531 30.613281 L 6.996094 30.449219 L 15.792969 34.421875 C 16.289062 34.644531 16.746094 34.945312 17.148438 35.3125 Z M 19.429688 37.40625 " clip-rule="nonzero"/></clipPath><clipPath id="b17e23ba5d"><path d="M 4.824219 27.167969 L 22.421875 27.167969 L 22.421875 33.9375 L 4.824219 33.9375 Z M 4.824219 27.167969 " clip-rule="nonzero"/></clipPath><clipPath id="8dae240aab"><path d="M 4.902344 27.214844 L 10.753906 29.8125 C 11.222656 30.019531 11.765625 29.972656 12.1875 29.691406 L 13.191406 29.027344 C 13.617188 28.746094 14.160156 28.695312 14.632812 28.894531 L 18.019531 30.328125 C 19.765625 31.070312 21.273438 32.296875 22.351562 33.863281 L 15.082031 30.683594 C 14.613281 30.476562 14.070312 30.515625 13.632812 30.785156 L 12.738281 31.335938 C 12.304688 31.605469 11.757812 31.640625 11.292969 31.433594 L 6.898438 29.476562 C 6.410156 29.257812 5.992188 28.902344 5.703125 28.453125 Z M 4.902344 27.214844 " clip-rule="nonzero"/></clipPath><clipPath id="768b8f4cf9"><path d="M 2.675781 23.824219 L 12.390625 23.824219 L 12.390625 28.761719 L 2.675781 28.761719 Z M 2.675781 23.824219 " clip-rule="nonzero"/></clipPath><clipPath id="d6150f5e6f"><path d="M 2.726562 23.847656 L 12.359375 27.933594 L 11.664062 28.421875 C 11.25 28.714844 10.707031 28.773438 10.242188 28.566406 L 4.769531 26.175781 C 4.277344 25.960938 3.859375 25.605469 3.570312 25.15625 Z M 2.726562 23.847656 " clip-rule="nonzero"/></clipPath><clipPath id="952c948e8f"><rect x="0" width="42" y="0" height="42"/></clipPath><clipPath id="3f1d7922d4"><path d="M 3.917969 2.484375 L 43 2.484375 L 43 46 L 3.917969 46 Z M 3.917969 2.484375 " clip-rule="nonzero"/></clipPath><clipPath id="ae7b900286"><path d="M 5 4 L 41 4 L 41 26 L 5 26 Z M 5 4 " clip-rule="nonzero"/></clipPath><clipPath id="6503001d28"><path d="M 24.339844 4.390625 L 40.277344 14.976562 L 21.683594 25.558594 L 5.746094 14.976562 Z M 24.339844 4.390625 " clip-rule="nonzero"/></clipPath><linearGradient x1="1.887111" gradientTransform="matrix(1.328081, 0, 0, 1.322941, 1.263266, -11.97984)" y1="15.749963" x2="29.562037" gradientUnits="userSpaceOnUse" y2="27.950737" id="37779eca73"><stop stop-opacity="1" stop-color="rgb(45.098877%, 82.398987%, 8.599854%)" offset="0"/><stop stop-opacity="1" stop-color="rgb(45.098877%, 82.398987%, 8.599854%)" offset="0.125"/><stop stop-opacity="1" stop-color="rgb(45.098877%, 82.398987%, 8.599854%)" offset="0.1875"/><stop stop-opacity="1" stop-color="rgb(45.098877%, 82.398987%, 8.599854%)" offset="0.213403"/><stop stop-opacity="1" stop-color="rgb(45.098877%, 82.398987%, 8.599854%)" offset="0.21875"/><stop stop-opacity="1" stop-color="rgb(44.998169%, 82.217407%, 8.578491%)" offset="0.234375"/><stop stop-opacity="1" stop-color="rgb(44.810486%, 81.880188%, 8.540344%)" offset="0.242188"/><stop stop-opacity="1" stop-color="rgb(44.63501%, 81.565857%, 8.505249%)" offset="0.25"/><stop stop-opacity="1" stop-color="rgb(44.46106%, 81.251526%, 8.470154%)" offset="0.257812"/><stop stop-opacity="1" stop-color="rgb(44.285583%, 80.938721%, 8.435059%)" offset="0.265625"/><stop stop-opacity="1" stop-color="rgb(44.111633%, 80.62439%, 8.398438%)" offset="0.273438"/><stop stop-opacity="1" stop-color="rgb(43.936157%, 80.310059%, 8.363342%)" offset="0.28125"/><stop stop-opacity="1" stop-color="rgb(43.762207%, 79.995728%, 8.328247%)" offset="0.289062"/><stop stop-opacity="1" stop-color="rgb(43.586731%, 79.681396%, 8.293152%)" offset="0.296875"/><stop stop-opacity="1" stop-color="rgb(43.411255%, 79.367065%, 8.258057%)" offset="0.304688"/><stop stop-opacity="1" stop-color="rgb(43.237305%, 79.052734%, 8.222961%)" offset="0.3125"/><stop stop-opacity="1" stop-color="rgb(43.061829%, 78.738403%, 8.18634%)" offset="0.320312"/><stop stop-opacity="1" stop-color="rgb(42.887878%, 78.424072%, 8.151245%)" offset="0.328125"/><stop stop-opacity="1" stop-color="rgb(42.712402%, 78.109741%, 8.11615%)" offset="0.335938"/><stop stop-opacity="1" stop-color="rgb(42.538452%, 77.79541%, 8.081055%)" offset="0.34375"/><stop stop-opacity="1" stop-color="rgb(42.362976%, 77.481079%, 8.045959%)" offset="0.351563"/><stop stop-opacity="1" stop-color="rgb(42.1875%, 77.166748%, 8.010864%)" offset="0.359375"/><stop stop-opacity="1" stop-color="rgb(42.01355%, 76.852417%, 7.974243%)" offset="0.367188"/><stop stop-opacity="1" stop-color="rgb(41.838074%, 76.538086%, 7.939148%)" offset="0.375"/><stop stop-opacity="1" stop-color="rgb(41.664124%, 76.223755%, 7.904053%)" offset="0.382813"/><stop stop-opacity="1" stop-color="rgb(41.488647%, 75.909424%, 7.868958%)" offset="0.390625"/><stop stop-opacity="1" stop-color="rgb(41.314697%, 75.595093%, 7.833862%)" offset="0.398438"/><stop stop-opacity="1" stop-color="rgb(41.139221%, 75.280762%, 7.798767%)" offset="0.40625"/><stop stop-opacity="1" stop-color="rgb(40.963745%, 74.966431%, 7.762146%)" offset="0.414063"/><stop stop-opacity="1" stop-color="rgb(40.789795%, 74.6521%, 7.727051%)" offset="0.421875"/><stop stop-opacity="1" stop-color="rgb(40.614319%, 74.337769%, 7.691956%)" offset="0.429688"/><stop stop-opacity="1" stop-color="rgb(40.440369%, 74.023438%, 7.65686%)" offset="0.4375"/><stop stop-opacity="1" stop-color="rgb(40.264893%, 73.709106%, 7.621765%)" offset="0.445313"/><stop stop-opacity="1" stop-color="rgb(40.089417%, 73.394775%, 7.58667%)" offset="0.453125"/><stop stop-opacity="1" stop-color="rgb(39.915466%, 73.080444%, 7.551575%)" offset="0.460938"/><stop stop-opacity="1" stop-color="rgb(39.73999%, 72.766113%, 7.514954%)" offset="0.46875"/><stop stop-opacity="1" stop-color="rgb(39.56604%, 72.451782%, 7.479858%)" offset="0.476563"/><stop stop-opacity="1" stop-color="rgb(39.390564%, 72.137451%, 7.444763%)" offset="0.484375"/><stop stop-opacity="1" stop-color="rgb(39.216614%, 71.82312%, 7.409668%)" offset="0.492188"/><stop stop-opacity="1" stop-color="rgb(39.041138%, 71.508789%, 7.374573%)" offset="0.5"/><stop stop-opacity="1" stop-color="rgb(38.865662%, 71.194458%, 7.339478%)" offset="0.507813"/><stop stop-opacity="1" stop-color="rgb(38.691711%, 70.880127%, 7.302856%)" offset="0.515625"/><stop stop-opacity="1" stop-color="rgb(38.516235%, 70.565796%, 7.267761%)" offset="0.523438"/><stop stop-opacity="1" stop-color="rgb(38.342285%, 70.251465%, 7.232666%)" offset="0.53125"/><stop stop-opacity="1" stop-color="rgb(38.166809%, 69.937134%, 7.197571%)" offset="0.539062"/><stop stop-opacity="1" stop-color="rgb(37.992859%, 69.622803%, 7.162476%)" offset="0.546875"/><stop stop-opacity="1" stop-color="rgb(37.817383%, 69.308472%, 7.12738%)" offset="0.554688"/><stop stop-opacity="1" stop-color="rgb(37.641907%, 68.994141%, 7.090759%)" offset="0.5625"/><stop stop-opacity="1" stop-color="rgb(37.467957%, 68.67981%, 7.055664%)" offset="0.570313"/><stop stop-opacity="1" stop-color="rgb(37.29248%, 68.365479%, 7.020569%)" offset="0.578125"/><stop stop-opacity="1" stop-color="rgb(37.11853%, 68.051147%, 6.985474%)" offset="0.585938"/><stop stop-opacity="1" stop-color="rgb(36.943054%, 67.736816%, 6.950378%)" offset="0.59375"/><stop stop-opacity="1" stop-color="rgb(36.769104%, 67.422485%, 6.915283%)" offset="0.601563"/><stop stop-opacity="1" stop-color="rgb(36.593628%, 67.108154%, 6.880188%)" offset="0.609375"/><stop stop-opacity="1" stop-color="rgb(36.418152%, 66.793823%, 6.843567%)" offset="0.617188"/><stop stop-opacity="1" stop-color="rgb(36.244202%, 66.479492%, 6.808472%)" offset="0.625"/><stop stop-opacity="1" stop-color="rgb(36.068726%, 66.165161%, 6.773376%)" offset="0.632813"/><stop stop-opacity="1" stop-color="rgb(35.894775%, 65.85083%, 6.738281%)" offset="0.640625"/><stop stop-opacity="1" stop-color="rgb(35.752869%, 65.596008%, 6.70929%)" offset="0.65625"/><stop stop-opacity="1" stop-color="rgb(35.699463%, 65.499878%, 6.698608%)" offset="0.6875"/><stop stop-opacity="1" stop-color="rgb(35.699463%, 65.499878%, 6.698608%)" offset="0.75"/><stop stop-opacity="1" stop-color="rgb(35.699463%, 65.499878%, 6.698608%)" offset="0.786597"/><stop stop-opacity="1" stop-color="rgb(35.699463%, 65.499878%, 6.698608%)" offset="1"/></linearGradient><clipPath id="b767baf4be"><path d="M 45 2.484375 L 83.605469 2.484375 L 83.605469 46 L 45 46 Z M 45 2.484375 " clip-rule="nonzero"/></clipPath><clipPath id="f553296538"><path d="M 47 4 L 82 4 L 82 26 L 47 26 Z M 47 4 " clip-rule="nonzero"/></clipPath><clipPath id="ee107bd757"><path d="M 65.839844 4.390625 L 81.777344 14.976562 L 63.183594 25.558594 L 47.25 14.976562 Z M 65.839844 4.390625 " clip-rule="nonzero"/></clipPath><linearGradient x1="33.86001" gradientTransform="matrix(1.328081, 0, 0, 1.322941, 1.263266, -11.97984)" y1="18.013721" x2="61.521553" gradientUnits="userSpaceOnUse" y2="21.766474" id="a67f92a8f6"><stop stop-opacity="1" stop-color="rgb(93.699646%, 16.099548%, 16.099548%)" offset="0"/><stop stop-opacity="1" stop-color="rgb(93.699646%, 16.099548%, 16.099548%)" offset="0.0770542"/><stop stop-opacity="1" stop-color="rgb(93.699646%, 16.099548%, 16.099548%)" offset="0.25"/><stop stop-opacity="1" stop-color="rgb(93.597412%, 16.047668%, 16.047668%)" offset="0.257812"/><stop stop-opacity="1" stop-color="rgb(93.2724%, 15.881348%, 15.881348%)" offset="0.261719"/><stop stop-opacity="1" stop-color="rgb(93.049622%, 15.766907%, 15.766907%)" offset="0.265625"/><stop stop-opacity="1" stop-color="rgb(92.825317%, 15.652466%, 15.652466%)" offset="0.269531"/><stop stop-opacity="1" stop-color="rgb(92.601013%, 15.538025%, 15.538025%)" offset="0.273438"/><stop stop-opacity="1" stop-color="rgb(92.376709%, 15.422058%, 15.422058%)" offset="0.277344"/><stop stop-opacity="1" stop-color="rgb(92.152405%, 15.307617%, 15.307617%)" offset="0.28125"/><stop stop-opacity="1" stop-color="rgb(91.928101%, 15.193176%, 15.193176%)" offset="0.285156"/><stop stop-opacity="1" stop-color="rgb(91.705322%, 15.078735%, 15.078735%)" offset="0.289062"/><stop stop-opacity="1" stop-color="rgb(91.481018%, 14.964294%, 14.964294%)" offset="0.292969"/><stop stop-opacity="1" stop-color="rgb(91.256714%, 14.849854%, 14.849854%)" offset="0.296875"/><stop stop-opacity="1" stop-color="rgb(91.03241%, 14.735413%, 14.735413%)" offset="0.300781"/><stop stop-opacity="1" stop-color="rgb(90.809631%, 14.620972%, 14.620972%)" offset="0.304688"/><stop stop-opacity="1" stop-color="rgb(90.585327%, 14.506531%, 14.506531%)" offset="0.308594"/><stop stop-opacity="1" stop-color="rgb(90.361023%, 14.39209%, 14.39209%)" offset="0.3125"/><stop stop-opacity="1" stop-color="rgb(90.136719%, 14.276123%, 14.276123%)" offset="0.316406"/><stop stop-opacity="1" stop-color="rgb(89.912415%, 14.161682%, 14.161682%)" offset="0.320312"/><stop stop-opacity="1" stop-color="rgb(89.68811%, 14.047241%, 14.047241%)" offset="0.324219"/><stop stop-opacity="1" stop-color="rgb(89.465332%, 13.9328%, 13.9328%)" offset="0.328125"/><stop stop-opacity="1" stop-color="rgb(89.241028%, 13.818359%, 13.818359%)" offset="0.332031"/><stop stop-opacity="1" stop-color="rgb(89.016724%, 13.703918%, 13.703918%)" offset="0.335938"/><stop stop-opacity="1" stop-color="rgb(88.792419%, 13.589478%, 13.589478%)" offset="0.339844"/><stop stop-opacity="1" stop-color="rgb(88.569641%, 13.475037%, 13.475037%)" offset="0.34375"/><stop stop-opacity="1" stop-color="rgb(88.345337%, 13.35907%, 13.35907%)" offset="0.347656"/><stop stop-opacity="1" stop-color="rgb(88.121033%, 13.244629%, 13.244629%)" offset="0.351562"/><stop stop-opacity="1" stop-color="rgb(87.896729%, 13.130188%, 13.130188%)" offset="0.355469"/><stop stop-opacity="1" stop-color="rgb(87.672424%, 13.015747%, 13.015747%)" offset="0.359375"/><stop stop-opacity="1" stop-color="rgb(87.44812%, 12.901306%, 12.901306%)" offset="0.363281"/><stop stop-opacity="1" stop-color="rgb(87.225342%, 12.786865%, 12.786865%)" offset="0.367188"/><stop stop-opacity="1" stop-color="rgb(87.001038%, 12.672424%, 12.672424%)" offset="0.371094"/><stop stop-opacity="1" stop-color="rgb(86.776733%, 12.557983%, 12.557983%)" offset="0.375"/><stop stop-opacity="1" stop-color="rgb(86.552429%, 12.443542%, 12.443542%)" offset="0.378906"/><stop stop-opacity="1" stop-color="rgb(86.329651%, 12.329102%, 12.329102%)" offset="0.382812"/><stop stop-opacity="1" stop-color="rgb(86.105347%, 12.213135%, 12.213135%)" offset="0.386719"/><stop stop-opacity="1" stop-color="rgb(85.881042%, 12.098694%, 12.098694%)" offset="0.390625"/><stop stop-opacity="1" stop-color="rgb(85.656738%, 11.984253%, 11.984253%)" offset="0.394531"/><stop stop-opacity="1" stop-color="rgb(85.432434%, 11.869812%, 11.869812%)" offset="0.398437"/><stop stop-opacity="1" stop-color="rgb(85.20813%, 11.755371%, 11.755371%)" offset="0.402344"/><stop stop-opacity="1" stop-color="rgb(84.985352%, 11.64093%, 11.64093%)" offset="0.40625"/><stop stop-opacity="1" stop-color="rgb(84.761047%, 11.526489%, 11.526489%)" offset="0.410156"/><stop stop-opacity="1" stop-color="rgb(84.536743%, 11.412048%, 11.412048%)" offset="0.414062"/><stop stop-opacity="1" stop-color="rgb(84.312439%, 11.296082%, 11.296082%)" offset="0.417969"/><stop stop-opacity="1" stop-color="rgb(84.089661%, 11.181641%, 11.181641%)" offset="0.421875"/><stop stop-opacity="1" stop-color="rgb(83.865356%, 11.0672%, 11.0672%)" offset="0.425781"/><stop stop-opacity="1" stop-color="rgb(83.641052%, 10.952759%, 10.952759%)" offset="0.429688"/><stop stop-opacity="1" stop-color="rgb(83.416748%, 10.838318%, 10.838318%)" offset="0.433594"/><stop stop-opacity="1" stop-color="rgb(83.192444%, 10.723877%, 10.723877%)" offset="0.4375"/><stop stop-opacity="1" stop-color="rgb(82.96814%, 10.609436%, 10.609436%)" offset="0.441406"/><stop stop-opacity="1" stop-color="rgb(82.745361%, 10.494995%, 10.494995%)" offset="0.445312"/><stop stop-opacity="1" stop-color="rgb(82.521057%, 10.380554%, 10.380554%)" offset="0.449219"/><stop stop-opacity="1" stop-color="rgb(82.296753%, 10.266113%, 10.266113%)" offset="0.453125"/><stop stop-opacity="1" stop-color="rgb(82.072449%, 10.150146%, 10.150146%)" offset="0.457031"/><stop stop-opacity="1" stop-color="rgb(81.84967%, 10.035706%, 10.035706%)" offset="0.460937"/><stop stop-opacity="1" stop-color="rgb(81.625366%, 9.921265%, 9.921265%)" offset="0.464844"/><stop stop-opacity="1" stop-color="rgb(81.401062%, 9.806824%, 9.806824%)" offset="0.46875"/><stop stop-opacity="1" stop-color="rgb(81.176758%, 9.692383%, 9.692383%)" offset="0.472656"/><stop stop-opacity="1" stop-color="rgb(80.952454%, 9.577942%, 9.577942%)" offset="0.476563"/><stop stop-opacity="1" stop-color="rgb(80.728149%, 9.463501%, 9.463501%)" offset="0.480469"/><stop stop-opacity="1" stop-color="rgb(80.505371%, 9.34906%, 9.34906%)" offset="0.484375"/><stop stop-opacity="1" stop-color="rgb(80.281067%, 9.234619%, 9.234619%)" offset="0.488281"/><stop stop-opacity="1" stop-color="rgb(80.056763%, 9.120178%, 9.120178%)" offset="0.492188"/><stop stop-opacity="1" stop-color="rgb(79.832458%, 9.004211%, 9.004211%)" offset="0.496094"/><stop stop-opacity="1" stop-color="rgb(79.608154%, 8.889771%, 8.889771%)" offset="0.5"/><stop stop-opacity="1" stop-color="rgb(79.38385%, 8.77533%, 8.77533%)" offset="0.503906"/><stop stop-opacity="1" stop-color="rgb(79.161072%, 8.660889%, 8.660889%)" offset="0.507812"/><stop stop-opacity="1" stop-color="rgb(78.936768%, 8.546448%, 8.546448%)" offset="0.511719"/><stop stop-opacity="1" stop-color="rgb(78.712463%, 8.432007%, 8.432007%)" offset="0.515625"/><stop stop-opacity="1" stop-color="rgb(78.488159%, 8.317566%, 8.317566%)" offset="0.519531"/><stop stop-opacity="1" stop-color="rgb(78.265381%, 8.203125%, 8.203125%)" offset="0.523438"/><stop stop-opacity="1" stop-color="rgb(78.041077%, 8.087158%, 8.087158%)" offset="0.527344"/><stop stop-opacity="1" stop-color="rgb(77.816772%, 7.972717%, 7.972717%)" offset="0.53125"/><stop stop-opacity="1" stop-color="rgb(77.592468%, 7.858276%, 7.858276%)" offset="0.535156"/><stop stop-opacity="1" stop-color="rgb(77.368164%, 7.743835%, 7.743835%)" offset="0.539062"/><stop stop-opacity="1" stop-color="rgb(77.14386%, 7.629395%, 7.629395%)" offset="0.542969"/><stop stop-opacity="1" stop-color="rgb(76.921082%, 7.514954%, 7.514954%)" offset="0.546875"/><stop stop-opacity="1" stop-color="rgb(76.696777%, 7.400513%, 7.400513%)" offset="0.550781"/><stop stop-opacity="1" stop-color="rgb(76.472473%, 7.286072%, 7.286072%)" offset="0.554688"/><stop stop-opacity="1" stop-color="rgb(76.248169%, 7.171631%, 7.171631%)" offset="0.558594"/><stop stop-opacity="1" stop-color="rgb(76.025391%, 7.05719%, 7.05719%)" offset="0.5625"/><stop stop-opacity="1" stop-color="rgb(75.801086%, 6.941223%, 6.941223%)" offset="0.566406"/><stop stop-opacity="1" stop-color="rgb(75.576782%, 6.826782%, 6.826782%)" offset="0.570312"/><stop stop-opacity="1" stop-color="rgb(75.352478%, 6.712341%, 6.712341%)" offset="0.574219"/><stop stop-opacity="1" stop-color="rgb(75.128174%, 6.5979%, 6.5979%)" offset="0.578125"/><stop stop-opacity="1" stop-color="rgb(74.90387%, 6.483459%, 6.483459%)" offset="0.582031"/><stop stop-opacity="1" stop-color="rgb(74.681091%, 6.369019%, 6.369019%)" offset="0.585938"/><stop stop-opacity="1" stop-color="rgb(74.456787%, 6.254578%, 6.254578%)" offset="0.589844"/><stop stop-opacity="1" stop-color="rgb(74.232483%, 6.140137%, 6.140137%)" offset="0.59375"/><stop stop-opacity="1" stop-color="rgb(74.008179%, 6.02417%, 6.02417%)" offset="0.597656"/><stop stop-opacity="1" stop-color="rgb(73.7854%, 5.909729%, 5.909729%)" offset="0.601562"/><stop stop-opacity="1" stop-color="rgb(73.561096%, 5.795288%, 5.795288%)" offset="0.605469"/><stop stop-opacity="1" stop-color="rgb(73.336792%, 5.680847%, 5.680847%)" offset="0.609375"/><stop stop-opacity="1" stop-color="rgb(73.112488%, 5.566406%, 5.566406%)" offset="0.613281"/><stop stop-opacity="1" stop-color="rgb(72.888184%, 5.451965%, 5.451965%)" offset="0.617188"/><stop stop-opacity="1" stop-color="rgb(72.663879%, 5.337524%, 5.337524%)" offset="0.621094"/><stop stop-opacity="1" stop-color="rgb(72.441101%, 5.223083%, 5.223083%)" offset="0.625"/><stop stop-opacity="1" stop-color="rgb(72.319031%, 5.160522%, 5.160522%)" offset="0.75"/><stop stop-opacity="1" stop-color="rgb(72.198486%, 5.099487%, 5.099487%)" offset="0.922946"/><stop stop-opacity="1" stop-color="rgb(72.198486%, 5.099487%, 5.099487%)" offset="1"/></linearGradient><clipPath id="bc04c68e1e"><path d="M 23 23 L 62 23 L 62 67.273438 L 23 67.273438 Z M 23 23 " clip-rule="nonzero"/></clipPath><clipPath id="45916d8da7"><path d="M 25 25 L 60 25 L 60 47 L 25 47 Z M 25 25 " clip-rule="nonzero"/></clipPath><clipPath id="8fd2b9e873"><path d="M 43.628906 25.558594 L 59.566406 36.140625 L 40.972656 46.726562 L 25.039062 36.140625 Z M 43.628906 25.558594 " clip-rule="nonzero"/></clipPath><linearGradient x1="17.103624" gradientTransform="matrix(1.328081, 0, 0, 1.322941, 1.263266, -11.97984)" y1="33.833956" x2="44.84874" gradientUnits="userSpaceOnUse" y2="37.886614" id="11d8bb4646"><stop stop-opacity="1" stop-color="rgb(96.099854%, 47.499084%, 0%)" offset="0"/><stop stop-opacity="1" stop-color="rgb(96.099854%, 47.499084%, 0%)" offset="0.0824742"/><stop stop-opacity="1" stop-color="rgb(96.099854%, 47.499084%, 0%)" offset="0.125"/><stop stop-opacity="1" stop-color="rgb(96.099854%, 47.499084%, 0%)" offset="0.1875"/><stop stop-opacity="1" stop-color="rgb(96.099854%, 47.499084%, 0%)" offset="0.21875"/><stop stop-opacity="1" stop-color="rgb(95.906067%, 47.399902%, 0%)" offset="0.234375"/><stop stop-opacity="1" stop-color="rgb(95.533752%, 47.209167%, 0%)" offset="0.242188"/><stop stop-opacity="1" stop-color="rgb(95.173645%, 47.02301%, 0%)" offset="0.25"/><stop stop-opacity="1" stop-color="rgb(94.813538%, 46.838379%, 0%)" offset="0.257813"/><stop stop-opacity="1" stop-color="rgb(94.45343%, 46.653748%, 0%)" offset="0.265625"/><stop stop-opacity="1" stop-color="rgb(94.091797%, 46.46759%, 0%)" offset="0.273438"/><stop stop-opacity="1" stop-color="rgb(93.731689%, 46.282959%, 0%)" offset="0.28125"/><stop stop-opacity="1" stop-color="rgb(93.371582%, 46.098328%, 0%)" offset="0.289062"/><stop stop-opacity="1" stop-color="rgb(93.011475%, 45.91217%, 0%)" offset="0.296875"/><stop stop-opacity="1" stop-color="rgb(92.649841%, 45.727539%, 0%)" offset="0.304688"/><stop stop-opacity="1" stop-color="rgb(92.289734%, 45.542908%, 0%)" offset="0.3125"/><stop stop-opacity="1" stop-color="rgb(91.929626%, 45.358276%, 0%)" offset="0.320313"/><stop stop-opacity="1" stop-color="rgb(91.569519%, 45.172119%, 0%)" offset="0.328125"/><stop stop-opacity="1" stop-color="rgb(91.207886%, 44.987488%, 0%)" offset="0.335938"/><stop stop-opacity="1" stop-color="rgb(90.847778%, 44.802856%, 0%)" offset="0.34375"/><stop stop-opacity="1" stop-color="rgb(90.487671%, 44.616699%, 0%)" offset="0.351563"/><stop stop-opacity="1" stop-color="rgb(90.127563%, 44.432068%, 0%)" offset="0.359375"/><stop stop-opacity="1" stop-color="rgb(89.767456%, 44.247437%, 0%)" offset="0.367188"/><stop stop-opacity="1" stop-color="rgb(89.405823%, 44.061279%, 0%)" offset="0.375"/><stop stop-opacity="1" stop-color="rgb(89.045715%, 43.876648%, 0%)" offset="0.382813"/><stop stop-opacity="1" stop-color="rgb(88.685608%, 43.692017%, 0%)" offset="0.390625"/><stop stop-opacity="1" stop-color="rgb(88.3255%, 43.507385%, 0%)" offset="0.398438"/><stop stop-opacity="1" stop-color="rgb(87.963867%, 43.321228%, 0%)" offset="0.40625"/><stop stop-opacity="1" stop-color="rgb(87.60376%, 43.136597%, 0%)" offset="0.414063"/><stop stop-opacity="1" stop-color="rgb(87.243652%, 42.951965%, 0%)" offset="0.421875"/><stop stop-opacity="1" stop-color="rgb(86.883545%, 42.765808%, 0%)" offset="0.429688"/><stop stop-opacity="1" stop-color="rgb(86.523438%, 42.581177%, 0%)" offset="0.4375"/><stop stop-opacity="1" stop-color="rgb(86.161804%, 42.396545%, 0%)" offset="0.445312"/><stop stop-opacity="1" stop-color="rgb(85.801697%, 42.210388%, 0%)" offset="0.453125"/><stop stop-opacity="1" stop-color="rgb(85.441589%, 42.025757%, 0%)" offset="0.460938"/><stop stop-opacity="1" stop-color="rgb(85.081482%, 41.841125%, 0%)" offset="0.46875"/><stop stop-opacity="1" stop-color="rgb(84.719849%, 41.654968%, 0%)" offset="0.476563"/><stop stop-opacity="1" stop-color="rgb(84.359741%, 41.470337%, 0%)" offset="0.484375"/><stop stop-opacity="1" stop-color="rgb(83.999634%, 41.285706%, 0%)" offset="0.492188"/><stop stop-opacity="1" stop-color="rgb(83.639526%, 41.101074%, 0%)" offset="0.5"/><stop stop-opacity="1" stop-color="rgb(83.279419%, 40.914917%, 0%)" offset="0.507813"/><stop stop-opacity="1" stop-color="rgb(82.917786%, 40.730286%, 0%)" offset="0.515625"/><stop stop-opacity="1" stop-color="rgb(82.557678%, 40.545654%, 0%)" offset="0.523438"/><stop stop-opacity="1" stop-color="rgb(82.197571%, 40.359497%, 0%)" offset="0.53125"/><stop stop-opacity="1" stop-color="rgb(81.837463%, 40.174866%, 0%)" offset="0.539062"/><stop stop-opacity="1" stop-color="rgb(81.47583%, 39.990234%, 0%)" offset="0.546875"/><stop stop-opacity="1" stop-color="rgb(81.115723%, 39.804077%, 0%)" offset="0.554688"/><stop stop-opacity="1" stop-color="rgb(80.755615%, 39.619446%, 0%)" offset="0.5625"/><stop stop-opacity="1" stop-color="rgb(80.395508%, 39.434814%, 0%)" offset="0.570312"/><stop stop-opacity="1" stop-color="rgb(80.033875%, 39.248657%, 0%)" offset="0.578125"/><stop stop-opacity="1" stop-color="rgb(79.673767%, 39.064026%, 0%)" offset="0.585938"/><stop stop-opacity="1" stop-color="rgb(79.31366%, 38.879395%, 0%)" offset="0.59375"/><stop stop-opacity="1" stop-color="rgb(78.953552%, 38.694763%, 0%)" offset="0.601563"/><stop stop-opacity="1" stop-color="rgb(78.593445%, 38.508606%, 0%)" offset="0.609375"/><stop stop-opacity="1" stop-color="rgb(78.231812%, 38.323975%, 0%)" offset="0.617188"/><stop stop-opacity="1" stop-color="rgb(77.871704%, 38.139343%, 0%)" offset="0.625"/><stop stop-opacity="1" stop-color="rgb(77.644348%, 38.021851%, 0%)" offset="0.75"/><stop stop-opacity="1" stop-color="rgb(77.598572%, 37.998962%, 0%)" offset="0.917526"/><stop stop-opacity="1" stop-color="rgb(77.598572%, 37.998962%, 0%)" offset="1"/></linearGradient></defs><g mask="url(#8cb04d3b90)"><g transform="matrix(1, 0, 0, 1, 23, 14)"><g clip-path="url(#952c948e8f)"><g clip-path="url(#ea824a9343)"><g clip-path="url(#49ecfc33ba)"><path fill="#f266ff" d="M 0.128906 0.414062 L 41.375 0.414062 L 41.375 41.582031 L 0.128906 41.582031 Z M 0.128906 0.414062 " fill-opacity="1" fill-rule="nonzero"/></g></g><g clip-path="url(#0a08d26cac)"><g clip-path="url(#7a9865e4ef)"><path fill="#ff637e" d="M 0.128906 0.414062 L 41.375 0.414062 L 41.375 41.582031 L 0.128906 41.582031 Z M 0.128906 0.414062 " fill-opacity="1" fill-rule="nonzero"/></g></g><g clip-path="url(#08b30ca4e3)"><g clip-path="url(#6b0021e1f3)"><path fill="#00d7be" d="M 0.128906 0.414062 L 41.375 0.414062 L 41.375 41.582031 L 0.128906 41.582031 Z M 0.128906 0.414062 " fill-opacity="1" fill-rule="nonzero"/></g></g><g clip-path="url(#b43cd3f188)"><g clip-path="url(#b8e6eb1eac)"><path fill="#1f93ff" d="M 0.128906 0.414062 L 41.375 0.414062 L 41.375 41.582031 L 0.128906 41.582031 Z M 0.128906 0.414062 " fill-opacity="1" fill-rule="nonzero"/></g></g><g clip-path="url(#93714c11e9)"><g clip-path="url(#8347563c10)"><path fill="#ffd500" d="M 0.128906 0.414062 L 41.375 0.414062 L 41.375 41.582031 L 0.128906 41.582031 Z M 0.128906 0.414062 " fill-opacity="1" fill-rule="nonzero"/></g></g><g clip-path="url(#f2894b2e53)"><g clip-path="url(#92d56db84c)"><path fill="#1f93ff" d="M 0.128906 0.414062 L 41.375 0.414062 L 41.375 41.582031 L 0.128906 41.582031 Z M 0.128906 0.414062 " fill-opacity="1" fill-rule="nonzero"/></g></g><g clip-path="url(#cb13b88be9)"><g clip-path="url(#9627355b44)"><path fill="#f266ff" d="M 0.128906 0.414062 L 41.375 0.414062 L 41.375 41.582031 L 0.128906 41.582031 Z M 0.128906 0.414062 " fill-opacity="1" fill-rule="nonzero"/></g></g><g clip-path="url(#f3fc3b5e02)"><g clip-path="url(#d0c7218ffe)"><path fill="#1f93ff" d="M 0.128906 0.414062 L 41.375 0.414062 L 41.375 41.582031 L 0.128906 41.582031 Z M 0.128906 0.414062 " fill-opacity="1" fill-rule="nonzero"/></g></g><g clip-path="url(#1cca6a962e)"><g clip-path="url(#84084ae6f1)"><path fill="#ffcf00" d="M 0.128906 0.414062 L 41.375 0.414062 L 41.375 41.582031 L 0.128906 41.582031 Z M 0.128906 0.414062 " fill-opacity="1" fill-rule="nonzero"/></g></g><g clip-path="url(#1dcd4ffaf7)"><g clip-path="url(#8cc7ceefdc)"><path fill="#61d742" d="M 0.128906 0.414062 L 41.375 0.414062 L 41.375 41.582031 L 0.128906 41.582031 Z M 0.128906 0.414062 " fill-opacity="1" fill-rule="nonzero"/></g></g><g clip-path="url(#271d8fdb41)"><g clip-path="url(#de79d421f2)"><path fill="#1f93ff" d="M 0.128906 0.414062 L 41.375 0.414062 L 41.375 41.582031 L 0.128906 41.582031 Z M 0.128906 0.414062 " fill-opacity="1" fill-rule="nonzero"/></g></g><g clip-path="url(#a2ce1fd943)"><g clip-path="url(#9a16d0d620)"><path fill="#1f93ff" d="M 0.128906 0.414062 L 41.375 0.414062 L 41.375 41.582031 L 0.128906 41.582031 Z M 0.128906 0.414062 " fill-opacity="1" fill-rule="nonzero"/></g></g><g clip-path="url(#b17e23ba5d)"><g clip-path="url(#8dae240aab)"><path fill="#ff7a78" d="M 0.128906 0.414062 L 41.375 0.414062 L 41.375 41.582031 L 0.128906 41.582031 Z M 0.128906 0.414062 " fill-opacity="1" fill-rule="nonzero"/></g></g><g clip-path="url(#768b8f4cf9)"><g clip-path="url(#d6150f5e6f)"><path fill="#ffcf00" d="M 0.128906 0.414062 L 41.375 0.414062 L 41.375 41.582031 L 0.128906 41.582031 Z M 0.128906 0.414062 " fill-opacity="1" fill-rule="nonzero"/></g></g></g></g></g><g clip-path="url(#3f1d7922d4)"><path fill="#315b09" d="M 24.132812 2.574219 C 23.882812 2.605469 23.640625 2.691406 23.425781 2.820312 L 4.832031 13.402344 C 4.269531 13.726562 3.921875 14.328125 3.917969 14.976562 L 3.917969 33.496094 C 3.917969 34.113281 4.230469 34.691406 4.75 35.027344 L 20.6875 45.609375 C 21.265625 45.980469 22.003906 45.996094 22.59375 45.652344 L 41.1875 35.066406 C 41.753906 34.742188 42.101562 34.144531 42.101562 33.496094 L 42.101562 14.976562 C 42.105469 14.359375 41.792969 13.78125 41.273438 13.445312 L 25.335938 2.863281 C 24.980469 2.628906 24.554688 2.527344 24.132812 2.574219 Z M 24.132812 2.574219 " fill-opacity="1" fill-rule="nonzero"/></g><path fill="#8ae234" d="M 5.746094 14.976562 L 21.683594 25.558594 L 21.683594 44.078125 L 5.746094 33.496094 Z M 5.746094 14.976562 " fill-opacity="1" fill-rule="nonzero"/><g clip-path="url(#ae7b900286)"><g clip-path="url(#6503001d28)"><path fill="url(#37779eca73)" d="M 5.746094 4.390625 L 5.746094 25.558594 L 40.277344 25.558594 L 40.277344 4.390625 Z M 5.746094 4.390625 " fill-rule="nonzero"/></g></g><path fill="#4e9a06" d="M 40.277344 14.976562 L 40.277344 33.496094 L 21.683594 44.078125 L 21.683594 25.558594 Z M 40.277344 14.976562 " fill-opacity="1" fill-rule="nonzero"/><g clip-path="url(#b767baf4be)"><path fill="#640000" d="M 65.632812 2.574219 C 65.382812 2.605469 65.144531 2.691406 64.929688 2.820312 L 46.335938 13.402344 C 45.769531 13.726562 45.421875 14.328125 45.421875 14.976562 L 45.421875 33.496094 C 45.417969 34.113281 45.734375 34.691406 46.253906 35.027344 L 62.1875 45.609375 C 62.765625 45.980469 63.503906 45.996094 64.097656 45.652344 L 82.691406 35.066406 C 83.253906 34.742188 83.601562 34.144531 83.605469 33.496094 L 83.605469 14.976562 C 83.605469 14.359375 83.292969 13.78125 82.773438 13.445312 L 66.835938 2.863281 C 66.480469 2.628906 66.054688 2.527344 65.632812 2.574219 Z M 65.632812 2.574219 " fill-opacity="1" fill-rule="nonzero"/></g><path fill="#cc0000" d="M 47.25 14.976562 L 63.183594 25.558594 L 63.183594 44.078125 L 47.25 33.496094 Z M 47.25 14.976562 " fill-opacity="1" fill-rule="nonzero"/><g clip-path="url(#f553296538)"><g clip-path="url(#ee107bd757)"><path fill="url(#a67f92a8f6)" d="M 47.25 4.390625 L 47.25 25.558594 L 81.777344 25.558594 L 81.777344 4.390625 Z M 47.25 4.390625 " fill-rule="nonzero"/></g></g><path fill="#a40000" d="M 81.777344 14.976562 L 81.777344 33.496094 L 63.183594 44.078125 L 63.183594 25.558594 Z M 81.777344 14.976562 " fill-opacity="1" fill-rule="nonzero"/><g clip-path="url(#bc04c68e1e)"><path fill="#6e3600" d="M 43.421875 23.738281 C 43.171875 23.773438 42.933594 23.855469 42.71875 23.988281 L 24.125 34.570312 C 23.558594 34.894531 23.210938 35.492188 23.210938 36.140625 L 23.210938 54.664062 C 23.210938 55.28125 23.523438 55.855469 24.042969 56.191406 L 39.976562 66.777344 C 40.554688 67.148438 41.292969 67.164062 41.886719 66.816406 L 60.480469 56.234375 C 61.042969 55.910156 61.390625 55.3125 61.394531 54.664062 L 61.394531 36.140625 C 61.394531 35.523438 61.082031 34.949219 60.5625 34.613281 L 44.625 24.027344 C 44.269531 23.796875 43.84375 23.691406 43.421875 23.738281 Z M 43.421875 23.738281 " fill-opacity="1" fill-rule="nonzero"/></g><path fill="#fcaf3e" d="M 25.039062 36.140625 L 40.972656 46.726562 L 40.972656 65.246094 L 25.039062 54.664062 Z M 25.039062 36.140625 " fill-opacity="1" fill-rule="nonzero"/><g clip-path="url(#45916d8da7)"><g clip-path="url(#8fd2b9e873)"><path fill="url(#11d8bb4646)" d="M 25.039062 25.558594 L 25.039062 46.726562 L 59.566406 46.726562 L 59.566406 25.558594 Z M 25.039062 25.558594 " fill-rule="nonzero"/></g></g><path fill="#b65100" d="M 59.566406 36.140625 L 59.566406 54.664062 L 40.972656 65.246094 L 40.972656 46.726562 Z M 59.566406 36.140625 " fill-opacity="1" fill-rule="nonzero"/></svg>