<svg xmlns="http://www.w3.org/2000/svg" xmlns:xlink="http://www.w3.org/1999/xlink" width="117" zoomAndPan="magnify" viewBox="0 0 87.75 70.499998" height="94" preserveAspectRatio="xMidYMid meet" version="1.0"><defs><filter x="0%" y="0%" width="100%" height="100%" id="ed7fce998b"><feColorMatrix values="0 0 0 0 1 0 0 0 0 1 0 0 0 0 1 0 0 0 1 0" color-interpolation-filters="sRGB"/></filter><mask id="6ff605e586"><g filter="url(#ed7fce998b)"><rect x="-8.775" width="105.3" fill="#000000" y="-7.05" height="84.599998" fill-opacity="0.13"/></g></mask><clipPath id="56c711e49d"><path d="M 12 0.8125 L 22 0.8125 L 22 4.554688 L 12 4.554688 Z M 12 0.8125 " clip-rule="nonzero"/></clipPath><clipPath id="e7434258e4"><path d="M 12.011719 2.527344 C 12.957031 1.15625 14.671875 0.519531 16.28125 0.941406 L 21.402344 2.285156 C 22.09375 2.464844 22.191406 3.402344 21.554688 3.726562 L 20.429688 4.292969 C 19.957031 4.527344 19.414062 4.582031 18.90625 4.441406 Z M 12.011719 2.527344 " clip-rule="nonzero"/></clipPath><clipPath id="166a45cb6e"><path d="M 24.8125 15.703125 L 36.515625 15.703125 L 36.515625 32.183594 L 24.8125 32.183594 Z M 24.8125 15.703125 " clip-rule="nonzero"/></clipPath><clipPath id="27c5e612ff"><path d="M 25.980469 16.210938 C 27.027344 15.707031 27.984375 15.582031 28.734375 16.023438 C 29.777344 16.636719 30.621094 17.566406 31.148438 18.675781 L 36.175781 29.261719 C 36.550781 30.046875 36.523438 30.964844 36.109375 31.730469 C 35.832031 32.246094 35.085938 32.238281 34.816406 31.714844 L 29.632812 21.664062 C 28.789062 20.027344 27.339844 18.777344 25.597656 18.183594 L 25.464844 18.136719 C 24.738281 17.890625 24.664062 16.890625 25.347656 16.535156 Z M 25.980469 16.210938 " clip-rule="nonzero"/></clipPath><clipPath id="8755c70baa"><path d="M 6.417969 9.332031 L 41 9.332031 L 41 24.0625 L 6.417969 24.0625 Z M 6.417969 9.332031 " clip-rule="nonzero"/></clipPath><clipPath id="e6b165ad8d"><path d="M 6.695312 10.230469 C 7.195312 9.507812 8.113281 9.195312 8.949219 9.464844 L 19.070312 12.734375 C 19.570312 12.894531 20.117188 12.859375 20.589844 12.632812 L 26.546875 9.769531 C 27.023438 9.539062 27.566406 9.496094 28.074219 9.640625 L 29.445312 10.042969 C 31.730469 10.707031 33.597656 12.390625 34.5 14.59375 L 35.402344 16.800781 C 35.585938 17.253906 36.042969 17.542969 36.53125 17.519531 L 39.121094 17.394531 C 39.605469 17.371094 40.050781 17.671875 40.210938 18.132812 L 40.660156 19.421875 C 41.1875 20.941406 41.050781 22.621094 40.285156 24.035156 L 38.890625 20.375 C 38.714844 19.917969 38.265625 19.621094 37.777344 19.636719 L 34.890625 19.734375 C 34.394531 19.75 33.9375 19.464844 33.738281 19.011719 L 32.609375 16.464844 C 31.871094 14.800781 30.441406 13.527344 28.699219 12.992188 L 27.332031 12.570312 L 20.390625 15.808594 C 19.914062 16.027344 19.367188 16.058594 18.867188 15.890625 L 7.257812 11.929688 C 6.550781 11.691406 6.273438 10.84375 6.695312 10.230469 " clip-rule="nonzero"/></clipPath><clipPath id="4d30cdfb46"><path d="M 9.601562 3.757812 L 38.746094 3.757812 L 38.746094 15.625 L 9.601562 15.625 Z M 9.601562 3.757812 " clip-rule="nonzero"/></clipPath><clipPath id="f49d3b0d22"><path d="M 38.640625 13.625 C 39.003906 14.664062 38.289062 15.964844 37.316406 15.449219 C 37.074219 15.324219 36.882812 15.113281 36.78125 14.847656 L 35.484375 11.441406 C 34.839844 9.757812 33.429688 8.46875 31.691406 7.988281 L 27.773438 6.898438 C 27.265625 6.757812 26.71875 6.804688 26.242188 7.03125 L 20.3125 9.828125 C 19.839844 10.054688 19.289062 10.09375 18.789062 9.9375 L 10.355469 7.339844 C 9.675781 7.128906 9.394531 6.320312 9.796875 5.734375 C 10.285156 5.03125 11.171875 4.714844 11.992188 4.953125 L 18.652344 6.898438 C 19.160156 7.042969 19.703125 7 20.179688 6.769531 L 25.886719 4.007812 C 26.363281 3.777344 26.910156 3.726562 27.421875 3.859375 L 32.375 5.15625 C 34.652344 5.753906 36.492188 7.457031 37.265625 9.679688 Z M 38.640625 13.625 " clip-rule="nonzero"/></clipPath><clipPath id="bb77610bab"><path d="M 34.84375 21.515625 L 38.90625 21.515625 L 38.90625 27.648438 L 34.84375 27.648438 Z M 34.84375 21.515625 " clip-rule="nonzero"/></clipPath><clipPath id="3408c7c4de"><path d="M 36.496094 21.527344 C 36.984375 21.503906 37.441406 21.792969 37.625 22.25 L 38.675781 24.820312 C 38.996094 25.605469 38.949219 26.5 38.542969 27.242188 C 38.28125 27.726562 37.582031 27.699219 37.359375 27.195312 L 34.882812 21.601562 Z M 36.496094 21.527344 " clip-rule="nonzero"/></clipPath><clipPath id="f77a372550"><path d="M 0.527344 18.332031 L 6.578125 18.332031 L 6.578125 23.507812 L 0.527344 23.507812 Z M 0.527344 18.332031 " clip-rule="nonzero"/></clipPath><clipPath id="fdc1347c47"><path d="M 0.949219 18.554688 L 1.074219 18.375 L 5.4375 20.089844 C 5.910156 20.277344 6.257812 20.699219 6.351562 21.199219 L 6.53125 22.132812 C 6.695312 23 5.828125 23.703125 5.015625 23.363281 L 2 22.117188 C 0.597656 21.535156 0.0859375 19.808594 0.949219 18.554688 " clip-rule="nonzero"/></clipPath><clipPath id="431ed1ed65"><path d="M 3.234375 14 L 26.324219 14 L 26.324219 35.929688 L 3.234375 35.929688 Z M 3.234375 14 " clip-rule="nonzero"/></clipPath><clipPath id="770c3d4263"><path d="M 3.488281 14.875 C 4 14.132812 4.953125 13.824219 5.804688 14.128906 L 10.621094 15.847656 C 11.097656 16.019531 11.457031 16.429688 11.558594 16.929688 L 12.628906 22.183594 C 12.730469 22.683594 13.082031 23.101562 13.558594 23.285156 L 20.6875 26.09375 C 22.523438 26.816406 24.09375 28.097656 25.167969 29.75 L 25.992188 31.019531 C 26.28125 31.460938 26.386719 32 26.289062 32.515625 L 25.652344 35.851562 L 23.355469 32.613281 C 22.273438 31.085938 20.773438 29.890625 19.039062 29.171875 L 10.574219 25.667969 C 10.105469 25.472656 9.761719 25.046875 9.671875 24.546875 L 8.707031 19.183594 C 8.617188 18.683594 8.269531 18.265625 7.792969 18.085938 L 4.054688 16.679688 C 3.324219 16.402344 3.046875 15.519531 3.488281 14.875 " clip-rule="nonzero"/></clipPath><clipPath id="cd0a3f8a46"><path d="M 32 33.378906 L 33.96875 33.378906 L 33.96875 36.804688 L 32 36.804688 Z M 32 33.378906 " clip-rule="nonzero"/></clipPath><clipPath id="5d17969b85"><path d="M 33.59375 33.851562 C 34.023438 34.625 34.027344 35.574219 33.605469 36.351562 C 33.296875 36.917969 32.457031 36.964844 32.207031 36.371094 C 32.050781 35.992188 32 35.570312 32.066406 35.15625 L 32.246094 34.042969 C 32.355469 33.375 33.246094 33.21875 33.570312 33.8125 Z M 33.59375 33.851562 " clip-rule="nonzero"/></clipPath><clipPath id="e0040840f9"><path d="M 14.699219 17.773438 L 31.738281 17.773438 L 31.738281 40.863281 L 14.699219 40.863281 Z M 14.699219 17.773438 " clip-rule="nonzero"/></clipPath><clipPath id="21264c1f59"><path d="M 26.550781 27.042969 C 25.59375 25.453125 24.117188 24.226562 22.378906 23.574219 L 15.839844 21.113281 C 15.363281 20.933594 15.011719 20.519531 14.914062 20.019531 L 14.753906 19.199219 C 14.582031 18.3125 15.441406 17.570312 16.292969 17.875 L 23.652344 20.5 C 25.6875 21.230469 27.402344 22.683594 28.453125 24.574219 L 30.808594 28.824219 C 31.0625 29.285156 31.15625 29.828125 31.0625 30.351562 L 30.03125 36.199219 C 29.9375 36.71875 30.046875 37.253906 30.335938 37.695312 L 31.722656 39.828125 C 31.074219 41.019531 29.398438 41.121094 28.617188 40.011719 L 27.605469 38.574219 C 27.300781 38.144531 27.183594 37.613281 27.277344 37.097656 L 28.355469 31.078125 C 28.449219 30.558594 28.347656 30.019531 28.074219 29.570312 Z M 26.550781 27.042969 " clip-rule="nonzero"/></clipPath><clipPath id="e7c7104456"><path d="M 13.425781 31.789062 L 27.835938 31.789062 L 27.835938 41.261719 L 13.425781 41.261719 Z M 13.425781 31.789062 " clip-rule="nonzero"/></clipPath><clipPath id="a3db2e9df9"><path d="M 17.898438 34.691406 C 17.511719 34.308594 17.0625 34 16.566406 33.78125 L 13.472656 32.40625 L 14.070312 32.03125 C 14.503906 31.757812 15.050781 31.71875 15.515625 31.929688 L 16.863281 32.527344 C 17.359375 32.746094 17.816406 33.050781 18.203125 33.429688 L 21.660156 36.761719 C 22.050781 37.140625 22.503906 37.449219 23 37.671875 L 26.265625 39.144531 L 27.828125 41.191406 L 22.449219 38.765625 C 21.957031 38.542969 21.503906 38.234375 21.117188 37.851562 Z M 17.898438 34.691406 " clip-rule="nonzero"/></clipPath><clipPath id="f6de56d346"><path d="M 20.273438 34.015625 L 25.128906 34.015625 L 25.128906 37.601562 L 20.273438 37.601562 Z M 20.273438 34.015625 " clip-rule="nonzero"/></clipPath><clipPath id="27b102042c"><path d="M 20.277344 34.039062 L 23.441406 35.445312 L 25.066406 37.570312 L 23.378906 36.820312 C 22.886719 36.601562 22.4375 36.285156 22.0625 35.894531 Z M 20.277344 34.039062 " clip-rule="nonzero"/></clipPath><clipPath id="ced0ccd4dd"><path d="M 6.976562 30.433594 L 19.476562 30.433594 L 19.476562 37.441406 L 6.976562 37.441406 Z M 6.976562 30.433594 " clip-rule="nonzero"/></clipPath><clipPath id="49f90fa739"><path d="M 19.429688 37.40625 L 11.855469 33.988281 C 10.078125 33.1875 8.476562 32.039062 7.144531 30.613281 L 6.996094 30.449219 L 15.792969 34.421875 C 16.289062 34.644531 16.746094 34.945312 17.148438 35.3125 Z M 19.429688 37.40625 " clip-rule="nonzero"/></clipPath><clipPath id="6a5efff388"><path d="M 4.824219 27.167969 L 22.421875 27.167969 L 22.421875 33.9375 L 4.824219 33.9375 Z M 4.824219 27.167969 " clip-rule="nonzero"/></clipPath><clipPath id="70b68350d3"><path d="M 4.902344 27.214844 L 10.753906 29.8125 C 11.222656 30.019531 11.765625 29.972656 12.1875 29.691406 L 13.191406 29.027344 C 13.617188 28.746094 14.160156 28.695312 14.632812 28.894531 L 18.019531 30.328125 C 19.765625 31.070312 21.273438 32.296875 22.351562 33.863281 L 15.082031 30.683594 C 14.613281 30.476562 14.070312 30.515625 13.632812 30.785156 L 12.738281 31.335938 C 12.304688 31.605469 11.757812 31.640625 11.292969 31.433594 L 6.898438 29.476562 C 6.410156 29.257812 5.992188 28.902344 5.703125 28.453125 Z M 4.902344 27.214844 " clip-rule="nonzero"/></clipPath><clipPath id="7adbdb6460"><path d="M 2.675781 23.824219 L 12.390625 23.824219 L 12.390625 28.761719 L 2.675781 28.761719 Z M 2.675781 23.824219 " clip-rule="nonzero"/></clipPath><clipPath id="6c992730dc"><path d="M 2.726562 23.847656 L 12.359375 27.933594 L 11.664062 28.421875 C 11.25 28.714844 10.707031 28.773438 10.242188 28.566406 L 4.769531 26.175781 C 4.277344 25.960938 3.859375 25.605469 3.570312 25.15625 Z M 2.726562 23.847656 " clip-rule="nonzero"/></clipPath><clipPath id="c0e99df16f"><rect x="0" width="42" y="0" height="42"/></clipPath><clipPath id="ae18bf2636"><path d="M 1.574219 12.277344 L 85.726562 12.277344 L 85.726562 57.707031 L 1.574219 57.707031 Z M 1.574219 12.277344 " clip-rule="nonzero"/></clipPath></defs><g mask="url(#6ff605e586)"><g transform="matrix(1, 0, 0, 1, 23, 14)"><g clip-path="url(#c0e99df16f)"><g clip-path="url(#56c711e49d)"><g clip-path="url(#e7434258e4)"><path fill="#f266ff" d="M 0.128906 0.414062 L 41.375 0.414062 L 41.375 41.582031 L 0.128906 41.582031 Z M 0.128906 0.414062 " fill-opacity="1" fill-rule="nonzero"/></g></g><g clip-path="url(#166a45cb6e)"><g clip-path="url(#27c5e612ff)"><path fill="#ff637e" d="M 0.128906 0.414062 L 41.375 0.414062 L 41.375 41.582031 L 0.128906 41.582031 Z M 0.128906 0.414062 " fill-opacity="1" fill-rule="nonzero"/></g></g><g clip-path="url(#8755c70baa)"><g clip-path="url(#e6b165ad8d)"><path fill="#00d7be" d="M 0.128906 0.414062 L 41.375 0.414062 L 41.375 41.582031 L 0.128906 41.582031 Z M 0.128906 0.414062 " fill-opacity="1" fill-rule="nonzero"/></g></g><g clip-path="url(#4d30cdfb46)"><g clip-path="url(#f49d3b0d22)"><path fill="#1f93ff" d="M 0.128906 0.414062 L 41.375 0.414062 L 41.375 41.582031 L 0.128906 41.582031 Z M 0.128906 0.414062 " fill-opacity="1" fill-rule="nonzero"/></g></g><g clip-path="url(#bb77610bab)"><g clip-path="url(#3408c7c4de)"><path fill="#ffd500" d="M 0.128906 0.414062 L 41.375 0.414062 L 41.375 41.582031 L 0.128906 41.582031 Z M 0.128906 0.414062 " fill-opacity="1" fill-rule="nonzero"/></g></g><g clip-path="url(#f77a372550)"><g clip-path="url(#fdc1347c47)"><path fill="#1f93ff" d="M 0.128906 0.414062 L 41.375 0.414062 L 41.375 41.582031 L 0.128906 41.582031 Z M 0.128906 0.414062 " fill-opacity="1" fill-rule="nonzero"/></g></g><g clip-path="url(#431ed1ed65)"><g clip-path="url(#770c3d4263)"><path fill="#f266ff" d="M 0.128906 0.414062 L 41.375 0.414062 L 41.375 41.582031 L 0.128906 41.582031 Z M 0.128906 0.414062 " fill-opacity="1" fill-rule="nonzero"/></g></g><g clip-path="url(#cd0a3f8a46)"><g clip-path="url(#5d17969b85)"><path fill="#1f93ff" d="M 0.128906 0.414062 L 41.375 0.414062 L 41.375 41.582031 L 0.128906 41.582031 Z M 0.128906 0.414062 " fill-opacity="1" fill-rule="nonzero"/></g></g><g clip-path="url(#e0040840f9)"><g clip-path="url(#21264c1f59)"><path fill="#ffcf00" d="M 0.128906 0.414062 L 41.375 0.414062 L 41.375 41.582031 L 0.128906 41.582031 Z M 0.128906 0.414062 " fill-opacity="1" fill-rule="nonzero"/></g></g><g clip-path="url(#e7c7104456)"><g clip-path="url(#a3db2e9df9)"><path fill="#61d742" d="M 0.128906 0.414062 L 41.375 0.414062 L 41.375 41.582031 L 0.128906 41.582031 Z M 0.128906 0.414062 " fill-opacity="1" fill-rule="nonzero"/></g></g><g clip-path="url(#f6de56d346)"><g clip-path="url(#27b102042c)"><path fill="#1f93ff" d="M 0.128906 0.414062 L 41.375 0.414062 L 41.375 41.582031 L 0.128906 41.582031 Z M 0.128906 0.414062 " fill-opacity="1" fill-rule="nonzero"/></g></g><g clip-path="url(#ced0ccd4dd)"><g clip-path="url(#49f90fa739)"><path fill="#1f93ff" d="M 0.128906 0.414062 L 41.375 0.414062 L 41.375 41.582031 L 0.128906 41.582031 Z M 0.128906 0.414062 " fill-opacity="1" fill-rule="nonzero"/></g></g><g clip-path="url(#6a5efff388)"><g clip-path="url(#70b68350d3)"><path fill="#ff7a78" d="M 0.128906 0.414062 L 41.375 0.414062 L 41.375 41.582031 L 0.128906 41.582031 Z M 0.128906 0.414062 " fill-opacity="1" fill-rule="nonzero"/></g></g><g clip-path="url(#7adbdb6460)"><g clip-path="url(#6c992730dc)"><path fill="#ffcf00" d="M 0.128906 0.414062 L 41.375 0.414062 L 41.375 41.582031 L 0.128906 41.582031 Z M 0.128906 0.414062 " fill-opacity="1" fill-rule="nonzero"/></g></g></g></g></g><g clip-path="url(#ae18bf2636)"><path fill="#230fee" d="M 21.148438 36.339844 L 43.746094 44.226562 L 66.347656 36.339844 L 66.347656 49.996094 C 66.347656 54.261719 56.226562 57.71875 43.746094 57.71875 C 31.265625 57.71875 21.148438 54.261719 21.148438 49.996094 Z M 43.746094 12.277344 L 85.921875 26.992188 L 79.683594 29.167969 L 79.683594 41.257812 L 79.859375 41.3125 C 80.796875 41.707031 81.453125 42.632812 81.453125 43.714844 C 81.453125 44.433594 81.160156 45.085938 80.6875 45.558594 L 80.648438 45.589844 L 82.105469 54.136719 L 75.585938 54.136719 L 77.042969 45.589844 L 77 45.558594 C 76.527344 45.085938 76.238281 44.433594 76.238281 43.714844 C 76.238281 42.632812 76.894531 41.707031 77.832031 41.3125 L 78.007812 41.257812 L 78.007812 29.753906 L 43.746094 41.707031 L 1.574219 26.992188 Z M 43.746094 12.277344 " fill-opacity="1" fill-rule="evenodd"/></g></svg>